<?xml version="1.0" encoding="UTF-8"?>
<svg width="155px" height="140px" viewBox="0 0 155 140" version="1.1" xmlns="http://www.w3.org/2000/svg" xmlns:xlink="http://www.w3.org/1999/xlink">
    <title>Group 17</title>
    <defs>
        <polygon id="path-1" points="0.5 127.935185 127.5 127.935185 127.5 0.935185185 0.5 0.935185185"></polygon>
    </defs>
    <g id="desktop" stroke="none" stroke-width="1" fill="none" fill-rule="evenodd">
        <g id="The-Solution-" transform="translate(-301.000000, -4367.000000)">
            <g id="What-Can-Be-Done" transform="translate(176.000000, 4270.000000)">
                <g id="Group-17" transform="translate(125.000000, 97.000000)">
                    <g id="Group-18" fill="#FFFFFF">
                        <circle id="Oval" cx="59" cy="58.5" r="58.5"></circle>
                    </g>
                    <g id="Group-11" transform="translate(27.000000, 11.064815)">
                        <path d="M12.009375,51.6685102 L32.1118875,51.6685102 C32.989775,51.6685102 33.6993875,50.9573102 33.6993875,50.0810102 L33.6993875,40.7544477 L64.193675,23.4046602 L94.3006125,40.7496852 L94.3006125,50.0825977 C94.3006125,50.9588977 95.010225,51.6700977 95.8881125,51.6700977 L115.990625,51.6700977 L115.990625,124.760185 L83.446875,124.760185 L83.446875,89.5716602 C83.446875,88.6953602 82.7372625,87.9841602 81.859375,87.9841602 L46.140625,87.9841602 C45.2627375,87.9841602 44.553125,88.6953602 44.553125,89.5716602 L44.553125,124.760185 L12.009375,124.760185 L12.009375,51.6685102 Z M65.7859375,11.4523727 L77.49375,11.4523727 L77.49375,4.11018519 L65.7859375,4.11018519 L65.7859375,11.4523727 Z M47.728125,124.760185 L62.6109375,124.760185 L62.6109375,91.1591602 L47.728125,91.1591602 L47.728125,124.760185 Z M65.7859375,124.760185 L80.271875,124.760185 L80.271875,91.1591602 L65.7859375,91.1591602 L65.7859375,124.760185 Z M2.0875,127.935185 L125.9125,127.935185 C126.790387,127.935185 127.5,127.223985 127.5,126.347685 C127.5,125.471385 126.790387,124.760185 125.9125,124.760185 L119.165625,124.760185 L119.165625,50.0810102 C119.165625,49.2047102 118.456012,48.4935102 117.578125,48.4935102 L97.4756125,48.4935102 L97.4756125,39.8289352 C97.4756125,39.2621977 97.1724,38.7367352 96.680275,38.4525727 L65.7859375,20.6551102 L65.7859375,14.6273727 L79.08125,14.6273727 C79.9591375,14.6273727 80.66875,13.9161727 80.66875,13.0398727 L80.66875,2.52268519 C80.66875,1.64638519 79.9591375,0.935185185 79.08125,0.935185185 L64.1984375,0.935185185 C63.32055,0.935185185 62.6109375,1.64638519 62.6109375,2.52268519 L62.6109375,20.6503477 L31.3276625,38.4493977 C30.8323625,38.7319727 30.5243875,39.2590227 30.5243875,39.8289352 L30.5243875,48.4919227 L10.421875,48.4919227 C9.5439875,48.4919227 8.834375,49.2031227 8.834375,50.0794227 L8.834375,124.760185 L2.0875,124.760185 C1.2096125,124.760185 0.5,125.471385 0.5,126.347685 C0.5,127.223985 1.2096125,127.935185 2.0875,127.935185 L2.0875,127.935185 Z" id="Fill-1" fill="#000000"></path>
                        <mask id="mask-2" fill="white">
                            <use xlink:href="#path-1"></use>
                        </mask>
                        <g id="Clip-4"></g>
                        <path d="M23.8112583,101.733478 L35.1887417,101.733478 L35.1887417,90.1368928 L23.8112583,90.1368928 L23.8112583,101.733478 Z M36.8443709,86.9351852 L22.1556291,86.9351852 C21.2400662,86.9351852 20.5,87.6523677 20.5,88.536039 L20.5,103.334331 C20.5,104.218003 21.2400662,104.935185 22.1556291,104.935185 L36.8443709,104.935185 C37.7599338,104.935185 38.5,104.218003 38.5,103.334331 L38.5,88.536039 C38.5,87.6523677 37.7599338,86.9351852 36.8443709,86.9351852 L36.8443709,86.9351852 Z" id="Fill-3" fill="#000000" mask="url(#mask-2)"></path>
                        <path d="M23.8112583,79.7334776 L35.1887417,79.7334776 L35.1887417,68.1368928 L23.8112583,68.1368928 L23.8112583,79.7334776 Z M36.8443709,64.9351852 L22.1556291,64.9351852 C21.2400662,64.9351852 20.5,65.6523677 20.5,66.536039 L20.5,81.3343314 C20.5,82.2180027 21.2400662,82.9351852 22.1556291,82.9351852 L36.8443709,82.9351852 C37.7599338,82.9351852 38.5,82.2180027 38.5,81.3343314 L38.5,66.536039 C38.5,65.6523677 37.7599338,64.9351852 36.8443709,64.9351852 L36.8443709,64.9351852 Z" id="Fill-5" fill="#000000" mask="url(#mask-2)"></path>
                        <path d="M93.8109537,101.733478 L105.189046,101.733478 L105.189046,90.1368928 L93.8109537,90.1368928 L93.8109537,101.733478 Z M92.1554769,104.935185 L106.844523,104.935185 C107.760002,104.935185 108.5,104.218003 108.5,103.334331 L108.5,88.536039 C108.5,87.6523677 107.760002,86.9351852 106.844523,86.9351852 L92.1554769,86.9351852 C91.2399982,86.9351852 90.5,87.6523677 90.5,88.536039 L90.5,103.334331 C90.5,104.218003 91.2399982,104.935185 92.1554769,104.935185 L92.1554769,104.935185 Z" id="Fill-6" fill="#000000" mask="url(#mask-2)"></path>
                        <path d="M93.8109537,79.7334776 L105.189046,79.7334776 L105.189046,68.1368928 L93.8109537,68.1368928 L93.8109537,79.7334776 Z M92.1554769,82.9351852 L106.844523,82.9351852 C107.760002,82.9351852 108.5,82.2180027 108.5,81.3343314 L108.5,66.536039 C108.5,65.6523677 107.760002,64.9351852 106.844523,64.9351852 L92.1554769,64.9351852 C91.2399982,64.9351852 90.5,65.6523677 90.5,66.536039 L90.5,81.3343314 C90.5,82.2180027 91.2399982,82.9351852 92.1554769,82.9351852 L92.1554769,82.9351852 Z" id="Fill-7" fill="#000000" mask="url(#mask-2)"></path>
                        <path d="M47.8112583,79.7334776 L59.1887417,79.7334776 L59.1887417,68.1368928 L47.8112583,68.1368928 L47.8112583,79.7334776 Z M46.1556291,82.9351852 L60.8443709,82.9351852 C61.7599338,82.9351852 62.5,82.2180027 62.5,81.3343314 L62.5,66.536039 C62.5,65.6523677 61.7599338,64.9351852 60.8443709,64.9351852 L46.1556291,64.9351852 C45.2400662,64.9351852 44.5,65.6523677 44.5,66.536039 L44.5,81.3343314 C44.5,82.2180027 45.2400662,82.9351852 46.1556291,82.9351852 L46.1556291,82.9351852 Z" id="Fill-8" fill="#000000" mask="url(#mask-2)"></path>
                        <path d="M69.8112583,79.7334776 L81.1887417,79.7334776 L81.1887417,68.1368928 L69.8112583,68.1368928 L69.8112583,79.7334776 Z M66.5,66.536039 L66.5,81.3343314 C66.5,82.2180027 67.2400662,82.9351852 68.1556291,82.9351852 L82.8443709,82.9351852 C83.7599338,82.9351852 84.5,82.2180027 84.5,81.3343314 L84.5,66.536039 C84.5,65.6523677 83.7599338,64.9351852 82.8443709,64.9351852 L68.1556291,64.9351852 C67.2400662,64.9351852 66.5,65.6523677 66.5,66.536039 L66.5,66.536039 Z" id="Fill-9" fill="#000000" mask="url(#mask-2)"></path>
                        <path d="M65.5,37.2239827 C70.3029597,37.2239827 74.2114278,41.1310742 74.2114278,45.9360074 C74.2114278,50.7392962 70.3029597,54.6463877 65.5,54.6463877 C60.6970403,54.6463877 56.7885722,50.7392962 56.7885722,45.9360074 C56.7885722,41.1310742 60.6970403,37.2239827 65.5,37.2239827 M65.5,57.9351852 C72.1166073,57.9351852 77.5,52.553068 77.5,45.9360074 C77.5,39.3189467 72.1166073,33.9351852 65.5,33.9351852 C58.8833927,33.9351852 53.5,39.3189467 53.5,45.9360074 C53.5,52.553068 58.8833927,57.9351852 65.5,57.9351852" id="Fill-10" fill="#000000" mask="url(#mask-2)"></path>
                    </g>
                </g>
            </g>
        </g>
    </g>
</svg>