<?xml version="1.0" encoding="utf-8"?>
<!-- Generator: Adobe Illustrator 25.2.0, SVG Export Plug-In . SVG Version: 6.00 Build 0)  -->
<svg version="1.1" id="Layer_1" xmlns="http://www.w3.org/2000/svg" xmlns:xlink="http://www.w3.org/1999/xlink" x="0px" y="0px"
	 viewBox="0 0 71 36" style="enable-background:new 0 0 71 36;" xml:space="preserve">
<style type="text/css">
	.st0{fill:none;}
</style>
<g>
	<ellipse class="st0" cx="36" cy="8.5" rx="5.4" ry="5.8"/>
	<ellipse class="st0" cx="59" cy="8.5" rx="5.4" ry="5.8"/>
	<ellipse class="st0" cx="13" cy="8.5" rx="5.4" ry="5.8"/>
	<path class="st0" d="M35.5,21.6c-5.5,0-10,4.6-10,10.4c0,0.8,0.6,1.4,1.4,1.4h17.2c0.8,0,1.4-0.6,1.4-1.4
		C45.5,26.2,41,21.6,35.5,21.6z"/>
	<path class="st0" d="M12.5,21.6c-5.5,0-10,4.6-10,10.4c0,0.8,0.6,1.4,1.4,1.4h17.2c0.8,0,1.4-0.6,1.4-1.4
		C22.5,26.2,18,21.6,12.5,21.6z"/>
	<path class="st0" d="M58.5,21.6c-5.5,0-10,4.6-10,10.4c0,0.8,0.6,1.4,1.4,1.4h17.2c0.8,0,1.4-0.6,1.4-1.4
		C68.5,26.2,64,21.6,58.5,21.6z"/>
	<path d="M36,17c4.4,0,8-3.8,8-8.5S40.4,0,36,0s-8,3.8-8,8.5S31.6,17,36,17z M36,2.7c3,0,5.4,2.6,5.4,5.8S39,14.3,36,14.3
		s-5.4-2.6-5.4-5.8S33,2.7,36,2.7z"/>
	<path d="M59,17c4.4,0,8-3.8,8-8.5S63.4,0,59,0c-4.4,0-8,3.8-8,8.5S54.6,17,59,17z M59,2.7c3,0,5.4,2.6,5.4,5.8S62,14.3,59,14.3
		s-5.4-2.6-5.4-5.8S56,2.7,59,2.7z"/>
	<path d="M67.3,22.8C65,20.4,61.8,19,58.5,19c-5.1,0-9.6,3.3-11.5,7.9c-0.6-1.5-1.5-2.9-2.7-4.1C42,20.4,38.8,19,35.5,19
		c-5.2,0-9.6,3.3-11.5,7.9c-0.6-1.5-1.5-2.9-2.7-4.1C19,20.4,15.8,19,12.5,19C5.6,19,0,24.9,0,32c0,2.2,1.7,4,3.9,4h17.2
		c1.2,0,2.2-0.5,2.9-1.3c0.7,0.8,1.7,1.3,2.9,1.3h17.2c1.1,0,2.2-0.5,2.9-1.3c0.7,0.8,1.7,1.3,2.9,1.3h17.2c2.2,0,3.9-1.8,3.9-4
		C71,28.5,69.7,25.2,67.3,22.8z M67.1,33.4H49.9c-0.8,0-1.4-0.6-1.4-1.4c0-5.8,4.5-10.4,10-10.4s10,4.6,10,10.4
		C68.5,32.8,67.9,33.4,67.1,33.4z M44.1,33.4H26.9c-0.8,0-1.4-0.6-1.4-1.4c0-5.8,4.5-10.4,10-10.4s10,4.6,10,10.4
		C45.5,32.8,44.9,33.4,44.1,33.4z M21.1,33.4H3.9c-0.8,0-1.4-0.6-1.4-1.4c0-5.8,4.5-10.4,10-10.4s10,4.6,10,10.4
		C22.5,32.8,21.9,33.4,21.1,33.4z"/>
	<path d="M13,17c4.4,0,8-3.8,8-8.5S17.4,0,13,0C8.6,0,5,3.8,5,8.5S8.6,17,13,17z M13,2.7c3,0,5.4,2.6,5.4,5.8S16,14.3,13,14.3
		s-5.4-2.6-5.4-5.8S10,2.7,13,2.7z"/>
</g>
</svg>
