<?xml version="1.0" encoding="UTF-8"?>
<svg width="113px" height="98px" viewBox="0 0 113 98" version="1.1" xmlns="http://www.w3.org/2000/svg" xmlns:xlink="http://www.w3.org/1999/xlink">
    <title>Group 21</title>
    <g id="desktop" stroke="none" stroke-width="1" fill="none" fill-rule="evenodd">
        <g id="The-Solution-" transform="translate(-633.000000, -2046.000000)">
            <g id="In-the-Long-Run..." transform="translate(-102.000000, 1217.000000)">
                <g id="Group-21" transform="translate(735.000000, 829.000000)">
                    <circle id="Oval-Copy-5" fill="#00FFD9" cx="80" cy="33" r="33"></circle>
                    <g id="Group-19" transform="translate(0.000000, 3.000000)" fill="#000000" fill-rule="nonzero">
                        <g id="Group">
                            <path d="M47.5,95 C21.3085,95 0,73.6915 0,47.5 C0,21.3085 21.3085,0 47.5,0 C73.6915,0 95,21.3085 95,47.5 C95,73.6915 73.6915,95 47.5,95 Z M47.5,3.16666667 C23.0549167,3.16666667 3.16666667,23.0549167 3.16666667,47.5 C3.16666667,71.9450833 23.0549167,91.8333333 47.5,91.8333333 C71.9450833,91.8333333 91.8333333,71.9450833 91.8333333,47.5 C91.8333333,23.0549167 71.9450833,3.16666667 47.5,3.16666667 Z" id="Shape"></path>
                            <path d="M53.5311066,82 C51.3804614,82 49.3564179,80.6976596 48.5176821,78.5865308 L46.7832398,74.2241681 C46.6930361,73.9996816 46.6186577,73.7656424 46.5585219,73.5268269 L43.5580633,61.4507244 C43.5185003,61.2915141 43.4615296,61.1386722 43.3887336,60.9921987 L41.7777279,57.7522687 C41.3077194,56.8049674 40.2680035,56.3305206 39.2441128,56.5788887 L37.7122331,56.9641777 C36.0869847,57.3717561 34.3382997,56.9896513 33.0327204,55.9372711 L28.0240435,51.907658 C26.7374545,50.8696068 26,49.3252667 26,47.6694794 L26,45.9643369 C26,44.8259831 26.3481545,43.7369846 27.0049004,42.8119726 L33.0675359,34.2735233 C34.0787664,32.848591 35.71984,32 37.4574474,32 L40.7696625,32 C41.7508251,32 42.7114149,32.2690654 43.5469857,32.7753542 L49.286787,36.2397707 L49.286787,36.2397707 C49.7631256,36.5295335 50.3265029,36.6282439 50.8708899,36.5167967 L54.3033765,35.8242318 C56.792681,35.3227193 59.3215485,36.6632702 60.3201189,39.0100302 L63.3633055,46.1537972 C63.5468779,46.583665 63.866547,46.953033 64.2637596,47.1902563 L67.3813247,49.0737144 C68.7153894,49.8793186 69.6395812,51.2262379 69.9149398,52.7658016 C70.1902983,54.3085496 69.7899207,55.8942843 68.8182532,57.1170196 L66.0488426,60.6005413 C65.733921,60.996975 65.5598438,61.4953033 65.5598438,62.0015921 L65.5598438,67.0278618 C65.5598438,68.4575705 64.9838064,69.8570291 63.9789059,70.8664225 L62.2634539,72.5922624 C62.1336872,72.7228148 62.0213283,72.8676962 61.9279596,73.0237223 L58.1473184,79.3634772 C57.4858249,80.471581 56.4492741,81.3090272 55.2291509,81.7181977 C54.6705212,81.9108422 54.0960663,82 53.5311066,82 Z M39.8074901,53.3246298 C41.8109608,53.3246298 43.6751698,54.4470626 44.6104393,56.3289285 L46.2214451,59.5688585 C46.3971048,59.9223054 46.5347841,60.2964496 46.6297353,60.6801465 L49.6301939,72.756249 C49.6539317,72.8533673 49.6855821,72.9473014 49.7219801,73.0396434 L51.4580049,77.4067824 C51.8963631,78.5053335 53.1117387,79.0737144 54.2337456,78.7011622 C54.7369871,78.5308072 55.1658501,78.1853208 55.4412086,77.725203 L59.2202672,71.3870403 C59.4465677,71.0097118 59.7187612,70.657857 60.0305177,70.3442127 L61.7475522,68.6151887 C62.1637551,68.1980576 62.4011332,67.6201242 62.4011332,67.0294539 L62.4011332,62.0031842 C62.4011332,60.7756727 62.820501,59.5736348 63.5832759,58.6135966 L66.354269,55.1300748 C66.7625592,54.6174176 66.9223938,53.9789842 66.8084523,53.3325904 C66.6929283,52.6861965 66.3210361,52.1432893 65.7608239,51.8057634 L62.6448413,49.9238975 C61.6684262,49.3364114 60.913564,48.4671231 60.4625457,47.4099666 L57.4177766,40.2646075 C57.0047387,39.2950167 55.9602753,38.744149 54.9316371,38.9479382 L51.4975679,39.6405031 C50.1777459,39.9095685 48.8167784,39.6675689 47.6631211,38.9718198 L41.9201547,35.5058112 C41.5735828,35.2956536 41.1779527,35.1857984 40.7728275,35.1857984 L37.4606124,35.1857984 C36.7421482,35.1857984 36.0648294,35.5376532 35.6470441,36.1251393 L29.5844086,44.6635886 C29.3122151,45.0456934 29.1682057,45.4962586 29.1682057,45.965929 L29.1682057,47.6710715 C29.1682057,48.3556758 29.4736322,48.9941092 30.005359,49.4239771 L35.0124534,53.4519981 C35.5520928,53.8866423 36.2768872,54.0490368 36.9478758,53.8770896 L38.478173,53.4933928 C38.9212787,53.3787613 39.3675494,53.3246298 39.8074901,53.3246298 Z" id="Shape"></path>
                            <path d="M71.7142499,79 C71.2993417,79 70.9001497,78.8353396 70.6031132,78.5361009 L67.4598693,75.369554 C67.0889666,74.9959014 66.9270895,74.4591717 67.0308165,73.939858 L68.6024385,66.0234908 C68.6637317,65.717919 68.8130358,65.4360963 69.0314913,65.214438 L73.746357,60.4646177 C74.1565504,60.0513833 74.7600532,59.8978058 75.3132641,60.0687993 C75.8680466,60.2366263 76.2845265,60.7005254 76.3976832,61.2736704 L77.9693052,69.1900377 C78.0463146,69.5763564 77.9771633,69.9769246 77.7759957,70.3157451 L73.0611299,78.2321124 C72.8128136,78.6500966 72.3853325,78.9287527 71.9059878,78.9889171 C71.8415513,78.9952502 71.7771148,79 71.7142499,79 Z M70.2762158,73.7292827 L71.4014971,74.8644897 L74.7679113,69.2122035 L73.8909463,64.7964538 L71.5885201,67.1159494 L70.2762158,73.7292827 Z" id="Shape"></path>
                            <path d="M88.0373686,44 C85.5518572,44 83.3273956,42.2904591 82.6977116,39.7895815 C82.3259132,38.3115739 81.8607698,37.0444837 81.3181024,36.0200278 C80.9732001,35.3698314 80.3530088,34.95434 79.6141585,34.8782194 C78.8056949,34.7973413 78.0177988,35.1271971 77.4941169,35.7615351 C74.3093081,39.619896 71.2067696,41.4039717 68.2640252,41.0709442 C64.6979254,40.6617962 62.9670854,37.2712596 62.8943079,37.1269477 C55.562761,22.4277501 42.4643844,23.698012 42.3346505,23.7217997 C42.276112,23.728143 42.2191557,23.7313147 42.1606172,23.7313147 C41.2809582,23.7313147 40.3047898,23.943818 39.2621723,24.3608952 C35.7656857,25.7627822 31.9021472,24.711367 29.6476253,21.7458368 C27.4389849,18.837397 27.4516419,15.0567424 29.6808499,12.1165858 L29.8643758,11.8771232 C30.9750245,10.4466909 32.6742221,9.5364159 34.5221389,9.38576063 C40.4867336,8.90049205 44.9214177,6.02376917 47.7043679,0.834884247 C47.9923138,0.297282783 48.5650415,-0.0309871369 49.1725758,0.00231560861 C72.2683725,1.0902053 91.1161753,18.5662175 93.9877243,41.5562128 C94.0905621,42.3840239 93.5368199,43.1515729 92.7188635,43.3085716 C91.438928,43.5575492 90.1067824,43.77481 88.7588156,43.9540105 C88.5167512,43.9841415 88.2746867,44 88.0373686,44 Z M79.3705119,31.6938426 C79.5587843,31.6938426 79.7470566,31.7049435 79.935329,31.7239737 C81.7421107,31.9079317 83.2641107,32.9323876 84.1121274,34.5309194 C84.7750359,35.7805652 85.3319424,37.2887039 85.7654434,39.0125174 C86.0628821,40.1923861 87.1687844,40.9662785 88.3395537,40.8092798 C89.1132107,40.7061999 89.8821213,40.5888473 90.6367928,40.4619797 C87.399774,20.0600835 70.6039816,4.63774062 49.98895,3.2247527 C47.5588128,7.29085935 43.0197087,11.8739515 34.7800246,12.5463498 C33.8133489,12.625642 32.9321077,13.0918805 32.3609622,13.8277125 L32.2043322,14.0307007 C30.5684195,16.1874499 31.1142511,18.4361782 32.1663613,19.8237926 C33.2327106,21.2272654 35.4223656,22.4880122 38.0882388,21.415981 C39.4773407,20.8593494 40.8205611,20.5723114 42.0815112,20.5596247 C42.7206879,20.5009484 46.3168481,20.2773443 50.7879209,21.8378158 C55.2146944,23.3824288 61.400786,27.0409733 65.7247216,35.7092022 C65.729468,35.7203031 66.7831603,37.7232254 68.6421521,37.9230419 C70.4283662,38.146646 72.6401708,36.6702243 75.056069,33.7411685 C76.1334932,32.4360181 77.7140316,31.6938426 79.3705119,31.6938426 Z" id="Shape"></path>
                            <path d="M6.50155586,44 L2.60030527,44 C2.14708116,44 1.71467654,43.8083068 1.41199331,43.4728437 C1.10931007,43.1373805 0.9619722,42.6900964 1.00841566,42.2396173 C1.93408185,33.2603877 5.39331883,24.7444167 11.0161804,17.6102343 C11.4854195,17.0143879 12.3101913,16.8290845 12.9908282,17.1693399 L19.0028539,20.1677413 C21.5156053,21.4217344 23.2932687,23.8210944 23.7545003,26.586269 L23.8778157,27.3163007 C24.5168136,31.1469701 22.6078273,34.8881826 19.1261693,36.6246036 L15.9936381,38.1869033 C15.1224228,38.6214079 14.3761245,39.2795546 13.834818,40.087861 C12.1964849,42.5367418 9.45632078,44 6.50155586,44 Z M4.40999869,40.8051131 L6.50155586,40.8051131 C8.38171522,40.8051131 10.1273487,39.8738036 11.1699243,38.3131013 C12.0187185,37.0415364 13.192617,36.0095879 14.5618983,35.3258821 L17.6944296,33.7635824 C19.9109037,32.659749 21.1264411,30.2763634 20.7196604,27.8386647 L20.5963451,27.108633 C20.5963451,27.1070356 20.5963451,27.1070356 20.5963451,27.1070356 C20.3016693,25.3466529 19.1710113,23.8210944 17.5711142,23.0223727 L12.7441974,20.6150254 C8.31605378,26.5798792 5.45898027,33.5031991 4.40999869,40.8051131 Z" id="Shape"></path>
                            <path d="M20.0670707,86 C19.7221513,86 19.3819567,85.8861369 19.1000363,85.6632219 C8.78080273,77.5003615 2.18480912,65.2544673 1.00672812,52.0655944 C0.943729133,51.3727936 1.32802293,50.7200855 1.95486282,50.4458519 L3.60386123,49.7257882 L3.60386123,49.7257882 C6.90343301,48.2856608 10.6754972,49.0265727 13.2143562,51.6117457 L16.1327841,54.5834118 C16.9139715,55.3788496 17.8999056,55.9160909 18.9834882,56.1374023 C23.0500726,56.966518 26,60.6309847 26,64.853541 L26,65.2977674 C26,67.7145514 25.3054362,70.0527538 23.9887574,72.0605929 C23.209145,73.2505423 22.716178,74.6329363 22.5602555,76.0522156 L21.6310205,84.5743059 C21.5680215,85.1500362 21.2042024,85.6487885 20.6797358,85.874911 C20.482864,85.9583037 20.2749673,86 20.0670707,86 Z M4.26220061,52.9283878 C5.52218029,63.8319807 10.746371,73.9641912 18.8244157,81.2626543 L19.430781,75.696193 C19.6418276,73.7685391 20.3111918,71.8954113 21.3679997,70.2788762 C22.3381841,68.7986562 22.8500508,67.0762766 22.8500508,65.2961637 L22.8500508,64.8519373 C22.8500508,62.1529011 20.9648062,59.8098876 18.3645232,59.2806648 C16.6682755,58.9358682 15.1248004,58.0955265 13.9041951,56.8494475 L10.9857672,53.8777814 C9.36196835,52.2275686 6.95225722,51.7528718 4.84336624,52.671795 L4.26220061,52.9283878 Z" id="Shape"></path>
                        </g>
                    </g>
                </g>
            </g>
        </g>
    </g>
</svg>