<?xml version="1.0" encoding="UTF-8"?>
<svg width="159px" height="50px" viewBox="0 0 159 50" version="1.1" xmlns="http://www.w3.org/2000/svg" xmlns:xlink="http://www.w3.org/1999/xlink">
    <title>Group 43</title>
    <defs>
        <polygon id="path-1" points="0.05726 0.2016 27.97466 0.2016 27.97466 48.299825 0.05726 48.299825"></polygon>
        <polygon id="path-3" points="0 0.2016 30.93489 0.2016 30.93489 48.3 0 48.3"></polygon>
        <polygon id="path-5" points="0 48.4484 158.7397 48.4484 158.7397 0.35 0 0.35"></polygon>
    </defs>
    <g id="Page-1" stroke="none" stroke-width="1" fill="none" fill-rule="evenodd">
        <g id="Group-43">
            <g id="Group-3" transform="translate(36.050000, 0.148400)">
                <mask id="mask-2" fill="white">
                    <use xlink:href="#path-1"></use>
                </mask>
                <g id="Clip-2"></g>
                <path d="M14.42441,24.761625 L9.02041,24.761625 L9.02041,9.164575 L14.42441,9.164575 C16.95771,9.164575 19.01151,11.218375 19.01151,13.751675 L19.01151,20.174525 C19.01151,22.708175 16.95771,24.761625 14.42441,24.761625 M14.21196,0.201425 L0.43561,0.201425 C0.22701,0.201425 0.05726,0.370825 0.05726,0.579775 L0.05726,32.194925 L0.05726,47.921825 C0.05726,48.131125 0.22701,48.299825 0.43561,48.299825 L8.64206,48.299825 C8.85066,48.299825 9.02041,48.131125 9.02041,47.921825 L9.02041,33.724075 L14.21196,33.724075 C21.81256,33.724075 27.97466,27.562325 27.97466,19.961375 L27.97466,13.964475 C27.97466,6.363875 21.81256,0.201425 14.21196,0.201425" id="Fill-1" fill="#FFFFFF" mask="url(#mask-2)"></path>
            </g>
            <path d="M78.158955,11.554305 L78.159655,11.555005 L78.159655,9.312555 L92.953805,9.312555 C93.162755,9.312555 93.332505,9.143155 93.332505,8.934555 L93.332505,0.727755 C93.332505,0.519505 93.162755,0.350105 92.953805,0.350105 L69.575555,0.350105 C69.366605,0.350105 69.197555,0.519505 69.197555,0.727755 L69.197555,20.515705 L78.158955,11.554305 Z" id="Fill-4" fill="#FFFFFF"></path>
            <path d="M92.95398,39.48595 L78.15948,39.48595 L78.15948,28.43925 L78.15913,28.43855 L69.19703,37.4003 L69.19703,48.07005 C69.19703,48.27935 69.36608,48.44805 69.57503,48.44805 L92.95398,48.44805 C93.16328,48.44805 93.33233,48.27935 93.33233,48.07005 L93.33233,39.8643 C93.33233,39.655 93.16328,39.48595 92.95398,39.48595" id="Fill-6" fill="#FFFFFF"></path>
            <g id="Group-10" transform="translate(0.000000, 0.148400)">
                <mask id="mask-4" fill="white">
                    <use xlink:href="#path-3"></use>
                </mask>
                <g id="Clip-9"></g>
                <path d="M30.55689,23.096045 L15.84569,23.096045 C15.63674,23.096045 15.46769,23.265445 15.46769,23.474395 L15.46769,31.727045 C15.46769,31.935995 15.63674,32.105045 15.84569,32.105045 L21.97244,32.105045 L21.97244,32.832695 C21.97244,36.425095 19.05974,39.337445 15.46769,39.337445 C11.87494,39.337445 8.96259,36.425095 8.96259,32.832695 L8.96259,15.669045 C8.96259,12.076995 11.87494,9.163945 15.46769,9.163945 C18.94144,9.163945 21.77994,11.887995 21.96264,15.315895 C21.97349,15.510145 22.14499,15.669045 22.33924,15.669045 L30.55094,15.669045 C30.76234,15.669045 30.93559,15.496145 30.92999,15.285445 C30.72629,6.920095 23.88169,0.201495 15.46769,0.201495 C6.92489,0.201495 -0.00021,7.126595 -0.00021,15.669045 L-0.00021,32.832695 C-0.00021,41.375495 6.92489,48.300245 15.46769,48.300245 C24.01014,48.300245 30.93489,41.375495 30.93489,32.832695 L30.93489,30.200695 L30.93489,26.154345 L30.93489,23.474395 C30.93489,23.265445 30.76584,23.096045 30.55689,23.096045" id="Fill-8" fill="#FFFFFF" mask="url(#mask-4)"></path>
            </g>
            <polygon id="Fill-11" fill="#FFFFFF" points="104.31974 16.70655 104.31974 22.2628 102.98344 22.2628 102.98344 16.70655 100.83024 16.70655 100.83024 15.44725 106.47294 15.44725 106.47294 16.70655"></polygon>
            <path d="M109.214595,18.802105 C109.070395,18.773055 108.945095,18.763955 108.829595,18.763955 C108.176145,18.763955 107.609145,19.081055 107.609145,20.099905 L107.609145,22.263255 L106.330595,22.263255 L106.330595,17.533355 L107.570645,17.533355 L107.570645,18.235105 C107.859045,17.610705 108.512845,17.495205 108.916395,17.495205 C109.022445,17.495205 109.118345,17.504305 109.214595,17.514105 L109.214595,18.802105 Z" id="Fill-13" fill="#FFFFFF"></path>
            <path d="M112.12978,21.29211 C112.79303,21.29211 113.29283,20.74436 113.29283,19.87881 C113.29283,19.01361 112.80283,18.50436 112.12978,18.50436 C111.44728,18.50436 110.94748,19.01361 110.94748,19.87881 C110.94748,20.73456 111.43748,21.29211 112.12978,21.29211 L112.12978,21.29211 Z M113.30263,21.61936 C113.10068,22.07121 112.61068,22.39741 111.97613,22.39741 C110.58173,22.39741 109.65878,21.31171 109.65878,19.87881 C109.65878,18.49456 110.56248,17.39871 111.93728,17.39871 C112.78358,17.39871 113.17733,17.85056 113.29283,18.12006 L113.29283,17.53311 L114.53288,17.53311 L114.53288,21.40726 C114.53288,21.83041 114.56158,22.15766 114.57173,22.26301 L113.35058,22.26301 C113.33168,22.15766 113.30263,21.90741 113.30263,21.67711 L113.30263,21.61936 Z" id="Fill-15" fill="#FFFFFF"></path>
            <path d="M117.0134,22.26315 L115.73485,22.26315 L115.73485,17.5329 L116.9749,17.5329 L116.9749,18.11985 C117.2633,17.6295 117.83065,17.4083 118.3399,17.4083 C119.51275,17.4083 120.0514,18.2448 120.0514,19.28255 L120.0514,22.26315 L118.77215,22.26315 L118.77215,19.5041 C118.77215,18.9749 118.5128,18.5619 117.8975,18.5619 C117.3403,18.5619 117.0134,18.9945 117.0134,19.5426 L117.0134,22.26315 Z" id="Fill-17" fill="#FFFFFF"></path>
            <path d="M121.941085,20.70558 C121.969785,21.08043 122.248735,21.42693 122.806285,21.42693 C123.229085,21.42693 123.431035,21.20573 123.431035,20.95548 C123.431035,20.74408 123.286835,20.57118 122.921435,20.49418 L122.296685,20.34998 C121.383535,20.14803 120.970185,19.60028 120.970185,18.93668 C120.970185,18.09073 121.719885,17.38898 122.739085,17.38898 C124.084835,17.38898 124.536685,18.24508 124.594435,18.75398 L123.527285,18.99443 C123.488785,18.71548 123.286835,18.35988 122.748535,18.35988 C122.412185,18.35988 122.143035,18.56183 122.143035,18.83133 C122.143035,19.06198 122.315935,19.20583 122.575285,19.25448 L123.248335,19.39868 C124.181085,19.59048 124.651835,20.15818 124.651835,20.84978 C124.651835,21.61873 124.055785,22.40728 122.815735,22.40728 C121.392985,22.40728 120.902985,21.48468 120.845235,20.94603 L121.941085,20.70558 Z" id="Fill-19" fill="#FFFFFF"></path>
            <path d="M127.18664,17.014165 L127.18664,17.533215 L128.25414,17.533215 L128.25414,18.629065 L127.18664,18.629065 L127.18664,22.263115 L125.89829,22.263115 L125.89829,18.629065 L125.11009,18.629065 L125.11009,17.533215 L125.89829,17.533215 L125.89829,16.994915 C125.89829,15.927765 126.57134,15.235465 127.61924,15.235465 C127.88839,15.235465 128.14774,15.284115 128.25414,15.331715 L128.25414,16.409015 C128.18624,16.389065 128.06164,16.360715 127.85024,16.360715 C127.56149,16.360715 127.18664,16.485315 127.18664,17.014165" id="Fill-21" fill="#FFFFFF"></path>
            <path d="M132.28418,19.898235 C132.28418,19.003985 131.70738,18.552135 131.08228,18.552135 C130.45718,18.552135 129.88108,19.003985 129.88108,19.898235 C129.88108,20.782335 130.45718,21.243985 131.08228,21.243985 C131.70738,21.243985 132.28418,20.792135 132.28418,19.898235 M133.56238,19.898235 C133.56238,21.349335 132.49558,22.407385 131.08228,22.407385 C129.66898,22.407385 128.60183,21.349335 128.60183,19.898235 C128.60183,18.436985 129.66898,17.389435 131.08228,17.389435 C132.49558,17.389435 133.56238,18.436985 133.56238,19.898235" id="Fill-23" fill="#FFFFFF"></path>
            <path d="M137.33013,18.802105 C137.18593,18.773055 137.06063,18.763955 136.94513,18.763955 C136.29168,18.763955 135.72433,19.081055 135.72433,20.099905 L135.72433,22.263255 L134.44613,22.263255 L134.44613,17.533355 L135.68618,17.533355 L135.68618,18.235105 C135.97458,17.610705 136.62803,17.495205 137.03193,17.495205 C137.13763,17.495205 137.23423,17.504305 137.33013,17.514105 L137.33013,18.802105 Z" id="Fill-25" fill="#FFFFFF"></path>
            <path d="M138.006225,22.26315 L138.006225,17.5329 L139.227025,17.5329 L139.227025,18.1104 C139.486725,17.6484 140.092575,17.39885 140.611625,17.39885 C141.255625,17.39885 141.775025,17.6771 142.015125,18.18705 C142.389975,17.6106 142.889775,17.39885 143.514525,17.39885 C144.389175,17.39885 145.225675,17.9277 145.225675,19.19645 L145.225675,22.26315 L143.985625,22.26315 L143.985625,19.4558 C143.985625,18.9462 143.735725,18.5619 143.149125,18.5619 C142.601375,18.5619 142.274475,18.98505 142.274475,19.4943 L142.274475,22.26315 L141.005725,22.26315 L141.005725,19.4558 C141.005725,18.9462 140.746025,18.5619 140.169575,18.5619 C139.612025,18.5619 139.284775,18.9749 139.284775,19.4943 L139.284775,22.26315 L138.006225,22.26315 Z" id="Fill-27" fill="#FFFFFF"></path>
            <mask id="mask-6" fill="white">
                <use xlink:href="#path-5"></use>
            </mask>
            <g id="Clip-30"></g>
            <path d="M146.36755,22.2635 L147.64575,22.2635 L147.64575,17.53325 L146.36755,17.53325 L146.36755,22.2635 Z M147.00175,15.18755 C147.4438,15.18755 147.7903,15.5435 147.7903,15.98555 C147.7903,16.40835 147.4438,16.76395 147.00175,16.76395 C146.5695,16.76395 146.21355,16.40835 146.21355,15.98555 C146.21355,15.5435 146.5695,15.18755 147.00175,15.18755 L147.00175,15.18755 Z" id="Fill-29" fill="#FFFFFF" mask="url(#mask-6)"></path>
            <path d="M150.098655,22.26315 L148.820105,22.26315 L148.820105,17.5329 L150.060155,17.5329 L150.060155,18.11985 C150.348555,17.6295 150.915905,17.4083 151.425505,17.4083 C152.598005,17.4083 153.136305,18.2448 153.136305,19.28255 L153.136305,22.26315 L151.857405,22.26315 L151.857405,19.5041 C151.857405,18.9749 151.598055,18.5619 150.982755,18.5619 C150.425555,18.5619 150.098655,18.9945 150.098655,19.5426 L150.098655,22.26315 Z" id="Fill-31" fill="#FFFFFF" mask="url(#mask-6)"></path>
            <path d="M157.49993,19.754 C157.49993,19.02355 156.99978,18.5619 156.38448,18.5619 C155.75028,18.5619 155.25048,19.02355 155.25048,19.754 C155.25048,20.49425 155.72158,20.9559 156.38448,20.9559 C157.03863,20.9559 157.49993,20.48445 157.49993,19.754 L157.49993,19.754 Z M155.11573,22.2152 C155.20218,22.73425 155.61553,23.1091 156.22138,23.1091 C157.02848,23.1091 157.48033,22.7052 157.48033,21.79205 L157.48033,21.4459 C157.28853,21.75355 156.84613,22.05105 156.16363,22.05105 C154.90433,22.05105 153.96213,21.08085 153.96213,19.754 C153.96213,18.5045 154.86583,17.4468 156.16363,17.4468 C156.91368,17.4468 157.34593,17.7737 157.50938,18.09115 L157.50938,17.5329 L158.73998,17.5329 L158.73998,21.75355 C158.73998,23.05135 158.03823,24.23365 156.25988,24.23365 C154.96208,24.23365 154.09653,23.4262 153.96213,22.52285 L155.11573,22.2152 Z" id="Fill-32" fill="#FFFFFF" mask="url(#mask-6)"></path>
            <polygon id="Fill-33" fill="#FFFFFF" mask="url(#mask-6)" points="100.830345 33.466545 100.830345 26.650645 105.098245 26.650645 105.098245 27.900845 102.156495 27.900845 102.156495 29.457645 104.819295 29.457645 104.819295 30.640295 102.156495 30.640295 102.156495 32.217395 105.098245 32.217395 105.098245 33.466545"></polygon>
            <path d="M108.27432,32.438105 C108.92812,32.438105 109.43772,31.937955 109.43772,31.082555 C109.43772,30.236605 108.92812,29.765155 108.27432,29.765155 C107.62052,29.765155 107.10147,30.246055 107.10147,31.092005 C107.10147,31.937955 107.60162,32.438105 108.27432,32.438105 L108.27432,32.438105 Z M110.67777,32.611355 C110.67777,32.928105 110.69702,33.274605 110.71592,33.466405 L109.49512,33.466405 C109.47587,33.370505 109.44717,33.139855 109.44717,32.919005 C109.23577,33.293505 108.75522,33.582255 108.12102,33.582255 C106.77457,33.582255 105.81347,32.524905 105.81347,31.092005 C105.81347,29.708105 106.74587,28.621705 108.08217,28.621705 C108.89907,28.621705 109.28372,28.958055 109.41847,29.207955 L109.41847,26.506655 L110.67777,26.506655 L110.67777,32.611355 Z" id="Fill-34" fill="#FFFFFF" mask="url(#mask-6)"></path>
            <path d="M114.920925,32.957295 C114.661575,33.399345 114.113125,33.591495 113.613675,33.591495 C112.469525,33.591495 111.816075,32.755345 111.816075,31.726345 L111.816075,28.736645 L113.093925,28.736645 L113.093925,31.467345 C113.093925,31.995845 113.363425,32.418995 113.959475,32.418995 C114.526825,32.418995 114.853725,32.033995 114.853725,31.486245 L114.853725,28.736645 L116.132275,28.736645 L116.132275,32.611145 C116.132275,32.976545 116.160975,33.303095 116.180225,33.466895 L114.959425,33.466895 C114.940175,33.370645 114.920925,33.149445 114.920925,32.957295" id="Fill-35" fill="#FFFFFF" mask="url(#mask-6)"></path>
            <path d="M118.28453,31.101665 C118.28453,31.957415 118.84208,32.437965 119.49588,32.437965 C120.14968,32.437965 120.47623,32.005365 120.58193,31.639965 L121.70683,32.014815 C121.49543,32.803365 120.75518,33.610815 119.49588,33.610815 C118.10183,33.610815 117.00598,32.553115 117.00598,31.101665 C117.00598,29.640415 118.08258,28.592865 119.45738,28.592865 C120.74538,28.592865 121.47618,29.390515 121.67778,30.188865 L120.53398,30.573165 C120.41883,30.178715 120.12063,29.774815 119.48608,29.774815 C118.83193,29.774815 118.28453,30.246615 118.28453,31.101665" id="Fill-36" fill="#FFFFFF" mask="url(#mask-6)"></path>
            <path d="M124.68946,32.495855 C125.35306,32.495855 125.85286,31.947755 125.85286,31.082555 C125.85286,30.217355 125.36251,29.708105 124.68946,29.708105 C124.00696,29.708105 123.50716,30.217355 123.50716,31.082555 C123.50716,31.938305 123.99751,32.495855 124.68946,32.495855 L124.68946,32.495855 Z M125.86266,32.822755 C125.66036,33.274605 125.17036,33.601505 124.53616,33.601505 C123.14176,33.601505 122.21881,32.515105 122.21881,31.082555 C122.21881,29.698305 123.12251,28.602455 124.49731,28.602455 C125.34326,28.602455 125.73736,29.054305 125.85286,29.323455 L125.85286,28.736855 L127.09291,28.736855 L127.09291,32.611355 C127.09291,33.034155 127.12161,33.361055 127.13141,33.466405 L125.91026,33.466405 C125.89136,33.361055 125.86266,33.111155 125.86266,32.880505 L125.86266,32.822755 Z" id="Fill-37" fill="#FFFFFF" mask="url(#mask-6)"></path>
            <path d="M129.8906,28.736785 L130.84225,28.736785 L130.84225,29.871135 L129.8906,29.871135 L129.8906,31.851435 C129.8906,32.265135 130.08275,32.399535 130.44815,32.399535 C130.60145,32.399535 130.7747,32.380285 130.84225,32.361035 L130.84225,33.418385 C130.7271,33.467035 130.49575,33.533885 130.1209,33.533885 C129.19795,33.533885 128.62115,32.986485 128.62115,32.072635 L128.62115,29.871135 L127.7661,29.871135 L127.7661,28.736785 L128.00585,28.736785 C128.50635,28.736785 128.73665,28.409885 128.73665,27.987085 L128.73665,27.323485 L129.8906,27.323485 L129.8906,28.736785 Z" id="Fill-38" fill="#FFFFFF" mask="url(#mask-6)"></path>
            <path d="M131.7309,33.467 L133.00945,33.467 L133.00945,28.73675 L131.7309,28.73675 L131.7309,33.467 Z M132.3651,26.3914 C132.8075,26.3914 133.15365,26.74735 133.15365,27.18905 C133.15365,27.61185 132.8075,27.96815 132.3651,27.96815 C131.93285,27.96815 131.5769,27.61185 131.5769,27.18905 C131.5769,26.74735 131.93285,26.3914 132.3651,26.3914 L132.3651,26.3914 Z" id="Fill-39" fill="#FFFFFF" mask="url(#mask-6)"></path>
            <path d="M137.54615,31.101665 C137.54615,30.207765 136.96935,29.755915 136.3446,29.755915 C135.7195,29.755915 135.14305,30.207765 135.14305,31.101665 C135.14305,31.986115 135.7195,32.447765 136.3446,32.447765 C136.96935,32.447765 137.54615,31.996265 137.54615,31.101665 M138.8247,31.101665 C138.8247,32.553115 137.75755,33.610815 136.3446,33.610815 C134.9313,33.610815 133.86415,32.553115 133.86415,31.101665 C133.86415,29.640415 134.9313,28.592865 136.3446,28.592865 C137.75755,28.592865 138.8247,29.640415 138.8247,31.101665" id="Fill-40" fill="#FFFFFF" mask="url(#mask-6)"></path>
            <path d="M140.986685,33.466545 L139.708135,33.466545 L139.708135,28.736645 L140.948185,28.736645 L140.948185,29.323245 C141.236585,28.833245 141.803935,28.611695 142.313535,28.611695 C143.486035,28.611695 144.024335,29.448545 144.024335,30.486295 L144.024335,33.466545 L142.745785,33.466545 L142.745785,30.707495 C142.745785,30.178645 142.486435,29.765295 141.871135,29.765295 C141.313585,29.765295 140.986685,30.198245 140.986685,30.746345 L140.986685,33.466545 Z" id="Fill-41" fill="#FFFFFF" mask="url(#mask-6)"></path>
            <path d="M93.191175,28.69132 L78.158675,13.65917 L63.126525,28.69132 C62.978475,28.83902 62.978475,29.07842 63.126525,29.22612 L68.929175,35.02877 C69.076875,35.17647 69.315925,35.17647 69.463625,35.02877 L78.158675,26.33407 L86.854075,35.02877 C87.001425,35.17647 87.240825,35.17647 87.388525,35.02877 L93.191175,29.22612 C93.338875,29.07842 93.338875,28.83902 93.191175,28.69132" id="Fill-42" fill="#FFFFFF" mask="url(#mask-6)"></path>
        </g>
    </g>
</svg>