<?xml version="1.0" encoding="UTF-8"?>
<svg width="96px" height="82px" viewBox="0 0 96 82" version="1.1" xmlns="http://www.w3.org/2000/svg" xmlns:xlink="http://www.w3.org/1999/xlink">
    <title>Group 11</title>
    <g id="desktop" stroke="none" stroke-width="1" fill="none" fill-rule="evenodd">
        <g id="The-Solution-" transform="translate(-274.000000, -2451.000000)">
            <g id="In-the-Long-Run..." transform="translate(0.000000, 1825.000000)">
                <g id="Group-30" transform="translate(171.000000, 620.000000)">
                    <g id="Group-11" transform="translate(103.000000, 6.637820)">
                        <circle id="Oval" fill="#00FFD9" cx="63" cy="47.36218" r="33"></circle>
                        <g id="Group" fill="#000000" fill-rule="nonzero">
                            <path d="M20.248201,0.37799 C15.059901,0.37799 9.8846,2.3883 5.9357,6.40924 C-1.9620003,14.45115 -1.9526003,27.42379 5.9357,35.4718 L37.560701,67.753 C37.9364038,68.1327167 38.4483812,68.34638 38.982551,68.34638 C39.5167208,68.34638 40.0286982,68.1327167 40.404401,67.753 C50.957901,57.0071 61.507301,46.2489 72.060701,35.503 C79.958501,27.46109 79.958501,14.48239 72.060701,6.44049 C64.162901,-1.6014 51.302301,-1.6015 43.404401,6.44049 L38.998201,10.94049 L34.592001,6.40924 C30.643001,2.3883 25.436501,0.37799 20.248201,0.37799 L20.248201,0.37799 Z M20.248201,4.31549 C24.385601,4.31549 28.520001,5.9665 31.717001,9.22174 L37.592001,15.19049 C37.9677038,15.5702067 38.4796812,15.78387 39.013851,15.78387 C39.5480208,15.78387 40.0599982,15.5702067 40.435701,15.19049 L46.279401,9.25299 C52.673401,2.74242 62.823101,2.74252 69.217001,9.25299 C75.610801,15.76345 75.610801,26.21129 69.217001,32.7218 C59.138501,42.984 49.076701,53.2407 38.998201,63.503 L8.7794,32.6905 C2.3903,26.17199 2.3857,15.73219 8.7794,9.22174 C11.976401,5.9665 16.110801,4.31549 20.248201,4.31549 L20.248201,4.31549 Z" id="Shape"></path>
                        </g>
                    </g>
                </g>
            </g>
        </g>
    </g>
</svg>