<?xml version="1.0" encoding="UTF-8"?>
<svg width="105px" height="101px" viewBox="0 0 105 101" version="1.1" xmlns="http://www.w3.org/2000/svg" xmlns:xlink="http://www.w3.org/1999/xlink">
    <title>Group 3</title>
    <defs>
        <polygon id="path-1" points="0 0 105 0 105 101 0 101"></polygon>
    </defs>
    <g id="desktop" stroke="none" stroke-width="1" fill="none" fill-rule="evenodd">
        <g id="The-Solution-" transform="translate(-996.000000, -2420.000000)">
            <g id="In-the-Long-Run..." transform="translate(-102.000000, 1217.000000)">
                <g id="Group-3" transform="translate(1098.000000, 1203.000000)">
                    <g id="Group-12" transform="translate(19.000000, 25.000000)" fill="#00FFD9">
                        <circle id="Oval-Copy-7" cx="33" cy="33" r="33"></circle>
                    </g>
                    <mask id="mask-2" fill="white">
                        <use xlink:href="#path-1"></use>
                    </mask>
                    <g id="Clip-2"></g>
                    <path d="M72.4279642,97.7275791 L101.710578,97.7275791 L101.710578,28.0920976 L72.4279642,28.0920976 L72.4279642,97.7275791 Z M54.9771733,94.1770023 C67.3454644,81.3589295 69.1730644,54.930858 54.9771733,45.8024397 L54.9771733,28.0920976 L69.1386123,28.0920976 L69.1386123,97.7210342 L54.9771733,97.7210342 L54.9771733,94.1770023 Z M41.526103,96.7998477 C38.684628,96.4464263 36.008851,94.8085796 33.7858726,92.0613822 C33.2461236,91.3938083 32.3454482,91.4150791 32.507865,91.4527119 C32.0156927,91.4527119 31.548129,91.6752365 31.2364198,92.0564736 C28.9937545,94.8053072 26.3048529,96.4464263 23.4600967,96.7982115 C14.5435744,97.9091984 5.28253135,86.1432089 3.55336583,72.0947058 C1.90786962,58.7023231 7.81229721,47.7266233 17.2849743,46.5632776 C23.3649434,45.8302553 24.5313919,48.8719706 30.5933146,49.5297272 C30.4308977,51.6240766 30.4620686,53.6333431 30.6261261,55.4168125 C29.0790644,55.1730171 28.0044881,54.7083333 27.9618331,54.6886988 C27.1382647,54.3140066 26.1670446,54.6756091 25.7913531,55.4937144 C25.4107398,56.315092 25.7733068,57.287001 26.5952346,57.6633294 C26.7510891,57.7353227 29.2201538,58.841401 32.4323986,58.841401 C32.4504449,58.841401 32.4701318,58.8381286 32.4865376,58.8381286 C32.4898187,58.8381286 32.4914593,58.8397648 32.4930999,58.8397648 C32.5062245,58.8397648 32.5193491,58.8364924 32.5324737,58.8364924 C34.1730482,58.8250389 36.0006481,58.5256124 37.8118424,57.6486036 C38.6255673,57.2542768 38.9651662,56.2741868 38.5697878,55.4609902 C38.1744093,54.6494298 37.1999081,54.3107342 36.3763397,54.7050609 C35.5658959,55.0977514 34.7390464,55.3251847 33.9351648,55.4479005 C33.8072,54.0931182 33.6940004,51.961136 33.872823,49.5608152 C36.0547871,49.3906493 38.2137831,48.8392464 40.238252,47.8575201 C45.7046463,45.2150402 52.0569507,46.2998477 56.4881424,51.4571831 C68.657924,65.6104037 56.8572717,98.6863984 41.526103,96.7998477 L41.526103,96.7998477 Z M20.0657426,28.1624546 C22.4199725,28.1771805 26.6920285,28.5436917 29.3218694,31.1665371 C31.1773591,33.0170911 31.9057742,35.7119298 32.1813907,37.9339036 L28.8526651,34.6123963 C28.2112004,33.9742742 27.1743574,33.9742742 26.5328927,34.6123963 C24.7134956,36.4253175 28.2768234,38.2529646 29.8583372,40.2442328 C27.6894978,39.9677132 24.9398949,39.251053 23.0762023,37.3939541 C20.4299556,34.7563828 20.0641075,30.3877009 20.0657426,28.1624546 L20.0657426,28.1624546 Z M63.6886238,10.0937824 L93.0007683,10.0937824 L93.0007683,3.27242094 L63.6886238,3.27242094 L63.6886238,10.0937824 Z M71.7274388,24.8196766 L64.925617,13.3662033 L93.7045747,13.3662033 L100.478507,24.8196766 L71.7274388,24.8196766 Z M62.0447682,14.9386016 L62.1382809,15.0956778 L67.9032597,24.8196766 L56.204323,24.8196766 L62.0447682,14.9386016 Z M96.2835578,11.2833074 L96.2835578,1.63621047 C96.2835578,0.731386081 95.5485805,0 94.6429834,0 L62.0480493,0 C61.1424522,0 60.4074749,0.731386081 60.4074749,1.63621047 L60.4074749,11.2653091 C51.4187672,26.5049734 51.6960243,25.809584 51.6960243,26.4493423 L51.6960243,44.1940448 C43.3799522,41.1686917 39.3949968,45.5913686 34.3174187,46.2393079 C35.00646,42.757452 35.4526963,42.9063472 35.546209,42.1962319 C37.0735839,38.6374741 39.8363113,35.589214 44.7514725,34.6794809 C45.6423044,34.5142237 46.2312707,33.6601218 46.0655726,32.7716595 C45.8998746,31.8831973 45.0418542,31.2974339 44.1526628,31.461055 C40.2185652,32.1908048 37.3639655,34.0642658 35.29192,36.5234902 C34.8440431,33.9710018 33.8416521,31.0454575 31.6416417,28.8529355 C28.1849513,25.40544 22.9203477,24.8900337 20.0903567,24.8900337 C18.9993747,24.8900337 18.3136145,24.9669356 18.3136145,24.9669356 C17.5507474,25.0520185 16.9437348,25.654144 16.8600655,26.4166181 C16.8223323,26.7618585 15.9889205,34.9543643 20.75643,39.7091919 C23.9539096,42.8948937 28.675483,43.5788297 31.6301577,43.6671851 C31.3807904,44.5311042 31.1642345,45.4032044 31.0034582,46.2818494 C25.7880719,45.7353551 23.8423506,42.4711152 16.8863147,43.3153998 C5.55486671,44.7078149 -1.57671061,57.2510044 0.298466039,72.492305 C2.27043658,88.5189865 13.0309647,101.40578 23.8620375,100.046089 C27.0185028,99.655035 29.9764586,98.1088161 32.5062245,95.5465105 C37.7724686,100.913281 44.9024053,101.819741 51.6960243,96.9781947 L51.6960243,99.3572447 C51.6960243,100.260433 52.4293611,100.993455 53.3365988,100.993455 C58.4519101,100.993455 34.8095911,100.990183 103.351153,101 C104.25839,101 104.991727,100.266978 104.991727,99.3637895 C104.94251,21.9137668 105.098365,26.4869751 104.878528,25.8930307 C104.727595,25.4872505 104.204251,24.7313213 96.2835578,11.2833074 L96.2835578,11.2833074 Z" id="Fill-1" fill="#000000" mask="url(#mask-2)"></path>
                </g>
            </g>
        </g>
    </g>
</svg>