<?xml version="1.0" encoding="UTF-8"?>
<svg width="131px" height="107px" viewBox="0 0 131 107" version="1.1" xmlns="http://www.w3.org/2000/svg" xmlns:xlink="http://www.w3.org/1999/xlink">
    <title>Group 20</title>
    <defs>
        <polygon id="path-1" points="0.690641145 0.210945205 94.9473432 0.210945205 94.9473432 106.741125 0.690641145 106.741125"></polygon>
        <polygon id="path-3" points="0.1938 0.98448 5.2185 0.98448 5.2185 5.67588 0.1938 5.67588"></polygon>
    </defs>
    <g id="desktop" stroke="none" stroke-width="1" fill="none" fill-rule="evenodd">
        <g id="The-Solution-" transform="translate(-614.000000, -2415.000000)">
            <g id="In-the-Long-Run..." transform="translate(0.000000, 1825.000000)">
                <g id="Group-20" transform="translate(614.000000, 590.000000)">
                    <g id="Group-3" transform="translate(8.000000, 5.000000)" fill="#FFFFFF">
                        <circle id="Oval-Copy-4" cx="33" cy="33" r="33"></circle>
                    </g>
                    <g id="Group-23" transform="translate(19.309211, 0.000000)">
                        <path d="M41.2773955,66.7401176 L40.483517,65.707848 L40.6050749,65.4794975 C40.7476429,65.2089178 40.884208,64.9508504 40.9892581,64.6771426 C41.3704399,63.6745899 40.8992152,62.5359653 39.9372565,62.1371339 C38.9767985,61.7429946 37.8842775,62.2356687 37.5030958,63.2335293 C36.794758,65.0931785 34.7372769,65.7547694 33.1900391,65.7547694 C31.644302,65.7547694 29.5868209,65.0931785 28.8769825,63.2335293 C28.4973014,62.2356687 27.4062812,61.7383025 26.4398203,62.138698 C25.480863,62.5359653 25.0096383,63.6745899 25.3908201,64.6771426 C25.4973709,64.9555425 25.6369375,65.216738 25.776504,65.4779335 L25.898062,65.707848 L25.1041834,66.7401176 C24.7905339,67.1467692 24.6479659,67.6566478 24.7019916,68.1759106 C24.7575181,68.6951735 25.0021348,69.1612588 25.3938215,69.4881442 C26.1726929,70.1403508 27.401779,70.0011508 28.0305789,69.1847195 L28.6128565,68.4292859 L28.8859868,68.5778701 C29.5523045,68.9407285 30.272648,69.2160004 31.0230058,69.3943015 L31.3141446,69.4631194 L31.3141446,70.0449441 C31.3141446,71.1225709 32.1560461,72 33.1900391,72 C34.2255329,72 35.0659336,71.1225709 35.0659336,70.0449441 L35.0659336,69.4631194 L35.3585732,69.3943015 C36.1104317,69.2160004 36.8292745,68.9407285 37.4955922,68.5778701 L37.7687224,68.4292859 L38.3510001,69.1862835 C38.9722964,69.9948947 40.2058846,70.1387868 40.9892581,69.4865801 C41.3794442,69.1612588 41.6240608,68.6951735 41.6795873,68.1759106 C41.7336131,67.6566478 41.5910451,67.1467692 41.2773955,66.7401176" id="Fill-3" fill="#000000"></path>
                        <path d="M54.8132493,81 C53.7783491,81 52.9357091,81.8382518 52.9357091,82.8677624 C52.9357091,83.8449757 51.0882095,85.2644752 48.1907895,85.2644752 C45.2933694,85.2644752 43.4458699,83.8449757 43.4458699,82.8677624 C43.4458699,81.8382518 42.6032298,81 41.5683297,81 C40.5319275,81 39.6907895,81.8382518 39.6907895,82.8677624 C39.6907895,86.3059395 43.4233394,89 48.1907895,89 C52.9567375,89 56.6907895,86.3059395 56.6907895,82.8677624 C56.6907895,81.8382518 55.8481494,81 54.8132493,81" id="Fill-5" fill="#000000"></path>
                        <path d="M9.69078947,102 C8.58763158,102 7.69078947,102.896842 7.69078947,104 C7.69078947,105.103158 8.58763158,106 9.69078947,106 C10.7939474,106 11.6907895,105.103158 11.6907895,104 C11.6907895,102.896842 10.7939474,102 9.69078947,102" id="Fill-7" fill="#000000"></path>
                        <path d="M70.4858631,65.7076644 L70.6074401,65.4792504 C70.7500304,65.2085955 70.8881178,64.9504565 70.9916834,64.6751081 C71.3744257,63.6738414 70.9016264,62.533336 69.9410182,62.1359583 C68.978909,61.743274 67.8862172,62.2345205 67.5034748,63.2310938 C66.7950263,65.0928241 64.7372234,65.7530343 63.1897436,65.7530343 C61.6437647,65.7530343 59.5859618,65.0928241 58.8775133,63.2310938 C58.4962719,62.2345205 57.4020791,61.7417095 56.43997,62.1359583 C55.4793617,62.533336 55.0065624,63.6738414 55.3893047,64.6751081 C55.4958722,64.9551499 55.6354606,65.2179824 55.775049,65.4792504 L55.8966259,65.7076644 L55.1026232,66.7386563 C54.4557136,67.5803461 54.5847953,68.8131557 55.3923066,69.4890108 C56.1728008,70.1429631 57.4020791,70.00216 58.0294763,69.1870663 L58.6118451,68.4298583 L58.885018,68.5784839 C59.55144,68.941443 60.2703952,69.2152269 61.0223713,69.3935776 L61.3135557,69.4624146 L61.3135557,70.0444009 C61.3135557,71.1238916 62.1555888,72 63.1897436,72 C64.2253993,72 65.0659315,71.1238916 65.0659315,70.0444009 L65.0659315,69.4624146 L65.3586168,69.3935776 C66.109092,69.2167914 66.8280472,68.9430075 67.4944691,68.5784839 L67.7676421,68.4314228 L68.3515118,69.1870663 C68.9744061,69.9943376 70.2051854,70.1398342 70.9901824,69.4874463 C71.7976937,68.8131557 71.9252745,67.5787816 71.2783649,66.7370918 L70.4858631,65.7076644 Z" id="Fill-9" fill="#000000"></path>
                        <path d="M15.6907895,6 C15.6907895,4.89684211 14.7939474,4 13.6907895,4 C12.5876316,4 11.6907895,4.89684211 11.6907895,6 C11.6907895,7.10315789 12.5876316,8 13.6907895,8 C14.7939474,8 15.6907895,7.10315789 15.6907895,6 Z" id="Fill-13" fill="#000000"></path>
                        <g id="Group-19" transform="translate(0.690789, 0.000000)">
                            <mask id="mask-2" fill="white">
                                <use xlink:href="#path-1"></use>
                            </mask>
                            <g id="Clip-18"></g>
                            <path d="M90.2157109,69.6199055 C88.9539922,72.0373164 86.6487578,73.8305904 84.1980547,74.2994397 L83.6102422,74.411426 L83.7720391,73.8320836 C84.9669609,69.5497274 85.7017266,65.0344397 85.9585234,60.4116452 L85.9793047,60.042837 L86.3474297,60.0607548 C87.0539922,60.0936041 87.6655547,60.2279877 88.2177422,60.4743575 C89.8119609,61.182111 90.5467266,62.4841384 90.8821953,63.4517 C91.5293828,65.3196315 91.2874297,67.5668233 90.2157109,69.6199055 L90.2157109,69.6199055 Z M47.8189922,103.008248 C28.7714922,103.008248 13.2761016,82.2639055 13.2761016,56.7668644 C13.2761016,53.8432753 13.4883672,50.9913575 13.9069609,48.2917411 L13.9841484,47.7900425 L14.4368828,48.0155082 C16.1364922,48.8561521 17.7693047,49.3503849 19.4303203,49.5265767 C21.8958672,49.7893712 24.4148516,48.8919877 26.8521953,48.022974 C28.9674297,47.2689329 31.1331328,46.496974 33.1563359,46.496974 C35.3264922,46.496974 37.6228203,47.0957274 39.8419609,47.6735767 C42.7617266,48.4350836 45.7601641,49.2100288 48.5374297,48.6396452 C53.7505547,47.5660699 57.8028984,44.0153575 60.4836797,41.6666315 C60.7731328,41.4113027 61.0581328,41.1619466 61.3268047,40.9320014 L61.5954766,40.700563 L61.8374297,40.9573849 C62.1758672,41.3157411 62.5395391,41.7233712 62.8957891,42.1250288 C65.2544609,44.7693986 68.4829766,48.3932753 73.5788359,49.5011932 C74.0879766,49.6116863 74.6312578,49.668426 75.1953203,49.668426 C77.1739922,49.668426 79.2699297,48.9860562 81.2961016,48.3260836 L81.7117266,48.1902068 L81.7770391,48.6262068 C82.1644609,51.2451932 82.3603984,53.9836315 82.3603984,56.7668644 C82.3603984,82.2639055 66.8664922,103.008248 47.8189922,103.008248 L47.8189922,103.008248 Z M14.8628984,43.6868644 C19.0458672,27.5533712 31.3661797,17.9210562 47.8189922,17.9210562 C64.4692266,17.9210562 76.8370391,27.7340425 80.9027422,44.1676589 L80.9858672,44.5066041 L80.3089922,44.7246041 C78.3407109,45.3666589 76.5950859,45.9355493 75.2057109,45.9355493 C74.9073516,45.9355493 74.6268047,45.9101658 74.3640703,45.8519329 C70.4423516,44.9993438 67.7912578,42.0249877 65.6596953,39.6329603 C64.5746172,38.4160425 63.6379766,37.3648644 62.6508672,36.7377411 C62.0467266,36.3525082 61.2703984,36.3540014 60.6692266,36.7362479 C59.9032891,37.2230151 59.0423516,37.9785493 58.0463359,38.8520425 C55.5110234,41.0723575 52.0464922,44.1064397 47.7937578,44.9829192 C45.8507109,45.3815904 43.3851641,44.7395356 40.7756328,44.0616452 C38.3249297,43.4225767 35.7985234,42.7640973 33.1563359,42.7640973 C30.4918828,42.7640973 27.9061016,43.6868644 25.6261016,44.5006315 C23.4707891,45.2696041 21.4520391,45.992289 19.8192266,45.8146041 C18.2769609,45.6518507 16.7554766,45.1068507 15.0350859,44.1034534 L14.7901641,43.9616041 L14.8628984,43.6868644 Z M31.6526641,16.7922342 C31.8797734,9.46683699 37.5678984,3.9436726 44.8828984,3.9436726 C45.1812578,3.9436726 45.4751641,3.95263151 45.7631328,3.97054932 C47.1272734,4.05715205 48.5107109,4.05715205 49.8718828,3.97054932 C50.1628203,3.95263151 50.4567266,3.9436726 50.7536016,3.9436726 C58.0700859,3.9436726 63.7582109,9.46683699 63.9853203,16.7922342 L64.0031328,17.3685904 L63.4717266,17.1476041 C58.7543828,15.184111 53.4878203,14.1881795 47.8189922,14.1881795 C42.1486797,14.1881795 36.8806328,15.184111 32.1662578,17.1476041 L31.6348516,17.3685904 L31.6526641,16.7922342 Z M11.4399297,74.2994397 C8.98922656,73.8320836 6.68399219,72.0388096 5.42227344,69.6199055 C4.35055469,67.5668233 4.10860156,65.3196315 4.75578906,63.4517 C5.09125781,62.4841384 5.82602344,61.182111 7.41875781,60.4743575 C7.97391406,60.2279877 8.58547656,60.0936041 9.29055469,60.0607548 L9.65719531,60.042837 L9.67797656,60.4116452 C9.93477344,65.0344397 10.6710234,69.5497274 11.8659453,73.8320836 L12.0277422,74.411426 L11.4399297,74.2994397 Z M89.7184453,57.0595219 C88.7135234,56.6130699 87.6017266,56.3667 86.4157109,56.3263849 L86.0609453,56.3144397 L86.0564922,55.9575767 C85.8516484,39.204426 79.3738359,26.1975904 67.8150078,19.3350699 L67.6131328,19.2156178 L67.6339141,18.9797 C67.6903203,18.3645219 67.7170391,17.7986178 67.7170391,17.2506315 C67.7170391,7.53619315 60.4243047,0.21079589 50.7536016,0.21079589 C50.3795391,0.21079589 50.0099297,0.222741096 49.6388359,0.245138356 C48.4335234,0.322782192 47.2059453,0.322782192 45.9946953,0.245138356 C45.6280547,0.222741096 45.2584453,0.21079589 44.8828984,0.21079589 C35.2136797,0.21079589 27.9209453,7.53619315 27.9209453,17.2506315 C27.9209453,17.7986178 27.9476641,18.3645219 28.0040703,18.9782068 L28.0248516,19.2141247 L27.8229766,19.3350699 C16.2641484,26.1975904 9.78485156,39.204426 9.58000781,55.9590699 L9.57555469,56.3159329 L9.22078906,56.3278781 C8.03477344,56.3667 6.92446094,56.6130699 5.91953906,57.0595219 C3.72711719,58.0345493 2.06907031,59.8666452 1.25117969,62.2213438 C0.267039063,65.0613164 0.589148438,68.3910425 2.13586719,71.3549466 C4.29563281,75.4954534 8.42071094,78.1696863 12.6467266,78.1696863 C12.7075859,78.1696863 12.7684453,78.1652068 12.8293047,78.1607274 L13.2449297,78.1413164 L13.3384453,78.3951521 C19.6960234,95.6156589 33.2305547,106.741125 47.8189922,106.741125 C62.4074297,106.741125 75.9404766,95.6156589 82.2980547,78.3951521 L82.3915703,78.1413164 L82.8086797,78.1607274 C82.8695391,78.1652068 82.9303984,78.1696863 82.9912578,78.1696863 C87.1519609,78.1696863 91.3750078,75.4312479 93.5021172,71.3549466 C95.0488359,68.3895493 95.3709453,65.0598233 94.3868047,62.2213438 C93.5689141,59.8681384 91.9123516,58.0345493 89.7184453,57.0595219 L89.7184453,57.0595219 Z" id="Fill-17" fill="#000000" mask="url(#mask-2)"></path>
                        </g>
                        <g id="Group-22" transform="translate(104.690789, 50.000000)">
                            <mask id="mask-4" fill="white">
                                <use xlink:href="#path-3"></use>
                            </mask>
                            <g id="Clip-21"></g>
                            <path d="M2.7063,5.32588 C1.5273,5.32588 0.5688,4.43128 0.5688,3.33088 C0.5688,2.23048 1.5273,1.33448 2.7063,1.33448 C3.8853,1.33448 4.8438,2.23048 4.8438,3.33088 C4.8438,4.43128 3.8853,5.32588 2.7063,5.32588 M2.7063,0.98448 C1.3188,0.98448 0.1938,2.03448 0.1938,3.33088 C0.1938,4.62588 1.3188,5.67588 2.7063,5.67588 C4.0938,5.67588 5.2188,4.62588 5.2188,3.33088 C5.2188,2.03448 4.0938,0.98448 2.7063,0.98448" id="Fill-20" fill="#FFFFFF" mask="url(#mask-4)"></path>
                        </g>
                    </g>
                    <circle id="Oval" stroke="#000000" stroke-width="3" cx="6.5" cy="39.5" r="5"></circle>
                    <circle id="Oval-Copy" stroke="#000000" stroke-width="3" cx="113.5" cy="98.5" r="5"></circle>
                    <circle id="Oval-Copy-2" stroke="#000000" stroke-width="3" cx="112.5" cy="11.5" r="5"></circle>
                </g>
            </g>
        </g>
    </g>
</svg>