<svg version="1.1" id="Layer_1" xmlns="http://www.w3.org/2000/svg" x="0" y="0" viewBox="0 0 410 55" xml:space="preserve">
  <style>
    .st2{fill:#fff}
  </style>
  <path d="M28 0C12.8 0 .5 12.3.5 27.5S12.8 55 28 55s27.5-12.3 27.5-27.5S43.2 0 28 0zm-7.8 31.3c0 3.4-2.8 5.6-6.5 5.6s-6.5-2.3-6.5-5.6v-9.2c0-3.4 2.8-5.6 6.5-5.6s6.5 2.2 6.5 5.6v9.2zm15.3 5.2h-4.3l-3-6.3-1.3-2.8v9.1h-4.7V17h4.5l2.9 6.5 1.3 2.8V17h4.6v19.5zm11-11.8v3.7h-3.8V32h5.9v4.5H37.5V17h11.1v4.2h-5.9v3.4l3.8.1c0-.1 0 0 0 0zm-32.8-3.8c-.6 0-1.2.4-1.2 1v9.7c0 .6.6 1 1.2 1s1.2-.4 1.2-1v-9.7c0-.7-.5-1-1.2-1z" fill-rule="evenodd" clip-rule="evenodd" fill="#fff"/>
  <path class="st2" d="M70.8 18.3h2v16.5h9.3v1.7H70.8V18.3zM92 36.9c-5.1 0-7.6-3.6-7.6-8V26c0-4.4 2.5-8 7.6-8s7.6 3.6 7.6 8v2.9c0 4.4-2.5 8-7.6 8zm5.6-7.9v-3.1c0-3.4-1.7-6.2-5.6-6.2s-5.6 2.8-5.6 6.2V29c0 3.4 1.7 6.2 5.6 6.2s5.6-2.8 5.6-6.2zM103.2 31.5V31h1.9v.4c0 2.3 1.8 3.8 4.9 3.8 3 0 4.8-1.3 4.8-3.6 0-1.5-.9-2.5-2.6-3l-5.1-1.4c-2.6-.7-3.6-2.2-3.6-4.3 0-3.2 2.5-5.1 6.3-5.1s6.4 2.1 6.4 5.2v.4h-1.9V23c0-2.2-1.7-3.6-4.5-3.6-2.5 0-4.3 1.2-4.3 3.3 0 1.5.7 2.4 2.3 2.8l5.3 1.4c2.2.6 3.8 2.1 3.8 4.4 0 3.3-2.9 5.4-6.8 5.4-4 .2-6.9-1.9-6.9-5.2zM123.9 20h-5.6v-1.7h13.2V20h-5.6v16.5h-2V20zM140.3 18.3h7.1c3.8 0 6.2 2.5 6.2 5.8s-2.4 5.8-6.2 5.8h-5.1v6.6h-2V18.3zm6.9 9.9c3 0 4.3-1.9 4.3-4.1s-1.4-4.1-4.3-4.1h-4.9v8.2h4.9zM164 36.9c-5.1 0-7.6-3.6-7.6-8V26c0-4.4 2.5-8 7.6-8s7.6 3.6 7.6 8v2.9c0 4.4-2.5 8-7.6 8zm5.6-7.9v-3.1c0-3.4-1.7-6.2-5.6-6.2s-5.6 2.8-5.6 6.2V29c0 3.4 1.7 6.2 5.6 6.2s5.6-2.8 5.6-6.2zM179.1 20h-5.6v-1.7h13.2V20h-5.6v16.5h-2V20zM189.8 18.3h12V20h-10v6.4h9.2v1.7h-9.2v6.7h10v1.7h-12V18.3zM205.6 18.3h1.9l10 15v-15h2v18.2h-1.9l-10-15v15h-2V18.3zM228.1 20h-5.6v-1.7h13.2V20h-5.6v16.5h-2V20zM239 18.3h2v18.2h-2V18.3zM260.2 36.5h-2l-1.7-4.6h-8.4l-1.6 4.6h-2l6.8-18.2h2l6.9 18.2zm-11.5-6.2h7.3l-3.6-10.1-3.7 10.1zM263.5 18.3h2v16.5h9.3v1.7h-11.4V18.3zM287.4 20h-5.6v-1.7H295V20h-5.6v16.5h-2V20zM298.1 18.3h7.5c4 0 6.1 2.6 6.1 5.8 0 2.5-1.5 4.7-3.9 5.4l4 7h-2.3l-3.7-6.7h-5.6v6.7h-2V18.3zm7.3 10c2.9 0 4.3-1.8 4.3-4.1s-1.5-4.2-4.3-4.2h-5.2v8.3h5.2zM330.2 36.5h-2l-1.7-4.6h-8.4l-1.6 4.6h-2l6.8-18.2h2l6.9 18.2zm-11.5-6.2h7.3l-3.6-10.1-3.7 10.1zM332.2 29v-3.1c0-4.5 2.5-7.9 7.6-7.9 4.2 0 6.9 2.9 7.2 6.4h-2c-.3-2.5-2-4.7-5.3-4.7-3.7 0-5.5 2.6-5.5 6.2V29c0 3.6 1.8 6.2 5.5 6.2 3.3 0 4.9-2.2 5.3-4.7h2c-.3 3.4-3 6.4-7.2 6.4-5.1 0-7.6-3.4-7.6-7.9zM351 18.3h2v8.9l8.2-8.9h2.4l-8.5 9 8.7 9.2h-2.4l-8.5-9v9h-2V18.3zM366.9 18.3h12V20h-10v6.4h9.2v1.7h-9.2v6.7h10v1.7h-12V18.3zM382.7 18.3h7.5c4 0 6.1 2.6 6.1 5.8 0 2.5-1.5 4.7-3.9 5.4l4 7H394l-3.7-6.7h-5.6v6.7h-2V18.3zm7.3 10c2.9 0 4.3-1.8 4.3-4.1S392.8 20 390 20h-5.2v8.3h5.2z"/>
</svg>
