<?xml version="1.0" encoding="utf-8"?>
<!-- Generator: Adobe Illustrator 25.2.0, SVG Export Plug-In . SVG Version: 6.00 Build 0)  -->
<svg version="1.1" id="Layer_1" xmlns="http://www.w3.org/2000/svg" xmlns:xlink="http://www.w3.org/1999/xlink" x="0px" y="0px"
	 viewBox="0 0 659 106" style="enable-background:new 0 0 659 106;" xml:space="preserve">
<style type="text/css">
	.st0{fill-rule:evenodd;clip-rule:evenodd;fill:#FBA55F;}
	.st1{fill-rule:evenodd;clip-rule:evenodd;fill:#2E75FE;}
</style>
<g id="pileOdots">
	<circle id="Oval-Copy-1518" class="st0" cx="573" cy="68" r="5"/>
	<circle id="Oval-Copy-1520" class="st0" cx="622" cy="47" r="5"/>
	<circle id="Oval-Copy-1526" class="st0" cx="542" cy="63" r="5"/>
	<circle id="Oval-Copy-1528" class="st0" cx="525" cy="59" r="5"/>
	<circle id="Oval-Copy-1530" class="st0" cx="630" cy="103" r="5"/>
	<circle id="Oval-Copy-1532" class="st1" cx="563" cy="33" r="5"/>
	<circle id="Oval-Copy-1533" class="st1" cx="591" cy="51" r="5"/>
	<circle id="Oval-Copy-1537" class="st1" cx="579" cy="80" r="5"/>
	<circle id="Oval-Copy-1538" class="st1" cx="595" cy="88" r="5"/>
	<circle id="Oval-Copy-1541" class="st1" cx="600" cy="98" r="5"/>
	<circle id="Oval-Copy-1539" class="st1" cx="606" cy="98" r="5"/>
	<circle id="Oval-Copy-1540" class="st1" cx="592" cy="106" r="5"/>
	<circle id="Oval-Copy-1546" class="st1" cx="612" cy="88" r="5"/>
	<circle id="Oval-Copy-1547" class="st1" cx="614" cy="107" r="5"/>
	<circle id="Oval-Copy-1548" class="st1" cx="640" cy="97" r="5"/>
	<circle id="Oval-Copy-1549" class="st1" cx="644" cy="106" r="5"/>
	<circle id="Oval-Copy-1552" class="st1" cx="649" cy="99" r="5"/>
	<circle id="Oval-Copy-1554" class="st1" cx="655" cy="92" r="5"/>
	<circle id="Oval-Copy-1553" class="st1" cx="656" cy="106" r="5"/>
	<circle id="Oval-Copy-1550" class="st1" cx="625" cy="88" r="5"/>
	<circle id="Oval-Copy-1551" class="st1" cx="621" cy="102" r="5"/>
	<circle id="Oval-Copy-1556" class="st1" cx="553" cy="98" r="5"/>
	<circle id="Oval-Copy-1557" class="st1" cx="554" cy="107" r="5"/>
	<circle id="Oval-Copy-1563" class="st1" cx="512" cy="90" r="5"/>
	<circle id="Oval-Copy-1566" class="st1" cx="544" cy="93" r="5"/>
	<circle id="Oval-Copy-1567" class="st1" cx="541" cy="103" r="5"/>
	<circle id="Oval-Copy-1573" class="st1" cx="519" cy="78" r="5"/>
	<circle id="Oval-Copy-1578" class="st1" cx="540" cy="78" r="5"/>
	<circle id="Oval-Copy-1581" class="st1" cx="554" cy="84" r="5"/>
	<circle id="Oval-Copy-1583" class="st1" cx="563" cy="98" r="5"/>
	<circle id="Oval-Copy-1585" class="st1" cx="570" cy="105" r="5"/>
	<circle id="Oval-Copy-1584" class="st1" cx="586" cy="98" r="5"/>
	<circle id="Oval-Copy-1586" class="st1" cx="586" cy="82" r="5"/>
	<circle id="Oval-Copy-1587" class="st1" cx="610" cy="74" r="5"/>
	<circle id="Oval-Copy-1588" class="st1" cx="626" cy="75" r="5"/>
	<circle id="Oval-Copy-1592" class="st1" cx="635" cy="89" r="5"/>
	<circle id="Oval-Copy-1590" class="st1" cx="644" cy="85" r="5"/>
	<circle id="Oval-Copy-1589" class="st1" cx="563" cy="74" r="5"/>
	<circle id="Oval-Copy-1591" class="st1" cx="554" cy="70" r="5"/>
	<circle id="Oval-Copy-1593" class="st1" cx="527" cy="73" r="5"/>
	<circle id="Oval-Copy-1594" class="st1" cx="569" cy="90" r="5"/>
	<circle id="Oval-Copy-1598" class="st1" cx="581" cy="94" r="5"/>
	<circle id="Oval-Copy-1595" class="st1" cx="532" cy="103" r="5"/>
	<circle id="Oval-Copy-1597" class="st0" cx="470" cy="68" r="5"/>
	<circle id="Oval-Copy-1604" class="st0" cx="421" cy="47" r="5"/>
	<circle id="Oval-Copy-1606" class="st0" cx="423" cy="68" r="5"/>
	<circle id="Oval-Copy-1612" class="st0" cx="400" cy="68" r="5"/>
	<circle id="Oval-Copy-1626" class="st0" cx="501" cy="63" r="5"/>
	<circle id="Oval-Copy-1632" class="st0" cx="535" cy="55" r="5"/>
	<circle id="Oval-Copy-1650" class="st0" cx="413" cy="103" r="5"/>
	<circle id="Oval-Copy-1651" class="st0" cx="405" cy="96" r="5"/>
	<circle id="Oval-Copy-1659" class="st1" cx="480" cy="33" r="5"/>
	<circle id="Oval-Copy-1666" class="st1" cx="452" cy="51" r="5"/>
	<circle id="Oval-Copy-1673" class="st1" cx="467" cy="104" r="5"/>
	<circle id="Oval-Copy-1718" class="st1" cx="428" cy="98" r="5"/>
	<circle id="Oval-Copy-1821" class="st1" cx="396" cy="97" r="5"/>
	<circle id="Oval-Copy-1823" class="st1" cx="393" cy="104" r="5"/>
	<circle id="Oval-Copy-1829" class="st1" cx="401" cy="105" r="5"/>
	<circle id="Oval-Copy-1822" class="st1" cx="448" cy="88" r="5"/>
	<circle id="Oval-Copy-1824" class="st1" cx="437" cy="98" r="5"/>
	<circle id="Oval-Copy-1826" class="st1" cx="432" cy="106" r="5"/>
	<circle id="Oval-Copy-1825" class="st1" cx="431" cy="88" r="5"/>
	<circle id="Oval-Copy-1827" class="st1" cx="402" cy="83" r="5"/>
	<circle id="Oval-Copy-1828" class="st1" cx="418" cy="88" r="5"/>
	<circle id="Oval-Copy-1830" class="st1" cx="490" cy="98" r="5"/>
	<circle id="Oval-Copy-1832" class="st1" cx="494" cy="106" r="5"/>
	<circle id="Oval-Copy-1831" class="st1" cx="524" cy="92" r="5"/>
	<circle id="Oval-Copy-1833" class="st1" cx="499" cy="93" r="5"/>
	<circle id="Oval-Copy-1834" class="st1" cx="501" cy="101" r="5"/>
	<circle id="Oval-Copy-1835" class="st1" cx="521" cy="104" r="5"/>
	<circle id="Oval-Copy-1836" class="st1" cx="503" cy="78" r="5"/>
	<circle id="Oval-Copy-1838" class="st1" cx="488" cy="85" r="5"/>
	<circle id="Oval-Copy-1840" class="st1" cx="501" cy="88" r="5"/>
	<circle id="Oval-Copy-1842" class="st1" cx="480" cy="98" r="5"/>
	<circle id="Oval-Copy-1843" class="st1" cx="479" cy="105" r="5"/>
	<circle id="Oval-Copy-1844" class="st1" cx="457" cy="98" r="5"/>
	<circle id="Oval-Copy-1847" class="st1" cx="448" cy="106" r="5"/>
	<circle id="Oval-Copy-1845" class="st1" cx="457" cy="82" r="5"/>
	<circle id="Oval-Copy-1846" class="st1" cx="433" cy="74" r="5"/>
	<circle id="Oval-Copy-1848" class="st1" cx="417" cy="75" r="5"/>
	<circle id="Oval-Copy-1850" class="st1" cx="480" cy="74" r="5"/>
	<circle id="Oval-Copy-1852" class="st1" cx="474" cy="90" r="5"/>
	<circle id="Oval-Copy-1854" class="st1" cx="511" cy="103" r="5"/>
	<circle id="Oval-Copy-1858" class="st0" cx="222" cy="63" r="5"/>
	<circle id="Oval-Copy-1860" class="st0" cx="263" cy="64" r="5"/>
	<circle id="Oval-Copy-1862" class="st0" cx="202" cy="68" r="5"/>
	<circle id="Oval-Copy-1864" class="st0" cx="175" cy="59" r="5"/>
	<circle id="Oval-Copy-1865" class="st0" cx="157" cy="65" r="5"/>
	<circle id="Oval-Copy-1866" class="st0" cx="196" cy="58" r="5"/>
	<circle id="Oval-Copy-1868" class="st0" cx="223" cy="108" r="5"/>
	<circle id="Oval-Copy-1869" class="st0" cx="166" cy="98" r="5"/>
	<circle id="Oval-Copy-1870" class="st1" cx="243" cy="68" r="5"/>
	<circle id="Oval-Copy-1872" class="st1" cx="205" cy="46" r="5"/>
	<circle id="Oval-Copy-1874" class="st1" cx="201" cy="83" r="5"/>
	<circle id="Oval-Copy-1876" class="st1" cx="190" cy="93" r="5"/>
	<circle id="Oval-Copy-1881" class="st1" cx="186" cy="103" r="5"/>
	<circle id="Oval-Copy-1879" class="st1" cx="175" cy="102" r="5"/>
	<circle id="Oval-Copy-2238" class="st1" cx="195" cy="110" r="5"/>
	<circle id="Oval-Copy-1877" class="st1" cx="184" cy="83" r="5"/>
	<circle id="Oval-Copy-1878" class="st1" cx="180" cy="98" r="5"/>
	<circle id="Oval-Copy-2237" class="st1" cx="161" cy="107" r="5"/>
	<circle id="Oval-Copy-1880" class="st1" cx="155" cy="78" r="5"/>
	<circle id="Oval-Copy-1882" class="st1" cx="171" cy="83" r="5"/>
	<circle id="Oval-Copy-1883" class="st1" cx="142" cy="105" r="5"/>
	<circle id="Oval-Copy-1884" class="st1" cx="152" cy="86" r="5"/>
	<circle id="Oval-Copy-1886" class="st1" cx="243" cy="93" r="5"/>
	<circle id="Oval-Copy-1888" class="st1" cx="238" cy="80" r="5"/>
	<circle id="Oval-Copy-1890" class="st1" cx="277" cy="97" r="5"/>
	<circle id="Oval-Copy-1892" class="st1" cx="252" cy="88" r="5"/>
	<circle id="Oval-Copy-1893" class="st1" cx="246" cy="104" r="5"/>
	<circle id="Oval-Copy-1894" class="st1" cx="297" cy="63" r="5"/>
	<circle id="Oval-Copy-1896" class="st1" cx="256" cy="73" r="5"/>
	<circle id="Oval-Copy-1897" class="st1" cx="254" cy="83" r="5"/>
	<circle id="Oval-Copy-1899" class="st1" cx="262" cy="81" r="5"/>
	<circle id="Oval-Copy-1900" class="st1" cx="233" cy="93" r="5"/>
	<circle id="Oval-Copy-1902" class="st1" cx="220" cy="99" r="5"/>
	<circle id="Oval-Copy-2239" class="st1" cx="233" cy="108" r="5"/>
	<circle id="Oval-Copy-1913" class="st1" cx="210" cy="93" r="5"/>
	<circle id="Oval-Copy-1916" class="st1" cx="206" cy="101" r="5"/>
	<circle id="Oval-Copy-1917" class="st1" cx="198" cy="99" r="5"/>
	<circle id="Oval-Copy-1925" class="st1" cx="210" cy="77" r="5"/>
	<circle id="Oval-Copy-1931" class="st1" cx="186" cy="69" r="5"/>
	<circle id="Oval-Copy-1932" class="st1" cx="170" cy="70" r="5"/>
	<circle id="Oval-Copy-1945" class="st1" cx="233" cy="69" r="5"/>
	<circle id="Oval-Copy-1949" class="st1" cx="227" cy="85" r="5"/>
	<circle id="Oval-Copy-1966" class="st1" cx="221" cy="75" r="5"/>
	<circle id="Oval-Copy-1967" class="st1" cx="264" cy="98" r="5"/>
	<circle id="Oval-Copy-1969" class="st1" cx="272" cy="106" r="5"/>
	<circle id="Oval-Copy-1977" class="st0" cx="326" cy="63" r="5"/>
	<circle id="Oval-Copy-1979" class="st0" cx="348" cy="73" r="5"/>
	<circle id="Oval-Copy-1981" class="st0" cx="352" cy="64" r="5"/>
	<circle id="Oval-Copy-2002" class="st0" cx="411" cy="64" r="5"/>
	<circle id="Oval-Copy-2003" class="st0" cx="280" cy="53" r="5"/>
	<circle id="Oval-Copy-2005" class="st0" cx="326" cy="108" r="5"/>
	<circle id="Oval-Copy-2006" class="st0" cx="383" cy="98" r="5"/>
	<circle id="Oval-Copy-2007" class="st0" cx="381" cy="105" r="5"/>
	<circle id="Oval-Copy-2008" class="st1" cx="316" cy="28" r="5"/>
	<circle id="Oval-Copy-2009" class="st1" cx="344" cy="46" r="5"/>
	<circle id="Oval-Copy-2011" class="st1" cx="348" cy="83" r="5"/>
	<circle id="Oval-Copy-2012" class="st1" cx="337" cy="84" r="5"/>
	<circle id="Oval-Copy-2015" class="st1" cx="359" cy="93" r="5"/>
	<circle id="Oval-Copy-2016" class="st1" cx="359" cy="103" r="5"/>
	<circle id="Oval-Copy-2017" class="st1" cx="350" cy="104" r="5"/>
	<circle id="Oval-Copy-2018" class="st1" cx="365" cy="83" r="5"/>
	<circle id="Oval-Copy-2019" class="st1" cx="394" cy="78" r="5"/>
	<circle id="Oval-Copy-2020" class="st1" cx="378" cy="83" r="5"/>
	<circle id="Oval-Copy-2021" class="st1" cx="372" cy="97" r="5"/>
	<circle id="Oval-Copy-2022" class="st1" cx="370" cy="104" r="5"/>
	<circle id="Oval-Copy-2023" class="st1" cx="306" cy="93" r="5"/>
	<circle id="Oval-Copy-2024" class="st1" cx="295" cy="100" r="5"/>
	<circle id="Oval-Copy-2025" class="st1" cx="285" cy="104" r="5"/>
	<circle id="Oval-Copy-2026" class="st1" cx="272" cy="87" r="5"/>
	<circle id="Oval-Copy-2028" class="st1" cx="306" cy="79" r="5"/>
	<circle id="Oval-Copy-2030" class="st1" cx="272" cy="73" r="5"/>
	<circle id="Oval-Copy-2031" class="st1" cx="281" cy="85" r="5"/>
	<circle id="Oval-Copy-2033" class="st1" cx="293" cy="73" r="5"/>
	<circle id="Oval-Copy-2035" class="st1" cx="295" cy="83" r="5"/>
	<circle id="Oval-Copy-2037" class="st1" cx="316" cy="93" r="5"/>
	<circle id="Oval-Copy-2241" class="st1" cx="308" cy="104" r="5"/>
	<circle id="Oval-Copy-2042" class="st1" cx="339" cy="93" r="5"/>
	<circle id="Oval-Copy-2045" class="st1" cx="338" cy="102" r="5"/>
	<circle id="Oval-Copy-2043" class="st1" cx="328" cy="99" r="5"/>
	<circle id="Oval-Copy-2044" class="st1" cx="339" cy="77" r="5"/>
	<circle id="Oval-Copy-2164" class="st1" cx="363" cy="69" r="5"/>
	<circle id="Oval-Copy-2165" class="st1" cx="379" cy="70" r="5"/>
	<circle id="Oval-Copy-2166" class="st1" cx="316" cy="69" r="5"/>
	<circle id="Oval-Copy-2167" class="st1" cx="322" cy="85" r="5"/>
	<circle id="Oval-Copy-2168" class="st1" cx="285" cy="98" r="5"/>
	<circle id="Oval-Copy-2240" class="st1" cx="260" cy="104" r="5"/>
	<circle id="Oval-Copy-2172" class="st0" cx="75" cy="63" r="5"/>
	<circle id="Oval-Copy-2173" class="st0" cx="67" cy="50" r="5"/>
	<circle id="Oval-Copy-2174" class="st0" cx="124" cy="42" r="5"/>
	<circle id="Oval-Copy-2175" class="st0" cx="121" cy="59" r="5"/>
	<circle id="Oval-Copy-2176" class="st0" cx="44" cy="58" r="5"/>
	<circle id="Oval-Copy-2177" class="st0" cx="75" cy="108" r="5"/>
	<circle id="Oval-Copy-2178" class="st0" cx="132" cy="98" r="5"/>
	<circle id="Oval-Copy-2179" class="st1" cx="65" cy="28" r="5"/>
	<circle id="Oval-Copy-2180" class="st1" cx="93" cy="46" r="5"/>
	<circle id="Oval-Copy-2181" class="st1" cx="97" cy="83" r="5"/>
	<circle id="Oval-Copy-2182" class="st1" cx="76" cy="101" r="5"/>
	<circle id="Oval-Copy-2184" class="st1" cx="108" cy="93" r="5"/>
	<circle id="Oval-Copy-2245" class="st1" cx="105" cy="105" r="5"/>
	<circle id="Oval-Copy-2185" class="st1" cx="114" cy="83" r="5"/>
	<circle id="Oval-Copy-2186" class="st1" cx="143" cy="78" r="5"/>
	<circle id="Oval-Copy-2187" class="st1" cx="141" cy="88" r="5"/>
	<circle id="Oval-Copy-2188" class="st1" cx="148" cy="97" r="5"/>
	<circle id="Oval-Copy-2243" class="st1" cx="153" cy="105" r="5"/>
	<circle id="Oval-Copy-2244" class="st1" cx="155" cy="95" r="5"/>
	<circle id="Oval-Copy-2236" class="st1" cx="130" cy="109" r="5"/>
	<circle id="Oval-Copy-2189" class="st1" cx="127" cy="83" r="5"/>
	<circle id="Oval-Copy-2190" class="st1" cx="119" cy="96" r="5"/>
	<circle id="Oval-Copy-2232" class="st1" cx="117" cy="106" r="5"/>
	<circle id="Oval-Copy-2191" class="st1" cx="55" cy="93" r="5"/>
	<circle id="Oval-Copy-2192" class="st1" cx="56" cy="102" r="5"/>
	<circle id="Oval-Copy-2193" class="st1" cx="21" cy="87" r="5"/>
	<circle id="Oval-Copy-2194" class="st1" cx="46" cy="88" r="5"/>
	<circle id="Oval-Copy-2195" class="st1" cx="46" cy="99" r="5"/>
	<circle id="Oval-Copy-2250" class="st1" cx="43" cy="106" r="5"/>
	<circle id="Oval-Copy-2196" class="st1" cx="21" cy="73" r="5"/>
	<circle id="Oval-Copy-2197" class="st1" cx="42" cy="73" r="5"/>
	<circle id="Oval-Copy-2198" class="st1" cx="44" cy="83" r="5"/>
	<circle id="Oval-Copy-2199" class="st1" cx="32" cy="91" r="5"/>
	<circle id="Oval-Copy-2200" class="st1" cx="65" cy="93" r="5"/>
	<circle id="Oval-Copy-2251" class="st1" cx="64" cy="104" r="5"/>
	<circle id="Oval-Copy-2230" class="st1" cx="88" cy="107" r="5"/>
	<circle id="Oval-Copy-2203" class="st1" cx="88" cy="93" r="5"/>
	<circle id="Oval-Copy-2252" class="st1" cx="86" cy="98" r="5"/>
	<circle id="Oval-Copy-2204" class="st1" cx="96" cy="101" r="5"/>
	<circle id="Oval-Copy-2205" class="st1" cx="88" cy="77" r="5"/>
	<circle id="Oval-Copy-2206" class="st1" cx="77" cy="88" r="5"/>
	<circle id="Oval-Copy-2207" class="st1" cx="112" cy="69" r="5"/>
	<circle id="Oval-Copy-2208" class="st1" cx="100" cy="66" r="5"/>
	<circle id="Oval-Copy-2209" class="st1" cx="128" cy="70" r="5"/>
	<circle id="Oval-Copy-2210" class="st1" cx="65" cy="69" r="5"/>
	<circle id="Oval-Copy-2211" class="st1" cx="58" cy="79" r="5"/>
	<circle id="Oval-Copy-2212" class="st1" cx="71" cy="85" r="5"/>
	<circle id="Oval-Copy-2213" class="st1" cx="34" cy="98" r="5"/>
	<circle id="Oval-Copy-2249" class="st1" cx="29" cy="106" r="5"/>
	<circle id="Oval-Copy-2217" class="st0" cx="3" cy="58" r="5"/>
	<circle id="Oval-Copy-2218" class="st1" cx="26" cy="87" r="5"/>
	<circle id="Oval-Copy-2219" class="st1" cx="23" cy="100" r="5"/>
	<circle id="Oval-Copy-2248" class="st1" cx="18" cy="106" r="5"/>
	<circle id="Oval-Copy-2220" class="st1" cx="1" cy="88" r="5"/>
	<circle id="Oval-Copy-2221" class="st1" cx="33" cy="42" r="5"/>
	<circle id="Oval-Copy-2222" class="st1" cx="34" cy="78" r="5"/>
	<circle id="Oval-Copy-2223" class="st1" cx="5" cy="73" r="5"/>
	<circle id="Oval-Copy-2224" class="st1" cx="3" cy="83" r="5"/>
	<circle id="Oval-Copy-2226" class="st1" cx="13" cy="98" r="5"/>
	<circle id="Oval-Copy-2247" class="st1" cx="7" cy="105" r="5"/>
	<circle id="Oval-Copy-2246" class="st1" cx="-2" cy="106" r="5"/>
</g>
</svg>
