<?xml version="1.0" encoding="utf-8"?>
<!-- Generator: Adobe Illustrator 25.2.0, SVG Export Plug-In . SVG Version: 6.00 Build 0)  -->
<svg version="1.1" id="Layer_1" xmlns="http://www.w3.org/2000/svg" xmlns:xlink="http://www.w3.org/1999/xlink" x="0px" y="0px"
	 viewBox="0 0 110 105" style="enable-background:new 0 0 110 105;" xml:space="preserve">
<style type="text/css">
	.st0{fill-rule:evenodd;clip-rule:evenodd;fill:#FFFFFF;}
	.st1{stroke:#000000;}
</style>
<g id="desktop">
	<g id="The-Solution-" transform="translate(-269.000000, -2045.000000)">
		<g id="In-the-Long-Run..." transform="translate(-102.000000, 1217.000000)">
			<g id="Group-22" transform="translate(372.000000, 829.000000)">
				<circle id="Oval" class="st0" cx="54" cy="71" r="33"/>
				<g id="Group-7">
					<path id="Shape" class="st1" d="M18.5,65C24.8,65,30,59.8,30,53.5S24.8,42,18.5,42S7,47.2,7,53.5S12.2,65,18.5,65z M18.5,44.4
						c5,0,9.1,4.1,9.1,9.1s-4.1,9.1-9.1,9.1c-5,0-9.1-4.1-9.1-9.1S13.5,44.4,18.5,44.4z"/>
					<path id="Shape_1_" class="st1" d="M18.5,70C8.3,70,0,78.4,0,88.7C0,91.6,2.4,94,5.3,94h26.5c2.9,0,5.3-2.4,5.3-5.3
						C37,78.4,28.7,70,18.5,70z M31.7,91.6H5.3c-1.6,0-2.9-1.3-2.9-2.9c0-9,7.2-16.3,16.1-16.3s16.1,7.3,16.1,16.3
						C34.6,90.3,33.3,91.6,31.7,91.6z"/>
					<path id="Shape_2_" class="st1" d="M53.5,43C59.8,43,65,37.8,65,31.5S59.8,20,53.5,20S42,25.2,42,31.5S47.2,43,53.5,43z
						 M53.5,22.4c5,0,9.1,4.1,9.1,9.1c0,5-4.1,9.1-9.1,9.1s-9.1-4.1-9.1-9.1C44.4,26.5,48.5,22.4,53.5,22.4z"/>
					<path id="Shape_3_" class="st1" d="M72,65.7C72,55.4,63.7,47,53.5,47S35,55.4,35,65.7c0,2.9,2.4,5.3,5.3,5.3h26.5
						C69.6,71,72,68.6,72,65.7z M66.7,68.6H40.3c-1.6,0-2.9-1.3-2.9-2.9c0-9,7.2-16.3,16.1-16.3s16.1,7.3,16.1,16.3
						C69.6,67.3,68.3,68.6,66.7,68.6z"/>
					<path id="Shape_4_" class="st1" d="M89.5,65c6.3,0,11.5-5.2,11.5-11.5S95.8,42,89.5,42S78,47.2,78,53.5S83.2,65,89.5,65z
						 M89.5,44.4c5,0,9.1,4.1,9.1,9.1s-4.1,9.1-9.1,9.1c-5,0-9.1-4.1-9.1-9.1S84.5,44.4,89.5,44.4z"/>
					<path id="Shape_5_" class="st1" d="M89.5,70C79.3,70,71,78.4,71,88.7c0,2.9,2.4,5.3,5.3,5.3h26.5c2.9,0,5.3-2.4,5.3-5.3
						C108,78.4,99.7,70,89.5,70z M102.7,91.6H76.3c-1.6,0-2.9-1.3-2.9-2.9c0-9,7.2-16.3,16.1-16.3c8.9,0,16.1,7.3,16.1,16.3
						C105.6,90.3,104.3,91.6,102.7,91.6z"/>
					<path id="Path" class="st1" d="M54,12c0.6,0,1-0.5,1-1.2V1.2C55,0.5,54.6,0,54,0s-1,0.5-1,1.2v9.6C53,11.5,53.4,12,54,12z"/>
					<path id="Path_1_" class="st1" d="M82.2,23c0.3,0,0.6-0.1,0.8-0.3l6.6-6.6c0.5-0.5,0.5-1.2,0-1.7c-0.5-0.5-1.2-0.5-1.7,0
						L81.3,21c-0.5,0.5-0.5,1.2,0,1.7C81.6,22.9,81.9,23,82.2,23z"/>
					<path id="Path_2_" class="st1" d="M25,22.7c0.2,0.2,0.5,0.3,0.8,0.3c0.3,0,0.6-0.1,0.8-0.3c0.5-0.5,0.5-1.2,0-1.7L20,14.3
						c-0.5-0.5-1.2-0.5-1.7,0c-0.5,0.5-0.5,1.2,0,1.7L25,22.7z"/>
					<path id="Path_3_" class="st1" d="M37.7,14.3c0.2,0.5,0.6,0.7,1.1,0.7c0.2,0,0.3,0,0.5-0.1c0.6-0.3,0.9-0.9,0.6-1.6l-3.6-8.6
						c-0.3-0.6-1-0.9-1.6-0.6c-0.6,0.3-0.9,0.9-0.6,1.6L37.7,14.3z"/>
					<path id="Path_4_" class="st1" d="M68.7,14.9C68.9,15,69,15,69.2,15c0.5,0,0.9-0.3,1.1-0.7l3.6-8.6c0.3-0.6,0-1.3-0.6-1.6
						c-0.6-0.2-1.3,0-1.6,0.6l-3.6,8.6C67.8,14,68.1,14.7,68.7,14.9z"/>
				</g>
			</g>
		</g>
	</g>
</g>
</svg>
