<?xml version="1.0" encoding="utf-8"?>
<!-- Generator: Adobe Illustrator 25.2.0, SVG Export Plug-In . SVG Version: 6.00 Build 0)  -->
<svg version="1.1" id="Layer_1" xmlns="http://www.w3.org/2000/svg" xmlns:xlink="http://www.w3.org/1999/xlink" x="0px" y="0px"
	 viewBox="0 0 60.5 49.1" style="enable-background:new 0 0 60.5 49.1;" xml:space="preserve">
<style type="text/css">
	.st0{fill:none;}
</style>
<g id="Clip-2">
</g>
<g>
	<path class="st0" d="M5.8,30.7h43.8l-0.1-0.2c-1.5-4.4-0.7-8.4,0.2-11.1l0.1-0.3H29.5v7.7c0,0.6-0.3,1.2-0.8,1.4
		c-0.6,0.3-1.3,0.2-1.8-0.2l-4.2-3l-4.3,3.1c-0.1,0.2-0.4,0.2-0.8,0.2c-0.3,0-0.5-0.1-0.7-0.1h-0.1c-0.5-0.3-0.8-0.8-0.8-1.4V19H5.8
		v0.1c-1.8,0-2.5,0.9-2.5,5.8C3.3,29.9,3.9,30.7,5.8,30.7z"/>
	<path class="st0" d="M13.1,8.8c0,5,0.6,5.8,2.5,5.8H16V7.2c0-0.9,0.7-1.6,1.6-1.6H28c0.9,0,1.6,0.7,1.6,1.6v8.7H52
		c0.1,0,0.3,0,0.5,0h2.1l-0.1-0.3c-1.8-5.2-0.4-10,0.6-12.3L55.2,3H15.6C13.8,3,13.1,3.9,13.1,8.8z"/>
	<path class="st0" d="M13.4,45.6h41.4l-0.1-0.1c-1.5-4.4-0.7-8.5,0.2-11.2L55,34h-1c-0.1,0-0.2,0.1-0.3,0.1H12.6h-0.1
		c-1.2,0.3-1.6,1.7-1.6,5.7C10.9,44.8,11.5,45.6,13.4,45.6z"/>
	<path class="st0" d="M26.4,23.5V8.9h-7.1v14.7l2.6-1.9c0.6-0.4,1.3-0.4,1.9,0L26.4,23.5z"/>
	<path d="M58.7,45.5L58.7,45.5l-0.2-0.1c-2.2-5-0.6-9.7,0.2-11.5l0.1-0.1h0.1c0.9,0,1.6-0.7,1.6-1.6c0-0.9-0.7-1.6-1.6-1.6h-4.8
		c-0.2,0-0.3,0-0.4,0h-0.4l-0.1-0.1c-2.2-4.9-0.6-9.6,0.2-11.4V19h5.1c0.9,0,1.6-0.7,1.6-1.6c0-0.9-0.7-1.6-1.6-1.6h-0.4L58,15.7
		c-2.9-6.3,0.5-12.1,0.5-12.1l0.1-0.1c0,0,0.1-0.1,0.1-0.2V3.2h0.1C59.5,3,60,2.3,60,1.6C60,0.7,59.3,0,58.4,0H15.5
		C9.7,0,9.7,5.7,9.7,9.1c0,1.8,0,4.5,1.1,6.5l0.2,0.3H5.8C0,15.9,0,21.6,0,25s0,9.1,5.8,9.1h2.5l-0.1,0.3c-0.7,1.9-0.7,4.1-0.7,5.6
		c0,3.4,0,9.1,5.8,9.1h45.4c0.8,0,1.6-0.8,1.6-2C60.3,46.2,59.6,45.5,58.7,45.5z M5.8,19.1L5.8,19.1L16,19v7.8
		c0,0.6,0.3,1.1,0.8,1.4h0.1c0.2,0,0.4,0.1,0.7,0.1c0.4,0,0.7,0,0.8-0.2l4.3-3.1l4.2,3c0.5,0.4,1.2,0.5,1.8,0.2
		c0.5-0.2,0.8-0.8,0.8-1.4v-7.7h20.3l-0.1,0.3c-0.9,2.7-1.7,6.7-0.2,11.1l0.1,0.2H5.8c-1.9,0-2.5-0.8-2.5-5.8
		C3.3,20,4,19.1,5.8,19.1z M55.1,3.3c-1,2.3-2.4,7.1-0.6,12.3l0.1,0.3h-2.1c-0.2,0-0.4,0-0.5,0H29.6V7.2c0-0.9-0.7-1.6-1.6-1.6H17.6
		c-0.9,0-1.6,0.7-1.6,1.6v7.4h-0.4c-1.9,0-2.5-0.8-2.5-5.8c0-4.9,0.7-5.8,2.5-5.8h39.6L55.1,3.3z M21.9,21.7l-2.6,1.9V8.9h7.1v14.6
		l-2.6-1.8C23.2,21.3,22.5,21.3,21.9,21.7z M12.5,34.1h0.1h41.1c0.1,0,0.2-0.1,0.3-0.1h1l-0.1,0.3c-0.9,2.7-1.7,6.8-0.2,11.2
		l0.1,0.1H13.4c-1.9,0-2.5-0.8-2.5-5.8C10.9,35.8,11.3,34.4,12.5,34.1z"/>
</g>
</svg>
