<?xml version="1.0" encoding="utf-8"?>
<!-- Generator: Adobe Illustrator 25.2.0, SVG Export Plug-In . SVG Version: 6.00 Build 0)  -->
<svg version="1.1" id="Layer_1" xmlns="http://www.w3.org/2000/svg" xmlns:xlink="http://www.w3.org/1999/xlink" x="0px" y="0px"
	 viewBox="0 0 93 93" style="enable-background:new 0 0 93 93;" xml:space="preserve">
<style type="text/css">
	.st0{fill-rule:evenodd;clip-rule:evenodd;fill:#FFFFFF;}
	.st1{fill:none;stroke:#000000;stroke-width:3.213;}
	.st2{fill:none;stroke:#000000;stroke-width:3.291;}
</style>
<g id="desktop">
	<g id="The-Solution-" transform="translate(-1002.000000, -2043.000000)">
		<g id="In-the-Long-Run..." transform="translate(-102.000000, 1217.000000)">
			<g id="Group-23" transform="translate(1105.000000, 826.000000)">
				<circle id="Oval-Copy-6" class="st0" cx="46" cy="33" r="33"/>
				<g id="Group-25">
					<g transform="translate(0.000000, 13.000000)">
						<line id="Stroke-1" class="st1" x1="89.6" y1="12.5" x2="89.6" y2="58"/>
						<line id="Stroke-3" class="st2" x1="0.6" y1="44" x2="0.6" y2="67"/>
						<path id="Stroke-5" class="st2" d="M89.6,12.5c0,6.5-11.3,11.8-25.2,11.8c-13.9,0-25.2-5.3-25.2-11.8S50.6,0.6,64.5,0.6
							C78.4,0.6,89.6,5.9,89.6,12.5z"/>
						<path id="Stroke-7" class="st2" d="M89.6,23.6c0,6.5-11.3,11.8-25.2,11.8c-13.9,0-25.2-5.3-25.2-11.8"/>
						<path id="Stroke-9" class="st2" d="M89.6,34.9c0,6.5-11.3,11.8-25.2,11.8c-5,0-9.6-0.7-13.5-1.8"/>
						<path id="Stroke-11" class="st2" d="M89.6,46.1c0,6.5-11.3,11.8-25.2,11.8c-4.8,0-9.3-0.6-13.1-1.7"/>
						<path id="Stroke-13" class="st2" d="M89.6,57.4c0,6.5-11.3,11.8-25.2,11.8c-4.6,0-8.8-0.6-12.5-1.6"/>
						<line id="Stroke-15" class="st2" x1="39.3" y1="12.5" x2="39.3" y2="34.9"/>
						<line id="Stroke-17" class="st2" x1="51" y1="44" x2="51" y2="67"/>
						<path id="Stroke-19" class="st2" d="M51,44c0,6.5-11.3,11.8-25.2,11.8S0.6,50.5,0.6,44s11.3-11.8,25.2-11.8S51,37.5,51,44z"/>
						<path id="Stroke-21" class="st2" d="M51,55.2C51,61.7,39.7,67,25.8,67S0.6,61.7,0.6,55.2"/>
						<path id="Stroke-23" class="st2" d="M51,66.4c0,6.5-11.3,11.8-25.2,11.8S0.6,73,0.6,66.4"/>
					</g>
				</g>
			</g>
		</g>
	</g>
</g>
</svg>
