<?xml version="1.0" encoding="utf-8"?>
<!-- Generator: Adobe Illustrator 25.2.0, SVG Export Plug-In . SVG Version: 6.00 Build 0)  -->
<svg version="1.1" id="Layer_1" xmlns="http://www.w3.org/2000/svg" xmlns:xlink="http://www.w3.org/1999/xlink" x="0px" y="0px"
	 viewBox="0 0 62 48" style="enable-background:new 0 0 62 48;" xml:space="preserve">
<style type="text/css">
	.st0{fill-rule:evenodd;clip-rule:evenodd;}
</style>
<g id="desktop">
	<g id="The-Solution-" transform="translate(-237.000000, -3239.000000)">
		<g id="Funding-Alone-is-Not-Enough" transform="translate(176.000000, 2994.000000)">
			<g id="Box-1" transform="translate(0.000000, 219.000000)">
				<path id="Fill-1" class="st0" d="M109,58.2c0,3.2-7.6,5.8-17.3,5.8C81.9,64,74,61.4,74,58.2V50l17.6,8.5
					c0.1,0.1,0.2,0.1,0.4,0.1h0.1c0.1,0,0.2,0,0.3,0h0.2c0.1,0,0.1,0,0.2,0c0.1,0,0.3-0.1,0.4-0.1l15.9-8.1L109,58.2z M92.5,30
					L118,42.5l-0.2,0.1l-25.2-1.8c-1-0.1-1.8,0.6-1.9,1.6c-0.1,0.9,0.7,1.7,1.6,1.8l19.1,1.4l-1.3,0.6L92.5,55l-19.3-9.2h0L67,43.2
					L92.5,30z M120,70h-4v-2.3c0-1,0.9-1.7,2-1.7s2,0.8,2,1.7V70z M122,44c0.9-0.4,1.2-1.4,0.8-2.3c-0.2-0.4-0.4-0.6-0.8-0.8
					L92.8,26.2c-0.5-0.3-1.1-0.3-1.6,0L61.9,41.7c-0.8,0.4-1.2,1.5-0.7,2.3c0.2,0.3,0.5,0.6,0.8,0.8l8.3,3.6v9.9
					c0,6.4,10.6,9.3,21,9.3c15.3,0,20.7-5,20.7-9.3v-9.7l3.9-1.8v16.1c-2.2,0.7-3.7,2.8-3.7,5.1v4.2c0,0.9,0.8,1.7,1.7,1.7h0h7.3
					c1,0,1.7-0.8,1.7-1.7v-4.2c0-2.3-1.5-4.4-3.7-5.1V45.2L122,44z"/>
			</g>
		</g>
	</g>
</g>
</svg>
