<?xml version="1.0" encoding="utf-8"?>
<!-- Generator: Adobe Illustrator 25.2.0, SVG Export Plug-In . SVG Version: 6.00 Build 0)  -->
<svg version="1.1" id="Layer_1" xmlns="http://www.w3.org/2000/svg" xmlns:xlink="http://www.w3.org/1999/xlink" x="0px" y="0px"
	 viewBox="0 0 45.3 60.3" style="enable-background:new 0 0 45.3 60.3;" xml:space="preserve">
<style type="text/css">
	.st0{fill:#596FCE;}
</style>
<g id="desktop">
	<g id="The-Solution-" transform="translate(-245.000000, -3737.000000)">
		<g id="Funding-Alone-is-Not-Enough" transform="translate(176.000000, 2994.000000)">
			<g id="Box-3" transform="translate(0.000000, 726.000000)">
				<path class="st0" d="M114.1,61.9c0-4.4-2.6-8.4-7.3-11.3c-2.5-1.5-5.5-2.7-8.8-3.4l-0.8-0.2l0.6-0.5c1.2-1,2.3-2.2,3.2-3.8
					c0.9-1.5,1.7-3.2,2.3-5l0-0.2l0.1-0.1c1.9-0.9,2.5-3,2.6-4.6c0-1.9-0.5-3-1.5-3.4l-0.3-0.1l0-0.3c0-0.9-0.1-2-0.5-3.1
					c-0.6-2-1.9-3.6-3.7-4.4l-0.1-0.1l-0.1-0.1c-0.4-0.9-0.7-1.5-1-1.9c-0.9-1.2-2.9-2.6-7.3-2.6c-4.6,0-8.3,1.7-10.3,5
					c-1.2,1.9-1.9,4.2-2.2,7.1l0,0.2l-0.2,0.1c-1.8,0.6-1.9,3-1.9,3.5c0.1,1.8,1.1,4.4,2.6,4.6l0.2,0l0.1,0.2
					c0.6,1.8,1.4,3.6,2.3,5.1c0.9,1.4,2,2.6,3.1,3.6L86,47l-0.8,0.2c-3.3,0.7-6.4,1.8-8.9,3.4C73.5,52.3,69,56,69,61.8
					c0.1,1.4,0,2.9,0,4.3c-0.1,2.1-0.1,4.1,0.2,5.8c0.4,1.7,1,3,2.1,3.9c1.1,1,2.8,1.4,4.7,1.4c9.1,0.1,18.6,0.1,31.1,0
					c2,0,3.6-0.5,4.7-1.4c1-0.9,1.7-2.2,2.1-3.8c0.5-2.1,0.4-4.5,0.3-7.1C114.2,63.9,114.1,62.9,114.1,61.9z M82.3,28.1
					c0.3-1.8,0.8-3.3,1.6-4.4c2.4-2.6,4.5-3.6,7.7-3.6c0,0,0.1,0,0.1,0c2.9,0,4.7,0.8,5.5,2.6c0.2,0.5,0.6,1.3,1.5,1.7
					c1.5,0.5,1.9,1.3,2.3,2.6c0.1,0.5,0.2,1.1,0.3,2l0.1,0.9l-0.7-0.6c-1-0.8-1.8-1.9-2.6-2.8c-0.6-0.7-1.1-1.4-1.7-2
					c-0.7-0.5-1.4-0.5-2.2,0.2c-1,1.3-3,2.2-5.8,2.9c-1.5,0.4-3.1,0.6-4.7,0.9l-1.4,0.2L82.3,28.1z M84.8,41.3
					C83.1,38.6,82,35,82,32.1l0-0.3l0.3-0.1c0.5-0.1,1-0.2,1.6-0.3c1.7-0.3,3.4-0.6,5.2-1c1.6-0.4,4-1.1,6-2.5l0.3-0.2l0.2,0.3
					c1.6,2,3.4,4,5.5,4.7l0.3,0.1l0,0.3c-0.3,2.8-1.3,5.8-2.7,8.1c-1.9,3.1-4.3,4.7-6.9,4.7c0,0,0,0-0.1,0
					C89,45.9,86.7,44.3,84.8,41.3z M89.8,51.9l-1.6-2.1l0.7-0.1c1-0.1,1.8-0.1,2.6-0.1c0.8,0,1.7,0,2.7,0.1l0.7,0.1l-1.6,2.1H89.8z
					 M93.1,57.4l-0.3,0.1c-0.3,0.1-0.6,0.3-0.9,0.5l-0.2,0.2L91.3,58c-0.3-0.2-0.5-0.3-0.9-0.4l-0.3-0.1l0-0.3l0.3-2.2h2.4
					L93.1,57.4z M85.8,74.2l-0.9,0c-3.5,0-6.8,0-8.9,0c-1,0-2-0.2-2.7-0.7c-0.6-0.5-0.9-1.1-1.1-2.2c-0.3-1.5-0.3-3.7-0.2-6.3
					c0-1,0-2.1,0-3.2c-0.1-4,3.1-6.9,5.8-8.6c1.9-1.2,4.3-2.1,6.9-2.8l0.2-0.1l2.6,3.5L87,58.2c0.1,1,0.5,1.5,1.3,1.8l0.3,0.1
					L85.8,74.2z M93.9,74.2c-0.6,0-1.1,0-1.6,0c-0.5,0-0.9,0-1.4,0l-2,0l2.4-11.9H92l2.4,11.9L93.9,74.2z M111,71.3
					c-0.2,1-0.6,1.7-1.1,2.1c-0.6,0.5-1.5,0.8-2.8,0.8c-1.2,0-2.9,0-4.8,0l-5,0l-2.8-14.1l0.3-0.1c0.8-0.3,1.4-1.1,1.3-1.7l-0.5-4.4
					l2.6-3.5l0.2,0.1c2.5,0.6,4.9,1.6,6.8,2.8c3.8,2.4,5.9,5.4,5.9,8.7c0,1.1,0,2.2,0,3.2C111.2,67.6,111.3,69.8,111,71.3z"/>
			</g>
		</g>
	</g>
</g>
</svg>
