<?xml version="1.0" encoding="utf-8"?>
<!-- Generator: Adobe Illustrator 25.2.0, SVG Export Plug-In . SVG Version: 6.00 Build 0)  -->
<svg version="1.1" id="Layer_1" xmlns:v="https://vecta.io/nano"
	 xmlns="http://www.w3.org/2000/svg" xmlns:xlink="http://www.w3.org/1999/xlink" x="0px" y="0px" viewBox="0 0 444 432"
	 style="enable-background:new 0 0 444 432;" xml:space="preserve" width="444" height="432">
<style type="text/css">
	.st0{fill-rule:evenodd;clip-rule:evenodd;fill:#2E75FE;}
	.st1{fill-rule:evenodd;clip-rule:evenodd;fill:#FBA55F;}
	.st2{fill:none;stroke:#D5E5FF;stroke-width:3;stroke-linejoin:round;}
</style>
<g>
	<circle class="st0" cx="358.5" cy="196.2" r="4.7"/>
	<circle class="st0" cx="220.6" cy="265.6" r="4.7"/>
	<circle class="st0" cx="220.6" cy="291.9" r="4.7"/>
	<circle class="st0" cx="229.9" cy="245.9" r="4.7"/>
	<circle class="st0" cx="229.9" cy="275" r="4.7"/>
	<circle class="st0" cx="229.9" cy="301.3" r="4.7"/>
	<circle class="st0" cx="218.7" cy="248.7" r="4.7"/>
	<circle class="st0" cx="218.7" cy="277.8" r="4.7"/>
	<circle class="st0" cx="218.7" cy="304.1" r="4.7"/>
	<circle class="st0" cx="225.2" cy="267.5" r="4.7"/>
	<circle class="st0" cx="225.2" cy="293.8" r="4.7"/>
	<circle class="st0" cx="239.3" cy="247.8" r="4.7"/>
	<circle class="st0" cx="239.3" cy="276.9" r="4.7"/>
	<circle class="st0" cx="239.3" cy="303.2" r="4.7"/>
	<circle class="st0" cx="244" cy="261.9" r="4.7"/>
	<circle class="st0" cx="244" cy="288.1" r="4.7"/>
	<circle class="st0" cx="244" cy="291" r="4.7"/>
	<circle class="st0" cx="229.9" cy="259.1" r="4.7"/>
	<circle class="st0" cx="229.9" cy="285.3" r="4.7"/>
	<circle class="st0" cx="229.9" cy="288.1" r="4.7"/>
	<circle class="st0" cx="229.9" cy="314.4" r="4.7"/>
	<ellipse transform="matrix(0.9871 -0.1602 0.1602 0.9871 -35.6696 43.728)" class="st0" cx="253.4" cy="243.1" rx="4.7" ry="4.7"/>
	<circle class="st0" cx="253.4" cy="272.2" r="4.7"/>
	<circle class="st0" cx="253.4" cy="298.5" r="4.7"/>
	<circle class="st0" cx="244" cy="243.1" r="4.7"/>
	<circle class="st0" cx="244" cy="272.2" r="4.7"/>
	<circle class="st0" cx="244" cy="298.5" r="4.7"/>
	<circle class="st0" cx="249.6" cy="253.4" r="4.7"/>
	<circle class="st0" cx="249.6" cy="282.5" r="4.7"/>
	<circle class="st0" cx="249.6" cy="308.8" r="4.7"/>
	<circle class="st0" cx="264.6" cy="243.1" r="4.7"/>
	<circle class="st0" cx="264.6" cy="272.2" r="4.7"/>
	<circle class="st0" cx="264.6" cy="298.5" r="4.7"/>
	<ellipse transform="matrix(0.9871 -0.1602 0.1602 0.9871 -37.0877 44.9011)" class="st0" cx="260" cy="252.5" rx="4.7" ry="4.7"/>
	<circle class="st0" cx="260" cy="281.6" r="4.7"/>
	<circle class="st0" cx="260" cy="263.7" r="4.7"/>
	<circle class="st0" cx="260" cy="290" r="4.7"/>
	<circle class="st0" cx="260" cy="292.8" r="4.7"/>
	<circle class="st0" cx="207.4" cy="303.2" r="4.7"/>
	<circle class="st0" cx="212.1" cy="315.3" r="4.7"/>
	<circle class="st0" cx="261.8" cy="401.7" r="4.7"/>
	<circle class="st0" cx="275.9" cy="241.2" r="4.7"/>
	<circle class="st0" cx="275.9" cy="270.3" r="4.7"/>
	<circle class="st0" cx="275.9" cy="296.6" r="4.7"/>
	<circle class="st0" cx="207.4" cy="245.9" r="4.7"/>
	<circle class="st0" cx="207.4" cy="275" r="4.7"/>
	<g transform="matrix(1 0 0 -1 2 527.373)">
		<circle class="st0" cx="207.3" cy="262.7" r="4.7"/>
		<circle class="st0" cx="195.1" cy="262.7" r="4.7"/>
	</g>
	<circle class="st0" cx="207.4" cy="301.3" r="4.7"/>
	<circle class="st0" cx="214" cy="260" r="4.7"/>
	<circle class="st0" cx="214" cy="286.3" r="4.7"/>
	<circle class="st0" cx="214" cy="289.1" r="4.7"/>
	<circle class="st0" cx="199" cy="281.6" r="4.7"/>
	<circle class="st0" cx="214" cy="315.3" r="4.7"/>
	<circle class="st0" cx="262.8" cy="331.3" r="4.7"/>
	<circle class="st0" cx="312.5" cy="326.6" r="4.7"/>
	<circle class="st0" cx="296.5" cy="378.2" r="4.7"/>
	<circle class="st0" cx="277.8" cy="324.7" r="4.7"/>
	<circle class="st0" cx="327.5" cy="320" r="4.7"/>
	<circle class="st0" cx="249.6" cy="371.6" r="4.7"/>
	<circle class="st0" cx="258.1" cy="340.7" r="4.7"/>
	<circle class="st0" cx="307.8" cy="336" r="4.7"/>
	<circle class="st0" cx="283.4" cy="401.7" r="4.7"/>
	<circle class="st0" cx="273.1" cy="334.1" r="4.7"/>
	<circle class="st0" cx="322.8" cy="329.4" r="4.7"/>
	<circle class="st0" cx="295.6" cy="402.6" r="4.7"/>
	<circle class="st0" cx="253.4" cy="329.4" r="4.7"/>
	<circle class="st0" cx="303.1" cy="324.7" r="4.7"/>
	<circle class="st0" cx="274" cy="382" r="4.7"/>
	<circle class="st0" cx="268.4" cy="322.9" r="4.7"/>
	<circle class="st0" cx="318.1" cy="318.2" r="4.7"/>
	<circle class="st0" cx="285.3" cy="369.8" r="4.7"/>
	<circle class="st0" cx="253.4" cy="358.5" r="4.7"/>
	<circle class="st0" cx="303.1" cy="353.8" r="4.7"/>
	<circle class="st0" cx="272.2" cy="366.9" r="4.7"/>
	<circle class="st0" cx="268.4" cy="351.9" r="4.7"/>
	<circle class="st0" cx="318.1" cy="347.2" r="4.7"/>
	<circle class="st0" cx="293.7" cy="389.5" r="4.7"/>
	<circle class="st0" cx="262.8" cy="317.2" r="4.7"/>
	<circle class="st0" cx="312.5" cy="312.5" r="4.7"/>
	<circle class="st0" cx="361.3" cy="317.2" r="4.7"/>
	<circle class="st0" cx="273.1" cy="360.4" r="4.7"/>
	<circle class="st0" cx="277.8" cy="310.7" r="4.7"/>
	<circle class="st0" cx="327.5" cy="306" r="4.7"/>
	<circle class="st0" cx="262.8" cy="346.3" r="4.7"/>
	<circle class="st0" cx="312.5" cy="341.6" r="4.7"/>
	<circle class="st0" cx="288.1" cy="407.3" r="4.7"/>
	<circle class="st0" cx="277.8" cy="339.7" r="4.7"/>
	<circle class="st0" cx="327.5" cy="335" r="4.7"/>
	<circle class="st0" cx="253.4" cy="315.3" r="4.7"/>
	<circle class="st0" cx="303.1" cy="310.7" r="4.7"/>
	<circle class="st0" cx="351.9" cy="315.3" r="4.7"/>
	<circle class="st0" cx="321.9" cy="280.6" r="4.7"/>
	<circle class="st0" cx="268.4" cy="308.8" r="4.7"/>
	<circle class="st0" cx="318.1" cy="304.1" r="4.7"/>
	<circle class="st0" cx="366.9" cy="308.8" r="4.7"/>
	<circle class="st0" cx="253.4" cy="344.4" r="4.7"/>
	<circle class="st0" cx="303.1" cy="339.7" r="4.7"/>
	<circle class="st0" cx="278.7" cy="405.4" r="4.7"/>
	<circle class="st0" cx="268.4" cy="337.9" r="4.7"/>
	<circle class="st0" cx="318.1" cy="333.2" r="4.7"/>
	<circle class="st0" cx="274" cy="395.1" r="4.7"/>
	<circle class="st0" cx="248.7" cy="301.3" r="4.7"/>
	<circle class="st0" cx="298.4" cy="296.6" r="4.7"/>
	<circle class="st0" cx="347.2" cy="301.3" r="4.7"/>
	<circle class="st0" cx="262.8" cy="304.1" r="4.7"/>
	<circle class="st0" cx="312.5" cy="299.4" r="4.7"/>
	<circle class="st0" cx="361.3" cy="304.1" r="4.7"/>
	<circle class="st0" cx="277.8" cy="297.5" r="4.7"/>
	<circle class="st0" cx="376.3" cy="297.5" r="4.7"/>
	<circle class="st0" cx="239.3" cy="320" r="4.7"/>
	<circle class="st0" cx="289" cy="315.3" r="4.7"/>
	<circle class="st0" cx="337.8" cy="320" r="4.7"/>
	<circle class="st0" cx="381" cy="285.3" r="4.7"/>
	<circle class="st0" cx="239.3" cy="349.1" r="4.7"/>
	<circle class="st0" cx="289" cy="344.4" r="4.7"/>
	<circle class="st0" cx="264.7" cy="370.7" r="4.7"/>
	<circle class="st0" cx="248.7" cy="320" r="4.7"/>
	<circle class="st0" cx="298.4" cy="315.3" r="4.7"/>
	<circle class="st0" cx="381" cy="284.4" r="4.7"/>
	<circle class="st0" cx="263.7" cy="313.5" r="4.7"/>
	<circle class="st0" cx="313.4" cy="308.8" r="4.7"/>
	<circle class="st0" cx="362.2" cy="313.5" r="4.7"/>
	<circle class="st0" cx="248.7" cy="349.1" r="4.7"/>
	<circle class="st0" cx="298.4" cy="344.4" r="4.7"/>
	<circle class="st0" cx="274" cy="410.1" r="4.7"/>
	<circle class="st0" cx="263.7" cy="342.6" r="4.7"/>
	<circle class="st0" cx="313.4" cy="337.9" r="4.7"/>
	<circle class="st0" cx="303.1" cy="412.9" r="4.7"/>
	<circle class="st0" cx="243.1" cy="309.7" r="4.7"/>
	<circle class="st0" cx="292.8" cy="305" r="4.7"/>
	<circle class="st0" cx="341.6" cy="309.7" r="4.7"/>
	<circle class="st0" cx="258.1" cy="303.2" r="4.7"/>
	<circle class="st0" cx="307.8" cy="298.5" r="4.7"/>
	<circle class="st0" cx="356.6" cy="303.2" r="4.7"/>
	<circle class="st0" cx="234.6" cy="329.4" r="4.7"/>
	<circle class="st0" cx="284.4" cy="324.7" r="4.7"/>
	<circle class="st0" cx="333.1" cy="329.4" r="4.7"/>
	<circle class="st0" cx="255.3" cy="382" r="4.7"/>
	<circle class="st0" cx="234.6" cy="358.5" r="4.7"/>
	<circle class="st0" cx="284.4" cy="353.8" r="4.7"/>
	<circle class="st0" cx="287.2" cy="360.4" r="4.7"/>
	<g transform="matrix(-1 0 0 1 454.122 2)">
		<circle class="st0" cx="226.1" cy="318" r="4.7"/>
		<circle class="st0" cx="226.1" cy="347.1" r="4.7"/>
	</g>
	<circle class="st0" cx="232.8" cy="310.7" r="4.7"/>
	<circle class="st0" cx="282.5" cy="306" r="4.7"/>
	<circle class="st0" cx="331.3" cy="310.7" r="4.7"/>
	<circle class="st0" cx="381.9" cy="296.6" r="4.7"/>
	<circle class="st0" cx="232.8" cy="299.4" r="4.7"/>
	<circle class="st0" cx="331.3" cy="299.4" r="4.7"/>
	<g transform="matrix(-1 0 0 1 544.186 2)">
		<circle class="st0" cx="271.1" cy="248.6" r="4.7"/>
		<circle class="st0" cx="271.1" cy="277.7" r="4.7"/>
	</g>
	<g transform="matrix(-1 0 0 1 540.433 2)">
		<circle class="st0" cx="269.2" cy="259.9" r="4.7"/>
		<circle class="st0" cx="269.2" cy="286.1" r="4.7"/>
		<circle class="st0" cx="269.2" cy="289" r="4.7"/>
	</g>
	<circle class="st0" cx="220.6" cy="329.4" r="4.7"/>
	<circle class="st0" cx="310.6" cy="236.5" r="4.7"/>
	<circle class="st0" cx="315.3" cy="287.2" r="4.7"/>
	<circle class="st0" cx="259" cy="361.3" r="4.7"/>
	<g transform="matrix(-1 0 0 1 559.197 2)">
		<circle class="st0" cx="278.6" cy="245.8" r="4.7"/>
		<circle class="st0" cx="278.6" cy="274.9" r="4.7"/>
	</g>
	<circle class="st0" cx="216.8" cy="321.9" r="4.7"/>
	<circle class="st0" cx="245.9" cy="382" r="4.7"/>
	<circle class="st0" cx="225.2" cy="336" r="4.7"/>
	<circle class="st0" cx="320" cy="227.2" r="4.7"/>
	<circle class="st0" cx="310.6" cy="262.8" r="4.7"/>
	<circle class="st0" cx="244" cy="331.3" r="4.7"/>
	<circle class="st0" cx="293.7" cy="326.6" r="4.7"/>
	<circle class="st0" cx="342.5" cy="331.3" r="4.7"/>
	<circle class="st0" cx="264.7" cy="383.8" r="4.7"/>
	<circle class="st0" cx="259" cy="324.7" r="4.7"/>
	<circle class="st0" cx="308.7" cy="320" r="4.7"/>
	<circle class="st0" cx="279.7" cy="377.3" r="4.7"/>
	<circle class="st0" cx="244" cy="360.4" r="4.7"/>
	<circle class="st0" cx="293.7" cy="355.7" r="4.7"/>
	<circle class="st0" cx="284.4" cy="382" r="4.7"/>
	<circle class="st0" cx="232.8" cy="340.7" r="4.7"/>
	<circle class="st0" cx="282.5" cy="336" r="4.7"/>
	<circle class="st0" cx="253.4" cy="393.2" r="4.7"/>
	<circle class="st0" cx="248.7" cy="340.7" r="4.7"/>
	<circle class="st0" cx="298.4" cy="336" r="4.7"/>
	<circle class="st0" cx="274" cy="401.7" r="4.7"/>
	<circle class="st0" cx="263.7" cy="334.1" r="4.7"/>
	<circle class="st0" cx="313.4" cy="329.4" r="4.7"/>
	<circle class="st0" cx="289" cy="395.1" r="4.7"/>
	<circle class="st0" cx="255.3" cy="303.2" r="4.7"/>
	<circle class="st0" cx="305" cy="298.5" r="4.7"/>
	<circle class="st0" cx="353.8" cy="303.2" r="4.7"/>
	<circle class="st0" cx="270.3" cy="296.6" r="4.7"/>
	<circle class="st0" cx="368.8" cy="296.6" r="4.7"/>
	<circle class="st0" cx="239.3" cy="301.3" r="4.7"/>
	<circle class="st0" cx="289" cy="296.6" r="4.7"/>
	<circle class="st0" cx="337.8" cy="301.3" r="4.7"/>
	<circle class="st0" cx="228.1" cy="303.2" r="4.7"/>
	<circle class="st0" cx="214" cy="303.2" r="4.7"/>
	<circle class="st0" cx="204.6" cy="303.2" r="4.7"/>
	<circle class="st0" cx="245.9" cy="298.5" r="4.7"/>
	<circle class="st0" cx="344.4" cy="298.5" r="4.7"/>
	<circle class="st0" cx="353.8" cy="205.6" r="4.7"/>
	<circle class="st0" cx="344.4" cy="196.2" r="4.7"/>
	<circle class="st0" cx="344.4" cy="205.6" r="4.7"/>
	<circle class="st0" cx="330.3" cy="210.3" r="4.7"/>
	<circle class="st0" cx="330.3" cy="239.4" r="4.7"/>
	<circle class="st0" cx="330.3" cy="265.6" r="4.7"/>
	<circle class="st0" cx="342.5" cy="216.8" r="4.7"/>
	<circle class="st0" cx="342.5" cy="245.9" r="4.7"/>
	<circle class="st0" cx="342.5" cy="272.2" r="4.7"/>
	<circle class="st0" cx="320.9" cy="196.2" r="4.7"/>
	<circle class="st0" cx="319.1" cy="207.5" r="4.7"/>
	<circle class="st0" cx="305" cy="198.1" r="4.7"/>
	<circle class="st0" cx="305" cy="207.5" r="4.7"/>
	<circle class="st0" cx="293.7" cy="210.3" r="4.7"/>
	<circle class="st0" cx="293.7" cy="239.4" r="4.7"/>
	<circle class="st0" cx="293.7" cy="265.6" r="4.7"/>
	<circle class="st0" cx="293.7" cy="196.2" r="4.7"/>
	<circle class="st0" cx="284.4" cy="205.6" r="4.7"/>
	<circle class="st0" cx="279.7" cy="196.2" r="4.7"/>
	<circle class="st0" cx="275" cy="207.5" r="4.7"/>
	<circle class="st0" cx="284.4" cy="219.7" r="4.7"/>
	<circle class="st0" cx="284.4" cy="248.7" r="4.7"/>
	<circle class="st0" cx="284.4" cy="275" r="4.7"/>
	<circle class="st0" cx="295.6" cy="222.5" r="4.7"/>
	<circle class="st0" cx="295.6" cy="251.6" r="4.7"/>
	<circle class="st0" cx="295.6" cy="277.8" r="4.7"/>
	<circle class="st0" cx="289" cy="212.1" r="4.7"/>
	<circle class="st0" cx="289" cy="241.2" r="4.7"/>
	<circle class="st0" cx="289" cy="267.5" r="4.7"/>
	<circle class="st0" cx="275" cy="221.5" r="4.7"/>
	<circle class="st0" cx="275" cy="250.6" r="4.7"/>
	<circle class="st0" cx="275" cy="276.9" r="4.7"/>
	<circle class="st0" cx="270.3" cy="235.6" r="4.7"/>
	<circle class="st0" cx="270.3" cy="261.9" r="4.7"/>
	<circle class="st0" cx="270.3" cy="264.7" r="4.7"/>
	<circle class="st0" cx="284.4" cy="232.8" r="4.7"/>
	<circle class="st0" cx="284.4" cy="259.1" r="4.7"/>
	<circle class="st0" cx="284.4" cy="261.9" r="4.7"/>
	<circle class="st0" cx="284.4" cy="288.1" r="4.7"/>
	<circle class="st0" cx="260.9" cy="216.8" r="4.7"/>
	<circle class="st0" cx="260.9" cy="245.9" r="4.7"/>
	<circle class="st0" cx="260.9" cy="272.2" r="4.7"/>
	<circle class="st0" cx="270.3" cy="216.8" r="4.7"/>
	<circle class="st0" cx="270.3" cy="245.9" r="4.7"/>
	<circle class="st0" cx="270.3" cy="272.2" r="4.7"/>
	<circle class="st0" cx="264.6" cy="227.2" r="4.7"/>
	<circle class="st0" cx="264.6" cy="256.2" r="4.7"/>
	<circle class="st0" cx="264.6" cy="282.5" r="4.7"/>

		<ellipse transform="matrix(0.1602 -0.9871 0.9871 0.1602 10.3872 427.1247)" class="st0" cx="256.2" cy="207.5" rx="4.7" ry="4.7"/>
	<circle class="st0" cx="249.6" cy="216.8" r="4.7"/>
	<circle class="st0" cx="249.6" cy="245.9" r="4.7"/>
	<circle class="st0" cx="249.6" cy="272.2" r="4.7"/>
	<circle class="st0" cx="254.3" cy="226.2" r="4.7"/>
	<circle class="st0" cx="254.3" cy="255.3" r="4.7"/>
	<circle class="st0" cx="254.3" cy="237.5" r="4.7"/>
	<circle class="st0" cx="254.3" cy="263.7" r="4.7"/>
	<circle class="st0" cx="254.3" cy="266.6" r="4.7"/>
	<circle class="st0" cx="242.1" cy="207.5" r="4.7"/>
	<circle class="st0" cx="232.8" cy="198.1" r="4.7"/>
	<circle class="st0" cx="228.1" cy="210.3" r="4.7"/>
	<circle class="st0" cx="228.1" cy="239.4" r="4.7"/>
	<circle class="st0" cx="228.1" cy="265.6" r="4.7"/>
	<circle class="st0" cx="238.4" cy="215" r="4.7"/>
	<circle class="st0" cx="238.4" cy="244" r="4.7"/>
	<circle class="st0" cx="238.4" cy="270.3" r="4.7"/>
	<circle class="st0" cx="246.8" cy="200.9" r="4.7"/>
	<circle class="st0" cx="265.6" cy="205.6" r="4.7"/>
	<circle class="st0" cx="254.3" cy="196.2" r="4.7"/>
	<circle class="st0" cx="270.3" cy="196.2" r="4.7"/>
	<circle class="st0" cx="306.9" cy="219.7" r="4.7"/>
	<circle class="st0" cx="306.9" cy="248.7" r="4.7"/>
	<circle class="st0" cx="306.9" cy="275" r="4.7"/>
	<circle class="st0" cx="300.3" cy="233.7" r="4.7"/>
	<circle class="st0" cx="300.3" cy="260" r="4.7"/>
	<circle class="st0" cx="300.3" cy="262.8" r="4.7"/>
	<circle class="st0" cx="300.3" cy="289.1" r="4.7"/>
	<circle class="st0" cx="320.9" cy="216.8" r="4.7"/>
	<circle class="st0" cx="320.9" cy="245.9" r="4.7"/>
	<circle class="st0" cx="320.9" cy="272.2" r="4.7"/>
	<circle class="st0" cx="319.1" cy="233.7" r="4.7"/>
	<circle class="st0" cx="319.1" cy="260" r="4.7"/>
	<circle class="st0" cx="319.1" cy="262.8" r="4.7"/>
	<circle class="st0" cx="319.1" cy="284.4" r="4.7"/>
	<circle class="st0" cx="335" cy="219.7" r="4.7"/>
	<circle class="st0" cx="335" cy="248.7" r="4.7"/>
	<circle class="st0" cx="335" cy="275" r="4.7"/>
	<circle class="st0" cx="332.2" cy="235.6" r="4.7"/>
	<circle class="st0" cx="332.2" cy="261.9" r="4.7"/>
	<circle class="st0" cx="332.2" cy="264.7" r="4.7"/>
	<circle class="st0" cx="332.2" cy="291" r="4.7"/>
	<circle class="st0" cx="348.1" cy="229" r="4.7"/>
	<circle class="st0" cx="348.1" cy="258.1" r="4.7"/>
	<circle class="st0" cx="348.1" cy="284.4" r="4.7"/>
	<circle class="st0" cx="355.7" cy="221.5" r="4.7"/>
	<circle class="st0" cx="355.7" cy="250.6" r="4.7"/>
	<circle class="st0" cx="355.7" cy="276.9" r="4.7"/>
	<circle class="st0" cx="348.1" cy="210.3" r="4.7"/>
	<circle class="st0" cx="348.1" cy="239.4" r="4.7"/>
	<circle class="st0" cx="348.1" cy="265.6" r="4.7"/>
	<circle class="st0" cx="311.6" cy="200.9" r="4.7"/>
	<circle class="st0" cx="335" cy="196.2" r="4.7"/>
	<circle class="st0" cx="177.4" cy="226.2" r="4.7"/>
	<circle class="st0" cx="127.7" cy="221.5" r="4.7"/>
	<circle class="st0" cx="78.9" cy="226.2" r="4.7"/>
	<circle class="st0" cx="162.4" cy="219.7" r="4.7"/>
	<circle class="st0" cx="112.7" cy="215" r="4.7"/>
	<circle class="st0" cx="63.9" cy="219.7" r="4.7"/>
	<circle class="st0" cx="182.1" cy="235.6" r="4.7"/>
	<circle class="st0" cx="132.4" cy="230.9" r="4.7"/>
	<circle class="st0" cx="83.6" cy="235.6" r="4.7"/>
	<circle class="st0" cx="167.1" cy="229" r="4.7"/>
	<circle class="st0" cx="117.4" cy="224.3" r="4.7"/>
	<circle class="st0" cx="68.6" cy="229" r="4.7"/>
	<circle class="st0" cx="186.8" cy="224.3" r="4.7"/>
	<circle class="st0" cx="137.1" cy="219.7" r="4.7"/>
	<circle class="st0" cx="88.3" cy="224.3" r="4.7"/>
	<circle class="st0" cx="37.6" cy="210.3" r="4.7"/>
	<circle class="st0" cx="171.8" cy="217.8" r="4.7"/>
	<circle class="st0" cx="122" cy="213.1" r="4.7"/>
	<circle class="st0" cx="73.3" cy="217.8" r="4.7"/>
	<circle class="st0" cx="186.8" cy="253.4" r="4.7"/>
	<circle class="st0" cx="171.8" cy="260" r="4.7"/>
	<circle class="st0" cx="187.7" cy="272.2" r="4.7"/>
	<circle class="st0" cx="137.1" cy="248.7" r="4.7"/>
	<circle class="st0" cx="115.5" cy="257.2" r="4.7"/>
	<circle class="st0" cx="88.3" cy="253.4" r="4.7"/>
	<circle class="st0" cx="171.8" cy="246.9" r="4.7"/>
	<circle class="st0" cx="176.5" cy="267.5" r="4.7"/>
	<circle class="st0" cx="122" cy="242.2" r="4.7"/>
	<circle class="st0" cx="73.3" cy="246.9" r="4.7"/>
	<circle class="st0" cx="177.4" cy="212.1" r="4.7"/>
	<circle class="st0" cx="127.7" cy="207.5" r="4.7"/>
	<circle class="st0" cx="78.9" cy="212.1" r="4.7"/>
	<circle class="st0" cx="28.2" cy="198.1" r="4.7"/>
	<circle class="st0" cx="162.4" cy="205.6" r="4.7"/>
	<circle class="st0" cx="112.7" cy="200.9" r="4.7"/>
	<circle class="st0" cx="63.9" cy="205.6" r="4.7"/>
	<circle class="st0" cx="177.4" cy="241.2" r="4.7"/>
	<circle class="st0" cx="127.7" cy="236.5" r="4.7"/>
	<circle class="st0" cx="78.9" cy="241.2" r="4.7"/>
	<circle class="st0" cx="162.4" cy="234.7" r="4.7"/>
	<circle class="st0" cx="112.7" cy="230" r="4.7"/>
	<circle class="st0" cx="63.9" cy="234.7" r="4.7"/>
	<circle class="st0" cx="186.8" cy="210.3" r="4.7"/>
	<circle class="st0" cx="137.1" cy="205.6" r="4.7"/>
	<circle class="st0" cx="88.3" cy="210.3" r="4.7"/>
	<circle class="st0" cx="37.6" cy="196.2" r="4.7"/>
	<circle class="st0" cx="171.8" cy="203.7" r="4.7"/>
	<circle class="st0" cx="122" cy="199" r="4.7"/>
	<circle class="st0" cx="73.3" cy="203.7" r="4.7"/>
	<circle class="st0" cx="22.6" cy="189.6" r="4.7"/>
	<circle class="st0" cx="186.8" cy="239.4" r="4.7"/>
	<circle class="st0" cx="137.1" cy="234.7" r="4.7"/>
	<circle class="st0" cx="88.3" cy="239.4" r="4.7"/>
	<circle class="st0" cx="171.8" cy="232.8" r="4.7"/>
	<circle class="st0" cx="122" cy="228.1" r="4.7"/>
	<circle class="st0" cx="73.3" cy="232.8" r="4.7"/>
	<circle class="st0" cx="191.5" cy="196.2" r="4.7"/>
	<circle class="st0" cx="141.8" cy="191.5" r="4.7"/>
	<circle class="st0" cx="93" cy="196.2" r="4.7"/>
	<circle class="st0" cx="42.3" cy="182.1" r="4.7"/>
	<circle class="st0" cx="176.5" cy="189.6" r="4.7"/>
	<circle class="st0" cx="126.7" cy="184.9" r="4.7"/>
	<circle class="st0" cx="78" cy="189.6" r="4.7"/>
	<circle class="st0" cx="333.1" cy="229" r="4.7"/>
	<circle class="st0" cx="333.1" cy="258.1" r="4.7"/>
	<circle class="st0" cx="333.1" cy="284.4" r="4.7"/>
	<circle class="st0" cx="177.4" cy="199" r="4.7"/>
	<circle class="st0" cx="96.7" cy="259.1" r="4.7"/>
	<circle class="st0" cx="78.9" cy="199" r="4.7"/>
	<circle class="st0" cx="28.2" cy="184.9" r="4.7"/>
	<circle class="st0" cx="162.4" cy="192.4" r="4.7"/>
	<circle class="st0" cx="112.7" cy="187.8" r="4.7"/>
	<circle class="st0" cx="63.9" cy="192.4" r="4.7"/>
	<circle class="st0" cx="13.2" cy="178.4" r="4.7"/>
	<circle class="st0" cx="200.9" cy="215" r="4.7"/>
	<circle class="st0" cx="151.1" cy="210.3" r="4.7"/>
	<circle class="st0" cx="102.3" cy="215" r="4.7"/>
	<circle class="st0" cx="51.7" cy="200.9" r="4.7"/>
	<circle class="st0" cx="200.9" cy="244" r="4.7"/>
	<circle class="st0" cx="151.1" cy="239.4" r="4.7"/>
	<circle class="st0" cx="102.3" cy="244" r="4.7"/>
	<circle class="st0" cx="191.5" cy="215" r="4.7"/>
	<circle class="st0" cx="141.8" cy="210.3" r="4.7"/>
	<circle class="st0" cx="93" cy="215" r="4.7"/>
	<circle class="st0" cx="42.3" cy="200.9" r="4.7"/>
	<circle class="st0" cx="176.5" cy="208.4" r="4.7"/>
	<circle class="st0" cx="126.7" cy="203.7" r="4.7"/>
	<circle class="st0" cx="78" cy="208.4" r="4.7"/>
	<circle class="st0" cx="27.3" cy="194.3" r="4.7"/>
	<circle class="st0" cx="191.5" cy="244" r="4.7"/>
	<circle class="st0" cx="141.8" cy="239.4" r="4.7"/>
	<circle class="st0" cx="93" cy="244" r="4.7"/>
	<circle class="st0" cx="176.5" cy="237.5" r="4.7"/>
	<circle class="st0" cx="126.7" cy="232.8" r="4.7"/>
	<circle class="st0" cx="78" cy="237.5" r="4.7"/>
	<circle class="st0" cx="197.1" cy="204.6" r="4.7"/>
	<circle class="st0" cx="147.4" cy="200" r="4.7"/>
	<circle class="st0" cx="98.6" cy="204.6" r="4.7"/>
	<circle class="st0" cx="47.9" cy="190.6" r="4.7"/>
	<circle class="st0" cx="182.1" cy="198.1" r="4.7"/>
	<circle class="st0" cx="133.3" cy="257.2" r="4.7"/>
	<circle class="st0" cx="83.6" cy="198.1" r="4.7"/>
	<circle class="st0" cx="32.9" cy="184" r="4.7"/>
	<circle class="st0" cx="205.5" cy="224.3" r="4.7"/>
	<circle class="st0" cx="155.8" cy="219.7" r="4.7"/>
	<circle class="st0" cx="107" cy="224.3" r="4.7"/>
	<circle class="st0" cx="56.4" cy="210.3" r="4.7"/>
	<circle class="st0" cx="205.5" cy="253.4" r="4.7"/>
	<circle class="st0" cx="155.8" cy="248.7" r="4.7"/>
	<circle class="st0" cx="163.3" cy="259.1" r="4.7"/>
	<circle class="st0" cx="153.9" cy="262.8" r="4.7"/>
	<circle class="st0" cx="107" cy="253.4" r="4.7"/>
	<circle class="st0" cx="114.5" cy="273.1" r="4.7"/>
	<circle class="st0" cx="103.3" cy="277.8" r="4.7"/>
	<circle class="st0" cx="212.1" cy="215" r="4.7"/>
	<circle class="st0" cx="212.1" cy="244" r="4.7"/>
	<circle class="st0" cx="207.4" cy="205.6" r="4.7"/>
	<circle class="st0" cx="157.7" cy="200.9" r="4.7"/>
	<circle class="st0" cx="108.9" cy="205.6" r="4.7"/>
	<circle class="st0" cx="58.3" cy="191.5" r="4.7"/>
	<circle class="st0" cx="207.4" cy="194.3" r="4.7"/>
	<circle class="st0" cx="157.7" cy="189.6" r="4.7"/>
	<circle class="st0" cx="108.9" cy="194.3" r="4.7"/>
	<circle class="st0" cx="58.3" cy="180.3" r="4.7"/>
	<circle class="st0" cx="241.2" cy="224.3" r="4.7"/>
	<circle class="st0" cx="241.2" cy="253.4" r="4.7"/>
	<circle class="st0" cx="243.1" cy="235.6" r="4.7"/>
	<circle class="st0" cx="243.1" cy="261.9" r="4.7"/>
	<circle class="st0" cx="243.1" cy="264.7" r="4.7"/>
	<circle class="st0" cx="219.6" cy="224.3" r="4.7"/>
	<circle class="st0" cx="219.6" cy="253.4" r="4.7"/>
	<circle class="st0" cx="229" cy="233.7" r="4.7"/>
	<circle class="st0" cx="229" cy="260" r="4.7"/>
	<circle class="st0" cx="229" cy="262.8" r="4.7"/>
	<circle class="st0" cx="233.7" cy="221.5" r="4.7"/>
	<circle class="st0" cx="233.7" cy="250.6" r="4.7"/>
	<circle class="st0" cx="223.4" cy="216.8" r="4.7"/>
	<circle class="st0" cx="223.4" cy="245.9" r="4.7"/>
	<circle class="st0" cx="223.4" cy="272.2" r="4.7"/>
	<circle class="st0" cx="214.9" cy="230.9" r="4.7"/>
	<circle class="st0" cx="214.9" cy="257.2" r="4.7"/>
	<circle class="st0" cx="214.9" cy="260" r="4.7"/>
	<circle class="st0" cx="196.2" cy="226.2" r="4.7"/>
	<circle class="st0" cx="146.4" cy="221.5" r="4.7"/>
	<circle class="st0" cx="97.7" cy="226.2" r="4.7"/>
	<circle class="st0" cx="47" cy="212.1" r="4.7"/>
	<circle class="st0" cx="181.2" cy="219.7" r="4.7"/>
	<circle class="st0" cx="131.4" cy="215" r="4.7"/>
	<circle class="st0" cx="82.6" cy="219.7" r="4.7"/>
	<circle class="st0" cx="196.2" cy="255.3" r="4.7"/>
	<circle class="st0" cx="146.4" cy="250.6" r="4.7"/>
	<circle class="st0" cx="125.8" cy="261.9" r="4.7"/>
	<circle class="st0" cx="97.7" cy="255.3" r="4.7"/>
	<circle class="st0" cx="94.8" cy="267.5" r="4.7"/>
	<circle class="st0" cx="108" cy="281.6" r="4.7"/>
	<circle class="st0" cx="84.5" cy="268.4" r="4.7"/>
	<circle class="st0" cx="207.4" cy="235.6" r="4.7"/>
	<circle class="st0" cx="157.7" cy="230.9" r="4.7"/>
	<circle class="st0" cx="108.9" cy="235.6" r="4.7"/>
	<circle class="st0" cx="58.3" cy="221.5" r="4.7"/>
	<circle class="st0" cx="191.5" cy="235.6" r="4.7"/>
	<circle class="st0" cx="141.8" cy="230.9" r="4.7"/>
	<circle class="st0" cx="93" cy="235.6" r="4.7"/>
	<circle class="st0" cx="176.5" cy="229" r="4.7"/>
	<circle class="st0" cx="126.7" cy="224.3" r="4.7"/>
	<circle class="st0" cx="78" cy="229" r="4.7"/>
	<circle class="st0" cx="347.2" cy="235.6" r="4.7"/>
	<circle class="st0" cx="347.2" cy="261.9" r="4.7"/>
	<circle class="st0" cx="347.2" cy="264.7" r="4.7"/>
	<circle class="st0" cx="347.2" cy="291" r="4.7"/>
	<circle class="st0" cx="365" cy="233.7" r="4.7"/>
	<circle class="st0" cx="365" cy="260" r="4.7"/>
	<circle class="st0" cx="365" cy="262.8" r="4.7"/>
	<circle class="st0" cx="365" cy="289.1" r="4.7"/>
	<circle class="st0" cx="363.2" cy="219.7" r="4.7"/>
	<circle class="st0" cx="363.2" cy="248.7" r="4.7"/>
	<circle class="st0" cx="363.2" cy="275" r="4.7"/>
	<circle class="st0" cx="367.8" cy="205.6" r="4.7"/>
	<circle class="st0" cx="396.9" cy="205.6" r="4.7"/>
	<circle class="st0" cx="371.6" cy="191.5" r="4.7"/>
	<circle class="st0" cx="400.7" cy="191.5" r="4.7"/>
	<circle class="st0" cx="387.5" cy="200.9" r="4.7"/>
	<circle class="st0" cx="416.6" cy="200.9" r="4.7"/>
	<circle class="st0" cx="397.9" cy="196.2" r="4.7"/>
	<circle class="st0" cx="427" cy="196.2" r="4.7"/>
	<circle class="st0" cx="377.2" cy="209.3" r="4.7"/>
	<circle class="st0" cx="377.2" cy="238.4" r="4.7"/>
	<circle class="st0" cx="377.2" cy="264.7" r="4.7"/>
	<circle class="st0" cx="406.3" cy="209.3" r="4.7"/>
	<circle class="st0" cx="406.3" cy="238.4" r="4.7"/>
	<circle class="st0" cx="406.3" cy="264.7" r="4.7"/>
	<circle class="st0" cx="387.5" cy="221.5" r="4.7"/>
	<circle class="st0" cx="387.5" cy="250.6" r="4.7"/>
	<circle class="st0" cx="387.5" cy="276.9" r="4.7"/>
	<circle class="st0" cx="416.6" cy="221.5" r="4.7"/>
	<circle class="st0" cx="416.6" cy="250.6" r="4.7"/>
	<circle class="st0" cx="416.6" cy="276.9" r="4.7"/>
	<circle class="st0" cx="392.2" cy="235.6" r="4.7"/>
	<circle class="st0" cx="392.2" cy="261.9" r="4.7"/>
	<circle class="st0" cx="392.2" cy="264.7" r="4.7"/>
	<circle class="st0" cx="421.3" cy="235.6" r="4.7"/>
	<circle class="st0" cx="421.3" cy="261.9" r="4.7"/>
	<circle class="st0" cx="421.3" cy="264.7" r="4.7"/>
	<circle class="st0" cx="402.6" cy="237.5" r="4.7"/>
	<circle class="st0" cx="402.6" cy="263.7" r="4.7"/>
	<circle class="st0" cx="402.6" cy="266.6" r="4.7"/>
	<circle class="st0" cx="431.6" cy="237.5" r="4.7"/>
	<circle class="st0" cx="431.6" cy="263.7" r="4.7"/>
	<circle class="st0" cx="399.7" cy="222.5" r="4.7"/>
	<circle class="st0" cx="399.7" cy="251.6" r="4.7"/>
	<circle class="st0" cx="399.7" cy="277.8" r="4.7"/>
	<circle class="st0" cx="428.8" cy="222.5" r="4.7"/>
	<circle class="st0" cx="428.8" cy="251.6" r="4.7"/>
	<circle class="st0" cx="402.6" cy="210.3" r="4.7"/>
	<circle class="st0" cx="402.6" cy="239.4" r="4.7"/>
	<circle class="st0" cx="402.6" cy="265.6" r="4.7"/>
	<circle class="st0" cx="431.6" cy="210.3" r="4.7"/>
	<circle class="st0" cx="431.6" cy="239.4" r="4.7"/>
	<circle class="st0" cx="393.2" cy="212.1" r="4.7"/>
	<circle class="st0" cx="393.2" cy="241.2" r="4.7"/>
	<circle class="st0" cx="393.2" cy="267.5" r="4.7"/>
	<circle class="st0" cx="422.3" cy="212.1" r="4.7"/>
	<circle class="st0" cx="422.3" cy="241.2" r="4.7"/>
	<circle class="st0" cx="422.3" cy="267.5" r="4.7"/>
	<circle class="st0" cx="381" cy="237.5" r="4.7"/>
	<circle class="st0" cx="381" cy="263.7" r="4.7"/>
	<circle class="st0" cx="381" cy="266.6" r="4.7"/>
	<circle class="st0" cx="410.1" cy="237.5" r="4.7"/>
	<circle class="st0" cx="410.1" cy="263.7" r="4.7"/>
	<circle class="st0" cx="410.1" cy="266.6" r="4.7"/>
	<circle class="st0" cx="376.3" cy="216.8" r="4.7"/>
	<circle class="st0" cx="376.3" cy="245.9" r="4.7"/>
	<circle class="st0" cx="376.3" cy="272.2" r="4.7"/>
	<circle class="st0" cx="405.4" cy="216.8" r="4.7"/>
	<circle class="st0" cx="405.4" cy="245.9" r="4.7"/>
	<circle class="st0" cx="405.4" cy="272.2" r="4.7"/>
	<circle class="st0" cx="374.4" cy="226.2" r="4.7"/>
	<circle class="st0" cx="374.4" cy="255.3" r="4.7"/>
	<circle class="st0" cx="374.4" cy="281.6" r="4.7"/>
	<circle class="st0" cx="403.5" cy="226.2" r="4.7"/>
	<circle class="st0" cx="403.5" cy="255.3" r="4.7"/>
	<circle class="st0" cx="403.5" cy="281.6" r="4.7"/>
	<circle class="st0" cx="356.6" cy="233.7" r="4.7"/>
	<circle class="st0" cx="356.6" cy="260" r="4.7"/>
	<circle class="st0" cx="356.6" cy="262.8" r="4.7"/>
	<circle class="st0" cx="356.6" cy="289.1" r="4.7"/>
</g>
<g>
	<circle class="st1" cx="395.1" cy="139" r="4.7"/>
	<circle class="st1" cx="395.1" cy="123" r="4.7"/>
	<circle class="st1" cx="164.3" cy="160.6" r="4.7"/>
	<circle class="st1" cx="154.9" cy="159.6" r="4.7"/>
	<circle class="st1" cx="214" cy="154.9" r="4.7"/>
	<circle class="st1" cx="202.7" cy="152.1" r="4.7"/>
	<circle class="st1" cx="153" cy="147.4" r="4.7"/>
	<circle class="st1" cx="223.4" cy="153" r="4.7"/>
	<circle class="st1" cx="228.1" cy="139" r="4.7"/>
	<circle class="st1" cx="228.1" cy="123" r="4.7"/>
	<circle class="st1" cx="214" cy="141.8" r="4.7"/>
	<circle class="st1" cx="214" cy="125.8" r="4.7"/>
	<circle class="st1" cx="237.4" cy="157.7" r="4.7"/>
	<circle class="st1" cx="228.1" cy="157.7" r="4.7"/>
	<circle class="st1" cx="233.7" cy="147.4" r="4.7"/>
	<circle class="st1" cx="233.7" cy="131.5" r="4.7"/>
	<circle class="st1" cx="248.7" cy="157.7" r="4.7"/>
	<circle class="st1" cx="244" cy="148.4" r="4.7"/>
	<circle class="st1" cx="244" cy="132.4" r="4.7"/>
	<circle class="st1" cx="244" cy="137.1" r="4.7"/>
	<circle class="st1" cx="244" cy="121.1" r="4.7"/>
	<ellipse transform="matrix(0.1602 -0.9871 0.9871 0.1602 60.7664 390.6463)" class="st1" cx="260" cy="159.6" rx="4.7" ry="4.7"/>
	<circle class="st1" cx="191.5" cy="154.9" r="4.7"/>
	<circle class="st1" cx="141.7" cy="150.2" r="4.7"/>
	<circle class="st1" cx="198" cy="140.8" r="4.7"/>
	<circle class="st1" cx="148.3" cy="136.2" r="4.7"/>
	<circle class="st1" cx="198" cy="124.9" r="4.7"/>
	<circle class="st1" cx="148.3" cy="120.2" r="4.7"/>
	<circle class="st1" cx="177.4" cy="157.7" r="4.7"/>
	<circle class="st1" cx="127.7" cy="153" r="4.7"/>
	<circle class="st1" cx="162.4" cy="151.2" r="4.7"/>
	<circle class="st1" cx="162.4" cy="135.2" r="4.7"/>
	<circle class="st1" cx="179.3" cy="140.8" r="4.7"/>
	<circle class="st1" cx="129.6" cy="136.2" r="4.7"/>
	<circle class="st1" cx="179.3" cy="124.9" r="4.7"/>
	<circle class="st1" cx="132.4" cy="120.2" r="4.7"/>
	<circle class="st1" cx="164.3" cy="134.3" r="4.7"/>
	<circle class="st1" cx="164.3" cy="118.3" r="4.7"/>
	<circle class="st1" cx="390.4" cy="148.4" r="4.7"/>
	<circle class="st1" cx="390.4" cy="132.4" r="4.7"/>
	<circle class="st1" cx="381" cy="139" r="4.7"/>
	<circle class="st1" cx="381" cy="123" r="4.7"/>
	<circle class="st1" cx="410.1" cy="139" r="4.7"/>
	<circle class="st1" cx="381" cy="148.4" r="4.7"/>
	<circle class="st1" cx="381" cy="132.4" r="4.7"/>
	<circle class="st1" cx="410.1" cy="148.4" r="4.7"/>
	<circle class="st1" cx="410.1" cy="132.4" r="4.7"/>
	<circle class="st1" cx="366.9" cy="153" r="4.7"/>
	<circle class="st1" cx="396" cy="153" r="4.7"/>
	<circle class="st1" cx="379.1" cy="159.6" r="4.7"/>
	<circle class="st1" cx="408.2" cy="159.6" r="4.7"/>
	<circle class="st1" cx="357.5" cy="139" r="4.7"/>
	<circle class="st1" cx="357.5" cy="123" r="4.7"/>
	<circle class="st1" cx="355.7" cy="150.2" r="4.7"/>
	<circle class="st1" cx="355.7" cy="134.3" r="4.7"/>
	<circle class="st1" cx="341.6" cy="140.8" r="4.7"/>
	<circle class="st1" cx="341.6" cy="124.9" r="4.7"/>
	<circle class="st1" cx="341.6" cy="150.2" r="4.7"/>
	<circle class="st1" cx="341.6" cy="134.3" r="4.7"/>
	<circle class="st1" cx="330.3" cy="153" r="4.7"/>
	<circle class="st1" cx="330.3" cy="139" r="4.7"/>
	<circle class="st1" cx="330.3" cy="123" r="4.7"/>
	<circle class="st1" cx="320.9" cy="148.4" r="4.7"/>
	<circle class="st1" cx="320.9" cy="132.4" r="4.7"/>
	<circle class="st1" cx="316.2" cy="139" r="4.7"/>
	<circle class="st1" cx="316.2" cy="123" r="4.7"/>
	<circle class="st1" cx="311.6" cy="150.2" r="4.7"/>
	<circle class="st1" cx="311.6" cy="134.3" r="4.7"/>
	<circle class="st1" cx="325.6" cy="154.9" r="4.7"/>
	<circle class="st1" cx="297.5" cy="159.6" r="4.7"/>
	<circle class="st1" cx="306.9" cy="159.6" r="4.7"/>
	<circle class="st1" cx="292.8" cy="150.2" r="4.7"/>
	<circle class="st1" cx="292.8" cy="134.3" r="4.7"/>
	<circle class="st1" cx="286.2" cy="159.6" r="4.7"/>
	<ellipse transform="matrix(0.1602 -0.9871 0.9871 0.1602 67.664 379.9895)" class="st1" cx="257.1" cy="150.2" rx="4.7" ry="4.7"/>

		<ellipse transform="matrix(0.1602 -0.9871 0.9871 0.1602 83.4061 366.5961)" class="st1" cx="257.1" cy="134.3" rx="4.7" ry="4.7"/>
	<ellipse transform="matrix(0.1602 -0.9871 0.9871 0.1602 77.2003 368.682)" class="st1" cx="255.3" cy="139" rx="4.7" ry="4.7"/>
	<circle class="st1" cx="255.3" cy="123" r="4.7"/>
	<circle class="st1" cx="278.7" cy="150.2" r="4.7"/>
	<circle class="st1" cx="278.7" cy="134.3" r="4.7"/>
	<circle class="st1" cx="269.3" cy="140.8" r="4.7"/>
	<circle class="st1" cx="269.3" cy="124.9" r="4.7"/>
	<circle class="st1" cx="264.6" cy="153" r="4.7"/>
	<circle class="st1" cx="275" cy="157.7" r="4.7"/>
	<circle class="st1" cx="283.4" cy="143.7" r="4.7"/>
	<circle class="st1" cx="283.4" cy="127.7" r="4.7"/>
	<circle class="st1" cx="302.2" cy="148.4" r="4.7"/>
	<circle class="st1" cx="302.2" cy="132.4" r="4.7"/>
	<circle class="st1" cx="290.9" cy="139" r="4.7"/>
	<circle class="st1" cx="290.9" cy="123" r="4.7"/>
	<circle class="st1" cx="306.9" cy="139" r="4.7"/>
	<circle class="st1" cx="306.9" cy="123" r="4.7"/>
	<circle class="st1" cx="357.5" cy="159.6" r="4.7"/>
	<circle class="st1" cx="384.7" cy="153" r="4.7"/>
	<circle class="st1" cx="413.8" cy="153" r="4.7"/>
	<circle class="st1" cx="348.1" cy="143.7" r="4.7"/>
	<circle class="st1" cx="348.1" cy="127.7" r="4.7"/>
	<circle class="st1" cx="371.6" cy="139" r="4.7"/>
	<circle class="st1" cx="371.6" cy="123" r="4.7"/>
	<circle class="st1" cx="400.7" cy="139" r="4.7"/>
	<circle class="st1" cx="400.7" cy="123" r="4.7"/>
</g>
<g>
	<circle class="st0" cx="184.9" cy="198.1" r="4.7"/>
	<circle class="st0" cx="135.2" cy="193.4" r="4.7"/>
	<circle class="st0" cx="86.4" cy="198.1" r="4.7"/>
	<circle class="st0" cx="35.7" cy="184" r="4.7"/>
	<circle class="st0" cx="169.9" cy="191.5" r="4.7"/>
	<circle class="st0" cx="120.2" cy="186.8" r="4.7"/>
	<circle class="st0" cx="71.4" cy="191.5" r="4.7"/>
	<circle class="st0" cx="20.7" cy="177.4" r="4.7"/>
	<circle class="st0" cx="179.3" cy="167.1" r="4.7"/>
	<circle class="st0" cx="129.6" cy="162.4" r="4.7"/>
	<circle class="st0" cx="179.3" cy="183.1" r="4.7"/>
	<circle class="st0" cx="129.6" cy="178.4" r="4.7"/>
	<circle class="st0" cx="80.8" cy="183.1" r="4.7"/>
	<circle class="st0" cx="164.3" cy="176.5" r="4.7"/>
	<circle class="st0" cx="76.1" cy="269.4" r="4.7"/>
	<circle class="st0" cx="200.9" cy="196.2" r="4.7"/>
	<circle class="st0" cx="151.1" cy="191.5" r="4.7"/>
	<circle class="st0" cx="102.3" cy="196.2" r="4.7"/>
	<circle class="st0" cx="51.7" cy="182.1" r="4.7"/>
	<circle class="st0" cx="193.3" cy="167.1" r="4.7"/>
	<circle class="st0" cx="143.6" cy="162.4" r="4.7"/>
	<circle class="st0" cx="193.3" cy="183.1" r="4.7"/>
	<circle class="st0" cx="143.6" cy="178.4" r="4.7"/>
	<circle class="st0" cx="145.5" cy="242.2" r="4.7"/>
	<circle class="st0" cx="204.6" cy="164.3" r="4.7"/>
	<circle class="st0" cx="204.6" cy="180.3" r="4.7"/>
	<circle class="st0" cx="154.9" cy="175.6" r="4.7"/>
	<circle class="st0" cx="177.4" cy="191.5" r="4.7"/>
	<circle class="st0" cx="212.1" cy="198.1" r="4.7"/>
	<circle class="st0" cx="214" cy="169" r="4.7"/>
	<circle class="st0" cx="214" cy="184.9" r="4.7"/>
	<circle class="st0" cx="226.2" cy="198.1" r="4.7"/>
	<circle class="st0" cx="223.4" cy="167.1" r="4.7"/>
	<circle class="st0" cx="223.4" cy="183.1" r="4.7"/>
	<circle class="st0" cx="209.3" cy="162.4" r="4.7"/>
	<circle class="st0" cx="209.3" cy="178.4" r="4.7"/>
	<circle class="st0" cx="242.1" cy="167.1" r="4.7"/>
	<circle class="st0" cx="242.1" cy="183.1" r="4.7"/>

		<ellipse transform="matrix(0.1602 -0.9871 0.9871 0.1602 50.2073 393.2456)" class="st0" cx="256.2" cy="167.1" rx="4.7" ry="4.7"/>

		<ellipse transform="matrix(0.1602 -0.9871 0.9871 0.1602 34.4642 406.6398)" class="st0" cx="256.2" cy="183.1" rx="4.7" ry="4.7"/>
	<circle class="st0" cx="273.1" cy="196.2" r="4.7"/>
	<circle class="st0" cx="270.3" cy="164.3" r="4.7"/>
	<circle class="st0" cx="270.3" cy="180.3" r="4.7"/>
	<ellipse transform="matrix(0.1602 -0.9871 0.9871 0.1602 45.0242 404.0416)" class="st0" cx="260" cy="175.6" rx="4.7" ry="4.7"/>
	<ellipse transform="matrix(0.1602 -0.9871 0.9871 0.1602 26.6416 418.0854)" class="st0" cx="259" cy="193.4" rx="4.7" ry="4.7"/>
	<circle class="st0" cx="232.8" cy="169" r="4.7"/>
	<circle class="st0" cx="232.8" cy="184.9" r="4.7"/>
	<circle class="st0" cx="251.5" cy="198.1" r="4.7"/>
	<circle class="st0" cx="235.6" cy="198.1" r="4.7"/>
	<circle class="st0" cx="194.3" cy="193.4" r="4.7"/>
	<circle class="st0" cx="144.6" cy="188.7" r="4.7"/>
	<circle class="st0" cx="95.8" cy="193.4" r="4.7"/>
	<circle class="st0" cx="109.9" cy="263.7" r="4.7"/>
	<circle class="st0" cx="171.8" cy="167.1" r="4.7"/>
	<circle class="st0" cx="171.8" cy="183.1" r="4.7"/>
	<circle class="st0" cx="89.2" cy="280.6" r="4.7"/>
	<circle class="st0" cx="379.1" cy="175.6" r="4.7"/>
	<circle class="st0" cx="408.2" cy="175.6" r="4.7"/>
	<circle class="st0" cx="320.9" cy="162.4" r="4.7"/>
	<circle class="st0" cx="320.9" cy="178.4" r="4.7"/>
	<circle class="st0" cx="332.2" cy="165.2" r="4.7"/>
	<circle class="st0" cx="332.2" cy="181.2" r="4.7"/>
	<circle class="st0" cx="311.6" cy="164.3" r="4.7"/>
	<circle class="st0" cx="311.6" cy="180.3" r="4.7"/>
	<circle class="st0" cx="314.4" cy="198.1" r="4.7"/>
	<circle class="st0" cx="328.4" cy="195.3" r="4.7"/>
	<circle class="st0" cx="297.5" cy="175.6" r="4.7"/>
	<circle class="st0" cx="306.9" cy="175.6" r="4.7"/>
	<circle class="st0" cx="308.7" cy="189.6" r="4.7"/>
	<circle class="st0" cx="286.2" cy="175.6" r="4.7"/>
	<circle class="st0" cx="290.9" cy="169" r="4.7"/>
	<circle class="st0" cx="290.9" cy="184.9" r="4.7"/>
	<circle class="st0" cx="298.4" cy="200" r="4.7"/>
	<circle class="st0" cx="343.5" cy="162.4" r="4.7"/>
	<circle class="st0" cx="343.5" cy="178.4" r="4.7"/>
	<circle class="st0" cx="344.4" cy="196.2" r="4.7"/>
	<circle class="st0" cx="357.5" cy="175.6" r="4.7"/>
	<circle class="st0" cx="363.2" cy="196.2" r="4.7"/>
	<circle class="st0" cx="371.6" cy="162.4" r="4.7"/>
	<circle class="st0" cx="371.6" cy="178.4" r="4.7"/>
	<circle class="st0" cx="400.7" cy="162.4" r="4.7"/>
	<circle class="st0" cx="400.7" cy="178.4" r="4.7"/>
	<circle class="st0" cx="376.3" cy="198.1" r="4.7"/>
	<circle class="st0" cx="405.4" cy="198.1" r="4.7"/>
	<circle class="st0" cx="392.2" cy="191.5" r="4.7"/>
	<circle class="st0" cx="421.3" cy="191.5" r="4.7"/>
	<circle class="st0" cx="392.2" cy="164.3" r="4.7"/>
	<circle class="st0" cx="392.2" cy="180.3" r="4.7"/>
</g>
<path class="st2" d="M407.5,121.3c-1-0.5-2.7-0.6-3.8-1.3c-1.5-1-3.4-1.5-6.3-2.4c-2.9-1-5.1-2.9-7.7-4.6c-2.7-1.7-3.9-3.4-6-3.9
	c-2.2-0.5-2.9,2.2-5.1,3.4s-2.7,0.5-4.6-0.5s-2.9-2.9-5.3-1.9c-2.4,1-4.4,3.2-5.3,3.2c-1,0-2.7-1.2-4.6-0.5
	c-1.9,0.7-2.9,0.2-4.6,1.9s-1.9,1.7-4.6,2.4c-2.7,0.7-1,2.4-2.4,2.4c-1.5,0-1.9-1.5-3.4-2.4s-4.4-3.6-5.8-4.6s-3.6,0.2-5.8-0.2
	s-2.9-1.9-5.6-2.4c-2.7-0.5-1.2,1.5-2.4,2.9c-1.2,1.5-1.5,2.2-1.9,3.4c-0.5,1.2-0.7,1.9-2.4,1.9s-0.7-5.1-2.9-5.3s-2.4,1.2-3.6,1.9
	s-1.9-0.5-3.6-1.9s-2.2,0-2.7-1.5s-2.4-1.9-4.4-1.5c-1.9,0.5-2.9,2.7-4.4,3.9s-3.9-1-3.9-2.2s0.7-2.9-1.5-3.6s-2.2-2.4-2.2-3.6
	c0-1.2-1-1.7-3.4-1.9s-2.7,0-5.1,0.5s-1.5,0.5-4.1,1.7s-2.2-1.9-3.4-2.7s-4.4,0-6.5,0c-2.2,0-5.1-2.9-6.3-3.1s-3.9,0.5-6.5,0.5
	s-1-1-1.2-4.4c-0.2-3.4-0.2-2.7-3.6-5.1c-3.4-2.4-1.7-0.2-3.1,0.7s-1.2,0.2-3.1-0.5s-2.7,1-4.1,1.5s-2.7-2.2-4.1-4.4
	s-6.8-3.4-7.5-5.3c-0.7-1.8,0.5-8.1,0.7-8.8c0,0,0-0.1,0-0.1l1.7-59.2c0-6.8-5.1-6.8-5.1-6.8L136.6,2c-0.4,0-0.8,0.3-0.9,0.7
	l-3.9,60.8c0,11-7.6,113.4-11,116.8S5.1,170.1,2.5,171.8c-1.2,0.8-0.1,4.2,1.5,7.5c0.1,0.2,0.3,0.4,0.6,0.5c2,0.3,3.3,0.6,3.6,0.9
	c2.3,1.7,6.6,6.1,8,9.9s4.9,5.3,8.5,8.2s6.8,7.2,9.1,9.9s2.3,5.7,4.7,8s3.8,3,5.9,4.2s5.5,3.8,7,4.9c1.5,1.1,2.5,2.3,3.2,4
	c0.6,1.7,2.5,3,3.2,4.9c0.6,1.9,0.8,1.5,1.9,4.4s3.4,7,3.4,9.9s-0.6,4.2,0,6.8s3.8,10.8,4.9,12.9c1.1,2.1,1.7,4.2,3.8,5.3
	s5.1,3.4,7.6,6.1c2.5,2.8,5.7,4.9,8.9,5.5c3.2,0.6,3.2,1.1,4.6,2.8c1.5,1.7,4.2,1.7,6.1,3.4s2.8,3.8,4.4,4.9s4,2.5,6.3,2.5
	c2.3,0,6.1-3.2,8-4.9c1.9-1.7,4.2-5.1,4.9-6.1s1.7-4.7,3.4-7.6s2.5-6.3,5.5-8.5c3-2.1,6.6-1.3,8.2-2.5s3.2-3.6,5.5-3.2
	s4.2,3,7.2,3.2c3,0.2,6.8-1.1,8.9,0.2c2.1,1.3,4.2,2.1,6.3,1.1s3.6-1.9,6.1,1.7s4.2,6.1,6.6,8c2.3,1.9,5.7,3.8,6.8,5.5
	s3.8,3.8,5.1,4.9c1.3,1.1,7,8.2,8.2,13.3s4.2,10.4,5.1,12.3s2.1,2.7,2.7,5.9s1.5,7.4,4,10.6s4.9,2.8,5.9,4.4s1.3,4.9,3,6.6
	s3.6,4.2,5.1,7.4s2.7,5.1,5.3,5.5c2.5,0.4,5.3,1.3,5.5,3.6s-0.6,3.8,0.4,5.7s1.1,3,0.4,4.4s0.6,3.4,0.8,4.9s-1.1,2.8,0.2,5.3
	s3.2,5.1,4.2,6.6s3.8,5.1,4,7.2c0.2,2.1,0,4.2,1.3,6.6s0,3.8,1.5,4.9s4.9,0.4,7.6,1.5c2.7,1.1,4.6,3.4,6.8,4.7
	c2.1,1.3,4.2,1.5,6.6,1.5s3.8,1.7,5.7,3.4s3.4,3.2,7,3.2s8-0.6,12.7,0.2s5.9,2.3,8.5,4.4c2.5,2.1,5.7,6.1,7.4,4.2s2.5-2.8,4.4-3.4
	s3.2-2.8,1.7-2.5s-3.8,0.6-3.6-1.1c0.2-1.7,1.5-2.1,0.6-3.6c-0.8-1.5-4.2-8.9-5.1-11.9s-1.9-6.8-1.9-9.9s0-3.2-1.3-4.9
	s-1.7-2.8-0.8-3c0.8-0.2,0.2,0.6-0.4-2.1c-0.6-2.8,1.1-1.9,1.9-3.6s1.1-1.5,1.3-3.2c0.2-1.7,0.4-2.5,0.4-4.2c0-3-4-1.3-8.6-0.9
	c-0.4,0-0.8-0.3-0.9-0.7c-0.4-3.2,1-2.2-0.5-4.9c-1.3-2.3,0.4-2.1,1.7-0.6c1.3,1.5,1.3,2.5,2.7,2.1s4.2-2.1,4-0.2
	c-0.2,1.9-0.6,2.8,1.1,1.7s2.1-0.6,3.2-3s1.9-7.2,2.5-9.9s-0.4-1.7-1.5-3.6c-1.1-1.9-2.3-3-3.2-3.8s-2.5-1.5,0.6-1.9
	s4.6-1.1,5.5,0.2c0.9,1.3,1.1,3,1.9,1.5s3.6-3.8,5.1-6.6c1.5-2.7,3.4-4.4,1.9-4.4s-2.3,0.4-3.2,1.7c-1,1.6-1.1,4.1-2.6,0
	c0-0.1-0.1-0.2-0.1-0.4c0.2-3.8,0.3-3,2.5-3.5c1.7-0.4,1.7-0.2,3.2,0s2.7-0.6,3.2,0.8s-1.5,3.2-2.1,4.9c-0.6,1.7-0.8,2.7-0.4,3.4
	c0.4,0.6,1.9-1.3,3.4-3.2s2.3-2.5,2.1-4.2s-2.3-2.3-0.8-3c1.5-0.6,1.9,0.6,2.1,1.9s0.6,1.7,3-0.4s5.5-3.8,7-4.4s4-0.4,4-2.1
	c0-1.7,0.8-4-0.2-3.6s-1.7,1.9-2.7,2.8s-3.8,1.5-4.9,2.3s-2.3,2.5-3.6,2.5c-1.3,0-1.9,1.1-1.9-0.8s-0.2-3-0.6-4.7s-1.1-3.4,0-3.6
	c1.1-0.2,2.3,3,3.8,3.8c1.5,0.8,1.5,1.3,4.2-0.2c2.8-1.5,5.5-1.9,5.5-3.2s-2.7-3-4.2-2.7c-1.5,0.2,0-1.3-1.3-2.8s-2.3-3-1.7-4.2
	s0.8,0.4,2.7,2.1c1.9,1.7,1.9,2.3,3.4,1.7s3,0.2,1.9-2.3s-2.3-4.4-0.8-3.2s1.1,3.2,2.5,3.2s2.1-0.2,3-0.8s0.8,1.1,2.3,1.7
	s2.3,0.4,3.4,0.2s2.3,0,1.1,1.3s-3.6,2.1-4,3s3.8-0.6,5.9-1.9c2.1-1.3,5.5-2.7,6.6-3.6s-3.2,0.2-2.1-1.5c1.1-1.7,1.7-2.1,3.4-2.1
	s3.4,0.8,6.6-1.3l6.5-4.4c1.9-1.3,4.4-2.1,5.5-4s2.3-2.1,2.3-4.2s-1.1-2.5,0.4-3c1.5-0.4,2.7-1.1,4-3c1.3-1.9,1.5-2.3,2.7-3
	s1.9-0.6,1.9-2.3c0-1.7-1.5-0.4-1.9-2.5s-0.8-3.4-1.7-4.2c-0.8-0.8-0.6-1.9-0.6-3.4s-2.1-3.2-0.2-3.4s3.2,2.7,4.2,1.3s2.7-3.8,4-4
	c1.3-0.2,3,1.1,2.3,3.4c-0.6,2.3-3.6,5.1-2.5,5.7s2.5,0.8,3.8,0.2s3.4-1.1,2.3,0.2s-2.7,3.2-4.2,4.4s-1.9,1.3-2.5,3
	c-0.6,1.7-2.5,5.5,1.5,0.8c4-4.7,7-7,9.1-7.6s8.5-4.4,11.4-5.7s4-1.3,6.6-1.3c2.3,0,3.1,0.1,4.2-0.8c-0.7-0.8-1.3-1.6-1.6-2.2
	c-1-1.9-0.7-2.7,0.5-4.1c1.2-1.5,1.5-4.1,3.9-7s1-2.2,1.5-4.6c0.5-2.4-1.2-6.1-2.4-8.5c-1.2-2.4,0.5-1.2,1.9-2.9s0-1-0.7-4.4
	s0.5-1.5,1.2-3.4s2.4-3.9,2.7-4.6s0.2-1,1-2.4c0.7-1.5,0.2-0.7,0.5-2.2s0-0.7,0-2.2s0,0-0.5-2.7s0-1,0.7-2.4c0.7-1.5,0-2.4,0-3.9
	s0-2.7-2.2-3.9s-2.7-4.1-2.7-5.3s-1.2-2.9-3.4-5.1s-1.9-4.6-1.9-7.5s-2.9-7.8-4.6-8.7c-1.7-1-3.4-4.8-3.9-7.5
	c-0.5-2.7-1.2-55.7-2.2-56.7s-2.9-0.7-5.1-1c-2.2-0.2-2.9,0.5-4.6,1s-2.2-1.2-2.9-2.4C408.1,121.7,407.8,121.5,407.5,121.3"/>
</svg>
