<svg xmlns="http://www.w3.org/2000/svg" viewBox="0 0 288 151">
  <g fill="none" fill-rule="evenodd">
    <g opacity=".2" fill="#D5E5FF">
      <path d="M56.784 104.147H66.88c.066 0 .119.056.119.125v13.603a.122.122 0 01-.12.125H36.12a.122.122 0 01-.12-.125v-13.46c0-.069.053-.125.12-.125h10.246c.066 0 .12-.055.12-.124v-1.338c0-.038.016-.073.044-.097l4.592-3.884a.128.128 0 00.044-.097V92.8c0-.062.042-.114.1-.124l3.919-.674c.072-.013.138.046.138.123v2.88c0 .06-.04.11-.094.122l-3.242.728a.123.123 0 00-.094.122v2.668c0 .037.016.072.044.096l4.676 4.037a.127.127 0 01.043.095l.009 1.15c0 .068.053.124.119.124zM56.784 74.147H66.88c.066 0 .119.056.119.125v13.603a.122.122 0 01-.12.125H36.12a.122.122 0 01-.12-.125v-13.46c0-.069.053-.125.12-.125h10.246c.066 0 .12-.055.12-.124v-1.338c0-.038.016-.073.044-.097l4.592-3.884a.128.128 0 00.044-.097V62.8c0-.062.042-.114.1-.124l3.919-.674c.072-.013.138.046.138.123v2.88c0 .06-.04.11-.094.122l-3.242.728a.123.123 0 00-.094.122v2.668c0 .037.016.072.044.096l4.676 4.037a.127.127 0 01.043.095l.009 1.15c0 .068.053.124.119.124zM56.784 43.147H66.88c.066 0 .119.056.119.125v13.603a.122.122 0 01-.12.125H36.12a.122.122 0 01-.12-.125v-13.46c0-.069.053-.125.12-.125h10.246c.066 0 .12-.055.12-.124v-1.338c0-.038.016-.073.044-.097l4.592-3.884a.128.128 0 00.044-.097V31.8c0-.062.042-.114.1-.124l3.919-.674c.072-.013.138.046.138.123v2.88c0 .06-.04.11-.094.122l-3.242.728a.123.123 0 00-.094.122v2.668c0 .037.016.072.044.096l4.676 4.037a.127.127 0 01.043.095l.009 1.15c0 .068.053.124.119.124zM166.784 104.147h10.097c.066 0 .119.056.119.125v13.603a.122.122 0 01-.12.125h-30.76a.122.122 0 01-.12-.125v-13.46c0-.069.053-.125.12-.125h10.246c.066 0 .12-.055.12-.124v-1.338c0-.038.016-.073.044-.097l4.592-3.884a.128.128 0 00.044-.097V92.8c0-.062.042-.114.1-.124l3.919-.674c.072-.013.138.046.138.123v2.88c0 .06-.04.11-.094.122l-3.242.728a.123.123 0 00-.094.122v2.668c0 .037.016.072.044.096l4.676 4.037a.127.127 0 01.043.095l.009 1.15c0 .068.053.124.119.124zM166.784 74.147h10.097c.066 0 .119.056.119.125v13.603a.122.122 0 01-.12.125h-30.76a.122.122 0 01-.12-.125v-13.46c0-.069.053-.125.12-.125h10.246c.066 0 .12-.055.12-.124v-1.338c0-.038.016-.073.044-.097l4.592-3.884a.128.128 0 00.044-.097V62.8c0-.062.042-.114.1-.124l3.919-.674c.072-.013.138.046.138.123v2.88c0 .06-.04.11-.094.122l-3.242.728a.123.123 0 00-.094.122v2.668c0 .037.016.072.044.096l4.676 4.037a.127.127 0 01.043.095l.009 1.15c0 .068.053.124.119.124zM166.784 43.147h10.097c.066 0 .119.056.119.125v13.603a.122.122 0 01-.12.125h-30.76a.122.122 0 01-.12-.125v-13.46c0-.069.053-.125.12-.125h10.246c.066 0 .12-.055.12-.124v-1.338c0-.038.016-.073.044-.097l4.592-3.884a.128.128 0 00.044-.097V31.8c0-.062.042-.114.1-.124l3.919-.674c.072-.013.138.046.138.123v2.88c0 .06-.04.11-.094.122l-3.242.728a.123.123 0 00-.094.122v2.668c0 .037.016.072.044.096l4.676 4.037a.127.127 0 01.043.095l.009 1.15c0 .068.053.124.119.124zM166.784 12.147h10.097c.066 0 .119.056.119.125v13.603a.122.122 0 01-.12.125h-30.76a.122.122 0 01-.12-.125v-13.46c0-.069.053-.125.12-.125h10.246c.066 0 .12-.055.12-.124v-1.338c0-.038.016-.073.044-.097l4.592-3.884a.128.128 0 00.044-.097V.8c0-.062.042-.114.1-.124l3.919-.674c.072-.013.138.046.138.123v2.88c0 .06-.04.11-.094.122l-3.242.728a.123.123 0 00-.094.122v2.668c0 .037.016.072.044.096l4.676 4.037a.127.127 0 01.043.095l.009 1.15c0 .068.053.124.119.124zM93.784 104.147h10.097c.066 0 .119.056.119.125v13.603a.122.122 0 01-.12.125H73.12a.122.122 0 01-.12-.125v-13.46c0-.069.053-.125.12-.125h10.246c.066 0 .12-.055.12-.124v-1.338c0-.038.016-.073.044-.097l4.592-3.884a.128.128 0 00.044-.097V92.8c0-.062.042-.114.1-.124l3.919-.674c.072-.013.138.046.138.123v2.88c0 .06-.04.11-.094.122l-3.242.728a.123.123 0 00-.094.122v2.668c0 .037.016.072.044.096l4.676 4.037a.127.127 0 01.043.095l.009 1.15c0 .068.053.124.119.124zM93.784 74.147h10.097c.066 0 .119.056.119.125v13.603a.122.122 0 01-.12.125H73.12a.122.122 0 01-.12-.125v-13.46c0-.069.053-.125.12-.125h10.246c.066 0 .12-.055.12-.124v-1.338c0-.038.016-.073.044-.097l4.592-3.884a.128.128 0 00.044-.097V62.8c0-.062.042-.114.1-.124l3.919-.674c.072-.013.138.046.138.123v2.88c0 .06-.04.11-.094.122l-3.242.728a.123.123 0 00-.094.122v2.668c0 .037.016.072.044.096l4.676 4.037a.127.127 0 01.043.095l.009 1.15c0 .068.053.124.119.124zM93.784 43.147h10.097c.066 0 .119.056.119.125v13.603a.122.122 0 01-.12.125H73.12a.122.122 0 01-.12-.125v-13.46c0-.069.053-.125.12-.125h10.246c.066 0 .12-.055.12-.124v-1.338c0-.038.016-.073.044-.097l4.592-3.884a.128.128 0 00.044-.097V31.8c0-.062.042-.114.1-.124l3.919-.674c.072-.013.138.046.138.123v2.88c0 .06-.04.11-.094.122l-3.242.728a.123.123 0 00-.094.122v2.668c0 .037.016.072.044.096l4.676 4.037a.127.127 0 01.043.095l.009 1.15c0 .068.053.124.119.124zM93.784 12.147h10.097c.066 0 .119.056.119.125v13.603a.122.122 0 01-.12.125H73.12a.122.122 0 01-.12-.125v-13.46c0-.069.053-.125.12-.125h10.246c.066 0 .12-.055.12-.124v-1.338c0-.038.016-.073.044-.097l4.592-3.884a.128.128 0 00.044-.097V.8c0-.062.042-.114.1-.124l3.919-.674c.072-.013.138.046.138.123v2.88c0 .06-.04.11-.094.122l-3.242.728a.123.123 0 00-.094.122v2.668c0 .037.016.072.044.096l4.676 4.037a.127.127 0 01.043.095l.009 1.15c0 .068.053.124.119.124zM203.784 104.147h10.097c.066 0 .119.056.119.125v13.603a.122.122 0 01-.12.125h-30.76a.122.122 0 01-.12-.125v-13.46c0-.069.053-.125.12-.125h10.246c.066 0 .12-.055.12-.124v-1.338c0-.038.016-.073.044-.097l4.592-3.884a.128.128 0 00.044-.097V92.8c0-.062.042-.114.1-.124l3.919-.674c.072-.013.138.046.138.123v2.88c0 .06-.04.11-.094.122l-3.242.728a.123.123 0 00-.094.122v2.668c0 .037.016.072.044.096l4.676 4.037a.127.127 0 01.043.095l.009 1.15c0 .068.053.124.119.124zM203.784 74.147h10.097c.066 0 .119.056.119.125v13.603a.122.122 0 01-.12.125h-30.76a.122.122 0 01-.12-.125v-13.46c0-.069.053-.125.12-.125h10.246c.066 0 .12-.055.12-.124v-1.338c0-.038.016-.073.044-.097l4.592-3.884a.128.128 0 00.044-.097V62.8c0-.062.042-.114.1-.124l3.919-.674c.072-.013.138.046.138.123v2.88c0 .06-.04.11-.094.122l-3.242.728a.123.123 0 00-.094.122v2.668c0 .037.016.072.044.096l4.676 4.037a.127.127 0 01.043.095l.009 1.15c0 .068.053.124.119.124zM203.784 43.147h10.097c.066 0 .119.056.119.125v13.603a.122.122 0 01-.12.125h-30.76a.122.122 0 01-.12-.125v-13.46c0-.069.053-.125.12-.125h10.246c.066 0 .12-.055.12-.124v-1.338c0-.038.016-.073.044-.097l4.592-3.884a.128.128 0 00.044-.097V31.8c0-.062.042-.114.1-.124l3.919-.674c.072-.013.138.046.138.123v2.88c0 .06-.04.11-.094.122l-3.242.728a.123.123 0 00-.094.122v2.668c0 .037.016.072.044.096l4.676 4.037a.127.127 0 01.043.095l.009 1.15c0 .068.053.124.119.124zM203.784 12.147h10.097c.066 0 .119.056.119.125v13.603a.122.122 0 01-.12.125h-30.76a.122.122 0 01-.12-.125v-13.46c0-.069.053-.125.12-.125h10.246c.066 0 .12-.055.12-.124v-1.338c0-.038.016-.073.044-.097l4.592-3.884a.128.128 0 00.044-.097V.8c0-.062.042-.114.1-.124l3.919-.674c.072-.013.138.046.138.123v2.88c0 .06-.04.11-.094.122l-3.242.728a.123.123 0 00-.094.122v2.668c0 .037.016.072.044.096l4.676 4.037a.127.127 0 01.043.095l.009 1.15c0 .068.053.124.119.124zM130.784 104.147h10.097c.066 0 .119.056.119.125v13.603a.122.122 0 01-.12.125h-30.76a.122.122 0 01-.12-.125v-13.46c0-.069.053-.125.12-.125h10.246c.066 0 .12-.055.12-.124v-1.338c0-.038.016-.073.044-.097l4.592-3.884a.128.128 0 00.044-.097V92.8c0-.062.042-.114.1-.124l3.919-.674c.072-.013.138.046.138.123v2.88c0 .06-.04.11-.094.122l-3.242.728a.123.123 0 00-.094.122v2.668c0 .037.016.072.044.096l4.676 4.037a.127.127 0 01.043.095l.009 1.15c0 .068.053.124.119.124zM130.784 74.147h10.097c.066 0 .119.056.119.125v13.603a.122.122 0 01-.12.125h-30.76a.122.122 0 01-.12-.125v-13.46c0-.069.053-.125.12-.125h10.246c.066 0 .12-.055.12-.124v-1.338c0-.038.016-.073.044-.097l4.592-3.884a.128.128 0 00.044-.097V62.8c0-.062.042-.114.1-.124l3.919-.674c.072-.013.138.046.138.123v2.88c0 .06-.04.11-.094.122l-3.242.728a.123.123 0 00-.094.122v2.668c0 .037.016.072.044.096l4.676 4.037a.127.127 0 01.043.095l.009 1.15c0 .068.053.124.119.124zM130.784 43.147h10.097c.066 0 .119.056.119.125v13.603a.122.122 0 01-.12.125h-30.76a.122.122 0 01-.12-.125v-13.46c0-.069.053-.125.12-.125h10.246c.066 0 .12-.055.12-.124v-1.338c0-.038.016-.073.044-.097l4.592-3.884a.128.128 0 00.044-.097V31.8c0-.062.042-.114.1-.124l3.919-.674c.072-.013.138.046.138.123v2.88c0 .06-.04.11-.094.122l-3.242.728a.123.123 0 00-.094.122v2.668c0 .037.016.072.044.096l4.676 4.037a.127.127 0 01.043.095l.009 1.15c0 .068.053.124.119.124zM130.784 12.147h10.097c.066 0 .119.056.119.125v13.603a.122.122 0 01-.12.125h-30.76a.122.122 0 01-.12-.125v-13.46c0-.069.053-.125.12-.125h10.246c.066 0 .12-.055.12-.124v-1.338c0-.038.016-.073.044-.097l4.592-3.884a.128.128 0 00.044-.097V.8c0-.062.042-.114.1-.124l3.919-.674c.072-.013.138.046.138.123v2.88c0 .06-.04.11-.094.122l-3.242.728a.123.123 0 00-.094.122v2.668c0 .037.016.072.044.096l4.676 4.037a.127.127 0 01.043.095l.009 1.15c0 .068.053.124.119.124zM240.784 104.147h10.097c.066 0 .119.056.119.125v13.603a.122.122 0 01-.12.125h-30.76a.122.122 0 01-.12-.125v-13.46c0-.069.053-.125.12-.125h10.246c.066 0 .12-.055.12-.124v-1.338c0-.038.016-.073.044-.097l4.592-3.884a.128.128 0 00.044-.097V92.8c0-.062.042-.114.1-.124l3.919-.674c.072-.013.138.046.138.123v2.88c0 .06-.04.11-.094.122l-3.242.728a.123.123 0 00-.094.122v2.668c0 .037.016.072.044.096l4.676 4.037a.127.127 0 01.043.095l.009 1.15c0 .068.053.124.119.124zM277.784 104.147h10.097c.066 0 .119.056.119.125v13.603a.122.122 0 01-.12.125h-30.76a.122.122 0 01-.12-.125v-13.46c0-.069.053-.125.12-.125h10.246c.066 0 .12-.055.12-.124v-1.338c0-.038.016-.073.044-.097l4.592-3.884a.128.128 0 00.044-.097V92.8c0-.062.042-.114.1-.124l3.919-.674c.072-.013.138.046.138.123v2.88c0 .06-.04.11-.094.122l-3.242.728a.123.123 0 00-.094.122v2.668c0 .037.016.072.044.096l4.676 4.037a.127.127 0 01.043.095l.009 1.15c0 .068.053.124.119.124zM20.784 104.147H30.88c.066 0 .119.056.119.125v13.603a.122.122 0 01-.12.125H.12a.122.122 0 01-.12-.125v-13.46c0-.069.053-.125.12-.125h10.246c.066 0 .12-.055.12-.124v-1.338c0-.038.016-.073.044-.097l4.592-3.884a.128.128 0 00.044-.097V92.8c0-.062.042-.114.1-.124l3.919-.674c.072-.013.138.046.138.123v2.88c0 .06-.04.11-.094.122l-3.242.728a.123.123 0 00-.094.122v2.668c0 .037.016.072.044.096l4.676 4.037a.127.127 0 01.043.095l.009 1.15c0 .068.053.124.119.124zM240.784 74.147h10.097c.066 0 .119.056.119.125v13.603a.122.122 0 01-.12.125h-30.76a.122.122 0 01-.12-.125v-13.46c0-.069.053-.125.12-.125h10.246c.066 0 .12-.055.12-.124v-1.338c0-.038.016-.073.044-.097l4.592-3.884a.128.128 0 00.044-.097V62.8c0-.062.042-.114.1-.124l3.919-.674c.072-.013.138.046.138.123v2.88c0 .06-.04.11-.094.122l-3.242.728a.123.123 0 00-.094.122v2.668c0 .037.016.072.044.096l4.676 4.037a.127.127 0 01.043.095l.009 1.15c0 .068.053.124.119.124zM240.784 43.147h10.097c.066 0 .119.056.119.125v13.603a.122.122 0 01-.12.125h-30.76a.122.122 0 01-.12-.125v-13.46c0-.069.053-.125.12-.125h10.246c.066 0 .12-.055.12-.124v-1.338c0-.038.016-.073.044-.097l4.592-3.884a.128.128 0 00.044-.097V31.8c0-.062.042-.114.1-.124l3.919-.674c.072-.013.138.046.138.123v2.88c0 .06-.04.11-.094.122l-3.242.728a.123.123 0 00-.094.122v2.668c0 .037.016.072.044.096l4.676 4.037a.127.127 0 01.043.095l.009 1.15c0 .068.053.124.119.124zM277.784 74.147h10.097c.066 0 .119.056.119.125v13.603a.122.122 0 01-.12.125h-30.76a.122.122 0 01-.12-.125v-13.46c0-.069.053-.125.12-.125h10.246c.066 0 .12-.055.12-.124v-1.338c0-.038.016-.073.044-.097l4.592-3.884a.128.128 0 00.044-.097V62.8c0-.062.042-.114.1-.124l3.919-.674c.072-.013.138.046.138.123v2.88c0 .06-.04.11-.094.122l-3.242.728a.123.123 0 00-.094.122v2.668c0 .037.016.072.044.096l4.676 4.037a.127.127 0 01.043.095l.009 1.15c0 .068.053.124.119.124zM20.784 74.147H30.88c.066 0 .119.056.119.125v13.603a.122.122 0 01-.12.125H.12a.122.122 0 01-.12-.125v-13.46c0-.069.053-.125.12-.125h10.246c.066 0 .12-.055.12-.124v-1.338c0-.038.016-.073.044-.097l4.592-3.884a.128.128 0 00.044-.097V62.8c0-.062.042-.114.1-.124l3.919-.674c.072-.013.138.046.138.123v2.88c0 .06-.04.11-.094.122l-3.242.728a.123.123 0 00-.094.122v2.668c0 .037.016.072.044.096l4.676 4.037a.127.127 0 01.043.095l.009 1.15c0 .068.053.124.119.124z"/>
    </g>
    <path d="M67.062 116.498H91.87c.162 0 .293.131.293.293v31.916a.293.293 0 01-.293.293H16.293a.293.293 0 01-.293-.293v-31.579c0-.162.131-.293.293-.293h25.175a.292.292 0 00.292-.292v-3.139c0-.088.04-.172.11-.227l11.282-9.114a.294.294 0 00.11-.228v-13.96c0-.144.103-.266.244-.29l9.627-1.581c.179-.03.34.108.34.289v6.758a.292.292 0 01-.23.286l-7.965 1.708a.292.292 0 00-.23.287v6.258c0 .087.038.17.106.226l11.489 9.47a.293.293 0 01.106.224l.02 2.697c.002.161.132.291.293.291zM155.79 116.498h24.807c.161 0 .292.131.292.293v31.916a.293.293 0 01-.292.293H105.02a.293.293 0 01-.293-.293v-31.579c0-.162.131-.293.293-.293h25.175a.292.292 0 00.293-.292v-3.139c0-.088.04-.172.109-.227l11.283-9.114a.294.294 0 00.108-.228v-13.96c0-.144.104-.266.246-.29l9.627-1.581c.178-.03.34.108.34.289v6.758a.292.292 0 01-.232.286l-7.963 1.708a.292.292 0 00-.232.287v6.258c0 .087.04.17.107.226l11.489 9.47a.293.293 0 01.107.224l.02 2.697c.001.161.132.291.293.291zM243.593 116.498H268.4c.161 0 .292.131.292.293v31.916a.293.293 0 01-.292.293h-75.577a.293.293 0 01-.293-.293v-31.579c0-.162.131-.293.293-.293h25.175a.292.292 0 00.293-.292v-3.139c0-.088.04-.172.109-.227l11.283-9.114a.294.294 0 00.108-.228v-13.96c0-.144.104-.266.246-.29l9.627-1.581c.178-.03.34.108.34.289v6.758a.292.292 0 01-.232.286l-7.963 1.708a.292.292 0 00-.232.287v6.258c0 .087.04.17.107.226l11.489 9.47a.293.293 0 01.107.224l.02 2.697c.001.161.132.291.293.291z" stroke="#FFF" stroke-width="3" fill="#081248" stroke-linejoin="round"/>
    <circle fill="#2E75FE" transform="rotate(180 24 141)" cx="24" cy="141" r="5"/>
    <circle fill="#2E75FE" transform="rotate(180 36 141)" cx="36" cy="141" r="5"/>
    <circle fill="#2E75FE" transform="rotate(180 57 142)" cx="57" cy="142" r="5"/>
    <circle fill="#2E75FE" transform="rotate(180 46 134)" cx="46" cy="134" r="5"/>
    <circle fill="#2E75FE" transform="rotate(180 34 130)" cx="34" cy="130" r="5"/>
    <circle fill="#2E75FE" transform="rotate(180 77 140)" cx="77" cy="140" r="5"/>
    <circle fill="#2E75FE" transform="rotate(180 261 142)" cx="261" cy="142" r="5"/>
    <circle fill="#2E75FE" transform="rotate(180 70 134)" cx="70" cy="134" r="5"/>
    <circle fill="#2E75FE" transform="rotate(180 59 129)" cx="59" cy="129" r="5"/>
    <circle fill="#2E75FE" transform="rotate(180 83 134)" cx="83" cy="134" r="5"/>
    <circle fill="#2E75FE" transform="rotate(180 113 142)" cx="113" cy="142" r="5"/>
    <circle fill="#2E75FE" transform="rotate(180 124 132)" cx="124" cy="132" r="5"/>
    <circle fill="#2E75FE" transform="rotate(180 129 142)" cx="129" cy="142" r="5"/>
    <circle fill="#2E75FE" transform="rotate(180 138 137)" cx="138" cy="137" r="5"/>
    <circle fill="#2E75FE" transform="rotate(180 149 142)" cx="149" cy="142" r="5"/>
    <circle fill="#2E75FE" transform="rotate(180 159 139)" cx="159" cy="139" r="5"/>
    <circle fill="#2E75FE" transform="rotate(180 171 134)" cx="171" cy="134" r="5"/>
    <circle fill="#2E75FE" transform="rotate(180 213 142)" cx="213" cy="142" r="5"/>
    <circle fill="#2E75FE" transform="rotate(180 220 129)" cx="220" cy="129" r="5"/>
    <circle fill="#2E75FE" transform="rotate(180 227 142)" cx="227" cy="142" r="5"/>
    <circle fill="#2E75FE" transform="rotate(180 238 132)" cx="238" cy="132" r="5"/>
    <circle fill="#2E75FE" transform="rotate(180 248 142)" cx="248" cy="142" r="5"/>
    <circle fill="#2E75FE" transform="rotate(180 256 132)" cx="256" cy="132" r="5"/>
    <circle fill="#2E75FE" transform="rotate(180 201 138)" cx="201" cy="138" r="5"/>
    <circle fill="#2E75FE" transform="rotate(180 173 142)" cx="173" cy="142" r="5"/>
    <circle fill="#FBA55F" transform="rotate(180 49 124)" cx="49" cy="124" r="5"/>
    <circle fill="#FBA55F" transform="rotate(180 70 124)" cx="70" cy="124" r="5"/>
    <circle fill="#FBA55F" transform="rotate(180 114 129)" cx="114" cy="129" r="5"/>
    <circle fill="#FBA55F" transform="rotate(180 143 124)" cx="143" cy="124" r="5"/>
    <circle fill="#FBA55F" transform="rotate(180 160 127)" cx="160" cy="127" r="5"/>
    <circle fill="#FBA55F" transform="rotate(180 208 127)" cx="208" cy="127" r="5"/>
    <circle fill="#FBA55F" transform="rotate(180 233 122)" cx="233" cy="122" r="5"/>
  </g>
</svg>
