<svg xmlns="http://www.w3.org/2000/svg" viewBox="0 0 401 243">
  <g transform="translate(2 3)" fill="none" fill-rule="evenodd">
    <ellipse fill="#FBA55F" transform="rotate(180 211.86 21.723)" cx="211.859" cy="21.723" rx="4.833" ry="4.827"/>
    <ellipse fill="#FBA55F" transform="rotate(180 299.248 27.273)" cx="299.248" cy="27.273" rx="4.833" ry="4.827"/>
    <ellipse fill="#FBA55F" transform="rotate(180 173.667 25.412)" cx="173.667" cy="25.412" rx="4.833" ry="4.827"/>
    <ellipse fill="#FBA55F" transform="rotate(180 157.036 45.097)" cx="157.036" cy="45.097" rx="4.833" ry="4.827"/>
    <ellipse fill="#FBA55F" transform="rotate(180 269.52 26.516)" cx="269.52" cy="26.516" rx="4.833" ry="4.827"/>
    <ellipse fill="#FBA55F" transform="rotate(180 283.583 18.446)" cx="283.583" cy="18.446" rx="4.833" ry="4.827"/>
    <ellipse fill="#FBA55F" transform="rotate(180 234.86 20.308)" cx="234.859" cy="20.308" rx="4.833" ry="4.827"/>
    <ellipse fill="#FBA55F" transform="rotate(180 223.39 28.377)" cx="223.391" cy="28.377" rx="4.833" ry="4.827"/>
    <ellipse fill="#FBA55F" transform="rotate(180 234.975 29.927)" cx="234.975" cy="29.927" rx="4.833" ry="4.827"/>
    <ellipse fill="#FBA55F" transform="rotate(180 164.203 34.824)" cx="164.203" cy="34.824" rx="4.833" ry="4.827"/>
    <ellipse fill="#FBA55F" transform="rotate(180 124.375 62.062)" cx="124.375" cy="62.062" rx="4.833" ry="4.827"/>
    <ellipse fill="#FBA55F" transform="rotate(180 231.39 8.827)" cx="231.391" cy="8.827" rx="4.833" ry="4.827"/>
    <ellipse fill="#FBA55F" transform="rotate(180 178.132 35.65)" cx="178.132" cy="35.651" rx="4.833" ry="4.827"/>
    <ellipse fill="#FBA55F" transform="rotate(180 271.085 17.377)" cx="271.085" cy="17.377" rx="4.833" ry="4.827"/>
    <ellipse fill="#FBA55F" transform="rotate(180 124.81 47.166)" cx="124.81" cy="47.166" rx="4.833" ry="4.827"/>
    <ellipse fill="#FBA55F" transform="rotate(180 155.801 27.824)" cx="155.801" cy="27.824" rx="4.833" ry="4.827"/>
    <ellipse fill="#FBA55F" transform="rotate(180 198.63 30.377)" cx="198.629" cy="30.377" rx="4.833" ry="4.827"/>
    <ellipse fill="#FBA55F" transform="rotate(180 349.67 28.754)" cx="349.67" cy="28.754" rx="4.833" ry="4.827"/>
    <ellipse fill="#FBA55F" transform="rotate(180 317.239 25.72)" cx="317.239" cy="25.72" rx="4.833" ry="4.827"/>
    <ellipse fill="#FBA55F" transform="rotate(180 288.147 33.72)" cx="288.147" cy="33.72" rx="4.833" ry="4.827"/>
    <ellipse fill="#FBA55F" transform="rotate(180 185.362 36.754)" cx="185.362" cy="36.754" rx="4.833" ry="4.827"/>
    <ellipse fill="#FBA55F" transform="rotate(180 222.156 20.066)" cx="222.156" cy="20.066" rx="4.833" ry="4.827"/>
    <ellipse fill="#FBA55F" transform="rotate(180 255.353 28.1)" cx="255.353" cy="28.1" rx="4.833" ry="4.827"/>
    <ellipse fill="#FBA55F" transform="rotate(180 309.377 33.858)" cx="309.377" cy="33.858" rx="4.833" ry="4.827"/>
    <ellipse fill="#FBA55F" transform="rotate(180 202.759 36.858)" cx="202.759" cy="36.858" rx="4.833" ry="4.827"/>
    <ellipse fill="#FBA55F" transform="rotate(180 277.616 27.858)" cx="277.616" cy="27.858" rx="4.833" ry="4.827"/>
    <ellipse fill="#FBA55F" transform="rotate(180 211.132 31.412)" cx="211.132" cy="31.412" rx="4.833" ry="4.827"/>
    <ellipse fill="#FBA55F" transform="rotate(180 244.955 24.585)" cx="244.955" cy="24.585" rx="4.833" ry="4.827"/>
    <ellipse fill="#FBA55F" transform="rotate(180 131.772 68.927)" cx="131.772" cy="68.927" rx="4.833" ry="4.827"/>
    <ellipse fill="#FBA55F" transform="rotate(180 149.438 35.478)" cx="149.438" cy="35.478" rx="4.833" ry="4.827"/>
    <ellipse fill="#FBA55F" transform="rotate(180 143.107 48.547)" cx="143.107" cy="48.547" rx="4.833" ry="4.827"/>
    <ellipse fill="#FBA55F" transform="rotate(180 257.018 18.72)" cx="257.018" cy="18.72" rx="4.833" ry="4.827"/>
    <ellipse fill="#FBA55F" transform="rotate(180 108.647 60.578)" cx="108.647" cy="60.578" rx="4.833" ry="4.827"/>
    <ellipse fill="#FBA55F" transform="rotate(180 178.366 14.031)" cx="178.366" cy="14.031" rx="4.833" ry="4.827"/>
    <ellipse fill="#FBA55F" transform="rotate(180 185.83 23.997)" cx="185.83" cy="23.997" rx="4.833" ry="4.827"/>
    <ellipse fill="#FBA55F" transform="rotate(180 245.754 15.1)" cx="245.754" cy="15.1" rx="4.833" ry="4.827"/>
    <ellipse fill="#FBA55F" transform="rotate(180 326.607 28.066)" cx="326.607" cy="28.066" rx="4.833" ry="4.827"/>
    <ellipse fill="#FBA55F" transform="rotate(180 134.739 53.131)" cx="134.739" cy="53.131" rx="4.833" ry="4.827"/>
    <ellipse fill="#FBA55F" transform="rotate(180 194.228 22.273)" cx="194.228" cy="22.273" rx="4.833" ry="4.827"/>
    <ellipse fill="#FBA55F" transform="rotate(180 115.313 49.958)" cx="115.313" cy="49.958" rx="4.833" ry="4.827"/>
    <ellipse fill="#FBA55F" transform="rotate(180 115.212 69.093)" cx="115.212" cy="69.093" rx="4.833" ry="4.827"/>
    <ellipse fill="#2E75FE" transform="rotate(180 133.275 146.806)" cx="133.275" cy="146.806" rx="4.833" ry="4.827"/>
    <ellipse fill="#2E75FE" transform="rotate(180 47.56 129.498)" cx="47.56" cy="129.498" rx="4.833" ry="4.827"/>
    <ellipse fill="#2E75FE" transform="rotate(180 28.063 145.633)" cx="28.063" cy="145.633" rx="4.833" ry="4.827"/>
    <ellipse fill="#2E75FE" transform="rotate(180 110.078 89.678)" cx="110.078" cy="89.678" rx="4.833" ry="4.827"/>
    <ellipse fill="#2E75FE" transform="rotate(180 118.71 106.536)" cx="118.71" cy="106.536" rx="4.833" ry="4.827"/>
    <ellipse fill="#2E75FE" transform="rotate(180 174.768 92.055)" cx="174.768" cy="92.055" rx="4.833" ry="4.827"/>
    <ellipse fill="#2E75FE" transform="rotate(180 138.04 99.779)" cx="138.04" cy="99.779" rx="4.833" ry="4.827"/>
    <ellipse fill="#2E75FE" transform="rotate(180 118.877 139.152)" cx="118.877" cy="139.152" rx="4.833" ry="4.827"/>
    <ellipse fill="#2E75FE" transform="rotate(180 290.75 50.543)" cx="290.75" cy="50.543" rx="4.833" ry="4.827"/>
    <ellipse fill="#2E75FE" transform="rotate(180 328.444 54.405)" cx="328.444" cy="54.405" rx="4.833" ry="4.827"/>
    <ellipse fill="#2E75FE" transform="rotate(180 189.964 67.166)" cx="189.964" cy="67.166" rx="4.833" ry="4.827"/>
    <ellipse fill="#2E75FE" transform="rotate(180 201.83 66.955)" cx="201.83" cy="66.955" rx="4.833" ry="4.827"/>
    <ellipse fill="#2E75FE" transform="rotate(180 218.261 45.716)" cx="218.261" cy="45.716" rx="4.833" ry="4.827"/>
    <ellipse fill="#2E75FE" transform="rotate(180 244.654 50.512)" cx="244.654" cy="50.512" rx="4.833" ry="4.827"/>
    <ellipse fill="#2E75FE" transform="rotate(180 249.19 127.775)" cx="249.19" cy="127.775" rx="4.833" ry="4.827"/>
    <ellipse fill="#2E75FE" transform="rotate(180 178.942 71.34)" cx="178.942" cy="71.339" rx="4.833" ry="4.827"/>
    <ellipse fill="#2E75FE" transform="rotate(180 338.942 36.34)" cx="338.942" cy="36.339" rx="4.833" ry="4.827"/>
    <ellipse fill="#2E75FE" transform="rotate(180 301.382 41.855)" cx="301.382" cy="41.855" rx="4.833" ry="4.827"/>
    <ellipse fill="#2E75FE" transform="rotate(180 282.85 45.2)" cx="282.85" cy="45.201" rx="4.833" ry="4.827"/>
    <ellipse fill="#2E75FE" transform="rotate(180 131.308 86.678)" cx="131.308" cy="86.678" rx="4.833" ry="4.827"/>
    <ellipse fill="#2E75FE" transform="rotate(180 285.917 102.675)" cx="285.917" cy="102.675" rx="4.833" ry="4.827"/>
    <ellipse fill="#2E75FE" transform="rotate(180 106.446 104.433)" cx="106.446" cy="104.433" rx="4.833" ry="4.827"/>
    <ellipse fill="#2E75FE" transform="rotate(180 242.424 85.298)" cx="242.424" cy="85.298" rx="4.833" ry="4.827"/>
    <ellipse fill="#2E75FE" transform="rotate(180 261.29 36.512)" cx="261.29" cy="36.512" rx="4.833" ry="4.827"/>
    <ellipse fill="#2E75FE" transform="rotate(180 122.576 136.464)" cx="122.576" cy="136.464" rx="4.833" ry="4.827"/>
    <ellipse fill="#2E75FE" transform="rotate(180 221.16 76.609)" cx="221.161" cy="76.609" rx="4.833" ry="4.827"/>
    <ellipse fill="#2E75FE" transform="rotate(180 326.511 93.02)" cx="326.511" cy="93.021" rx="4.833" ry="4.827"/>
    <ellipse fill="#2E75FE" transform="rotate(180 263.688 53.44)" cx="263.688" cy="53.439" rx="4.833" ry="4.827"/>
    <ellipse fill="#2E75FE" transform="rotate(180 163.17 99.779)" cx="163.17" cy="99.779" rx="4.833" ry="4.827"/>
    <ellipse fill="#2E75FE" transform="rotate(180 228.674 149.785)" cx="228.674" cy="149.785" rx="4.833" ry="4.827"/>
    <ellipse fill="#2E75FE" transform="rotate(180 191.674 154.785)" cx="191.674" cy="154.785" rx="4.833" ry="4.827"/>
    <ellipse fill="#2E75FE" transform="rotate(180 318.779 189.56)" cx="318.779" cy="189.561" rx="4.833" ry="4.827"/>
    <ellipse fill="#2E75FE" transform="rotate(180 155.471 86.543)" cx="155.471" cy="86.543" rx="4.833" ry="4.827"/>
    <ellipse fill="#2E75FE" transform="rotate(180 243.39 59.232)" cx="243.391" cy="59.232" rx="4.833" ry="4.827"/>
    <ellipse fill="#2E75FE" transform="rotate(180 296.55 83.367)" cx="296.549" cy="83.367" rx="4.833" ry="4.827"/>
    <ellipse fill="#2E75FE" transform="rotate(180 193.165 92.405)" cx="193.165" cy="92.405" rx="4.833" ry="4.827"/>
    <ellipse fill="#2E75FE" transform="rotate(180 173.801 131.637)" cx="173.801" cy="131.637" rx="4.833" ry="4.827"/>
    <ellipse fill="#2E75FE" transform="rotate(180 131.275 119.087)" cx="131.275" cy="119.087" rx="4.833" ry="4.827"/>
    <ellipse fill="#2E75FE" transform="rotate(180 178.667 51.408)" cx="178.667" cy="51.408" rx="4.833" ry="4.827"/>
    <ellipse fill="#2E75FE" transform="rotate(180 119.71 84.955)" cx="119.71" cy="84.955" rx="4.833" ry="4.827"/>
    <ellipse fill="#2E75FE" transform="rotate(180 101.647 84.367)" cx="101.647" cy="84.367" rx="4.833" ry="4.827"/>
    <ellipse fill="#2E75FE" transform="rotate(180 128.81 125.913)" cx="128.81" cy="125.913" rx="4.833" ry="4.827"/>
    <ellipse fill="#2E75FE" transform="rotate(180 109.346 120.948)" cx="109.346" cy="120.948" rx="4.833" ry="4.827"/>
    <ellipse fill="#2E75FE" transform="rotate(180 112.145 129.498)" cx="112.145" cy="129.498" rx="4.833" ry="4.827"/>
    <ellipse fill="#2E75FE" transform="rotate(180 166.07 113.294)" cx="166.069" cy="113.294" rx="4.833" ry="4.827"/>
    <ellipse fill="#2E75FE" transform="rotate(180 159.304 126.81)" cx="159.304" cy="126.81" rx="4.833" ry="4.827"/>
    <ellipse fill="#2E75FE" transform="rotate(180 313.143 72.401)" cx="313.143" cy="72.401" rx="4.833" ry="4.827"/>
    <ellipse fill="#2E75FE" transform="rotate(180 251.013 81.509)" cx="251.013" cy="81.509" rx="4.833" ry="4.827"/>
    <ellipse fill="#2E75FE" transform="rotate(180 187.333 122.948)" cx="187.333" cy="122.948" rx="4.833" ry="4.827"/>
    <ellipse fill="#2E75FE" transform="rotate(180 282.051 131.637)" cx="282.051" cy="131.637" rx="4.833" ry="4.827"/>
    <ellipse fill="#2E75FE" transform="rotate(180 272.051 138.637)" cx="272.051" cy="138.637" rx="4.833" ry="4.827"/>
    <ellipse fill="#2E75FE" transform="rotate(180 270.453 72.747)" cx="270.453" cy="72.747" rx="4.833" ry="4.827"/>
    <ellipse fill="#2E75FE" transform="rotate(180 324.578 42.82)" cx="324.578" cy="42.82" rx="4.833" ry="4.827"/>
    <ellipse fill="#2E75FE" transform="rotate(180 306.578 56.82)" cx="306.578" cy="56.82" rx="4.833" ry="4.827"/>
    <ellipse fill="#2E75FE" transform="rotate(180 225.027 56.336)" cx="225.027" cy="56.336" rx="4.833" ry="4.827"/>
    <ellipse fill="#2E75FE" transform="rotate(180 253.056 152.875)" cx="253.056" cy="152.875" rx="4.833" ry="4.827"/>
    <ellipse fill="#2E75FE" transform="rotate(180 309.942 96.779)" cx="309.942" cy="96.779" rx="4.833" ry="4.827"/>
    <ellipse fill="#2E75FE" transform="rotate(180 197.165 127.848)" cx="197.165" cy="127.848" rx="4.833" ry="4.827"/>
    <ellipse fill="#2E75FE" transform="rotate(180 188.165 103.848)" cx="188.165" cy="103.848" rx="4.833" ry="4.827"/>
    <ellipse fill="#2E75FE" transform="rotate(180 254.989 68.886)" cx="254.989" cy="68.886" rx="4.833" ry="4.827"/>
    <ellipse fill="#2E75FE" transform="rotate(180 153.37 99.194)" cx="153.371" cy="99.194" rx="4.833" ry="4.827"/>
    <ellipse fill="#2E75FE" transform="rotate(180 224.06 107.502)" cx="224.06" cy="107.502" rx="4.833" ry="4.827"/>
    <ellipse fill="#2E75FE" transform="rotate(180 215.06 110.502)" cx="215.06" cy="110.502" rx="4.833" ry="4.827"/>
    <ellipse fill="#2E75FE" transform="rotate(180 253.056 96.882)" cx="253.056" cy="96.882" rx="4.833" ry="4.827"/>
    <ellipse fill="#2E75FE" transform="rotate(180 253.056 37.993)" cx="253.056" cy="37.993" rx="4.833" ry="4.827"/>
    <ellipse fill="#2E75FE" transform="rotate(180 308.147 104.606)" cx="308.147" cy="104.606" rx="4.833" ry="4.827"/>
    <ellipse fill="#2E75FE" transform="rotate(180 274.32 40.89)" cx="274.319" cy="40.889" rx="4.833" ry="4.827"/>
    <ellipse fill="#2E75FE" transform="rotate(180 184.467 90.678)" cx="184.467" cy="90.678" rx="4.833" ry="4.827"/>
    <ellipse fill="#2E75FE" transform="rotate(180 271.42 98.813)" cx="271.42" cy="98.813" rx="4.833" ry="4.827"/>
    <ellipse fill="#2E75FE" transform="rotate(180 278.42 102.813)" cx="278.42" cy="102.813" rx="4.833" ry="4.827"/>
    <ellipse fill="#2E75FE" transform="rotate(180 264.98 63.235)" cx="264.98" cy="63.235" rx="4.833" ry="4.827"/>
    <ellipse fill="#2E75FE" transform="rotate(180 169.027 67.235)" cx="169.027" cy="67.235" rx="4.833" ry="4.827"/>
    <ellipse fill="#2E75FE" transform="rotate(180 161.138 69.097)" cx="161.138" cy="69.097" rx="4.833" ry="4.827"/>
    <ellipse fill="#2E75FE" transform="rotate(180 308.138 46.097)" cx="308.138" cy="46.097" rx="4.833" ry="4.827"/>
    <ellipse fill="#2E75FE" transform="rotate(180 237.592 98.813)" cx="237.592" cy="98.813" rx="4.833" ry="4.827"/>
    <ellipse fill="#2E75FE" transform="rotate(180 147.107 70.44)" cx="147.107" cy="70.439" rx="4.833" ry="4.827"/>
    <ellipse fill="#2E75FE" transform="rotate(180 264.654 81.436)" cx="264.654" cy="81.436" rx="4.833" ry="4.827"/>
    <ellipse fill="#2E75FE" transform="rotate(180 264.654 88.436)" cx="264.654" cy="88.436" rx="4.833" ry="4.827"/>
    <ellipse fill="#2E75FE" transform="rotate(180 307.18 64.059)" cx="307.181" cy="64.059" rx="4.833" ry="4.827"/>
    <ellipse fill="#2E75FE" transform="rotate(180 197.964 79.505)" cx="197.964" cy="79.505" rx="4.833" ry="4.827"/>
    <ellipse fill="#2E75FE" transform="rotate(180 320.712 69.851)" cx="320.712" cy="69.851" rx="4.833" ry="4.827"/>
    <ellipse fill="#2E75FE" transform="rotate(180 228.893 121.017)" cx="228.893" cy="121.017" rx="4.833" ry="4.827"/>
    <ellipse fill="#2E75FE" transform="rotate(180 237.592 40.89)" cx="237.592" cy="40.889" rx="4.833" ry="4.827"/>
    <ellipse fill="#2E75FE" transform="rotate(180 206.663 52.474)" cx="206.663" cy="52.474" rx="4.833" ry="4.827"/>
    <ellipse fill="#2E75FE" transform="rotate(180 294.616 115.225)" cx="294.616" cy="115.225" rx="4.833" ry="4.827"/>
    <ellipse fill="#2E75FE" transform="rotate(180 314.913 117.156)" cx="314.913" cy="117.156" rx="4.833" ry="4.827"/>
    <ellipse fill="#2E75FE" transform="rotate(180 273.286 168.668)" cx="273.286" cy="168.668" rx="4.833" ry="4.827"/>
    <ellipse fill="#2E75FE" transform="rotate(180 323.612 106.536)" cx="323.612" cy="106.536" rx="4.833" ry="4.827"/>
    <ellipse fill="#2E75FE" transform="rotate(180 282.051 81.436)" cx="282.051" cy="81.436" rx="4.833" ry="4.827"/>
    <ellipse fill="#2E75FE" transform="rotate(180 333.64 66.263)" cx="333.641" cy="66.263" rx="4.833" ry="4.827"/>
    <ellipse fill="#2E75FE" transform="rotate(180 306.214 142.256)" cx="306.214" cy="142.256" rx="4.833" ry="4.827"/>
    <ellipse fill="#2E75FE" transform="rotate(180 288.817 67.92)" cx="288.817" cy="67.92" rx="4.833" ry="4.827"/>
    <ellipse fill="#2E75FE" transform="rotate(180 234.692 169.287)" cx="234.692" cy="169.287" rx="4.833" ry="4.827"/>
    <ellipse fill="#2E75FE" transform="rotate(180 150.605 108.467)" cx="150.605" cy="108.467" rx="4.833" ry="4.827"/>
    <ellipse fill="#2E75FE" transform="rotate(180 165.103 82.747)" cx="165.103" cy="82.747" rx="4.833" ry="4.827"/>
    <ellipse fill="#2E75FE" transform="rotate(180 236.625 69.851)" cx="236.625" cy="69.851" rx="4.833" ry="4.827"/>
    <ellipse fill="#2E75FE" transform="rotate(180 178.634 112.329)" cx="178.634" cy="112.329" rx="4.833" ry="4.827"/>
    <ellipse fill="#2E75FE" transform="rotate(180 187.5 55.924)" cx="187.5" cy="55.924" rx="4.833" ry="4.827"/>
    <ellipse fill="#2E75FE" transform="rotate(180 125.542 96.125)" cx="125.542" cy="96.125" rx="4.833" ry="4.827"/>
    <ellipse fill="#2E75FE" transform="rotate(180 145.772 125.844)" cx="145.772" cy="125.844" rx="4.833" ry="4.827"/>
    <ellipse fill="#2E75FE" transform="rotate(180 143.873 89.47)" cx="143.873" cy="89.471" rx="4.833" ry="4.827"/>
    <ellipse fill="#2E75FE" transform="rotate(180 136.107 139.36)" cx="136.107" cy="139.36" rx="4.833" ry="4.827"/>
    <ellipse fill="#2E75FE" transform="rotate(180 167.036 146.118)" cx="167.036" cy="146.118" rx="4.833" ry="4.827"/>
    <ellipse fill="#2E75FE" transform="rotate(180 189.266 163.495)" cx="189.266" cy="163.495" rx="4.833" ry="4.827"/>
    <ellipse fill="#2E75FE" transform="rotate(180 142.91 81.612)" cx="142.911" cy="81.612" rx="4.833" ry="4.827"/>
    <ellipse fill="#2E75FE" transform="rotate(180 172.739 120.024)" cx="172.739" cy="120.024" rx="4.833" ry="4.827"/>
    <ellipse fill="#2E75FE" transform="rotate(180 275.286 113.294)" cx="275.286" cy="113.294" rx="4.833" ry="4.827"/>
    <ellipse fill="#2E75FE" transform="rotate(180 297.516 126.81)" cx="297.516" cy="126.81" rx="4.833" ry="4.827"/>
    <ellipse fill="#2E75FE" transform="rotate(180 279.152 61.163)" cx="279.152" cy="61.163" rx="4.833" ry="4.827"/>
    <ellipse fill="#2E75FE" transform="rotate(180 168.969 53.44)" cx="168.969" cy="53.439" rx="4.833" ry="4.827"/>
    <ellipse fill="#2E75FE" transform="rotate(180 206.663 97.848)" cx="206.663" cy="97.848" rx="4.833" ry="4.827"/>
    <ellipse fill="#2E75FE" transform="rotate(180 203.663 102.848)" cx="203.663" cy="102.848" rx="4.833" ry="4.827"/>
    <ellipse fill="#2E75FE" transform="rotate(180 297.842 73.817)" cx="297.842" cy="73.817" rx="4.833" ry="4.827"/>
    <ellipse fill="#2E75FE" transform="rotate(180 265.62 170.253)" cx="265.621" cy="170.253" rx="4.833" ry="4.827"/>
    <ellipse fill="#2E75FE" transform="rotate(180 227.926 141.29)" cx="227.926" cy="141.291" rx="4.833" ry="4.827"/>
    <ellipse fill="#2E75FE" transform="rotate(180 207.63 154.806)" cx="207.629" cy="154.806" rx="4.833" ry="4.827"/>
    <ellipse fill="#2E75FE" transform="rotate(180 174.768 157.702)" cx="174.768" cy="157.702" rx="4.833" ry="4.827"/>
    <ellipse fill="#2E75FE" transform="rotate(180 307.18 181.837)" cx="307.181" cy="181.837" rx="4.833" ry="4.827"/>
    <ellipse fill="#2E75FE" transform="rotate(180 318.779 130.671)" cx="318.779" cy="130.671" rx="4.833" ry="4.827"/>
    <ellipse fill="#2E75FE" transform="rotate(180 224.344 168.087)" cx="224.344" cy="168.087" rx="4.833" ry="4.827"/>
    <ellipse fill="#2E75FE" transform="rotate(180 341.009 56.336)" cx="341.009" cy="56.336" rx="4.833" ry="4.827"/>
    <ellipse fill="#2E75FE" transform="matrix(1 0 0 -1 0 411.253)" cx="326.938" cy="205.626" rx="4.833" ry="4.827"/>
    <ellipse fill="#2E75FE" transform="matrix(1 0 0 -1 0 288.097)" cx="49.757" cy="144.048" rx="4.833" ry="4.827"/>
    <ellipse fill="#2E75FE" transform="matrix(1 0 0 -1 0 446.346)" cx="287.616" cy="223.173" rx="4.833" ry="4.827"/>
    <ellipse fill="#2E75FE" transform="matrix(1 0 0 -1 0 163.356)" cx="41.56" cy="81.678" rx="4.833" ry="4.827"/>
    <ellipse fill="#2E75FE" transform="matrix(1 0 0 -1 0 245.827)" cx="62.455" cy="122.913" rx="4.833" ry="4.827"/>
    <ellipse fill="#2E75FE" transform="matrix(1 0 0 -1 0 86.907)" cx="339.641" cy="43.453" rx="4.833" ry="4.827"/>
    <ellipse fill="#2E75FE" transform="matrix(1 0 0 -1 0 265.412)" cx="36.929" cy="132.706" rx="4.833" ry="4.827"/>
    <ellipse fill="#2E75FE" transform="matrix(1 0 0 -1 0 327.806)" cx="319.54" cy="163.903" rx="4.833" ry="4.827"/>
    <ellipse fill="#2E75FE" transform="matrix(1 0 0 -1 0 421.599)" cx="280.118" cy="210.799" rx="4.833" ry="4.827"/>
    <ellipse fill="#2E75FE" transform="matrix(1 0 0 -1 0 288.374)" cx="292.683" cy="144.187" rx="4.833" ry="4.827"/>
    <ellipse fill="#2E75FE" transform="matrix(1 0 0 -1 0 309.612)" cx="316.846" cy="154.806" rx="4.833" ry="4.827"/>
    <ellipse fill="#2E75FE" transform="matrix(1 0 0 -1 0 220.796)" cx="257.888" cy="110.398" rx="4.833" ry="4.827"/>
    <ellipse fill="#2E75FE" transform="matrix(1 0 0 -1 0 270.028)" cx="292.042" cy="135.014" rx="4.833" ry="4.827"/>
    <ellipse fill="#2E75FE" transform="matrix(1 0 0 -1 0 292.235)" cx="280.118" cy="146.118" rx="4.833" ry="4.827"/>
    <ellipse fill="#2E75FE" transform="matrix(1 0 0 -1 0 314.235)" cx="279.118" cy="157.118" rx="4.833" ry="4.827"/>
    <ellipse fill="#2E75FE" transform="matrix(1 0 0 -1 0 359.813)" cx="246.29" cy="179.907" rx="4.833" ry="4.827"/>
    <ellipse fill="#2E75FE" transform="matrix(1 0 0 -1 0 363.675)" cx="226.96" cy="181.837" rx="4.833" ry="4.827"/>
    <ellipse fill="#2E75FE" transform="matrix(1 0 0 -1 0 363.675)" cx="214.395" cy="181.837" rx="4.833" ry="4.827"/>
    <ellipse fill="#2E75FE" transform="matrix(1 0 0 -1 0 266.907)" cx="306.344" cy="133.453" rx="4.833" ry="4.827"/>
    <ellipse fill="#2E75FE" transform="matrix(1 0 0 -1 0 380.637)" cx="332.373" cy="190.318" rx="4.833" ry="4.827"/>
    <ellipse fill="#2E75FE" transform="matrix(1 0 0 -1 0 170.567)" cx="303.942" cy="85.284" rx="4.833" ry="4.827"/>
    <ellipse fill="#2E75FE" transform="matrix(1 0 0 -1 0 354.644)" cx="284.884" cy="177.322" rx="4.833" ry="4.827"/>
    <ellipse fill="#2E75FE" transform="matrix(1 0 0 -1 0 358.782)" cx="319.98" cy="179.391" rx="4.833" ry="4.827"/>
    <ellipse fill="#2E75FE" transform="matrix(1 0 0 -1 0 354.02)" cx="329.411" cy="177.01" rx="4.833" ry="4.827"/>
    <ellipse fill="#2E75FE" transform="matrix(1 0 0 -1 0 243.204)" cx="284.143" cy="121.602" rx="4.833" ry="4.827"/>
    <ellipse fill="#2E75FE" transform="matrix(1 0 0 -1 0 388.775)" cx="297.516" cy="194.388" rx="4.833" ry="4.827"/>
    <ellipse fill="#2E75FE" transform="matrix(1 0 0 -1 0 114.464)" cx="254.339" cy="57.232" rx="4.833" ry="4.827"/>
    <ellipse fill="#2E75FE" transform="matrix(1 0 0 -1 0 182.464)" cx="279.339" cy="91.232" rx="4.833" ry="4.827"/>
    <ellipse fill="#2E75FE" transform="matrix(1 0 0 -1 0 288.374)" cx="324.578" cy="144.187" rx="4.833" ry="4.827"/>
    <ellipse fill="#2E75FE" transform="matrix(1 0 0 -1 0 288.374)" cx="197.964" cy="144.187" rx="4.833" ry="4.827"/>
    <ellipse fill="#2E75FE" transform="matrix(1 0 0 -1 0 160.747)" cx="235.344" cy="80.374" rx="4.833" ry="4.827"/>
    <ellipse fill="#2E75FE" transform="matrix(1 0 0 -1 0 328.65)" cx="287.641" cy="164.325" rx="4.833" ry="4.827"/>
    <ellipse fill="#2E75FE" transform="matrix(1 0 0 -1 0 244.907)" cx="307.583" cy="122.453" rx="4.833" ry="4.827"/>
    <ellipse fill="#2E75FE" transform="matrix(1 0 0 -1 0 337.675)" cx="309.44" cy="168.837" rx="4.833" ry="4.827"/>
    <ellipse fill="#2E75FE" transform="matrix(1 0 0 -1 0 394.567)" cx="330.377" cy="197.284" rx="4.833" ry="4.827"/>
    <ellipse fill="#2E75FE" transform="matrix(1 0 0 -1 0 302.99)" cx="302.775" cy="151.495" rx="4.833" ry="4.827"/>
    <ellipse fill="#2E75FE" transform="matrix(1 0 0 -1 0 326.99)" cx="329.411" cy="163.495" rx="4.833" ry="4.827"/>
    <ellipse fill="#2E75FE" transform="matrix(1 0 0 -1 0 243.343)" cx="53.891" cy="121.671" rx="4.833" ry="4.827"/>
    <ellipse fill="#2E75FE" transform="matrix(1 0 0 -1 0 445.73)" cx="314.08" cy="222.865" rx="4.833" ry="4.827"/>
    <ellipse fill="#2E75FE" transform="matrix(1 0 0 -1 0 186.042)" cx="225.993" cy="93.021" rx="4.833" ry="4.827"/>
    <ellipse fill="#2E75FE" transform="matrix(1 0 0 -1 0 172.042)" cx="217.993" cy="86.021" rx="4.833" ry="4.827"/>
    <ellipse fill="#2E75FE" transform="matrix(1 0 0 -1 0 187.702)" cx="44.757" cy="93.851" rx="4.833" ry="4.827"/>
    <ellipse fill="#2E75FE" transform="matrix(1 0 0 -1 0 444.768)" cx="308.147" cy="222.384" rx="4.833" ry="4.827"/>
    <ellipse fill="#2E75FE" transform="matrix(1 0 0 -1 0 353.675)" cx="257.942" cy="176.837" rx="4.833" ry="4.827"/>
    <ellipse fill="#2E75FE" transform="matrix(1 0 0 -1 0 220.284)" cx="141.679" cy="110.142" rx="4.833" ry="4.827"/>
    <ellipse fill="#2E75FE" transform="matrix(1 0 0 -1 0 386.215)" cx="309.109" cy="193.107" rx="4.833" ry="4.827"/>
    <ellipse fill="#2E75FE" transform="matrix(1 0 0 -1 0 452.491)" cx="279.152" cy="226.246" rx="4.833" ry="4.827"/>
    <ellipse fill="#2E75FE" transform="matrix(1 0 0 -1 0 423.53)" cx="318.779" cy="211.765" rx="4.833" ry="4.827"/>
    <ellipse fill="#2E75FE" transform="matrix(1 0 0 -1 0 253.62)" cx="265.621" cy="126.81" rx="4.833" ry="4.827"/>
    <ellipse fill="#2E75FE" transform="matrix(1 0 0 -1 0 237.62)" cx="265.621" cy="118.81" rx="4.833" ry="4.827"/>
    <ellipse fill="#2E75FE" transform="matrix(1 0 0 -1 0 170.325)" cx="179.634" cy="85.163" rx="4.833" ry="4.827"/>
    <ellipse fill="#2E75FE" transform="matrix(1 0 0 -1 0 299.121)" cx="17.531" cy="149.561" rx="4.833" ry="4.827"/>
    <ellipse fill="#2E75FE" transform="matrix(1 0 0 -1 0 392.637)" cx="268.52" cy="196.318" rx="4.833" ry="4.827"/>
    <ellipse fill="#2E75FE" transform="matrix(1 0 0 -1 0 230.45)" cx="242.424" cy="115.225" rx="4.833" ry="4.827"/>
    <ellipse fill="#2E75FE" transform="matrix(1 0 0 -1 0 294.997)" cx="8.699" cy="147.498" rx="4.833" ry="4.827"/>
    <ellipse fill="#2E75FE" transform="matrix(1 0 0 -1 0 313.474)" cx="237.592" cy="156.737" rx="4.833" ry="4.827"/>
    <ellipse fill="#2E75FE" transform="matrix(1 0 0 -1 0 400.36)" cx="284.951" cy="200.18" rx="4.833" ry="4.827"/>
    <ellipse fill="#2E75FE" transform="matrix(1 0 0 -1 0 354.775)" cx="236.261" cy="177.388" rx="4.833" ry="4.827"/>
    <ellipse fill="#2E75FE" transform="matrix(1 0 0 -1 0 334.713)" cx="251.123" cy="167.356" rx="4.833" ry="4.827"/>
    <ellipse fill="#2E75FE" transform="matrix(1 0 0 -1 0 404.221)" cx="311.047" cy="202.111" rx="4.833" ry="4.827"/>
    <ellipse fill="#2E75FE" transform="matrix(1 0 0 -1 0 282.581)" cx="247.257" cy="141.291" rx="4.833" ry="4.827"/>
    <ellipse fill="#2E75FE" transform="matrix(1 0 0 -1 0 286.581)" cx="256.257" cy="143.291" rx="4.833" ry="4.827"/>
    <ellipse fill="#2E75FE" transform="matrix(1 0 0 -1 0 317.336)" cx="299.449" cy="158.668" rx="4.833" ry="4.827"/>
    <ellipse fill="#2E75FE" transform="matrix(1 0 0 -1 0 243.965)" cx="213.429" cy="121.983" rx="4.833" ry="4.827"/>
    <ellipse fill="#2E75FE" transform="matrix(1 0 0 -1 0 365.606)" cx="272.386" cy="182.803" rx="4.833" ry="4.827"/>
    <ellipse fill="#2E75FE" transform="matrix(1 0 0 -1 0 371.398)" cx="288.817" cy="185.699" rx="4.833" ry="4.827"/>
    <ellipse fill="#2E75FE" transform="matrix(1 0 0 -1 0 172.104)" cx="327.842" cy="86.052" rx="4.833" ry="4.827"/>
    <ellipse fill="#2E75FE" transform="matrix(1 0 0 -1 0 284.512)" cx="213.429" cy="142.256" rx="4.833" ry="4.827"/>
    <ellipse fill="#2E75FE" transform="matrix(1 0 0 -1 0 172.872)" cx="61.556" cy="86.436" rx="4.833" ry="4.827"/>
    <ellipse fill="#2E75FE" transform="matrix(1 0 0 -1 0 317.336)" cx="222.127" cy="158.668" rx="4.833" ry="4.827"/>
    <ellipse fill="#2E75FE" transform="matrix(1 0 0 -1 0 162.872)" cx="209.563" cy="81.436" rx="4.833" ry="4.827"/>
    <ellipse fill="#2E75FE" transform="matrix(1 0 0 -1 0 142.872)" cx="213.563" cy="71.436" rx="4.833" ry="4.827"/>
    <ellipse fill="#2E75FE" transform="matrix(1 0 0 -1 0 232.38)" cx="200.864" cy="116.19" rx="4.833" ry="4.827"/>
    <ellipse fill="#2E75FE" transform="matrix(1 0 0 -1 0 288.374)" cx="184.433" cy="144.187" rx="4.833" ry="4.827"/>
    <ellipse fill="#2E75FE" transform="matrix(1 0 0 -1 0 437.806)" cx="296.516" cy="218.903" rx="4.833" ry="4.827"/>
    <ellipse fill="#2E75FE" transform="matrix(1 0 0 -1 0 151.98)" cx="51.192" cy="75.99" rx="4.833" ry="4.827"/>
    <ellipse fill="#2E75FE" transform="matrix(1 0 0 -1 0 373.329)" cx="256.922" cy="186.664" rx="4.833" ry="4.827"/>
    <ellipse fill="#2E75FE" transform="matrix(1 0 0 -1 0 270.014)" cx="236.725" cy="135.007" rx="4.833" ry="4.827"/>
    <ellipse fill="#2E75FE" transform="matrix(1 0 0 -1 0 365.606)" cx="170.902" cy="182.803" rx="4.833" ry="4.827"/>
    <ellipse fill="#2E75FE" transform="matrix(1 0 0 -1 0 326.99)" cx="165.103" cy="163.495" rx="4.833" ry="4.827"/>
    <ellipse fill="#2E75FE" transform="matrix(1 0 0 -1 0 346.298)" cx="180.567" cy="173.149" rx="4.833" ry="4.827"/>
    <ellipse fill="#2E75FE" transform="matrix(1 0 0 -1 0 381.052)" cx="236.625" cy="190.526" rx="4.833" ry="4.827"/>
    <ellipse fill="#2E75FE" transform="matrix(1 0 0 -1 0 448.63)" cx="264.654" cy="224.315" rx="4.833" ry="4.827"/>
    <ellipse fill="#2E75FE" transform="matrix(1 0 0 -1 0 354.02)" cx="196.998" cy="177.01" rx="4.833" ry="4.827"/>
    <ellipse fill="#2E75FE" transform="matrix(1 0 0 -1 0 262.443)" cx="58.192" cy="131.221" rx="4.833" ry="4.827"/>
    <ellipse fill="#2E75FE" transform="matrix(1 0 0 -1 0 331.121)" cx="197.864" cy="165.561" rx="4.833" ry="4.827"/>
    <ellipse fill="#2E75FE" transform="matrix(1 0 0 -1 0 265.204)" cx="203.763" cy="132.602" rx="4.833" ry="4.827"/>
    <ellipse fill="#2E75FE" transform="matrix(1 0 0 -1 0 354.02)" cx="158.337" cy="177.01" rx="4.833" ry="4.827"/>
    <ellipse fill="#2E75FE" transform="matrix(1 0 0 -1 0 166.734)" cx="312.98" cy="83.367" rx="4.833" ry="4.827"/>
    <ellipse fill="#2E75FE" transform="matrix(1 0 0 -1 0 288.983)" cx="167.5" cy="144.491" rx="4.833" ry="4.827"/>
    <ellipse fill="#2E75FE" transform="matrix(1 0 0 -1 0 191.834)" cx="297.516" cy="95.917" rx="4.833" ry="4.827"/>
    <ellipse fill="#2E75FE" transform="matrix(1 0 0 -1 0 146.18)" cx="44.292" cy="73.09" rx="4.833" ry="4.827"/>
    <ellipse fill="#2E75FE" transform="matrix(1 0 0 -1 0 408.076)" cx="291.683" cy="204.038" rx="4.833" ry="4.827"/>
    <ellipse fill="#2E75FE" transform="matrix(1 0 0 -1 0 252.927)" cx="73.288" cy="126.464" rx="4.833" ry="4.827"/>
    <ellipse fill="#2E75FE" transform="matrix(1 0 0 -1 0 247.82)" cx="36.694" cy="123.91" rx="4.833" ry="4.827"/>
    <ellipse fill="#2E75FE" transform="matrix(1 0 0 -1 0 272.173)" cx="61.891" cy="136.087" rx="4.833" ry="4.827"/>
    <ellipse fill="#2E75FE" transform="matrix(1 0 0 -1 0 323.453)" cx="245.875" cy="161.727" rx="4.833" ry="4.827"/>
    <ellipse fill="#2E75FE" transform="matrix(1 0 0 -1 0 232.035)" cx="42.56" cy="116.017" rx="4.833" ry="4.827"/>
    <ellipse fill="#2E75FE" transform="matrix(1 0 0 -1 0 263.53)" cx="222.109" cy="131.765" rx="4.833" ry="4.827"/>
    <ellipse fill="#2E75FE" transform="matrix(1 0 0 -1 0 430.83)" cx="305.315" cy="215.415" rx="4.833" ry="4.827"/>
    <ellipse fill="#2E75FE" transform="matrix(1 0 0 -1 0 175.01)" cx="54.058" cy="87.505" rx="4.833" ry="4.827"/>
    <ellipse fill="#2E75FE" transform="matrix(1 0 0 -1 0 210.623)" cx="246.975" cy="105.311" rx="4.833" ry="4.827"/>
    <ellipse fill="#2E75FE" transform="matrix(1 0 0 -1 0 413.176)" cx="301.578" cy="206.588" rx="4.833" ry="4.827"/>
    <ellipse fill="#2E75FE" transform="matrix(1 0 0 -1 0 423.315)" cx="278.984" cy="211.657" rx="4.833" ry="4.827"/>
    <ellipse fill="#2E75FE" transform="matrix(1 0 0 -1 0 301.89)" cx="266.587" cy="150.945" rx="4.833" ry="4.827"/>
    <ellipse fill="#2E75FE" transform="matrix(1 0 0 -1 0 317.89)" cx="268.587" cy="158.945" rx="4.833" ry="4.827"/>
    <ellipse fill="#2E75FE" transform="matrix(1 0 0 -1 0 334.713)" cx="209.563" cy="167.356" rx="4.833" ry="4.827"/>
    <ellipse fill="#2E75FE" transform="matrix(1 0 0 -1 0 274.097)" cx="16.431" cy="137.048" rx="4.833" ry="4.827"/>
    <ellipse fill="#2E75FE" transform="matrix(1 0 0 -1 0 417.737)" cx="264.654" cy="208.869" rx="4.833" ry="4.827"/>
    <ellipse fill="#2E75FE" transform="matrix(1 0 0 -1 0 264.92)" cx="26.498" cy="132.46" rx="4.833" ry="4.827"/>
    <ellipse fill="#2E75FE" transform="matrix(1 0 0 -1 0 398.43)" cx="249.19" cy="199.215" rx="4.833" ry="4.827"/>
    <ellipse fill="#2E75FE" transform="matrix(1 0 0 -1 0 316.512)" cx="19.029" cy="158.256" rx="4.833" ry="4.827"/>
    <ellipse fill="#2E75FE" transform="matrix(1 0 0 -1 0 358.436)" cx="299.415" cy="179.218" rx="4.833" ry="4.827"/>
    <ellipse fill="#2E75FE" transform="matrix(1 0 0 -1 0 281.474)" cx="42.292" cy="140.737" rx="4.833" ry="4.827"/>
    <ellipse fill="#2E75FE" transform="matrix(1 0 0 -1 0 407.869)" cx="274.487" cy="203.934" rx="4.833" ry="4.827"/>
    <ellipse fill="#2E75FE" transform="matrix(1 0 0 -1 0 421.599)" cx="252.089" cy="210.799" rx="4.833" ry="4.827"/>
    <ellipse fill="#2E75FE" transform="matrix(1 0 0 -1 0 352.567)" cx="190.103" cy="176.284" rx="4.833" ry="4.827"/>
    <ellipse fill="#2E75FE" transform="matrix(1 0 0 -1 0 382.983)" cx="154.471" cy="191.491" rx="4.833" ry="4.827"/>
    <ellipse fill="#2E75FE" transform="matrix(1 0 0 -1 0 297.543)" cx="40.833" cy="148.772" rx="4.833" ry="4.827"/>
    <ellipse fill="#2E75FE" transform="matrix(1 0 0 -1 0 351.599)" cx="168.739" cy="175.799" rx="4.833" ry="4.827"/>
    <g stroke="#D5E5FF" stroke-width="3">
      <path d="M90 68.522c-2.784-.431-6.364-2.588-9.148-.863-2.382 1.295-3.58 6.471-2.382 9.06 1.587 3.02 4.769 2.588 7.155 1.294 3.182-2.589 3.58-6.04 4.375-9.49M54.296 61.948c-1.637-.412-3.274-1.65-5.32-.412-1.638.824-1.233 2.474-2.047 3.711-2.047 2.887-5.73 3.299-8.595 5.36-2.87 2.063-4.502 5.362-8.595 6.186-4.912 1.238-9.823-.824-14.739-1.237 2.87 7.01 10.232 4.949 15.557 7.835 6.549 3.3 4.908 9.897 6.549 16.083 2.046 7.01 7.776 7.423 11.05.825 1.229-2.062 1.229-6.598 4.094-7.423 3.68-1.237 4.093 3.299 4.911 5.36 1.637-1.649 1.637-4.948 4.093-6.597 2.047-1.237 4.907-.412 6.549-2.062 2.865-2.887 0-10.31-2.456-12.784-2.456-4.536-15.962-7.01-11.05-14.845M40.986 110c-3.621 4.109-9.657 2.054-13.278 5.341-2.414 2.465-2.012 8.218-6.438 8.218.805-2.466-1.61-3.698-3.621-2.466-2.012 1.233-1.211 4.109-1.61 6.163-2.012 6.985-4.828-2.465-6.84-4.108-4.833-4.52-5.231 3.697-4.426 6.984 1.207 5.342 2.012 8.218-1.61 12.737-2.82 3.698-4.832 6.574-1.207 10.272 2.817 3.287 6.84 5.341 10.864 7.806 11.665 6.163-.406 9.45-4.43 15.613-2.41 3.698-1.203 6.985 3.223 7.396 4.825.41 7.243-2.055 8.45-6.574 1.207-4.93 2.817-9.86 4.024-14.791.804-4.93 4.023-7.396 8.446-7.807 5.234-.821 9.66 3.287 14.489 2.465 2.817-.41 3.617-2.465 5.23-4.108 2.013-2.055 5.232-2.876 7.244-4.93 1.61-1.644 1.61-4.93 3.621-6.164 1.605-.821 3.219 0 5.23-.41 4.423-1.644 2.013-6.985 5.232-9.45 2.816-2.465 9.657 2.876 11.262-1.644 1.211-3.698-4.824-6.163-7.239-7.806-5.23-3.287-10.461-7.807-16.497-9.86-3.621-1.234-7.243-.412-11.266-.412-2.415 0-5.634-1.232-8.853-2.465M85.404 109c-3.2 1.652-12.404 2.477-12.404 7.432 0 2.89 5.204 5.78 7.204 7.02 4.4 2.477 8 1.238 12.796 1.238-.396-2.89-2.396-4.542-3.596-6.606-2-2.89-2.8-6.194-4-9.084M364.265 26.077c-4.074-4.074-8.56-4.074-13.852-3.26-6.93 1.223-11.815.816-18.333-2.037-6.111-2.852-11.004-4.074-17.519-1.63-6.519 2.445-12.222 2.445-19.148.408-3.26-.815-6.519-2.037-9.37-4.075-2.038-1.222-3.26-3.26-5.297-4.482-1.63-.815-4.074-1.222-6.111-1.222-2.449.407-4.486 2.037-6.926 2.037-6.519 0-12.63-4.074-18.741-5.704-7.337-1.63-14.26-4.075-21.597-6.112.82 4.075-2.848 6.927-6.11 8.557-2.038-4.89-5.293-10.187-11.404-7.335 4.481 6.112 3.666 12.632-4.482 13.446-9.778.815-21.593-1.63-30.556-4.889-1.222 3.667.815 7.334-2.851 10.186-2.852 2.445-6.926 2.445-10.186 2.038-2.444 0-11.819 0-13.037-2.445 2.037 3.26-7.74 9.371-8.967 11.816-2.44-2.445-6.111-2.445-9.366-2.445 2.852 2.445 8.963 8.965 2.852 11.41-2.852 1.222-6.519-.408-8.963-.408-3.667 0-6.93 1.63-10.186 2.852-4.481 1.63-8.967 2.445-11.004 7.334-1.218 3.26-1.625 6.927-2.848 10.187-1.226 4.074-2.852 8.556-3.263 13.038 2.856-.815 4.074-4.074 7.337-4.074 2.445 0 4.482 2.444 3.667 4.89-1.222 3.259-4.074 1.222-6.518 1.63-3.667.814-3.26 5.296-2.449 8.148.412 3.26-.81 11.002 2.449 13.039 4.889 3.26 11-4.482 15.885-1.63 2.855 1.63 1.226 5.297-1.219 6.112-2.856.815-6.11-.815-9.37.407-6.111 2.038-6.926 9.78-4.889 14.669 2.444 6.52 7.74 10.186 8.963 17.113.403 2.445.403 7.742 2.852 9.372 1.625 1.222 3.26.407 5.296.814 6.515.815 8.963 8.557 15.482 9.78 4.074.814 8.555-.408 11-3.668 2.44-3.26 2.44-8.149 4.477-11.409 3.264 3.26 8.56 3.668 10.597 8.15 2.444 5.704-2.448 11.408-4.486 16.705-2.44 6.112-1.218 13.039-3.662 19.15-.815 2.446-2.449 4.483-3.667 6.928-1.222 3.26-1.222 6.926-2.856 10.594 3.264.814 6.523 1.63 9.375-.408 2.037-1.63 3.259-4.074 5.296-6.112 4.482-4.482 10.593-6.112 16.296-7.334 2.445-.407 4.482-.815 6.519-2.445 1.63-1.222 2.444-4.074 4.889-4.89 5.296-1.63 8.148 6.113 11 8.965 2.037-6.927 9.37-3.667 13.037-.408 2.848 2.445 5.296 4.89 8.96 6.112 3.67 1.223 6.522 1.223 9.374 4.075 2.444 2.445 4.074 3.667 7.74 4.482 4.074.407 5.293 1.63 6.112 5.704 1.63 6.927 8.963 13.446 14.259 17.928 2.852 2.445 5.704 4.482 8.555 6.52 2.445 1.63 5.297 5.297 8.556 5.704 3.26.408 5.296-2.037 7.333-4.074 2.445-2.445 5.704-4.483 8.963-5.705 7.334-2.445 11.408 1.222 16.7 5.297 3.671 2.852 8.967 4.482 13.041.815 6.519-5.704 3.256-17.52 7.741-24.447 2.852-4.483 6.926-4.075 11.408-4.483 5.296-.814 8.148-4.482 3.666-8.964-5.703-5.297-7.74-8.964-8.148-17.113 0-4.074-.407-8.149-2.037-11.816-1.63-3.667-4.481-6.927-5.3-11.001-.404-3.668.411-7.335 1.226-10.594.407-4.482.407-8.964.407-13.854-.407-8.964-2.037-17.52-2.037-26.485 0-9.371 2.44-17.113 6.515-25.262 4.074-8.557 6.93-16.706 9.782-26.077 1.222-3.667 2.44-8.557 5.296-11.409 2.037-2.037 5.292-2.852 8.148-3.667 2.852-.815 6.519-1.222 7.33-4.482.819-3.26-3.256-5.705-2.44-8.557.403.408.403.815.814.815-.411 0-.815-1.222-1.222-1.63.407 0 .407 1.223 1.222.815 0 .408-.815-.815-1.222-.815 0 0 .81 1.223 1.222.815 0 .408-.411-.815-1.222-.815 0 0 1.222 2.038 1.222.815-5.704-5.704.407 1.63 0 0z"/>
    </g>
  </g>
</svg>
