<svg xmlns="http://www.w3.org/2000/svg" viewBox="0 0 521 534">
  <g fill="none" fill-rule="evenodd">
    <g transform="translate(8.406 12.369)">
      <circle fill="#2E75FE" cx="227.234" cy="167.115" r="5.123"/>
      <circle fill="#2E75FE" cx="370.04" cy="168.03" r="5.123"/>
      <circle fill="#2E75FE" cx="298.04" cy="326.03" r="5.123"/>
      <circle fill="#2E75FE" transform="matrix(1 0 0 -1 0 271.094)" cx="408.4" cy="135.547" r="5"/>
      <circle fill="#2E75FE" transform="matrix(1 0 0 -1 0 873.094)" cx="464.4" cy="436.547" r="5"/>
      <circle fill="#2E75FE" transform="matrix(1 0 0 -1 0 911.094)" cx="451.4" cy="455.547" r="5"/>
      <circle fill="#2E75FE" transform="matrix(1 0 0 -1 0 871.094)" cx="344.4" cy="435.547" r="5"/>
      <circle fill="#2E75FE" transform="matrix(1 0 0 -1 0 643.094)" cx="425.4" cy="321.547" r="5"/>
      <circle fill="#2E75FE" transform="matrix(1 0 0 -1 0 351.094)" cx="257.4" cy="175.547" r="5"/>
      <circle fill="#2E75FE" transform="matrix(1 0 0 -1 0 637.094)" cx="266.4" cy="318.547" r="5"/>
      <circle fill="#2E75FE" transform="matrix(1 0 0 -1 0 843.094)" cx="388.4" cy="421.547" r="5"/>
      <circle fill="#2E75FE" transform="matrix(1 0 0 -1 0 753.094)" cx="345.4" cy="376.547" r="5"/>
      <circle fill="#2E75FE" transform="matrix(1 0 0 -1 0 383.094)" cx="376.4" cy="191.547" r="5"/>
      <circle fill="#2E75FE" transform="matrix(1 0 0 -1 0 851.094)" cx="475.4" cy="425.547" r="5"/>
      <circle fill="#2E75FE" transform="matrix(1 0 0 -1 0 839.094)" cx="435.4" cy="419.547" r="5"/>
      <circle fill="#2E75FE" transform="matrix(1 0 0 -1 0 805.094)" cx="293.4" cy="402.547" r="5"/>
      <circle fill="#2E75FE" transform="matrix(1 0 0 -1 0 459.094)" cx="152.4" cy="229.547" r="5"/>
      <circle fill="#2E75FE" transform="matrix(1 0 0 -1 0 409.094)" cx="383.4" cy="204.547" r="5"/>
      <circle fill="#2E75FE" transform="matrix(1 0 0 -1 0 845.094)" cx="326.4" cy="422.547" r="5"/>
      <circle fill="#2E75FE" transform="matrix(1 0 0 -1 0 833.094)" cx="342.4" cy="416.547" r="5"/>
      <circle fill="#2E75FE" transform="matrix(1 0 0 -1 0 621.094)" cx="218.4" cy="310.547" r="5"/>
      <circle fill="#2E75FE" transform="matrix(1 0 0 -1 0 799.094)" cx="418.4" cy="399.547" r="5"/>
      <circle fill="#2E75FE" transform="matrix(1 0 0 -1 0 823.094)" cx="453.4" cy="411.547" r="5"/>
      <circle fill="#2E75FE" transform="matrix(1 0 0 -1 0 737.094)" cx="330.4" cy="368.547" r="5"/>
      <circle fill="#2E75FE" transform="matrix(1 0 0 -1 0 683.094)" cx="225.4" cy="341.547" r="5"/>
      <circle fill="#2E75FE" transform="matrix(1 0 0 -1 0 667.094)" cx="196.4" cy="333.547" r="5"/>
      <circle fill="#2E75FE" transform="matrix(1 0 0 -1 0 853.094)" cx="337.4" cy="426.547" r="5"/>
      <circle fill="#2E75FE" transform="matrix(1 0 0 -1 0 519.094)" cx="325.4" cy="259.547" r="5"/>
      <circle fill="#2E75FE" transform="matrix(1 0 0 -1 0 591.094)" cx="441.4" cy="295.547" r="5"/>
      <circle fill="#2E75FE" transform="matrix(1 0 0 -1 0 819.094)" cx="428.4" cy="409.547" r="5"/>
      <circle fill="#2E75FE" transform="matrix(1 0 0 -1 0 865.094)" cx="319.4" cy="432.547" r="5"/>
      <circle fill="#2E75FE" transform="matrix(1 0 0 -1 0 285.094)" cx="192.4" cy="142.547" r="5"/>
      <circle fill="#2E75FE" transform="matrix(1 0 0 -1 0 827.094)" cx="306.4" cy="413.547" r="5"/>
      <circle fill="#2E75FE" transform="matrix(1 0 0 -1 0 901.094)" cx="414.4" cy="450.547" r="5"/>
      <circle fill="#2E75FE" transform="matrix(1 0 0 -1 0 745.094)" cx="437.4" cy="372.547" r="5"/>
      <circle fill="#2E75FE" transform="matrix(1 0 0 -1 0 613.094)" cx="435.4" cy="306.547" r="5"/>
      <circle fill="#2E75FE" transform="matrix(1 0 0 -1 0 873.094)" cx="453.4" cy="436.547" r="5"/>
      <circle fill="#2E75FE" transform="matrix(1 0 0 -1 0 859.094)" cx="389.4" cy="429.547" r="5"/>
      <circle fill="#2E75FE" transform="matrix(1 0 0 -1 0 897.094)" cx="426.4" cy="448.547" r="5"/>
      <circle fill="#2E75FE" transform="matrix(1 0 0 -1 0 875.094)" cx="415.4" cy="437.547" r="5"/>
      <circle fill="#2E75FE" transform="matrix(1 0 0 -1 0 811.094)" cx="313.4" cy="405.547" r="5"/>
      <circle fill="#2E75FE" transform="matrix(1 0 0 -1 0 917.094)" cx="400.4" cy="458.547" r="5"/>
      <circle fill="#2E75FE" transform="matrix(1 0 0 -1 0 893.094)" cx="394.4" cy="446.547" r="5"/>
      <circle fill="#2E75FE" transform="matrix(1 0 0 -1 0 911.094)" cx="389.4" cy="455.547" r="5"/>
      <circle fill="#2E75FE" transform="matrix(1 0 0 -1 0 905.094)" cx="378.4" cy="452.547" r="5"/>
      <circle fill="#2E75FE" transform="matrix(1 0 0 -1 0 961.094)" cx="270.4" cy="480.547" r="5"/>
      <circle fill="#2E75FE" transform="matrix(1 0 0 -1 0 441.094)" cx="244.4" cy="220.547" r="5"/>
      <circle fill="#2E75FE" transform="matrix(1 0 0 -1 0 817.094)" cx="275.4" cy="408.547" r="5"/>
      <circle fill="#2E75FE" transform="matrix(1 0 0 -1 0 963.094)" cx="252.4" cy="481.547" r="5"/>
      <circle fill="#2E75FE" transform="matrix(1 0 0 -1 0 833.094)" cx="377.4" cy="416.547" r="5"/>
      <circle fill="#2E75FE" transform="matrix(1 0 0 -1 0 745.094)" cx="402.4" cy="372.547" r="5"/>
      <circle fill="#2E75FE" transform="matrix(1 0 0 -1 0 1007.094)" cx="270.4" cy="503.547" r="5"/>
      <circle fill="#2E75FE" transform="matrix(1 0 0 -1 0 983.094)" cx="261.4" cy="491.547" r="5"/>
      <circle fill="#2E75FE" transform="matrix(1 0 0 -1 0 495.094)" cx="153.4" cy="247.547" r="5"/>
      <circle fill="#2E75FE" transform="matrix(1 0 0 -1 0 931.094)" cx="251.4" cy="465.547" r="5"/>
      <circle fill="#2E75FE" transform="matrix(1 0 0 -1 0 897.094)" cx="243.4" cy="448.547" r="5"/>
      <circle fill="#2E75FE" transform="matrix(1 0 0 -1 0 835.094)" cx="276.4" cy="417.547" r="5"/>
      <circle fill="#2E75FE" transform="matrix(1 0 0 -1 0 869.094)" cx="403.4" cy="434.547" r="5"/>
      <circle fill="#2E75FE" transform="matrix(1 0 0 -1 0 397.094)" cx="211.4" cy="198.547" r="5"/>
      <circle fill="#2E75FE" transform="matrix(1 0 0 -1 0 399.094)" cx="271.4" cy="199.547" r="5"/>
      <circle fill="#2E75FE" transform="matrix(1 0 0 -1 0 811.094)" cx="239.4" cy="405.547" r="5"/>
      <circle fill="#2E75FE" transform="matrix(1 0 0 -1 0 931.094)" cx="290.4" cy="465.547" r="5"/>
      <circle fill="#2E75FE" transform="matrix(1 0 0 -1 0 933.094)" cx="278.4" cy="466.547" r="5"/>
      <circle fill="#2E75FE" transform="matrix(1 0 0 -1 0 933.094)" cx="263.4" cy="466.547" r="5"/>
      <circle fill="#2E75FE" transform="matrix(1 0 0 -1 0 915.094)" cx="253.4" cy="457.547" r="5"/>
      <circle fill="#2E75FE" transform="matrix(1 0 0 -1 0 945.094)" cx="240.4" cy="472.547" r="5"/>
      <circle fill="#2E75FE" transform="matrix(1 0 0 -1 0 899.094)" cx="231.4" cy="449.547" r="5"/>
      <circle fill="#2E75FE" transform="matrix(1 0 0 -1 0 407.094)" cx="413.4" cy="203.547" r="5"/>
      <circle fill="#2E75FE" transform="matrix(1 0 0 -1 0 497.094)" cx="216.4" cy="248.547" r="5"/>
      <circle fill="#2E75FE" transform="matrix(1 0 0 -1 0 547.094)" cx="226.4" cy="273.547" r="5"/>
      <circle fill="#2E75FE" transform="matrix(1 0 0 -1 0 595.094)" cx="354.4" cy="297.547" r="5"/>
      <circle fill="#2E75FE" transform="matrix(1 0 0 -1 0 315.094)" cx="211.4" cy="157.547" r="5"/>
      <circle fill="#2E75FE" transform="matrix(1 0 0 -1 0 523.094)" cx="158.4" cy="261.547" r="5"/>
      <circle fill="#2E75FE" transform="matrix(1 0 0 -1 0 923.094)" cx="190.4" cy="461.547" r="5"/>
      <circle fill="#2E75FE" transform="matrix(1 0 0 -1 0 853.094)" cx="223.4" cy="426.547" r="5"/>
      <circle fill="#2E75FE" transform="matrix(1 0 0 -1 0 563.094)" cx="365.4" cy="281.547" r="5"/>
      <circle fill="#2E75FE" transform="matrix(1 0 0 -1 0 339.094)" cx="315.4" cy="169.547" r="5"/>
      <circle fill="#2E75FE" transform="matrix(1 0 0 -1 0 471.094)" cx="126.4" cy="235.547" r="5"/>
      <circle fill="#2E75FE" transform="matrix(1 0 0 -1 0 447.094)" cx="163.4" cy="223.547" r="5"/>
      <circle fill="#2E75FE" transform="matrix(1 0 0 -1 0 369.094)" cx="394.4" cy="184.547" r="5"/>
      <circle fill="#2E75FE" transform="matrix(1 0 0 -1 0 485.094)" cx="364.4" cy="242.547" r="5"/>
      <circle fill="#2E75FE" transform="matrix(1 0 0 -1 0 619.094)" cx="256.4" cy="309.547" r="5"/>
      <circle fill="#2E75FE" transform="matrix(1 0 0 -1 0 345.094)" cx="441.4" cy="172.547" r="5"/>
      <circle fill="#2E75FE" transform="matrix(1 0 0 -1 0 465.094)" cx="213.4" cy="232.547" r="5"/>
      <circle fill="#2E75FE" transform="matrix(1 0 0 -1 0 333.094)" cx="401.4" cy="166.547" r="5"/>
      <circle fill="#2E75FE" transform="matrix(1 0 0 -1 0 787.094)" cx="201.4" cy="393.547" r="5"/>
      <circle fill="#2E75FE" transform="matrix(1 0 0 -1 0 335.094)" cx="452.4" cy="167.547" r="5"/>
      <circle fill="#2E75FE" transform="matrix(1 0 0 -1 0 463.094)" cx="321.4" cy="231.547" r="5"/>
      <circle fill="#2E75FE" transform="matrix(1 0 0 -1 0 719.094)" cx="269.4" cy="359.547" r="5"/>
      <circle fill="#2E75FE" transform="matrix(1 0 0 -1 0 421.094)" cx="204.4" cy="210.547" r="5"/>
      <circle fill="#2E75FE" transform="matrix(1 0 0 -1 0 801.094)" cx="168.4" cy="400.547" r="5"/>
      <circle fill="#2E75FE" transform="matrix(1 0 0 -1 0 615.094)" cx="139.4" cy="307.547" r="5"/>
      <circle fill="#2E75FE" transform="matrix(1 0 0 -1 0 709.094)" cx="209.4" cy="354.547" r="5"/>
      <circle fill="#2E75FE" transform="matrix(1 0 0 -1 0 683.094)" cx="282.4" cy="341.547" r="5"/>
      <circle fill="#2E75FE" transform="matrix(1 0 0 -1 0 723.094)" cx="152.4" cy="361.547" r="5"/>
      <circle fill="#2E75FE" transform="matrix(1 0 0 -1 0 743.094)" cx="186.4" cy="371.547" r="5"/>
      <circle fill="#2E75FE" transform="matrix(1 0 0 -1 0 655.094)" cx="256.4" cy="327.547" r="5"/>
      <circle fill="#2E75FE" transform="matrix(1 0 0 -1 0 699.094)" cx="192.4" cy="349.547" r="5"/>
      <circle fill="#2E75FE" transform="matrix(1 0 0 -1 0 683.094)" cx="267.4" cy="341.547" r="5"/>
      <circle fill="#2E75FE" transform="matrix(1 0 0 -1 0 583.094)" cx="191.4" cy="291.547" r="5"/>
      <circle fill="#2E75FE" transform="matrix(1 0 0 -1 0 649.094)" cx="228.4" cy="324.547" r="5"/>
      <circle fill="#2E75FE" transform="matrix(1 0 0 -1 0 669.094)" cx="240.4" cy="334.547" r="5"/>
      <circle fill="#2E75FE" transform="matrix(1 0 0 -1 0 687.094)" cx="165.4" cy="343.547" r="5"/>
      <circle fill="#2E75FE" transform="matrix(1 0 0 -1 0 767.094)" cx="161.4" cy="383.547" r="5"/>
      <circle fill="#2E75FE" transform="matrix(1 0 0 -1 0 775.094)" cx="185.4" cy="387.547" r="5"/>
      <circle fill="#2E75FE" transform="matrix(1 0 0 -1 0 623.094)" cx="165.4" cy="311.547" r="5"/>
      <circle fill="#2E75FE" transform="matrix(1 0 0 -1 0 713.094)" cx="227.4" cy="356.547" r="5"/>
      <circle fill="#2E75FE" transform="matrix(1 0 0 -1 0 757.094)" cx="143.4" cy="378.547" r="5"/>
      <circle fill="#2E75FE" transform="matrix(1 0 0 -1 0 675.094)" cx="210.4" cy="337.547" r="5"/>
      <circle fill="#2E75FE" transform="matrix(1 0 0 -1 0 641.094)" cx="204.4" cy="320.547" r="5"/>
      <circle fill="#2E75FE" transform="matrix(1 0 0 -1 0 649.094)" cx="163.4" cy="324.547" r="5"/>
      <circle fill="#2E75FE" transform="matrix(1 0 0 -1 0 287.094)" cx="281.4" cy="143.547" r="5"/>
      <circle fill="#2E75FE" transform="matrix(1 0 0 -1 0 325.094)" cx="282.4" cy="162.547" r="5"/>
      <circle fill="#2E75FE" transform="matrix(1 0 0 -1 0 401.094)" cx="114.4" cy="200.547" r="5"/>
      <circle fill="#2E75FE" transform="matrix(1 0 0 -1 0 255.094)" cx="296.4" cy="127.547" r="5"/>
      <circle fill="#2E75FE" transform="matrix(1 0 0 -1 0 367.094)" cx="126.4" cy="183.547" r="5"/>
      <circle fill="#2E75FE" transform="matrix(1 0 0 -1 0 245.094)" cx="208.4" cy="122.547" r="5"/>
      <circle fill="#2E75FE" transform="matrix(1 0 0 -1 0 273.094)" cx="178.4" cy="136.547" r="5"/>
      <circle fill="#2E75FE" transform="matrix(1 0 0 -1 0 371.094)" cx="322.4" cy="185.547" r="5"/>
      <circle fill="#2E75FE" transform="matrix(1 0 0 -1 0 523.094)" cx="189.4" cy="261.547" r="5"/>
      <circle fill="#2E75FE" transform="matrix(1 0 0 -1 0 519.094)" cx="414.4" cy="259.547" r="5"/>
      <circle fill="#2E75FE" transform="matrix(1 0 0 -1 0 769.094)" cx="439.4" cy="384.547" r="5"/>
      <circle fill="#2E75FE" transform="matrix(1 0 0 -1 0 703.094)" cx="351.4" cy="351.547" r="5"/>
      <circle fill="#2E75FE" transform="matrix(1 0 0 -1 0 483.094)" cx="115.4" cy="241.547" r="5"/>
      <circle fill="#2E75FE" transform="matrix(1 0 0 -1 0 351.094)" cx="336.4" cy="175.547" r="5"/>
      <circle fill="#2E75FE" transform="matrix(1 0 0 -1 0 367.094)" cx="215.4" cy="183.547" r="5"/>
      <circle fill="#2E75FE" transform="matrix(1 0 0 -1 0 363.094)" cx="294.4" cy="181.547" r="5"/>
      <circle fill="#2E75FE" transform="matrix(1 0 0 -1 0 323.094)" cx="302.4" cy="161.547" r="5"/>
      <circle fill="#2E75FE" transform="matrix(1 0 0 -1 0 487.094)" cx="331.4" cy="243.547" r="5"/>
      <circle fill="#2E75FE" transform="matrix(1 0 0 -1 0 391.094)" cx="311.4" cy="195.547" r="5"/>
      <circle fill="#2E75FE" transform="matrix(1 0 0 -1 0 289.094)" cx="308.4" cy="144.547" r="5"/>
      <circle fill="#2E75FE" transform="matrix(1 0 0 -1 0 313.094)" cx="324.4" cy="156.547" r="5"/>
      <circle fill="#2E75FE" transform="matrix(1 0 0 -1 0 417.094)" cx="95.4" cy="208.547" r="5"/>
      <circle fill="#2E75FE" transform="matrix(1 0 0 -1 0 225.094)" cx="248.4" cy="112.547" r="5"/>
      <circle fill="#2E75FE" transform="matrix(1 0 0 -1 0 221.094)" cx="284.4" cy="110.547" r="5"/>
      <circle fill="#2E75FE" transform="matrix(1 0 0 -1 0 579.094)" cx="406.4" cy="289.547" r="5"/>
      <circle fill="#2E75FE" transform="matrix(1 0 0 -1 0 369.094)" cx="446.4" cy="184.547" r="5"/>
      <circle fill="#2E75FE" transform="matrix(1 0 0 -1 0 473.094)" cx="302.4" cy="236.547" r="5"/>
      <circle fill="#2E75FE" transform="matrix(1 0 0 -1 0 629.094)" cx="385.4" cy="314.547" r="5"/>
      <circle fill="#2E75FE" transform="matrix(1 0 0 -1 0 461.094)" cx="256.4" cy="230.547" r="5"/>
      <circle fill="#2E75FE" transform="matrix(1 0 0 -1 0 483.094)" cx="388.4" cy="241.547" r="5"/>
      <circle fill="#2E75FE" transform="matrix(1 0 0 -1 0 497.094)" cx="251.4" cy="248.547" r="5"/>
      <circle fill="#2E75FE" transform="matrix(1 0 0 -1 0 405.094)" cx="471.4" cy="202.547" r="5"/>
      <circle fill="#2E75FE" transform="matrix(1 0 0 -1 0 285.094)" cx="482.4" cy="142.547" r="5"/>
      <circle fill="#2E75FE" transform="matrix(1 0 0 -1 0 539.094)" cx="374.4" cy="269.547" r="5"/>
      <circle fill="#2E75FE" transform="matrix(1 0 0 -1 0 319.094)" cx="465.4" cy="159.547" r="5"/>
      <circle fill="#2E75FE" transform="matrix(1 0 0 -1 0 225.094)" cx="387.4" cy="112.547" r="5"/>
      <circle fill="#2E75FE" transform="matrix(1 0 0 -1 0 637.094)" cx="348.4" cy="318.547" r="5"/>
      <circle fill="#2E75FE" transform="matrix(1 0 0 -1 0 455.094)" cx="226.4" cy="227.547" r="5"/>
      <circle fill="#2E75FE" transform="matrix(1 0 0 -1 0 639.094)" cx="407.4" cy="319.547" r="5"/>
      <circle fill="#2E75FE" transform="matrix(1 0 0 -1 0 597.094)" cx="340.4" cy="298.547" r="5"/>
      <circle fill="#2E75FE" transform="matrix(1 0 0 -1 0 497.094)" cx="313.4" cy="248.547" r="5"/>
      <circle fill="#2E75FE" transform="matrix(1 0 0 -1 0 659.094)" cx="447.4" cy="329.547" r="5"/>
      <circle fill="#2E75FE" transform="matrix(1 0 0 -1 0 335.094)" cx="419.4" cy="167.547" r="5"/>
      <circle fill="#2E75FE" transform="matrix(1 0 0 -1 0 331.094)" cx="482.4" cy="165.547" r="5"/>
      <circle fill="#2E75FE" transform="matrix(1 0 0 -1 0 277.094)" cx="459.4" cy="138.547" r="5"/>
      <circle fill="#2E75FE" transform="matrix(1 0 0 -1 0 445.094)" cx="387.4" cy="222.547" r="5"/>
      <circle fill="#2E75FE" transform="matrix(1 0 0 -1 0 301.094)" cx="450.4" cy="150.547" r="5"/>
      <circle fill="#2E75FE" transform="matrix(1 0 0 -1 0 433.094)" cx="259.4" cy="216.547" r="5"/>
      <circle fill="#2E75FE" transform="matrix(1 0 0 -1 0 303.094)" cx="437.4" cy="151.547" r="5"/>
      <circle fill="#2E75FE" transform="matrix(1 0 0 -1 0 221.094)" cx="320.4" cy="110.547" r="5"/>
      <circle fill="#2E75FE" transform="matrix(1 0 0 -1 0 301.094)" cx="348.4" cy="150.547" r="5"/>
      <circle fill="#2E75FE" transform="matrix(1 0 0 -1 0 271.094)" cx="334.4" cy="135.547" r="5"/>
      <circle fill="#2E75FE" transform="matrix(1 0 0 -1 0 265.094)" cx="366.4" cy="132.547" r="5"/>
      <circle fill="#2E75FE" transform="matrix(1 0 0 -1 0 457.094)" cx="369.4" cy="228.547" r="5"/>
      <circle fill="#2E75FE" transform="matrix(1 0 0 -1 0 245.094)" cx="399.4" cy="122.547" r="5"/>
      <circle fill="#2E75FE" transform="matrix(1 0 0 -1 0 685.094)" cx="454.4" cy="342.547" r="5"/>
      <circle fill="#2E75FE" transform="matrix(1 0 0 -1 0 241.094)" cx="362.4" cy="120.547" r="5"/>
      <circle fill="#2E75FE" transform="matrix(1 0 0 -1 0 669.094)" cx="463.4" cy="334.547" r="5"/>
      <circle fill="#2E75FE" transform="matrix(1 0 0 -1 0 255.094)" cx="345.4" cy="127.547" r="5"/>
      <circle fill="#2E75FE" transform="matrix(1 0 0 -1 0 657.094)" cx="355.4" cy="328.547" r="5"/>
      <circle fill="#2E75FE" transform="matrix(1 0 0 -1 0 715.094)" cx="420.4" cy="357.547" r="5"/>
      <circle fill="#2E75FE" transform="matrix(1 0 0 -1 0 323.094)" cx="336.4" cy="161.547" r="5"/>
      <circle fill="#2E75FE" transform="matrix(1 0 0 -1 0 385.094)" cx="299.4" cy="192.547" r="5"/>
      <circle fill="#2E75FE" transform="matrix(1 0 0 -1 0 381.094)" cx="285.4" cy="190.547" r="5"/>
      <circle fill="#2E75FE" transform="matrix(1 0 0 -1 0 317.094)" cx="251.4" cy="158.547" r="5"/>
      <circle fill="#2E75FE" transform="matrix(1 0 0 -1 0 347.094)" cx="148.4" cy="173.547" r="5"/>
      <circle fill="#2E75FE" transform="matrix(1 0 0 -1 0 575.094)" cx="245.4" cy="287.547" r="5"/>
      <circle fill="#2E75FE" transform="matrix(1 0 0 -1 0 327.094)" cx="197.4" cy="163.547" r="5"/>
      <circle fill="#2E75FE" transform="matrix(1 0 0 -1 0 267.094)" cx="230.4" cy="133.547" r="5"/>
      <circle fill="#2E75FE" transform="matrix(1 0 0 -1 0 287.094)" cx="211.4" cy="143.547" r="5"/>
      <circle fill="#2E75FE" transform="matrix(1 0 0 -1 0 313.094)" cx="126.4" cy="156.547" r="5"/>
      <circle fill="#2E75FE" transform="matrix(1 0 0 -1 0 359.094)" cx="85.4" cy="179.547" r="5"/>
      <circle fill="#2E75FE" transform="matrix(1 0 0 -1 0 689.094)" cx="433.4" cy="344.547" r="5"/>
      <circle fill="#2E75FE" transform="matrix(1 0 0 -1 0 559.094)" cx="383.4" cy="279.547" r="5"/>
      <circle fill="#2E75FE" transform="matrix(1 0 0 -1 0 485.094)" cx="171.4" cy="242.547" r="5"/>
      <circle fill="#2E75FE" transform="matrix(1 0 0 -1 0 537.094)" cx="305.4" cy="268.547" r="5"/>
      <circle fill="#2E75FE" transform="matrix(1 0 0 -1 0 465.094)" cx="172.4" cy="232.547" r="5"/>
      <circle fill="#2E75FE" transform="matrix(1 0 0 -1 0 703.094)" cx="380.4" cy="351.547" r="5"/>
      <circle fill="#2E75FE" transform="matrix(1 0 0 -1 0 557.094)" cx="399.4" cy="278.547" r="5"/>
      <circle fill="#2E75FE" transform="matrix(1 0 0 -1 0 611.094)" cx="365.4" cy="305.547" r="5"/>
      <circle fill="#2E75FE" transform="matrix(1 0 0 -1 0 587.094)" cx="319.4" cy="293.547" r="5"/>
      <circle fill="#2E75FE" transform="matrix(1 0 0 -1 0 259.094)" cx="436.4" cy="129.547" r="5"/>
      <circle fill="#2E75FE" transform="matrix(1 0 0 -1 0 449.094)" cx="337.4" cy="224.547" r="5"/>
      <circle fill="#2E75FE" transform="matrix(1 0 0 -1 0 367.094)" cx="183.4" cy="183.547" r="5"/>
      <circle fill="#2E75FE" transform="matrix(1 0 0 -1 0 383.094)" cx="262.4" cy="191.547" r="5"/>
      <circle fill="#2E75FE" transform="matrix(1 0 0 -1 0 371.094)" cx="238.4" cy="185.547" r="5"/>
      <circle fill="#2E75FE" transform="matrix(1 0 0 -1 0 317.094)" cx="216.4" cy="158.547" r="5"/>
      <circle fill="#2E75FE" transform="matrix(1 0 0 -1 0 275.094)" cx="255.4" cy="137.547" r="5"/>
      <circle fill="#2E75FE" transform="matrix(1 0 0 -1 0 573.094)" cx="232.4" cy="286.547" r="5"/>
      <circle fill="#2E75FE" transform="matrix(1 0 0 -1 0 419.094)" cx="245.4" cy="209.547" r="5"/>
      <circle fill="#2E75FE" transform="matrix(1 0 0 -1 0 537.094)" cx="265.4" cy="268.547" r="5"/>
      <circle fill="#2E75FE" transform="matrix(1 0 0 -1 0 413.094)" cx="286.4" cy="206.547" r="5"/>
      <circle fill="#2E75FE" transform="matrix(1 0 0 -1 0 703.094)" cx="251.4" cy="351.547" r="5"/>
      <circle fill="#2E75FE" transform="matrix(1 0 0 -1 0 489.094)" cx="406.4" cy="244.547" r="5"/>
      <circle fill="#2E75FE" transform="matrix(1 0 0 -1 0 783.094)" cx="250.4" cy="391.547" r="5"/>
      <circle fill="#2E75FE" transform="matrix(1 0 0 -1 0 761.094)" cx="274.4" cy="380.547" r="5"/>
      <circle fill="#2E75FE" transform="matrix(1 0 0 -1 0 449.094)" cx="421.4" cy="224.547" r="5"/>
      <circle fill="#2E75FE" transform="matrix(1 0 0 -1 0 413.094)" cx="300.4" cy="206.547" r="5"/>
      <circle fill="#2E75FE" transform="matrix(1 0 0 -1 0 399.094)" cx="358.4" cy="199.547" r="5"/>
      <circle fill="#2E75FE" transform="matrix(1 0 0 -1 0 451.094)" cx="449.4" cy="225.547" r="5"/>
      <circle fill="#2E75FE" transform="matrix(1 0 0 -1 0 601.094)" cx="204.4" cy="300.547" r="5"/>
      <circle fill="#2E75FE" transform="matrix(1 0 0 -1 0 447.094)" cx="275.4" cy="223.547" r="5"/>
      <circle fill="#2E75FE" transform="matrix(1 0 0 -1 0 479.094)" cx="287.4" cy="239.547" r="5"/>
      <circle fill="#2E75FE" transform="matrix(1 0 0 -1 0 419.094)" cx="272.4" cy="209.547" r="5"/>
      <circle fill="#2E75FE" transform="matrix(1 0 0 -1 0 557.094)" cx="134.4" cy="278.547" r="5"/>
      <circle fill="#2E75FE" transform="matrix(1 0 0 -1 0 627.094)" cx="180.4" cy="313.547" r="5"/>
      <circle fill="#2E75FE" transform="matrix(1 0 0 -1 0 483.094)" cx="206.4" cy="241.547" r="5"/>
      <circle fill="#2E75FE" transform="matrix(1 0 0 -1 0 489.094)" cx="233.4" cy="244.547" r="5"/>
      <circle fill="#2E75FE" transform="matrix(1 0 0 -1 0 391.094)" cx="326.4" cy="195.547" r="5"/>
      <circle fill="#2E75FE" transform="matrix(1 0 0 -1 0 437.094)" cx="143.4" cy="218.547" r="5"/>
      <circle fill="#2E75FE" transform="matrix(1 0 0 -1 0 379.094)" cx="349.4" cy="189.547" r="5"/>
      <circle fill="#2E75FE" transform="matrix(1 0 0 -1 0 391.094)" cx="127.4" cy="195.547" r="5"/>
      <circle fill="#2E75FE" transform="matrix(1 0 0 -1 0 413.094)" cx="222.4" cy="206.547" r="5"/>
      <circle fill="#2E75FE" transform="matrix(1 0 0 -1 0 839.094)" cx="246.4" cy="419.547" r="5"/>
      <circle fill="#2E75FE" transform="matrix(1 0 0 -1 0 597.094)" cx="180.4" cy="298.547" r="5"/>
      <circle fill="#2E75FE" transform="matrix(1 0 0 -1 0 905.094)" cx="272.4" cy="452.547" r="5"/>
      <circle fill="#2E75FE" transform="matrix(1 0 0 -1 0 805.094)" cx="226.4" cy="402.547" r="5"/>
      <circle fill="#2E75FE" transform="matrix(1 0 0 -1 0 613.094)" cx="292.4" cy="306.547" r="5"/>
      <circle fill="#2E75FE" transform="matrix(1 0 0 -1 0 265.094)" cx="424.4" cy="132.547" r="5"/>
      <circle fill="#2E75FE" transform="matrix(1 0 0 -1 0 981.094)" cx="275.4" cy="490.547" r="5"/>
      <circle fill="#2E75FE" transform="matrix(1 0 0 -1 0 953.094)" cx="288.4" cy="476.547" r="5"/>
      <circle fill="#2E75FE" transform="matrix(1 0 0 -1 0 377.094)" cx="476.4" cy="188.547" r="5"/>
      <circle fill="#2E75FE" transform="matrix(1 0 0 -1 0 389.094)" cx="248.4" cy="194.547" r="5"/>
      <circle fill="#2E75FE" transform="matrix(1 0 0 -1 0 897.094)" cx="167.4" cy="448.547" r="5"/>
      <circle fill="#2E75FE" transform="matrix(1 0 0 -1 0 805.094)" cx="188.4" cy="402.547" r="5"/>
      <circle fill="#2E75FE" transform="matrix(1 0 0 -1 0 873.094)" cx="215.4" cy="436.547" r="5"/>
      <circle fill="#2E75FE" transform="matrix(1 0 0 -1 0 671.094)" cx="308.4" cy="335.547" r="5"/>
      <circle fill="#2E75FE" transform="matrix(1 0 0 -1 0 345.094)" cx="384.4" cy="172.547" r="5"/>
      <circle fill="#2E75FE" transform="matrix(1 0 0 -1 0 849.094)" cx="281.4" cy="424.547" r="5"/>
      <circle fill="#2E75FE" transform="matrix(1 0 0 -1 0 941.094)" cx="229.4" cy="470.547" r="5"/>
      <circle fill="#2E75FE" transform="matrix(1 0 0 -1 0 823.094)" cx="180.4" cy="411.547" r="5"/>
      <circle fill="#2E75FE" transform="matrix(1 0 0 -1 0 367.094)" cx="364.4" cy="183.547" r="5"/>
      <circle fill="#2E75FE" transform="matrix(1 0 0 -1 0 753.094)" cx="176.4" cy="376.547" r="5"/>
      <circle fill="#2E75FE" transform="matrix(1 0 0 -1 0 847.094)" cx="177.4" cy="423.547" r="5"/>
      <circle fill="#2E75FE" transform="matrix(1 0 0 -1 0 913.094)" cx="220.4" cy="456.547" r="5"/>
      <circle fill="#2E75FE" transform="matrix(1 0 0 -1 0 703.094)" cx="239.4" cy="351.547" r="5"/>
      <circle fill="#2E75FE" transform="matrix(1 0 0 -1 0 967.094)" cx="218.4" cy="483.547" r="5"/>
      <circle fill="#2E75FE" transform="matrix(1 0 0 -1 0 943.094)" cx="210.4" cy="471.547" r="5"/>
      <circle fill="#2E75FE" transform="matrix(1 0 0 -1 0 985.094)" cx="218.4" cy="492.547" r="5"/>
      <circle fill="#2E75FE" transform="matrix(1 0 0 -1 0 293.094)" cx="295.4" cy="146.547" r="5"/>
      <circle fill="#2E75FE" transform="matrix(1 0 0 -1 0 799.094)" cx="212.4" cy="399.547" r="5"/>
      <circle fill="#2E75FE" transform="matrix(1 0 0 -1 0 935.094)" cx="201.4" cy="467.547" r="5"/>
      <circle fill="#2E75FE" transform="matrix(1 0 0 -1 0 951.094)" cx="156.4" cy="475.547" r="5"/>
      <circle fill="#2E75FE" transform="matrix(1 0 0 -1 0 875.094)" cx="228.4" cy="437.547" r="5"/>
      <circle fill="#2E75FE" transform="matrix(1 0 0 -1 0 695.094)" cx="176.4" cy="347.547" r="5"/>
      <circle fill="#2E75FE" transform="matrix(1 0 0 -1 0 965.094)" cx="204.4" cy="482.547" r="5"/>
      <circle fill="#2E75FE" transform="matrix(1 0 0 -1 0 801.094)" cx="152.4" cy="400.547" r="5"/>
      <circle fill="#2E75FE" transform="matrix(1 0 0 -1 0 513.094)" cx="282.4" cy="256.547" r="5"/>
      <circle fill="#2E75FE" transform="matrix(1 0 0 -1 0 381.094)" cx="222.4" cy="190.547" r="5"/>
      <circle fill="#2E75FE" transform="matrix(1 0 0 -1 0 955.094)" cx="165.4" cy="477.547" r="5"/>
      <circle fill="#2E75FE" transform="matrix(1 0 0 -1 0 861.094)" cx="203.4" cy="430.547" r="5"/>
      <circle fill="#2E75FE" transform="matrix(1 0 0 -1 0 929.094)" cx="123.4" cy="464.547" r="5"/>
      <circle fill="#2E75FE" transform="matrix(1 0 0 -1 0 907.094)" cx="180.4" cy="453.547" r="5"/>
      <circle fill="#2E75FE" transform="matrix(1 0 0 -1 0 923.094)" cx="142.4" cy="461.547" r="5"/>
      <circle fill="#2E75FE" transform="matrix(1 0 0 -1 0 875.094)" cx="157.4" cy="437.547" r="5"/>
      <circle fill="#2E75FE" transform="matrix(1 0 0 -1 0 947.094)" cx="140.4" cy="473.547" r="5"/>
      <circle fill="#2E75FE" transform="matrix(1 0 0 -1 0 769.094)" cx="174.4" cy="384.547" r="5"/>
      <circle fill="#2E75FE" transform="matrix(1 0 0 -1 0 907.094)" cx="129.4" cy="453.547" r="5"/>
      <circle fill="#2E75FE" transform="matrix(1 0 0 -1 0 845.094)" cx="151.4" cy="422.547" r="5"/>
      <circle fill="#2E75FE" transform="matrix(1 0 0 -1 0 891.094)" cx="147.4" cy="445.547" r="5"/>
      <circle fill="#2E75FE" transform="matrix(1 0 0 -1 0 913.094)" cx="155.4" cy="456.547" r="5"/>
      <circle fill="#2E75FE" transform="matrix(1 0 0 -1 0 281.094)" cx="324.4" cy="140.547" r="5"/>
      <circle fill="#2E75FE" transform="matrix(1 0 0 -1 0 883.094)" cx="164.4" cy="441.547" r="5"/>
      <circle fill="#2E75FE" transform="matrix(1 0 0 -1 0 359.094)" cx="202.4" cy="179.547" r="5"/>
      <circle fill="#2E75FE" transform="matrix(1 0 0 -1 0 959.094)" cx="189.4" cy="479.547" r="5"/>
      <circle fill="#2E75FE" transform="matrix(1 0 0 -1 0 941.094)" cx="180.4" cy="470.547" r="5"/>
      <circle fill="#2E75FE" transform="matrix(1 0 0 -1 0 509.094)" cx="140.4" cy="254.547" r="5"/>
      <circle fill="#2E75FE" transform="matrix(1 0 0 -1 0 445.094)" cx="130.4" cy="222.547" r="5"/>
      <circle fill="#2E75FE" transform="matrix(1 0 0 -1 0 959.094)" cx="176.4" cy="479.547" r="5"/>
      <circle fill="#2E75FE" transform="matrix(1 0 0 -1 0 821.094)" cx="143.4" cy="410.547" r="5"/>
      <circle fill="#2E75FE" transform="matrix(1 0 0 -1 0 473.094)" cx="136.4" cy="236.547" r="5"/>
      <circle fill="#2E75FE" transform="matrix(1 0 0 -1 0 299.094)" cx="266.4" cy="149.547" r="5"/>
      <circle fill="#2E75FE" transform="matrix(1 0 0 -1 0 857.094)" cx="139.4" cy="428.547" r="5"/>
      <circle fill="#2E75FE" transform="matrix(1 0 0 -1 0 531.094)" cx="138.4" cy="265.547" r="5"/>
      <circle fill="#2E75FE" transform="matrix(1 0 0 -1 0 581.094)" cx="143.4" cy="290.547" r="5"/>
      <circle fill="#2E75FE" transform="matrix(1 0 0 -1 0 375.094)" cx="138.4" cy="187.547" r="5"/>
      <circle fill="#2E75FE" transform="matrix(1 0 0 -1 0 873.094)" cx="132.4" cy="436.547" r="5"/>
      <circle fill="#2E75FE" transform="matrix(1 0 0 -1 0 719.094)" cx="254.4" cy="359.547" r="5"/>
      <circle fill="#2E75FE" transform="matrix(1 0 0 -1 0 881.094)" cx="121.4" cy="440.547" r="5"/>
      <circle fill="#2E75FE" transform="matrix(1 0 0 -1 0 885.094)" cx="108.4" cy="442.547" r="5"/>
      <circle fill="#2E75FE" transform="matrix(1 0 0 -1 0 449.094)" cx="185.4" cy="224.547" r="5"/>
      <circle fill="#2E75FE" transform="matrix(1 0 0 -1 0 347.094)" cx="275.4" cy="173.547" r="5"/>
      <circle fill="#2E75FE" transform="matrix(1 0 0 -1 0 841.094)" cx="108.4" cy="420.547" r="5"/>
      <circle fill="#2E75FE" transform="matrix(1 0 0 -1 0 819.094)" cx="113.4" cy="409.547" r="5"/>
      <circle fill="#2E75FE" transform="matrix(1 0 0 -1 0 625.094)" cx="195.4" cy="312.547" r="5"/>
      <circle fill="#2E75FE" transform="matrix(1 0 0 -1 0 605.094)" cx="246.4" cy="302.547" r="5"/>
      <circle fill="#2E75FE" transform="matrix(1 0 0 -1 0 473.094)" cx="275.4" cy="236.547" r="5"/>
      <circle fill="#2E75FE" transform="matrix(1 0 0 -1 0 415.094)" cx="134.4" cy="207.547" r="5"/>
      <circle fill="#2E75FE" transform="matrix(1 0 0 -1 0 443.094)" cx="203.4" cy="221.547" r="5"/>
      <circle fill="#2E75FE" transform="matrix(1 0 0 -1 0 349.094)" cx="165.4" cy="174.547" r="5"/>
      <circle fill="#2E75FE" transform="matrix(1 0 0 -1 0 829.094)" cx="132.4" cy="414.547" r="5"/>
      <circle fill="#2E75FE" transform="matrix(1 0 0 -1 0 719.094)" cx="194.4" cy="359.547" r="5"/>
      <circle fill="#2E75FE" transform="matrix(1 0 0 -1 0 795.094)" cx="119.4" cy="397.547" r="5"/>
      <circle fill="#2E75FE" transform="matrix(1 0 0 -1 0 753.094)" cx="129.4" cy="376.547" r="5"/>
      <circle fill="#2E75FE" transform="matrix(1 0 0 -1 0 831.094)" cx="213.4" cy="415.547" r="5"/>
      <circle fill="#2E75FE" transform="matrix(1 0 0 -1 0 381.094)" cx="166.4" cy="190.547" r="5"/>
      <circle fill="#2E75FE" transform="matrix(1 0 0 -1 0 741.094)" cx="119.4" cy="370.547" r="5"/>
      <circle fill="#2E75FE" transform="matrix(1 0 0 -1 0 767.094)" cx="123.4" cy="383.547" r="5"/>
      <circle fill="#2E75FE" transform="matrix(1 0 0 -1 0 729.094)" cx="135.4" cy="364.547" r="5"/>
      <circle fill="#2E75FE" transform="matrix(1 0 0 -1 0 457.094)" cx="102.4" cy="228.547" r="5"/>
      <circle fill="#2E75FE" transform="matrix(1 0 0 -1 0 863.094)" cx="170.4" cy="431.547" r="5"/>
      <circle fill="#2E75FE" transform="matrix(1 0 0 -1 0 911.094)" cx="111.4" cy="455.547" r="5"/>
      <circle fill="#2E75FE" transform="matrix(1 0 0 -1 0 837.094)" cx="165.4" cy="418.547" r="5"/>
      <circle fill="#2E75FE" transform="matrix(1 0 0 -1 0 863.094)" cx="275.4" cy="431.547" r="5"/>
      <circle fill="#2E75FE" transform="matrix(1 0 0 -1 0 807.094)" cx="262.4" cy="403.547" r="5"/>
      <circle fill="#2E75FE" transform="matrix(1 0 0 -1 0 813.094)" cx="361.4" cy="406.547" r="5"/>
      <circle fill="#2E75FE" transform="matrix(1 0 0 -1 0 825.094)" cx="200.4" cy="412.547" r="5"/>
      <circle fill="#2E75FE" transform="matrix(1 0 0 -1 0 865.094)" cx="444.4" cy="432.547" r="5"/>
      <circle fill="#2E75FE" transform="matrix(1 0 0 -1 0 885.094)" cx="353.4" cy="442.547" r="5"/>
      <circle fill="#2E75FE" transform="matrix(1 0 0 -1 0 787.094)" cx="302.4" cy="393.547" r="5"/>
      <circle fill="#2E75FE" transform="matrix(1 0 0 -1 0 857.094)" cx="110.4" cy="428.547" r="5"/>
      <circle fill="#2E75FE" transform="matrix(1 0 0 -1 0 845.094)" cx="423.4" cy="422.547" r="5"/>
      <circle fill="#2E75FE" transform="matrix(1 0 0 -1 0 891.094)" cx="327.4" cy="445.547" r="5"/>
      <circle fill="#2E75FE" transform="matrix(1 0 0 -1 0 339.094)" cx="351.4" cy="169.547" r="5"/>
      <circle fill="#2E75FE" transform="matrix(1 0 0 -1 0 805.094)" cx="130.4" cy="402.547" r="5"/>
      <circle fill="#2E75FE" transform="matrix(1 0 0 -1 0 659.094)" cx="178.4" cy="329.547" r="5"/>
      <circle fill="#2E75FE" transform="matrix(1 0 0 -1 0 427.094)" cx="365.4" cy="213.547" r="5"/>
      <circle fill="#2E75FE" transform="matrix(1 0 0 -1 0 419.094)" cx="329.4" cy="209.547" r="5"/>
      <circle fill="#2E75FE" transform="matrix(1 0 0 -1 0 383.094)" cx="419.4" cy="191.547" r="5"/>
      <circle fill="#2E75FE" transform="matrix(1 0 0 -1 0 427.094)" cx="428.4" cy="213.547" r="5"/>
      <circle fill="#2E75FE" transform="matrix(1 0 0 -1 0 883.094)" cx="436.4" cy="441.547" r="5"/>
      <circle fill="#2E75FE" transform="matrix(1 0 0 -1 0 869.094)" cx="426.4" cy="434.547" r="5"/>
      <circle fill="#2E75FE" transform="matrix(1 0 0 -1 0 879.094)" cx="378.4" cy="439.547" r="5"/>
      <circle fill="#2E75FE" transform="matrix(1 0 0 -1 0 673.094)" cx="412.4" cy="336.547" r="5"/>
      <circle fill="#2E75FE" transform="matrix(1 0 0 -1 0 411.094)" cx="454.4" cy="205.547" r="5"/>
      <circle fill="#2E75FE" transform="matrix(1 0 0 -1 0 697.094)" cx="135.4" cy="348.547" r="5"/>
      <circle fill="#2E75FE" transform="matrix(1 0 0 -1 0 825.094)" cx="416.4" cy="412.547" r="5"/>
      <circle fill="#2E75FE" transform="matrix(1 0 0 -1 0 671.094)" cx="133.4" cy="335.547" r="5"/>
      <circle fill="#2E75FE" transform="matrix(1 0 0 -1 0 357.094)" cx="464.4" cy="178.547" r="5"/>
      <circle fill="#2E75FE" transform="matrix(1 0 0 -1 0 885.094)" cx="299.4" cy="442.547" r="5"/>
      <circle fill="#2E75FE" transform="matrix(1 0 0 -1 0 849.094)" cx="121.4" cy="424.547" r="5"/>
      <circle fill="#2E75FE" transform="matrix(1 0 0 -1 0 889.094)" cx="101.4" cy="444.547" r="5"/>
      <circle fill="#2E75FE" transform="matrix(1 0 0 -1 0 945.094)" cx="275.4" cy="472.547" r="5"/>
      <circle fill="#2E75FE" transform="matrix(1 0 0 -1 0 753.094)" cx="155.4" cy="376.547" r="5"/>
      <circle fill="#2E75FE" transform="matrix(1 0 0 -1 0 315.094)" cx="180.4" cy="157.547" r="5"/>
      <circle fill="#2E75FE" transform="matrix(1 0 0 -1 0 885.094)" cx="458.4" cy="442.547" r="5"/>
      <circle fill="#2E75FE" transform="matrix(1 0 0 -1 0 863.094)" cx="475.4" cy="431.547" r="5"/>
      <circle fill="#2E75FE" transform="matrix(1 0 0 -1 0 337.094)" cx="475.4" cy="168.547" r="5"/>
      <circle fill="#2E75FE" transform="matrix(1 0 0 -1 0 669.094)" cx="184.4" cy="334.547" r="5"/>
      <circle fill="#2E75FE" transform="matrix(1 0 0 -1 0 845.094)" cx="449.4" cy="422.547" r="5"/>
      <circle fill="#2E75FE" transform="matrix(1 0 0 -1 0 587.094)" cx="170.4" cy="293.547" r="5"/>
      <circle fill="#2E75FE" transform="matrix(1 0 0 -1 0 573.094)" cx="296.4" cy="286.547" r="5"/>
      <circle fill="#2E75FE" transform="matrix(1 0 0 -1 0 651.094)" cx="369.4" cy="325.547" r="5"/>
      <circle fill="#2E75FE" transform="matrix(1 0 0 -1 0 305.094)" cx="413.4" cy="152.547" r="5"/>
      <circle fill="#2E75FE" transform="matrix(1 0 0 -1 0 543.094)" cx="244.4" cy="271.547" r="5"/>
      <circle fill="#2E75FE" transform="matrix(1 0 0 -1 0 603.094)" cx="152.4" cy="301.547" r="5"/>
      <circle fill="#2E75FE" transform="matrix(1 0 0 -1 0 695.094)" cx="147.4" cy="347.547" r="5"/>
      <circle fill="#2E75FE" transform="matrix(1 0 0 -1 0 313.094)" cx="479.4" cy="156.547" r="5"/>
      <circle fill="#2E75FE" transform="matrix(1 0 0 -1 0 873.094)" cx="305.4" cy="436.547" r="5"/>
      <circle fill="#2E75FE" transform="matrix(1 0 0 -1 0 849.094)" cx="334.4" cy="424.547" r="5"/>
      <circle fill="#2E75FE" transform="matrix(1 0 0 -1 0 447.094)" cx="113.4" cy="223.547" r="5"/>
      <circle fill="#2E75FE" transform="matrix(1 0 0 -1 0 595.094)" cx="129.4" cy="297.547" r="5"/>
      <circle fill="#2E75FE" transform="matrix(1 0 0 -1 0 565.094)" cx="216.4" cy="282.547" r="5"/>
      <circle fill="#2E75FE" transform="matrix(1 0 0 -1 0 319.094)" cx="165.4" cy="159.547" r="5"/>
      <circle fill="#2E75FE" transform="matrix(1 0 0 -1 0 365.094)" cx="111.4" cy="182.547" r="5"/>
      <circle fill="#2E75FE" transform="matrix(1 0 0 -1 0 385.094)" cx="91.4" cy="192.547" r="5"/>
      <circle fill="#2E75FE" transform="matrix(1 0 0 -1 0 551.094)" cx="324.4" cy="275.547" r="5"/>
      <circle fill="#2E75FE" transform="matrix(1 0 0 -1 0 623.094)" cx="329.4" cy="311.547" r="5"/>
      <circle fill="#2E75FE" transform="matrix(1 0 0 -1 0 243.094)" cx="376.4" cy="121.547" r="5"/>
      <circle fill="#2E75FE" transform="matrix(1 0 0 -1 0 419.094)" cx="168.4" cy="209.547" r="5"/>
      <circle fill="#2E75FE" transform="matrix(1 0 0 -1 0 307.094)" cx="367.4" cy="153.547" r="5"/>
      <circle fill="#2E75FE" transform="matrix(1 0 0 -1 0 423.094)" cx="191.4" cy="211.547" r="5"/>
      <circle fill="#2E75FE" transform="matrix(1 0 0 -1 0 913.094)" cx="104.4" cy="456.547" r="5"/>
      <circle fill="#2E75FE" transform="matrix(1 0 0 -1 0 621.094)" cx="313.4" cy="310.547" r="5"/>
      <circle fill="#2E75FE" transform="matrix(1 0 0 -1 0 749.094)" cx="381.4" cy="374.547" r="5"/>
      <circle fill="#2E75FE" transform="matrix(1 0 0 -1 0 799.094)" cx="330.4" cy="399.547" r="5"/>
      <circle fill="#2E75FE" transform="matrix(1 0 0 -1 0 369.094)" cx="432.4" cy="184.547" r="5"/>
      <circle fill="#2E75FE" transform="matrix(1 0 0 -1 0 777.094)" cx="148.4" cy="388.547" r="5"/>
      <circle fill="#2E75FE" transform="matrix(1 0 0 -1 0 905.094)" cx="318.4" cy="452.547" r="5"/>
      <circle fill="#2E75FE" transform="matrix(1 0 0 -1 0 919.094)" cx="308.4" cy="459.547" r="5"/>
      <circle fill="#2E75FE" transform="matrix(1 0 0 -1 0 931.094)" cx="163.4" cy="465.547" r="5"/>
      <circle fill="#2E75FE" transform="matrix(1 0 0 -1 0 843.094)" cx="310.4" cy="421.547" r="5"/>
      <circle fill="#2E75FE" transform="matrix(1 0 0 -1 0 885.094)" cx="315.4" cy="442.547" r="5"/>
      <circle fill="#2E75FE" transform="matrix(1 0 0 -1 0 461.094)" cx="435.4" cy="230.547" r="5"/>
      <circle fill="#2E75FE" transform="matrix(1 0 0 -1 0 875.094)" cx="285.4" cy="437.547" r="5"/>
      <circle fill="#2E75FE" transform="matrix(1 0 0 -1 0 789.094)" cx="138.4" cy="394.547" r="5"/>
      <circle fill="#2E75FE" transform="matrix(1 0 0 -1 0 619.094)" cx="265.4" cy="309.547" r="5"/>
      <circle fill="#2E75FE" transform="matrix(1 0 0 -1 0 763.094)" cx="246.4" cy="381.547" r="5"/>
      <circle fill="#2E75FE" transform="matrix(1 0 0 -1 0 733.094)" cx="277.4" cy="366.547" r="5"/>
      <circle fill="#2E75FE" transform="matrix(1 0 0 -1 0 903.094)" cx="258.4" cy="451.547" r="5"/>
      <circle fill="#2E75FE" transform="matrix(1 0 0 -1 0 765.094)" cx="201.4" cy="382.547" r="5"/>
      <circle fill="#2E75FE" transform="matrix(1 0 0 -1 0 847.094)" cx="193.4" cy="423.547" r="5"/>
      <circle fill="#2E75FE" transform="matrix(1 0 0 -1 0 873.094)" cx="183.4" cy="436.547" r="5"/>
      <circle fill="#2E75FE" transform="matrix(1 0 0 -1 0 567.094)" cx="201.4" cy="283.547" r="5"/>
      <circle fill="#2E75FE" transform="matrix(1 0 0 -1 0 331.094)" cx="265.4" cy="165.547" r="5"/>
      <circle fill="#2E75FE" transform="matrix(1 0 0 -1 0 405.094)" cx="344.4" cy="202.547" r="5"/>
      <circle fill="#2E75FE" transform="matrix(1 0 0 -1 0 995.094)" cx="249.4" cy="497.547" r="5"/>
      <circle fill="#2E75FE" transform="matrix(1 0 0 -1 0 1015.094)" cx="239.4" cy="507.547" r="5"/>
      <circle fill="#2E75FE" transform="matrix(1 0 0 -1 0 969.094)" cx="283.4" cy="484.547" r="5"/>
      <circle fill="#2E75FE" transform="matrix(1 0 0 -1 0 997.094)" cx="273.4" cy="498.547" r="5"/>
      <circle fill="#2E75FE" transform="matrix(1 0 0 -1 0 967.094)" cx="243.4" cy="483.547" r="5"/>
      <circle fill="#2E75FE" transform="matrix(1 0 0 -1 0 921.094)" cx="240.4" cy="460.547" r="5"/>
      <circle fill="#2E75FE" transform="matrix(1 0 0 -1 0 985.094)" cx="232.4" cy="492.547" r="5"/>
      <circle fill="#2E75FE" transform="matrix(1 0 0 -1 0 641.094)" cx="192.4" cy="320.547" r="5"/>
      <circle fill="#2E75FE" transform="matrix(1 0 0 -1 0 593.094)" cx="220.4" cy="296.547" r="5"/>
      <circle fill="#2E75FE" transform="matrix(1 0 0 -1 0 239.094)" cx="289.4" cy="119.547" r="5"/>
      <circle fill="#2E75FE" transform="matrix(1 0 0 -1 0 1015.094)" cx="283.4" cy="507.547" r="5"/>
      <circle fill="#2E75FE" transform="matrix(1 0 0 -1 0 225.094)" cx="226.4" cy="112.547" r="5"/>
      <circle fill="#2E75FE" transform="matrix(1 0 0 -1 0 655.094)" cx="385.4" cy="327.547" r="5"/>
      <circle fill="#2E75FE" transform="matrix(1 0 0 -1 0 639.094)" cx="395.4" cy="319.547" r="5"/>
      <circle fill="#2E75FE" transform="matrix(1 0 0 -1 0 613.094)" cx="410.4" cy="306.547" r="5"/>
      <circle fill="#2E75FE" transform="matrix(1 0 0 -1 0 507.094)" cx="300.4" cy="253.547" r="5"/>
      <circle fill="#2E75FE" transform="matrix(1 0 0 -1 0 511.094)" cx="129.4" cy="255.547" r="5"/>
      <circle fill="#2E75FE" transform="matrix(1 0 0 -1 0 517.094)" cx="393.4" cy="258.547" r="5"/>
      <circle fill="#2E75FE" transform="matrix(1 0 0 -1 0 427.094)" cx="232.4" cy="213.547" r="5"/>
      <circle fill="#2E75FE" transform="matrix(1 0 0 -1 0 899.094)" cx="206.4" cy="449.547" r="5"/>
      <circle fill="#2E75FE" transform="matrix(1 0 0 -1 0 687.094)" cx="125.4" cy="343.547" r="5"/>
      <circle fill="#2E75FE" transform="matrix(1 0 0 -1 0 251.094)" cx="315.4" cy="125.547" r="5"/>
      <circle fill="#2E75FE" transform="matrix(1 0 0 -1 0 637.094)" cx="441.4" cy="318.547" r="5"/>
      <circle fill="#2E75FE" transform="matrix(1 0 0 -1 0 1009.094)" cx="264.4" cy="504.547" r="5"/>
      <circle fill="#2E75FE" transform="matrix(1 0 0 -1 0 281.094)" cx="151.4" cy="140.547" r="5"/>
      <circle fill="#2E75FE" transform="matrix(1 0 0 -1 0 923.094)" cx="421.4" cy="461.547" r="5"/>
      <circle fill="#2E75FE" transform="matrix(1 0 0 -1 0 309.094)" cx="148.4" cy="154.547" r="5"/>
      <circle fill="#2E75FE" transform="matrix(1 0 0 -1 0 417.094)" cx="153.4" cy="208.547" r="5"/>
      <circle fill="#2E75FE" transform="matrix(1 0 0 -1 0 1003.094)" cx="252.4" cy="501.547" r="5"/>
      <circle fill="#2E75FE" transform="matrix(1 0 0 -1 0 387.094)" cx="460.4" cy="193.547" r="5"/>
      <circle fill="#2E75FE" transform="matrix(1 0 0 -1 0 713.094)" cx="126.4" cy="356.547" r="5"/>
      <circle fill="#2E75FE" transform="matrix(1 0 0 -1 0 891.094)" cx="192.4" cy="445.547" r="5"/>
      <circle fill="#2E75FE" transform="matrix(1 0 0 -1 0 441.094)" cx="288.4" cy="220.547" r="5"/>
      <circle fill="#2E75FE" transform="matrix(1 0 0 -1 0 279.094)" cx="351.4" cy="139.547" r="5"/>
      <circle fill="#2E75FE" transform="matrix(1 0 0 -1 0 387.094)" cx="402.4" cy="193.547" r="5"/>
      <circle fill="#2E75FE" transform="matrix(1 0 0 -1 0 849.094)" cx="463.4" cy="424.547" r="5"/>
      <circle fill="#2E75FE" transform="matrix(1 0 0 -1 0 769.094)" cx="289.4" cy="384.547" r="5"/>
      <circle fill="#2E75FE" transform="matrix(1 0 0 -1 0 645.094)" cx="334.4" cy="322.547" r="5"/>
      <circle fill="#2E75FE" transform="matrix(1 0 0 -1 0 843.094)" cx="399.4" cy="421.547" r="5"/>
      <circle fill="#2E75FE" transform="matrix(1 0 0 -1 0 839.094)" cx="364.4" cy="419.547" r="5"/>
      <circle fill="#2E75FE" transform="matrix(1 0 0 -1 0 897.094)" cx="446.4" cy="448.547" r="5"/>
      <circle fill="#2E75FE" transform="matrix(1 0 0 -1 0 909.094)" cx="366.4" cy="454.547" r="5"/>
      <circle fill="#2E75FE" transform="matrix(1 0 0 -1 0 423.094)" cx="110.4" cy="211.547" r="5"/>
      <circle fill="#2E75FE" transform="matrix(1 0 0 -1 0 913.094)" cx="298.4" cy="456.547" r="5"/>
      <circle fill="#2E75FE" transform="matrix(1 0 0 -1 0 797.094)" cx="274.4" cy="398.547" r="5"/>
      <circle fill="#2E75FE" transform="matrix(1 0 0 -1 0 897.094)" cx="283.4" cy="448.547" r="5"/>
      <circle fill="#2E75FE" transform="matrix(1 0 0 -1 0 833.094)" cx="232.4" cy="416.547" r="5"/>
      <circle fill="#2E75FE" transform="matrix(1 0 0 -1 0 871.094)" cx="264.4" cy="435.547" r="5"/>
      <circle fill="#2E75FE" transform="matrix(1 0 0 -1 0 881.094)" cx="253.4" cy="440.547" r="5"/>
      <circle fill="#2E75FE" transform="matrix(1 0 0 -1 0 859.094)" cx="238.4" cy="429.547" r="5"/>
      <circle fill="#2E75FE" transform="matrix(1 0 0 -1 0 779.094)" cx="265.4" cy="389.547" r="5"/>
      <circle fill="#2E75FE" transform="matrix(1 0 0 -1 0 445.094)" cx="409.4" cy="222.547" r="5"/>
      <circle fill="#2E75FE" transform="matrix(1 0 0 -1 0 781.094)" cx="230.4" cy="390.547" r="5"/>
      <circle fill="#2E75FE" transform="matrix(1 0 0 -1 0 493.094)" cx="268.4" cy="246.547" r="5"/>
      <circle fill="#2E75FE" transform="matrix(1 0 0 -1 0 769.094)" cx="214.4" cy="384.547" r="5"/>
      <circle fill="#2E75FE" transform="matrix(1 0 0 -1 0 721.094)" cx="178.4" cy="360.547" r="5"/>
      <circle fill="#2E75FE" transform="matrix(1 0 0 -1 0 749.094)" cx="229.4" cy="374.547" r="5"/>
      <circle fill="#2E75FE" transform="matrix(1 0 0 -1 0 305.094)" cx="234.4" cy="152.547" r="5"/>
      <circle fill="#2E75FE" transform="matrix(1 0 0 -1 0 459.094)" cx="242.4" cy="229.547" r="5"/>
      <circle fill="#2E75FE" transform="matrix(1 0 0 -1 0 523.094)" cx="255.4" cy="261.547" r="5"/>
      <circle fill="#2E75FE" transform="matrix(1 0 0 -1 0 491.094)" cx="191.4" cy="245.547" r="5"/>
      <circle fill="#2E75FE" transform="matrix(1 0 0 -1 0 399.094)" cx="181.4" cy="199.547" r="5"/>
      <circle fill="#2E75FE" transform="matrix(1 0 0 -1 0 739.094)" cx="244.4" cy="369.547" r="5"/>
      <circle fill="#2E75FE" transform="matrix(1 0 0 -1 0 743.094)" cx="257.4" cy="371.547" r="5"/>
      <circle fill="#2E75FE" transform="matrix(1 0 0 -1 0 563.094)" cx="157.4" cy="281.547" r="5"/>
      <circle fill="#2E75FE" transform="matrix(1 0 0 -1 0 637.094)" cx="280.4" cy="318.547" r="5"/>
      <circle fill="#2E75FE" transform="matrix(1 0 0 -1 0 537.094)" cx="171.4" cy="268.547" r="5"/>
      <circle fill="#2E75FE" transform="matrix(1 0 0 -1 0 429.094)" cx="315.4" cy="214.547" r="5"/>
      <circle fill="#2E75FE" transform="matrix(1 0 0 -1 0 563.094)" cx="336.4" cy="281.547" r="5"/>
      <circle fill="#2E75FE" transform="matrix(1 0 0 -1 0 653.094)" cx="151.4" cy="326.547" r="5"/>
      <circle fill="#2E75FE" transform="matrix(1 0 0 -1 0 735.094)" cx="208.4" cy="367.547" r="5"/>
      <circle fill="#2E75FE" transform="matrix(1 0 0 -1 0 615.094)" cx="230.4" cy="307.547" r="5"/>
      <circle fill="#2E75FE" transform="matrix(1 0 0 -1 0 523.094)" cx="223.4" cy="261.547" r="5"/>
      <circle fill="#2E75FE" transform="matrix(1 0 0 -1 0 447.094)" cx="303.4" cy="223.547" r="5"/>
      <circle fill="#2E75FE" transform="matrix(1 0 0 -1 0 339.094)" cx="104.4" cy="169.547" r="5"/>
      <circle fill="#2E75FE" transform="matrix(1 0 0 -1 0 669.094)" cx="336.4" cy="334.547" r="5"/>
      <circle fill="#2E75FE" transform="matrix(1 0 0 -1 0 603.094)" cx="396.4" cy="301.547" r="5"/>
      <circle fill="#2E75FE" transform="matrix(1 0 0 -1 0 375.094)" cx="103.4" cy="187.547" r="5"/>
      <circle fill="#2E75FE" transform="matrix(1 0 0 -1 0 585.094)" cx="377.4" cy="292.547" r="5"/>
      <circle fill="#2E75FE" transform="matrix(1 0 0 -1 0 533.094)" cx="340.4" cy="266.547" r="5"/>
      <circle fill="#2E75FE" transform="matrix(1 0 0 -1 0 277.094)" cx="393.4" cy="138.547" r="5"/>
      <circle fill="#2E75FE" transform="matrix(1 0 0 -1 0 205.094)" cx="305.4" cy="102.547" r="5"/>
      <circle fill="#2E75FE" transform="matrix(1 0 0 -1 0 469.094)" cx="422.4" cy="234.547" r="5"/>
      <circle fill="#2E75FE" transform="matrix(1 0 0 -1 0 731.094)" cx="165.4" cy="365.547" r="5"/>
      <circle fill="#2E75FE" transform="matrix(1 0 0 -1 0 545.094)" cx="288.4" cy="272.547" r="5"/>
      <circle fill="#2E75FE" transform="matrix(1 0 0 -1 0 615.094)" cx="304.4" cy="307.547" r="5"/>
      <circle fill="#2E75FE" transform="matrix(1 0 0 -1 0 655.094)" cx="318.4" cy="327.547" r="5"/>
      <circle fill="#2E75FE" transform="matrix(1 0 0 -1 0 587.094)" cx="250.4" cy="293.547" r="5"/>
      <circle fill="#2E75FE" transform="matrix(1 0 0 -1 0 571.094)" cx="266.4" cy="285.547" r="5"/>
      <circle fill="#2E75FE" transform="matrix(1 0 0 -1 0 593.094)" cx="419.4" cy="296.547" r="5"/>
      <circle fill="#2E75FE" transform="matrix(1 0 0 -1 0 243.094)" cx="413.4" cy="121.547" r="5"/>
      <circle fill="#2E75FE" transform="matrix(1 0 0 -1 0 385.094)" cx="199.4" cy="192.547" r="5"/>
      <circle fill="#2E75FE" transform="matrix(1 0 0 -1 0 595.094)" cx="277.4" cy="297.547" r="5"/>
      <circle fill="#2E75FE" transform="matrix(1 0 0 -1 0 553.094)" cx="417.4" cy="276.547" r="5"/>
      <circle fill="#2E75FE" transform="matrix(1 0 0 -1 0 473.094)" cx="346.4" cy="236.547" r="5"/>
      <circle fill="#2E75FE" transform="matrix(1 0 0 -1 0 551.094)" cx="195.4" cy="275.547" r="5"/>
      <circle fill="#FBA55F" transform="matrix(-1 0 0 1 610 0)" cx="305" cy="52" r="5"/>
      <circle fill="#FBA55F" transform="matrix(-1 0 0 1 704 0)" cx="352" cy="57" r="5"/>
      <circle fill="#FBA55F" transform="matrix(-1 0 0 1 710 0)" cx="355" cy="72" r="5"/>
      <circle fill="#FBA55F" transform="matrix(-1 0 0 1 772 0)" cx="386" cy="97" r="5"/>
      <circle fill="#FBA55F" transform="matrix(-1 0 0 1 670 0)" cx="335" cy="102" r="5"/>
      <circle fill="#FBA55F" transform="matrix(-1 0 0 1 666 0)" cx="333" cy="81" r="5"/>
      <circle fill="#FBA55F" transform="matrix(-1 0 0 1 774 0)" cx="387" cy="73" r="5"/>
      <circle fill="#FBA55F" transform="matrix(-1 0 0 1 622 0)" cx="311" cy="88" r="5"/>
      <circle fill="#FBA55F" transform="matrix(-1 0 0 1 918 0)" cx="459" cy="120" r="5"/>
      <circle fill="#FBA55F" transform="matrix(-1 0 0 1 580 0)" cx="290" cy="84" r="5"/>
      <circle fill="#FBA55F" transform="matrix(-1 0 0 1 842 0)" cx="421" cy="92" r="5"/>
      <circle fill="#FBA55F" transform="matrix(-1 0 0 1 420 0)" cx="210" cy="105" r="5"/>
      <circle fill="#FBA55F" transform="matrix(-1 0 0 1 734 0)" cx="367" cy="103" r="5"/>
      <circle fill="#FBA55F" transform="matrix(-1 0 0 1 972 0)" cx="486" cy="127" r="5"/>
      <circle fill="#FBA55F" transform="matrix(-1 0 0 1 540 0)" cx="270" cy="74" r="5"/>
      <circle fill="#FBA55F" transform="matrix(-1 0 0 1 858 0)" cx="429" cy="113" r="5"/>
      <circle fill="#FBA55F" transform="matrix(-1 0 0 1 946 0)" cx="473" cy="129" r="5"/>
      <circle fill="#FBA55F" transform="matrix(-1 0 0 1 122 0)" cx="61" cy="170" r="5"/>
      <circle fill="#FBA55F" transform="matrix(-1 0 0 1 816 0)" cx="408" cy="107" r="5"/>
      <circle fill="#FBA55F" transform="matrix(-1 0 0 1 540 0)" cx="270" cy="102" r="5"/>
      <circle fill="#FBA55F" transform="matrix(-1 0 0 1 174 0)" cx="87" cy="132" r="5"/>
      <circle fill="#FBA55F" transform="matrix(-1 0 0 1 120 0)" cx="60" cy="151" r="5"/>
      <circle fill="#FBA55F" transform="matrix(-1 0 0 1 946 0)" cx="473" cy="119" r="5"/>
      <circle fill="#FBA55F" transform="matrix(-1 0 0 1 950 0)" cx="475" cy="139" r="5"/>
      <circle fill="#FBA55F" transform="matrix(-1 0 0 1 248 0)" cx="124" cy="142" r="5"/>
      <circle fill="#FBA55F" transform="matrix(-1 0 0 1 74 0)" cx="37" cy="162" r="5"/>
      <circle fill="#FBA55F" transform="matrix(-1 0 0 1 212 0)" cx="106" cy="155" r="5"/>
      <circle fill="#FBA55F" transform="matrix(-1 0 0 1 150 0)" cx="75" cy="139" r="5"/>
      <circle fill="#FBA55F" transform="matrix(-1 0 0 1 890 0)" cx="445" cy="110" r="5"/>
      <circle fill="#FBA55F" transform="matrix(-1 0 0 1 626 0)" cx="313" cy="37" r="5"/>
      <circle fill="#FBA55F" transform="matrix(-1 0 0 1 794 0)" cx="397" cy="104" r="5"/>
      <circle fill="#FBA55F" transform="matrix(-1 0 0 1 806 0)" cx="403" cy="87" r="5"/>
      <circle fill="#FBA55F" transform="matrix(-1 0 0 1 284 0)" cx="142" cy="127" r="5"/>
      <circle fill="#FBA55F" transform="matrix(-1 0 0 1 774 0)" cx="387" cy="83" r="5"/>
      <circle fill="#FBA55F" transform="matrix(-1 0 0 1 604 0)" cx="302" cy="65" r="5"/>
      <circle fill="#FBA55F" transform="matrix(-1 0 0 1 742 0)" cx="371" cy="68" r="5"/>
      <circle fill="#FBA55F" transform="matrix(-1 0 0 1 998 0)" cx="499" cy="121" r="5"/>
      <circle fill="#FBA55F" transform="matrix(-1 0 0 1 846 0)" cx="423" cy="107" r="5"/>
      <circle fill="#FBA55F" transform="matrix(-1 0 0 1 524 0)" cx="262" cy="93" r="5"/>
      <circle fill="#FBA55F" transform="matrix(-1 0 0 1 982 0)" cx="491" cy="132" r="5"/>
      <circle fill="#FBA55F" transform="matrix(-1 0 0 1 734 0)" cx="367" cy="88" r="5"/>
      <circle fill="#FBA55F" transform="matrix(-1 0 0 1 662 0)" cx="331" cy="91" r="5"/>
      <circle fill="#FBA55F" transform="matrix(-1 0 0 1 650 0)" cx="325" cy="63" r="5"/>
      <circle fill="#FBA55F" transform="matrix(-1 0 0 1 528 0)" cx="264" cy="34" r="5"/>
      <circle fill="#FBA55F" transform="matrix(-1 0 0 1 562 0)" cx="281" cy="79" r="5"/>
      <circle fill="#FBA55F" transform="matrix(-1 0 0 1 666 0)" cx="333" cy="46" r="5"/>
      <circle fill="#FBA55F" transform="matrix(-1 0 0 1 632 0)" cx="316" cy="70" r="5"/>
      <circle fill="#FBA55F" transform="matrix(-1 0 0 1 496 0)" cx="248" cy="91" r="5"/>
      <circle fill="#FBA55F" transform="matrix(-1 0 0 1 708 0)" cx="354" cy="92" r="5"/>
      <circle fill="#FBA55F" transform="matrix(-1 0 0 1 760 0)" cx="380" cy="106" r="5"/>
      <circle fill="#FBA55F" transform="matrix(-1 0 0 1 588 0)" cx="294" cy="72" r="5"/>
      <circle fill="#FBA55F" transform="matrix(-1 0 0 1 518 0)" cx="259" cy="18" r="5"/>
      <circle fill="#FBA55F" transform="matrix(-1 0 0 1 546 0)" cx="273" cy="37" r="5"/>
      <circle fill="#FBA55F" transform="matrix(-1 0 0 1 502 0)" cx="251" cy="68" r="5"/>
      <circle fill="#FBA55F" transform="matrix(-1 0 0 1 684 0)" cx="342" cy="79" r="5"/>
      <circle fill="#FBA55F" transform="matrix(-1 0 0 1 516 0)" cx="258" cy="81" r="5"/>
      <circle fill="#FBA55F" transform="matrix(-1 0 0 1 488 0)" cx="244" cy="56" r="5"/>
      <circle fill="#FBA55F" transform="matrix(-1 0 0 1 742 0)" cx="371" cy="77" r="5"/>
      <circle fill="#FBA55F" transform="matrix(-1 0 0 1 482 0)" cx="241" cy="82" r="5"/>
      <circle fill="#FBA55F" transform="matrix(-1 0 0 1 576 0)" cx="288" cy="94" r="5"/>
      <circle fill="#FBA55F" transform="matrix(-1 0 0 1 626 0)" cx="313" cy="20" r="5"/>
      <circle fill="#FBA55F" transform="matrix(-1 0 0 1 590 0)" cx="295" cy="20" r="5"/>
      <circle fill="#FBA55F" transform="matrix(-1 0 0 1 588 0)" cx="294" cy="38" r="5"/>
      <circle fill="#FBA55F" transform="matrix(-1 0 0 1 348 0)" cx="174" cy="102" r="5"/>
      <circle fill="#FBA55F" transform="matrix(-1 0 0 1 378 0)" cx="189" cy="101" r="5"/>
      <circle fill="#FBA55F" transform="matrix(-1 0 0 1 668 0)" cx="334" cy="62" r="5"/>
      <circle fill="#FBA55F" transform="matrix(-1 0 0 1 332 0)" cx="166" cy="129" r="5"/>
      <circle fill="#FBA55F" transform="matrix(-1 0 0 1 38 0)" cx="19" cy="137" r="5"/>
      <circle fill="#FBA55F" transform="matrix(-1 0 0 1 464 0)" cx="232" cy="95" r="5"/>
      <circle fill="#FBA55F" transform="matrix(-1 0 0 1 648 0)" cx="324" cy="39" r="5"/>
      <circle fill="#FBA55F" transform="matrix(-1 0 0 1 564 0)" cx="282" cy="67" r="5"/>
      <circle fill="#FBA55F" transform="matrix(-1 0 0 1 472 0)" cx="236" cy="71" r="5"/>
      <circle fill="#FBA55F" transform="matrix(-1 0 0 1 912 0)" cx="456" cy="134" r="5"/>
      <circle fill="#FBA55F" transform="matrix(-1 0 0 1 552 0)" cx="276" cy="23" r="5"/>
      <circle fill="#FBA55F" transform="matrix(-1 0 0 1 286 0)" cx="143" cy="99" r="5"/>
      <circle fill="#FBA55F" transform="matrix(-1 0 0 1 546 0)" cx="273" cy="55" r="5"/>
      <circle fill="#FBA55F" transform="matrix(-1 0 0 1 566 0)" cx="283" cy="52" r="5"/>
      <circle fill="#FBA55F" transform="matrix(-1 0 0 1 162 0)" cx="81" cy="156" r="5"/>
      <circle fill="#FBA55F" transform="matrix(-1 0 0 1 110 0)" cx="55" cy="128" r="5"/>
      <circle fill="#FBA55F" transform="matrix(-1 0 0 1 324 0)" cx="162" cy="114" r="5"/>
      <circle fill="#FBA55F" transform="matrix(-1 0 0 1 562 0)" cx="281" cy="5" r="5"/>
      <circle fill="#FBA55F" transform="matrix(-1 0 0 1 514 0)" cx="257" cy="55" r="5"/>
      <circle fill="#FBA55F" transform="matrix(-1 0 0 1 602 0)" cx="301" cy="35" r="5"/>
      <circle fill="#FBA55F" transform="matrix(-1 0 0 1 570 0)" cx="285" cy="32" r="5"/>
      <circle fill="#FBA55F" transform="matrix(-1 0 0 1 434 0)" cx="217" cy="66" r="5"/>
      <circle fill="#FBA55F" transform="matrix(-1 0 0 1 364 0)" cx="182" cy="121" r="5"/>
      <circle fill="#FBA55F" transform="matrix(-1 0 0 1 396 0)" cx="198" cy="108" r="5"/>
      <circle fill="#FBA55F" transform="matrix(-1 0 0 1 252 0)" cx="126" cy="71" r="5"/>
      <circle fill="#FBA55F" transform="matrix(-1 0 0 1 84 0)" cx="42" cy="113" r="5"/>
      <circle fill="#FBA55F" transform="matrix(-1 0 0 1 182 0)" cx="91" cy="164" r="5"/>
      <circle fill="#FBA55F" transform="matrix(-1 0 0 1 312 0)" cx="156" cy="97" r="5"/>
      <circle fill="#FBA55F" transform="matrix(-1 0 0 1 78 0)" cx="39" cy="139" r="5"/>
      <circle fill="#FBA55F" transform="matrix(-1 0 0 1 458 0)" cx="229" cy="77" r="5"/>
      <circle fill="#FBA55F" transform="matrix(-1 0 0 1 274 0)" cx="137" cy="85" r="5"/>
      <circle fill="#FBA55F" transform="matrix(-1 0 0 1 126 0)" cx="63" cy="137" r="5"/>
      <circle fill="#FBA55F" transform="matrix(-1 0 0 1 68 0)" cx="34" cy="125" r="5"/>
      <circle fill="#FBA55F" transform="matrix(-1 0 0 1 48 0)" cx="24" cy="152" r="5"/>
      <circle fill="#FBA55F" transform="matrix(-1 0 0 1 38 0)" cx="19" cy="118" r="5"/>
      <circle fill="#FBA55F" transform="matrix(-1 0 0 1 298 0)" cx="149" cy="112" r="5"/>
      <circle fill="#FBA55F" transform="matrix(-1 0 0 1 270 0)" cx="135" cy="113" r="5"/>
      <circle fill="#FBA55F" transform="matrix(-1 0 0 1 272 0)" cx="136" cy="138" r="5"/>
      <circle fill="#FBA55F" transform="matrix(-1 0 0 1 418 0)" cx="209" cy="89" r="5"/>
      <circle fill="#FBA55F" transform="matrix(-1 0 0 1 536 0)" cx="268" cy="5" r="5"/>
      <circle fill="#FBA55F" transform="matrix(-1 0 0 1 258 0)" cx="129" cy="95" r="5"/>
      <circle fill="#FBA55F" transform="matrix(-1 0 0 1 420 0)" cx="210" cy="77" r="5"/>
      <circle fill="#FBA55F" transform="matrix(-1 0 0 1 576 0)" cx="288" cy="9" r="5"/>
      <circle fill="#FBA55F" transform="matrix(-1 0 0 1 204 0)" cx="102" cy="136" r="5"/>
      <circle fill="#FBA55F" transform="matrix(-1 0 0 1 396 0)" cx="198" cy="84" r="5"/>
      <circle fill="#FBA55F" transform="matrix(-1 0 0 1 180 0)" cx="90" cy="147" r="5"/>
      <circle fill="#FBA55F" transform="matrix(-1 0 0 1 10 0)" cx="5" cy="125" r="5"/>
      <circle fill="#FBA55F" transform="matrix(-1 0 0 1 438 0)" cx="219" cy="88" r="5"/>
      <circle fill="#FBA55F" transform="matrix(-1 0 0 1 634 0)" cx="317" cy="53" r="5"/>
      <circle fill="#2E75FE" transform="matrix(1 0 0 -1 0 551.094)" cx="341.4" cy="275.547" r="5"/>
      <circle fill="#2E75FE" transform="matrix(1 0 0 -1 0 545.094)" cx="149.4" cy="272.547" r="5"/>
      <circle fill="#2E75FE" transform="matrix(1 0 0 -1 0 347.094)" cx="430.4" cy="173.547" r="5"/>
      <circle fill="#2E75FE" transform="matrix(1 0 0 -1 0 519.094)" cx="276.4" cy="259.547" r="5"/>
      <circle fill="#2E75FE" transform="matrix(1 0 0 -1 0 643.094)" cx="129.4" cy="321.547" r="5"/>
      <circle fill="#2E75FE" transform="matrix(1 0 0 -1 0 317.094)" cx="391.4" cy="158.547" r="5"/>
      <circle fill="#2E75FE" transform="matrix(1 0 0 -1 0 221.094)" cx="351.4" cy="110.547" r="5"/>
      <circle fill="#2E75FE" transform="matrix(1 0 0 -1 0 535.094)" cx="204.4" cy="267.547" r="5"/>
      <circle fill="#2E75FE" transform="matrix(1 0 0 -1 0 563.094)" cx="353.4" cy="281.547" r="5"/>
      <circle fill="#2E75FE" transform="matrix(1 0 0 -1 0 519.094)" cx="361.4" cy="259.547" r="5"/>
      <circle fill="#2E75FE" transform="matrix(1 0 0 -1 0 413.094)" cx="402.4" cy="206.547" r="5"/>
      <circle fill="#2E75FE" transform="matrix(1 0 0 -1 0 431.094)" cx="348.4" cy="215.547" r="5"/>
      <circle fill="#2E75FE" transform="matrix(1 0 0 -1 0 791.094)" cx="450.4" cy="395.547" r="5"/>
      <circle fill="#2E75FE" transform="matrix(1 0 0 -1 0 357.094)" cx="409.4" cy="178.547" r="5"/>
      <circle fill="#2E75FE" transform="matrix(1 0 0 -1 0 403.094)" cx="235.4" cy="201.547" r="5"/>
      <circle fill="#2E75FE" transform="matrix(1 0 0 -1 0 465.094)" cx="398.4" cy="232.547" r="5"/>
      <circle fill="#2E75FE" transform="matrix(1 0 0 -1 0 823.094)" cx="329.4" cy="411.547" r="5"/>
      <circle fill="#2E75FE" transform="matrix(1 0 0 -1 0 777.094)" cx="335.4" cy="388.547" r="5"/>
      <circle fill="#2E75FE" transform="matrix(1 0 0 -1 0 767.094)" cx="447.4" cy="383.547" r="5"/>
      <circle fill="#2E75FE" transform="matrix(1 0 0 -1 0 799.094)" cx="345.4" cy="399.547" r="5"/>
      <circle fill="#2E75FE" transform="matrix(1 0 0 -1 0 821.094)" cx="350.4" cy="410.547" r="5"/>
      <circle fill="#2E75FE" transform="matrix(1 0 0 -1 0 803.094)" cx="368.4" cy="401.547" r="5"/>
      <circle fill="#2E75FE" transform="matrix(1 0 0 -1 0 813.094)" cx="378.4" cy="406.547" r="5"/>
      <circle fill="#2E75FE" transform="matrix(1 0 0 -1 0 799.094)" cx="386.4" cy="399.547" r="5"/>
      <circle fill="#2E75FE" transform="matrix(1 0 0 -1 0 507.094)" cx="347.4" cy="253.547" r="5"/>
      <circle fill="#2E75FE" transform="matrix(1 0 0 -1 0 773.094)" cx="385.4" cy="386.547" r="5"/>
      <circle fill="#2E75FE" transform="matrix(1 0 0 -1 0 411.094)" cx="443.4" cy="205.547" r="5"/>
      <circle fill="#2E75FE" transform="matrix(1 0 0 -1 0 565.094)" cx="280.4" cy="282.547" r="5"/>
      <circle fill="#2E75FE" transform="matrix(1 0 0 -1 0 505.094)" cx="113.4" cy="252.547" r="5"/>
      <circle fill="#2E75FE" transform="matrix(1 0 0 -1 0 775.094)" cx="366.4" cy="387.547" r="5"/>
      <circle fill="#2E75FE" transform="matrix(1 0 0 -1 0 785.094)" cx="316.4" cy="392.547" r="5"/>
      <circle fill="#2E75FE" transform="matrix(1 0 0 -1 0 785.094)" cx="395.4" cy="392.547" r="5"/>
      <circle fill="#2E75FE" transform="matrix(1 0 0 -1 0 797.094)" cx="405.4" cy="398.547" r="5"/>
      <circle fill="#2E75FE" transform="matrix(1 0 0 -1 0 815.094)" cx="395.4" cy="407.547" r="5"/>
      <circle fill="#2E75FE" transform="matrix(1 0 0 -1 0 767.094)" cx="403.4" cy="383.547" r="5"/>
      <circle fill="#2E75FE" transform="matrix(1 0 0 -1 0 773.094)" cx="415.4" cy="386.547" r="5"/>
      <circle fill="#2E75FE" transform="matrix(1 0 0 -1 0 235.094)" cx="266.4" cy="117.547" r="5"/>
      <circle fill="#2E75FE" transform="matrix(1 0 0 -1 0 775.094)" cx="426.4" cy="387.547" r="5"/>
      <circle fill="#2E75FE" transform="matrix(1 0 0 -1 0 729.094)" cx="300.4" cy="364.547" r="5"/>
      <circle fill="#2E75FE" transform="matrix(1 0 0 -1 0 613.094)" cx="444.4" cy="306.547" r="5"/>
      <circle fill="#2E75FE" transform="matrix(1 0 0 -1 0 701.094)" cx="413.4" cy="350.547" r="5"/>
      <circle fill="#2E75FE" transform="matrix(1 0 0 -1 0 629.094)" cx="368.4" cy="314.547" r="5"/>
      <circle fill="#2E75FE" transform="matrix(1 0 0 -1 0 613.094)" cx="458.4" cy="306.547" r="5"/>
      <circle fill="#2E75FE" transform="matrix(1 0 0 -1 0 711.094)" cx="397.4" cy="355.547" r="5"/>
      <circle fill="#2E75FE" transform="matrix(1 0 0 -1 0 777.094)" cx="353.4" cy="388.547" r="5"/>
      <circle fill="#2E75FE" transform="matrix(1 0 0 -1 0 677.094)" cx="396.4" cy="338.547" r="5"/>
      <circle fill="#2E75FE" transform="matrix(1 0 0 -1 0 695.094)" cx="444.4" cy="347.547" r="5"/>
      <circle fill="#2E75FE" transform="matrix(1 0 0 -1 0 759.094)" cx="305.4" cy="379.547" r="5"/>
      <circle fill="#2E75FE" transform="matrix(1 0 0 -1 0 763.094)" cx="325.4" cy="381.547" r="5"/>
      <circle fill="#2E75FE" transform="matrix(1 0 0 -1 0 679.094)" cx="351.4" cy="339.547" r="5"/>
      <circle fill="#2E75FE" transform="matrix(1 0 0 -1 0 285.094)" cx="376.4" cy="142.547" r="5"/>
      <circle fill="#2E75FE" transform="matrix(1 0 0 -1 0 725.094)" cx="318.4" cy="362.547" r="5"/>
      <circle fill="#2E75FE" transform="matrix(1 0 0 -1 0 395.094)" cx="438.4" cy="197.547" r="5"/>
      <circle fill="#2E75FE" transform="matrix(1 0 0 -1 0 757.094)" cx="393.4" cy="378.547" r="5"/>
      <circle fill="#2E75FE" transform="matrix(1 0 0 -1 0 699.094)" cx="312.4" cy="349.547" r="5"/>
      <circle fill="#2E75FE" transform="matrix(1 0 0 -1 0 755.094)" cx="361.4" cy="377.547" r="5"/>
      <circle fill="#2E75FE" transform="matrix(1 0 0 -1 0 729.094)" cx="357.4" cy="364.547" r="5"/>
      <circle fill="#2E75FE" transform="matrix(1 0 0 -1 0 689.094)" cx="368.4" cy="344.547" r="5"/>
      <circle fill="#2E75FE" transform="matrix(1 0 0 -1 0 723.094)" cx="337.4" cy="361.547" r="5"/>
      <circle fill="#2E75FE" transform="matrix(1 0 0 -1 0 705.094)" cx="294.4" cy="352.547" r="5"/>
      <circle fill="#2E75FE" transform="matrix(1 0 0 -1 0 559.094)" cx="180.4" cy="279.547" r="5"/>
      <circle fill="#2E75FE" transform="matrix(1 0 0 -1 0 739.094)" cx="367.4" cy="369.547" r="5"/>
      <circle fill="#2E75FE" transform="matrix(1 0 0 -1 0 727.094)" cx="378.4" cy="363.547" r="5"/>
      <circle fill="#2E75FE" transform="matrix(1 0 0 -1 0 239.094)" cx="337.4" cy="119.547" r="5"/>
      <circle fill="#2E75FE" transform="matrix(1 0 0 -1 0 737.094)" cx="402.4" cy="368.547" r="5"/>
      <circle fill="#2E75FE" transform="matrix(1 0 0 -1 0 727.094)" cx="435.4" cy="363.547" r="5"/>
      <circle fill="#2E75FE" transform="matrix(1 0 0 -1 0 757.094)" cx="425.4" cy="378.547" r="5"/>
      <circle fill="#2E75FE" transform="matrix(1 0 0 -1 0 519.094)" cx="381.4" cy="259.547" r="5"/>
      <circle fill="#2E75FE" transform="matrix(1 0 0 -1 0 341.094)" cx="129.4" cy="170.547" r="5"/>
      <circle fill="#2E75FE" transform="matrix(1 0 0 -1 0 739.094)" cx="422.4" cy="369.547" r="5"/>
      <circle fill="#2E75FE" transform="matrix(1 0 0 -1 0 693.094)" cx="334.4" cy="346.547" r="5"/>
      <circle fill="#2E75FE" transform="matrix(1 0 0 -1 0 741.094)" cx="290.4" cy="370.547" r="5"/>
      <circle fill="#2E75FE" transform="matrix(1 0 0 -1 0 287.094)" cx="422.4" cy="143.547" r="5"/>
      <circle fill="#2E75FE" transform="matrix(1 0 0 -1 0 457.094)" cx="357.4" cy="228.547" r="5"/>
      <circle fill="#2E75FE" transform="matrix(1 0 0 -1 0 503.094)" cx="379.4" cy="251.547" r="5"/>
      <circle fill="#2E75FE" transform="matrix(1 0 0 -1 0 943.094)" cx="419.4" cy="471.547" r="5"/>
      <circle fill="#2E75FE" transform="matrix(1 0 0 -1 0 689.094)" cx="389.4" cy="344.547" r="5"/>
      <circle fill="#2E75FE" transform="matrix(1 0 0 -1 0 929.094)" cx="408.4" cy="464.547" r="5"/>
      <circle fill="#2E75FE" transform="matrix(1 0 0 -1 0 495.094)" cx="425.4" cy="247.547" r="5"/>
      <circle fill="#2E75FE" transform="matrix(1 0 0 -1 0 889.094)" cx="405.4" cy="444.547" r="5"/>
      <circle fill="#2E75FE" transform="matrix(1 0 0 -1 0 821.094)" cx="251.4" cy="410.547" r="5"/>
      <circle fill="#2E75FE" transform="matrix(1 0 0 -1 0 853.094)" cx="413.4" cy="426.547" r="5"/>
      <circle fill="#2E75FE" transform="matrix(1 0 0 -1 0 637.094)" cx="242.4" cy="318.547" r="5"/>
      <circle fill="#2E75FE" transform="matrix(1 0 0 -1 0 281.094)" cx="242.4" cy="140.547" r="5"/>
      <circle fill="#2E75FE" transform="matrix(1 0 0 -1 0 645.094)" cx="289.4" cy="322.547" r="5"/>
      <circle fill="#2E75FE" transform="matrix(1 0 0 -1 0 823.094)" cx="405.4" cy="411.547" r="5"/>
      <circle fill="#2E75FE" transform="matrix(1 0 0 -1 0 263.094)" cx="273.4" cy="131.547" r="5"/>
      <circle fill="#2E75FE" transform="matrix(1 0 0 -1 0 813.094)" cx="442.4" cy="406.547" r="5"/>
      <circle fill="#2E75FE" transform="matrix(1 0 0 -1 0 793.094)" cx="438.4" cy="396.547" r="5"/>
      <circle fill="#2E75FE" transform="matrix(1 0 0 -1 0 365.094)" cx="309.4" cy="182.547" r="5"/>
      <circle fill="#2E75FE" transform="matrix(1 0 0 -1 0 675.094)" cx="294.4" cy="337.547" r="5"/>
      <circle fill="#2E75FE" transform="matrix(1 0 0 -1 0 921.094)" cx="439.4" cy="460.547" r="5"/>
      <circle fill="#2E75FE" transform="matrix(1 0 0 -1 0 857.094)" cx="373.4" cy="428.547" r="5"/>
      <circle fill="#2E75FE" transform="matrix(1 0 0 -1 0 681.094)" cx="322.4" cy="340.547" r="5"/>
      <circle fill="#2E75FE" transform="matrix(1 0 0 -1 0 773.094)" cx="322.4" cy="386.547" r="5"/>
      <circle fill="#2E75FE" transform="matrix(1 0 0 -1 0 271.094)" cx="290.4" cy="135.547" r="5"/>
      <circle fill="#2E75FE" transform="matrix(1 0 0 -1 0 687.094)" cx="260.4" cy="343.547" r="5"/>
      <circle fill="#2E75FE" transform="matrix(1 0 0 -1 0 639.094)" cx="453.4" cy="319.547" r="5"/>
      <circle fill="#2E75FE" transform="matrix(1 0 0 -1 0 677.094)" cx="382.4" cy="338.547" r="5"/>
      <circle fill="#2E75FE" transform="matrix(1 0 0 -1 0 671.094)" cx="426.4" cy="335.547" r="5"/>
      <circle fill="#2E75FE" transform="matrix(1 0 0 -1 0 661.094)" cx="279.4" cy="330.547" r="5"/>
      <circle fill="#2E75FE" transform="matrix(1 0 0 -1 0 851.094)" cx="298.4" cy="425.547" r="5"/>
      <circle fill="#2E75FE" transform="matrix(1 0 0 -1 0 323.094)" cx="430.4" cy="161.547" r="5"/>
      <circle fill="#2E75FE" transform="rotate(180 243.4 127.547)" cx="243.4" cy="127.547" r="5"/>
      <circle fill="#2E75FE" transform="rotate(180 359.4 429.547)" cx="359.4" cy="429.547" r="5"/>
      <circle fill="#2E75FE" transform="rotate(180 369.4 441.547)" cx="369.4" cy="441.547" r="5"/>
      <circle fill="#2E75FE" transform="rotate(180 440.4 471.547)" cx="440.4" cy="471.547" r="5"/>
      <circle fill="#2E75FE" transform="rotate(180 426.4 470.547)" cx="426.4" cy="470.547" r="5"/>
      <circle fill="#2E75FE" transform="rotate(180 291.4 415.547)" cx="291.4" cy="415.547" r="5"/>
      <circle fill="#2E75FE" transform="rotate(180 263.4 416.547)" cx="263.4" cy="416.547" r="5"/>
      <circle fill="#2E75FE" transform="rotate(180 443.4 214.547)" cx="443.4" cy="214.547" r="5"/>
      <circle fill="#2E75FE" transform="rotate(180 306.4 280.547)" cx="306.4" cy="280.547" r="5"/>
      <circle fill="#FBA55F" transform="matrix(-1 0 0 1 100 0)" cx="50" cy="153" r="5"/>
    </g>
    <path d="M486.364 224.931c9.479.558 8.364-22.86 8.364-24.533 0-1.673 1.672-13.939 5.018-18.957 3.345-4.46 7.248-26.206 7.248-26.206s15.612-20.072 10.6-23.417c-5.024-3.346-15.06-3.903-22.866-6.691-7.8-2.788-13.376-1.115-17.842-2.788-4.46-1.673-13.382-1.115-18.4-5.576-4.46-4.46-11.151-11.15-18.4-13.381-7.248-2.23-20.066-6.133-23.975-5.576-4.455.558-7.806-5.575-12.266-9.478-4.46-3.346-11.704-6.691-13.94-8.921-2.23-2.23-1.115-13.382-2.23-16.17-1.11-3.345-7.248 6.133-8.363 6.691-1.11.558-6.685 2.23-12.824 1.673-6.133-.558-3.903-7.806-3.903-15.612s-13.382-7.806-16.727-7.249c-3.346.558-2.23-5.575-3.346-8.363-1.115-2.788-8.363-1.673-11.703-3.345-3.35-1.115-3.908-15.055-5.575-16.17-1.679-1.115-10.042 4.46-13.388 2.23-3.34-2.23-7.806-19.514-8.915-20.63-1.12-1.115-30.666 5.576-36.242 9.48-5.575 3.902-4.466 30.665-8.363 42.932-3.351 12.266-36.242 17.284-47.393 22.86-11.152 5.576-11.152 18.4-11.152 18.4s-.563 3.902-4.466 6.133c-3.897 2.23-8.92 2.23-12.824-1.115-4.46-3.903-12.266-2.788-16.163-3.346-3.909-.557-5.576-5.018-9.485-2.788-3.903 1.673-3.903 4.46-7.242-3.903-2.788-8.363 1.11-4.46.552-12.266-.552-7.806-11.152-2.23-13.382-1.673-1.673 1.115-6.685-3.903-12.26-5.018-5.577-1.115 2.224 3.903 1.109 8.364-1.11 4.46.557 8.92 3.345 15.612 2.788 6.69 2.788 13.939 3.909 16.726 1.11 2.788-3.351 9.48 0 19.515 3.897 10.036 0 6.691-6.697 7.806-6.69 1.115-5.575-6.133-6.69-7.248-1.116-1.115-2.788-.558-5.019 1.673-2.23 2.23-9.473 0-13.939-2.23-4.46-2.231-13.381 8.363-15.048 8.363-1.679.557-3.909-6.691-4.467-8.921-1.11-2.23-4.46-6.691-7.805-11.152-3.346-3.903-.558-1.672-12.267-2.23-11.151-.557-4.46 1.115-7.806 5.018-3.345 3.903-7.248 1.673-9.473.558-2.236-1.115-3.35 1.672-5.575 2.23-2.236 0-1.679-3.345-4.467-3.903-2.787-.557-8.92 1.673-12.26 1.673-3.351 0-7.254 3.345-12.83 2.788-5.576-.558-5.576 5.018-6.685 11.15-1.12 5.577 15.049 10.037 17.836 13.94 2.788 3.903-5.575 3.903-13.381 5.018-7.806 1.115-.558 3.345 1.672 3.903 1.673 1.115 6.691 7.248 6.691 10.594 0 3.345 7.249 1.672 10.594 1.115 3.345-.558 6.69-.558 7.806 2.788.557 3.345 6.133 1.672 7.811 2.788 1.667 1.672 6.128 5.018 10.031 6.133 3.909.557 11.151 6.69 16.17 10.594 5.017 3.902 17.841 3.902 20.072 4.46 1.672.558 2.23 3.345-1.667 11.151-3.909 7.806 12.26 7.806 11.703 11.152-1.115 3.345 7.811 7.806 7.811 9.478 0 1.673-3.35 6.133-5.023 11.71-1.673 5.575 7.811 15.61 8.92 20.629 1.116 5.018 16.728 13.94 22.303 15.612 5.576 1.673 3.346 6.133 2.788 8.92-.557 2.789 2.788 10.595 3.346 13.94.557 3.345-2.788 9.479-4.455 8.363-1.679-1.115-3.909 2.23-3.909 3.903s11.709 11.71 14.497 13.94c2.23 2.23 5.575 6.69 5.575 18.957 0 12.266-2.224 7.806-3.345-1.115-1.115-8.921-8.363-15.612-10.03-17.842-1.679-2.23-2.236-2.788-3.352-1.116-1.115 1.673-3.345 18.4-3.902 20.073-.558 1.672-1.11 10.036-4.461 21.745-3.345 11.709-1.673 10.036 0 8.363 1.673-2.23 1.115-8.363 4.46-4.46 10.042 11.151 0 7.806-2.787 8.363-2.23.558-2.23 2.23-3.898 5.018-1.678 2.788-1.12 13.382-2.788 16.727-2.235 3.346-5.575 20.63-9.484 33.454-3.903 12.267-13.381 16.727-13.381 16.727-12.267 5.018 3.35 6.133 7.806 8.364 5.018 2.23 2.787 3.903.557 8.92-2.224 5.576 1.673 4.461 4.46 4.461 3.346.558 10.042.558 11.152 4.46 1.678 3.904 4.466 3.346 7.254 3.346 2.788 0 5.012.558 5.576 3.345.552 2.788 6.127 6.691 7.242 8.364 1.121 1.673 10.594-2.23 14.497 1.115 3.903 2.788 12.266 6.69 15.612 7.248 3.345 0 20.072 3.346 24.533 2.788 4.46-1.115-.552-8.363 6.69-8.363 7.249 0 13.94 9.478 18.958 9.478 5.018 0 6.133 6.134 9.478 6.134 3.351 0 7.806-.558 9.479 1.115 1.673 1.115 0 5.018 2.788 7.248 2.788 2.788 10.6 8.921 16.727 6.133 6.133-3.345 20.63 6.691 23.417 5.018 2.788-1.672 6.697-6.69 17.285-4.46 10.594 2.23 3.903-5.018 2.23-6.133-2.788-2.23-2.788-2.788-2.788-16.17 0-13.381 3.346-16.17 6.134-21.187 2.787-5.018 15.054-7.806 18.957-12.824 3.908-5.018 22.302-13.382 22.302-13.382 7.806 0 0 6.691 6.697 8.921 12.818 3.346 7.8-3.345 13.376-5.575 5.575-2.23 3.903 5.018 3.903 7.806.557 2.787 8.92 9.478 7.811 5.018-.563-4.46 5.576-5.018 6.685-3.346 1.116 2.23-.557 5.576 7.254 4.46 8.364-1.114 7.8 1.116 7.8 5.576 0 4.46 12.825 4.46 17.29 6.134 4.456 2.23 13.377 4.46 16.728 5.018 3.34 0 16.164-2.788 20.066-5.576 3.903-2.788 5.024-6.69 4.461-7.806-.558-1.115 2.23-7.248 6.69-7.248 4.461 0 6.134-4.46 8.922-7.249 2.788-2.787 12.266-10.036 18.957-12.266 6.69-2.788 1.115-10.036 3.903-12.266 2.788-2.23 6.133-10.037 3.345-12.824-2.787-2.788-7.248 2.787-16.163 1.672-8.364-1.115-12.272-6.69-13.94-9.478-2.235-2.788-1.678-10.037-3.908-14.497-2.23-4.46 2.788-6.133 5.576-10.594 2.23-5.018 0-7.248-7.243-11.151-7.254-3.345-2.236-4.46-5.024-7.806-3.34-3.345-4.46-9.479 1.115-8.921 5.576.558 2.788-2.23 10.594-3.345 7.806-1.116 6.133-3.903 6.133-8.921 0-5.019-6.133-13.382-7.806-17.285-1.672-3.903-8.363-8.363-1.115-13.94 7.254-5.575 1.678-10.593-1.11-12.823-2.787-2.23-2.787-5.018-2.787-14.497 0-9.478-11.152-5.575-14.502-5.575-3.346 0-9.48 2.23-9.48 4.46s3.904 7.248-7.247 7.806c-10.589.558-3.903-3.345-2.225-6.133 1.667-2.788.552-5.576.552-7.249 0-1.672 8.363-17.284 13.387-20.072 5.013-2.788 2.225-13.939 8.363-14.497 6.686-.557 13.376-13.939 17.28-18.4 3.902-4.46-3.34-5.575-1.116-10.035 2.23-4.46 7.249-1.116 16.727-.558z" stroke="#D5E5FF" stroke-width="3"/>
  </g>
</svg>
