<svg xmlns="http://www.w3.org/2000/svg" viewBox="0 0 740 372">
  <g transform="translate(2.337 13.63)" fill="none" fill-rule="evenodd">
    <circle fill="#2E75FE" transform="rotate(180 94.663 272.37)" cx="94.663" cy="272.369" r="5"/>
    <circle fill="#2E75FE" transform="rotate(180 217.663 328.37)" cx="217.663" cy="328.369" r="5"/>
    <circle fill="#2E75FE" transform="rotate(180 307.663 234.37)" cx="307.663" cy="234.369" r="5"/>
    <circle fill="#2E75FE" transform="rotate(180 191.663 308.37)" cx="191.663" cy="308.369" r="5"/>
    <circle fill="#2E75FE" transform="rotate(180 208.663 252.37)" cx="208.663" cy="252.369" r="5"/>
    <circle fill="#2E75FE" transform="rotate(180 220.663 218.37)" cx="220.663" cy="218.369" r="5"/>
    <circle fill="#2E75FE" transform="rotate(180 166.663 307.37)" cx="166.663" cy="307.369" r="5"/>
    <circle fill="#2E75FE" transform="rotate(180 357.663 244.37)" cx="357.663" cy="244.369" r="5"/>
    <circle fill="#2E75FE" transform="rotate(180 110.663 253.37)" cx="110.663" cy="253.369" r="5"/>
    <circle fill="#2E75FE" transform="rotate(180 186.663 258.37)" cx="186.663" cy="258.369" r="5"/>
    <circle fill="#2E75FE" transform="rotate(180 134.663 264.37)" cx="134.663" cy="264.369" r="5"/>
    <circle fill="#2E75FE" transform="rotate(180 409.663 228.37)" cx="409.663" cy="228.369" r="5"/>
    <circle fill="#2E75FE" transform="rotate(180 318.663 228.37)" cx="318.663" cy="228.369" r="5"/>
    <circle fill="#2E75FE" transform="rotate(180 43.663 343.37)" cx="43.663" cy="343.369" r="5"/>
    <circle fill="#2E75FE" transform="rotate(180 53.663 339.37)" cx="53.663" cy="339.369" r="5"/>
    <circle fill="#2E75FE" transform="rotate(180 119.663 328.37)" cx="119.663" cy="328.369" r="5"/>
    <circle fill="#2E75FE" transform="rotate(180 86.663 346.37)" cx="86.663" cy="346.369" r="5"/>
    <circle fill="#2E75FE" transform="rotate(180 272.663 120.37)" cx="272.663" cy="120.369" r="5"/>
    <circle fill="#2E75FE" transform="rotate(180 164.663 256.37)" cx="164.663" cy="256.369" r="5"/>
    <circle fill="#2E75FE" transform="rotate(180 120.663 338.37)" cx="120.663" cy="338.369" r="5"/>
    <circle fill="#2E75FE" transform="rotate(180 170.663 210.37)" cx="170.663" cy="210.369" r="5"/>
    <circle fill="#2E75FE" transform="rotate(180 135.663 334.37)" cx="135.663" cy="334.369" r="5"/>
    <circle fill="#2E75FE" transform="rotate(180 87.663 313.37)" cx="87.663" cy="313.369" r="5"/>
    <circle fill="#2E75FE" transform="rotate(180 337.663 211.37)" cx="337.663" cy="211.369" r="5"/>
    <circle fill="#2E75FE" transform="rotate(180 344.663 218.37)" cx="344.663" cy="218.369" r="5"/>
    <circle fill="#2E75FE" transform="rotate(180 387.663 142.37)" cx="387.663" cy="142.369" r="5"/>
    <circle fill="#2E75FE" transform="rotate(180 102.663 227.37)" cx="102.663" cy="227.369" r="5"/>
    <circle fill="#2E75FE" transform="rotate(180 418.663 142.37)" cx="418.663" cy="142.369" r="5"/>
    <circle fill="#2E75FE" transform="rotate(180 32.663 346.37)" cx="32.663" cy="346.369" r="5"/>
    <circle fill="#2E75FE" transform="rotate(180 338.663 294.37)" cx="338.663" cy="294.369" r="5"/>
    <circle fill="#FBA55F" transform="rotate(180 131.663 214.37)" cx="131.663" cy="214.369" r="5"/>
    <circle fill="#FBA55F" transform="rotate(180 196.663 148.37)" cx="196.663" cy="148.369" r="5"/>
    <circle fill="#FBA55F" transform="rotate(180 118.663 206.37)" cx="118.663" cy="206.369" r="5"/>
    <circle fill="#FBA55F" transform="rotate(180 122.663 217.37)" cx="122.663" cy="217.369" r="5"/>
    <circle fill="#FBA55F" transform="rotate(180 236.663 158.37)" cx="236.663" cy="158.369" r="5"/>
    <circle fill="#FBA55F" transform="rotate(180 177.663 148.37)" cx="177.663" cy="148.369" r="5"/>
    <circle fill="#FBA55F" transform="rotate(180 230.663 169.37)" cx="230.663" cy="169.369" r="5"/>
    <circle fill="#FBA55F" transform="rotate(180 184.663 162.37)" cx="184.663" cy="162.369" r="5"/>
    <circle fill="#FBA55F" transform="rotate(180 276.663 80.37)" cx="276.663" cy="80.369" r="5"/>
    <circle fill="#FBA55F" transform="rotate(180 204.663 162.37)" cx="204.663" cy="162.369" r="5"/>
    <circle fill="#FBA55F" transform="rotate(180 168.663 158.37)" cx="168.663" cy="158.369" r="5"/>
    <circle fill="#FBA55F" transform="rotate(180 220.663 158.37)" cx="220.663" cy="158.369" r="5"/>
    <circle fill="#FBA55F" transform="rotate(180 95.663 209.37)" cx="95.663" cy="209.369" r="5"/>
    <circle fill="#FBA55F" transform="rotate(180 106.663 201.37)" cx="106.663" cy="201.369" r="5"/>
    <circle fill="#FBA55F" transform="rotate(180 115.663 193.37)" cx="115.663" cy="193.369" r="5"/>
    <circle fill="#FBA55F" transform="rotate(180 192.663 155.37)" cx="192.663" cy="155.369" r="5"/>
    <circle fill="#FBA55F" transform="rotate(180 211.663 148.37)" cx="211.663" cy="148.369" r="5"/>
    <circle fill="#FBA55F" transform="rotate(180 162.663 167.37)" cx="162.663" cy="167.369" r="5"/>
    <circle fill="#FBA55F" transform="rotate(180 560.663 177.37)" cx="560.663" cy="177.369" r="5"/>
    <circle fill="#FBA55F" transform="rotate(180 277.663 93.37)" cx="277.663" cy="93.369" r="5"/>
    <circle fill="#FBA55F" transform="rotate(180 276.663 62.37)" cx="276.663" cy="62.369" r="5"/>
    <circle fill="#FBA55F" transform="rotate(180 264.663 84.37)" cx="264.663" cy="84.369" r="5"/>
    <circle fill="#FBA55F" transform="rotate(180 262.663 58.37)" cx="262.663" cy="58.369" r="5"/>
    <circle fill="#FBA55F" transform="rotate(180 269.663 45.37)" cx="269.663" cy="45.369" r="5"/>
    <circle fill="#FBA55F" transform="rotate(180 511.663 174.37)" cx="511.663" cy="174.369" r="5"/>
    <circle fill="#FBA55F" transform="rotate(180 372.663 117.37)" cx="372.663" cy="117.369" r="5"/>
    <circle fill="#FBA55F" transform="rotate(180 362.663 142.37)" cx="362.663" cy="142.369" r="5"/>
    <circle fill="#FBA55F" transform="rotate(180 320.663 108.37)" cx="320.663" cy="108.369" r="5"/>
    <circle fill="#FBA55F" transform="rotate(180 334.663 127.37)" cx="334.663" cy="127.369" r="5"/>
    <circle fill="#FBA55F" transform="rotate(180 315.663 118.37)" cx="315.663" cy="118.369" r="5"/>
    <circle fill="#FBA55F" transform="rotate(180 342.663 110.37)" cx="342.663" cy="110.369" r="5"/>
    <circle fill="#FBA55F" transform="rotate(180 333.663 115.37)" cx="333.663" cy="115.369" r="5"/>
    <circle fill="#FBA55F" transform="rotate(180 346.663 122.37)" cx="346.663" cy="122.369" r="5"/>
    <circle fill="#FBA55F" transform="rotate(180 355.663 106.37)" cx="355.663" cy="106.369" r="5"/>
    <circle fill="#FBA55F" transform="rotate(180 366.663 129.37)" cx="366.663" cy="129.369" r="5"/>
    <circle fill="#FBA55F" transform="rotate(180 357.663 117.37)" cx="357.663" cy="117.369" r="5"/>
    <circle fill="#FBA55F" transform="rotate(180 311.663 130.37)" cx="311.663" cy="130.369" r="5"/>
    <circle fill="#FBA55F" transform="rotate(180 525.663 182.37)" cx="525.663" cy="182.369" r="5"/>
    <circle fill="#FBA55F" transform="rotate(180 462.663 168.37)" cx="462.663" cy="168.369" r="5"/>
    <circle fill="#FBA55F" transform="rotate(180 498.663 176.37)" cx="498.663" cy="176.369" r="5"/>
    <circle fill="#FBA55F" transform="rotate(180 545.663 174.37)" cx="545.663" cy="174.369" r="5"/>
    <circle fill="#FBA55F" transform="rotate(180 513.663 183.37)" cx="513.663" cy="183.369" r="5"/>
    <circle fill="#FBA55F" transform="rotate(180 538.663 188.37)" cx="538.663" cy="188.369" r="5"/>
    <circle fill="#FBA55F" transform="rotate(180 549.663 184.37)" cx="549.663" cy="184.369" r="5"/>
    <circle fill="#FBA55F" transform="rotate(180 528.663 170.37)" cx="528.663" cy="170.369" r="5"/>
    <circle fill="#FBA55F" transform="rotate(180 493.663 186.37)" cx="493.663" cy="186.369" r="5"/>
    <circle fill="#FBA55F" transform="rotate(180 369.663 106.37)" cx="369.663" cy="106.369" r="5"/>
    <circle fill="#FBA55F" transform="rotate(180 385.663 126.37)" cx="385.663" cy="126.369" r="5"/>
    <circle fill="#FBA55F" transform="rotate(180 561.663 189.37)" cx="561.663" cy="189.369" r="5"/>
    <circle fill="#FBA55F" transform="rotate(180 618.663 224.37)" cx="618.663" cy="224.369" r="5"/>
    <circle fill="#FBA55F" transform="rotate(180 97.663 196.37)" cx="97.663" cy="196.369" r="5"/>
    <circle fill="#FBA55F" transform="rotate(180 321.663 127.37)" cx="321.663" cy="127.369" r="5"/>
    <circle fill="#FBA55F" transform="rotate(180 384.663 109.37)" cx="384.663" cy="109.369" r="5"/>
    <circle fill="#FBA55F" transform="rotate(180 396.663 119.37)" cx="396.663" cy="119.369" r="5"/>
    <circle fill="#FBA55F" transform="rotate(180 354.663 132.37)" cx="354.663" cy="132.369" r="5"/>
    <circle fill="#FBA55F" transform="rotate(180 417.663 129.37)" cx="417.663" cy="129.369" r="5"/>
    <circle fill="#FBA55F" transform="rotate(180 452.663 162.37)" cx="452.663" cy="162.369" r="5"/>
    <circle fill="#FBA55F" transform="rotate(180 401.663 132.37)" cx="401.663" cy="132.369" r="5"/>
    <circle fill="#FBA55F" transform="rotate(180 374.663 134.37)" cx="374.663" cy="134.369" r="5"/>
    <circle fill="#FBA55F" transform="rotate(180 404.663 109.37)" cx="404.663" cy="109.369" r="5"/>
    <circle fill="#FBA55F" transform="rotate(180 268.663 67.37)" cx="268.663" cy="67.369" r="5"/>
    <circle fill="#FBA55F" transform="rotate(180 103.663 214.37)" cx="103.663" cy="214.369" r="5"/>
    <circle fill="#FBA55F" transform="rotate(180 89.663 216.37)" cx="89.663" cy="216.369" r="5"/>
    <circle fill="#2E75FE" transform="rotate(180 327.663 141.37)" cx="327.663" cy="141.369" r="5"/>
    <circle fill="#2E75FE" transform="rotate(180 53.663 349.37)" cx="53.663" cy="349.369" r="5"/>
    <circle fill="#2E75FE" transform="rotate(180 18.663 346.37)" cx="18.663" cy="346.369" r="5"/>
    <circle fill="#2E75FE" transform="rotate(180 206.663 288.37)" cx="206.663" cy="288.369" r="5"/>
    <circle fill="#2E75FE" transform="rotate(180 318.663 275.37)" cx="318.663" cy="275.369" r="5"/>
    <circle fill="#2E75FE" transform="rotate(180 334.663 239.37)" cx="334.663" cy="239.369" r="5"/>
    <circle fill="#2E75FE" transform="rotate(180 366.663 197.37)" cx="366.663" cy="197.369" r="5"/>
    <circle fill="#2E75FE" transform="rotate(180 315.663 210.37)" cx="315.663" cy="210.369" r="5"/>
    <circle fill="#2E75FE" transform="rotate(180 308.663 153.37)" cx="308.663" cy="153.369" r="5"/>
    <circle fill="#2E75FE" transform="rotate(180 154.663 346.37)" cx="154.663" cy="346.369" r="5"/>
    <circle fill="#2E75FE" transform="rotate(180 165.663 344.37)" cx="165.663" cy="344.369" r="5"/>
    <circle fill="#2E75FE" transform="rotate(180 201.663 297.37)" cx="201.663" cy="297.369" r="5"/>
    <circle fill="#2E75FE" transform="rotate(180 135.663 352.37)" cx="135.663" cy="352.369" r="5"/>
    <circle fill="#2E75FE" transform="rotate(180 356.663 175.37)" cx="356.663" cy="175.369" r="5"/>
    <circle fill="#2E75FE" transform="rotate(180 330.663 193.37)" cx="330.663" cy="193.369" r="5"/>
    <circle fill="#2E75FE" transform="rotate(180 387.663 184.37)" cx="387.663" cy="184.369" r="5"/>
    <circle fill="#2E75FE" transform="rotate(180 121.663 313.37)" cx="121.663" cy="313.369" r="5"/>
    <circle fill="#2E75FE" transform="rotate(180 230.663 297.37)" cx="230.663" cy="297.369" r="5"/>
    <circle fill="#2E75FE" transform="rotate(180 199.663 199.37)" cx="199.663" cy="199.369" r="5"/>
    <circle fill="#2E75FE" transform="rotate(180 194.663 239.37)" cx="194.663" cy="239.369" r="5"/>
    <circle fill="#2E75FE" transform="rotate(180 185.663 214.37)" cx="185.663" cy="214.369" r="5"/>
    <circle fill="#2E75FE" transform="rotate(180 238.663 230.37)" cx="238.663" cy="230.369" r="5"/>
    <circle fill="#2E75FE" transform="rotate(180 234.663 249.37)" cx="234.663" cy="249.369" r="5"/>
    <circle fill="#2E75FE" transform="rotate(180 210.663 234.37)" cx="210.663" cy="234.369" r="5"/>
    <circle fill="#2E75FE" transform="rotate(180 158.663 237.37)" cx="158.663" cy="237.369" r="5"/>
    <circle fill="#2E75FE" transform="rotate(180 156.663 203.37)" cx="156.663" cy="203.369" r="5"/>
    <circle fill="#2E75FE" transform="rotate(180 197.663 225.37)" cx="197.663" cy="225.369" r="5"/>
    <circle fill="#2E75FE" transform="rotate(180 174.663 243.37)" cx="174.663" cy="243.369" r="5"/>
    <circle fill="#2E75FE" transform="rotate(180 123.663 352.37)" cx="123.663" cy="352.369" r="5"/>
    <circle fill="#2E75FE" transform="rotate(180 95.663 349.37)" cx="95.663" cy="349.369" r="5"/>
    <circle fill="#2E75FE" transform="rotate(180 111.663 347.37)" cx="111.663" cy="347.369" r="5"/>
    <circle fill="#2E75FE" transform="rotate(180 395.663 152.37)" cx="395.663" cy="152.369" r="5"/>
    <circle fill="#2E75FE" transform="rotate(180 387.663 324.37)" cx="387.663" cy="324.369" r="5"/>
    <circle fill="#2E75FE" transform="rotate(180 65.663 346.37)" cx="65.663" cy="346.369" r="5"/>
    <circle fill="#2E75FE" transform="rotate(180 382.663 167.37)" cx="382.663" cy="167.369" r="5"/>
    <circle fill="#2E75FE" transform="rotate(180 134.663 302.37)" cx="134.663" cy="302.369" r="5"/>
    <circle fill="#2E75FE" transform="rotate(180 59.663 332.37)" cx="59.663" cy="332.369" r="5"/>
    <circle fill="#2E75FE" transform="rotate(180 227.663 183.37)" cx="227.663" cy="183.369" r="5"/>
    <circle fill="#2E75FE" transform="rotate(180 177.663 196.37)" cx="177.663" cy="196.369" r="5"/>
    <circle fill="#2E75FE" transform="rotate(180 135.663 317.37)" cx="135.663" cy="317.369" r="5"/>
    <circle fill="#2E75FE" transform="rotate(180 117.663 240.37)" cx="117.663" cy="240.369" r="5"/>
    <circle fill="#2E75FE" transform="rotate(180 399.663 184.37)" cx="399.663" cy="184.369" r="5"/>
    <circle fill="#2E75FE" transform="rotate(180 103.663 238.37)" cx="103.663" cy="238.369" r="5"/>
    <circle fill="#2E75FE" transform="rotate(180 107.663 315.37)" cx="107.663" cy="315.369" r="5"/>
    <circle fill="#2E75FE" transform="rotate(180 223.663 258.37)" cx="223.663" cy="258.369" r="5"/>
    <circle fill="#2E75FE" transform="rotate(180 225.663 237.37)" cx="225.663" cy="237.369" r="5"/>
    <circle fill="#2E75FE" transform="rotate(180 169.663 187.37)" cx="169.663" cy="187.369" r="5"/>
    <circle fill="#2E75FE" transform="rotate(180 132.663 287.37)" cx="132.663" cy="287.369" r="5"/>
    <circle fill="#2E75FE" transform="rotate(180 210.663 185.37)" cx="210.663" cy="185.369" r="5"/>
    <circle fill="#2E75FE" transform="rotate(180 190.663 187.37)" cx="190.663" cy="187.369" r="5"/>
    <circle fill="#2E75FE" transform="rotate(180 343.663 247.37)" cx="343.663" cy="247.369" r="5"/>
    <circle fill="#2E75FE" transform="rotate(180 90.663 325.37)" cx="90.663" cy="325.369" r="5"/>
    <circle fill="#2E75FE" transform="rotate(180 211.663 206.37)" cx="211.663" cy="206.369" r="5"/>
    <circle fill="#2E75FE" transform="rotate(180 160.663 222.37)" cx="160.663" cy="222.369" r="5"/>
    <circle fill="#2E75FE" transform="rotate(180 93.663 337.37)" cx="93.663" cy="337.369" r="5"/>
    <circle fill="#2E75FE" transform="rotate(180 179.663 231.37)" cx="179.663" cy="231.369" r="5"/>
    <circle fill="#2E75FE" transform="rotate(180 119.663 300.37)" cx="119.663" cy="300.369" r="5"/>
    <circle fill="#2E75FE" transform="rotate(180 374.663 351.37)" cx="374.663" cy="351.369" r="5"/>
    <circle fill="#2E75FE" transform="rotate(180 414.663 258.37)" cx="414.663" cy="258.369" r="5"/>
    <circle fill="#2E75FE" transform="rotate(180 218.663 197.37)" cx="218.663" cy="197.369" r="5"/>
    <circle fill="#2E75FE" transform="rotate(180 231.663 273.37)" cx="231.663" cy="273.369" r="5"/>
    <circle fill="#2E75FE" transform="rotate(180 528.663 262.37)" cx="528.663" cy="262.369" r="5"/>
    <circle fill="#2E75FE" transform="rotate(180 538.663 244.37)" cx="538.663" cy="244.369" r="5"/>
    <circle fill="#2E75FE" transform="rotate(180 215.663 293.37)" cx="215.663" cy="293.369" r="5"/>
    <circle fill="#2E75FE" transform="rotate(180 277.663 324.37)" cx="277.663" cy="324.369" r="5"/>
    <circle fill="#2E75FE" transform="rotate(180 24.663 312.37)" cx="24.663" cy="312.369" r="5"/>
    <circle fill="#2E75FE" transform="rotate(180 196.663 177.37)" cx="196.663" cy="177.369" r="5"/>
    <circle fill="#2E75FE" transform="rotate(180 34.663 333.37)" cx="34.663" cy="333.369" r="5"/>
    <circle fill="#2E75FE" transform="rotate(180 294.663 349.37)" cx="294.663" cy="349.369" r="5"/>
    <circle fill="#2E75FE" transform="rotate(180 88.663 295.37)" cx="88.663" cy="295.369" r="5"/>
    <circle fill="#2E75FE" transform="rotate(180 159.663 270.37)" cx="159.663" cy="270.369" r="5"/>
    <circle fill="#2E75FE" transform="rotate(180 173.663 177.37)" cx="173.663" cy="177.369" r="5"/>
    <circle fill="#2E75FE" transform="rotate(180 189.663 202.37)" cx="189.663" cy="202.369" r="5"/>
    <circle fill="#2E75FE" transform="rotate(180 275.663 296.37)" cx="275.663" cy="296.369" r="5"/>
    <circle fill="#2E75FE" transform="rotate(180 319.663 285.37)" cx="319.663" cy="285.369" r="5"/>
    <circle fill="#2E75FE" transform="rotate(180 265.663 320.37)" cx="265.663" cy="320.369" r="5"/>
    <circle fill="#2E75FE" transform="rotate(180 267.663 111.37)" cx="267.663" cy="111.369" r="5"/>
    <circle fill="#2E75FE" transform="rotate(180 264.663 292.37)" cx="264.663" cy="292.369" r="5"/>
    <circle fill="#2E75FE" transform="rotate(180 278.663 277.37)" cx="278.663" cy="277.369" r="5"/>
    <circle fill="#2E75FE" transform="rotate(180 503.663 195.37)" cx="503.663" cy="195.369" r="5"/>
    <circle fill="#2E75FE" transform="rotate(180 525.663 197.37)" cx="525.663" cy="197.369" r="5"/>
    <circle fill="#2E75FE" transform="rotate(180 351.663 339.37)" cx="351.663" cy="339.369" r="5"/>
    <circle fill="#2E75FE" transform="rotate(180 337.663 171.37)" cx="337.663" cy="171.369" r="5"/>
    <circle fill="#2E75FE" transform="rotate(180 193.663 250.37)" cx="193.663" cy="250.369" r="5"/>
    <circle fill="#2E75FE" transform="rotate(180 117.663 270.37)" cx="117.663" cy="270.369" r="5"/>
    <circle fill="#2E75FE" transform="rotate(180 305.663 320.37)" cx="305.663" cy="320.369" r="5"/>
    <circle fill="#2E75FE" transform="rotate(180 365.663 273.37)" cx="365.663" cy="273.369" r="5"/>
    <circle fill="#2E75FE" transform="rotate(180 410.663 304.37)" cx="410.663" cy="304.369" r="5"/>
    <circle fill="#2E75FE" transform="rotate(180 162.663 292.37)" cx="162.663" cy="292.369" r="5"/>
    <circle fill="#2E75FE" transform="rotate(180 190.663 287.37)" cx="190.663" cy="287.369" r="5"/>
    <circle fill="#2E75FE" transform="rotate(180 221.663 280.37)" cx="221.663" cy="280.369" r="5"/>
    <circle fill="#2E75FE" transform="rotate(180 278.663 287.37)" cx="278.663" cy="287.369" r="5"/>
    <circle fill="#2E75FE" transform="rotate(180 160.663 189.37)" cx="160.663" cy="189.369" r="5"/>
    <circle fill="#2E75FE" transform="rotate(180 210.663 270.37)" cx="210.663" cy="270.369" r="5"/>
    <circle fill="#2E75FE" transform="rotate(180 87.663 280.37)" cx="87.663" cy="280.369" r="5"/>
    <circle fill="#2E75FE" transform="rotate(180 101.663 265.37)" cx="101.663" cy="265.369" r="5"/>
    <circle fill="#2E75FE" transform="rotate(180 367.663 286.37)" cx="367.663" cy="286.369" r="5"/>
    <circle fill="#2E75FE" transform="rotate(180 522.663 214.37)" cx="522.663" cy="214.369" r="5"/>
    <circle fill="#2E75FE" transform="rotate(180 547.663 199.37)" cx="547.663" cy="199.369" r="5"/>
    <circle fill="#2E75FE" transform="rotate(180 263.663 278.37)" cx="263.663" cy="278.369" r="5"/>
    <circle fill="#2E75FE" transform="rotate(180 375.663 206.37)" cx="375.663" cy="206.369" r="5"/>
    <circle fill="#2E75FE" transform="rotate(180 277.663 338.37)" cx="277.663" cy="338.369" r="5"/>
    <circle fill="#2E75FE" transform="rotate(180 86.663 262.37)" cx="86.663" cy="262.369" r="5"/>
    <circle fill="#2E75FE" transform="rotate(180 278.663 309.37)" cx="278.663" cy="309.369" r="5"/>
    <circle fill="#2E75FE" transform="rotate(180 195.663 351.37)" cx="195.663" cy="351.369" r="5"/>
    <circle fill="#2E75FE" transform="rotate(180 178.663 318.37)" cx="178.663" cy="318.369" r="5"/>
    <circle fill="#2E75FE" transform="rotate(180 196.663 263.37)" cx="196.663" cy="263.369" r="5"/>
    <circle fill="#2E75FE" transform="rotate(180 132.663 228.37)" cx="132.663" cy="228.369" r="5"/>
    <circle fill="#2E75FE" transform="rotate(180 389.663 248.37)" cx="389.663" cy="248.369" r="5"/>
    <circle fill="#2E75FE" transform="rotate(180 97.663 254.37)" cx="97.663" cy="254.369" r="5"/>
    <circle fill="#2E75FE" transform="rotate(180 88.663 245.37)" cx="88.663" cy="245.369" r="5"/>
    <circle fill="#2E75FE" transform="rotate(180 98.663 308.37)" cx="98.663" cy="308.369" r="5"/>
    <circle fill="#2E75FE" transform="rotate(180 210.663 342.37)" cx="210.663" cy="342.369" r="5"/>
    <circle fill="#2E75FE" transform="rotate(180 181.663 335.37)" cx="181.663" cy="335.369" r="5"/>
    <circle fill="#2E75FE" transform="rotate(180 116.663 224.37)" cx="116.663" cy="224.369" r="5"/>
    <circle fill="#2E75FE" transform="rotate(180 230.663 321.37)" cx="230.663" cy="321.369" r="5"/>
    <circle fill="#2E75FE" transform="rotate(180 390.663 214.37)" cx="390.663" cy="214.369" r="5"/>
    <circle fill="#2E75FE" transform="rotate(180 229.663 336.37)" cx="229.663" cy="336.369" r="5"/>
    <circle fill="#2E75FE" transform="rotate(180 326.663 250.37)" cx="326.663" cy="250.369" r="5"/>
    <circle fill="#2E75FE" transform="rotate(180 196.663 328.37)" cx="196.663" cy="328.369" r="5"/>
    <circle fill="#2E75FE" transform="rotate(180 136.663 245.37)" cx="136.663" cy="245.369" r="5"/>
    <circle fill="#2E75FE" transform="rotate(180 90.663 230.37)" cx="90.663" cy="230.369" r="5"/>
    <circle fill="#2E75FE" transform="rotate(180 126.663 252.37)" cx="126.663" cy="252.369" r="5"/>
    <circle fill="#2E75FE" transform="rotate(180 178.663 296.37)" cx="178.663" cy="296.369" r="5"/>
    <circle fill="#2E75FE" transform="rotate(180 179.663 309.37)" cx="179.663" cy="309.369" r="5"/>
    <circle fill="#2E75FE" transform="rotate(180 505.663 211.37)" cx="505.663" cy="211.369" r="5"/>
    <circle fill="#2E75FE" transform="rotate(180 457.663 182.37)" cx="457.663" cy="182.369" r="5"/>
    <circle fill="#2E75FE" transform="rotate(180 220.663 307.37)" cx="220.663" cy="307.369" r="5"/>
    <circle fill="#2E75FE" transform="rotate(180 229.663 347.37)" cx="229.663" cy="347.369" r="5"/>
    <circle fill="#2E75FE" transform="rotate(180 209.663 335.37)" cx="209.663" cy="335.369" r="5"/>
    <circle fill="#2E75FE" transform="rotate(180 206.663 312.37)" cx="206.663" cy="312.369" r="5"/>
    <circle fill="#2E75FE" transform="rotate(180 160.663 319.37)" cx="160.663" cy="319.369" r="5"/>
    <circle fill="#2E75FE" transform="rotate(180 263.663 349.37)" cx="263.663" cy="349.369" r="5"/>
    <circle fill="#2E75FE" transform="rotate(180 266.663 304.37)" cx="266.663" cy="304.369" r="5"/>
    <circle fill="#2E75FE" transform="matrix(1 0 0 -1 0 666.739)" cx="266.663" cy="333.369" r="5"/>
    <circle fill="#2E75FE" transform="matrix(1 0 0 -1 0 388.739)" cx="514.663" cy="194.369" r="5"/>
    <circle fill="#2E75FE" transform="matrix(1 0 0 -1 0 568.739)" cx="176.663" cy="284.369" r="5"/>
    <circle fill="#2E75FE" transform="matrix(1 0 0 -1 0 702.739)" cx="182.663" cy="351.369" r="5"/>
    <circle fill="#2E75FE" transform="matrix(1 0 0 -1 0 632.739)" cx="352.663" cy="316.369" r="5"/>
    <circle fill="#2E75FE" transform="matrix(1 0 0 -1 0 422.739)" cx="412.663" cy="211.369" r="5"/>
    <circle fill="#2E75FE" transform="matrix(1 0 0 -1 0 662.739)" cx="167.663" cy="331.369" r="5"/>
    <circle fill="#2E75FE" transform="matrix(1 0 0 -1 0 644.739)" cx="328.663" cy="322.369" r="5"/>
    <circle fill="#2E75FE" transform="matrix(1 0 0 -1 0 492.739)" cx="369.663" cy="246.369" r="5"/>
    <circle fill="#2E75FE" transform="matrix(1 0 0 -1 0 666.739)" cx="332.663" cy="333.369" r="5"/>
    <circle fill="#2E75FE" transform="matrix(1 0 0 -1 0 574.739)" cx="406.663" cy="287.369" r="5"/>
    <circle fill="#2E75FE" transform="matrix(1 0 0 -1 0 538.739)" cx="414.663" cy="269.369" r="5"/>
    <circle fill="#2E75FE" transform="matrix(1 0 0 -1 0 680.739)" cx="313.663" cy="340.369" r="5"/>
    <circle fill="#2E75FE" transform="matrix(1 0 0 -1 0 614.739)" cx="544.663" cy="307.369" r="5"/>
    <circle fill="#2E75FE" transform="matrix(1 0 0 -1 0 384.739)" cx="311.663" cy="192.369" r="5"/>
    <circle fill="#2E75FE" transform="matrix(1 0 0 -1 0 604.739)" cx="503.663" cy="302.369" r="5"/>
    <circle fill="#2E75FE" transform="matrix(1 0 0 -1 0 682.739)" cx="548.663" cy="341.369" r="5"/>
    <circle fill="#2E75FE" transform="matrix(1 0 0 -1 0 636.739)" cx="525.663" cy="318.369" r="5"/>
    <circle fill="#2E75FE" transform="matrix(1 0 0 -1 0 702.739)" cx="484.663" cy="351.369" r="5"/>
    <circle fill="#2E75FE" transform="matrix(1 0 0 -1 0 540.739)" cx="178.663" cy="270.369" r="5"/>
    <circle fill="#2E75FE" transform="matrix(1 0 0 -1 0 416.739)" cx="531.663" cy="208.369" r="5"/>
    <circle fill="#2E75FE" transform="matrix(1 0 0 -1 0 674.739)" cx="525.663" cy="337.369" r="5"/>
    <circle fill="#2E75FE" transform="matrix(1 0 0 -1 0 660.739)" cx="555.663" cy="330.369" r="5"/>
    <circle fill="#2E75FE" transform="matrix(1 0 0 -1 0 592.739)" cx="550.663" cy="296.369" r="5"/>
    <circle fill="#2E75FE" transform="matrix(1 0 0 -1 0 644.739)" cx="602.663" cy="322.369" r="5"/>
    <circle fill="#2E75FE" transform="matrix(1 0 0 -1 0 606.739)" cx="621.663" cy="303.369" r="5"/>
    <circle fill="#2E75FE" transform="matrix(1 0 0 -1 0 576.739)" cx="616.663" cy="288.369" r="5"/>
    <circle fill="#2E75FE" transform="matrix(1 0 0 -1 0 552.739)" cx="622.663" cy="276.369" r="5"/>
    <circle fill="#2E75FE" transform="matrix(1 0 0 -1 0 520.739)" cx="616.663" cy="260.369" r="5"/>
    <circle fill="#2E75FE" transform="matrix(1 0 0 -1 0 496.739)" cx="621.663" cy="248.369" r="5"/>
    <circle fill="#2E75FE" transform="matrix(1 0 0 -1 0 476.739)" cx="618.663" cy="238.369" r="5"/>
    <circle fill="#2E75FE" transform="matrix(1 0 0 -1 0 662.739)" cx="616.663" cy="331.369" r="5"/>
    <circle fill="#2E75FE" transform="matrix(1 0 0 -1 0 638.739)" cx="618.663" cy="319.369" r="5"/>
    <circle fill="#2E75FE" transform="matrix(1 0 0 -1 0 630.739)" cx="632.663" cy="315.369" r="5"/>
    <circle fill="#2E75FE" transform="matrix(1 0 0 -1 0 560.739)" cx="518.663" cy="280.369" r="5"/>
    <circle fill="#2E75FE" transform="matrix(1 0 0 -1 0 590.739)" cx="566.663" cy="295.369" r="5"/>
    <circle fill="#2E75FE" transform="matrix(1 0 0 -1 0 490.739)" cx="519.663" cy="245.369" r="5"/>
    <circle fill="#2E75FE" transform="matrix(1 0 0 -1 0 620.739)" cx="55.663" cy="310.369" r="5"/>
    <circle fill="#2E75FE" transform="matrix(1 0 0 -1 0 590.739)" cx="104.663" cy="295.369" r="5"/>
    <circle fill="#2E75FE" transform="matrix(1 0 0 -1 0 326.739)" cx="355.663" cy="163.369" r="5"/>
    <circle fill="#2E75FE" transform="matrix(1 0 0 -1 0 420.739)" cx="455.663" cy="210.369" r="5"/>
    <circle fill="#2E75FE" transform="matrix(1 0 0 -1 0 622.739)" cx="538.663" cy="311.369" r="5"/>
    <circle fill="#2E75FE" transform="matrix(1 0 0 -1 0 698.739)" cx="511.663" cy="349.369" r="5"/>
    <circle fill="#2E75FE" transform="matrix(1 0 0 -1 0 628.739)" cx="503.663" cy="314.369" r="5"/>
    <circle fill="#2E75FE" transform="matrix(1 0 0 -1 0 626.739)" cx="556.663" cy="313.369" r="5"/>
    <circle fill="#2E75FE" transform="matrix(1 0 0 -1 0 628.739)" cx="67.663" cy="314.369" r="5"/>
    <circle fill="#2E75FE" transform="matrix(1 0 0 -1 0 682.739)" cx="581.663" cy="341.369" r="5"/>
    <circle fill="#2E75FE" transform="matrix(1 0 0 -1 0 518.739)" cx="541.663" cy="259.369" r="5"/>
    <circle fill="#2E75FE" transform="matrix(1 0 0 -1 0 448.739)" cx="457.663" cy="224.369" r="5"/>
    <circle fill="#2E75FE" transform="matrix(1 0 0 -1 0 612.739)" cx="332.663" cy="306.369" r="5"/>
    <circle fill="#2E75FE" transform="matrix(1 0 0 -1 0 472.739)" cx="502.663" cy="236.369" r="5"/>
    <circle fill="#2E75FE" transform="matrix(1 0 0 -1 0 648.739)" cx="544.663" cy="324.369" r="5"/>
    <circle fill="#2E75FE" transform="matrix(1 0 0 -1 0 678.739)" cx="560.663" cy="339.369" r="5"/>
    <circle fill="#2E75FE" transform="matrix(1 0 0 -1 0 678.739)" cx="602.663" cy="339.369" r="5"/>
    <circle fill="#2E75FE" transform="matrix(1 0 0 -1 0 690.739)" cx="608.663" cy="345.369" r="5"/>
    <circle fill="#2E75FE" transform="matrix(1 0 0 -1 0 490.739)" cx="550.663" cy="245.369" r="5"/>
    <circle fill="#2E75FE" transform="matrix(1 0 0 -1 0 508.739)" cx="525.663" cy="254.369" r="5"/>
    <circle fill="#2E75FE" transform="matrix(1 0 0 -1 0 696.739)" cx="536.663" cy="348.369" r="5"/>
    <circle fill="#2E75FE" transform="matrix(1 0 0 -1 0 682.739)" cx="515.663" cy="341.369" r="5"/>
    <circle fill="#2E75FE" transform="matrix(1 0 0 -1 0 688.739)" cx="670.663" cy="344.369" r="5"/>
    <circle fill="#2E75FE" transform="matrix(1 0 0 -1 0 648.739)" cx="686.663" cy="324.369" r="5"/>
    <circle fill="#2E75FE" transform="matrix(1 0 0 -1 0 638.739)" cx="701.663" cy="319.369" r="5"/>
    <circle fill="#2E75FE" transform="matrix(1 0 0 -1 0 694.739)" cx="717.663" cy="347.369" r="5"/>
    <circle fill="#2E75FE" transform="matrix(1 0 0 -1 0 664.739)" cx="677.663" cy="332.369" r="5"/>
    <circle fill="#2E75FE" transform="matrix(1 0 0 -1 0 692.739)" cx="702.663" cy="346.369" r="5"/>
    <circle fill="#2E75FE" transform="matrix(1 0 0 -1 0 504.739)" cx="511.663" cy="252.369" r="5"/>
    <circle fill="#2E75FE" transform="matrix(1 0 0 -1 0 462.739)" cx="551.663" cy="231.369" r="5"/>
    <circle fill="#2E75FE" transform="matrix(1 0 0 -1 0 618.739)" cx="516.663" cy="309.369" r="5"/>
    <circle fill="#2E75FE" transform="matrix(1 0 0 -1 0 542.739)" cx="308.663" cy="271.369" r="5"/>
    <circle fill="#2E75FE" transform="matrix(1 0 0 -1 0 578.739)" cx="510.663" cy="289.369" r="5"/>
    <circle fill="#2E75FE" transform="matrix(1 0 0 -1 0 668.739)" cx="537.663" cy="334.369" r="5"/>
    <circle fill="#2E75FE" transform="matrix(1 0 0 -1 0 670.739)" cx="19.663" cy="335.369" r="5"/>
    <circle fill="#2E75FE" transform="matrix(1 0 0 -1 0 670.739)" cx="108.663" cy="335.369" r="5"/>
    <circle fill="#2E75FE" transform="matrix(1 0 0 -1 0 664.739)" cx="505.663" cy="332.369" r="5"/>
    <circle fill="#2E75FE" transform="matrix(1 0 0 -1 0 660.739)" cx="451.663" cy="330.369" r="5"/>
    <circle fill="#2E75FE" transform="matrix(1 0 0 -1 0 598.739)" cx="461.663" cy="299.369" r="5"/>
    <circle fill="#2E75FE" transform="matrix(1 0 0 -1 0 410.739)" cx="560.663" cy="205.369" r="5"/>
    <circle fill="#2E75FE" transform="matrix(1 0 0 -1 0 438.739)" cx="559.663" cy="219.369" r="5"/>
    <circle fill="#2E75FE" transform="matrix(1 0 0 -1 0 626.739)" cx="452.663" cy="313.369" r="5"/>
    <circle fill="#2E75FE" transform="matrix(1 0 0 -1 0 660.739)" cx="583.663" cy="330.369" r="5"/>
    <circle fill="#2E75FE" transform="matrix(1 0 0 -1 0 460.739)" cx="528.663" cy="230.369" r="5"/>
    <circle fill="#2E75FE" transform="matrix(1 0 0 -1 0 454.739)" cx="540.663" cy="227.369" r="5"/>
    <circle fill="#2E75FE" transform="matrix(1 0 0 -1 0 528.739)" cx="496.663" cy="264.369" r="5"/>
    <circle fill="#2E75FE" transform="matrix(1 0 0 -1 0 592.739)" cx="523.663" cy="296.369" r="5"/>
    <circle fill="#2E75FE" transform="matrix(1 0 0 -1 0 564.739)" cx="551.663" cy="282.369" r="5"/>
    <circle fill="#2E75FE" transform="matrix(1 0 0 -1 0 564.739)" cx="461.663" cy="282.369" r="5"/>
    <circle fill="#2E75FE" transform="matrix(1 0 0 -1 0 682.739)" cx="363.663" cy="341.369" r="5"/>
    <circle fill="#2E75FE" transform="matrix(1 0 0 -1 0 474.739)" cx="458.663" cy="237.369" r="5"/>
    <circle fill="#2E75FE" transform="matrix(1 0 0 -1 0 580.739)" cx="451.663" cy="290.369" r="5"/>
    <circle fill="#2E75FE" transform="matrix(1 0 0 -1 0 548.739)" cx="558.663" cy="274.369" r="5"/>
    <circle fill="#2E75FE" transform="matrix(1 0 0 -1 0 592.739)" cx="537.663" cy="296.369" r="5"/>
    <circle fill="#2E75FE" transform="matrix(1 0 0 -1 0 304.739)" cx="270.663" cy="152.369" r="5"/>
    <circle fill="#2E75FE" transform="matrix(1 0 0 -1 0 636.739)" cx="35.663" cy="318.369" r="5"/>
    <circle fill="#2E75FE" transform="matrix(1 0 0 -1 0 640.739)" cx="580.663" cy="320.369" r="5"/>
    <circle fill="#2E75FE" transform="matrix(1 0 0 -1 0 506.739)" cx="457.663" cy="253.369" r="5"/>
    <circle fill="#2E75FE" transform="matrix(1 0 0 -1 0 536.739)" cx="454.663" cy="268.369" r="5"/>
    <circle fill="#2E75FE" transform="matrix(1 0 0 -1 0 636.739)" cx="46.663" cy="318.369" r="5"/>
    <circle fill="#2E75FE" transform="matrix(1 0 0 -1 0 554.739)" cx="375.663" cy="277.369" r="5"/>
    <circle fill="#2E75FE" transform="matrix(1 0 0 -1 0 570.739)" cx="383.663" cy="285.369" r="5"/>
    <circle fill="#2E75FE" transform="matrix(1 0 0 -1 0 686.739)" cx="493.663" cy="343.369" r="5"/>
    <circle fill="#2E75FE" transform="matrix(1 0 0 -1 0 556.739)" cx="535.663" cy="278.369" r="5"/>
    <circle fill="#2E75FE" transform="matrix(1 0 0 -1 0 446.739)" cx="493.663" cy="223.369" r="5"/>
    <circle fill="#2E75FE" transform="matrix(1 0 0 -1 0 570.739)" cx="497.663" cy="285.369" r="5"/>
    <circle fill="#2E75FE" transform="matrix(1 0 0 -1 0 414.739)" cx="494.663" cy="207.369" r="5"/>
    <circle fill="#2E75FE" transform="matrix(1 0 0 -1 0 420.739)" cx="400.663" cy="210.369" r="5"/>
    <circle fill="#2E75FE" transform="matrix(1 0 0 -1 0 398.739)" cx="272.663" cy="199.369" r="5"/>
    <circle fill="#2E75FE" transform="matrix(1 0 0 -1 0 428.739)" cx="204.663" cy="214.369" r="5"/>
    <circle fill="#2E75FE" transform="matrix(1 0 0 -1 0 316.739)" cx="337.663" cy="158.369" r="5"/>
    <circle fill="#2E75FE" transform="matrix(1 0 0 -1 0 326.739)" cx="404.663" cy="163.369" r="5"/>
    <circle fill="#2E75FE" transform="matrix(1 0 0 -1 0 312.739)" cx="364.663" cy="156.369" r="5"/>
    <circle fill="#2E75FE" transform="matrix(1 0 0 -1 0 300.739)" cx="410.663" cy="150.369" r="5"/>
    <circle fill="#2E75FE" transform="matrix(1 0 0 -1 0 654.739)" cx="25.663" cy="327.369" r="5"/>
    <circle fill="#2E75FE" transform="matrix(1 0 0 -1 0 544.739)" cx="394.663" cy="272.369" r="5"/>
    <circle fill="#2E75FE" transform="matrix(1 0 0 -1 0 460.739)" cx="513.663" cy="230.369" r="5"/>
    <circle fill="#2E75FE" transform="matrix(1 0 0 -1 0 612.739)" cx="42.663" cy="306.369" r="5"/>
    <circle fill="#2E75FE" transform="matrix(1 0 0 -1 0 304.739)" cx="378.663" cy="152.369" r="5"/>
    <circle fill="#2E75FE" transform="matrix(1 0 0 -1 0 350.739)" cx="272.663" cy="175.369" r="5"/>
    <circle fill="#2E75FE" transform="matrix(1 0 0 -1 0 530.739)" cx="324.663" cy="265.369" r="5"/>
    <circle fill="#2E75FE" transform="matrix(1 0 0 -1 0 660.739)" cx="47.663" cy="330.369" r="5"/>
    <circle fill="#2E75FE" transform="matrix(1 0 0 -1 0 648.739)" cx="494.663" cy="324.369" r="5"/>
    <circle fill="#2E75FE" transform="matrix(1 0 0 -1 0 452.739)" cx="267.663" cy="226.369" r="5"/>
    <circle fill="#2E75FE" transform="matrix(1 0 0 -1 0 306.739)" cx="317.663" cy="153.369" r="5"/>
    <circle fill="#2E75FE" transform="matrix(1 0 0 -1 0 650.739)" cx="68.663" cy="325.369" r="5"/>
    <circle fill="#2E75FE" transform="matrix(1 0 0 -1 0 346.739)" cx="416.663" cy="173.369" r="5"/>
    <circle fill="#2E75FE" transform="matrix(1 0 0 -1 0 386.739)" cx="409.663" cy="193.369" r="5"/>
    <circle fill="#2E75FE" transform="matrix(1 0 0 -1 0 402.739)" cx="399.663" cy="201.369" r="5"/>
    <circle fill="#2E75FE" transform="matrix(1 0 0 -1 0 398.739)" cx="387.663" cy="199.369" r="5"/>
    <circle fill="#2E75FE" transform="matrix(1 0 0 -1 0 346.739)" cx="312.663" cy="173.369" r="5"/>
    <circle fill="#2E75FE" transform="matrix(1 0 0 -1 0 418.739)" cx="231.663" cy="209.369" r="5"/>
    <circle fill="#2E75FE" transform="matrix(1 0 0 -1 0 594.739)" cx="393.663" cy="297.369" r="5"/>
    <circle fill="#2E75FE" transform="matrix(1 0 0 -1 0 432.739)" cx="378.663" cy="216.369" r="5"/>
    <circle fill="#2E75FE" transform="matrix(1 0 0 -1 0 624.739)" cx="371.663" cy="312.369" r="5"/>
    <circle fill="#2E75FE" transform="matrix(1 0 0 -1 0 568.739)" cx="115.663" cy="284.369" r="5"/>
    <circle fill="#2E75FE" transform="matrix(1 0 0 -1 0 558.739)" cx="351.663" cy="279.369" r="5"/>
    <circle fill="#2E75FE" transform="matrix(1 0 0 -1 0 434.739)" cx="365.663" cy="217.369" r="5"/>
    <circle fill="#2E75FE" transform="matrix(1 0 0 -1 0 286.739)" cx="346.663" cy="143.369" r="5"/>
    <circle fill="#2E75FE" transform="matrix(1 0 0 -1 0 400.739)" cx="320.663" cy="200.369" r="5"/>
    <circle fill="#2E75FE" transform="matrix(1 0 0 -1 0 586.739)" cx="353.663" cy="293.369" r="5"/>
    <circle fill="#2E75FE" transform="matrix(1 0 0 -1 0 608.739)" cx="357.663" cy="304.369" r="5"/>
    <circle fill="#2E75FE" transform="matrix(1 0 0 -1 0 434.739)" cx="307.663" cy="217.369" r="5"/>
    <circle fill="#2E75FE" transform="matrix(1 0 0 -1 0 394.739)" cx="340.663" cy="197.369" r="5"/>
    <circle fill="#2E75FE" transform="matrix(1 0 0 -1 0 552.739)" cx="335.663" cy="276.369" r="5"/>
    <circle fill="#2E75FE" transform="matrix(1 0 0 -1 0 350.739)" cx="369.663" cy="175.369" r="5"/>
    <circle fill="#2E75FE" transform="matrix(1 0 0 -1 0 526.739)" cx="395.663" cy="263.369" r="5"/>
    <circle fill="#2E75FE" transform="matrix(1 0 0 -1 0 520.739)" cx="344.663" cy="260.369" r="5"/>
    <circle fill="#2E75FE" transform="matrix(1 0 0 -1 0 518.739)" cx="336.663" cy="259.369" r="5"/>
    <circle fill="#2E75FE" transform="matrix(1 0 0 -1 0 526.739)" cx="358.663" cy="263.369" r="5"/>
    <circle fill="#2E75FE" transform="matrix(1 0 0 -1 0 486.739)" cx="401.663" cy="243.369" r="5"/>
    <circle fill="#2E75FE" transform="matrix(1 0 0 -1 0 440.739)" cx="325.663" cy="220.369" r="5"/>
    <circle fill="#2E75FE" transform="matrix(1 0 0 -1 0 612.739)" cx="314.663" cy="306.369" r="5"/>
    <circle fill="#2E75FE" transform="matrix(1 0 0 -1 0 534.739)" cx="272.663" cy="267.369" r="5"/>
    <circle fill="#2E75FE" transform="matrix(1 0 0 -1 0 272.739)" cx="267.663" cy="136.369" r="5"/>
    <circle fill="#2E75FE" transform="matrix(1 0 0 -1 0 404.739)" cx="356.663" cy="202.369" r="5"/>
    <circle fill="#2E75FE" transform="matrix(1 0 0 -1 0 376.739)" cx="356.663" cy="188.369" r="5"/>
    <circle fill="#2E75FE" transform="matrix(1 0 0 -1 0 474.739)" cx="273.663" cy="237.369" r="5"/>
    <circle fill="#2E75FE" transform="matrix(1 0 0 -1 0 376.739)" cx="376.663" cy="188.369" r="5"/>
    <circle fill="#2E75FE" transform="matrix(1 0 0 -1 0 358.739)" cx="322.663" cy="179.369" r="5"/>
    <circle fill="#2E75FE" transform="matrix(1 0 0 -1 0 500.739)" cx="266.663" cy="250.369" r="5"/>
    <circle fill="#2E75FE" transform="matrix(1 0 0 -1 0 326.739)" cx="326.663" cy="163.369" r="5"/>
    <circle fill="#2E75FE" transform="matrix(1 0 0 -1 0 360.739)" cx="345.663" cy="180.369" r="5"/>
    <circle fill="#2E75FE" transform="matrix(1 0 0 -1 0 450.739)" cx="399.663" cy="225.369" r="5"/>
    <circle fill="#2E75FE" transform="matrix(1 0 0 -1 0 584.739)" cx="374.663" cy="292.369" r="5"/>
    <circle fill="#2E75FE" transform="matrix(1 0 0 -1 0 604.739)" cx="367.663" cy="302.369" r="5"/>
    <circle fill="#2E75FE" transform="matrix(1 0 0 -1 0 376.739)" cx="266.663" cy="188.369" r="5"/>
    <circle fill="#2E75FE" transform="matrix(1 0 0 -1 0 664.739)" cx="376.663" cy="332.369" r="5"/>
    <circle fill="#2E75FE" transform="matrix(1 0 0 -1 0 462.739)" cx="370.663" cy="231.369" r="5"/>
    <circle fill="#2E75FE" transform="matrix(1 0 0 -1 0 496.739)" cx="499.663" cy="248.369" r="5"/>
    <circle fill="#2E75FE" transform="matrix(1 0 0 -1 0 678.739)" cx="448.663" cy="339.369" r="5"/>
    <circle fill="#2E75FE" transform="matrix(1 0 0 -1 0 642.739)" cx="593.663" cy="321.369" r="5"/>
    <circle fill="#2E75FE" transform="matrix(1 0 0 -1 0 604.739)" cx="642.663" cy="302.369" r="5"/>
    <circle fill="#2E75FE" transform="matrix(1 0 0 -1 0 586.739)" cx="640.663" cy="293.369" r="5"/>
    <circle fill="#2E75FE" transform="matrix(1 0 0 -1 0 658.739)" cx="594.663" cy="329.369" r="5"/>
    <circle fill="#2E75FE" transform="matrix(1 0 0 -1 0 690.739)" cx="620.663" cy="345.369" r="5"/>
    <circle fill="#2E75FE" transform="matrix(1 0 0 -1 0 662.739)" cx="633.663" cy="331.369" r="5"/>
    <circle fill="#2E75FE" transform="matrix(1 0 0 -1 0 684.739)" cx="641.663" cy="342.369" r="5"/>
    <circle fill="#2E75FE" transform="matrix(1 0 0 -1 0 660.739)" cx="648.663" cy="330.369" r="5"/>
    <circle fill="#2E75FE" transform="matrix(1 0 0 -1 0 640.739)" cx="675.663" cy="320.369" r="5"/>
    <circle fill="#2E75FE" transform="matrix(1 0 0 -1 0 640.739)" cx="660.663" cy="320.369" r="5"/>
    <circle fill="#2E75FE" transform="matrix(1 0 0 -1 0 616.739)" cx="682.663" cy="308.369" r="5"/>
    <circle fill="#2E75FE" transform="matrix(1 0 0 -1 0 662.739)" cx="700.663" cy="331.369" r="5"/>
    <circle fill="#2E75FE" transform="matrix(1 0 0 -1 0 676.739)" cx="709.663" cy="338.369" r="5"/>
    <circle fill="#2E75FE" transform="matrix(1 0 0 -1 0 650.739)" cx="715.663" cy="325.369" r="5"/>
    <circle fill="#2E75FE" transform="matrix(1 0 0 -1 0 612.739)" cx="669.663" cy="306.369" r="5"/>
    <circle fill="#2E75FE" transform="matrix(1 0 0 -1 0 596.739)" cx="652.663" cy="298.369" r="5"/>
    <circle fill="#2E75FE" transform="matrix(1 0 0 -1 0 680.739)" cx="653.663" cy="340.369" r="5"/>
    <circle fill="#2E75FE" transform="matrix(1 0 0 -1 0 638.739)" cx="397.663" cy="319.369" r="5"/>
    <circle fill="#2E75FE" transform="matrix(1 0 0 -1 0 492.739)" cx="560.663" cy="246.369" r="5"/>
    <circle fill="#2E75FE" transform="matrix(1 0 0 -1 0 520.739)" cx="552.663" cy="260.369" r="5"/>
    <circle fill="#2E75FE" transform="matrix(1 0 0 -1 0 684.739)" cx="593.663" cy="342.369" r="5"/>
    <circle fill="#2E75FE" transform="matrix(1 0 0 -1 0 528.739)" cx="510.663" cy="264.369" r="5"/>
    <circle fill="#2E75FE" transform="matrix(1 0 0 -1 0 642.739)" cx="511.663" cy="321.369" r="5"/>
    <circle fill="#2E75FE" transform="matrix(1 0 0 -1 0 598.739)" cx="491.663" cy="299.369" r="5"/>
    <circle fill="#2E75FE" transform="matrix(1 0 0 -1 0 332.739)" cx="267.663" cy="166.369" r="5"/>
    <circle fill="#2E75FE" transform="matrix(1 0 0 -1 0 578.739)" cx="329.663" cy="289.369" r="5"/>
    <circle fill="#2E75FE" transform="matrix(1 0 0 -1 0 572.739)" cx="304.663" cy="286.369" r="5"/>
    <circle fill="#2E75FE" transform="matrix(1 0 0 -1 0 694.739)" cx="468.663" cy="347.369" r="5"/>
    <circle fill="#2E75FE" transform="matrix(1 0 0 -1 0 658.739)" cx="459.663" cy="329.369" r="5"/>
    <circle fill="#2E75FE" transform="matrix(1 0 0 -1 0 694.739)" cx="460.663" cy="347.369" r="5"/>
    <circle fill="#2E75FE" transform="matrix(1 0 0 -1 0 698.739)" cx="422.663" cy="349.369" r="5"/>
    <circle fill="#2E75FE" transform="matrix(1 0 0 -1 0 558.739)" cx="200.663" cy="279.369" r="5"/>
    <circle fill="#2E75FE" transform="matrix(1 0 0 -1 0 628.739)" cx="461.663" cy="314.369" r="5"/>
    <circle fill="#2E75FE" transform="matrix(1 0 0 -1 0 428.739)" cx="540.663" cy="214.369" r="5"/>
    <circle fill="#2E75FE" transform="matrix(1 0 0 -1 0 392.739)" cx="457.663" cy="196.369" r="5"/>
    <circle fill="#2E75FE" transform="matrix(1 0 0 -1 0 338.739)" cx="394.663" cy="169.369" r="5"/>
    <circle fill="#2E75FE" transform="matrix(1 0 0 -1 0 686.739)" cx="405.663" cy="343.369" r="5"/>
    <circle fill="#2E75FE" transform="matrix(1 0 0 -1 0 670.739)" cx="418.663" cy="335.369" r="5"/>
    <circle fill="#2E75FE" transform="matrix(1 0 0 -1 0 702.739)" cx="438.663" cy="351.369" r="5"/>
    <circle fill="#2E75FE" transform="matrix(1 0 0 -1 0 634.739)" cx="411.663" cy="317.369" r="5"/>
    <circle fill="#2E75FE" transform="matrix(1 0 0 -1 0 680.739)" cx="388.663" cy="340.369" r="5"/>
    <circle fill="#2E75FE" transform="matrix(1 0 0 -1 0 628.739)" cx="649.663" cy="314.369" r="5"/>
    <circle fill="#2E75FE" transform="matrix(1 0 0 -1 0 686.739)" cx="687.663" cy="343.369" r="5"/>
    <circle fill="#2E75FE" transform="matrix(1 0 0 -1 0 470.739)" cx="344.663" cy="235.369" r="5"/>
    <circle fill="#2E75FE" transform="matrix(1 0 0 -1 0 668.739)" cx="405.663" cy="334.369" r="5"/>
    <circle fill="#2E75FE" transform="matrix(1 0 0 -1 0 494.739)" cx="313.663" cy="247.369" r="5"/>
    <circle fill="#2E75FE" transform="rotate(180 415.663 239.37)" cx="415.663" cy="239.369" r="5"/>
    <circle fill="#2E75FE" transform="rotate(180 345.663 309.37)" cx="345.663" cy="309.369" r="5"/>
    <circle fill="#2E75FE" transform="rotate(180 131.663 275.37)" cx="131.663" cy="275.369" r="5"/>
    <circle fill="#2E75FE" transform="rotate(180 267.663 212.37)" cx="267.663" cy="212.369" r="5"/>
    <circle fill="#2E75FE" transform="rotate(180 390.663 236.37)" cx="390.663" cy="236.369" r="5"/>
    <circle fill="#2E75FE" transform="rotate(180 382.663 233.37)" cx="382.663" cy="233.369" r="5"/>
    <circle fill="#2E75FE" transform="rotate(180 356.663 328.37)" cx="356.663" cy="328.369" r="5"/>
    <circle fill="#2E75FE" transform="rotate(180 103.663 280.37)" cx="103.663" cy="280.369" r="5"/>
    <circle fill="#2E75FE" transform="rotate(180 324.663 347.37)" cx="324.663" cy="347.369" r="5"/>
    <circle fill="#2E75FE" transform="rotate(180 378.663 256.37)" cx="378.663" cy="256.369" r="5"/>
    <circle fill="#2E75FE" transform="rotate(180 384.663 271.37)" cx="384.663" cy="271.369" r="5"/>
    <circle fill="#2E75FE" transform="rotate(180 341.663 342.37)" cx="341.663" cy="342.369" r="5"/>
    <circle fill="#2E75FE" transform="rotate(180 229.663 195.37)" cx="229.663" cy="195.369" r="5"/>
    <circle fill="#2E75FE" transform="rotate(180 385.663 311.37)" cx="385.663" cy="311.369" r="5"/>
    <path d="M735.842 356H1.06c-2.21-9.947-1.518-10.98 7.484-11.528 3.773-.229 5.326-2.369 5.316-5.984-.025-8.981-.007-17.958-.007-26.81-1.48-.899-2.748-1.672-5.018-3.053 11.789-4.037 22.52-7.754 33.296-11.324.93-.306 2.224.246 3.281.597 9.136 3.071 18.26 6.167 27.372 9.311 1.082.376 2.048 1.083 3.661 1.957l-4.684 2.351c0 8.205.373 16.391-.102 24.529-.098 1.61.007 2.958.278 4.076.538 2.234 1.74 3.538 3.356 4.121 1.883.682 4.325.383 6.928-.562.085-.31.243-.615.243-.924.031-12.748.162-25.499-.01-38.246-.046-3.141-1.08-6.268-1.67-9.473.612-2.178 1.905-4.778 1.982-7.417.264-9.311.13-18.633.109-27.951-.007-2.67.776-5.675-2.944-6.943-.415-.14-.531-3.019-.222-3.135 3.426-1.296 2.576-4.128 2.586-6.605.039-8.988.155-17.983-.067-26.967-.063-2.692-1.124-5.362-1.922-8.922 2.636-.825 6.058-2.132 9.6-2.927 2.818-.636 3.71-2.023 3.528-4.782-.211-3.222-.05-6.465-.05-9.824 6.887-1.472 13.24-3.004 19.66-4.142 6.433-1.146 9.686 1.75 9.683 8.134v8.292c6.996-1.557 11.092 1.838 14.726 6.37.751.935 2.519 1.068 3.232 2.01.763 1.008 1.31 2.632 1.093 3.83-.457 2.488-2.08 4.849-2.165 7.298-.288 8.162-.242 16.349-.028 24.515.064 2.449 1.097 4.87 1.964 8.467-2.737 5.72-3.341 36.651-.196 41.402-2.323 3.155-3.342 41.306-1.31 48.407h13.165V149.313c6.918-.506 13.229-.97 20.463-1.5-2.189-7.499 2.116-9.122 7.562-9.582 4.199-.355 8.422-.861 12.61-.72 6.93.231 13.84.934 21.156 1.465-1.51 6.187 1.77 7.276 6.187 7.75 4.705.503 9.333 1.719 14.034 2.232 3.412.372 4.62 1.669 4.613 5.239-.09 52.462-.042 104.921-.028 157.38.004 10.748.004 21.49.004 32.515h16.32v-76.004c2.7-.26 4.748-.456 7.133-.688 0-11.753-.003-23.17 0-34.589.008-42.336.032-84.675-.038-127.011-.004-1.747-.689-4.88-1.434-5-3.991-.636-3.278-3.38-3.292-5.89-.035-4.574-.01-9.152-.053-13.727-.02-2.333-.196-4.589 2.945-5.295.727-.165 1.173-1.574 1.75-2.41-.752-.478-1.452-1.23-2.267-1.385-2.03-.38-4.11-.488-6.62-.755 0-3.124.155-5.882-.042-8.616-.25-3.457.067-6.071 4.512-6.409.833-.066 1.911-2.66 2.048-4.163.095-1.037-1.24-2.203-2.343-3.967 2.712.218 4.427.355 7.501.597L271.551 0l5.71 48.597c3.106-.137 4.954-.217 7.53-.333-1.086 1.637-2.372 2.709-2.323 3.713.07 1.518 1.02 4.245 1.697 4.277 4.81.224 4.874 3.229 4.68 6.746-.147 2.723-.028 5.46-.028 8.352-2.66.323-4.764.46-6.806.882-.773.161-1.633.864-2.006 1.56-.186.34.566 1.71 1.04 1.795 4.164.731 3.686 3.791 3.64 6.746-.063 3.922-.182 7.857.035 11.768.211 3.71-.017 6.869-4.613 7.062v166.368c2.582.208 4.814.383 7.646.608v76.06h13.78V119.64h12.15v-18.563h101.282v18.693h11.795v224.354h13.742c.829-12.08 1.651-23.798 2.431-35.523 2.815-42.4 5.643-84.795 8.317-127.202.112-1.795-.83-4.082-2.052-5.46-5.64-6.345-5.07-13.942 1.472-19.255 1.286-1.043 2.397-3.025 2.527-4.655 1.18-15.481 2.115-30.977 3.148-46.465.39-5.885.843-11.763 1.268-17.645 1.163 2.544 1.339 5.087 1.462 7.635.889 18.285 1.81 36.563 2.607 54.852.127 2.94.857 4.933 3.5 6.82 6.384 4.557 6.806 13.573.84 18.689-2.495 2.143-2.924 4.209-2.78 7.111 2.316 46.521 4.56 93.045 6.834 139.57.352 7.132.77 14.262 1.16 21.493h16.75v-174.08c26.896-6.638 53.632-7.193 81.01-4.432v178.508l1.711.654c.692-1.413 1.894-2.794 1.996-4.248.682-9.424 1.12-18.862 1.666-28.826h25.52c1.229-16.641 2.42-32.709 3.611-48.777.348 0 .692.004 1.04.004 1.205 16.64 2.407 33.281 3.612 49.922l1.62-.01c.295-.83.819-1.649.85-2.489.657-16.335-1.257-32.705 1.683-49.043 1.557-8.672 1.216-17.68 1.817-26.528.534-7.906 1.212-15.801 1.767-23.703.482-6.848.844-13.704 1.318-20.552.636-9.153 1.332-18.302 2.09-28.664 1.8 20.871 3.465 40.477 5.194 60.076.53 6.033 1.989 12.09 1.68 18.071-.696 13.552 1.51 26.823 2.758 40.196.14 1.5.02 3.026.02 5.492 3.166-6.859 4.477-7.502 8.911-5.362a26980.308 26980.308 0 0045.46 21.838c1.954.938 3.939 1.81 6.293 2.888.86-7.456 1.637-14.188 2.41-20.924.58-.003 1.16-.007 1.74-.014 0 5.924.263 11.859-.074 17.762-.299 5.249 1.795 8.573 6.609 10.646.643-1.767 1.623-3.363 1.767-5.032.935-10.829 1.718-21.665 2.502-32.504.643-8.953 1.216-17.913 1.82-26.866 2.126 19.374 3.465 38.72 4.831 58.063.211 2.948.211 6.047 3.437 8.43 1.012-9.477 1.936-18.1 2.853-26.722 1.483 3.338 1.718 6.666 2.154 9.972 1.222 9.42 2.814 18.805 3.7 28.253.555 5.942.105 11.978.105 17.899 4.251.39 9.157-.559 11.279 1.444 1.929 1.827.847 6.848 1.096 10.569z" stroke="#D5E5FF" stroke-width="3"/>
  </g>
</svg>
