<svg xmlns="http://www.w3.org/2000/svg" viewBox="0 0 361 276">
  <g transform="translate(2.084 2.05)" fill="none" fill-rule="evenodd">
    <circle fill="#2E75FE" transform="rotate(180 233.916 213.95)" cx="233.916" cy="213.95" r="5"/>
    <circle fill="#2E75FE" transform="rotate(180 77.916 215.95)" cx="77.916" cy="215.95" r="5"/>
    <circle fill="#2E75FE" transform="rotate(180 65.916 224.95)" cx="65.916" cy="224.95" r="5"/>
    <circle fill="#2E75FE" transform="rotate(180 93.916 209.95)" cx="93.916" cy="209.95" r="5"/>
    <circle fill="#2E75FE" transform="rotate(180 128.916 252.95)" cx="128.916" cy="252.95" r="5"/>
    <circle fill="#2E75FE" transform="rotate(180 108.916 232.95)" cx="108.916" cy="232.95" r="5"/>
    <circle fill="#2E75FE" transform="rotate(180 88.916 231.95)" cx="88.916" cy="231.95" r="5"/>
    <circle fill="#2E75FE" transform="rotate(180 25.916 234.95)" cx="25.916" cy="234.95" r="5"/>
    <circle fill="#2E75FE" transform="rotate(180 48.916 229.95)" cx="48.916" cy="229.95" r="5"/>
    <circle fill="#2E75FE" transform="rotate(180 37.916 71.95)" cx="37.916" cy="71.95" r="5"/>
    <circle fill="#2E75FE" transform="rotate(180 11.916 80.95)" cx="11.916" cy="80.95" r="5"/>
    <circle fill="#2E75FE" transform="rotate(180 246.916 257.95)" cx="246.916" cy="257.95" r="5"/>
    <circle fill="#2E75FE" transform="rotate(180 248.916 268.95)" cx="248.916" cy="268.95" r="5"/>
    <circle fill="#2E75FE" transform="rotate(180 66.916 210.95)" cx="66.916" cy="210.95" r="5"/>
    <circle fill="#2E75FE" transform="rotate(180 128.916 217.95)" cx="128.916" cy="217.95" r="5"/>
    <circle fill="#2E75FE" transform="rotate(180 312.916 108.95)" cx="312.916" cy="108.95" r="5"/>
    <circle fill="#2E75FE" transform="rotate(180 42.916 215.95)" cx="42.916" cy="215.95" r="5"/>
    <circle fill="#2E75FE" transform="rotate(180 16.916 243.95)" cx="16.916" cy="243.95" r="5"/>
    <circle fill="#2E75FE" transform="rotate(180 33.916 93.95)" cx="33.916" cy="93.95" r="5"/>
    <circle fill="#2E75FE" transform="rotate(180 109.916 104.95)" cx="109.916" cy="104.95" r="5"/>
    <circle fill="#2E75FE" transform="rotate(180 35.916 82.95)" cx="35.916" cy="82.95" r="5"/>
    <circle fill="#2E75FE" transform="rotate(180 33.916 222.95)" cx="33.916" cy="222.95" r="5"/>
    <circle fill="#2E75FE" transform="rotate(180 142.916 222.95)" cx="142.916" cy="222.95" r="5"/>
    <circle fill="#2E75FE" transform="rotate(180 80.916 206.95)" cx="80.916" cy="206.95" r="5"/>
    <circle fill="#2E75FE" transform="rotate(180 45.916 89.95)" cx="45.916" cy="89.95" r="5"/>
    <circle fill="#2E75FE" transform="rotate(180 105.916 64.95)" cx="105.916" cy="64.95" r="5"/>
    <circle fill="#2E75FE" transform="rotate(180 64.916 73.95)" cx="64.916" cy="73.95" r="5"/>
    <circle fill="#2E75FE" transform="rotate(180 24.916 82.95)" cx="24.916" cy="82.95" r="5"/>
    <circle fill="#2E75FE" transform="rotate(180 51.916 61.95)" cx="51.916" cy="61.95" r="5"/>
    <circle fill="#2E75FE" transform="rotate(180 36.916 62.95)" cx="36.916" cy="62.95" r="5"/>
    <circle fill="#2E75FE" transform="rotate(180 37.916 234.95)" cx="37.916" cy="234.95" r="5"/>
    <circle fill="#2E75FE" transform="rotate(180 219.916 221.95)" cx="219.916" cy="221.95" r="5"/>
    <circle fill="#2E75FE" transform="rotate(180 18.916 265.95)" cx="18.916" cy="265.95" r="5"/>
    <circle fill="#2E75FE" transform="rotate(180 120.916 227.95)" cx="120.916" cy="227.95" r="5"/>
    <circle fill="#2E75FE" transform="rotate(180 30.916 265.95)" cx="30.916" cy="265.95" r="5"/>
    <circle fill="#2E75FE" transform="rotate(180 297.916 212.95)" cx="297.916" cy="212.95" r="5"/>
    <circle fill="#2E75FE" transform="rotate(180 103.916 216.95)" cx="103.916" cy="216.95" r="5"/>
    <circle fill="#2E75FE" transform="rotate(180 284.916 212.95)" cx="284.916" cy="212.95" r="5"/>
    <circle fill="#2E75FE" transform="rotate(180 325.916 109.95)" cx="325.916" cy="109.95" r="5"/>
    <circle fill="#2E75FE" transform="rotate(180 111.916 221.95)" cx="111.916" cy="221.95" r="5"/>
    <circle fill="#2E75FE" transform="rotate(180 115.916 244.95)" cx="115.916" cy="244.95" r="5"/>
    <circle fill="#2E75FE" transform="rotate(180 27.916 106.95)" cx="27.916" cy="106.95" r="5"/>
    <circle fill="#2E75FE" transform="rotate(180 134.916 91.95)" cx="134.916" cy="91.95" r="5"/>
    <circle fill="#2E75FE" transform="rotate(180 278.916 58.95)" cx="278.916" cy="58.95" r="5"/>
    <circle fill="#2E75FE" transform="rotate(180 125.916 238.95)" cx="125.916" cy="238.95" r="5"/>
    <circle fill="#2E75FE" transform="rotate(180 37.916 105.95)" cx="37.916" cy="105.95" r="5"/>
    <circle fill="#2E75FE" transform="rotate(180 48.916 266.95)" cx="48.916" cy="266.95" r="5"/>
    <circle fill="#2E75FE" transform="rotate(180 118.916 267.95)" cx="118.916" cy="267.95" r="5"/>
    <circle fill="#2E75FE" transform="rotate(180 120.916 93.95)" cx="120.916" cy="93.95" r="5"/>
    <circle fill="#2E75FE" transform="rotate(180 62.916 59.95)" cx="62.916" cy="59.95" r="5"/>
    <circle fill="#2E75FE" transform="rotate(180 15.916 254.95)" cx="15.916" cy="254.95" r="5"/>
    <circle fill="#2E75FE" transform="rotate(180 238.916 64.95)" cx="238.916" cy="64.95" r="5"/>
    <circle fill="#2E75FE" transform="rotate(180 243.916 220.95)" cx="243.916" cy="220.95" r="5"/>
    <circle fill="#2E75FE" transform="rotate(180 48.916 244.95)" cx="48.916" cy="244.95" r="5"/>
    <circle fill="#2E75FE" transform="rotate(180 135.916 101.95)" cx="135.916" cy="101.95" r="5"/>
    <circle fill="#2E75FE" transform="rotate(180 90.916 60.95)" cx="90.916" cy="60.95" r="5"/>
    <circle fill="#2E75FE" transform="rotate(180 23.916 70.95)" cx="23.916" cy="70.95" r="5"/>
    <circle fill="#2E75FE" transform="rotate(180 247.916 208.95)" cx="247.916" cy="208.95" r="5"/>
    <circle fill="#2E75FE" transform="rotate(180 14.916 232.95)" cx="14.916" cy="232.95" r="5"/>
    <circle fill="#2E75FE" transform="rotate(180 124.916 83.95)" cx="124.916" cy="83.95" r="5"/>
    <circle fill="#2E75FE" transform="rotate(180 122.916 105.95)" cx="122.916" cy="105.95" r="5"/>
    <circle fill="#FBA55F" transform="rotate(180 116.916 48.95)" cx="116.916" cy="48.95" r="5"/>
    <circle fill="#FBA55F" transform="rotate(180 131.916 53.95)" cx="131.916" cy="53.95" r="5"/>
    <circle fill="#FBA55F" transform="rotate(180 72.916 196.95)" cx="72.916" cy="196.95" r="5"/>
    <circle fill="#FBA55F" transform="rotate(180 45.916 200.95)" cx="45.916" cy="200.95" r="5"/>
    <circle fill="#FBA55F" transform="rotate(180 220.916 57.95)" cx="220.916" cy="57.95" r="5"/>
    <circle fill="#FBA55F" transform="rotate(180 98.916 201.95)" cx="98.916" cy="201.95" r="5"/>
    <circle fill="#FBA55F" transform="rotate(180 56.916 206.95)" cx="56.916" cy="206.95" r="5"/>
    <circle fill="#FBA55F" transform="rotate(180 308.916 203.95)" cx="308.916" cy="203.95" r="5"/>
    <circle fill="#FBA55F" transform="rotate(180 284.916 199.95)" cx="284.916" cy="199.95" r="5"/>
    <circle fill="#FBA55F" transform="rotate(180 115.916 203.95)" cx="115.916" cy="203.95" r="5"/>
    <circle fill="#FBA55F" transform="rotate(180 9.916 62.95)" cx="9.916" cy="62.95" r="5"/>
    <circle fill="#FBA55F" transform="rotate(180 74.916 43.95)" cx="74.916" cy="43.95" r="5"/>
    <circle fill="#FBA55F" transform="rotate(180 91.916 45.95)" cx="91.916" cy="45.95" r="5"/>
    <circle fill="#FBA55F" transform="rotate(180 32.916 48.95)" cx="32.916" cy="48.95" r="5"/>
    <circle fill="#FBA55F" transform="rotate(180 239.916 53.95)" cx="239.916" cy="53.95" r="5"/>
    <circle fill="#FBA55F" transform="rotate(180 209.916 220.95)" cx="209.916" cy="220.95" r="5"/>
    <circle fill="#FBA55F" transform="rotate(180 238.916 202.95)" cx="238.916" cy="202.95" r="5"/>
    <circle fill="#FBA55F" transform="rotate(180 269.916 198.95)" cx="269.916" cy="198.95" r="5"/>
    <circle fill="#FBA55F" transform="rotate(180 254.916 200.95)" cx="254.916" cy="200.95" r="5"/>
    <circle fill="#FBA55F" transform="rotate(180 28.916 207.95)" cx="28.916" cy="207.95" r="5"/>
    <circle fill="#FBA55F" transform="rotate(180 15.916 214.95)" cx="15.916" cy="214.95" r="5"/>
    <circle fill="#FBA55F" transform="rotate(180 342.916 60.95)" cx="342.916" cy="60.95" r="5"/>
    <circle fill="#FBA55F" transform="rotate(180 55.916 45.95)" cx="55.916" cy="45.95" r="5"/>
    <circle fill="#FBA55F" transform="rotate(180 139.916 211.95)" cx="139.916" cy="211.95" r="5"/>
    <circle fill="#FBA55F" transform="rotate(180 252.916 43.95)" cx="252.916" cy="43.95" r="5"/>
    <circle fill="#FBA55F" transform="rotate(180 267.916 45.95)" cx="267.916" cy="45.95" r="5"/>
    <circle fill="#FBA55F" transform="rotate(180 284.916 47.95)" cx="284.916" cy="47.95" r="5"/>
    <circle fill="#FBA55F" transform="rotate(180 221.916 210.95)" cx="221.916" cy="210.95" r="5"/>
    <circle fill="#FBA55F" transform="rotate(180 324.916 206.95)" cx="324.916" cy="206.95" r="5"/>
    <circle fill="#FBA55F" transform="rotate(180 299.916 46.95)" cx="299.916" cy="46.95" r="5"/>
    <circle fill="#FBA55F" transform="rotate(180 327.916 50.95)" cx="327.916" cy="50.95" r="5"/>
    <circle fill="#2E75FE" transform="rotate(180 138.916 78.95)" cx="138.916" cy="78.95" r="5"/>
    <circle fill="#2E75FE" transform="rotate(180 107.916 77.95)" cx="107.916" cy="77.95" r="5"/>
    <circle fill="#2E75FE" transform="rotate(180 265.916 60.95)" cx="265.916" cy="60.95" r="5"/>
    <circle fill="#2E75FE" transform="rotate(180 94.916 72.95)" cx="94.916" cy="72.95" r="5"/>
    <circle fill="#2E75FE" transform="rotate(180 138.916 235.95)" cx="138.916" cy="235.95" r="5"/>
    <circle fill="#2E75FE" transform="rotate(180 17.916 90.95)" cx="17.916" cy="90.95" r="5"/>
    <circle fill="#2E75FE" transform="rotate(180 105.916 267.95)" cx="105.916" cy="267.95" r="5"/>
    <circle fill="#2E75FE" transform="rotate(180 104.916 246.95)" cx="104.916" cy="246.95" r="5"/>
    <circle fill="#2E75FE" transform="rotate(180 129.916 263.95)" cx="129.916" cy="263.95" r="5"/>
    <circle fill="#2E75FE" transform="rotate(180 77.916 225.95)" cx="77.916" cy="225.95" r="5"/>
    <circle fill="#2E75FE" transform="rotate(180 91.916 220.95)" cx="91.916" cy="220.95" r="5"/>
    <circle fill="#2E75FE" transform="rotate(180 117.916 214.95)" cx="117.916" cy="214.95" r="5"/>
    <circle fill="#2E75FE" transform="rotate(180 17.916 101.95)" cx="17.916" cy="101.95" r="5"/>
    <circle fill="#2E75FE" transform="rotate(180 131.916 227.95)" cx="131.916" cy="227.95" r="5"/>
    <circle fill="#2E75FE" transform="rotate(180 113.916 258.95)" cx="113.916" cy="258.95" r="5"/>
    <circle fill="#2E75FE" transform="rotate(180 27.916 253.95)" cx="27.916" cy="253.95" r="5"/>
    <circle fill="#2E75FE" transform="rotate(180 98.916 235.95)" cx="98.916" cy="235.95" r="5"/>
    <circle fill="#2E75FE" transform="rotate(180 138.916 247.95)" cx="138.916" cy="247.95" r="5"/>
    <circle fill="#2E75FE" transform="rotate(180 50.916 76.95)" cx="50.916" cy="76.95" r="5"/>
    <circle fill="#2E75FE" transform="matrix(1 0 0 -1 0 455.9)" cx="265.916" cy="227.95" r="5"/>
    <circle fill="#2E75FE" transform="matrix(1 0 0 -1 0 471.9)" cx="240.916" cy="235.95" r="5"/>
    <circle fill="#2E75FE" transform="matrix(1 0 0 -1 0 447.9)" cx="304.916" cy="223.95" r="5"/>
    <circle fill="#2E75FE" transform="matrix(1 0 0 -1 0 477.9)" cx="317.916" cy="238.95" r="5"/>
    <circle fill="#2E75FE" transform="matrix(1 0 0 -1 0 193.9)" cx="238.916" cy="96.95" r="5"/>
    <circle fill="#2E75FE" transform="matrix(1 0 0 -1 0 145.9)" cx="321.916" cy="72.95" r="5"/>
    <circle fill="#2E75FE" transform="matrix(1 0 0 -1 0 147.9)" cx="265.916" cy="73.95" r="5"/>
    <circle fill="#2E75FE" transform="matrix(1 0 0 -1 0 173.9)" cx="321.916" cy="86.95" r="5"/>
    <circle fill="#2E75FE" transform="matrix(1 0 0 -1 0 157.9)" cx="311.916" cy="78.95" r="5"/>
    <circle fill="#2E75FE" transform="matrix(1 0 0 -1 0 185.9)" cx="107.916" cy="92.95" r="5"/>
    <circle fill="#2E75FE" transform="matrix(1 0 0 -1 0 205.9)" cx="218.916" cy="102.95" r="5"/>
    <circle fill="#2E75FE" transform="matrix(1 0 0 -1 0 165.9)" cx="98.916" cy="82.95" r="5"/>
    <circle fill="#2E75FE" transform="matrix(1 0 0 -1 0 171.9)" cx="346.916" cy="85.95" r="5"/>
    <circle fill="#2E75FE" transform="matrix(1 0 0 -1 0 533.9)" cx="335.916" cy="266.95" r="5"/>
    <circle fill="#2E75FE" transform="matrix(1 0 0 -1 0 431.9)" cx="266.916" cy="215.95" r="5"/>
    <circle fill="#2E75FE" transform="matrix(1 0 0 -1 0 133.9)" cx="308.916" cy="66.95" r="5"/>
    <circle fill="#2E75FE" transform="matrix(1 0 0 -1 0 535.9)" cx="234.916" cy="267.95" r="5"/>
    <circle fill="#2E75FE" transform="matrix(1 0 0 -1 0 519.9)" cx="216.916" cy="259.95" r="5"/>
    <circle fill="#2E75FE" transform="matrix(1 0 0 -1 0 213.9)" cx="230.916" cy="106.95" r="5"/>
    <circle fill="#2E75FE" transform="matrix(1 0 0 -1 0 153.9)" cx="240.916" cy="76.95" r="5"/>
    <circle fill="#2E75FE" transform="matrix(1 0 0 -1 0 217.9)" cx="245.916" cy="108.95" r="5"/>
    <circle fill="#2E75FE" transform="matrix(1 0 0 -1 0 131.9)" cx="329.916" cy="65.95" r="5"/>
    <circle fill="#2E75FE" transform="matrix(1 0 0 -1 0 533.9)" cx="320.916" cy="266.95" r="5"/>
    <circle fill="#2E75FE" transform="matrix(1 0 0 -1 0 447.9)" cx="22.916" cy="223.95" r="5"/>
    <circle fill="#2E75FE" transform="matrix(1 0 0 -1 0 155.9)" cx="218.916" cy="77.95" r="5"/>
    <circle fill="#2E75FE" transform="matrix(1 0 0 -1 0 179.9)" cx="247.916" cy="89.95" r="5"/>
    <circle fill="#2E75FE" transform="matrix(1 0 0 -1 0 439.9)" cx="54.916" cy="219.95" r="5"/>
    <circle fill="#2E75FE" transform="matrix(1 0 0 -1 0 139.9)" cx="280.916" cy="69.95" r="5"/>
    <circle fill="#2E75FE" transform="matrix(1 0 0 -1 0 179.9)" cx="337.916" cy="89.95" r="5"/>
    <circle fill="#2E75FE" transform="matrix(1 0 0 -1 0 207.9)" cx="335.916" cy="103.95" r="5"/>
    <circle fill="#2E75FE" transform="matrix(1 0 0 -1 0 475.9)" cx="339.916" cy="237.95" r="5"/>
    <circle fill="#2E75FE" transform="matrix(1 0 0 -1 0 537.9)" cx="222.916" cy="268.95" r="5"/>
    <circle fill="#2E75FE" transform="matrix(1 0 0 -1 0 457.9)" cx="329.916" cy="228.95" r="5"/>
    <circle fill="#2E75FE" transform="matrix(1 0 0 -1 0 441.9)" cx="341.916" cy="220.95" r="5"/>
    <circle fill="#2E75FE" transform="matrix(1 0 0 -1 0 159.9)" cx="333.916" cy="79.95" r="5"/>
    <circle fill="#2E75FE" transform="matrix(1 0 0 -1 0 147.9)" cx="120.916" cy="73.95" r="5"/>
    <circle fill="#2E75FE" transform="matrix(1 0 0 -1 0 511.9)" cx="335.916" cy="255.95" r="5"/>
    <circle fill="#2E75FE" transform="matrix(1 0 0 -1 0 455.9)" cx="317.916" cy="227.95" r="5"/>
    <circle fill="#2E75FE" transform="matrix(1 0 0 -1 0 109.9)" cx="255.916" cy="54.95" r="5"/>
    <circle fill="#2E75FE" transform="matrix(1 0 0 -1 0 487.9)" cx="248.916" cy="243.95" r="5"/>
    <circle fill="#2E75FE" transform="matrix(1 0 0 -1 0 483.9)" cx="227.916" cy="241.95" r="5"/>
    <circle fill="#2E75FE" transform="matrix(1 0 0 -1 0 463.9)" cx="253.916" cy="231.95" r="5"/>
    <circle fill="#2E75FE" transform="matrix(1 0 0 -1 0 459.9)" cx="292.916" cy="229.95" r="5"/>
    <circle fill="#2E75FE" transform="matrix(1 0 0 -1 0 477.9)" cx="306.916" cy="238.95" r="5"/>
    <circle fill="#2E75FE" transform="matrix(1 0 0 -1 0 485.9)" cx="329.916" cy="242.95" r="5"/>
    <circle fill="#2E75FE" transform="matrix(1 0 0 -1 0 499.9)" cx="235.916" cy="249.95" r="5"/>
    <circle fill="#2E75FE" transform="matrix(1 0 0 -1 0 135.9)" cx="216.916" cy="67.95" r="5"/>
    <circle fill="#2E75FE" transform="matrix(1 0 0 -1 0 173.9)" cx="229.916" cy="86.95" r="5"/>
    <circle fill="#2E75FE" transform="matrix(1 0 0 -1 0 179.9)" cx="217.916" cy="89.95" r="5"/>
    <circle fill="#2E75FE" transform="matrix(1 0 0 -1 0 513.9)" cx="228.916" cy="256.95" r="5"/>
    <circle fill="#2E75FE" transform="matrix(1 0 0 -1 0 437.9)" cx="254.916" cy="218.95" r="5"/>
    <circle fill="#2E75FE" transform="matrix(1 0 0 -1 0 143.9)" cx="227.916" cy="71.95" r="5"/>
    <circle fill="#2E75FE" transform="matrix(1 0 0 -1 0 489.9)" cx="32.916" cy="244.95" r="5"/>
    <circle fill="#2E75FE" transform="matrix(1 0 0 -1 0 117.9)" cx="292.916" cy="58.95" r="5"/>
    <circle fill="#2E75FE" transform="matrix(1 0 0 -1 0 513.9)" cx="42.916" cy="256.95" r="5"/>
    <circle fill="#2E75FE" transform="matrix(1 0 0 -1 0 495.9)" cx="217.916" cy="247.95" r="5"/>
    <circle fill="#2E75FE" transform="matrix(1 0 0 -1 0 133.9)" cx="75.916" cy="66.95" r="5"/>
    <circle fill="#2E75FE" transform="matrix(1 0 0 -1 0 173.9)" cx="304.916" cy="86.95" r="5"/>
    <circle fill="#2E75FE" transform="matrix(1 0 0 -1 0 137.9)" cx="142.916" cy="68.95" r="5"/>
    <circle fill="#2E75FE" transform="matrix(1 0 0 -1 0 221.9)" cx="131.916" cy="110.95" r="5"/>
    <circle fill="#2E75FE" transform="matrix(1 0 0 -1 0 429.9)" cx="317.916" cy="214.95" r="5"/>
    <circle fill="#2E75FE" transform="matrix(1 0 0 -1 0 155.9)" cx="253.916" cy="77.95" r="5"/>
    <circle fill="#2E75FE" transform="matrix(1 0 0 -1 0 105.9)" cx="310.916" cy="52.95" r="5"/>
    <circle fill="#2E75FE" transform="matrix(1 0 0 -1 0 191.9)" cx="314.916" cy="95.95" r="5"/>
    <circle fill="#2E75FE" transform="matrix(1 0 0 -1 0 123.9)" cx="121.916" cy="61.95" r="5"/>
    <circle fill="#2E75FE" transform="matrix(1 0 0 -1 0 129.9)" cx="253.916" cy="64.95" r="5"/>
    <circle fill="#2E75FE" transform="matrix(1 0 0 -1 0 147.9)" cx="342.916" cy="73.95" r="5"/>
    <circle fill="#2E75FE" transform="matrix(1 0 0 -1 0 147.9)" cx="294.916" cy="73.95" r="5"/>
    <circle fill="#2E75FE" transform="matrix(1 0 0 -1 0 109.9)" cx="98.916" cy="54.95" r="5"/>
    <circle fill="#2E75FE" transform="matrix(1 0 0 -1 0 119.9)" cx="23.916" cy="59.95" r="5"/>
    <circle fill="#2E75FE" transform="matrix(1 0 0 -1 0 113.9)" cx="76.916" cy="56.95" r="5"/>
    <circle fill="#2E75FE" transform="matrix(1 0 0 -1 0 135.9)" cx="131.916" cy="67.95" r="5"/>
    <circle fill="#2E75FE" transform="matrix(1 0 0 -1 0 119.9)" cx="319.916" cy="59.95" r="5"/>
    <circle fill="#2E75FE" transform="matrix(1 0 0 -1 0 447.9)" cx="278.916" cy="223.95" r="5"/>
    <circle fill="#2E75FE" transform="matrix(1 0 0 -1 0 499.9)" cx="305.916" cy="249.95" r="5"/>
    <circle fill="#2E75FE" transform="matrix(1 0 0 -1 0 193.9)" cx="328.916" cy="96.95" r="5"/>
    <circle fill="#2E75FE" transform="matrix(1 0 0 -1 0 453.9)" cx="229.916" cy="226.95" r="5"/>
    <circle fill="#2E75FE" transform="matrix(1 0 0 -1 0 469.9)" cx="219.916" cy="234.95" r="5"/>
    <circle fill="#2E75FE" transform="matrix(1 0 0 -1 0 509.9)" cx="324.916" cy="254.95" r="5"/>
    <circle fill="#2E75FE" transform="matrix(1 0 0 -1 0 201.9)" cx="46.916" cy="100.95" r="5"/>
    <circle fill="#2E75FE" transform="matrix(1 0 0 -1 0 525.9)" cx="307.916" cy="262.95" r="5"/>
    <path d="M338.291 48.726l-.732-.338v-14.8h18.454c.439-.002.842-.246 1.05-.637a1.196 1.196 0 00-.07-1.183l-4.456-6.77 4.466-6.729a1.2 1.2 0 00.05-1.187 1.197 1.197 0 00-1.056-.668h-20.832v30.8l-1.747-.736c-16.264-6.85-33.455-10.336-51.097-10.366l-1.257-.002V18.814h18.453c.44-.001.843-.245 1.05-.636a1.194 1.194 0 00-.068-1.182l-4.458-6.771 4.466-6.73c.224-.345.247-.804.052-1.184a1.198 1.198 0 00-1.058-.67H278.67v34.47l-1.258.001c-17.64.022-34.83 3.5-51.096 10.341l-1.747.735v-13.6h18.453c.44-.002.842-.246 1.05-.637a1.194 1.194 0 00-.068-1.182L239.547 25l4.465-6.73c.223-.346.247-.805.051-1.186a1.196 1.196 0 00-1.057-.669h-20.831v31.968l-.726.341a75.226 75.226 0 00-18.627 12.4c-.27.27-.384.73-.255 1.156l14.59 53.564-.022.03.338 1.244h39.04l-.012-15.787c0-12.916 10.482-23.423 23.366-23.423 11.955 0 21.935 9.06 23.222 20.841h.102l.06 1.263v17.106h38.961l15.042-54.878c.137-.45.03-.9-.27-1.213a75.289 75.289 0 00-18.693-12.3zM135.81 203.56l-.733-.339v-14.8h18.454c.44-.001.842-.245 1.05-.636a1.196 1.196 0 00-.07-1.183l-4.456-6.77 4.466-6.73a1.2 1.2 0 00.051-1.186 1.197 1.197 0 00-1.057-.668h-20.831v30.8l-1.748-.736c-16.264-6.85-33.454-10.337-51.097-10.366l-1.257-.002v-17.297h18.454c.439 0 .842-.245 1.05-.635a1.194 1.194 0 00-.069-1.183l-4.457-6.77 4.466-6.73c.224-.346.247-.804.052-1.185a1.198 1.198 0 00-1.058-.669H76.188v34.47H74.93c-17.64.023-34.83 3.501-51.096 10.342l-1.746.735V188.42H40.54c.44-.001.843-.245 1.05-.636a1.194 1.194 0 00-.068-1.182l-4.457-6.771 4.465-6.73c.224-.345.247-.805.052-1.185a1.196 1.196 0 00-1.058-.67H19.693v31.97l-.725.34a75.226 75.226 0 00-18.628 12.4c-.27.27-.384.73-.254 1.156l14.59 53.564-.023.03.338 1.243h39.04l-.012-15.786c0-12.916 10.482-23.424 23.367-23.424 11.954 0 21.934 9.062 23.222 20.842h.101l.06 1.263v17.105h38.962l15.042-54.877c.137-.45.03-.9-.27-1.214a75.289 75.289 0 00-18.693-12.3zM336.13 204.035l-.733-.339v-14.8h18.454c.439 0 .842-.245 1.05-.636a1.196 1.196 0 00-.07-1.183l-4.456-6.77 4.466-6.729a1.2 1.2 0 00.05-1.187 1.197 1.197 0 00-1.056-.668h-20.832v30.8l-1.747-.736c-16.264-6.85-33.455-10.337-51.097-10.366l-1.257-.002v-17.297h18.453c.44 0 .843-.244 1.05-.635a1.194 1.194 0 00-.068-1.182l-4.458-6.772 4.466-6.729c.224-.345.247-.804.052-1.185a1.198 1.198 0 00-1.058-.669h-20.831v34.47h-1.258c-17.64.023-34.83 3.501-51.096 10.342l-1.747.735v-13.601h18.453c.44 0 .842-.245 1.05-.636a1.194 1.194 0 00-.068-1.182l-4.457-6.771 4.465-6.729c.223-.346.247-.806.051-1.186a1.196 1.196 0 00-1.057-.669h-20.831v31.968l-.726.341a75.226 75.226 0 00-18.627 12.4c-.27.27-.384.73-.255 1.156l14.59 53.564-.022.03.338 1.243h39.04l-.012-15.786c0-12.916 10.482-23.423 23.366-23.423 11.955 0 21.935 9.06 23.222 20.841h.102l.06 1.263v17.105h38.961l15.042-54.877c.137-.45.03-.9-.27-1.213a75.289 75.289 0 00-18.693-12.3zM135.777 47.084l-.732-.338v-14.8h18.454c.439-.001.842-.245 1.05-.637a1.196 1.196 0 00-.07-1.182l-4.457-6.77 4.467-6.73a1.2 1.2 0 00.05-1.186 1.197 1.197 0 00-1.056-.668H132.65v30.8l-1.747-.737C114.64 37.987 97.449 34.5 79.807 34.471l-1.257-.002V17.172h18.453c.44 0 .842-.245 1.05-.635a1.194 1.194 0 00-.068-1.183l-4.458-6.77 4.466-6.73c.224-.346.247-.804.052-1.185A1.198 1.198 0 0096.987 0H76.156v34.469l-1.258.002c-17.64.021-34.83 3.5-51.096 10.34l-1.747.736V31.946h18.453c.44-.001.842-.245 1.05-.637a1.194 1.194 0 00-.068-1.181l-4.457-6.771 4.465-6.73c.223-.345.247-.805.051-1.185a1.196 1.196 0 00-1.057-.67H19.661v31.969l-.726.34a75.226 75.226 0 00-18.627 12.4c-.27.271-.384.73-.255 1.156l14.59 53.565-.022.03.338 1.243h39.04l-.012-15.787c0-12.916 10.482-23.423 23.366-23.423 11.955 0 21.935 9.061 23.222 20.842h.102l.06 1.262v17.106h38.961l15.042-54.877c.137-.45.03-.9-.27-1.214a75.289 75.289 0 00-18.693-12.3z" stroke="#D5E5FF" stroke-width="3"/>
  </g>
</svg>
