<svg xmlns="http://www.w3.org/2000/svg" viewBox="0 0 687 402">
  <g transform="translate(2.104 3.5)" fill="none" fill-rule="evenodd">
    <path d="M389.324 250.288c-.012.412-.524.332-.856.424l.856-.424zm-1.854-.574c.012-.416.52-.332.852-.428l-.852.428zm-5.776-8.64l.42.852c-.328-.092-.492-.356-.42-.852zm300.896 83.018a2.648 2.648 0 01-1.837-2.033c-.715-.755-.969.611-1.636.35-.119-.247-.254-.529-.432-.755-.306-.143-.548-.278-.687-.457.028-.29.147-.56.29-.75.464-.048.933-.14 1.365-.406.635-1.131-1.33-1.612-.607-2.732 1.175-.746.056-2.462-1.095-2.55-.362-1.278 1.071-2.084 1.19-3.28.679-.555 1.786.144 2.381-.46-.952-2.108.163-4.717-1.734-6.143.445-1.171.778-2.756.472-3.888-.063-.254-.008-.448.064-.635a2.21 2.21 0 01.484-.21c.707.158 1.838.055 2.088-.747-.227-.83-.076-1.755-.707-2.45-.194-.111-.385-.127-.587-.131-.258.877-.917 1.437-1.933.989.623-2.435-1.258-4.039-1.306-6.346-.143-.143-.266-.294-.393-.449-1.23-.063-2.432-.46-3.198-1.465-1-1.49-.354-2.526-.635-4.039-.477-.08-1.056-.071-1.457-.238-.087-.187-.19-.338-.282-.492-.555-1.188.949-1.978.453-3.062-1.39-1.807-3.902-2.565-3.902-5.341-1.686.282-1.659-.564-1.603-1.867-2.548 1.569-3.842-1.759-6.116-.861-.377 2.355-2.032 3.427-3.179 5.285-.607.135-1.345.14-1.778-.123-.143-1.914-1.762-3.165-2.957-4.428.064-1.338 1.492-2.295.909-3.689-1.504-2.359-4.362-3.057-6.124-4.884-2.457-2.542-3.068-5.98-5.096-8.895-.051-.246-.032-.477-.012-.7 2.21-1.75 4.775-2.958 6.6-5.233 0-2.339 1.453-4.872.405-6.993-6.707-2.91-1.282-8.748-2.4-14.121-.43-2.033-1.676-2.895-1.954-5.19-1.31-.401-2.595-.786-3.873-1.275-.683-1.152.036-2.402-.254-3.558-.667-.091-1.405-.127-1.67-.878-1.315.108-3.148-.09-3.878-1.354.456-1.735-.401-3.355-1.29-4.674.238-.901.262-1.838.464-2.74 2.433-.305 1.425-3.423 3.433-4.153 1.453-1.76-1.845-1.847-.647-3.475-.647-.707-1.635-.484-2.401-.886-.417-3.927-5.028-4.245-7.096-7.298-6.6-.04-5.985-6.402-8.478-10.17-4.361.254-7.076-6.934-11.156-4.261-2.091-.81-3.552-2.637-5.6-3.562-.242-.898.107-1.874-.218-2.74a1.862 1.862 0 00-.925-.643c-.694-.08-1.075.472-1.703.611-.377-.083-.654-.381-.96-.623-.13-1.204-1.556-1.188-2.131-2.12-.068-.255-.008-.446.055-.632a2.21 2.21 0 01.485-.207c.817-.1 1.397.882 2.214.381.159-.258.341-.496.484-.774.334-3.403-3.806-3.216-5.754-4.714-.568-1.517-.19-2.986.34-4.392-1.511-.456-1.642-1.898-1.567-3.315-2.564-.338-5.477 2.692-7.691-.33-.199-1.497 1.028-2.93.202-4.432-2.23-.687-4.441-3.375-6.85-1.727-.381-.087-.659-.385-.96-.627-.262-.846-.93-1.672-.68-2.637.421-.235 1.211-.163 1.612-.457.187-.286.143-.643.091-.921-1.21-1.354-2.512-2.577-4.008-3.606-.19-.675-.17-1.41.417-1.823-1.6-1.437-.584-4.022-2.401-5.083-.16-.27-.171-.679-.207-1.052 1.163-1.306-.909-1.854-1.607-2.64-1.242-1.653-.496-3.845-.647-5.707a5.34 5.34 0 01-.397-.449c-1.568-.595-3.6-.703-4.255-2.541-.758-.246-1.17.675-1.674 1.076a2.172 2.172 0 01-1.056-.044 2.506 2.506 0 01-.214-.492c.043-.31.099-.663.226-.941.575-.274 1.15-.485 1.69-.779.084-.242-.055-.607-.25-.94-1.496.96-4.12.27-6.528.869-1.362.341-2.985 1.592-4.56 1.668-1.171-.401-2.735-2.228-1.167-3.157a2.021 2.021 0 00-.044-1.053c-.178-.099-.337-.19-.484-.285-2.151 1.767-5.211 1.945-7.628 3.264-1.588-1.072-1.25-2.764-1.607-4.27-2.279.791-1.894-3.502-4.207-1.877-.266.063-.457.004-.643-.064-.485-.913 1.036-1.445.583-2.283-.377-.294-.909-.27-1.322-.397-.265-.441-.448-.858-.373-1.208.417-.214 1.27-.15 1.477-.444a3.225 3.225 0 00-.187-.918c-.262-.298-.555-.572-.821-.865-3.767-.91-6.458-4.758-8.914-7.355-1.504-.953-3.223-1.87-3.806-3.661-1.123-1.156-2.536-.588-3.497.04-.48-.763.064-1.775-.333-2.562-.222-.071-.476-.095-.727-.115-.678.37-1.504.735-2.305.556 1.103-3.371-1.278-4.15-4.338-3.665-.219-.207-.44-.405-.651-.632-1.842 1.16-4.866 2.709-6.775.421-.258-.067-.44-.008-.62.052-2.69 3.062-7.655-2.732-10.52.782-.179-.02-.346-.103-.512-.194-.27-.548-.358-1.271-1.155-1.251-.782 1.211-1.778.762-2.969.393-.635 1.108-2.29.163-2.857-.623-.254-.068-.445-.008-.628.051-.67 1.688-2 .334-3.298 1.27-.619-.766-.543-1.798-1.17-2.568-.39-.306-.93-.552-1.524-.473-.93.663-.735 1.966-1.445 2.788-.35.071-.576.266-.822.448-.385.084-.746.04-1.055-.04-.913-.59-1.052-1.667-1.917-2.318a2.259 2.259 0 00-1.052.035c-1.341.64-1.69 2.828.175 2.959.107.365.063.723-.004 1.028-.143.14-.27.294-.401.445-2.592.02-4.874-.028-7.088 1.569-3.378-1.803-6.708-.354-9.74 1.27-.294-.071-.738-.198-1.052-.42a7.046 7.046 0 01-.77-1.768c-.146-.139-.273-.294-.408-.448-.366-.076-.663-.151-.945-.203-.774.286-1.357.957-2.222 1.076-1.314.612-.151 1.855-.663 2.732-2.06 1.8-4.47-1.513-6.267.286.048.421.052 1.005-.095 1.394-4.08 2.597-8.192-1.557-12.335-.198-1.635-2.272-4.318-.104-6.156.516-1.81-1.374-3.302.341-4.96.512-.688-1.612-2.767-1.993-2.787-3.987-3.195-.985-4.683 3.816-7.926 1.394-.278.087-.79.15-1.159.314-2.639 3.792-3.103 8.47-5.608 12.187.254.405.381.993.743 1.346-.23 2.49-2.259 3.67-4.457 3.84-1.171 1.49-1.33 3.82-.62 5.48.052 1.874-2.52 1.56-3.23 2.923.56 1.306-.714 2.85-.822 3.447-.964 5.456-.186 9.28-1.36 12.627-1.037 2.95-3.013 5.651-4.994 8.983-1.5 2.522-3.512 5.194-5.508 8.053-3.243 4.65-5.708 9.908-9.74 14.828-1.4 1.708-2.75 4.094-4.453 6.14-1.417 1.695-3.988 3.597-5.715 5.726-2.036 2.505-2.107 3.998-4.846 5.32-5.763 2.777-11.736 6.168-18.332 7.149-.166.337-.575.56-.817.83.86 1.616 2.294 3.113 3.857 4.114.254.385.671.262.965.099-.298-.977.36-1.7.667-2.546 6.076-2.76 14.16 2.443 15.994 8.542.833.163 1.258 1.009 1.889 1.493.405 5.46 7.275 5.703 8.902 10.591.262 1.18-.123 2.458.218 3.59 2.21.556 3.06 3.459 3.386 5.516 1.56 1.382 2.949 1.854 4.044 4.006.9 1.744 1.262 4.373 1.143 6.584l.4 1.998.652 2.581h.412v-.631l-.23-.644c-.436-.083-.444-.583-.413-1.127l-.206-.564c.722-.382 1.298-1.954 2.266-1.505-.504 1.247-1.38 2.378-1.417 3.84.346 1.004 1.008 2.176.723 3.256a3.533 3.533 0 00-.41.286l.195.774 1.628 1.632c.377.203.805.417 1.258.62.266-.413.746-.183 1.238-.326l.659-.528c-.21.318-.433.465-.659.528l-.699.564c.687.278 1.394.508 2.025.592l.408-.131c.477-.247.866-.671 1.473-.489l.528-.64a9.846 9.846 0 00-.318-1.055l-1.695.417c.485-.171 1.04-.413 1.695-.417 1.357-1.247 3.056-2.248 4.961-2.022.091.175.183.346.214.54-1.36.942-3.262 1.49-4.857 2.538a4.749 4.749 0 01-.528.64l1.587 9.832c.397.393 5.54 1.83 7.946 1.838 17.526.032 35.882.572 53.511-.036.012-6.155 6.985-13.056 12.958-9.085 4.79.099 6.2-3.785 9.768-4.015 1.702-.111 3.58 1.334 5.508 1.66 3.25.54 5.14-.207 7.517 1.596 3.306 2.51 2.092 7.879 7.108 8.478 3.783-2.033 7.751-3.482 11.105-.42 1.282 1.17 1.215 2.982 2.314 4.463 1.274 1.703 2.77 2.212 3.612 2.732 5.46 3.352 7.163 1.501 12.089-1.239 2.107-1.175 3.865-1.652 5.81-2.017 1.4-.254 3.266.42 5.41-.747 2.805-1.52 7.429 3.173 8.445 4.44 1.58 1.946 2.345 3.113 1.722 5.313-1.135 4.023-4.048 3.665-8.322 4.384-.397.072-.679.58-1.032.663-3.048.675-4.39 1.112-7.02 1.033-1.696.397-1.029 2.398-2.303 3.204-2.468.374-5.382.894-7.497-.714-4.02 1.072-8.215.218-10.72-3.273-2.341-.222-4.857-.496-6.35-2.537-3.429 1.183-7.747-.33-9.72-3.42-.988-1.282-2.738-.408-4.032-1.044-3.12-1.663-6.596-1.798-9.74-3.824-1.162-.746-1.991-1.95-3.392-2.541-.612-.687-1.191-1.477-1.477-2.34-.305-.245-.58-.543-.968-.63-3.925.718-6.648 4.431-6.22 8.49-2.428 3.927-6.615 6.115-9.977 4.654-2.254-.977-4.91-2.117-7.203-1.497-2.449 3.768-6.053 1.147-9.327 1.258-2.342.084-3.893 1.636-6.128 1.092-.15 3.225-.115 6.49-.444 9.71-12.891.246-25.877.15-38.807.043-.409.215-10.7.127-11.085.671-.353 1.684-2.024 2.574-2.282 4.968-.322 2.93.087 6.024-.699 9.217-1.341 5.464-1.19 13.97-.246 18.16.167.099.334.19.532.226 4.846-.675 8.426-8.212 12.387-5.087.758.604 2.056 1.22 3.425 1.807-1.235.524-2.516 1.402-3.624 1.767-.397-.941-1.254-1.874-2.242-2.172-1.861-.072-2.032 2.116-3.1 3.034-.73.631-2.405.595-2.643 1.95a2.347 2.347 0 01-.575.075c-.635-1.414-3.513-.401-4.596.746-2.882 3.05.25 7.057 2.345 10.162.02.262.111.45.219.632.365.103.718.063 1.023-.008.366-.584 1.036-.584 1.485-1.053 6.902.199 14.748.58 20.114-2.334 1.222-.66 3.393-2.737 5.298-3.173.976-.227 2.02.071 3.489.008 4.524-.191 5.746-1.366 9.914-.036 2.365.746 6.12.44 10.418.949 4.96.588 6.87.627 9.152-.151 2.917-1 5.838-2.978 8.537-4.166 4.54-1.993 7.878-5.261 12.72-7.62 4.254-2.069 8.334-1.74 14.49-1.62 26.103.484 55.329-.838 81.75.42 4.02.191 8.155-.039 10.91 1.43 2.13-.369 4.159.096 6.258-.095.675.044 1.02.774 1.695.806 2.072-1.263 4.322.687 6.203-.226 3.195 2.188-.531 5.234.286 7.954.226.337.433.695.786.91 2.028-.326 3.814.889 5.735.364 1.028-.71.845-2.084 1.095-3.137a6.05 6.05 0 00.397-.448c2.187-.961 4.31.746 5.215 2.636 2.06.691 3.957.906 4.894 3.114 3.726-.453 7.894-.322 9.81 3.363.485.111 1.048.111 1.453-.02 3.46-3.558 8.481-.012 10.386 3.423.374.08.762.06 1.116.028 1.313-.246 2.226-1.33 3.969-1.958 1.591-.583 3.516-.293 4.988-.937 2.334-1.016 3.743-4.348 7.073-3.26.88.282 1.206 1.648 2.23 1.334 1.786-.083 3.259-.873 4.727-1.826.532-.072 1.091-.076 1.5.067 3.322 2.704 9.152 3.074 12.502.385 4.862-.08 10.374-2.883 14.796.274.524.072 1.107.084 1.504-.067-.302-1.704 1.603-2.697.861-4.392zM310.987 59.686l-1.747-.36-1.727-.907-1.86-.594-1.664.958-.559.119-.558-.1-1.042-.423-.614-.051-3.14.76-1.034.075-1.972.55-4.388.242-4.004.238-2.044-.238-1.897-.76-1.739-1.362-2.506-3.493-1.03-.95-.626-.389-1.877-.614-.721-.36-.408-.404-.645-1.216-.959-1.085-2.364-1.6-.876-1.112-2.47 1.615-3.244 1.24-4.139 1.564-5.054 1.952-.23.222-.233.614-.21.19-3.085 1.073-3.968 1.378h-.12l-.106-.023-.107-.072-.38-.023-.036.138.028.242-.182.237-1.767.88-3.798 1.837-3.37 1.604-3.358 1.596-.78.974-.769 2.043-1.09 2.852-.649 1.215-.748.975-3.065 2.811-2.575 2.325-1.014 1.216-.851 2.594-.661 1.017-1.248.076-.626-.424-.293-.5-.202-.55-.348-.423-1.204-.404-4.891-.147.364-.713-.186-.404-.503-.051-1.77 1.026-1.494.051-1.524-.337-4.036-1.837-.38-.087-2.25.475h-.606l-.578-.214-.67-.107-1.647.313-1.022.024-2.918-.784-3.858-1.054-.713-.376-.618-.622-1.065-1.378.028.238-.067.55.011.29-2.285-.175-.21-.138-.04-.214-.086-.123-.555.222-.21.02-.51-.044-.547-.146-.163-.242-.07-.309-.326-.352-.744-.622-.206-.091-.372.166-.088.313.036.348-.028.226-2.004.875-2.186.19-4.186-.475-4.166-.471-1.224.095-1.244.301-.467-.067-.907-.784-1.168-.36-.503-.278-.606-.717-1.002-1.572-.717-.737-1.204-.76-3.909-2.499-3.727-2.4-4.04-2.562-3.587-2.312-3.173-2.016-4.467-2.88-3.818-2.423-3.822-2.451-2.11-1.358-.238-.068-.238.024-.202-.051-.123-.214-.21-.887-.142-.353-.261-.36-.301-.087-.777.04-.277-.163-.622-1.05-.38-.277-1.596-.364-2.788-1.402-2.333-.645-7.548.075-.329-.091-.578-.333-.333-.075-6.123.119-7.279.138-.507-.075-.717-.325-.384-.122-.416.023-1.354.175-5.87.04-.895-.215-.827-.522-1.525-1.331-.705-.424-.242-.57.016-.638.119-.788-.036-.76-.522-.923-.072-.669-3.564-3.758-1.766-1.901-.967-1.616-.332-1.889v-.023l.162-8.154.194-.5 1.509-1.88.309-.784v-.808l-.349-.95-.78-1.474-.11-.752.257-.907 1.065-1.517-.19-.36-2.147-.844-2.574-1.564-.998-.261-.725.162-.709.313-.918.214-.95-.262-1.688-1.354-.9-.523-.696-.19-.82-.095h-.828l-.705.147-.847.562-1.596 1.734-.887.618-.943.147-.72-.36-.59-.638-1.276-2.028-.158-.352.043-.5.277-.403.34-.412.235-.448-.167-.447-2.178 2.115-2.17 2.122-2.179 2.139-2.162 2.138-2.178 2.111-2.174 2.115-2.167 2.15-2.186 2.115-2.17 2.138-2.17 2.111-2.17 2.15-2.18 2.111-2.177 2.139-2.175 2.114-2.166 2.115-2.178 2.146-3.949 3.897-3.96 3.893-3.957 3.897-3.948 3.924 1.129.55.883.69.487.903-.06 1.2.048.514.352.432.436.404.329.451.11.448.02.451-.114.907-.147.543-.174.36-.016.404.305.622.475.423.567.377.447.451.095.646-.408 1.001-.503.903-.055.666.907.332.614-.118 1.556-.57.753.027.87.447.096.527-.424.515-1.87.978.084.222.606.214.491.586-.776.503-.254.309.491.19.33-.028.68-.186.765-.052.78-.213.412-.024.027.186.876 1.125.59 1.564.443.241.183-.138.17-.388.416-.376 1.065-.313.709.285 1.255 1.362.745.38.737.214.578.384.257.804-.09 3.137-.373 1.552-.745 1.136-.36.19-.408.096-.352.166-.218.337.023.423.492.836.166.424-.067.38-.4.946-.111.436.099.475.309.404.364.4.293.436.5 1.54.383 4.784.428.903.82.527 1.853.526.82.515.455.836 1.13 5.9.395.662 1.244 1.378.59.926.348.36.54.14.245-.068.443-.36.155-.076.095-.067.17-.313.099-.075.15.075.084.139.07.146.076.072.075.095 1.101.522.218.052.258.329.158.36.796 2.451.594 3.378 1.648 3.422.38.352.53.028.321-.285.262-.305.352-.075.392.55.226 1.925.23.74 1.061 1.09.369.66-.107.888-.583.689-.784.447-.709.55-.344.951.257 1.552 2.218 5.327 1.774 4.225v.74l-.372 1.735-.06.76.052.805.163.784.277.665.348.412.915.851.194.452-.146.412-.73.922-.173.476-.04 7.563-.242.828-1.24 2.622-.28.447-.396.353-.396.19-.82.174-.396.186-.903 1.339-.828 3.136-2.325 1.9.147 1.379.681 1.588.412 1.548-.495 1.572-1.24.567-3.228.336-.811.476-1.335 1.287-1.901.423-.261.713-.068.88-.424.712-.82.15-.63-.364-.645-.138-.804.788-.388.689-.324.776-.21.836-.02 1.734-.226.812-1.026 2.49-1.12 1.45-.555 1.58-.677.586-2.515 1.264-.32.336-.238 1.378-.638 1.688-.935 1.001-1.267.638-1.588.574-1.157.788-.669 1.188-.986 3.976-.115.325-.273.412-.673.804-.187.36.056.713.44 1.402-.111.816-.337.503-1.41 1.085-3.481 4.61-2.277 3.029-.115.748 1.216 4 1.211 4 .044 1.52-.72 6.166-.928 8.008-.653 5.591.143 5.299.233 7.912h2.986l.15-.024.607.024.075 1.03.535.336 1.45.111 2.934 1.624 8.408 4.657 8.404 4.665 8.408 4.661 8.408 4.67 8.408 4.676 8.396 4.665 8.4 4.669 8.408 4.657 8.412 4.661 8.392 4.661 8.404 4.665 8.408 4.693 8.408 4.653 8.408 4.665 8.408 4.665 8.408 4.693 3.22 1.774.61.95.685 4.234.871 5.275-.717.051-.384.34-.139.535.056.701h-.737l-.934.5-.876.688-.57.65-.198.325-.198.459-.099.447.075.408.277.281.63.08.214.3-.154.65-.313.757.107.542 1.877-.11.836.066.827.226.74.353.547.499.29.621.685 2.4.396.772.534.721 2.139 1.525 3.343 2.376 3.338 2.396 3.347 2.408 3.342 2.4 3.347 2.375 3.35 2.4 3.335 2.4 3.347 2.396 3.338 2.376 3.347 2.4 3.35 2.408 3.335 2.395 3.347 2.396 3.342 2.38 3.35 2.4 3.324 2.404.126-.158.13-.052.14-.032.162-.051.756-.566.737-1.097.836-.808 1.144.332.234-.574.036-.218.946 1.153 1.493.376 1.307-.214.392-.53-.598-.852-.087-.336.119-.547.25-.028.265.147.19.024.32-.594.238-.587.281-.554.503-.408.143.57-.123 1.14.25.73 1.338-4.032.103-.142.559-.503.122-.242-.031-.471.04-.198.324-.432.333-.356.348-.024.34.527.433-1.121 1.29-4.78 1.24-3.188 1.965-3.326.146-.95-.772-.713-1.378-.408-1.291.087-.579.76-.162-.408-.083-.388-.016-.828.147-.26.348-.048.436.023h.408l1.223-.28.377-.314.289-.713-1.034-.241-.467-.194-.388-.357.431-.356.448.075.998.547.693-.57.06.526-.076.907.265.48.301.213.258.875.384.222.34-.194.35-.42.276-.475.095-.356.131-.258.828-.93.099-.666-.408-.194-.867.052-.396-.365-.183-.348-.126-.364-.262-.404-.146-.392.25-.297.867-.48-.008 1.331.796.598 1.105-.202 1.01-.95 3.16-8.673.083-1.216-.099-.582-.25-.598-.431-.309-1.362.55-.551-.162-.162-.451.471-.578-.8.02-.463-.357-.107-.586.297-.72.412.332-.032.146-.155.349 1.046.079.186.052.519.57.174.123.852.38.344-.072.483-.447.452-.907.412-2.23 1.057-1.67.804-2.088.69-1.112-.084-.242-.17-.234-.064-.213.226-.947.032-.356v-.555l.071-.519.31-.384.692-.17-.067.554-.428 1.47-.309.665.701-.11.53-.413.947-1.089.515-.348 1.89-.86.57-.364.443-.475.349-.566.245-.598.016-.741-.428-1.402.028-.527 1.339-1.896.25-.666.162-1.972.221-.48.808-1.092 1.39-1.28.301-.47-.043-.432-.8.594-.82.095-.48-.46.219-1.04-.836-.623.1-1.251.736-2.499.035-.333.143-.586-.04-.261-.582-.788-.075-.281.17-.67 1.169-1.445.716-1.64.349-.55.46-.471 1.956-1.572 1.152-.717.982-.301 1.624-1.172 3.969-1.24 1.275-.138 1.24.285 1.168.526 1.192.262 1.366-.5 2.392-2.839 1.814-.752 1.232-.86 1.07-1.073.462-.902-.265-.547-1.109-.72-.25-.567.262-.432.071-.25-.186-.094-.325-.123-.21-.273-.106-.368-.016-.333.804.432.82-.713.883-1.054.99-.526.558-.111.274-.1-.052-.075.4.147.036.162-.06.194.159.31.942.997.543.357.677.237-1.271.65.11.423.88-.162.962-1.196.444-.998-.063-.427-.385-.547-.495-.364-.475-.024-.432.08-.348-.124-.487-.974-.254-1.489-.071-2.867-.123-.238-.285-.067-.281-.095-.123-.38.08-.222.368-.218.083-.261-.123-.61-.34-.451-.511-.12-.622.258.095-.475-.115-.523-.25-.59.472-.55.364.15.357.42.411.218.717.55.737 2.4.725.539.835-1.042.163-4.562 1.382-1.073-.582.875-.163.475.095.55.024.448-.376 1.101-.04.567.17.574.25.364.368.257.527.25.618.051.412-.447.412-.527 1.061-.42.772-.85.488-.318.332.032 1.533.376 1.137.095.364-.903.103-.934.784-.804.051.835.428.444.685.08.737-.286.594.74.812-.502 1.402-1.687 2.23-2.02.843-.523.19-.693 1.406-2.119 2.979-3.04.134-3.24-.134-.737-.468-.855-1.513-1.949-1.964-2.526-1.988-2.515-2.008-2.598-1.917-2.475-1.79-2.3-2.162-2.757-2.004-2.59-1.945-2.475-.982-1.275-.998-1.287-1.002-1.28-.998-1.29-.044-2.939-.028-2.732-.04-2.756-.063-4.21-.051-4.237-.063-4.21-.064-4.225-.031-2.614-.028-2.618-.056-3.183v-97.261l-.051-5.26-.044-5.017-.02-2.07.559-1.09 1.343-1.31 3.22-3.165 3.223-3.164 3.212-3.176 3.224-3.164 2.02-2.887 2.027-2.879 2.024-2.899 2.028-2.879 3.283-4.677 3.287-4.665 3.283-4.688 3.28-4.69-1.91 1.09zm-27.66 234.258l-1.171-.365-1.046-.079-.46.505-.334.745-.794.38-.916.272-.72.373-.515.836-.475 1.179v.836l.865-.18.078.455.177.365.307.234h.475l.146-.392-.299-.245-.413-.248-.204-.264.102-.523.256-.324.35-.045.345.244 1.451-.723.7-.23.507-.06.047.08.13.161.212.181.28.072.227-.046.11-.09.079-.083.118-.049.248-.117.141-.308.075-.437-.04-.4.523.818.724-.14.283-.76-.755-1.18-.814-.448z" stroke="#D5E5FF" stroke-width="3"/>
    <circle fill="#2E75FE" cx="188.536" cy="250.984" r="5.123"/>
    <circle fill="#2E75FE" cx="72.536" cy="223.984" r="5.123"/>
    <circle fill="#2E75FE" cx="76.536" cy="92.984" r="5.123"/>
    <circle fill="#2E75FE" transform="matrix(1 0 0 -1 0 633)" cx="661.896" cy="316.5" r="5"/>
    <circle fill="#2E75FE" transform="matrix(1 0 0 -1 0 619)" cx="646.896" cy="309.5" r="5"/>
    <circle fill="#2E75FE" transform="matrix(1 0 0 -1 0 619)" cx="636.896" cy="309.5" r="5"/>
    <circle fill="#2E75FE" transform="matrix(1 0 0 -1 0 605)" cx="651.896" cy="302.5" r="5"/>
    <circle fill="#2E75FE" transform="matrix(1 0 0 -1 0 609)" cx="671.896" cy="304.5" r="5"/>
    <circle fill="#2E75FE" transform="matrix(1 0 0 -1 0 497)" cx="202.896" cy="248.5" r="5"/>
    <circle fill="#2E75FE" transform="matrix(1 0 0 -1 0 579)" cx="661.896" cy="289.5" r="5"/>
    <circle fill="#2E75FE" transform="matrix(1 0 0 -1 0 585)" cx="671.896" cy="292.5" r="5"/>
    <circle fill="#2E75FE" transform="matrix(1 0 0 -1 0 239)" cx="61.896" cy="119.5" r="5"/>
    <circle fill="#2E75FE" transform="matrix(1 0 0 -1 0 223)" cx="91.896" cy="111.5" r="5"/>
    <circle fill="#2E75FE" transform="matrix(1 0 0 -1 0 251)" cx="100.896" cy="125.5" r="5"/>
    <circle fill="#2E75FE" transform="matrix(1 0 0 -1 0 231)" cx="110.896" cy="115.5" r="5"/>
    <circle fill="#2E75FE" transform="matrix(1 0 0 -1 0 499)" cx="624.896" cy="249.5" r="5"/>
    <circle fill="#2E75FE" transform="matrix(1 0 0 -1 0 237)" cx="127.896" cy="118.5" r="5"/>
    <circle fill="#2E75FE" transform="matrix(1 0 0 -1 0 183)" cx="37.896" cy="91.5" r="5"/>
    <circle fill="#2E75FE" transform="matrix(1 0 0 -1 0 231)" cx="80.896" cy="115.5" r="5"/>
    <circle fill="#2E75FE" transform="matrix(1 0 0 -1 0 251)" cx="116.896" cy="125.5" r="5"/>
    <circle fill="#2E75FE" transform="matrix(1 0 0 -1 0 271)" cx="129.896" cy="135.5" r="5"/>
    <circle fill="#2E75FE" transform="matrix(1 0 0 -1 0 251)" cx="140.896" cy="125.5" r="5"/>
    <circle fill="#2E75FE" transform="matrix(1 0 0 -1 0 473)" cx="607.896" cy="236.5" r="5"/>
    <circle fill="#2E75FE" transform="matrix(1 0 0 -1 0 437)" cx="535.896" cy="218.5" r="5"/>
    <circle fill="#2E75FE" transform="matrix(1 0 0 -1 0 163)" cx="44.896" cy="81.5" r="5"/>
    <circle fill="#2E75FE" transform="matrix(1 0 0 -1 0 577)" cx="648.896" cy="288.5" r="5"/>
    <circle fill="#2E75FE" transform="matrix(1 0 0 -1 0 597)" cx="641.896" cy="298.5" r="5"/>
    <circle fill="#2E75FE" transform="matrix(1 0 0 -1 0 577)" cx="635.896" cy="288.5" r="5"/>
    <circle fill="#2E75FE" transform="matrix(1 0 0 -1 0 589)" cx="621.896" cy="294.5" r="5"/>
    <circle fill="#2E75FE" transform="matrix(1 0 0 -1 0 201)" cx="44.896" cy="100.5" r="5"/>
    <circle fill="#2E75FE" transform="matrix(1 0 0 -1 0 547)" cx="586.896" cy="273.5" r="5"/>
    <circle fill="#2E75FE" transform="matrix(1 0 0 -1 0 523)" cx="637.896" cy="261.5" r="5"/>
    <circle fill="#2E75FE" transform="matrix(1 0 0 -1 0 557)" cx="648.896" cy="278.5" r="5"/>
    <circle fill="#2E75FE" transform="matrix(1 0 0 -1 0 543)" cx="630.896" cy="271.5" r="5"/>
    <circle fill="#2E75FE" transform="matrix(1 0 0 -1 0 563)" cx="622.896" cy="281.5" r="5"/>
    <circle fill="#2E75FE" transform="matrix(1 0 0 -1 0 575)" cx="611.896" cy="287.5" r="5"/>
    <circle fill="#2E75FE" transform="matrix(1 0 0 -1 0 601)" cx="605.896" cy="300.5" r="5"/>
    <circle fill="#2E75FE" transform="matrix(1 0 0 -1 0 581)" cx="601.896" cy="290.5" r="5"/>
    <circle fill="#2E75FE" transform="matrix(1 0 0 -1 0 599)" cx="596.896" cy="299.5" r="5"/>
    <circle fill="#2E75FE" transform="matrix(1 0 0 -1 0 593)" cx="585.896" cy="296.5" r="5"/>
    <circle fill="#2E75FE" transform="matrix(1 0 0 -1 0 595)" cx="575.896" cy="297.5" r="5"/>
    <circle fill="#2E75FE" transform="matrix(1 0 0 -1 0 615)" cx="581.896" cy="307.5" r="5"/>
    <circle fill="#2E75FE" transform="matrix(1 0 0 -1 0 605)" cx="566.896" cy="302.5" r="5"/>
    <circle fill="#2E75FE" transform="matrix(1 0 0 -1 0 615)" cx="556.896" cy="307.5" r="5"/>
    <circle fill="#2E75FE" transform="matrix(1 0 0 -1 0 623)" cx="592.896" cy="311.5" r="5"/>
    <circle fill="#2E75FE" transform="matrix(1 0 0 -1 0 613)" cx="517.896" cy="306.5" r="5"/>
    <circle fill="#2E75FE" transform="matrix(1 0 0 -1 0 477)" cx="47.896" cy="238.5" r="5"/>
    <circle fill="#2E75FE" transform="matrix(1 0 0 -1 0 573)" cx="547.896" cy="286.5" r="5"/>
    <circle fill="#2E75FE" transform="matrix(1 0 0 -1 0 609)" cx="532.896" cy="304.5" r="5"/>
    <circle fill="#2E75FE" transform="matrix(1 0 0 -1 0 605)" cx="256.896" cy="302.5" r="5"/>
    <circle fill="#2E75FE" transform="matrix(1 0 0 -1 0 577)" cx="260.896" cy="288.5" r="5"/>
    <circle fill="#2E75FE" transform="matrix(1 0 0 -1 0 579)" cx="252.896" cy="289.5" r="5"/>
    <circle fill="#2E75FE" transform="matrix(1 0 0 -1 0 557)" cx="610.896" cy="278.5" r="5"/>
    <circle fill="#2E75FE" transform="matrix(1 0 0 -1 0 555)" cx="599.896" cy="277.5" r="5"/>
    <circle fill="#2E75FE" transform="matrix(1 0 0 -1 0 505)" cx="593.896" cy="252.5" r="5"/>
    <circle fill="#2E75FE" transform="matrix(1 0 0 -1 0 517)" cx="577.896" cy="258.5" r="5"/>
    <circle fill="#2E75FE" transform="matrix(1 0 0 -1 0 493)" cx="580.896" cy="246.5" r="5"/>
    <circle fill="#2E75FE" transform="matrix(1 0 0 -1 0 503)" cx="563.896" cy="251.5" r="5"/>
    <circle fill="#2E75FE" transform="matrix(1 0 0 -1 0 631)" cx="244.896" cy="315.5" r="5"/>
    <circle fill="#2E75FE" transform="matrix(1 0 0 -1 0 415)" cx="262.896" cy="207.5" r="5"/>
    <circle fill="#2E75FE" transform="matrix(1 0 0 -1 0 425)" cx="247.896" cy="212.5" r="5"/>
    <circle fill="#2E75FE" transform="matrix(1 0 0 -1 0 413)" cx="238.896" cy="206.5" r="5"/>
    <circle fill="#2E75FE" transform="matrix(1 0 0 -1 0 395)" cx="244.896" cy="197.5" r="5"/>
    <circle fill="#2E75FE" transform="matrix(1 0 0 -1 0 385)" cx="232.896" cy="192.5" r="5"/>
    <circle fill="#2E75FE" transform="matrix(1 0 0 -1 0 501)" cx="53.896" cy="250.5" r="5"/>
    <circle fill="#2E75FE" transform="matrix(1 0 0 -1 0 357)" cx="231.896" cy="178.5" r="5"/>
    <circle fill="#2E75FE" transform="matrix(1 0 0 -1 0 631)" cx="230.896" cy="315.5" r="5"/>
    <circle fill="#2E75FE" transform="matrix(1 0 0 -1 0 357)" cx="144.896" cy="178.5" r="5"/>
    <circle fill="#2E75FE" transform="matrix(1 0 0 -1 0 669)" cx="224.896" cy="334.5" r="5"/>
    <circle fill="#2E75FE" transform="matrix(1 0 0 -1 0 339)" cx="217.896" cy="169.5" r="5"/>
    <circle fill="#2E75FE" transform="matrix(1 0 0 -1 0 467)" cx="57.896" cy="233.5" r="5"/>
    <circle fill="#2E75FE" transform="matrix(1 0 0 -1 0 385)" cx="69.896" cy="192.5" r="5"/>
    <circle fill="#2E75FE" transform="matrix(1 0 0 -1 0 421)" cx="67.896" cy="210.5" r="5"/>
    <circle fill="#2E75FE" transform="matrix(1 0 0 -1 0 349)" cx="396.896" cy="174.5" r="5"/>
    <circle fill="#2E75FE" transform="matrix(1 0 0 -1 0 441)" cx="85.896" cy="220.5" r="5"/>
    <circle fill="#2E75FE" transform="matrix(1 0 0 -1 0 409)" cx="80.896" cy="204.5" r="5"/>
    <circle fill="#2E75FE" transform="matrix(1 0 0 -1 0 361)" cx="66.896" cy="180.5" r="5"/>
    <circle fill="#2E75FE" transform="matrix(1 0 0 -1 0 373)" cx="54.896" cy="186.5" r="5"/>
    <circle fill="#2E75FE" transform="matrix(1 0 0 -1 0 369)" cx="221.896" cy="184.5" r="5"/>
    <circle fill="#2E75FE" transform="matrix(1 0 0 -1 0 635)" cx="427.896" cy="317.5" r="5"/>
    <circle fill="#2E75FE" transform="matrix(1 0 0 -1 0 509)" cx="65.896" cy="254.5" r="5"/>
    <circle fill="#2E75FE" transform="matrix(1 0 0 -1 0 401)" cx="32.896" cy="200.5" r="5"/>
    <circle fill="#2E75FE" transform="matrix(1 0 0 -1 0 623)" cx="454.896" cy="311.5" r="5"/>
    <circle fill="#2E75FE" transform="matrix(1 0 0 -1 0 635)" cx="447.896" cy="317.5" r="5"/>
    <circle fill="#2E75FE" transform="matrix(1 0 0 -1 0 573)" cx="241.896" cy="286.5" r="5"/>
    <circle fill="#2E75FE" transform="matrix(1 0 0 -1 0 629)" cx="405.896" cy="314.5" r="5"/>
    <circle fill="#2E75FE" transform="matrix(1 0 0 -1 0 617)" cx="397.896" cy="308.5" r="5"/>
    <circle fill="#2E75FE" transform="matrix(1 0 0 -1 0 637)" cx="436.896" cy="318.5" r="5"/>
    <circle fill="#2E75FE" transform="matrix(1 0 0 -1 0 617)" cx="475.896" cy="308.5" r="5"/>
    <circle fill="#2E75FE" transform="matrix(1 0 0 -1 0 605)" cx="416.896" cy="302.5" r="5"/>
    <circle fill="#2E75FE" transform="matrix(1 0 0 -1 0 617)" cx="456.896" cy="308.5" r="5"/>
    <circle fill="#2E75FE" transform="matrix(1 0 0 -1 0 607)" cx="446.896" cy="303.5" r="5"/>
    <circle fill="#2E75FE" transform="matrix(1 0 0 -1 0 607)" cx="436.896" cy="303.5" r="5"/>
    <circle fill="#2E75FE" transform="matrix(1 0 0 -1 0 593)" cx="437.896" cy="296.5" r="5"/>
    <circle fill="#2E75FE" transform="matrix(1 0 0 -1 0 589)" cx="427.896" cy="294.5" r="5"/>
    <circle fill="#2E75FE" transform="matrix(1 0 0 -1 0 457)" cx="399.896" cy="228.5" r="5"/>
    <circle fill="#2E75FE" transform="matrix(1 0 0 -1 0 615)" cx="429.896" cy="307.5" r="5"/>
    <circle fill="#2E75FE" transform="matrix(1 0 0 -1 0 617)" cx="414.896" cy="308.5" r="5"/>
    <circle fill="#2E75FE" transform="matrix(1 0 0 -1 0 597)" cx="403.896" cy="298.5" r="5"/>
    <circle fill="#2E75FE" transform="matrix(1 0 0 -1 0 589)" cx="211.896" cy="294.5" r="5"/>
    <circle fill="#2E75FE" transform="matrix(1 0 0 -1 0 587)" cx="415.896" cy="293.5" r="5"/>
    <circle fill="#2E75FE" transform="matrix(1 0 0 -1 0 515)" cx="522.896" cy="257.5" r="5"/>
    <circle fill="#2E75FE" transform="matrix(1 0 0 -1 0 541)" cx="210.896" cy="270.5" r="5"/>
    <circle fill="#2E75FE" transform="matrix(1 0 0 -1 0 407)" cx="557.896" cy="203.5" r="5"/>
    <circle fill="#2E75FE" transform="matrix(1 0 0 -1 0 481)" cx="391.896" cy="240.5" r="5"/>
    <circle fill="#2E75FE" transform="matrix(1 0 0 -1 0 455)" cx="421.896" cy="227.5" r="5"/>
    <circle fill="#2E75FE" transform="matrix(1 0 0 -1 0 465)" cx="411.896" cy="232.5" r="5"/>
    <circle fill="#2E75FE" transform="matrix(1 0 0 -1 0 445)" cx="413.896" cy="222.5" r="5"/>
    <circle fill="#2E75FE" transform="matrix(1 0 0 -1 0 417)" cx="412.896" cy="208.5" r="5"/>
    <circle fill="#2E75FE" transform="matrix(1 0 0 -1 0 449)" cx="212.896" cy="224.5" r="5"/>
    <circle fill="#2E75FE" transform="matrix(1 0 0 -1 0 423)" cx="212.896" cy="211.5" r="5"/>
    <circle fill="#2E75FE" transform="matrix(1 0 0 -1 0 433)" cx="198.896" cy="216.5" r="5"/>
    <circle fill="#2E75FE" transform="matrix(1 0 0 -1 0 475)" cx="430.896" cy="237.5" r="5"/>
    <circle fill="#2E75FE" transform="matrix(1 0 0 -1 0 465)" cx="477.896" cy="232.5" r="5"/>
    <circle fill="#2E75FE" transform="matrix(1 0 0 -1 0 467)" cx="490.896" cy="233.5" r="5"/>
    <circle fill="#2E75FE" transform="matrix(1 0 0 -1 0 445)" cx="490.896" cy="222.5" r="5"/>
    <circle fill="#2E75FE" transform="matrix(1 0 0 -1 0 435)" cx="502.896" cy="217.5" r="5"/>
    <circle fill="#2E75FE" transform="matrix(1 0 0 -1 0 497)" cx="458.896" cy="248.5" r="5"/>
    <circle fill="#2E75FE" transform="matrix(1 0 0 -1 0 499)" cx="436.896" cy="249.5" r="5"/>
    <circle fill="#2E75FE" transform="matrix(1 0 0 -1 0 499)" cx="419.896" cy="249.5" r="5"/>
    <circle fill="#2E75FE" transform="matrix(1 0 0 -1 0 479)" cx="405.896" cy="239.5" r="5"/>
    <circle fill="#2E75FE" transform="matrix(1 0 0 -1 0 483)" cx="418.896" cy="241.5" r="5"/>
    <circle fill="#2E75FE" transform="matrix(1 0 0 -1 0 473)" cx="454.896" cy="236.5" r="5"/>
    <circle fill="#2E75FE" transform="matrix(1 0 0 -1 0 455)" cx="458.896" cy="227.5" r="5"/>
    <circle fill="#2E75FE" transform="matrix(1 0 0 -1 0 457)" cx="444.896" cy="228.5" r="5"/>
    <circle fill="#2E75FE" transform="matrix(1 0 0 -1 0 473)" cx="436.896" cy="236.5" r="5"/>
    <circle fill="#2E75FE" transform="matrix(1 0 0 -1 0 439)" cx="436.896" cy="219.5" r="5"/>
    <circle fill="#2E75FE" transform="matrix(1 0 0 -1 0 431)" cx="427.896" cy="215.5" r="5"/>
    <circle fill="#2E75FE" transform="matrix(1 0 0 -1 0 403)" cx="432.896" cy="201.5" r="5"/>
    <circle fill="#2E75FE" transform="matrix(1 0 0 -1 0 371)" cx="435.896" cy="185.5" r="5"/>
    <circle fill="#2E75FE" transform="matrix(1 0 0 -1 0 357)" cx="439.896" cy="178.5" r="5"/>
    <circle fill="#2E75FE" transform="matrix(1 0 0 -1 0 339)" cx="440.896" cy="169.5" r="5"/>
    <circle fill="#2E75FE" transform="matrix(1 0 0 -1 0 317)" cx="430.896" cy="158.5" r="5"/>
    <circle fill="#2E75FE" transform="matrix(1 0 0 -1 0 299)" cx="443.896" cy="149.5" r="5"/>
    <circle fill="#2E75FE" transform="matrix(1 0 0 -1 0 281)" cx="448.896" cy="140.5" r="5"/>
    <circle fill="#2E75FE" transform="matrix(1 0 0 -1 0 275)" cx="459.896" cy="137.5" r="5"/>
    <circle fill="#2E75FE" transform="matrix(1 0 0 -1 0 335)" cx="454.896" cy="167.5" r="5"/>
    <circle fill="#2E75FE" transform="matrix(1 0 0 -1 0 315)" cx="455.896" cy="157.5" r="5"/>
    <circle fill="#2E75FE" transform="matrix(1 0 0 -1 0 295)" cx="454.896" cy="147.5" r="5"/>
    <circle fill="#2E75FE" transform="matrix(1 0 0 -1 0 341)" cx="468.896" cy="170.5" r="5"/>
    <circle fill="#2E75FE" transform="matrix(1 0 0 -1 0 325)" cx="482.896" cy="162.5" r="5"/>
    <circle fill="#2E75FE" transform="matrix(1 0 0 -1 0 303)" cx="477.896" cy="151.5" r="5"/>
    <circle fill="#2E75FE" transform="matrix(1 0 0 -1 0 291)" cx="487.896" cy="145.5" r="5"/>
    <circle fill="#2E75FE" transform="matrix(1 0 0 -1 0 305)" cx="492.896" cy="152.5" r="5"/>
    <circle fill="#2E75FE" transform="matrix(1 0 0 -1 0 301)" cx="466.896" cy="150.5" r="5"/>
    <circle fill="#2E75FE" transform="matrix(1 0 0 -1 0 271)" cx="474.896" cy="135.5" r="5"/>
    <circle fill="#2E75FE" transform="matrix(1 0 0 -1 0 359)" cx="458.896" cy="179.5" r="5"/>
    <circle fill="#2E75FE" transform="matrix(1 0 0 -1 0 347)" cx="476.896" cy="173.5" r="5"/>
    <circle fill="#2E75FE" transform="matrix(1 0 0 -1 0 331)" cx="494.896" cy="165.5" r="5"/>
    <circle fill="#2E75FE" transform="matrix(1 0 0 -1 0 307)" cx="502.896" cy="153.5" r="5"/>
    <circle fill="#2E75FE" transform="matrix(1 0 0 -1 0 285)" cx="506.896" cy="142.5" r="5"/>
    <circle fill="#2E75FE" transform="matrix(1 0 0 -1 0 359)" cx="489.896" cy="179.5" r="5"/>
    <circle fill="#2E75FE" transform="matrix(1 0 0 -1 0 323)" cx="510.896" cy="161.5" r="5"/>
    <circle fill="#2E75FE" transform="matrix(1 0 0 -1 0 431)" cx="445.896" cy="215.5" r="5"/>
    <circle fill="#2E75FE" transform="matrix(1 0 0 -1 0 401)" cx="446.896" cy="200.5" r="5"/>
    <circle fill="#2E75FE" transform="matrix(1 0 0 -1 0 447)" cx="464.896" cy="223.5" r="5"/>
    <circle fill="#2E75FE" transform="matrix(1 0 0 -1 0 419)" cx="459.896" cy="209.5" r="5"/>
    <circle fill="#2E75FE" transform="matrix(1 0 0 -1 0 401)" cx="469.896" cy="200.5" r="5"/>
    <circle fill="#2E75FE" transform="matrix(1 0 0 -1 0 381)" cx="472.896" cy="190.5" r="5"/>
    <circle fill="#2E75FE" transform="matrix(1 0 0 -1 0 381)" cx="483.896" cy="190.5" r="5"/>
    <circle fill="#2E75FE" transform="matrix(1 0 0 -1 0 429)" cx="473.896" cy="214.5" r="5"/>
    <circle fill="#2E75FE" transform="matrix(1 0 0 -1 0 411)" cx="485.896" cy="205.5" r="5"/>
    <circle fill="#2E75FE" transform="matrix(1 0 0 -1 0 419)" cx="491.896" cy="209.5" r="5"/>
    <circle fill="#2E75FE" transform="matrix(1 0 0 -1 0 391)" cx="496.896" cy="195.5" r="5"/>
    <circle fill="#2E75FE" transform="matrix(1 0 0 -1 0 407)" cx="502.896" cy="203.5" r="5"/>
    <circle fill="#2E75FE" transform="matrix(1 0 0 -1 0 377)" cx="506.896" cy="188.5" r="5"/>
    <circle fill="#2E75FE" transform="matrix(1 0 0 -1 0 349)" cx="505.896" cy="174.5" r="5"/>
    <circle fill="#2E75FE" transform="matrix(1 0 0 -1 0 515)" cx="407.896" cy="257.5" r="5"/>
    <circle fill="#2E75FE" transform="matrix(1 0 0 -1 0 513)" cx="208.896" cy="256.5" r="5"/>
    <circle fill="#2E75FE" transform="matrix(1 0 0 -1 0 481)" cx="206.896" cy="240.5" r="5"/>
    <circle fill="#2E75FE" transform="matrix(1 0 0 -1 0 453)" cx="199.896" cy="226.5" r="5"/>
    <circle fill="#2E75FE" transform="matrix(1 0 0 -1 0 543)" cx="182.896" cy="271.5" r="5"/>
    <circle fill="#2E75FE" transform="matrix(1 0 0 -1 0 503)" cx="175.896" cy="251.5" r="5"/>
    <circle fill="#2E75FE" transform="matrix(1 0 0 -1 0 481)" cx="179.896" cy="240.5" r="5"/>
    <circle fill="#2E75FE" transform="matrix(1 0 0 -1 0 449)" cx="174.896" cy="224.5" r="5"/>
    <circle fill="#2E75FE" transform="matrix(1 0 0 -1 0 433)" cx="179.896" cy="216.5" r="5"/>
    <circle fill="#2E75FE" transform="matrix(1 0 0 -1 0 413)" cx="179.896" cy="206.5" r="5"/>
    <circle fill="#2E75FE" transform="matrix(1 0 0 -1 0 361)" cx="191.896" cy="180.5" r="5"/>
    <circle fill="#2E75FE" transform="matrix(1 0 0 -1 0 289)" cx="179.896" cy="144.5" r="5"/>
    <circle fill="#2E75FE" transform="matrix(1 0 0 -1 0 269)" cx="251.896" cy="134.5" r="5"/>
    <circle fill="#2E75FE" transform="matrix(1 0 0 -1 0 247)" cx="267.896" cy="123.5" r="5"/>
    <circle fill="#2E75FE" transform="matrix(1 0 0 -1 0 239)" cx="240.896" cy="119.5" r="5"/>
    <circle fill="#2E75FE" transform="matrix(1 0 0 -1 0 379)" cx="196.896" cy="189.5" r="5"/>
    <circle fill="#2E75FE" transform="matrix(1 0 0 -1 0 341)" cx="201.896" cy="170.5" r="5"/>
    <circle fill="#2E75FE" transform="matrix(1 0 0 -1 0 253)" cx="191.896" cy="126.5" r="5"/>
    <circle fill="#2E75FE" transform="matrix(1 0 0 -1 0 317)" cx="395.896" cy="158.5" r="5"/>
    <circle fill="#2E75FE" transform="matrix(1 0 0 -1 0 305)" cx="405.896" cy="152.5" r="5"/>
    <circle fill="#2E75FE" transform="matrix(1 0 0 -1 0 343)" cx="181.896" cy="171.5" r="5"/>
    <circle fill="#2E75FE" transform="matrix(1 0 0 -1 0 521)" cx="171.896" cy="260.5" r="5"/>
    <circle fill="#2E75FE" transform="matrix(1 0 0 -1 0 523)" cx="197.896" cy="261.5" r="5"/>
    <circle fill="#2E75FE" transform="matrix(1 0 0 -1 0 507)" cx="189.896" cy="253.5" r="5"/>
    <circle fill="#2E75FE" transform="matrix(1 0 0 -1 0 477)" cx="193.896" cy="238.5" r="5"/>
    <circle fill="#2E75FE" transform="matrix(1 0 0 -1 0 453)" cx="188.896" cy="226.5" r="5"/>
    <circle fill="#2E75FE" transform="matrix(1 0 0 -1 0 601)" cx="471.896" cy="300.5" r="5"/>
    <circle fill="#2E75FE" transform="matrix(1 0 0 -1 0 579)" cx="474.896" cy="289.5" r="5"/>
    <circle fill="#2E75FE" transform="matrix(1 0 0 -1 0 551)" cx="479.896" cy="275.5" r="5"/>
    <circle fill="#2E75FE" transform="matrix(1 0 0 -1 0 491)" cx="511.896" cy="245.5" r="5"/>
    <circle fill="#2E75FE" transform="matrix(1 0 0 -1 0 471)" cx="505.896" cy="235.5" r="5"/>
    <circle fill="#2E75FE" transform="matrix(1 0 0 -1 0 479)" cx="475.896" cy="239.5" r="5"/>
    <circle fill="#2E75FE" transform="matrix(1 0 0 -1 0 477)" cx="517.896" cy="238.5" r="5"/>
    <circle fill="#2E75FE" transform="matrix(1 0 0 -1 0 493)" cx="485.896" cy="246.5" r="5"/>
    <circle fill="#2E75FE" transform="matrix(1 0 0 -1 0 453)" cx="503.896" cy="226.5" r="5"/>
    <circle fill="#2E75FE" transform="matrix(1 0 0 -1 0 497)" cx="523.896" cy="248.5" r="5"/>
    <circle fill="#2E75FE" transform="matrix(1 0 0 -1 0 487)" cx="529.896" cy="243.5" r="5"/>
    <circle fill="#2E75FE" transform="matrix(1 0 0 -1 0 483)" cx="539.896" cy="241.5" r="5"/>
    <circle fill="#2E75FE" transform="matrix(1 0 0 -1 0 595)" cx="463.896" cy="297.5" r="5"/>
    <circle fill="#2E75FE" transform="matrix(1 0 0 -1 0 567)" cx="461.896" cy="283.5" r="5"/>
    <circle fill="#2E75FE" transform="matrix(1 0 0 -1 0 475)" cx="635.896" cy="237.5" r="5"/>
    <circle fill="#2E75FE" transform="matrix(1 0 0 -1 0 497)" cx="497.896" cy="248.5" r="5"/>
    <circle fill="#2E75FE" transform="matrix(1 0 0 -1 0 571)" cx="454.896" cy="285.5" r="5"/>
    <circle fill="#2E75FE" transform="matrix(1 0 0 -1 0 587)" cx="454.896" cy="293.5" r="5"/>
    <circle fill="#2E75FE" transform="matrix(1 0 0 -1 0 521)" cx="534.896" cy="260.5" r="5"/>
    <circle fill="#2E75FE" transform="matrix(1 0 0 -1 0 429)" cx="400.896" cy="214.5" r="5"/>
    <circle fill="#2E75FE" transform="matrix(1 0 0 -1 0 517)" cx="428.896" cy="258.5" r="5"/>
    <circle fill="#2E75FE" transform="matrix(1 0 0 -1 0 521)" cx="447.896" cy="260.5" r="5"/>
    <circle fill="#2E75FE" transform="matrix(1 0 0 -1 0 497)" cx="448.896" cy="248.5" r="5"/>
    <circle fill="#2E75FE" transform="matrix(1 0 0 -1 0 577)" cx="437.896" cy="288.5" r="5"/>
    <circle fill="#2E75FE" transform="matrix(1 0 0 -1 0 515)" cx="510.896" cy="257.5" r="5"/>
    <circle fill="#2E75FE" transform="matrix(1 0 0 -1 0 489)" cx="553.896" cy="244.5" r="5"/>
    <circle fill="#2E75FE" transform="matrix(1 0 0 -1 0 489)" cx="567.896" cy="244.5" r="5"/>
    <circle fill="#2E75FE" transform="matrix(1 0 0 -1 0 475)" cx="557.896" cy="237.5" r="5"/>
    <circle fill="#2E75FE" transform="matrix(1 0 0 -1 0 391)" cx="266.896" cy="195.5" r="5"/>
    <circle fill="#2E75FE" transform="matrix(1 0 0 -1 0 573)" cx="591.896" cy="286.5" r="5"/>
    <circle fill="#2E75FE" transform="matrix(1 0 0 -1 0 391)" cx="457.896" cy="195.5" r="5"/>
    <circle fill="#2E75FE" transform="matrix(1 0 0 -1 0 533)" cx="582.896" cy="266.5" r="5"/>
    <circle fill="#2E75FE" transform="matrix(1 0 0 -1 0 567)" cx="581.896" cy="283.5" r="5"/>
    <circle fill="#2E75FE" transform="matrix(1 0 0 -1 0 573)" cx="567.896" cy="286.5" r="5"/>
    <circle fill="#2E75FE" transform="matrix(1 0 0 -1 0 549)" cx="557.896" cy="274.5" r="5"/>
    <circle fill="#2E75FE" transform="matrix(1 0 0 -1 0 503)" cx="271.896" cy="251.5" r="5"/>
    <circle fill="#2E75FE" transform="matrix(1 0 0 -1 0 459)" cx="268.896" cy="229.5" r="5"/>
    <circle fill="#2E75FE" transform="matrix(1 0 0 -1 0 447)" cx="261.896" cy="223.5" r="5"/>
    <circle fill="#2E75FE" transform="matrix(1 0 0 -1 0 455)" cx="254.896" cy="227.5" r="5"/>
    <circle fill="#2E75FE" transform="matrix(1 0 0 -1 0 481)" cx="223.896" cy="240.5" r="5"/>
    <circle fill="#2E75FE" transform="matrix(1 0 0 -1 0 467)" cx="245.896" cy="233.5" r="5"/>
    <circle fill="#2E75FE" transform="matrix(1 0 0 -1 0 445)" cx="238.896" cy="222.5" r="5"/>
    <circle fill="#2E75FE" transform="matrix(1 0 0 -1 0 545)" cx="55.896" cy="272.5" r="5"/>
    <circle fill="#2E75FE" transform="matrix(1 0 0 -1 0 527)" cx="56.896" cy="263.5" r="5"/>
    <circle fill="#2E75FE" transform="matrix(1 0 0 -1 0 483)" cx="123.896" cy="241.5" r="5"/>
    <circle fill="#2E75FE" transform="matrix(1 0 0 -1 0 299)" cx="50.896" cy="149.5" r="5"/>
    <circle fill="#2E75FE" transform="matrix(1 0 0 -1 0 475)" cx="237.896" cy="237.5" r="5"/>
    <circle fill="#2E75FE" transform="matrix(1 0 0 -1 0 417)" cx="367.896" cy="208.5" r="5"/>
    <circle fill="#2E75FE" transform="matrix(1 0 0 -1 0 435)" cx="375.896" cy="217.5" r="5"/>
    <circle fill="#2E75FE" transform="matrix(1 0 0 -1 0 611)" cx="242.896" cy="305.5" r="5"/>
    <circle fill="#2E75FE" transform="matrix(1 0 0 -1 0 327)" cx="190.896" cy="163.5" r="5"/>
    <circle fill="#2E75FE" transform="matrix(1 0 0 -1 0 651)" cx="234.896" cy="325.5" r="5"/>
    <circle fill="#2E75FE" transform="matrix(1 0 0 -1 0 403)" cx="127.896" cy="201.5" r="5"/>
    <circle fill="#2E75FE" transform="matrix(1 0 0 -1 0 267)" cx="94.896" cy="133.5" r="5"/>
    <circle fill="#2E75FE" transform="matrix(1 0 0 -1 0 461)" cx="226.896" cy="230.5" r="5"/>
    <circle fill="#2E75FE" transform="matrix(1 0 0 -1 0 517)" cx="622.896" cy="258.5" r="5"/>
    <circle fill="#2E75FE" transform="matrix(1 0 0 -1 0 275)" cx="431.896" cy="137.5" r="5"/>
    <circle fill="#2E75FE" transform="matrix(1 0 0 -1 0 361)" cx="99.896" cy="180.5" r="5"/>
    <circle fill="#2E75FE" transform="matrix(1 0 0 -1 0 337)" cx="170.896" cy="168.5" r="5"/>
    <circle fill="#2E75FE" transform="matrix(1 0 0 -1 0 559)" cx="65.896" cy="279.5" r="5"/>
    <circle fill="#2E75FE" transform="matrix(1 0 0 -1 0 549)" cx="75.896" cy="274.5" r="5"/>
    <circle fill="#2E75FE" transform="matrix(1 0 0 -1 0 607)" cx="230.896" cy="303.5" r="5"/>
    <circle fill="#2E75FE" transform="matrix(1 0 0 -1 0 223)" cx="71.896" cy="111.5" r="5"/>
    <circle fill="#2E75FE" transform="matrix(1 0 0 -1 0 715)" cx="219.896" cy="357.5" r="5"/>
    <circle fill="#2E75FE" transform="matrix(1 0 0 -1 0 603)" cx="120.896" cy="301.5" r="5"/>
    <circle fill="#2E75FE" transform="matrix(1 0 0 -1 0 509)" cx="123.896" cy="254.5" r="5"/>
    <circle fill="#2E75FE" transform="matrix(1 0 0 -1 0 371)" cx="125.896" cy="185.5" r="5"/>
    <circle fill="#2E75FE" transform="matrix(1 0 0 -1 0 763)" cx="207.896" cy="381.5" r="5"/>
    <circle fill="#2E75FE" transform="matrix(1 0 0 -1 0 533)" cx="218.896" cy="266.5" r="5"/>
    <circle fill="#2E75FE" transform="matrix(1 0 0 -1 0 339)" cx="228.896" cy="169.5" r="5"/>
    <circle fill="#2E75FE" transform="matrix(1 0 0 -1 0 711)" cx="226.896" cy="355.5" r="5"/>
    <circle fill="#2E75FE" transform="matrix(1 0 0 -1 0 505)" cx="18.896" cy="252.5" r="5"/>
    <circle fill="#2E75FE" transform="matrix(1 0 0 -1 0 753)" cx="215.896" cy="376.5" r="5"/>
    <circle fill="#2E75FE" transform="matrix(1 0 0 -1 0 375)" cx="371.896" cy="187.5" r="5"/>
    <circle fill="#2E75FE" transform="matrix(1 0 0 -1 0 427)" cx="120.896" cy="213.5" r="5"/>
    <circle fill="#2E75FE" transform="matrix(1 0 0 -1 0 627)" cx="127.896" cy="313.5" r="5"/>
    <circle fill="#2E75FE" transform="matrix(1 0 0 -1 0 341)" cx="387.896" cy="170.5" r="5"/>
    <circle fill="#2E75FE" transform="matrix(1 0 0 -1 0 429)" cx="229.896" cy="214.5" r="5"/>
    <circle fill="#2E75FE" transform="matrix(1 0 0 -1 0 607)" cx="221.896" cy="303.5" r="5"/>
    <circle fill="#2E75FE" transform="matrix(1 0 0 -1 0 635)" cx="218.896" cy="317.5" r="5"/>
    <circle fill="#2E75FE" transform="matrix(1 0 0 -1 0 307)" cx="249.896" cy="153.5" r="5"/>
    <circle fill="#2E75FE" transform="matrix(1 0 0 -1 0 575)" cx="129.896" cy="287.5" r="5"/>
    <circle fill="#2E75FE" transform="matrix(1 0 0 -1 0 577)" cx="221.896" cy="288.5" r="5"/>
    <circle fill="#2E75FE" transform="matrix(1 0 0 -1 0 365)" cx="174.896" cy="182.5" r="5"/>
    <circle fill="#2E75FE" transform="matrix(1 0 0 -1 0 455)" cx="129.896" cy="227.5" r="5"/>
    <circle fill="#2E75FE" transform="matrix(1 0 0 -1 0 731)" cx="209.896" cy="365.5" r="5"/>
    <circle fill="#2E75FE" transform="matrix(1 0 0 -1 0 753)" cx="192.896" cy="376.5" r="5"/>
    <circle fill="#2E75FE" transform="matrix(1 0 0 -1 0 713)" cx="202.896" cy="356.5" r="5"/>
    <circle fill="#2E75FE" transform="matrix(1 0 0 -1 0 697)" cx="189.896" cy="348.5" r="5"/>
    <circle fill="#2E75FE" transform="matrix(1 0 0 -1 0 695)" cx="211.896" cy="347.5" r="5"/>
    <circle fill="#2E75FE" transform="matrix(1 0 0 -1 0 683)" cx="199.896" cy="341.5" r="5"/>
    <circle fill="#2E75FE" transform="matrix(1 0 0 -1 0 653)" cx="189.896" cy="326.5" r="5"/>
    <circle fill="#2E75FE" transform="matrix(1 0 0 -1 0 631)" cx="194.896" cy="315.5" r="5"/>
    <circle fill="#2E75FE" transform="matrix(1 0 0 -1 0 617)" cx="184.896" cy="308.5" r="5"/>
    <circle fill="#2E75FE" transform="matrix(1 0 0 -1 0 615)" cx="174.896" cy="307.5" r="5"/>
    <circle fill="#2E75FE" transform="matrix(1 0 0 -1 0 585)" cx="178.896" cy="292.5" r="5"/>
    <circle fill="#2E75FE" transform="matrix(1 0 0 -1 0 521)" cx="39.896" cy="260.5" r="5"/>
    <circle fill="#2E75FE" transform="matrix(1 0 0 -1 0 665)" cx="209.896" cy="332.5" r="5"/>
    <circle fill="#2E75FE" transform="matrix(1 0 0 -1 0 653)" cx="199.896" cy="326.5" r="5"/>
    <circle fill="#2E75FE" transform="matrix(1 0 0 -1 0 595)" cx="390.896" cy="297.5" r="5"/>
    <circle fill="#2E75FE" transform="matrix(1 0 0 -1 0 617)" cx="210.896" cy="308.5" r="5"/>
    <circle fill="#2E75FE" transform="matrix(1 0 0 -1 0 607)" cx="200.896" cy="303.5" r="5"/>
    <circle fill="#2E75FE" transform="matrix(1 0 0 -1 0 591)" cx="193.896" cy="295.5" r="5"/>
    <circle fill="#2E75FE" transform="matrix(1 0 0 -1 0 557)" cx="189.896" cy="278.5" r="5"/>
    <circle fill="#2E75FE" transform="matrix(1 0 0 -1 0 563)" cx="178.896" cy="281.5" r="5"/>
    <circle fill="#2E75FE" transform="matrix(1 0 0 -1 0 553)" cx="200.896" cy="276.5" r="5"/>
    <circle fill="#2E75FE" transform="matrix(1 0 0 -1 0 579)" cx="204.896" cy="289.5" r="5"/>
    <circle fill="#2E75FE" transform="matrix(1 0 0 -1 0 461)" cx="546.896" cy="230.5" r="5"/>
    <circle fill="#2E75FE" transform="matrix(1 0 0 -1 0 651)" cx="394.896" cy="325.5" r="5"/>
    <circle fill="#2E75FE" transform="matrix(1 0 0 -1 0 743)" cx="198.896" cy="371.5" r="5"/>
    <circle fill="#2E75FE" transform="matrix(1 0 0 -1 0 723)" cx="192.896" cy="361.5" r="5"/>
    <circle fill="#2E75FE" transform="matrix(1 0 0 -1 0 695)" cx="178.896" cy="347.5" r="5"/>
    <circle fill="#2E75FE" transform="matrix(1 0 0 -1 0 679)" cx="165.896" cy="339.5" r="5"/>
    <circle fill="#2E75FE" transform="matrix(1 0 0 -1 0 663)" cx="155.896" cy="331.5" r="5"/>
    <circle fill="#2E75FE" transform="matrix(1 0 0 -1 0 645)" cx="156.896" cy="322.5" r="5"/>
    <circle fill="#2E75FE" transform="matrix(1 0 0 -1 0 621)" cx="150.896" cy="310.5" r="5"/>
    <circle fill="#2E75FE" transform="matrix(1 0 0 -1 0 595)" cx="147.896" cy="297.5" r="5"/>
    <circle fill="#2E75FE" transform="matrix(1 0 0 -1 0 635)" cx="139.896" cy="317.5" r="5"/>
    <circle fill="#2E75FE" transform="matrix(1 0 0 -1 0 609)" cx="110.896" cy="304.5" r="5"/>
    <circle fill="#2E75FE" transform="matrix(1 0 0 -1 0 585)" cx="99.896" cy="292.5" r="5"/>
    <circle fill="#2E75FE" transform="matrix(1 0 0 -1 0 545)" cx="96.896" cy="272.5" r="5"/>
    <circle fill="#2E75FE" transform="matrix(1 0 0 -1 0 573)" cx="83.896" cy="286.5" r="5"/>
    <circle fill="#2E75FE" transform="matrix(1 0 0 -1 0 505)" cx="97.896" cy="252.5" r="5"/>
    <circle fill="#2E75FE" transform="matrix(1 0 0 -1 0 541)" cx="89.896" cy="270.5" r="5"/>
    <circle fill="#2E75FE" transform="matrix(1 0 0 -1 0 527)" cx="85.896" cy="263.5" r="5"/>
    <circle fill="#2E75FE" transform="matrix(1 0 0 -1 0 495)" cx="87.896" cy="247.5" r="5"/>
    <circle fill="#2E75FE" transform="matrix(1 0 0 -1 0 495)" cx="77.896" cy="247.5" r="5"/>
    <circle fill="#2E75FE" transform="matrix(1 0 0 -1 0 473)" cx="97.896" cy="236.5" r="5"/>
    <circle fill="#2E75FE" transform="matrix(1 0 0 -1 0 467)" cx="82.896" cy="233.5" r="5"/>
    <circle fill="#2E75FE" transform="matrix(1 0 0 -1 0 603)" cx="136.896" cy="301.5" r="5"/>
    <circle fill="#2E75FE" transform="matrix(1 0 0 -1 0 571)" cx="114.896" cy="285.5" r="5"/>
    <circle fill="#2E75FE" transform="matrix(1 0 0 -1 0 531)" cx="111.896" cy="265.5" r="5"/>
    <circle fill="#2E75FE" transform="matrix(1 0 0 -1 0 559)" cx="106.896" cy="279.5" r="5"/>
    <circle fill="#2E75FE" transform="matrix(1 0 0 -1 0 505)" cx="109.896" cy="252.5" r="5"/>
    <circle fill="#2E75FE" transform="matrix(1 0 0 -1 0 519)" cx="138.896" cy="259.5" r="5"/>
    <circle fill="#2E75FE" transform="matrix(1 0 0 -1 0 523)" cx="99.896" cy="261.5" r="5"/>
    <circle fill="#2E75FE" transform="matrix(1 0 0 -1 0 493)" cx="136.896" cy="246.5" r="5"/>
    <circle fill="#2E75FE" transform="matrix(1 0 0 -1 0 481)" cx="108.896" cy="240.5" r="5"/>
    <circle fill="#2E75FE" transform="matrix(1 0 0 -1 0 437)" cx="37.896" cy="218.5" r="5"/>
    <circle fill="#2E75FE" transform="matrix(1 0 0 -1 0 679)" cx="187.896" cy="339.5" r="5"/>
    <circle fill="#2E75FE" transform="matrix(1 0 0 -1 0 673)" cx="175.896" cy="336.5" r="5"/>
    <circle fill="#2E75FE" transform="matrix(1 0 0 -1 0 649)" cx="167.896" cy="324.5" r="5"/>
    <circle fill="#2E75FE" transform="matrix(1 0 0 -1 0 647)" cx="176.896" cy="323.5" r="5"/>
    <circle fill="#2E75FE" transform="matrix(1 0 0 -1 0 635)" cx="167.896" cy="317.5" r="5"/>
    <circle fill="#2E75FE" transform="matrix(1 0 0 -1 0 593)" cx="160.896" cy="296.5" r="5"/>
    <circle fill="#2E75FE" transform="matrix(1 0 0 -1 0 579)" cx="151.896" cy="289.5" r="5"/>
    <circle fill="#2E75FE" transform="matrix(1 0 0 -1 0 551)" cx="145.896" cy="275.5" r="5"/>
    <circle fill="#2E75FE" transform="matrix(1 0 0 -1 0 523)" cx="141.896" cy="261.5" r="5"/>
    <circle fill="#2E75FE" transform="matrix(1 0 0 -1 0 549)" cx="136.896" cy="274.5" r="5"/>
    <circle fill="#2E75FE" transform="matrix(1 0 0 -1 0 471)" cx="142.896" cy="235.5" r="5"/>
    <circle fill="#2E75FE" transform="matrix(1 0 0 -1 0 449)" cx="116.896" cy="224.5" r="5"/>
    <circle fill="#2E75FE" transform="matrix(1 0 0 -1 0 427)" cx="102.896" cy="213.5" r="5"/>
    <circle fill="#2E75FE" transform="matrix(1 0 0 -1 0 453)" cx="98.896" cy="226.5" r="5"/>
    <circle fill="#2E75FE" transform="matrix(1 0 0 -1 0 481)" cx="151.896" cy="240.5" r="5"/>
    <circle fill="#2E75FE" transform="matrix(1 0 0 -1 0 453)" cx="154.896" cy="226.5" r="5"/>
    <circle fill="#2E75FE" transform="matrix(1 0 0 -1 0 511)" cx="151.896" cy="255.5" r="5"/>
    <circle fill="#2E75FE" transform="matrix(1 0 0 -1 0 539)" cx="154.896" cy="269.5" r="5"/>
    <circle fill="#2E75FE" transform="matrix(1 0 0 -1 0 567)" cx="164.896" cy="283.5" r="5"/>
    <circle fill="#2E75FE" transform="matrix(1 0 0 -1 0 591)" cx="173.896" cy="295.5" r="5"/>
    <circle fill="#2E75FE" transform="matrix(1 0 0 -1 0 541)" cx="165.896" cy="270.5" r="5"/>
    <circle fill="#2E75FE" transform="matrix(1 0 0 -1 0 515)" cx="163.896" cy="257.5" r="5"/>
    <circle fill="#2E75FE" transform="matrix(1 0 0 -1 0 481)" cx="168.896" cy="240.5" r="5"/>
    <circle fill="#2E75FE" transform="matrix(1 0 0 -1 0 453)" cx="164.896" cy="226.5" r="5"/>
    <circle fill="#2E75FE" transform="matrix(1 0 0 -1 0 421)" cx="163.896" cy="210.5" r="5"/>
    <circle fill="#2E75FE" transform="matrix(1 0 0 -1 0 429)" cx="149.896" cy="214.5" r="5"/>
    <circle fill="#2E75FE" transform="matrix(1 0 0 -1 0 395)" cx="168.896" cy="197.5" r="5"/>
    <circle fill="#2E75FE" transform="matrix(1 0 0 -1 0 377)" cx="159.896" cy="188.5" r="5"/>
    <circle fill="#2E75FE" transform="matrix(1 0 0 -1 0 329)" cx="144.896" cy="164.5" r="5"/>
    <circle fill="#2E75FE" transform="matrix(1 0 0 -1 0 309)" cx="225.896" cy="154.5" r="5"/>
    <circle fill="#2E75FE" transform="matrix(1 0 0 -1 0 293)" cx="234.896" cy="146.5" r="5"/>
    <circle fill="#2E75FE" transform="matrix(1 0 0 -1 0 227)" cx="252.896" cy="113.5" r="5"/>
    <circle fill="#2E75FE" transform="matrix(1 0 0 -1 0 723)" cx="179.896" cy="361.5" r="5"/>
    <circle fill="#2E75FE" transform="matrix(1 0 0 -1 0 713)" cx="166.896" cy="356.5" r="5"/>
    <circle fill="#2E75FE" transform="matrix(1 0 0 -1 0 693)" cx="155.896" cy="346.5" r="5"/>
    <circle fill="#2E75FE" transform="matrix(1 0 0 -1 0 423)" cx="23.896" cy="211.5" r="5"/>
    <circle fill="#2E75FE" transform="matrix(1 0 0 -1 0 457)" cx="10.896" cy="228.5" r="5"/>
    <circle fill="#2E75FE" transform="matrix(1 0 0 -1 0 195)" cx="59.896" cy="97.5" r="5"/>
    <circle fill="#2E75FE" transform="matrix(1 0 0 -1 0 429)" cx="9.896" cy="214.5" r="5"/>
    <circle fill="#2E75FE" transform="matrix(1 0 0 -1 0 195)" cx="88.896" cy="97.5" r="5"/>
    <circle fill="#2E75FE" transform="matrix(1 0 0 -1 0 407)" cx="15.896" cy="203.5" r="5"/>
    <circle fill="#2E75FE" transform="matrix(1 0 0 -1 0 491)" cx="7.896" cy="245.5" r="5"/>
    <circle fill="#2E75FE" transform="matrix(1 0 0 -1 0 509)" cx="26.896" cy="254.5" r="5"/>
    <circle fill="#2E75FE" transform="matrix(1 0 0 -1 0 497)" cx="40.896" cy="248.5" r="5"/>
    <circle fill="#2E75FE" transform="matrix(1 0 0 -1 0 215)" cx="57.896" cy="107.5" r="5"/>
    <circle fill="#2E75FE" transform="matrix(1 0 0 -1 0 387)" cx="18.896" cy="193.5" r="5"/>
    <circle fill="#2E75FE" transform="matrix(1 0 0 -1 0 745)" cx="183.896" cy="372.5" r="5"/>
    <circle fill="#2E75FE" transform="matrix(1 0 0 -1 0 463)" cx="34.896" cy="231.5" r="5"/>
    <circle fill="#2E75FE" transform="matrix(1 0 0 -1 0 487)" cx="31.896" cy="243.5" r="5"/>
    <circle fill="#2E75FE" transform="matrix(1 0 0 -1 0 479)" cx="18.896" cy="239.5" r="5"/>
    <circle fill="#2E75FE" transform="matrix(1 0 0 -1 0 453)" cx="26.896" cy="226.5" r="5"/>
    <circle fill="#2E75FE" transform="matrix(1 0 0 -1 0 263)" cx="484.896" cy="131.5" r="5"/>
    <circle fill="#2E75FE" transform="matrix(1 0 0 -1 0 417)" cx="619.896" cy="208.5" r="5"/>
    <circle fill="#2E75FE" transform="matrix(1 0 0 -1 0 357)" cx="209.896" cy="178.5" r="5"/>
    <circle fill="#2E75FE" transform="matrix(1 0 0 -1 0 441)" cx="544.896" cy="220.5" r="5"/>
    <circle fill="#2E75FE" transform="matrix(1 0 0 -1 0 475)" cx="266.896" cy="237.5" r="5"/>
    <circle fill="#2E75FE" transform="matrix(1 0 0 -1 0 495)" cx="258.896" cy="247.5" r="5"/>
    <circle fill="#2E75FE" transform="matrix(1 0 0 -1 0 515)" cx="248.896" cy="257.5" r="5"/>
    <circle fill="#2E75FE" transform="matrix(1 0 0 -1 0 523)" cx="239.896" cy="261.5" r="5"/>
    <circle fill="#2E75FE" transform="matrix(1 0 0 -1 0 529)" cx="230.896" cy="264.5" r="5"/>
    <circle fill="#2E75FE" transform="matrix(1 0 0 -1 0 547)" cx="241.896" cy="273.5" r="5"/>
    <circle fill="#2E75FE" transform="matrix(1 0 0 -1 0 677)" cx="233.896" cy="338.5" r="5"/>
    <circle fill="#2E75FE" transform="matrix(1 0 0 -1 0 497)" cx="247.896" cy="248.5" r="5"/>
    <circle fill="#2E75FE" transform="matrix(1 0 0 -1 0 407)" cx="382.896" cy="203.5" r="5"/>
    <circle fill="#2E75FE" transform="matrix(1 0 0 -1 0 553)" cx="228.896" cy="276.5" r="5"/>
    <circle fill="#2E75FE" transform="matrix(1 0 0 -1 0 505)" cx="236.896" cy="252.5" r="5"/>
    <circle fill="#2E75FE" transform="matrix(1 0 0 -1 0 321)" cx="213.896" cy="160.5" r="5"/>
    <circle fill="#2E75FE" transform="matrix(1 0 0 -1 0 397)" cx="421.896" cy="198.5" r="5"/>
    <circle fill="#2E75FE" transform="matrix(1 0 0 -1 0 371)" cx="419.896" cy="185.5" r="5"/>
    <circle fill="#2E75FE" transform="matrix(1 0 0 -1 0 355)" cx="409.896" cy="177.5" r="5"/>
    <circle fill="#2E75FE" transform="matrix(1 0 0 -1 0 341)" cx="421.896" cy="170.5" r="5"/>
    <circle fill="#2E75FE" transform="matrix(1 0 0 -1 0 331)" cx="407.896" cy="165.5" r="5"/>
    <circle fill="#2E75FE" transform="matrix(1 0 0 -1 0 315)" cx="416.896" cy="157.5" r="5"/>
    <circle fill="#2E75FE" transform="matrix(1 0 0 -1 0 295)" cx="425.896" cy="147.5" r="5"/>
    <circle fill="#2E75FE" transform="matrix(1 0 0 -1 0 579)" cx="557.896" cy="289.5" r="5"/>
    <circle fill="#2E75FE" transform="matrix(1 0 0 -1 0 599)" cx="553.896" cy="299.5" r="5"/>
    <circle fill="#2E75FE" transform="matrix(1 0 0 -1 0 401)" cx="406.896" cy="200.5" r="5"/>
    <circle fill="#2E75FE" transform="matrix(1 0 0 -1 0 379)" cx="403.896" cy="189.5" r="5"/>
    <circle fill="#2E75FE" transform="matrix(1 0 0 -1 0 387)" cx="210.896" cy="193.5" r="5"/>
    <circle fill="#2E75FE" transform="matrix(1 0 0 -1 0 549)" cx="273.896" cy="274.5" r="5"/>
    <circle fill="#2E75FE" transform="matrix(1 0 0 -1 0 413)" cx="198.896" cy="206.5" r="5"/>
    <circle fill="#2E75FE" transform="matrix(1 0 0 -1 0 401)" cx="190.896" cy="200.5" r="5"/>
    <circle fill="#2E75FE" transform="matrix(1 0 0 -1 0 561)" cx="252.896" cy="280.5" r="5"/>
    <circle fill="#2E75FE" transform="matrix(1 0 0 -1 0 519)" cx="268.896" cy="259.5" r="5"/>
    <circle fill="#2E75FE" transform="matrix(1 0 0 -1 0 531)" cx="258.896" cy="265.5" r="5"/>
    <circle fill="#2E75FE" transform="matrix(1 0 0 -1 0 541)" cx="251.896" cy="270.5" r="5"/>
    <circle fill="#2E75FE" transform="matrix(1 0 0 -1 0 397)" cx="157.896" cy="198.5" r="5"/>
    <circle fill="#2E75FE" transform="matrix(1 0 0 -1 0 541)" cx="572.896" cy="270.5" r="5"/>
    <circle fill="#2E75FE" transform="matrix(1 0 0 -1 0 529)" cx="565.896" cy="264.5" r="5"/>
    <circle fill="#2E75FE" transform="matrix(1 0 0 -1 0 523)" cx="557.896" cy="261.5" r="5"/>
    <circle fill="#2E75FE" transform="matrix(1 0 0 -1 0 237)" cx="46.896" cy="118.5" r="5"/>
    <circle fill="#2E75FE" transform="matrix(1 0 0 -1 0 551)" cx="642.896" cy="275.5" r="5"/>
    <circle fill="#2E75FE" transform="matrix(1 0 0 -1 0 561)" cx="634.896" cy="280.5" r="5"/>
    <circle fill="#2E75FE" transform="matrix(1 0 0 -1 0 537)" cx="618.896" cy="268.5" r="5"/>
    <circle fill="#2E75FE" transform="matrix(1 0 0 -1 0 531)" cx="606.896" cy="265.5" r="5"/>
    <circle fill="#2E75FE" transform="matrix(1 0 0 -1 0 531)" cx="593.896" cy="265.5" r="5"/>
    <circle fill="#2E75FE" transform="matrix(1 0 0 -1 0 503)" cx="610.896" cy="251.5" r="5"/>
    <circle fill="#2E75FE" transform="matrix(1 0 0 -1 0 485)" cx="599.896" cy="242.5" r="5"/>
    <circle fill="#2E75FE" transform="matrix(1 0 0 -1 0 461)" cx="212.896" cy="230.5" r="5"/>
    <circle fill="#2E75FE" transform="matrix(1 0 0 -1 0 471)" cx="584.896" cy="235.5" r="5"/>
    <circle fill="#2E75FE" transform="matrix(1 0 0 -1 0 453)" cx="594.896" cy="226.5" r="5"/>
    <circle fill="#2E75FE" transform="matrix(1 0 0 -1 0 467)" cx="568.896" cy="233.5" r="5"/>
    <circle fill="#2E75FE" transform="matrix(1 0 0 -1 0 447)" cx="558.896" cy="223.5" r="5"/>
    <circle fill="#2E75FE" transform="matrix(1 0 0 -1 0 365)" cx="267.896" cy="182.5" r="5"/>
    <circle fill="#2E75FE" transform="matrix(1 0 0 -1 0 333)" cx="238.896" cy="166.5" r="5"/>
    <circle fill="#2E75FE" transform="matrix(1 0 0 -1 0 377)" cx="254.896" cy="188.5" r="5"/>
    <circle fill="#2E75FE" transform="matrix(1 0 0 -1 0 377)" cx="244.896" cy="188.5" r="5"/>
    <circle fill="#2E75FE" transform="matrix(1 0 0 -1 0 227)" cx="227.896" cy="113.5" r="5"/>
    <circle fill="#2E75FE" transform="matrix(1 0 0 -1 0 251)" cx="220.896" cy="125.5" r="5"/>
    <circle fill="#2E75FE" transform="matrix(1 0 0 -1 0 401)" cx="54.896" cy="200.5" r="5"/>
    <circle fill="#2E75FE" transform="matrix(1 0 0 -1 0 489)" cx="64.896" cy="244.5" r="5"/>
    <circle fill="#2E75FE" transform="matrix(1 0 0 -1 0 459)" cx="47.896" cy="229.5" r="5"/>
    <circle fill="#2E75FE" transform="matrix(1 0 0 -1 0 611)" cx="486.896" cy="305.5" r="5"/>
    <circle fill="#2E75FE" transform="matrix(1 0 0 -1 0 295)" cx="261.896" cy="147.5" r="5"/>
    <circle fill="#2E75FE" transform="matrix(1 0 0 -1 0 333)" cx="250.896" cy="166.5" r="5"/>
    <circle fill="#2E75FE" transform="matrix(1 0 0 -1 0 261)" cx="202.896" cy="130.5" r="5"/>
    <circle fill="#2E75FE" transform="matrix(1 0 0 -1 0 595)" cx="524.896" cy="297.5" r="5"/>
    <circle fill="#2E75FE" transform="matrix(1 0 0 -1 0 339)" cx="263.896" cy="169.5" r="5"/>
    <circle fill="#2E75FE" transform="matrix(1 0 0 -1 0 427)" cx="389.896" cy="213.5" r="5"/>
    <circle fill="#2E75FE" transform="matrix(1 0 0 -1 0 603)" cx="541.896" cy="301.5" r="5"/>
    <circle fill="#2E75FE" transform="matrix(1 0 0 -1 0 595)" cx="502.896" cy="297.5" r="5"/>
    <circle fill="#2E75FE" transform="matrix(1 0 0 -1 0 587)" cx="515.896" cy="293.5" r="5"/>
    <circle fill="#2E75FE" transform="matrix(1 0 0 -1 0 573)" cx="501.896" cy="286.5" r="5"/>
    <circle fill="#2E75FE" transform="matrix(1 0 0 -1 0 505)" cx="542.896" cy="252.5" r="5"/>
    <circle fill="#2E75FE" transform="matrix(1 0 0 -1 0 265)" cx="235.896" cy="132.5" r="5"/>
    <circle fill="#2E75FE" transform="matrix(1 0 0 -1 0 451)" cx="386.896" cy="225.5" r="5"/>
    <circle fill="#2E75FE" transform="matrix(1 0 0 -1 0 611)" cx="503.896" cy="305.5" r="5"/>
    <circle fill="#2E75FE" transform="matrix(1 0 0 -1 0 593)" cx="488.896" cy="296.5" r="5"/>
    <circle fill="#2E75FE" transform="matrix(1 0 0 -1 0 575)" cx="482.896" cy="287.5" r="5"/>
    <circle fill="#2E75FE" transform="matrix(1 0 0 -1 0 567)" cx="489.896" cy="283.5" r="5"/>
    <circle fill="#2E75FE" transform="matrix(1 0 0 -1 0 439)" cx="144.896" cy="219.5" r="5"/>
    <circle fill="#2E75FE" transform="matrix(1 0 0 -1 0 401)" cx="116.896" cy="200.5" r="5"/>
    <circle fill="#2E75FE" transform="matrix(1 0 0 -1 0 397)" cx="147.896" cy="198.5" r="5"/>
    <circle fill="#2E75FE" transform="matrix(1 0 0 -1 0 343)" cx="127.896" cy="171.5" r="5"/>
    <circle fill="#2E75FE" transform="matrix(1 0 0 -1 0 313)" cx="201.896" cy="156.5" r="5"/>
    <circle fill="#2E75FE" transform="matrix(1 0 0 -1 0 301)" cx="193.896" cy="150.5" r="5"/>
    <circle fill="#2E75FE" transform="matrix(1 0 0 -1 0 299)" cx="213.896" cy="149.5" r="5"/>
    <circle fill="#2E75FE" transform="matrix(1 0 0 -1 0 279)" cx="218.896" cy="139.5" r="5"/>
    <circle fill="#2E75FE" transform="matrix(1 0 0 -1 0 393)" cx="98.896" cy="196.5" r="5"/>
    <circle fill="#2E75FE" transform="matrix(1 0 0 -1 0 351)" cx="88.896" cy="175.5" r="5"/>
    <circle fill="#2E75FE" transform="matrix(1 0 0 -1 0 375)" cx="107.896" cy="187.5" r="5"/>
    <circle fill="#2E75FE" transform="matrix(1 0 0 -1 0 347)" cx="161.896" cy="173.5" r="5"/>
    <circle fill="#2E75FE" transform="matrix(1 0 0 -1 0 387)" cx="136.896" cy="193.5" r="5"/>
    <circle fill="#2E75FE" transform="matrix(1 0 0 -1 0 349)" cx="110.896" cy="174.5" r="5"/>
    <circle fill="#2E75FE" transform="matrix(1 0 0 -1 0 279)" cx="143.896" cy="139.5" r="5"/>
    <circle fill="#2E75FE" transform="matrix(1 0 0 -1 0 315)" cx="177.896" cy="157.5" r="5"/>
    <circle fill="#2E75FE" transform="matrix(1 0 0 -1 0 259)" cx="176.896" cy="129.5" r="5"/>
    <circle fill="#2E75FE" transform="matrix(1 0 0 -1 0 279)" cx="191.896" cy="139.5" r="5"/>
    <circle fill="#2E75FE" transform="matrix(1 0 0 -1 0 325)" cx="97.896" cy="162.5" r="5"/>
    <circle fill="#2E75FE" transform="matrix(1 0 0 -1 0 317)" cx="158.896" cy="158.5" r="5"/>
    <circle fill="#2E75FE" transform="matrix(1 0 0 -1 0 299)" cx="153.896" cy="149.5" r="5"/>
    <circle fill="#2E75FE" transform="matrix(1 0 0 -1 0 265)" cx="159.896" cy="132.5" r="5"/>
    <circle fill="#FBA55F" transform="matrix(1 0 0 -1 0 225)" cx="162.896" cy="112.5" r="5"/>
    <circle fill="#FBA55F" transform="matrix(1 0 0 -1 0 201)" cx="170.896" cy="100.5" r="5"/>
    <circle fill="#FBA55F" transform="matrix(1 0 0 -1 0 203)" cx="187.896" cy="101.5" r="5"/>
    <circle fill="#FBA55F" transform="matrix(1 0 0 -1 0 183)" cx="194.896" cy="91.5" r="5"/>
    <circle fill="#FBA55F" transform="matrix(1 0 0 -1 0 185)" cx="263.896" cy="92.5" r="5"/>
    <circle fill="#FBA55F" transform="matrix(1 0 0 -1 0 219)" cx="148.896" cy="109.5" r="5"/>
    <circle fill="#FBA55F" transform="matrix(1 0 0 -1 0 201)" cx="157.896" cy="100.5" r="5"/>
    <circle fill="#FBA55F" transform="matrix(1 0 0 -1 0 181)" cx="163.896" cy="90.5" r="5"/>
    <circle fill="#FBA55F" transform="matrix(1 0 0 -1 0 179)" cx="181.896" cy="89.5" r="5"/>
    <circle fill="#FBA55F" transform="matrix(1 0 0 -1 0 135)" cx="99.896" cy="67.5" r="5"/>
    <circle fill="#FBA55F" transform="matrix(1 0 0 -1 0 193)" cx="125.896" cy="96.5" r="5"/>
    <circle fill="#FBA55F" transform="matrix(1 0 0 -1 0 117)" cx="90.896" cy="58.5" r="5"/>
    <circle fill="#FBA55F" transform="matrix(1 0 0 -1 0 181)" cx="137.896" cy="90.5" r="5"/>
    <circle fill="#FBA55F" transform="matrix(1 0 0 -1 0 97)" cx="94.896" cy="48.5" r="5"/>
    <circle fill="#FBA55F" transform="matrix(1 0 0 -1 0 171)" cx="54.896" cy="85.5" r="5"/>
    <circle fill="#FBA55F" transform="matrix(1 0 0 -1 0 193)" cx="104.896" cy="96.5" r="5"/>
    <circle fill="#FBA55F" transform="matrix(1 0 0 -1 0 179)" cx="115.896" cy="89.5" r="5"/>
    <circle fill="#FBA55F" transform="matrix(1 0 0 -1 0 91)" cx="57.896" cy="45.5" r="5"/>
    <circle fill="#FBA55F" transform="matrix(1 0 0 -1 0 215)" cx="268.896" cy="107.5" r="5"/>
    <circle fill="#FBA55F" transform="matrix(1 0 0 -1 0 141)" cx="57.896" cy="70.5" r="5"/>
    <circle fill="#FBA55F" transform="matrix(1 0 0 -1 0 61)" cx="54.896" cy="30.5" r="5"/>
    <circle fill="#FBA55F" transform="matrix(1 0 0 -1 0 171)" cx="65.896" cy="85.5" r="5"/>
    <circle fill="#FBA55F" transform="matrix(1 0 0 -1 0 117)" cx="61.896" cy="58.5" r="5"/>
    <circle fill="#FBA55F" transform="matrix(1 0 0 -1 0 105)" cx="73.896" cy="52.5" r="5"/>
    <circle fill="#FBA55F" transform="matrix(1 0 0 -1 0 273)" cx="409.896" cy="136.5" r="5"/>
    <circle fill="#FBA55F" transform="matrix(1 0 0 -1 0 165)" cx="94.896" cy="82.5" r="5"/>
    <circle fill="#FBA55F" transform="matrix(1 0 0 -1 0 157)" cx="140.896" cy="78.5" r="5"/>
    <circle fill="#FBA55F" transform="matrix(1 0 0 -1 0 143)" cx="129.896" cy="71.5" r="5"/>
    <circle fill="#FBA55F" transform="matrix(1 0 0 -1 0 81)" cx="68.896" cy="40.5" r="5"/>
    <circle fill="#FBA55F" transform="matrix(1 0 0 -1 0 133)" cx="112.896" cy="66.5" r="5"/>
    <circle fill="#FBA55F" transform="matrix(1 0 0 -1 0 211)" cx="136.896" cy="105.5" r="5"/>
    <circle fill="#FBA55F" transform="matrix(1 0 0 -1 0 185)" cx="271.896" cy="92.5" r="5"/>
    <circle fill="#FBA55F" transform="matrix(1 0 0 -1 0 179)" cx="150.896" cy="89.5" r="5"/>
    <circle fill="#FBA55F" transform="matrix(1 0 0 -1 0 165)" cx="128.896" cy="82.5" r="5"/>
    <circle fill="#FBA55F" transform="matrix(1 0 0 -1 0 157)" cx="116.896" cy="78.5" r="5"/>
    <circle fill="#FBA55F" transform="matrix(1 0 0 -1 0 141)" cx="70.896" cy="70.5" r="5"/>
    <circle fill="#FBA55F" transform="matrix(1 0 0 -1 0 103)" cx="103.896" cy="51.5" r="5"/>
    <circle fill="#FBA55F" transform="matrix(1 0 0 -1 0 137)" cx="84.896" cy="68.5" r="5"/>
    <circle fill="#FBA55F" transform="matrix(1 0 0 -1 0 155)" cx="104.896" cy="77.5" r="5"/>
    <circle fill="#FBA55F" transform="matrix(1 0 0 -1 0 97)" cx="80.896" cy="48.5" r="5"/>
    <circle fill="#FBA55F" transform="matrix(1 0 0 -1 0 125)" cx="134.896" cy="62.5" r="5"/>
    <circle fill="#FBA55F" transform="matrix(1 0 0 -1 0 161)" cx="79.896" cy="80.5" r="5"/>
    <circle fill="#FBA55F" transform="matrix(1 0 0 -1 0 115)" cx="119.896" cy="57.5" r="5"/>
    <circle fill="#FBA55F" transform="matrix(1 0 0 -1 0 25)" cx="62.896" cy="12.5" r="5"/>
    <circle fill="#FBA55F" transform="matrix(1 0 0 -1 0 153)" cx="162.896" cy="76.5" r="5"/>
    <circle fill="#FBA55F" transform="matrix(1 0 0 -1 0 229)" cx="191.896" cy="114.5" r="5"/>
    <circle fill="#FBA55F" transform="matrix(1 0 0 -1 0 207)" cx="202.896" cy="103.5" r="5"/>
    <circle fill="#FBA55F" transform="matrix(1 0 0 -1 0 187)" cx="208.896" cy="93.5" r="5"/>
    <circle fill="#FBA55F" transform="matrix(1 0 0 -1 0 169)" cx="204.896" cy="84.5" r="5"/>
    <circle fill="#FBA55F" transform="matrix(1 0 0 -1 0 227)" cx="177.896" cy="113.5" r="5"/>
    <circle fill="#FBA55F" transform="matrix(1 0 0 -1 0 177)" cx="250.896" cy="88.5" r="5"/>
    <circle fill="#FBA55F" transform="matrix(1 0 0 -1 0 133)" cx="247.896" cy="66.5" r="5"/>
    <circle fill="#FBA55F" transform="matrix(1 0 0 -1 0 165)" cx="174.896" cy="82.5" r="5"/>
    <circle fill="#FBA55F" transform="matrix(1 0 0 -1 0 229)" cx="205.896" cy="114.5" r="5"/>
    <circle fill="#FBA55F" transform="matrix(1 0 0 -1 0 145)" cx="149.896" cy="72.5" r="5"/>
    <circle fill="#FBA55F" transform="matrix(1 0 0 -1 0 167)" cx="188.896" cy="83.5" r="5"/>
    <circle fill="#FBA55F" transform="matrix(1 0 0 -1 0 145)" cx="241.896" cy="72.5" r="5"/>
    <circle fill="#FBA55F" transform="matrix(1 0 0 -1 0 211)" cx="214.896" cy="105.5" r="5"/>
    <circle fill="#FBA55F" transform="matrix(1 0 0 -1 0 195)" cx="222.896" cy="97.5" r="5"/>
    <circle fill="#FBA55F" transform="matrix(1 0 0 -1 0 163)" cx="232.896" cy="81.5" r="5"/>
    <circle fill="#FBA55F" transform="matrix(1 0 0 -1 0 143)" cx="290.896" cy="71.5" r="5"/>
    <circle fill="#FBA55F" transform="matrix(1 0 0 -1 0 179)" cx="217.896" cy="89.5" r="5"/>
    <circle fill="#FBA55F" transform="matrix(1 0 0 -1 0 155)" cx="259.896" cy="77.5" r="5"/>
    <circle fill="#FBA55F" transform="matrix(1 0 0 -1 0 143)" cx="276.896" cy="71.5" r="5"/>
    <circle fill="#FBA55F" transform="matrix(1 0 0 -1 0 183)" cx="234.896" cy="91.5" r="5"/>
    <circle fill="#FBA55F" transform="matrix(1 0 0 -1 0 207)" cx="241.896" cy="103.5" r="5"/>
    <circle fill="#FBA55F" transform="matrix(1 0 0 -1 0 199)" cx="253.896" cy="99.5" r="5"/>
    <circle fill="#FBA55F" transform="matrix(1 0 0 -1 0 117)" cx="271.896" cy="58.5" r="5"/>
    <circle fill="#FBA55F" transform="matrix(1 0 0 -1 0 57)" cx="63.896" cy="28.5" r="5"/>
    <circle fill="#FBA55F" transform="matrix(1 0 0 -1 0 243)" cx="169.896" cy="121.5" r="5"/>
    <circle fill="#FBA55F" transform="matrix(1 0 0 -1 0 151)" cx="32.896" cy="75.5" r="5"/>
    <circle fill="#FBA55F" transform="matrix(1 0 0 -1 0 171)" cx="241.896" cy="85.5" r="5"/>
    <circle fill="#FBA55F" transform="matrix(1 0 0 -1 0 165)" cx="278.896" cy="82.5" r="5"/>
    <circle fill="#FBA55F" transform="matrix(1 0 0 -1 0 133)" cx="37.896" cy="66.5" r="5"/>
    <circle fill="#FBA55F" transform="matrix(1 0 0 -1 0 267)" cx="554.896" cy="133.5" r="5"/>
    <circle fill="#FBA55F" transform="matrix(1 0 0 -1 0 99)" cx="45.896" cy="49.5" r="5"/>
    <circle fill="#FBA55F" transform="matrix(1 0 0 -1 0 121)" cx="18.896" cy="60.5" r="5"/>
    <circle fill="#FBA55F" transform="matrix(1 0 0 -1 0 39)" cx="48.896" cy="19.5" r="5"/>
    <circle fill="#FBA55F" transform="matrix(1 0 0 -1 0 87)" cx="32.896" cy="43.5" r="5"/>
    <circle fill="#FBA55F" transform="matrix(1 0 0 -1 0 125)" cx="46.896" cy="62.5" r="5"/>
    <circle fill="#FBA55F" transform="matrix(1 0 0 -1 0 249)" cx="407.896" cy="124.5" r="5"/>
    <circle fill="#FBA55F" transform="matrix(1 0 0 -1 0 239)" cx="515.896" cy="119.5" r="5"/>
    <circle fill="#FBA55F" transform="matrix(1 0 0 -1 0 245)" cx="417.896" cy="122.5" r="5"/>
    <circle fill="#FBA55F" transform="matrix(1 0 0 -1 0 259)" cx="423.896" cy="129.5" r="5"/>
    <circle fill="#FBA55F" transform="matrix(1 0 0 -1 0 241)" cx="431.896" cy="120.5" r="5"/>
    <circle fill="#FBA55F" transform="matrix(1 0 0 -1 0 215)" cx="431.896" cy="107.5" r="5"/>
    <circle fill="#FBA55F" transform="matrix(1 0 0 -1 0 225)" cx="417.896" cy="112.5" r="5"/>
    <circle fill="#FBA55F" transform="matrix(1 0 0 -1 0 275)" cx="567.896" cy="137.5" r="5"/>
    <circle fill="#FBA55F" transform="matrix(1 0 0 -1 0 237)" cx="445.896" cy="118.5" r="5"/>
    <circle fill="#FBA55F" transform="matrix(1 0 0 -1 0 211)" cx="448.896" cy="105.5" r="5"/>
    <circle fill="#FBA55F" transform="matrix(1 0 0 -1 0 57)" cx="34.896" cy="28.5" r="5"/>
    <circle fill="#FBA55F" transform="matrix(1 0 0 -1 0 113)" cx="30.896" cy="56.5" r="5"/>
    <circle fill="#FBA55F" transform="matrix(1 0 0 -1 0 215)" cx="461.896" cy="107.5" r="5"/>
    <circle fill="#FBA55F" transform="matrix(1 0 0 -1 0 219)" cx="523.896" cy="109.5" r="5"/>
    <circle fill="#FBA55F" transform="matrix(1 0 0 -1 0 215)" cx="509.896" cy="107.5" r="5"/>
    <circle fill="#FBA55F" transform="matrix(1 0 0 -1 0 241)" cx="533.896" cy="120.5" r="5"/>
    <circle fill="#FBA55F" transform="matrix(1 0 0 -1 0 233)" cx="497.896" cy="116.5" r="5"/>
    <circle fill="#FBA55F" transform="matrix(1 0 0 -1 0 69)" cx="42.896" cy="34.5" r="5"/>
    <circle fill="#FBA55F" transform="matrix(1 0 0 -1 0 105)" cx="10.896" cy="52.5" r="5"/>
    <circle fill="#FBA55F" transform="matrix(1 0 0 -1 0 237)" cx="461.896" cy="118.5" r="5"/>
    <circle fill="#FBA55F" transform="matrix(1 0 0 -1 0 217)" cx="472.896" cy="108.5" r="5"/>
    <circle fill="#FBA55F" transform="matrix(1 0 0 -1 0 203)" cx="480.896" cy="101.5" r="5"/>
    <circle fill="#FBA55F" transform="matrix(1 0 0 -1 0 219)" cx="483.896" cy="109.5" r="5"/>
    <circle fill="#FBA55F" transform="matrix(1 0 0 -1 0 251)" cx="525.896" cy="125.5" r="5"/>
    <circle fill="#FBA55F" transform="matrix(1 0 0 -1 0 261)" cx="542.896" cy="130.5" r="5"/>
    <circle fill="#FBA55F" transform="matrix(1 0 0 -1 0 261)" cx="440.896" cy="130.5" r="5"/>
    <circle fill="#FBA55F" transform="matrix(1 0 0 -1 0 255)" cx="453.896" cy="127.5" r="5"/>
    <circle fill="#FBA55F" transform="matrix(1 0 0 -1 0 245)" cx="470.896" cy="122.5" r="5"/>
    <circle fill="#FBA55F" transform="matrix(1 0 0 -1 0 83)" cx="20.896" cy="41.5" r="5"/>
    <circle fill="#FBA55F" transform="matrix(1 0 0 -1 0 245)" cx="481.896" cy="122.5" r="5"/>
    <circle fill="#FBA55F" transform="matrix(1 0 0 -1 0 297)" cx="572.896" cy="148.5" r="5"/>
    <circle fill="#FBA55F" transform="matrix(1 0 0 -1 0 207)" cx="494.896" cy="103.5" r="5"/>
    <circle fill="#FBA55F" transform="matrix(1 0 0 -1 0 133)" cx="259.896" cy="66.5" r="5"/>
    <circle fill="#2E75FE" transform="matrix(1 0 0 -1 0 301)" cx="166.896" cy="150.5" r="5"/>
    <circle fill="#2E75FE" transform="matrix(1 0 0 -1 0 313)" cx="82.896" cy="156.5" r="5"/>
    <circle fill="#2E75FE" transform="matrix(1 0 0 -1 0 291)" cx="93.896" cy="145.5" r="5"/>
    <circle fill="#2E75FE" transform="matrix(1 0 0 -1 0 303)" cx="138.896" cy="151.5" r="5"/>
    <circle fill="#2E75FE" transform="matrix(1 0 0 -1 0 293)" cx="125.896" cy="146.5" r="5"/>
    <circle fill="#2E75FE" transform="matrix(1 0 0 -1 0 335)" cx="73.896" cy="167.5" r="5"/>
    <circle fill="#2E75FE" transform="matrix(1 0 0 -1 0 339)" cx="52.896" cy="169.5" r="5"/>
    <circle fill="#2E75FE" transform="matrix(1 0 0 -1 0 277)" cx="110.896" cy="138.5" r="5"/>
    <circle fill="#2E75FE" transform="matrix(1 0 0 -1 0 313)" cx="122.896" cy="156.5" r="5"/>
    <circle fill="#2E75FE" transform="matrix(1 0 0 -1 0 307)" cx="107.896" cy="153.5" r="5"/>
    <circle fill="#2E75FE" transform="matrix(1 0 0 -1 0 415)" cx="93.896" cy="207.5" r="5"/>
    <circle fill="#2E75FE" transform="matrix(1 0 0 -1 0 427)" cx="134.896" cy="213.5" r="5"/>
    <circle fill="#2E75FE" transform="matrix(1 0 0 -1 0 441)" cx="517.896" cy="220.5" r="5"/>
    <circle fill="#2E75FE" transform="matrix(1 0 0 -1 0 483)" cx="615.896" cy="241.5" r="5"/>
    <circle fill="#2E75FE" transform="matrix(1 0 0 -1 0 463)" cx="625.896" cy="231.5" r="5"/>
    <circle fill="#2E75FE" transform="matrix(1 0 0 -1 0 455)" cx="632.896" cy="227.5" r="5"/>
    <circle fill="#2E75FE" transform="matrix(1 0 0 -1 0 493)" cx="637.896" cy="246.5" r="5"/>
    <circle fill="#2E75FE" transform="matrix(1 0 0 -1 0 221)" cx="119.896" cy="110.5" r="5"/>
    <circle fill="#2E75FE" transform="matrix(1 0 0 -1 0 237)" cx="153.896" cy="118.5" r="5"/>
    <circle fill="#2E75FE" transform="matrix(1 0 0 -1 0 401)" cx="611.896" cy="200.5" r="5"/>
    <circle fill="#2E75FE" transform="matrix(1 0 0 -1 0 221)" cx="102.896" cy="110.5" r="5"/>
    <circle fill="#2E75FE" transform="matrix(1 0 0 -1 0 407)" cx="528.896" cy="203.5" r="5"/>
    <circle fill="#2E75FE" transform="matrix(1 0 0 -1 0 417)" cx="538.896" cy="208.5" r="5"/>
    <circle fill="#2E75FE" transform="matrix(1 0 0 -1 0 403)" cx="546.896" cy="201.5" r="5"/>
    <circle fill="#2E75FE" transform="matrix(1 0 0 -1 0 427)" cx="547.896" cy="213.5" r="5"/>
    <circle fill="#2E75FE" transform="matrix(1 0 0 -1 0 367)" cx="555.896" cy="183.5" r="5"/>
    <circle fill="#2E75FE" transform="matrix(1 0 0 -1 0 419)" cx="512.896" cy="209.5" r="5"/>
    <circle fill="#2E75FE" transform="matrix(1 0 0 -1 0 431)" cx="598.896" cy="215.5" r="5"/>
    <circle fill="#2E75FE" transform="matrix(1 0 0 -1 0 429)" cx="609.896" cy="214.5" r="5"/>
    <circle fill="#2E75FE" transform="matrix(1 0 0 -1 0 377)" cx="523.896" cy="188.5" r="5"/>
    <circle fill="#2E75FE" transform="matrix(1 0 0 -1 0 399)" cx="518.896" cy="199.5" r="5"/>
    <circle fill="#2E75FE" transform="matrix(1 0 0 -1 0 347)" cx="525.896" cy="173.5" r="5"/>
    <circle fill="#2E75FE" transform="matrix(1 0 0 -1 0 349)" cx="537.896" cy="174.5" r="5"/>
    <circle fill="#2E75FE" transform="matrix(1 0 0 -1 0 359)" cx="531.896" cy="179.5" r="5"/>
    <circle fill="#2E75FE" transform="matrix(1 0 0 -1 0 329)" cx="534.896" cy="164.5" r="5"/>
    <circle fill="#2E75FE" transform="matrix(1 0 0 -1 0 319)" cx="544.896" cy="159.5" r="5"/>
    <circle fill="#2E75FE" transform="matrix(1 0 0 -1 0 323)" cx="524.896" cy="161.5" r="5"/>
    <circle fill="#2E75FE" transform="matrix(1 0 0 -1 0 329)" cx="553.896" cy="164.5" r="5"/>
    <circle fill="#2E75FE" transform="matrix(1 0 0 -1 0 295)" cx="553.896" cy="147.5" r="5"/>
    <circle fill="#2E75FE" transform="matrix(1 0 0 -1 0 259)" cx="513.896" cy="129.5" r="5"/>
    <circle fill="#2E75FE" transform="matrix(1 0 0 -1 0 265)" cx="497.896" cy="132.5" r="5"/>
    <circle fill="#2E75FE" transform="matrix(1 0 0 -1 0 329)" cx="584.896" cy="164.5" r="5"/>
    <circle fill="#2E75FE" transform="matrix(1 0 0 -1 0 319)" cx="564.896" cy="159.5" r="5"/>
    <circle fill="#2E75FE" transform="matrix(1 0 0 -1 0 293)" cx="542.896" cy="146.5" r="5"/>
    <circle fill="#2E75FE" transform="matrix(1 0 0 -1 0 383)" cx="534.896" cy="191.5" r="5"/>
    <circle fill="#2E75FE" transform="matrix(1 0 0 -1 0 379)" cx="543.896" cy="189.5" r="5"/>
    <circle fill="#2E75FE" transform="matrix(1 0 0 -1 0 353)" cx="547.896" cy="176.5" r="5"/>
    <circle fill="#2E75FE" transform="matrix(1 0 0 -1 0 411)" cx="628.896" cy="205.5" r="5"/>
    <circle fill="#2E75FE" transform="matrix(1 0 0 -1 0 441)" cx="582.896" cy="220.5" r="5"/>
    <circle fill="#2E75FE" transform="matrix(1 0 0 -1 0 417)" cx="587.896" cy="208.5" r="5"/>
    <circle fill="#2E75FE" transform="matrix(1 0 0 -1 0 397)" cx="596.896" cy="198.5" r="5"/>
    <circle fill="#2E75FE" transform="matrix(1 0 0 -1 0 417)" cx="591.896" cy="208.5" r="5"/>
    <circle fill="#2E75FE" transform="matrix(1 0 0 -1 0 359)" cx="516.896" cy="179.5" r="5"/>
    <circle fill="#2E75FE" transform="matrix(1 0 0 -1 0 373)" cx="608.896" cy="186.5" r="5"/>
    <circle fill="#2E75FE" transform="matrix(1 0 0 -1 0 427)" cx="571.896" cy="213.5" r="5"/>
    <circle fill="#2E75FE" transform="matrix(1 0 0 -1 0 403)" cx="577.896" cy="201.5" r="5"/>
    <circle fill="#2E75FE" transform="matrix(1 0 0 -1 0 377)" cx="573.896" cy="188.5" r="5"/>
    <circle fill="#2E75FE" transform="matrix(1 0 0 -1 0 349)" cx="567.896" cy="174.5" r="5"/>
    <circle fill="#2E75FE" transform="matrix(1 0 0 -1 0 437)" cx="625.896" cy="218.5" r="5"/>
    <circle fill="#2E75FE" transform="matrix(1 0 0 -1 0 429)" cx="564.896" cy="214.5" r="5"/>
    <circle fill="#2E75FE" transform="matrix(1 0 0 -1 0 403)" cx="569.896" cy="201.5" r="5"/>
    <circle fill="#2E75FE" transform="matrix(1 0 0 -1 0 387)" cx="583.896" cy="193.5" r="5"/>
    <circle fill="#2E75FE" transform="matrix(1 0 0 -1 0 365)" cx="587.896" cy="182.5" r="5"/>
    <circle fill="#2E75FE" transform="matrix(1 0 0 -1 0 367)" cx="596.896" cy="183.5" r="5"/>
    <circle fill="#2E75FE" transform="matrix(1 0 0 -1 0 307)" cx="521.896" cy="153.5" r="5"/>
    <circle fill="#2E75FE" transform="matrix(1 0 0 -1 0 293)" cx="561.896" cy="146.5" r="5"/>
    <circle fill="#2E75FE" transform="matrix(1 0 0 -1 0 297)" cx="532.896" cy="148.5" r="5"/>
    <circle fill="#2E75FE" transform="matrix(1 0 0 -1 0 343)" cx="594.896" cy="171.5" r="5"/>
    <circle fill="#2E75FE" transform="matrix(1 0 0 -1 0 287)" cx="516.896" cy="143.5" r="5"/>
    <circle fill="#2E75FE" transform="matrix(1 0 0 -1 0 279)" cx="529.896" cy="139.5" r="5"/>
    <circle fill="#2E75FE" transform="matrix(1 0 0 -1 0 383)" cx="562.896" cy="191.5" r="5"/>
    <circle fill="#2E75FE" transform="matrix(1 0 0 -1 0 453)" cx="614.896" cy="226.5" r="5"/>
    <circle fill="#2E75FE" transform="matrix(1 0 0 -1 0 541)" cx="281.896" cy="270.5" r="5"/>
    <circle fill="#2E75FE" transform="matrix(1 0 0 -1 0 643)" cx="651.896" cy="321.5" r="5"/>
    <circle fill="#2E75FE" transform="matrix(1 0 0 -1 0 641)" cx="641.896" cy="320.5" r="5"/>
    <circle fill="#2E75FE" transform="matrix(1 0 0 -1 0 631)" cx="626.896" cy="315.5" r="5"/>
    <circle fill="#2E75FE" transform="matrix(1 0 0 -1 0 651)" cx="626.896" cy="325.5" r="5"/>
    <circle fill="#2E75FE" transform="matrix(1 0 0 -1 0 633)" cx="613.896" cy="316.5" r="5"/>
    <circle fill="#2E75FE" transform="matrix(1 0 0 -1 0 621)" cx="603.896" cy="310.5" r="5"/>
    <circle fill="#2E75FE" transform="matrix(1 0 0 -1 0 635)" cx="604.896" cy="317.5" r="5"/>
    <circle fill="#2E75FE" transform="matrix(1 0 0 -1 0 603)" cx="613.896" cy="301.5" r="5"/>
    <circle fill="#2E75FE" transform="matrix(1 0 0 -1 0 635)" cx="671.896" cy="317.5" r="5"/>
    <circle fill="#2E75FE" transform="matrix(1 0 0 -1 0 613)" cx="661.896" cy="306.5" r="5"/>
    <circle fill="#2E75FE" transform="matrix(1 0 0 -1 0 325)" cx="43.896" cy="162.5" r="5"/>
    <circle fill="#2E75FE" transform="matrix(1 0 0 -1 0 383)" cx="42.896" cy="191.5" r="5"/>
    <circle fill="#2E75FE" transform="matrix(1 0 0 -1 0 583)" cx="534.896" cy="291.5" r="5"/>
    <circle fill="#2E75FE" transform="matrix(1 0 0 -1 0 455)" cx="526.896" cy="227.5" r="5"/>
    <circle fill="#2E75FE" transform="matrix(1 0 0 -1 0 561)" cx="214.896" cy="280.5" r="5"/>
    <circle fill="#2E75FE" transform="matrix(1 0 0 -1 0 633)" cx="419.896" cy="316.5" r="5"/>
    <circle fill="#2E75FE" transform="matrix(1 0 0 -1 0 397)" cx="372.896" cy="198.5" r="5"/>
    <circle fill="#2E75FE" transform="matrix(1 0 0 -1 0 375)" cx="391.896" cy="187.5" r="5"/>
    <circle fill="#2E75FE" transform="matrix(1 0 0 -1 0 397)" cx="393.896" cy="198.5" r="5"/>
    <circle fill="#2E75FE" transform="matrix(1 0 0 -1 0 403)" cx="221.896" cy="201.5" r="5"/>
    <circle fill="#2E75FE" transform="matrix(1 0 0 -1 0 381)" cx="28.896" cy="190.5" r="5"/>
    <circle fill="#2E75FE" transform="matrix(1 0 0 -1 0 345)" cx="61.896" cy="172.5" r="5"/>
    <circle fill="#2E75FE" transform="matrix(1 0 0 -1 0 353)" cx="43.896" cy="176.5" r="5"/>
    <circle fill="#2E75FE" transform="matrix(1 0 0 -1 0 351)" cx="579.896" cy="175.5" r="5"/>
    <circle fill="#2E75FE" transform="matrix(1 0 0 -1 0 375)" cx="448.896" cy="187.5" r="5"/>
    <circle fill="#2E75FE" transform="matrix(1 0 0 -1 0 331)" cx="112.896" cy="165.5" r="5"/>
    <circle fill="#2E75FE" transform="matrix(1 0 0 -1 0 497)" cx="471.896" cy="248.5" r="5"/>
    <circle fill="#2E75FE" transform="matrix(1 0 0 -1 0 353)" cx="30.896" cy="176.5" r="5"/>
    <circle fill="#2E75FE" transform="rotate(180 358.896 196.5)" cx="358.896" cy="196.5" r="5"/>
    <circle fill="#2E75FE" transform="rotate(180 221.896 255.5)" cx="221.896" cy="255.5" r="5"/>
    <circle fill="#2E75FE" transform="rotate(180 40.896 205.5)" cx="40.896" cy="205.5" r="5"/>
    <circle fill="#2E75FE" transform="rotate(180 380.896 180.5)" cx="380.896" cy="180.5" r="5"/>
    <circle fill="#2E75FE" transform="rotate(180 233.896 291.5)" cx="233.896" cy="291.5" r="5"/>
    <circle fill="#2E75FE" transform="rotate(180 64.896 222.5)" cx="64.896" cy="222.5" r="5"/>
    <circle fill="#2E75FE" transform="rotate(180 631.896 303.5)" cx="631.896" cy="303.5" r="5"/>
    <circle fill="#2E75FE" transform="rotate(180 264.896 275.5)" cx="264.896" cy="275.5" r="5"/>
    <circle fill="#2E75FE" transform="rotate(180 623.896 307.5)" cx="623.896" cy="307.5" r="5"/>
    <circle fill="#2E75FE" transform="matrix(1 0 0 -1 0 297)" cx="72.896" cy="148.5" r="5"/>
    <circle fill="#2E75FE" transform="matrix(1 0 0 -1 0 277)" cx="77.896" cy="138.5" r="5"/>
    <circle fill="#2E75FE" transform="matrix(1 0 0 -1 0 251)" cx="84.896" cy="125.5" r="5"/>
    <circle fill="#2E75FE" transform="matrix(1 0 0 -1 0 259)" cx="57.896" cy="129.5" r="5"/>
    <circle fill="#2E75FE" transform="matrix(1 0 0 -1 0 259)" cx="68.896" cy="129.5" r="5"/>
    <circle fill="#2E75FE" transform="matrix(1 0 0 -1 0 287)" cx="62.896" cy="143.5" r="5"/>
    <circle fill="#2E75FE" transform="matrix(1 0 0 -1 0 317)" cx="62.896" cy="158.5" r="5"/>
    <circle fill="#2E75FE" transform="matrix(1 0 0 -1 0 379)" cx="84.896" cy="189.5" r="5"/>
    <circle fill="#2E75FE" transform="matrix(1 0 0 -1 0 517)" cx="70.896" cy="258.5" r="5"/>
    <circle fill="#2E75FE" transform="matrix(1 0 0 -1 0 539)" cx="123.896" cy="269.5" r="5"/>
    <circle fill="#2E75FE" transform="matrix(1 0 0 -1 0 435)" cx="51.896" cy="217.5" r="5"/>
    <path d="M384.794 250.451l-.124-.66c-.288-.639-.212-1.673-.516-2.295h.084l-.52-2.769-.416-1.771c.004-.115.008-.247.016-.37l-.016-.086c-.776 2.658-.82 8.433.852 10 .052-.558.128-1.078.852-.911l-.136-.75c-.028.021-.052.047-.076.068v-.456z" stroke="#D5E5FF"/>
    <path d="M384.95 250.312a.84.84 0 01-.212-.2v.412l.076.364c.08-.076.164-.14.24-.208l-.104-.408v.04zM384.754 252.05c.048.324.152.616.284.9l-.2-.812-.084-.088zM392.712 255.268h-1.632c.432.352.9.84 1.632 0zM391.878 254.506l.036-.012h-.008zM388.434 255.627h.924c-.296-.248-.58-.42-.924 0zM387.804 255l-1.096-1.096c-.844-.456-1.44-.832-1.44-.832.52 1.04 1.524 1.796 1.972 2.832.484.124.668-.256.944-.528l-.188-.188.528-.42c-.184-.08-.368-.16-.548-.24-.076.108-.128.256-.172.472zM391.952 254.793c.84.116 1.552-.024 1.888-.624l-1.484.492c-.132.06-.26.108-.404.132zM383.684 244.862c0 .048-.004.092-.004.136l.416 1.136c.004 0 .008.004.016.004l-.428-1.276zM385.048 249.472c.04.08.084.148.124.212v-.688l-.416-1.68h-.136l.428 2.156z" stroke="#D5E5FF"/>
    <path stroke="#D5E5FF" d="M385.002 250.762v-2.524h-.212v1.68z"/>
  </g>
</svg>
