<svg xmlns="http://www.w3.org/2000/svg" viewBox="0 0 376 266">
  <g transform="translate(2.538 1.7)" fill="none" fill-rule="evenodd">
    <circle fill="#FBA55F" transform="rotate(180 185.462 43.3)" cx="185.462" cy="43.3" r="5"/>
    <circle fill="#FBA55F" transform="rotate(180 316.462 60.3)" cx="316.462" cy="60.3" r="5"/>
    <circle fill="#FBA55F" transform="rotate(180 98.462 33.3)" cx="98.462" cy="33.3" r="5"/>
    <circle fill="#FBA55F" transform="rotate(180 223.462 40.3)" cx="223.462" cy="40.3" r="5"/>
    <circle fill="#FBA55F" transform="rotate(180 298.462 54.3)" cx="298.462" cy="54.3" r="5"/>
    <circle fill="#FBA55F" transform="rotate(180 291.462 43.3)" cx="291.462" cy="43.3" r="5"/>
    <circle fill="#FBA55F" transform="rotate(180 170.462 53.3)" cx="170.462" cy="53.3" r="5"/>
    <circle fill="#FBA55F" transform="rotate(180 253.462 55.3)" cx="253.462" cy="55.3" r="5"/>
    <circle fill="#FBA55F" transform="rotate(180 331.462 36.3)" cx="331.462" cy="36.3" r="5"/>
    <circle fill="#FBA55F" transform="rotate(180 86.462 37.3)" cx="86.462" cy="37.3" r="5"/>
    <circle fill="#FBA55F" transform="rotate(180 89.462 57.3)" cx="89.462" cy="57.3" r="5"/>
    <circle fill="#FBA55F" transform="rotate(180 335.462 52.3)" cx="335.462" cy="52.3" r="5"/>
    <circle fill="#FBA55F" transform="rotate(180 141.462 53.3)" cx="141.462" cy="53.3" r="5"/>
    <circle fill="#FBA55F" transform="rotate(180 319.462 42.3)" cx="319.462" cy="42.3" r="5"/>
    <circle fill="#FBA55F" transform="rotate(180 111.462 53.3)" cx="111.462" cy="53.3" r="5"/>
    <circle fill="#FBA55F" transform="rotate(180 349.462 54.3)" cx="349.462" cy="54.3" r="5"/>
    <circle fill="#FBA55F" transform="rotate(180 123.462 60.3)" cx="123.462" cy="60.3" r="5"/>
    <circle fill="#FBA55F" transform="rotate(180 155.462 53.3)" cx="155.462" cy="53.3" r="5"/>
    <circle fill="#FBA55F" transform="rotate(180 305.462 38.3)" cx="305.462" cy="38.3" r="5"/>
    <circle fill="#FBA55F" transform="rotate(180 329.462 66.3)" cx="329.462" cy="66.3" r="5"/>
    <circle fill="#FBA55F" transform="rotate(180 344.462 41.3)" cx="344.462" cy="41.3" r="5"/>
    <circle fill="#FBA55F" transform="rotate(180 96.462 46.3)" cx="96.462" cy="46.3" r="5"/>
    <circle fill="#FBA55F" transform="rotate(180 242.462 49.3)" cx="242.462" cy="49.3" r="5"/>
    <circle fill="#FBA55F" transform="rotate(180 248.462 40.3)" cx="248.462" cy="40.3" r="5"/>
    <circle fill="#FBA55F" transform="rotate(180 309.462 49.3)" cx="309.462" cy="49.3" r="5"/>
    <circle fill="#FBA55F" transform="rotate(180 272.462 39.3)" cx="272.462" cy="39.3" r="5"/>
    <circle fill="#FBA55F" transform="rotate(180 277.462 50.3)" cx="277.462" cy="50.3" r="5"/>
    <circle fill="#FBA55F" transform="rotate(180 122.462 47.3)" cx="122.462" cy="47.3" r="5"/>
    <circle fill="#FBA55F" transform="rotate(180 261.462 44.3)" cx="261.462" cy="44.3" r="5"/>
    <circle fill="#FBA55F" transform="rotate(180 85.462 11.3)" cx="85.462" cy="11.3" r="5"/>
    <circle fill="#FBA55F" transform="rotate(180 136.462 40.3)" cx="136.462" cy="40.3" r="5"/>
    <circle fill="#FBA55F" transform="rotate(180 101.462 62.3)" cx="101.462" cy="62.3" r="5"/>
    <circle fill="#FBA55F" transform="rotate(180 360.462 37.3)" cx="360.462" cy="37.3" r="5"/>
    <circle fill="#FBA55F" transform="rotate(180 191.462 54.3)" cx="191.462" cy="54.3" r="5"/>
    <circle fill="#FBA55F" transform="rotate(180 109.462 40.3)" cx="109.462" cy="40.3" r="5"/>
    <circle fill="#FBA55F" transform="rotate(180 167.462 40.3)" cx="167.462" cy="40.3" r="5"/>
    <circle fill="#FBA55F" transform="rotate(180 230.462 50.3)" cx="230.462" cy="50.3" r="5"/>
    <circle fill="#FBA55F" transform="rotate(180 322.462 52.3)" cx="322.462" cy="52.3" r="5"/>
    <circle fill="#FBA55F" transform="rotate(180 152.462 39.3)" cx="152.462" cy="39.3" r="5"/>
    <circle fill="#FBA55F" transform="rotate(180 210.462 55.3)" cx="210.462" cy="55.3" r="5"/>
    <circle fill="#FBA55F" transform="rotate(180 87.462 26.3)" cx="87.462" cy="26.3" r="5"/>
    <circle fill="#FBA55F" transform="rotate(180 203.462 41.3)" cx="203.462" cy="41.3" r="5"/>
    <circle fill="#2E75FE" transform="rotate(180 103.462 237.3)" cx="103.462" cy="237.3" r="5"/>
    <circle fill="#2E75FE" transform="rotate(180 19.462 204.3)" cx="19.462" cy="204.3" r="5"/>
    <circle fill="#2E75FE" transform="rotate(180 81.462 217.3)" cx="81.462" cy="217.3" r="5"/>
    <circle fill="#2E75FE" transform="rotate(180 103.462 106.3)" cx="103.462" cy="106.3" r="5"/>
    <circle fill="#2E75FE" transform="rotate(180 114.462 139.3)" cx="114.462" cy="139.3" r="5"/>
    <circle fill="#2E75FE" transform="rotate(180 99.462 81.3)" cx="99.462" cy="81.3" r="5"/>
    <circle fill="#2E75FE" transform="rotate(180 99.462 161.3)" cx="99.462" cy="161.3" r="5"/>
    <circle fill="#2E75FE" transform="rotate(180 118.462 242.3)" cx="118.462" cy="242.3" r="5"/>
    <circle fill="#2E75FE" transform="rotate(180 292.462 81.3)" cx="292.462" cy="81.3" r="5"/>
    <circle fill="#2E75FE" transform="rotate(180 331.462 85.3)" cx="331.462" cy="85.3" r="5"/>
    <circle fill="#2E75FE" transform="rotate(180 196.462 63.3)" cx="196.462" cy="63.3" r="5"/>
    <circle fill="#2E75FE" transform="rotate(180 200.462 98.3)" cx="200.462" cy="98.3" r="5"/>
    <circle fill="#2E75FE" transform="rotate(180 213.462 70.3)" cx="213.462" cy="70.3" r="5"/>
    <circle fill="#2E75FE" transform="rotate(180 273.462 61.3)" cx="273.462" cy="61.3" r="5"/>
    <circle fill="#2E75FE" transform="rotate(180 249.462 161.3)" cx="249.462" cy="161.3" r="5"/>
    <circle fill="#2E75FE" transform="rotate(180 345.462 69.3)" cx="345.462" cy="69.3" r="5"/>
    <circle fill="#2E75FE" transform="rotate(180 303.462 72.3)" cx="303.462" cy="72.3" r="5"/>
    <circle fill="#2E75FE" transform="rotate(180 289.462 62.3)" cx="289.462" cy="62.3" r="5"/>
    <circle fill="#2E75FE" transform="rotate(180 137.462 117.3)" cx="137.462" cy="117.3" r="5"/>
    <circle fill="#2E75FE" transform="rotate(180 297.462 139.3)" cx="297.462" cy="139.3" r="5"/>
    <circle fill="#2E75FE" transform="rotate(180 92.462 142.3)" cx="92.462" cy="142.3" r="5"/>
    <circle fill="#2E75FE" transform="rotate(180 242.462 117.3)" cx="242.462" cy="117.3" r="5"/>
    <circle fill="#2E75FE" transform="rotate(180 263.462 67.3)" cx="263.462" cy="67.3" r="5"/>
    <circle fill="#2E75FE" transform="rotate(180 88.462 229.3)" cx="88.462" cy="229.3" r="5"/>
    <circle fill="#2E75FE" transform="rotate(180 220.462 108.3)" cx="220.462" cy="108.3" r="5"/>
    <circle fill="#2E75FE" transform="rotate(180 329.462 125.3)" cx="329.462" cy="125.3" r="5"/>
    <circle fill="#2E75FE" transform="rotate(180 264.462 84.3)" cx="264.462" cy="84.3" r="5"/>
    <circle fill="#2E75FE" transform="rotate(180 160.462 132.3)" cx="160.462" cy="132.3" r="5"/>
    <circle fill="#2E75FE" transform="rotate(180 354.462 74.3)" cx="354.462" cy="74.3" r="5"/>
    <circle fill="#2E75FE" transform="rotate(180 321.462 225.3)" cx="321.462" cy="225.3" r="5"/>
    <circle fill="#2E75FE" transform="rotate(180 117.462 72.3)" cx="117.462" cy="72.3" r="5"/>
    <circle fill="#2E75FE" transform="rotate(180 243.462 90.3)" cx="243.462" cy="90.3" r="5"/>
    <circle fill="#2E75FE" transform="rotate(180 286.462 112.3)" cx="286.462" cy="112.3" r="5"/>
    <circle fill="#2E75FE" transform="rotate(180 190.462 85.3)" cx="190.462" cy="85.3" r="5"/>
    <circle fill="#2E75FE" transform="rotate(180 138.462 152.3)" cx="138.462" cy="152.3" r="5"/>
    <circle fill="#2E75FE" transform="rotate(180 85.462 172.3)" cx="85.462" cy="172.3" r="5"/>
    <circle fill="#2E75FE" transform="rotate(180 177.462 71.3)" cx="177.462" cy="71.3" r="5"/>
    <circle fill="#2E75FE" transform="rotate(180 123.462 89.3)" cx="123.462" cy="89.3" r="5"/>
    <circle fill="#2E75FE" transform="rotate(180 86.462 115.3)" cx="86.462" cy="115.3" r="5"/>
    <circle fill="#2E75FE" transform="rotate(180 75.462 203.3)" cx="75.462" cy="203.3" r="5"/>
    <circle fill="#2E75FE" transform="rotate(180 58.462 173.3)" cx="58.462" cy="173.3" r="5"/>
    <circle fill="#2E75FE" transform="rotate(180 58.462 197.3)" cx="58.462" cy="197.3" r="5"/>
    <circle fill="#2E75FE" transform="rotate(180 144.462 176.3)" cx="144.462" cy="176.3" r="5"/>
    <circle fill="#2E75FE" transform="rotate(180 143.462 136.3)" cx="143.462" cy="136.3" r="5"/>
    <circle fill="#2E75FE" transform="rotate(180 366.462 141.3)" cx="366.462" cy="141.3" r="5"/>
    <circle fill="#2E75FE" transform="rotate(180 314.462 82.3)" cx="314.462" cy="82.3" r="5"/>
    <circle fill="#2E75FE" transform="rotate(180 185.462 156.3)" cx="185.462" cy="156.3" r="5"/>
    <circle fill="#2E75FE" transform="rotate(180 283.462 165.3)" cx="283.462" cy="165.3" r="5"/>
    <circle fill="#2E75FE" transform="rotate(180 154.462 198.3)" cx="154.462" cy="198.3" r="5"/>
    <circle fill="#2E75FE" transform="rotate(180 156.462 150.3)" cx="156.462" cy="150.3" r="5"/>
    <circle fill="#2E75FE" transform="rotate(180 213.462 103.3)" cx="213.462" cy="103.3" r="5"/>
    <circle fill="#2E75FE" transform="rotate(180 256.462 179.3)" cx="256.462" cy="179.3" r="5"/>
    <circle fill="#2E75FE" transform="rotate(180 287.462 129.3)" cx="287.462" cy="129.3" r="5"/>
    <circle fill="#2E75FE" transform="rotate(180 190.462 130.3)" cx="190.462" cy="130.3" r="5"/>
    <circle fill="#2E75FE" transform="rotate(180 255.462 100.3)" cx="255.462" cy="100.3" r="5"/>
    <circle fill="#2E75FE" transform="rotate(180 128.462 193.3)" cx="128.462" cy="193.3" r="5"/>
    <circle fill="#2E75FE" transform="rotate(180 223.462 140.3)" cx="223.462" cy="140.3" r="5"/>
    <circle fill="#2E75FE" transform="rotate(180 253.462 129.3)" cx="253.462" cy="129.3" r="5"/>
    <circle fill="#2E75FE" transform="rotate(180 253.462 68.3)" cx="253.462" cy="68.3" r="5"/>
    <circle fill="#2E75FE" transform="rotate(180 312.462 136.3)" cx="312.462" cy="136.3" r="5"/>
    <circle fill="#2E75FE" transform="rotate(180 275.462 71.3)" cx="275.462" cy="71.3" r="5"/>
    <circle fill="#2E75FE" transform="rotate(180 176.462 114.3)" cx="176.462" cy="114.3" r="5"/>
    <circle fill="#2E75FE" transform="rotate(180 272.462 131.3)" cx="272.462" cy="131.3" r="5"/>
    <circle fill="#2E75FE" transform="rotate(180 183.462 106.3)" cx="183.462" cy="106.3" r="5"/>
    <circle fill="#2E75FE" transform="rotate(180 224.462 61.3)" cx="224.462" cy="61.3" r="5"/>
    <circle fill="#2E75FE" transform="rotate(180 172.462 133.3)" cx="172.462" cy="133.3" r="5"/>
    <circle fill="#2E75FE" transform="rotate(180 86.462 70.3)" cx="86.462" cy="70.3" r="5"/>
    <circle fill="#2E75FE" transform="rotate(180 119.462 104.3)" cx="119.462" cy="104.3" r="5"/>
    <circle fill="#2E75FE" transform="rotate(180 265.462 113.3)" cx="265.462" cy="113.3" r="5"/>
    <circle fill="#2E75FE" transform="rotate(180 302.462 96.3)" cx="302.462" cy="96.3" r="5"/>
    <circle fill="#2E75FE" transform="rotate(180 196.462 111.3)" cx="196.462" cy="111.3" r="5"/>
    <circle fill="#2E75FE" transform="rotate(180 323.462 101.3)" cx="323.462" cy="101.3" r="5"/>
    <circle fill="#2E75FE" transform="rotate(180 228.462 154.3)" cx="228.462" cy="154.3" r="5"/>
    <circle fill="#2E75FE" transform="rotate(180 237.462 71.3)" cx="237.462" cy="71.3" r="5"/>
    <circle fill="#2E75FE" transform="rotate(180 205.462 83.3)" cx="205.462" cy="83.3" r="5"/>
    <circle fill="#2E75FE" transform="rotate(180 282.462 144.3)" cx="282.462" cy="144.3" r="5"/>
    <circle fill="#2E75FE" transform="rotate(180 317.462 163.3)" cx="317.462" cy="163.3" r="5"/>
    <circle fill="#2E75FE" transform="rotate(180 274.462 175.3)" cx="274.462" cy="175.3" r="5"/>
    <circle fill="#2E75FE" transform="rotate(180 343.462 164.3)" cx="343.462" cy="164.3" r="5"/>
    <circle fill="#2E75FE" transform="rotate(180 74.462 186.3)" cx="74.462" cy="186.3" r="5"/>
    <circle fill="#2E75FE" transform="rotate(180 355.462 118.3)" cx="355.462" cy="118.3" r="5"/>
    <circle fill="#2E75FE" transform="rotate(180 308.462 176.3)" cx="308.462" cy="176.3" r="5"/>
    <circle fill="#2E75FE" transform="rotate(180 341.462 111.3)" cx="341.462" cy="111.3" r="5"/>
    <circle fill="#2E75FE" transform="rotate(180 234.462 204.3)" cx="234.462" cy="204.3" r="5"/>
    <circle fill="#2E75FE" transform="rotate(180 117.462 168.3)" cx="117.462" cy="168.3" r="5"/>
    <circle fill="#2E75FE" transform="rotate(180 162.462 104.3)" cx="162.462" cy="104.3" r="5"/>
    <circle fill="#2E75FE" transform="rotate(180 236.462 101.3)" cx="236.462" cy="101.3" r="5"/>
    <circle fill="#2E75FE" transform="rotate(180 176.462 145.3)" cx="176.462" cy="145.3" r="5"/>
    <circle fill="#2E75FE" transform="rotate(180 151.462 82.3)" cx="151.462" cy="82.3" r="5"/>
    <circle fill="#2E75FE" transform="rotate(180 119.462 122.3)" cx="119.462" cy="122.3" r="5"/>
    <circle fill="#2E75FE" transform="rotate(180 102.462 188.3)" cx="102.462" cy="188.3" r="5"/>
    <circle fill="#2E75FE" transform="rotate(180 131.462 133.3)" cx="131.462" cy="133.3" r="5"/>
    <circle fill="#2E75FE" transform="rotate(180 111.462 215.3)" cx="111.462" cy="215.3" r="5"/>
    <circle fill="#2E75FE" transform="rotate(180 164.462 180.3)" cx="164.462" cy="180.3" r="5"/>
    <circle fill="#2E75FE" transform="rotate(180 187.462 198.3)" cx="187.462" cy="198.3" r="5"/>
    <circle fill="#2E75FE" transform="rotate(180 111.462 94.3)" cx="111.462" cy="94.3" r="5"/>
    <circle fill="#2E75FE" transform="rotate(180 152.462 110.3)" cx="152.462" cy="110.3" r="5"/>
    <circle fill="#2E75FE" transform="rotate(180 163.462 162.3)" cx="163.462" cy="162.3" r="5"/>
    <circle fill="#2E75FE" transform="rotate(180 299.462 160.3)" cx="299.462" cy="160.3" r="5"/>
    <circle fill="#2E75FE" transform="rotate(180 280.462 92.3)" cx="280.462" cy="92.3" r="5"/>
    <circle fill="#2E75FE" transform="rotate(180 166.462 84.3)" cx="166.462" cy="84.3" r="5"/>
    <circle fill="#2E75FE" transform="rotate(180 205.462 130.3)" cx="205.462" cy="130.3" r="5"/>
    <circle fill="#2E75FE" transform="rotate(180 349.462 102.3)" cx="349.462" cy="102.3" r="5"/>
    <circle fill="#2E75FE" transform="rotate(180 266.462 205.3)" cx="266.462" cy="205.3" r="5"/>
    <circle fill="#2E75FE" transform="rotate(180 227.462 175.3)" cx="227.462" cy="175.3" r="5"/>
    <circle fill="#2E75FE" transform="rotate(180 219.462 191.3)" cx="219.462" cy="191.3" r="5"/>
    <circle fill="#2E75FE" transform="rotate(180 172.462 192.3)" cx="172.462" cy="192.3" r="5"/>
    <circle fill="#2E75FE" transform="rotate(180 309.462 217.3)" cx="309.462" cy="217.3" r="5"/>
    <circle fill="#2E75FE" transform="rotate(180 329.462 145.3)" cx="329.462" cy="145.3" r="5"/>
    <circle fill="#2E75FE" transform="rotate(180 345.462 139.3)" cx="345.462" cy="139.3" r="5"/>
    <circle fill="#2E75FE" transform="rotate(180 344.462 87.3)" cx="344.462" cy="87.3" r="5"/>
    <circle fill="#2E75FE" transform="matrix(1 0 0 -1 0 406.6)" cx="345.462" cy="203.3" r="5"/>
    <circle fill="#2E75FE" transform="matrix(1 0 0 -1 0 194.6)" cx="142.462" cy="97.3" r="5"/>
    <circle fill="#2E75FE" transform="matrix(1 0 0 -1 0 488.6)" cx="176.462" cy="244.3" r="5"/>
    <circle fill="#2E75FE" transform="matrix(1 0 0 -1 0 254.6)" cx="101.462" cy="127.3" r="5"/>
    <circle fill="#2E75FE" transform="matrix(1 0 0 -1 0 494.6)" cx="104.462" cy="247.3" r="5"/>
    <circle fill="#2E75FE" transform="matrix(1 0 0 -1 0 338.6)" cx="128.462" cy="169.3" r="5"/>
    <circle fill="#2E75FE" transform="matrix(1 0 0 -1 0 382.6)" cx="38.462" cy="191.3" r="5"/>
    <circle fill="#2E75FE" transform="matrix(1 0 0 -1 0 488.6)" cx="358.462" cy="244.3" r="5"/>
    <circle fill="#2E75FE" transform="matrix(1 0 0 -1 0 474.6)" cx="280.462" cy="237.3" r="5"/>
    <circle fill="#2E75FE" transform="matrix(1 0 0 -1 0 356.6)" cx="294.462" cy="178.3" r="5"/>
    <circle fill="#2E75FE" transform="matrix(1 0 0 -1 0 378.6)" cx="319.462" cy="189.3" r="5"/>
    <circle fill="#2E75FE" transform="matrix(1 0 0 -1 0 286.6)" cx="258.462" cy="143.3" r="5"/>
    <circle fill="#2E75FE" transform="matrix(1 0 0 -1 0 324.6)" cx="360.462" cy="162.3" r="5"/>
    <circle fill="#2E75FE" transform="matrix(1 0 0 -1 0 208.6)" cx="82.462" cy="104.3" r="5"/>
    <circle fill="#2E75FE" transform="matrix(1 0 0 -1 0 436.6)" cx="167.462" cy="218.3" r="5"/>
    <circle fill="#2E75FE" transform="matrix(1 0 0 -1 0 434.6)" cx="226.462" cy="217.3" r="5"/>
    <circle fill="#2E75FE" transform="matrix(1 0 0 -1 0 490.6)" cx="140.462" cy="245.3" r="5"/>
    <circle fill="#2E75FE" transform="matrix(1 0 0 -1 0 412.6)" cx="217.462" cy="206.3" r="5"/>
    <circle fill="#2E75FE" transform="matrix(1 0 0 -1 0 464.6)" cx="363.462" cy="232.3" r="5"/>
    <circle fill="#2E75FE" transform="matrix(1 0 0 -1 0 466.6)" cx="346.462" cy="233.3" r="5"/>
    <circle fill="#2E75FE" transform="matrix(1 0 0 -1 0 406.6)" cx="288.462" cy="203.3" r="5"/>
    <circle fill="#2E75FE" transform="matrix(1 0 0 -1 0 402.6)" cx="315.462" cy="201.3" r="5"/>
    <circle fill="#2E75FE" transform="matrix(1 0 0 -1 0 424.6)" cx="332.462" cy="212.3" r="5"/>
    <circle fill="#2E75FE" transform="matrix(1 0 0 -1 0 354.6)" cx="359.462" cy="177.3" r="5"/>
    <circle fill="#2E75FE" transform="matrix(1 0 0 -1 0 408.6)" cx="52.462" cy="204.3" r="5"/>
    <circle fill="#2E75FE" transform="matrix(1 0 0 -1 0 212.6)" cx="276.462" cy="106.3" r="5"/>
    <circle fill="#2E75FE" transform="matrix(1 0 0 -1 0 358.6)" cx="340.462" cy="179.3" r="5"/>
    <circle fill="#2E75FE" transform="matrix(1 0 0 -1 0 356.6)" cx="196.462" cy="178.3" r="5"/>
    <circle fill="#2E75FE" transform="matrix(1 0 0 -1 0 196.6)" cx="292.462" cy="98.3" r="5"/>
    <circle fill="#2E75FE" transform="matrix(1 0 0 -1 0 298.6)" cx="310.462" cy="149.3" r="5"/>
    <circle fill="#2E75FE" transform="matrix(1 0 0 -1 0 402.6)" cx="276.462" cy="201.3" r="5"/>
    <circle fill="#2E75FE" transform="matrix(1 0 0 -1 0 420.6)" cx="368.462" cy="210.3" r="5"/>
    <circle fill="#2E75FE" transform="matrix(1 0 0 -1 0 388.6)" cx="352.462" cy="194.3" r="5"/>
    <circle fill="#2E75FE" transform="matrix(1 0 0 -1 0 324.6)" cx="333.462" cy="162.3" r="5"/>
    <circle fill="#2E75FE" transform="matrix(1 0 0 -1 0 396.6)" cx="332.462" cy="198.3" r="5"/>
    <circle fill="#2E75FE" transform="matrix(1 0 0 -1 0 430.6)" cx="44.462" cy="215.3" r="5"/>
    <circle fill="#2E75FE" transform="matrix(1 0 0 -1 0 348.6)" cx="98.462" cy="174.3" r="5"/>
    <circle fill="#2E75FE" transform="matrix(1 0 0 -1 0 250.6)" cx="225.462" cy="125.3" r="5"/>
    <circle fill="#2E75FE" transform="matrix(1 0 0 -1 0 246.6)" cx="71.462" cy="123.3" r="5"/>
    <circle fill="#2E75FE" transform="matrix(1 0 0 -1 0 176.6)" cx="222.462" cy="88.3" r="5"/>
    <circle fill="#2E75FE" transform="matrix(1 0 0 -1 0 434.6)" cx="346.462" cy="217.3" r="5"/>
    <circle fill="#2E75FE" transform="matrix(1 0 0 -1 0 352.6)" cx="242.462" cy="176.3" r="5"/>
    <circle fill="#2E75FE" transform="matrix(1 0 0 -1 0 384.6)" cx="261.462" cy="192.3" r="5"/>
    <circle fill="#2E75FE" transform="matrix(1 0 0 -1 0 470.6)" cx="264.462" cy="235.3" r="5"/>
    <circle fill="#2E75FE" transform="matrix(1 0 0 -1 0 476.6)" cx="330.462" cy="238.3" r="5"/>
    <circle fill="#2E75FE" transform="matrix(1 0 0 -1 0 320.6)" cx="266.462" cy="160.3" r="5"/>
    <circle fill="#2E75FE" transform="matrix(1 0 0 -1 0 184.6)" cx="176.462" cy="92.3" r="5"/>
    <circle fill="#2E75FE" transform="matrix(1 0 0 -1 0 374.6)" cx="58.462" cy="187.3" r="5"/>
    <circle fill="#2E75FE" transform="matrix(1 0 0 -1 0 436.6)" cx="273.462" cy="218.3" r="5"/>
    <circle fill="#2E75FE" transform="matrix(1 0 0 -1 0 296.6)" cx="242.462" cy="148.3" r="5"/>
    <circle fill="#2E75FE" transform="matrix(1 0 0 -1 0 350.6)" cx="34.462" cy="175.3" r="5"/>
    <circle fill="#2E75FE" transform="matrix(1 0 0 -1 0 382.6)" cx="237.462" cy="191.3" r="5"/>
    <circle fill="#2E75FE" transform="matrix(1 0 0 -1 0 462.6)" cx="298.462" cy="231.3" r="5"/>
    <circle fill="#2E75FE" transform="matrix(1 0 0 -1 0 480.6)" cx="211.462" cy="240.3" r="5"/>
    <circle fill="#2E75FE" transform="matrix(1 0 0 -1 0 404.6)" cx="251.462" cy="202.3" r="5"/>
    <circle fill="#2E75FE" transform="matrix(1 0 0 -1 0 476.6)" cx="313.462" cy="238.3" r="5"/>
    <circle fill="#2E75FE" transform="matrix(1 0 0 -1 0 138.6)" cx="143.462" cy="69.3" r="5"/>
    <circle fill="#2E75FE" transform="matrix(1 0 0 -1 0 386.6)" cx="301.462" cy="193.3" r="5"/>
    <circle fill="#2E75FE" transform="matrix(1 0 0 -1 0 310.6)" cx="212.462" cy="155.3" r="5"/>
    <circle fill="#2E75FE" transform="matrix(1 0 0 -1 0 188.6)" cx="87.462" cy="94.3" r="5"/>
    <circle fill="#2E75FE" transform="matrix(1 0 0 -1 0 442.6)" cx="290.462" cy="221.3" r="5"/>
    <circle fill="#2E75FE" transform="matrix(1 0 0 -1 0 248.6)" cx="342.462" cy="124.3" r="5"/>
    <circle fill="#2E75FE" transform="matrix(1 0 0 -1 0 352.6)" cx="212.462" cy="176.3" r="5"/>
    <circle fill="#2E75FE" transform="matrix(1 0 0 -1 0 256.6)" cx="61.462" cy="128.3" r="5"/>
    <circle fill="#2E75FE" transform="matrix(1 0 0 -1 0 166.6)" cx="137.462" cy="83.3" r="5"/>
    <circle fill="#2E75FE" transform="matrix(1 0 0 -1 0 354.6)" cx="324.462" cy="177.3" r="5"/>
    <circle fill="#2E75FE" transform="matrix(1 0 0 -1 0 298.6)" cx="199.462" cy="149.3" r="5"/>
    <circle fill="#2E75FE" transform="matrix(1 0 0 -1 0 356.6)" cx="182.462" cy="178.3" r="5"/>
    <circle fill="#2E75FE" transform="matrix(1 0 0 -1 0 412.6)" cx="95.462" cy="206.3" r="5"/>
    <circle fill="#2E75FE" transform="matrix(1 0 0 -1 0 264.6)" cx="80.462" cy="132.3" r="5"/>
    <circle fill="#2E75FE" transform="matrix(1 0 0 -1 0 444.6)" cx="257.462" cy="222.3" r="5"/>
    <circle fill="#2E75FE" transform="matrix(1 0 0 -1 0 482.6)" cx="233.462" cy="241.3" r="5"/>
    <circle fill="#2E75FE" transform="matrix(1 0 0 -1 0 128.6)" cx="162.462" cy="64.3" r="5"/>
    <circle fill="#2E75FE" transform="matrix(1 0 0 -1 0 418.6)" cx="136.462" cy="209.3" r="5"/>
    <circle fill="#2E75FE" transform="matrix(1 0 0 -1 0 458.6)" cx="151.462" cy="229.3" r="5"/>
    <circle fill="#2E75FE" transform="matrix(1 0 0 -1 0 472.6)" cx="200.462" cy="236.3" r="5"/>
    <circle fill="#2E75FE" transform="matrix(1 0 0 -1 0 472.6)" cx="222.462" cy="236.3" r="5"/>
    <circle fill="#2E75FE" transform="matrix(1 0 0 -1 0 484.6)" cx="157.462" cy="242.3" r="5"/>
    <circle fill="#2E75FE" transform="matrix(1 0 0 -1 0 388.6)" cx="84.462" cy="194.3" r="5"/>
    <circle fill="#2E75FE" transform="matrix(1 0 0 -1 0 466.6)" cx="185.462" cy="233.3" r="5"/>
    <circle fill="#2E75FE" transform="matrix(1 0 0 -1 0 206.6)" cx="361.462" cy="103.3" r="5"/>
    <circle fill="#2E75FE" transform="matrix(1 0 0 -1 0 398.6)" cx="111.462" cy="199.3" r="5"/>
    <circle fill="#2E75FE" transform="matrix(1 0 0 -1 0 230.6)" cx="315.462" cy="115.3" r="5"/>
    <circle fill="#2E75FE" transform="matrix(1 0 0 -1 0 464.6)" cx="137.462" cy="232.3" r="5"/>
    <circle fill="#2E75FE" transform="matrix(1 0 0 -1 0 232.6)" cx="299.462" cy="116.3" r="5"/>
    <circle fill="#2E75FE" transform="matrix(1 0 0 -1 0 320.6)" cx="51.462" cy="160.3" r="5"/>
    <circle fill="#2E75FE" transform="matrix(1 0 0 -1 0 454.6)" cx="238.462" cy="227.3" r="5"/>
    <circle fill="#2E75FE" transform="matrix(1 0 0 -1 0 440.6)" cx="97.462" cy="220.3" r="5"/>
    <circle fill="#2E75FE" transform="matrix(1 0 0 -1 0 432.6)" cx="11.462" cy="216.3" r="5"/>
    <circle fill="#2E75FE" transform="matrix(1 0 0 -1 0 314.6)" cx="59.462" cy="157.3" r="5"/>
    <circle fill="#2E75FE" transform="matrix(1 0 0 -1 0 310.6)" cx="122.462" cy="155.3" r="5"/>
    <circle fill="#2E75FE" transform="matrix(1 0 0 -1 0 376.6)" cx="24.462" cy="188.3" r="5"/>
    <circle fill="#2E75FE" transform="matrix(1 0 0 -1 0 324.6)" cx="198.462" cy="162.3" r="5"/>
    <circle fill="#2E75FE" transform="matrix(1 0 0 -1 0 462.6)" cx="171.462" cy="231.3" r="5"/>
    <circle fill="#2E75FE" transform="matrix(1 0 0 -1 0 216.6)" cx="71.462" cy="108.3" r="5"/>
    <circle fill="#2E75FE" transform="matrix(1 0 0 -1 0 442.6)" cx="133.462" cy="221.3" r="5"/>
    <circle fill="#2E75FE" transform="matrix(1 0 0 -1 0 150.6)" cx="331.462" cy="75.3" r="5"/>
    <circle fill="#2E75FE" transform="matrix(1 0 0 -1 0 368.6)" cx="116.462" cy="184.3" r="5"/>
    <circle fill="#2E75FE" transform="matrix(1 0 0 -1 0 374.6)" cx="276.462" cy="187.3" r="5"/>
    <circle fill="#2E75FE" transform="matrix(1 0 0 -1 0 404.6)" cx="205.462" cy="202.3" r="5"/>
    <circle fill="#2E75FE" transform="matrix(1 0 0 -1 0 434.6)" cx="32.462" cy="217.3" r="5"/>
    <circle fill="#2E75FE" transform="matrix(1 0 0 -1 0 442.6)" cx="209.462" cy="221.3" r="5"/>
    <circle fill="#2E75FE" transform="matrix(1 0 0 -1 0 422.6)" cx="62.462" cy="211.3" r="5"/>
    <circle fill="#2E75FE" transform="matrix(1 0 0 -1 0 470.6)" cx="249.462" cy="235.3" r="5"/>
    <circle fill="#2E75FE" transform="matrix(1 0 0 -1 0 408.6)" cx="35.462" cy="204.3" r="5"/>
    <circle fill="#2E75FE" transform="matrix(1 0 0 -1 0 300.6)" cx="75.462" cy="150.3" r="5"/>
    <circle fill="#2E75FE" transform="matrix(1 0 0 -1 0 460.6)" cx="47.462" cy="230.3" r="5"/>
    <circle fill="#2E75FE" transform="matrix(1 0 0 -1 0 376.6)" cx="139.462" cy="188.3" r="5"/>
    <circle fill="#2E75FE" transform="matrix(1 0 0 -1 0 432.6)" cx="243.462" cy="216.3" r="5"/>
    <circle fill="#2E75FE" transform="matrix(1 0 0 -1 0 418.6)" cx="123.462" cy="209.3" r="5"/>
    <circle fill="#2E75FE" transform="matrix(1 0 0 -1 0 426.6)" cx="149.462" cy="213.3" r="5"/>
    <circle fill="#2E75FE" transform="matrix(1 0 0 -1 0 442.6)" cx="66.462" cy="221.3" r="5"/>
    <circle fill="#2E75FE" transform="matrix(1 0 0 -1 0 426.6)" cx="190.462" cy="213.3" r="5"/>
    <path d="M371.924 247.536L370.275 33.06l-.83-.827H124.392c-7.03-1.24-15.294-2.892-20.662-7.438-3.306.413-10.749-5.372-12.815-7.439-4.546-4.132-2.48-9.091-2.066-14.463-.823-1.24-2.067-2.48-3.716-2.893-2.066 1.24-4.55 2.066-6.616 2.893-2.48 4.959 1.653 12.81 1.653 18.596 0 5.372 1.657 13.637-.409 18.596-.826 2.48-3.723 3.306-3.723 6.199 0 2.066 2.897 7.438 3.723 9.505 2.066 5.372 4.133 10.744 4.955 16.53.827 4.545-.413 8.265-3.306 11.984-1.649 2.48-5.372 3.72-6.608 5.785-1.657 2.48-.83 4.133-1.657 7.026-2.066 5.785-6.199 9.091-10.74 12.81-5.372 4.546-9.922 9.918-14.055 15.704 0 1.653 0 2.893-.409 4.546 4.542 10.33 12.398 16.116 21.489 6.198l2.889.413v.414l-1.65.826c-1.239 2.066-4.132 4.546-6.615 5.372-5.373 1.653-7.439-2.066-11.571-3.306-8.674-2.479-8.265 7.026-11.98 12.811-1.658 2.893-3.724 5.372-5.79 7.852-3.302 4.132-7.434 6.612-11.158 10.331-4.132 4.546-2.893 4.96-3.306 10.331-.409 4.96-2.893 8.265-6.199 11.571l-2.066.414c-4.132 5.372-5.785 13.224-8.674 19.01-.826.826-1.657 1.239-2.893 1.239l-.417.826.417.827c1.65 1.24 2.476 3.306 2.476 5.372 1.657 2.48 3.723 4.96 4.959 7.025 1.24.827 2.897 1.653 4.545 1.24.827-.826 1.653-1.653 2.484-2.48 2.605 0 5.323-.852 8.05-1.65 4.626-1.356 9.276-2.556 13.44.824 4.54 3.72 3.305 11.158 6.607 15.29 5.372-.826 12.397-3.719 16.12-7.851 2.89-2.893 3.307-9.918 8.675-8.679-2.066 1.24-2.475 3.72-2.475 6.2l.409.826c5.372-.827 10.33-2.067 15.703 0 2.066.826 3.723 2.48 5.79 2.892 2.066.414 3.302-1.653 5.368.414-3.302 1.24-8.265 1.653-11.158 3.719 1.657 2.893 2.893 5.785 2.893 9.505 4.132.413 8.265 0 11.988 2.066 3.306 2.066 4.133 5.372 6.608 8.265 2.897.826 5.372 2.066 7.439 3.719 2.892 0 5.79-1.24 8.265-2.066 0-3.306-.827-7.439.826-10.745l.83-1.24h251.665v-.413z" stroke="#D5E5FF" stroke-width="3"/>
  </g>
</svg>
