<svg xmlns="http://www.w3.org/2000/svg" viewBox="0 0 215 97">
  <g transform="translate(0 1.5)" fill="none" fill-rule="evenodd">
    <g opacity=".2" fill="#D5E5FF">
      <path d="M20.784 17.647H30.88c.066 0 .119.056.119.125v13.603a.122.122 0 01-.12.125H.12a.122.122 0 01-.12-.125v-13.46c0-.069.053-.125.12-.125h10.246c.066 0 .12-.055.12-.124v-1.338c0-.038.016-.073.044-.097l4.592-3.884a.128.128 0 00.044-.097V6.3c0-.062.042-.114.1-.124l3.919-.674c.072-.013.138.046.138.123v2.88c0 .06-.04.11-.094.122l-3.242.728a.123.123 0 00-.094.122v2.668c0 .037.016.072.044.096l4.676 4.037a.127.127 0 01.043.095l.009 1.15c0 .068.053.124.119.124zM140.784 17.647h10.097c.066 0 .119.056.119.125v13.603a.122.122 0 01-.12.125h-30.76a.122.122 0 01-.12-.125v-13.46c0-.069.053-.125.12-.125h10.246c.066 0 .12-.055.12-.124v-1.338c0-.038.016-.073.044-.097l4.592-3.884a.128.128 0 00.044-.097V6.3c0-.062.042-.114.1-.124l3.919-.674c.072-.013.138.046.138.123v2.88c0 .06-.04.11-.094.122l-3.242.728a.123.123 0 00-.094.122v2.668c0 .037.016.072.044.096l4.676 4.037a.127.127 0 01.043.095l.009 1.15c0 .068.053.124.119.124zM51.784 37.647H61.88c.066 0 .119.056.119.125v13.603a.122.122 0 01-.12.125H31.12a.122.122 0 01-.12-.125v-13.46c0-.069.053-.125.12-.125h10.246c.066 0 .12-.055.12-.124v-1.338c0-.038.016-.073.044-.097l4.592-3.884a.128.128 0 00.044-.097V26.3c0-.062.042-.114.1-.124l3.919-.674c.072-.013.138.046.138.123v2.88c0 .06-.04.11-.094.122l-3.242.728a.123.123 0 00-.094.122v2.668c0 .037.016.072.044.096l4.676 4.037a.127.127 0 01.043.095l.009 1.15c0 .068.053.124.119.124zM171.784 37.647h10.097c.066 0 .119.056.119.125v13.603a.122.122 0 01-.12.125h-30.76a.122.122 0 01-.12-.125v-13.46c0-.069.053-.125.12-.125h10.246c.066 0 .12-.055.12-.124v-1.338c0-.038.016-.073.044-.097l4.592-3.884a.128.128 0 00.044-.097V26.3c0-.062.042-.114.1-.124l3.919-.674c.072-.013.138.046.138.123v2.88c0 .06-.04.11-.094.122l-3.242.728a.123.123 0 00-.094.122v2.668c0 .037.016.072.044.096l4.676 4.037a.127.127 0 01.043.095l.009 1.15c0 .068.053.124.119.124zM84.784 17.647H94.88c.066 0 .119.056.119.125v13.603a.122.122 0 01-.12.125H64.12a.122.122 0 01-.12-.125v-13.46c0-.069.053-.125.12-.125h10.246c.066 0 .12-.055.12-.124v-1.338c0-.038.016-.073.044-.097l4.592-3.884a.128.128 0 00.044-.097V6.3c0-.062.042-.114.1-.124l3.919-.674c.072-.013.138.046.138.123v2.88c0 .06-.04.11-.094.122l-3.242.728a.123.123 0 00-.094.122v2.668c0 .037.016.072.044.096l4.676 4.037a.127.127 0 01.043.095l.009 1.15c0 .068.053.124.119.124zM204.784 17.647h10.097c.066 0 .119.056.119.125v13.603a.122.122 0 01-.12.125h-30.76a.122.122 0 01-.12-.125v-13.46c0-.069.053-.125.12-.125h10.246c.066 0 .12-.055.12-.124v-1.338c0-.038.016-.073.044-.097l4.592-3.884a.128.128 0 00.044-.097V6.3c0-.062.042-.114.1-.124l3.919-.674c.072-.013.138.046.138.123v2.88c0 .06-.04.11-.094.122l-3.242.728a.123.123 0 00-.094.122v2.668c0 .037.016.072.044.096l4.676 4.037a.127.127 0 01.043.095l.009 1.15c0 .068.053.124.119.124z"/>
    </g>
    <path d="M127.085 43.915h38.227c.25 0 .451.202.451.451V93.55a.451.451 0 01-.45.451H48.85a.451.451 0 01-.451-.451V44.886a.45.45 0 01.45-.451h38.795a.45.45 0 00.451-.451v-4.836a.45.45 0 01.168-.35l17.387-14.045a.453.453 0 00.168-.35V2.888c0-.222.16-.41.378-.445L121.03.006a.45.45 0 01.525.445v10.414a.45.45 0 01-.357.442l-12.272 2.632a.45.45 0 00-.356.44v9.645c0 .135.06.262.164.347l17.704 14.595a.451.451 0 01.165.345l.031 4.156a.451.451 0 00.451.448z" stroke="#FFF" stroke-width="3" fill="#081248" stroke-linejoin="round"/>
    <circle fill="#2E75FE" transform="rotate(180 73 61.5)" cx="73" cy="61.5" r="5"/>
    <circle fill="#2E75FE" transform="rotate(180 61 85.5)" cx="61" cy="85.5" r="5"/>
    <circle fill="#2E75FE" transform="rotate(180 70 80.5)" cx="70" cy="80.5" r="5"/>
    <circle fill="#2E75FE" transform="rotate(180 84 56.5)" cx="84" cy="56.5" r="5"/>
    <circle fill="#2E75FE" transform="rotate(180 137 85.5)" cx="137" cy="85.5" r="5"/>
    <circle fill="#2E75FE" transform="rotate(180 93 85.5)" cx="93" cy="85.5" r="5"/>
    <circle fill="#2E75FE" transform="rotate(180 56 57.5)" cx="56" cy="57.5" r="5"/>
    <circle fill="#2E75FE" transform="rotate(180 100 57.5)" cx="100" cy="57.5" r="5"/>
    <circle fill="#2E75FE" transform="rotate(180 79 84.5)" cx="79" cy="84.5" r="5"/>
    <circle fill="#2E75FE" transform="rotate(180 105 69.5)" cx="105" cy="69.5" r="5"/>
    <circle fill="#2E75FE" transform="rotate(180 116 63.5)" cx="116" cy="63.5" r="5"/>
    <circle fill="#2E75FE" transform="rotate(180 160 60.5)" cx="160" cy="60.5" r="5"/>
    <circle fill="#2E75FE" transform="rotate(180 148 84.5)" cx="148" cy="84.5" r="5"/>
    <circle fill="#2E75FE" transform="rotate(180 159 76.5)" cx="159" cy="76.5" r="5"/>
    <circle fill="#2E75FE" transform="rotate(180 139 72.5)" cx="139" cy="72.5" r="5"/>
    <circle fill="#2E75FE" transform="rotate(180 127 72.5)" cx="127" cy="72.5" r="5"/>
    <circle fill="#2E75FE" transform="rotate(180 147 64.5)" cx="147" cy="64.5" r="5"/>
    <circle fill="#2E75FE" transform="rotate(180 117 76.5)" cx="117" cy="76.5" r="5"/>
    <circle fill="#2E75FE" transform="rotate(180 125 85.5)" cx="125" cy="85.5" r="5"/>
    <circle fill="#2E75FE" transform="rotate(180 106 83.5)" cx="106" cy="83.5" r="5"/>
    <circle fill="#2E75FE" transform="rotate(180 93 66.5)" cx="93" cy="66.5" r="5"/>
    <circle fill="#2E75FE" transform="rotate(180 81 71.5)" cx="81" cy="71.5" r="5"/>
    <circle fill="#2E75FE" transform="rotate(180 64 70.5)" cx="64" cy="70.5" r="5"/>
    <circle fill="#2E75FE" transform="rotate(180 56 75.5)" cx="56" cy="75.5" r="5"/>
    <circle fill="#2E75FE" transform="rotate(180 131 62.5)" cx="131" cy="62.5" r="5"/>
    <circle fill="#FBA55F" transform="rotate(180 96 45.5)" cx="96" cy="45.5" r="5"/>
    <circle fill="#FBA55F" transform="rotate(180 107 33.5)" cx="107" cy="33.5" r="5"/>
    <circle fill="#FBA55F" transform="rotate(180 70 51.5)" cx="70" cy="51.5" r="5"/>
    <circle fill="#FBA55F" transform="rotate(180 153 50.5)" cx="153" cy="50.5" r="5"/>
    <circle fill="#FBA55F" transform="rotate(180 137 51.5)" cx="137" cy="51.5" r="5"/>
    <circle fill="#FBA55F" transform="rotate(180 109 44.5)" cx="109" cy="44.5" r="5"/>
    <circle fill="#FBA55F" transform="rotate(180 119 49.5)" cx="119" cy="49.5" r="5"/>
  </g>
</svg>
