<?xml version="1.0" standalone="no"?>
<!DOCTYPE svg PUBLIC "-//W3C//DTD SVG 20010904//EN"
 "http://www.w3.org/TR/2001/REC-SVG-20010904/DTD/svg10.dtd">
<svg version="1.0" xmlns="http://www.w3.org/2000/svg"
 width="700.000000pt" height="700.000000pt" viewBox="0 0 700.000000 700.000000"
 preserveAspectRatio="xMidYMid meet">
<metadata>
Created by potrace 1.11, written by Peter Selinger 2001-2013
</metadata>
<g transform="translate(0.000000,700.000000) scale(0.100000,-0.100000)"
fill="#000000" stroke="none">
<path d="M955 6984 c-110 -20 -224 -58 -329 -112 -311 -159 -524 -438 -603
-787 -20 -92 -25 -308 -8 -410 39 -241 148 -458 317 -627 99 -100 185 -162
305 -222 158 -79 305 -115 481 -120 503 -14 958 304 1117 779 18 55 36 116 39
135 48 283 9 548 -114 775 -70 129 -206 290 -305 361 -22 16 -42 31 -45 34
-11 11 -88 57 -145 87 -79 41 -185 78 -281 99 -105 22 -325 26 -429 8z"/>
<path d="M4755 6073 c-347 -59 -651 -273 -820 -577 -57 -102 -107 -248 -130
-376 -19 -112 -11 -320 19 -454 71 -312 330 -629 627 -764 177 -81 299 -107
499 -106 424 1 812 238 1009 615 36 70 85 198 95 250 2 13 10 49 17 79 19 85
17 319 -4 420 -61 284 -205 518 -421 683 -99 75 -102 77 -198 126 -153 78
-298 112 -488 116 -72 1 -159 -4 -205 -12z"/>
<path d="M1878 3485 c-243 -41 -440 -141 -619 -315 -132 -128 -224 -272 -283
-440 -25 -72 -32 -95 -42 -150 -2 -14 -7 -36 -10 -50 -4 -14 -8 -81 -9 -150
-5 -195 31 -362 114 -530 113 -231 319 -436 536 -534 22 -10 53 -24 69 -32 16
-8 36 -14 46 -14 9 0 20 -4 25 -9 6 -6 57 -19 115 -31 154 -32 352 -32 485 1
22 5 51 12 65 15 46 10 201 75 264 112 234 136 426 367 509 613 49 143 62 235
61 404 -3 214 -59 405 -175 591 -121 192 -329 368 -524 443 -33 13 -69 27 -80
32 -105 47 -392 70 -547 44z"/>
<path d="M5779 2296 c-2 -2 -37 -7 -77 -10 -181 -17 -412 -115 -567 -240 -243
-197 -385 -455 -425 -771 -8 -64 -5 -238 4 -292 3 -18 8 -46 11 -63 11 -65 59
-200 101 -284 164 -329 481 -562 843 -620 163 -26 359 -12 533 39 75 21 255
113 327 166 84 62 222 207 276 289 73 111 145 274 160 362 3 17 7 34 9 37 23
36 27 352 7 451 -70 344 -280 631 -583 798 -80 45 -256 107 -328 117 -25 3
-52 8 -62 11 -20 6 -224 15 -229 10z"/>
</g>
</svg>
