<svg xmlns="http://www.w3.org/2000/svg" viewBox="0 0 257 89">
  <g transform="translate(2)" fill="none" fill-rule="evenodd">
    <g opacity=".2" fill="#D5E5FF">
      <path d="M40.784 42.147H50.88c.066 0 .119.056.119.125v13.603a.122.122 0 01-.12.125H20.12a.122.122 0 01-.12-.125v-13.46c0-.069.053-.125.12-.125h10.246c.066 0 .12-.055.12-.124v-1.338c0-.038.016-.073.044-.097l4.592-3.884a.128.128 0 00.044-.097V30.8c0-.062.042-.114.1-.124l3.919-.674c.072-.013.138.046.138.123v2.88c0 .06-.04.11-.094.122l-3.242.728a.123.123 0 00-.094.122v2.668c0 .037.016.072.044.096l4.676 4.037a.127.127 0 01.043.095l.009 1.15c0 .068.053.124.119.124zM40.784 12.147H50.88c.066 0 .119.056.119.125v13.603a.122.122 0 01-.12.125H20.12a.122.122 0 01-.12-.125v-13.46c0-.069.053-.125.12-.125h10.246c.066 0 .12-.055.12-.124v-1.338c0-.038.016-.073.044-.097l4.592-3.884a.128.128 0 00.044-.097V.8c0-.062.042-.114.1-.124l3.919-.674c.072-.013.138.046.138.123v2.88c0 .06-.04.11-.094.122l-3.242.728a.123.123 0 00-.094.122v2.668c0 .037.016.072.044.096l4.676 4.037a.127.127 0 01.043.095l.009 1.15c0 .068.053.124.119.124zM150.784 42.147h10.097c.066 0 .119.056.119.125v13.603a.122.122 0 01-.12.125h-30.76a.122.122 0 01-.12-.125v-13.46c0-.069.053-.125.12-.125h10.246c.066 0 .12-.055.12-.124v-1.338c0-.038.016-.073.044-.097l4.592-3.884a.128.128 0 00.044-.097V30.8c0-.062.042-.114.1-.124l3.919-.674c.072-.013.138.046.138.123v2.88c0 .06-.04.11-.094.122l-3.242.728a.123.123 0 00-.094.122v2.668c0 .037.016.072.044.096l4.676 4.037a.127.127 0 01.043.095l.009 1.15c0 .068.053.124.119.124zM150.784 12.147h10.097c.066 0 .119.056.119.125v13.603a.122.122 0 01-.12.125h-30.76a.122.122 0 01-.12-.125v-13.46c0-.069.053-.125.12-.125h10.246c.066 0 .12-.055.12-.124v-1.338c0-.038.016-.073.044-.097l4.592-3.884a.128.128 0 00.044-.097V.8c0-.062.042-.114.1-.124l3.919-.674c.072-.013.138.046.138.123v2.88c0 .06-.04.11-.094.122l-3.242.728a.123.123 0 00-.094.122v2.668c0 .037.016.072.044.096l4.676 4.037a.127.127 0 01.043.095l.009 1.15c0 .068.053.124.119.124zM77.784 42.147H87.88c.066 0 .119.056.119.125v13.603a.122.122 0 01-.12.125H57.12a.122.122 0 01-.12-.125v-13.46c0-.069.053-.125.12-.125h10.246c.066 0 .12-.055.12-.124v-1.338c0-.038.016-.073.044-.097l4.592-3.884a.128.128 0 00.044-.097V30.8c0-.062.042-.114.1-.124l3.919-.674c.072-.013.138.046.138.123v2.88c0 .06-.04.11-.094.122l-3.242.728a.123.123 0 00-.094.122v2.668c0 .037.016.072.044.096l4.676 4.037a.127.127 0 01.043.095l.009 1.15c0 .068.053.124.119.124zM77.784 12.147H87.88c.066 0 .119.056.119.125v13.603a.122.122 0 01-.12.125H57.12a.122.122 0 01-.12-.125v-13.46c0-.069.053-.125.12-.125h10.246c.066 0 .12-.055.12-.124v-1.338c0-.038.016-.073.044-.097l4.592-3.884a.128.128 0 00.044-.097V.8c0-.062.042-.114.1-.124l3.919-.674c.072-.013.138.046.138.123v2.88c0 .06-.04.11-.094.122l-3.242.728a.123.123 0 00-.094.122v2.668c0 .037.016.072.044.096l4.676 4.037a.127.127 0 01.043.095l.009 1.15c0 .068.053.124.119.124zM187.784 42.147h10.097c.066 0 .119.056.119.125v13.603a.122.122 0 01-.12.125h-30.76a.122.122 0 01-.12-.125v-13.46c0-.069.053-.125.12-.125h10.246c.066 0 .12-.055.12-.124v-1.338c0-.038.016-.073.044-.097l4.592-3.884a.128.128 0 00.044-.097V30.8c0-.062.042-.114.1-.124l3.919-.674c.072-.013.138.046.138.123v2.88c0 .06-.04.11-.094.122l-3.242.728a.123.123 0 00-.094.122v2.668c0 .037.016.072.044.096l4.676 4.037a.127.127 0 01.043.095l.009 1.15c0 .068.053.124.119.124zM187.784 12.147h10.097c.066 0 .119.056.119.125v13.603a.122.122 0 01-.12.125h-30.76a.122.122 0 01-.12-.125v-13.46c0-.069.053-.125.12-.125h10.246c.066 0 .12-.055.12-.124v-1.338c0-.038.016-.073.044-.097l4.592-3.884a.128.128 0 00.044-.097V.8c0-.062.042-.114.1-.124l3.919-.674c.072-.013.138.046.138.123v2.88c0 .06-.04.11-.094.122l-3.242.728a.123.123 0 00-.094.122v2.668c0 .037.016.072.044.096l4.676 4.037a.127.127 0 01.043.095l.009 1.15c0 .068.053.124.119.124zM114.784 42.147h10.097c.066 0 .119.056.119.125v13.603a.122.122 0 01-.12.125H94.12a.122.122 0 01-.12-.125v-13.46c0-.069.053-.125.12-.125h10.246c.066 0 .12-.055.12-.124v-1.338c0-.038.016-.073.044-.097l4.592-3.884a.128.128 0 00.044-.097V30.8c0-.062.042-.114.1-.124l3.919-.674c.072-.013.138.046.138.123v2.88c0 .06-.04.11-.094.122l-3.242.728a.123.123 0 00-.094.122v2.668c0 .037.016.072.044.096l4.676 4.037a.127.127 0 01.043.095l.009 1.15c0 .068.053.124.119.124zM114.784 12.147h10.097c.066 0 .119.056.119.125v13.603a.122.122 0 01-.12.125H94.12a.122.122 0 01-.12-.125v-13.46c0-.069.053-.125.12-.125h10.246c.066 0 .12-.055.12-.124v-1.338c0-.038.016-.073.044-.097l4.592-3.884a.128.128 0 00.044-.097V.8c0-.062.042-.114.1-.124l3.919-.674c.072-.013.138.046.138.123v2.88c0 .06-.04.11-.094.122l-3.242.728a.123.123 0 00-.094.122v2.668c0 .037.016.072.044.096l4.676 4.037a.127.127 0 01.043.095l.009 1.15c0 .068.053.124.119.124zM224.784 42.147h10.097c.066 0 .119.056.119.125v13.603a.122.122 0 01-.12.125h-30.76a.122.122 0 01-.12-.125v-13.46c0-.069.053-.125.12-.125h10.246c.066 0 .12-.055.12-.124v-1.338c0-.038.016-.073.044-.097l4.592-3.884a.128.128 0 00.044-.097V30.8c0-.062.042-.114.1-.124l3.919-.674c.072-.013.138.046.138.123v2.88c0 .06-.04.11-.094.122l-3.242.728a.123.123 0 00-.094.122v2.668c0 .037.016.072.044.096l4.676 4.037a.127.127 0 01.043.095l.009 1.15c0 .068.053.124.119.124zM224.784 12.147h10.097c.066 0 .119.056.119.125v13.603a.122.122 0 01-.12.125h-30.76a.122.122 0 01-.12-.125v-13.46c0-.069.053-.125.12-.125h10.246c.066 0 .12-.055.12-.124v-1.338c0-.038.016-.073.044-.097l4.592-3.884a.128.128 0 00.044-.097V.8c0-.062.042-.114.1-.124l3.919-.674c.072-.013.138.046.138.123v2.88c0 .06-.04.11-.094.122l-3.242.728a.123.123 0 00-.094.122v2.668c0 .037.016.072.044.096l4.676 4.037a.127.127 0 01.043.095l.009 1.15c0 .068.053.124.119.124z"/>
    </g>
    <path d="M51.062 54.498H75.87c.162 0 .293.131.293.293v31.916a.293.293 0 01-.293.293H.293A.293.293 0 010 86.707V55.128c0-.162.131-.293.293-.293h25.175a.292.292 0 00.292-.292v-3.139c0-.088.04-.172.11-.227l11.282-9.114a.294.294 0 00.11-.228v-13.96c0-.144.103-.266.244-.29l9.627-1.581c.179-.03.34.108.34.289v6.758a.292.292 0 01-.23.286l-7.965 1.708a.292.292 0 00-.23.287v6.258c0 .087.038.17.106.226l11.489 9.47a.293.293 0 01.106.224l.02 2.697c.002.161.132.291.293.291zM139.79 54.498h24.807c.161 0 .292.131.292.293v31.916a.293.293 0 01-.292.293H89.02a.293.293 0 01-.293-.293V55.128c0-.162.131-.293.293-.293h25.175a.292.292 0 00.293-.292v-3.139c0-.088.04-.172.109-.227l11.283-9.114a.294.294 0 00.108-.228v-13.96c0-.144.104-.266.246-.29l9.627-1.581c.178-.03.34.108.34.289v6.758a.292.292 0 01-.232.286l-7.963 1.708a.292.292 0 00-.232.287v6.258c0 .087.04.17.107.226l11.489 9.47a.293.293 0 01.107.224l.02 2.697c.001.161.132.291.293.291zM227.593 54.498H252.4c.161 0 .292.131.292.293v31.916a.293.293 0 01-.292.293h-75.577a.293.293 0 01-.293-.293V55.128c0-.162.131-.293.293-.293h25.175a.292.292 0 00.293-.292v-3.139c0-.088.04-.172.109-.227l11.283-9.114a.294.294 0 00.108-.228v-13.96c0-.144.104-.266.246-.29l9.627-1.581c.178-.03.34.108.34.289v6.758a.292.292 0 01-.232.286l-7.963 1.708a.292.292 0 00-.232.287v6.258c0 .087.04.17.107.226l11.489 9.47a.293.293 0 01.107.224l.02 2.697c.001.161.132.291.293.291z" stroke="#FFF" stroke-width="3" fill="#081248" stroke-linejoin="round"/>
    <circle fill="#2E75FE" transform="rotate(180 8 79)" cx="8" cy="79" r="5"/>
    <circle fill="#2E75FE" transform="rotate(180 20 79)" cx="20" cy="79" r="5"/>
    <circle fill="#2E75FE" transform="rotate(180 41 80)" cx="41" cy="80" r="5"/>
    <circle fill="#2E75FE" transform="rotate(180 30 72)" cx="30" cy="72" r="5"/>
    <circle fill="#2E75FE" transform="rotate(180 18 68)" cx="18" cy="68" r="5"/>
    <circle fill="#2E75FE" transform="rotate(180 61 78)" cx="61" cy="78" r="5"/>
    <circle fill="#2E75FE" transform="rotate(180 245 80)" cx="245" cy="80" r="5"/>
    <circle fill="#2E75FE" transform="rotate(180 54 72)" cx="54" cy="72" r="5"/>
    <circle fill="#2E75FE" transform="rotate(180 43 67)" cx="43" cy="67" r="5"/>
    <circle fill="#2E75FE" transform="rotate(180 67 72)" cx="67" cy="72" r="5"/>
    <circle fill="#2E75FE" transform="rotate(180 97 80)" cx="97" cy="80" r="5"/>
    <circle fill="#2E75FE" transform="rotate(180 108 70)" cx="108" cy="70" r="5"/>
    <circle fill="#2E75FE" transform="rotate(180 113 80)" cx="113" cy="80" r="5"/>
    <circle fill="#2E75FE" transform="rotate(180 122 75)" cx="122" cy="75" r="5"/>
    <circle fill="#2E75FE" transform="rotate(180 133 80)" cx="133" cy="80" r="5"/>
    <circle fill="#2E75FE" transform="rotate(180 143 77)" cx="143" cy="77" r="5"/>
    <circle fill="#2E75FE" transform="rotate(180 155 72)" cx="155" cy="72" r="5"/>
    <circle fill="#2E75FE" transform="rotate(180 197 80)" cx="197" cy="80" r="5"/>
    <circle fill="#2E75FE" transform="rotate(180 204 67)" cx="204" cy="67" r="5"/>
    <circle fill="#2E75FE" transform="rotate(180 211 80)" cx="211" cy="80" r="5"/>
    <circle fill="#2E75FE" transform="rotate(180 222 70)" cx="222" cy="70" r="5"/>
    <circle fill="#2E75FE" transform="rotate(180 232 80)" cx="232" cy="80" r="5"/>
    <circle fill="#2E75FE" transform="rotate(180 240 70)" cx="240" cy="70" r="5"/>
    <circle fill="#2E75FE" transform="rotate(180 185 76)" cx="185" cy="76" r="5"/>
    <circle fill="#2E75FE" transform="rotate(180 157 80)" cx="157" cy="80" r="5"/>
    <circle fill="#FBA55F" transform="rotate(180 33 62)" cx="33" cy="62" r="5"/>
    <circle fill="#FBA55F" transform="rotate(180 54 62)" cx="54" cy="62" r="5"/>
    <circle fill="#FBA55F" transform="rotate(180 98 67)" cx="98" cy="67" r="5"/>
    <circle fill="#FBA55F" transform="rotate(180 127 62)" cx="127" cy="62" r="5"/>
    <circle fill="#FBA55F" transform="rotate(180 144 65)" cx="144" cy="65" r="5"/>
    <circle fill="#FBA55F" transform="rotate(180 192 65)" cx="192" cy="65" r="5"/>
    <circle fill="#FBA55F" transform="rotate(180 217 60)" cx="217" cy="60" r="5"/>
  </g>
</svg>
