<svg xmlns="http://www.w3.org/2000/svg" viewBox="0 0 489 285">
  <g fill="none" fill-rule="evenodd">
    <g transform="translate(5 160)">
      <circle fill="#2E75FE" transform="rotate(180 6 117)" cx="6" cy="117" r="5"/>
      <circle fill="#2E75FE" transform="rotate(180 33 112)" cx="33" cy="112" r="5"/>
      <circle fill="#2E75FE" transform="rotate(180 24 115)" cx="24" cy="115" r="5"/>
      <circle fill="#2E75FE" transform="rotate(180 53 92)" cx="53" cy="92" r="5"/>
      <circle fill="#2E75FE" transform="rotate(180 61 79)" cx="61" cy="79" r="5"/>
      <circle fill="#2E75FE" transform="rotate(180 43 97)" cx="43" cy="97" r="5"/>
      <circle fill="#2E75FE" transform="rotate(180 38 105)" cx="38" cy="105" r="5"/>
      <circle fill="#2E75FE" transform="rotate(180 6 101)" cx="6" cy="101" r="5"/>
      <circle fill="#2E75FE" transform="rotate(180 75 76)" cx="75" cy="76" r="5"/>
      <circle fill="#2E75FE" transform="rotate(180 55 70)" cx="55" cy="70" r="5"/>
      <circle fill="#2E75FE" transform="rotate(180 47 67)" cx="47" cy="67" r="5"/>
      <circle fill="#2E75FE" transform="rotate(180 59 53)" cx="59" cy="53" r="5"/>
      <circle fill="#2E75FE" transform="rotate(180 51 58)" cx="51" cy="58" r="5"/>
      <circle fill="#2E75FE" transform="rotate(180 62 58)" cx="62" cy="58" r="5"/>
      <circle fill="#2E75FE" transform="rotate(180 72 53)" cx="72" cy="53" r="5"/>
      <circle fill="#2E75FE" transform="rotate(180 119 52)" cx="119" cy="52" r="5"/>
      <circle fill="#2E75FE" transform="rotate(180 117 41)" cx="117" cy="41" r="5"/>
      <circle fill="#2E75FE" transform="rotate(180 132 55)" cx="132" cy="55" r="5"/>
      <circle fill="#2E75FE" transform="rotate(180 131 37)" cx="131" cy="37" r="5"/>
      <circle fill="#2E75FE" transform="rotate(180 117 33)" cx="117" cy="33" r="5"/>
      <circle fill="#2E75FE" transform="rotate(180 40 73)" cx="40" cy="73" r="5"/>
      <circle fill="#2E75FE" transform="rotate(180 43 55)" cx="43" cy="55" r="5"/>
      <circle fill="#2E75FE" transform="rotate(180 38 62)" cx="38" cy="62" r="5"/>
      <circle fill="#2E75FE" transform="rotate(180 24 65)" cx="24" cy="65" r="5"/>
      <circle fill="#2E75FE" transform="rotate(180 28 52)" cx="28" cy="52" r="5"/>
      <circle fill="#2E75FE" transform="rotate(180 34 50)" cx="34" cy="50" r="5"/>
      <circle fill="#2E75FE" transform="rotate(180 21 42)" cx="21" cy="42" r="5"/>
      <circle fill="#2E75FE" transform="rotate(180 48 43)" cx="48" cy="43" r="5"/>
      <circle fill="#2E75FE" transform="rotate(180 35 39)" cx="35" cy="39" r="5"/>
      <circle fill="#FBA55F" transform="rotate(180 53 28)" cx="53" cy="28" r="5"/>
      <circle fill="#FBA55F" transform="rotate(180 96 18)" cx="96" cy="18" r="5"/>
      <circle fill="#FBA55F" transform="rotate(180 94 5)" cx="94" cy="5" r="5"/>
      <circle fill="#FBA55F" transform="rotate(180 104 9)" cx="104" cy="9" r="5"/>
      <circle fill="#FBA55F" transform="rotate(180 130 23)" cx="130" cy="23" r="5"/>
      <circle fill="#FBA55F" transform="rotate(180 139 14)" cx="139" cy="14" r="5"/>
      <circle fill="#FBA55F" transform="rotate(180 48 20)" cx="48" cy="20" r="5"/>
      <circle fill="#FBA55F" transform="rotate(180 40 9)" cx="40" cy="9" r="5"/>
      <circle fill="#FBA55F" transform="rotate(180 28 12)" cx="28" cy="12" r="5"/>
      <circle fill="#FBA55F" transform="rotate(180 61 20)" cx="61" cy="20" r="5"/>
      <circle fill="#FBA55F" transform="rotate(180 58 9)" cx="58" cy="9" r="5"/>
      <circle fill="#FBA55F" transform="rotate(180 71 11)" cx="71" cy="11" r="5"/>
      <circle fill="#FBA55F" transform="rotate(180 79 21)" cx="79" cy="21" r="5"/>
      <circle fill="#FBA55F" transform="rotate(180 87 11)" cx="87" cy="11" r="5"/>
      <circle fill="#FBA55F" transform="rotate(180 110 20)" cx="110" cy="20" r="5"/>
      <circle fill="#FBA55F" transform="rotate(180 116 9)" cx="116" cy="9" r="5"/>
      <circle fill="#FBA55F" transform="rotate(180 126 15)" cx="126" cy="15" r="5"/>
      <circle fill="#FBA55F" transform="rotate(180 134 6)" cx="134" cy="6" r="5"/>
      <circle fill="#FBA55F" transform="rotate(180 147 20)" cx="147" cy="20" r="5"/>
      <circle fill="#FBA55F" transform="rotate(180 163 17)" cx="163" cy="17" r="5"/>
      <circle fill="#FBA55F" transform="rotate(180 155 10)" cx="155" cy="10" r="5"/>
      <circle fill="#FBA55F" transform="rotate(180 179 15)" cx="179" cy="15" r="5"/>
      <circle fill="#FBA55F" transform="rotate(180 171 8)" cx="171" cy="8" r="5"/>
      <circle fill="#FBA55F" transform="rotate(180 199 21)" cx="199" cy="21" r="5"/>
      <circle fill="#FBA55F" transform="rotate(180 192 13)" cx="192" cy="13" r="5"/>
      <circle fill="#FBA55F" transform="rotate(180 218 23)" cx="218" cy="23" r="5"/>
      <circle fill="#FBA55F" transform="rotate(180 213 13)" cx="213" cy="13" r="5"/>
      <circle fill="#FBA55F" transform="rotate(180 204 11)" cx="204" cy="11" r="5"/>
      <circle fill="#FBA55F" transform="rotate(180 233 21)" cx="233" cy="21" r="5"/>
      <circle fill="#FBA55F" transform="rotate(180 246 24)" cx="246" cy="24" r="5"/>
      <circle fill="#FBA55F" transform="rotate(180 261 19)" cx="261" cy="19" r="5"/>
      <circle fill="#FBA55F" transform="rotate(180 275 19)" cx="275" cy="19" r="5"/>
      <circle fill="#FBA55F" transform="rotate(180 284 9)" cx="284" cy="9" r="5"/>
      <circle fill="#FBA55F" transform="rotate(180 295 16)" cx="295" cy="16" r="5"/>
      <circle fill="#FBA55F" transform="rotate(180 300 5)" cx="300" cy="5" r="5"/>
      <circle fill="#FBA55F" transform="rotate(180 272 6)" cx="272" cy="6" r="5"/>
      <circle fill="#FBA55F" transform="rotate(180 352 20)" cx="352" cy="20" r="5"/>
      <circle fill="#FBA55F" transform="rotate(180 410 29)" cx="410" cy="29" r="5"/>
      <circle fill="#FBA55F" transform="rotate(180 384 20)" cx="384" cy="20" r="5"/>
      <circle fill="#FBA55F" transform="rotate(180 395 15)" cx="395" cy="15" r="5"/>
      <circle fill="#FBA55F" transform="rotate(180 433 26)" cx="433" cy="26" r="5"/>
      <circle fill="#FBA55F" transform="rotate(180 411 19)" cx="411" cy="19" r="5"/>
      <circle fill="#FBA55F" transform="rotate(180 424 13)" cx="424" cy="13" r="5"/>
      <circle fill="#FBA55F" transform="rotate(180 421 25)" cx="421" cy="25" r="5"/>
      <circle fill="#FBA55F" transform="rotate(180 406 9)" cx="406" cy="9" r="5"/>
      <circle fill="#FBA55F" transform="rotate(180 402 22)" cx="402" cy="22" r="5"/>
      <circle fill="#FBA55F" transform="rotate(180 309 16)" cx="309" cy="16" r="5"/>
      <circle fill="#FBA55F" transform="rotate(180 318 10)" cx="318" cy="10" r="5"/>
      <circle fill="#FBA55F" transform="rotate(180 377 10)" cx="377" cy="10" r="5"/>
      <circle fill="#FBA55F" transform="rotate(180 337 23)" cx="337" cy="23" r="5"/>
      <circle fill="#FBA55F" transform="rotate(180 246 12)" cx="246" cy="12" r="5"/>
      <circle fill="#FBA55F" transform="rotate(180 324 19)" cx="324" cy="19" r="5"/>
      <circle fill="#FBA55F" transform="rotate(180 337 15)" cx="337" cy="15" r="5"/>
      <circle fill="#FBA55F" transform="rotate(180 347 11)" cx="347" cy="11" r="5"/>
      <circle fill="#FBA55F" transform="rotate(180 370 19)" cx="370" cy="19" r="5"/>
      <circle fill="#FBA55F" transform="rotate(180 362 14)" cx="362" cy="14" r="5"/>
      <circle fill="#FBA55F" transform="rotate(180 266 8)" cx="266" cy="8" r="5"/>
      <circle fill="#FBA55F" transform="rotate(180 232 9)" cx="232" cy="9" r="5"/>
      <circle fill="#FBA55F" transform="rotate(180 224 11)" cx="224" cy="11" r="5"/>
      <circle fill="#FBA55F" transform="rotate(180 35 22)" cx="35" cy="22" r="5"/>
      <circle fill="#FBA55F" transform="rotate(180 24 25)" cx="24" cy="25" r="5"/>
      <circle fill="#FBA55F" transform="rotate(180 14 13)" cx="14" cy="13" r="5"/>
      <circle fill="#2E75FE" transform="rotate(180 40 32)" cx="40" cy="32" r="5"/>
      <circle fill="#2E75FE" transform="rotate(180 7 22)" cx="7" cy="22" r="5"/>
      <circle fill="#2E75FE" transform="rotate(180 55 40)" cx="55" cy="40" r="5"/>
      <circle fill="#2E75FE" transform="rotate(180 12 30)" cx="12" cy="30" r="5"/>
      <circle fill="#2E75FE" transform="rotate(180 29 80)" cx="29" cy="80" r="5"/>
      <circle fill="#2E75FE" transform="rotate(180 18 75)" cx="18" cy="75" r="5"/>
      <circle fill="#2E75FE" transform="rotate(180 11 68)" cx="11" cy="68" r="5"/>
      <circle fill="#2E75FE" transform="rotate(180 14 54)" cx="14" cy="54" r="5"/>
      <circle fill="#2E75FE" transform="rotate(180 9 45)" cx="9" cy="45" r="5"/>
      <circle fill="#2E75FE" transform="rotate(180 38 85)" cx="38" cy="85" r="5"/>
      <circle fill="#2E75FE" transform="rotate(180 49 83)" cx="49" cy="83" r="5"/>
      <circle fill="#2E75FE" transform="rotate(180 50 80)" cx="50" cy="80" r="5"/>
      <circle fill="#2E75FE" transform="rotate(180 23 92)" cx="23" cy="92" r="5"/>
      <circle fill="#2E75FE" transform="rotate(180 16 87)" cx="16" cy="87" r="5"/>
      <circle fill="#2E75FE" transform="rotate(180 8 80)" cx="8" cy="80" r="5"/>
      <circle fill="#2E75FE" transform="rotate(180 5 89)" cx="5" cy="89" r="5"/>
      <circle fill="#2E75FE" transform="rotate(180 11 97)" cx="11" cy="97" r="5"/>
      <circle fill="#2E75FE" transform="rotate(180 78 87)" cx="78" cy="87" r="5"/>
      <circle fill="#2E75FE" transform="rotate(180 90 92)" cx="90" cy="92" r="5"/>
      <circle fill="#2E75FE" transform="rotate(180 103 87)" cx="103" cy="87" r="5"/>
      <circle fill="#2E75FE" transform="rotate(180 108 78)" cx="108" cy="78" r="5"/>
      <circle fill="#2E75FE" transform="rotate(180 119 64)" cx="119" cy="64" r="5"/>
      <circle fill="#2E75FE" transform="rotate(180 95 83)" cx="95" cy="83" r="5"/>
      <circle fill="#2E75FE" transform="rotate(180 95 72)" cx="95" cy="72" r="5"/>
      <circle fill="#2E75FE" transform="rotate(180 107 68)" cx="107" cy="68" r="5"/>
      <circle fill="#2E75FE" transform="rotate(180 146 50)" cx="146" cy="50" r="5"/>
      <circle fill="#2E75FE" transform="rotate(180 84 78)" cx="84" cy="78" r="5"/>
      <circle fill="#2E75FE" transform="rotate(180 88 68)" cx="88" cy="68" r="5"/>
      <circle fill="#2E75FE" transform="rotate(180 86 60)" cx="86" cy="60" r="5"/>
      <circle fill="#2E75FE" transform="rotate(180 85 48)" cx="85" cy="48" r="5"/>
      <circle fill="#2E75FE" transform="rotate(180 74 44)" cx="74" cy="44" r="5"/>
      <circle fill="#2E75FE" transform="rotate(180 83 32)" cx="83" cy="32" r="5"/>
      <circle fill="#2E75FE" transform="rotate(180 95 39)" cx="95" cy="39" r="5"/>
      <circle fill="#2E75FE" transform="rotate(180 65 38)" cx="65" cy="38" r="5"/>
      <circle fill="#2E75FE" transform="rotate(180 69 30)" cx="69" cy="30" r="5"/>
      <circle fill="#2E75FE" transform="rotate(180 97 56)" cx="97" cy="56" r="5"/>
      <circle fill="#2E75FE" transform="rotate(180 102 44)" cx="102" cy="44" r="5"/>
      <circle fill="#2E75FE" transform="rotate(180 100 64)" cx="100" cy="64" r="5"/>
      <circle fill="#2E75FE" transform="rotate(180 109 57)" cx="109" cy="57" r="5"/>
      <circle fill="#2E75FE" transform="rotate(180 114 43)" cx="114" cy="43" r="5"/>
      <circle fill="#2E75FE" transform="rotate(180 106 30)" cx="106" cy="30" r="5"/>
      <circle fill="#2E75FE" transform="rotate(180 97 28)" cx="97" cy="28" r="5"/>
      <circle fill="#2E75FE" transform="rotate(180 77 63)" cx="77" cy="63" r="5"/>
      <circle fill="#2E75FE" transform="rotate(180 173 36)" cx="173" cy="36" r="5"/>
      <circle fill="#2E75FE" transform="rotate(180 113 92)" cx="113" cy="92" r="5"/>
      <circle fill="#2E75FE" transform="rotate(180 118 80)" cx="118" cy="80" r="5"/>
      <circle fill="#2E75FE" transform="rotate(180 132 67)" cx="132" cy="67" r="5"/>
      <circle fill="#2E75FE" transform="rotate(180 128 90)" cx="128" cy="90" r="5"/>
      <circle fill="#2E75FE" transform="rotate(180 138 83)" cx="138" cy="83" r="5"/>
      <circle fill="#2E75FE" transform="rotate(180 140 69)" cx="140" cy="69" r="5"/>
      <circle fill="#2E75FE" transform="rotate(180 148 59)" cx="148" cy="59" r="5"/>
      <circle fill="#2E75FE" transform="rotate(180 153 38)" cx="153" cy="38" r="5"/>
      <circle fill="#2E75FE" transform="rotate(180 143 30)" cx="143" cy="30" r="5"/>
      <circle fill="#2E75FE" transform="rotate(180 160 46)" cx="160" cy="46" r="5"/>
      <circle fill="#2E75FE" transform="rotate(180 165 27)" cx="165" cy="27" r="5"/>
      <circle fill="#2E75FE" transform="rotate(180 153 29)" cx="153" cy="29" r="5"/>
      <circle fill="#2E75FE" transform="rotate(180 136 46)" cx="136" cy="46" r="5"/>
      <circle fill="#2E75FE" transform="rotate(180 160 55)" cx="160" cy="55" r="5"/>
      <circle fill="#2E75FE" transform="rotate(180 175 53)" cx="175" cy="53" r="5"/>
      <circle fill="#2E75FE" transform="rotate(180 190 52)" cx="190" cy="52" r="5"/>
      <circle fill="#2E75FE" transform="rotate(180 200 51)" cx="200" cy="51" r="5"/>
      <circle fill="#2E75FE" transform="rotate(180 190 40)" cx="190" cy="40" r="5"/>
      <circle fill="#2E75FE" transform="rotate(180 209 41)" cx="209" cy="41" r="5"/>
      <circle fill="#2E75FE" transform="rotate(180 211 50)" cx="211" cy="50" r="5"/>
      <circle fill="#2E75FE" transform="rotate(180 183 47)" cx="183" cy="47" r="5"/>
      <circle fill="#2E75FE" transform="rotate(180 186 30)" cx="186" cy="30" r="5"/>
      <circle fill="#2E75FE" transform="rotate(180 172 43)" cx="172" cy="43" r="5"/>
      <circle fill="#2E75FE" transform="rotate(180 178 26)" cx="178" cy="26" r="5"/>
      <circle fill="#2E75FE" transform="rotate(180 153 79)" cx="153" cy="79" r="5"/>
      <circle fill="#2E75FE" transform="rotate(180 130 75)" cx="130" cy="75" r="5"/>
      <circle fill="#2E75FE" transform="rotate(180 121 95)" cx="121" cy="95" r="5"/>
      <circle fill="#2E75FE" transform="rotate(180 136 95)" cx="136" cy="95" r="5"/>
      <circle fill="#2E75FE" transform="rotate(180 146 102)" cx="146" cy="102" r="5"/>
      <circle fill="#2E75FE" transform="rotate(180 157 101)" cx="157" cy="101" r="5"/>
      <circle fill="#2E75FE" transform="rotate(180 155 92)" cx="155" cy="92" r="5"/>
      <circle fill="#2E75FE" transform="rotate(180 165 79)" cx="165" cy="79" r="5"/>
      <circle fill="#2E75FE" transform="rotate(180 170 64)" cx="170" cy="64" r="5"/>
      <circle fill="#2E75FE" transform="rotate(180 182 62)" cx="182" cy="62" r="5"/>
      <circle fill="#2E75FE" transform="rotate(180 172 75)" cx="172" cy="75" r="5"/>
      <circle fill="#2E75FE" transform="rotate(180 195 73)" cx="195" cy="73" r="5"/>
      <circle fill="#2E75FE" transform="rotate(180 184 81)" cx="184" cy="81" r="5"/>
      <circle fill="#2E75FE" transform="rotate(180 212 82)" cx="212" cy="82" r="5"/>
      <circle fill="#2E75FE" transform="rotate(180 207 89)" cx="207" cy="89" r="5"/>
      <circle fill="#2E75FE" transform="rotate(180 215 96)" cx="215" cy="96" r="5"/>
      <circle fill="#2E75FE" transform="rotate(180 222 89)" cx="222" cy="89" r="5"/>
      <circle fill="#2E75FE" transform="rotate(180 232 95)" cx="232" cy="95" r="5"/>
      <circle fill="#2E75FE" transform="rotate(180 222 101)" cx="222" cy="101" r="5"/>
      <circle fill="#2E75FE" transform="rotate(180 213 72)" cx="213" cy="72" r="5"/>
      <circle fill="#2E75FE" transform="rotate(180 225 52)" cx="225" cy="52" r="5"/>
      <circle fill="#2E75FE" transform="rotate(180 221 71)" cx="221" cy="71" r="5"/>
      <circle fill="#2E75FE" transform="rotate(180 204 73)" cx="204" cy="73" r="5"/>
      <circle fill="#2E75FE" transform="rotate(180 182 73)" cx="182" cy="73" r="5"/>
      <circle fill="#2E75FE" transform="rotate(180 192 62)" cx="192" cy="62" r="5"/>
      <circle fill="#2E75FE" transform="rotate(180 203 62)" cx="203" cy="62" r="5"/>
      <circle fill="#2E75FE" transform="rotate(180 212 63)" cx="212" cy="63" r="5"/>
      <circle fill="#2E75FE" transform="rotate(180 219 60)" cx="219" cy="60" r="5"/>
      <circle fill="#2E75FE" transform="rotate(180 158 67)" cx="158" cy="67" r="5"/>
      <circle fill="#2E75FE" transform="rotate(180 147 71)" cx="147" cy="71" r="5"/>
      <circle fill="#2E75FE" transform="rotate(180 182 89)" cx="182" cy="89" r="5"/>
      <circle fill="#2E75FE" transform="rotate(180 173 86)" cx="173" cy="86" r="5"/>
      <circle fill="#2E75FE" transform="rotate(180 148 87)" cx="148" cy="87" r="5"/>
      <circle fill="#2E75FE" transform="rotate(180 163 102)" cx="163" cy="102" r="5"/>
      <circle fill="#2E75FE" transform="rotate(180 172 107)" cx="172" cy="107" r="5"/>
      <circle fill="#2E75FE" transform="rotate(180 167 90)" cx="167" cy="90" r="5"/>
      <circle fill="#2E75FE" transform="rotate(180 80 100)" cx="80" cy="100" r="5"/>
      <circle fill="#2E75FE" transform="rotate(180 78 112)" cx="78" cy="112" r="5"/>
      <circle fill="#2E75FE" transform="rotate(180 68 85)" cx="68" cy="85" r="5"/>
      <circle fill="#2E75FE" transform="rotate(180 63 88)" cx="63" cy="88" r="5"/>
      <circle fill="#2E75FE" transform="rotate(180 61 100)" cx="61" cy="100" r="5"/>
      <circle fill="#2E75FE" transform="rotate(180 68 97)" cx="68" cy="97" r="5"/>
      <circle fill="#2E75FE" transform="rotate(180 23 102)" cx="23" cy="102" r="5"/>
      <circle fill="#2E75FE" transform="rotate(180 18 112)" cx="18" cy="112" r="5"/>
      <circle fill="#2E75FE" transform="rotate(180 33 97)" cx="33" cy="97" r="5"/>
      <circle fill="#2E75FE" transform="rotate(180 53 107)" cx="53" cy="107" r="5"/>
      <circle fill="#2E75FE" transform="rotate(180 13 106)" cx="13" cy="106" r="5"/>
      <circle fill="#2E75FE" transform="rotate(180 58 117)" cx="58" cy="117" r="5"/>
      <circle fill="#2E75FE" transform="rotate(180 43 112)" cx="43" cy="112" r="5"/>
      <circle fill="#2E75FE" transform="rotate(180 68 112)" cx="68" cy="112" r="5"/>
      <circle fill="#2E75FE" transform="rotate(180 88 102)" cx="88" cy="102" r="5"/>
      <circle fill="#2E75FE" transform="rotate(180 103 100)" cx="103" cy="100" r="5"/>
      <circle fill="#2E75FE" transform="rotate(180 109 107)" cx="109" cy="107" r="5"/>
      <circle fill="#2E75FE" transform="rotate(180 98 97)" cx="98" cy="97" r="5"/>
      <circle fill="#2E75FE" transform="rotate(180 93 106)" cx="93" cy="106" r="5"/>
      <circle fill="#2E75FE" transform="rotate(180 113 102)" cx="113" cy="102" r="5"/>
      <circle fill="#2E75FE" transform="rotate(180 126 102)" cx="126" cy="102" r="5"/>
      <circle fill="#2E75FE" transform="rotate(180 138 107)" cx="138" cy="107" r="5"/>
      <circle fill="#2E75FE" transform="rotate(180 128 107)" cx="128" cy="107" r="5"/>
      <circle fill="#2E75FE" transform="rotate(180 100 112)" cx="100" cy="112" r="5"/>
      <circle fill="#2E75FE" transform="rotate(180 89 115)" cx="89" cy="115" r="5"/>
      <circle fill="#2E75FE" transform="rotate(180 115 115)" cx="115" cy="115" r="5"/>
      <circle fill="#2E75FE" transform="rotate(180 127 117)" cx="127" cy="117" r="5"/>
      <circle fill="#2E75FE" transform="rotate(180 145 115)" cx="145" cy="115" r="5"/>
      <circle fill="#2E75FE" transform="rotate(180 158 112)" cx="158" cy="112" r="5"/>
      <circle fill="#2E75FE" transform="rotate(180 168 117)" cx="168" cy="117" r="5"/>
      <circle fill="#2E75FE" transform="matrix(1 0 0 -1 0 202)" cx="177" cy="101" r="5"/>
      <circle fill="#2E75FE" transform="matrix(1 0 0 -1 0 174)" cx="194" cy="87" r="5"/>
      <circle fill="#2E75FE" transform="matrix(1 0 0 -1 0 174)" cx="201" cy="87" r="5"/>
      <circle fill="#2E75FE" transform="matrix(1 0 0 -1 0 196)" cx="205" cy="98" r="5"/>
      <circle fill="#2E75FE" transform="matrix(1 0 0 -1 0 216)" cx="213" cy="108" r="5"/>
      <circle fill="#2E75FE" transform="matrix(1 0 0 -1 0 230)" cx="208" cy="115" r="5"/>
      <circle fill="#2E75FE" transform="matrix(1 0 0 -1 0 202)" cx="201" cy="101" r="5"/>
      <circle fill="#2E75FE" transform="matrix(1 0 0 -1 0 230)" cx="223" cy="115" r="5"/>
      <circle fill="#2E75FE" transform="matrix(1 0 0 -1 0 214)" cx="183" cy="107" r="5"/>
      <circle fill="#2E75FE" transform="matrix(1 0 0 -1 0 200)" cx="192" cy="100" r="5"/>
      <circle fill="#2E75FE" transform="matrix(1 0 0 -1 0 224)" cx="201" cy="112" r="5"/>
      <circle fill="#2E75FE" transform="matrix(1 0 0 -1 0 224)" cx="189" cy="112" r="5"/>
      <circle fill="#2E75FE" transform="matrix(1 0 0 -1 0 212)" cx="232" cy="106" r="5"/>
      <circle fill="#2E75FE" transform="matrix(1 0 0 -1 0 84)" cx="218" cy="42" r="5"/>
      <circle fill="#2E75FE" transform="matrix(1 0 0 -1 0 96)" cx="233" cy="48" r="5"/>
      <circle fill="#2E75FE" transform="matrix(1 0 0 -1 0 184)" cx="412" cy="92" r="5"/>
      <circle fill="#2E75FE" transform="matrix(1 0 0 -1 0 158)" cx="404" cy="79" r="5"/>
      <circle fill="#2E75FE" transform="matrix(1 0 0 -1 0 194)" cx="422" cy="97" r="5"/>
      <circle fill="#2E75FE" transform="matrix(1 0 0 -1 0 210)" cx="427" cy="105" r="5"/>
      <circle fill="#2E75FE" transform="matrix(1 0 0 -1 0 162)" cx="235" cy="81" r="5"/>
      <circle fill="#2E75FE" transform="matrix(1 0 0 -1 0 126)" cx="405" cy="63" r="5"/>
      <circle fill="#2E75FE" transform="matrix(1 0 0 -1 0 126)" cx="419" cy="63" r="5"/>
      <circle fill="#2E75FE" transform="matrix(1 0 0 -1 0 108)" cx="414" cy="54" r="5"/>
      <circle fill="#2E75FE" transform="matrix(1 0 0 -1 0 96)" cx="422" cy="48" r="5"/>
      <circle fill="#2E75FE" transform="matrix(1 0 0 -1 0 110)" cx="408" cy="55" r="5"/>
      <circle fill="#2E75FE" transform="matrix(1 0 0 -1 0 94)" cx="399" cy="47" r="5"/>
      <circle fill="#2E75FE" transform="matrix(1 0 0 -1 0 120)" cx="391" cy="60" r="5"/>
      <circle fill="#2E75FE" transform="matrix(1 0 0 -1 0 104)" cx="346" cy="52" r="5"/>
      <circle fill="#2E75FE" transform="matrix(1 0 0 -1 0 82)" cx="348" cy="41" r="5"/>
      <circle fill="#2E75FE" transform="matrix(1 0 0 -1 0 130)" cx="339" cy="65" r="5"/>
      <circle fill="#2E75FE" transform="matrix(1 0 0 -1 0 104)" cx="333" cy="52" r="5"/>
      <circle fill="#2E75FE" transform="matrix(1 0 0 -1 0 82)" cx="361" cy="41" r="5"/>
      <circle fill="#2E75FE" transform="matrix(1 0 0 -1 0 146)" cx="425" cy="73" r="5"/>
      <circle fill="#2E75FE" transform="matrix(1 0 0 -1 0 114)" cx="432" cy="57" r="5"/>
      <circle fill="#2E75FE" transform="matrix(1 0 0 -1 0 140)" cx="435" cy="70" r="5"/>
      <circle fill="#2E75FE" transform="matrix(1 0 0 -1 0 130)" cx="441" cy="65" r="5"/>
      <circle fill="#2E75FE" transform="matrix(1 0 0 -1 0 58)" cx="350" cy="29" r="5"/>
      <circle fill="#2E75FE" transform="matrix(1 0 0 -1 0 86)" cx="432" cy="43" r="5"/>
      <circle fill="#2E75FE" transform="matrix(1 0 0 -1 0 106)" cx="450" cy="53" r="5"/>
      <circle fill="#2E75FE" transform="matrix(1 0 0 -1 0 64)" cx="382" cy="32" r="5"/>
      <circle fill="#2E75FE" transform="matrix(1 0 0 -1 0 70)" cx="425" cy="35" r="5"/>
      <circle fill="#2E75FE" transform="matrix(1 0 0 -1 0 76)" cx="439" cy="38" r="5"/>
      <circle fill="#2E75FE" transform="matrix(1 0 0 -1 0 138)" cx="467" cy="69" r="5"/>
      <circle fill="#2E75FE" transform="matrix(1 0 0 -1 0 74)" cx="414" cy="37" r="5"/>
      <circle fill="#2E75FE" transform="matrix(1 0 0 -1 0 74)" cx="447" cy="37" r="5"/>
      <circle fill="#2E75FE" transform="matrix(1 0 0 -1 0 160)" cx="436" cy="80" r="5"/>
      <circle fill="#2E75FE" transform="matrix(1 0 0 -1 0 150)" cx="447" cy="75" r="5"/>
      <circle fill="#2E75FE" transform="matrix(1 0 0 -1 0 136)" cx="454" cy="68" r="5"/>
      <circle fill="#2E75FE" transform="matrix(1 0 0 -1 0 102)" cx="440" cy="51" r="5"/>
      <circle fill="#2E75FE" transform="matrix(1 0 0 -1 0 114)" cx="457" cy="57" r="5"/>
      <circle fill="#2E75FE" transform="matrix(1 0 0 -1 0 170)" cx="427" cy="85" r="5"/>
      <circle fill="#2E75FE" transform="matrix(1 0 0 -1 0 166)" cx="416" cy="83" r="5"/>
      <circle fill="#2E75FE" transform="matrix(1 0 0 -1 0 140)" cx="412" cy="70" r="5"/>
      <circle fill="#2E75FE" transform="matrix(1 0 0 -1 0 184)" cx="442" cy="92" r="5"/>
      <circle fill="#2E75FE" transform="matrix(1 0 0 -1 0 174)" cx="449" cy="87" r="5"/>
      <circle fill="#2E75FE" transform="matrix(1 0 0 -1 0 160)" cx="457" cy="80" r="5"/>
      <circle fill="#2E75FE" transform="matrix(1 0 0 -1 0 64)" cx="225" cy="32" r="5"/>
      <circle fill="#2E75FE" transform="matrix(1 0 0 -1 0 60)" cx="207" cy="30" r="5"/>
      <circle fill="#2E75FE" transform="matrix(1 0 0 -1 0 174)" cx="387" cy="87" r="5"/>
      <circle fill="#2E75FE" transform="matrix(1 0 0 -1 0 184)" cx="375" cy="92" r="5"/>
      <circle fill="#2E75FE" transform="matrix(1 0 0 -1 0 174)" cx="362" cy="87" r="5"/>
      <circle fill="#2E75FE" transform="matrix(1 0 0 -1 0 156)" cx="357" cy="78" r="5"/>
      <circle fill="#2E75FE" transform="matrix(1 0 0 -1 0 144)" cx="346" cy="72" r="5"/>
      <circle fill="#2E75FE" transform="matrix(1 0 0 -1 0 166)" cx="370" cy="83" r="5"/>
      <circle fill="#2E75FE" transform="matrix(1 0 0 -1 0 144)" cx="370" cy="72" r="5"/>
      <circle fill="#2E75FE" transform="matrix(1 0 0 -1 0 86)" cx="338" cy="43" r="5"/>
      <circle fill="#2E75FE" transform="matrix(1 0 0 -1 0 126)" cx="347" cy="63" r="5"/>
      <circle fill="#2E75FE" transform="matrix(1 0 0 -1 0 156)" cx="381" cy="78" r="5"/>
      <circle fill="#2E75FE" transform="matrix(1 0 0 -1 0 136)" cx="377" cy="68" r="5"/>
      <circle fill="#2E75FE" transform="matrix(1 0 0 -1 0 120)" cx="379" cy="60" r="5"/>
      <circle fill="#2E75FE" transform="matrix(1 0 0 -1 0 104)" cx="376" cy="52" r="5"/>
      <circle fill="#2E75FE" transform="matrix(1 0 0 -1 0 96)" cx="388" cy="48" r="5"/>
      <circle fill="#2E75FE" transform="matrix(1 0 0 -1 0 72)" cx="374" cy="36" r="5"/>
      <circle fill="#2E75FE" transform="matrix(1 0 0 -1 0 88)" cx="375" cy="44" r="5"/>
      <circle fill="#2E75FE" transform="matrix(1 0 0 -1 0 80)" cx="402" cy="40" r="5"/>
      <circle fill="#2E75FE" transform="matrix(1 0 0 -1 0 60)" cx="396" cy="30" r="5"/>
      <circle fill="#2E75FE" transform="matrix(1 0 0 -1 0 112)" cx="368" cy="56" r="5"/>
      <circle fill="#2E75FE" transform="matrix(1 0 0 -1 0 64)" cx="325" cy="32" r="5"/>
      <circle fill="#2E75FE" transform="matrix(1 0 0 -1 0 128)" cx="365" cy="64" r="5"/>
      <circle fill="#2E75FE" transform="matrix(1 0 0 -1 0 114)" cx="356" cy="57" r="5"/>
      <circle fill="#2E75FE" transform="matrix(1 0 0 -1 0 96)" cx="357" cy="48" r="5"/>
      <circle fill="#2E75FE" transform="matrix(1 0 0 -1 0 60)" cx="359" cy="30" r="5"/>
      <circle fill="#2E75FE" transform="matrix(1 0 0 -1 0 56)" cx="368" cy="28" r="5"/>
      <circle fill="#2E75FE" transform="matrix(1 0 0 -1 0 150)" cx="389" cy="75" r="5"/>
      <circle fill="#2E75FE" transform="matrix(1 0 0 -1 0 134)" cx="390" cy="67" r="5"/>
      <circle fill="#2E75FE" transform="matrix(1 0 0 -1 0 184)" cx="352" cy="92" r="5"/>
      <circle fill="#2E75FE" transform="matrix(1 0 0 -1 0 160)" cx="347" cy="80" r="5"/>
      <circle fill="#2E75FE" transform="matrix(1 0 0 -1 0 84)" cx="317" cy="42" r="5"/>
      <circle fill="#2E75FE" transform="matrix(1 0 0 -1 0 180)" cx="337" cy="90" r="5"/>
      <circle fill="#2E75FE" transform="matrix(1 0 0 -1 0 166)" cx="327" cy="83" r="5"/>
      <circle fill="#2E75FE" transform="matrix(1 0 0 -1 0 126)" cx="328" cy="63" r="5"/>
      <circle fill="#2E75FE" transform="matrix(1 0 0 -1 0 118)" cx="317" cy="59" r="5"/>
      <circle fill="#2E75FE" transform="matrix(1 0 0 -1 0 96)" cx="318" cy="48" r="5"/>
      <circle fill="#2E75FE" transform="matrix(1 0 0 -1 0 70)" cx="335" cy="35" r="5"/>
      <circle fill="#2E75FE" transform="matrix(1 0 0 -1 0 92)" cx="305" cy="46" r="5"/>
      <circle fill="#2E75FE" transform="matrix(1 0 0 -1 0 54)" cx="300" cy="27" r="5"/>
      <circle fill="#2E75FE" transform="matrix(1 0 0 -1 0 58)" cx="312" cy="29" r="5"/>
      <circle fill="#2E75FE" transform="matrix(1 0 0 -1 0 92)" cx="322" cy="46" r="5"/>
      <circle fill="#2E75FE" transform="matrix(1 0 0 -1 0 66)" cx="238" cy="33" r="5"/>
      <circle fill="#2E75FE" transform="matrix(1 0 0 -1 0 106)" cx="290" cy="53" r="5"/>
      <circle fill="#2E75FE" transform="matrix(1 0 0 -1 0 104)" cx="275" cy="52" r="5"/>
      <circle fill="#2E75FE" transform="matrix(1 0 0 -1 0 102)" cx="265" cy="51" r="5"/>
      <circle fill="#2E75FE" transform="matrix(1 0 0 -1 0 62)" cx="265" cy="31" r="5"/>
      <circle fill="#2E75FE" transform="matrix(1 0 0 -1 0 82)" cx="256" cy="41" r="5"/>
      <circle fill="#2E75FE" transform="matrix(1 0 0 -1 0 100)" cx="254" cy="50" r="5"/>
      <circle fill="#2E75FE" transform="matrix(1 0 0 -1 0 94)" cx="282" cy="47" r="5"/>
      <circle fill="#2E75FE" transform="matrix(1 0 0 -1 0 78)" cx="273" cy="39" r="5"/>
      <circle fill="#2E75FE" transform="matrix(1 0 0 -1 0 86)" cx="293" cy="43" r="5"/>
      <circle fill="#2E75FE" transform="matrix(1 0 0 -1 0 66)" cx="290" cy="33" r="5"/>
      <circle fill="#2E75FE" transform="matrix(1 0 0 -1 0 158)" cx="312" cy="79" r="5"/>
      <circle fill="#2E75FE" transform="matrix(1 0 0 -1 0 150)" cx="335" cy="75" r="5"/>
      <circle fill="#2E75FE" transform="matrix(1 0 0 -1 0 190)" cx="344" cy="95" r="5"/>
      <circle fill="#2E75FE" transform="matrix(1 0 0 -1 0 190)" cx="329" cy="95" r="5"/>
      <circle fill="#2E75FE" transform="matrix(1 0 0 -1 0 204)" cx="319" cy="102" r="5"/>
      <circle fill="#2E75FE" transform="matrix(1 0 0 -1 0 202)" cx="308" cy="101" r="5"/>
      <circle fill="#2E75FE" transform="matrix(1 0 0 -1 0 184)" cx="310" cy="92" r="5"/>
      <circle fill="#2E75FE" transform="matrix(1 0 0 -1 0 158)" cx="300" cy="79" r="5"/>
      <circle fill="#2E75FE" transform="matrix(1 0 0 -1 0 128)" cx="295" cy="64" r="5"/>
      <circle fill="#2E75FE" transform="matrix(1 0 0 -1 0 124)" cx="283" cy="62" r="5"/>
      <circle fill="#2E75FE" transform="matrix(1 0 0 -1 0 150)" cx="293" cy="75" r="5"/>
      <circle fill="#2E75FE" transform="matrix(1 0 0 -1 0 146)" cx="270" cy="73" r="5"/>
      <circle fill="#2E75FE" transform="matrix(1 0 0 -1 0 162)" cx="281" cy="81" r="5"/>
      <circle fill="#2E75FE" transform="matrix(1 0 0 -1 0 164)" cx="253" cy="82" r="5"/>
      <circle fill="#2E75FE" transform="matrix(1 0 0 -1 0 178)" cx="258" cy="89" r="5"/>
      <circle fill="#2E75FE" transform="matrix(1 0 0 -1 0 192)" cx="250" cy="96" r="5"/>
      <circle fill="#2E75FE" transform="matrix(1 0 0 -1 0 178)" cx="243" cy="89" r="5"/>
      <circle fill="#2E75FE" transform="matrix(1 0 0 -1 0 190)" cx="233" cy="95" r="5"/>
      <circle fill="#2E75FE" transform="matrix(1 0 0 -1 0 202)" cx="243" cy="101" r="5"/>
      <circle fill="#2E75FE" transform="matrix(1 0 0 -1 0 114)" cx="247" cy="57" r="5"/>
      <circle fill="#2E75FE" transform="matrix(1 0 0 -1 0 164)" cx="246" cy="82" r="5"/>
      <circle fill="#2E75FE" transform="matrix(1 0 0 -1 0 142)" cx="244" cy="71" r="5"/>
      <circle fill="#2E75FE" transform="matrix(1 0 0 -1 0 146)" cx="261" cy="73" r="5"/>
      <circle fill="#2E75FE" transform="matrix(1 0 0 -1 0 146)" cx="283" cy="73" r="5"/>
      <circle fill="#2E75FE" transform="matrix(1 0 0 -1 0 124)" cx="273" cy="62" r="5"/>
      <circle fill="#2E75FE" transform="matrix(1 0 0 -1 0 124)" cx="262" cy="62" r="5"/>
      <circle fill="#2E75FE" transform="matrix(1 0 0 -1 0 126)" cx="253" cy="63" r="5"/>
      <circle fill="#2E75FE" transform="matrix(1 0 0 -1 0 92)" cx="244" cy="46" r="5"/>
      <circle fill="#2E75FE" transform="matrix(1 0 0 -1 0 134)" cx="307" cy="67" r="5"/>
      <circle fill="#2E75FE" transform="matrix(1 0 0 -1 0 142)" cx="318" cy="71" r="5"/>
      <circle fill="#2E75FE" transform="matrix(1 0 0 -1 0 178)" cx="283" cy="89" r="5"/>
      <circle fill="#2E75FE" transform="matrix(1 0 0 -1 0 114)" cx="305" cy="57" r="5"/>
      <circle fill="#2E75FE" transform="matrix(1 0 0 -1 0 174)" cx="317" cy="87" r="5"/>
      <circle fill="#2E75FE" transform="matrix(1 0 0 -1 0 204)" cx="302" cy="102" r="5"/>
      <circle fill="#2E75FE" transform="matrix(1 0 0 -1 0 214)" cx="293" cy="107" r="5"/>
      <circle fill="#2E75FE" transform="matrix(1 0 0 -1 0 180)" cx="298" cy="90" r="5"/>
      <circle fill="#2E75FE" transform="matrix(1 0 0 -1 0 200)" cx="385" cy="100" r="5"/>
      <circle fill="#2E75FE" transform="matrix(1 0 0 -1 0 224)" cx="387" cy="112" r="5"/>
      <circle fill="#2E75FE" transform="matrix(1 0 0 -1 0 170)" cx="397" cy="85" r="5"/>
      <circle fill="#2E75FE" transform="matrix(1 0 0 -1 0 176)" cx="402" cy="88" r="5"/>
      <circle fill="#2E75FE" transform="matrix(1 0 0 -1 0 200)" cx="404" cy="100" r="5"/>
      <circle fill="#2E75FE" transform="matrix(1 0 0 -1 0 194)" cx="397" cy="97" r="5"/>
      <circle fill="#2E75FE" transform="matrix(1 0 0 -1 0 204)" cx="442" cy="102" r="5"/>
      <circle fill="#2E75FE" transform="matrix(1 0 0 -1 0 76)" cx="244" cy="38" r="5"/>
      <circle fill="#2E75FE" transform="matrix(1 0 0 -1 0 194)" cx="432" cy="97" r="5"/>
      <circle fill="#2E75FE" transform="matrix(1 0 0 -1 0 204)" cx="412" cy="102" r="5"/>
      <circle fill="#2E75FE" transform="matrix(1 0 0 -1 0 134)" cx="241" cy="67" r="5"/>
      <circle fill="#2E75FE" transform="matrix(1 0 0 -1 0 140)" cx="235" cy="70" r="5"/>
      <circle fill="#2E75FE" transform="matrix(1 0 0 -1 0 118)" cx="233" cy="59" r="5"/>
      <circle fill="#2E75FE" transform="matrix(1 0 0 -1 0 224)" cx="397" cy="112" r="5"/>
      <circle fill="#2E75FE" transform="matrix(1 0 0 -1 0 204)" cx="377" cy="102" r="5"/>
      <circle fill="#2E75FE" transform="matrix(1 0 0 -1 0 200)" cx="362" cy="100" r="5"/>
      <circle fill="#2E75FE" transform="matrix(1 0 0 -1 0 214)" cx="356" cy="107" r="5"/>
      <circle fill="#2E75FE" transform="matrix(1 0 0 -1 0 194)" cx="367" cy="97" r="5"/>
      <circle fill="#2E75FE" transform="matrix(1 0 0 -1 0 212)" cx="372" cy="106" r="5"/>
      <circle fill="#2E75FE" transform="matrix(1 0 0 -1 0 204)" cx="352" cy="102" r="5"/>
      <circle fill="#2E75FE" transform="matrix(1 0 0 -1 0 204)" cx="339" cy="102" r="5"/>
      <circle fill="#2E75FE" transform="matrix(1 0 0 -1 0 214)" cx="327" cy="107" r="5"/>
      <circle fill="#2E75FE" transform="matrix(1 0 0 -1 0 214)" cx="337" cy="107" r="5"/>
      <circle fill="#2E75FE" transform="matrix(1 0 0 -1 0 224)" cx="365" cy="112" r="5"/>
      <circle fill="#2E75FE" transform="matrix(1 0 0 -1 0 230)" cx="376" cy="115" r="5"/>
      <circle fill="#2E75FE" transform="matrix(1 0 0 -1 0 230)" cx="350" cy="115" r="5"/>
      <circle fill="#2E75FE" transform="matrix(1 0 0 -1 0 234)" cx="338" cy="117" r="5"/>
      <circle fill="#2E75FE" transform="matrix(1 0 0 -1 0 230)" cx="320" cy="115" r="5"/>
      <circle fill="#2E75FE" transform="matrix(1 0 0 -1 0 224)" cx="307" cy="112" r="5"/>
      <circle fill="#2E75FE" transform="matrix(1 0 0 -1 0 234)" cx="297" cy="117" r="5"/>
      <circle fill="#2E75FE" transform="rotate(180 288 101)" cx="288" cy="101" r="5"/>
      <circle fill="#2E75FE" transform="rotate(180 271 87)" cx="271" cy="87" r="5"/>
      <circle fill="#2E75FE" transform="rotate(180 264 87)" cx="264" cy="87" r="5"/>
      <circle fill="#2E75FE" transform="rotate(180 260 98)" cx="260" cy="98" r="5"/>
      <circle fill="#2E75FE" transform="rotate(180 252 108)" cx="252" cy="108" r="5"/>
      <circle fill="#2E75FE" transform="rotate(180 257 115)" cx="257" cy="115" r="5"/>
      <circle fill="#2E75FE" transform="rotate(180 264 101)" cx="264" cy="101" r="5"/>
      <circle fill="#2E75FE" transform="rotate(180 242 115)" cx="242" cy="115" r="5"/>
      <circle fill="#2E75FE" transform="rotate(180 282 107)" cx="282" cy="107" r="5"/>
      <circle fill="#2E75FE" transform="rotate(180 273 100)" cx="273" cy="100" r="5"/>
      <circle fill="#2E75FE" transform="rotate(180 264 112)" cx="264" cy="112" r="5"/>
      <circle fill="#2E75FE" transform="rotate(180 276 112)" cx="276" cy="112" r="5"/>
    </g>
    <path d="M484.545 231.172s-.653-.646 0 0l-20.671-26.485-6.46-1.938-2.59-13.565s0-.646-.64-.646l-8.398-1.292-2.584-11.628s.646 0 .646-.646l.646-8.397 5.814-3.23 3.876-9.69v-.646l-6.46-11.628 11.628-10.335 10.981-21.963 10.33-10.336v-.646l-3.87-6.46h-.646l-19.38-5.814-5.813-13.565.64-18.087s0-.646-.64-.646l-3.23-1.292 1.938-3.23v-.646l-.646-.646-13.572-4.522-1.931-8.398s0-.646-.646-.646l-10.342-4.522-62.008 1.292H69.827l.64-28.423V1.85h-.64l-12.919 8.398-16.15 1.292L8.46 32.211v.646L2 280.267v.645h.64l87.206 1.938 308.138-1.292h.646l11.627-13.565 10.336-.646 9.69 5.814h.646l4.515-4.522 17.448-5.168 2.584-2.584v-.646l-1.292-4.522 30.36-24.547c-.652 0-.652 0 0 0z" stroke="#D5E5FF" stroke-width="3"/>
  </g>
</svg>
