<svg xmlns="http://www.w3.org/2000/svg" viewBox="0 0 859 652">
  <g transform="translate(2.194 2.084)" fill="none" fill-rule="evenodd">
    <circle fill="#2E75FE" cx="298.446" cy="373.399" r="5.123"/>
    <circle fill="#2E75FE" cx="295.446" cy="356.399" r="5.123"/>
    <circle fill="#2E75FE" transform="matrix(1 0 0 -1 0 1165.831)" cx="666.806" cy="582.916" r="5"/>
    <circle fill="#2E75FE" transform="matrix(1 0 0 -1 0 1151.831)" cx="651.806" cy="575.916" r="5"/>
    <circle fill="#2E75FE" transform="matrix(1 0 0 -1 0 1151.831)" cx="641.806" cy="575.916" r="5"/>
    <circle fill="#2E75FE" transform="matrix(1 0 0 -1 0 1137.831)" cx="656.806" cy="568.916" r="5"/>
    <circle fill="#2E75FE" transform="matrix(1 0 0 -1 0 1141.831)" cx="676.806" cy="570.916" r="5"/>
    <circle fill="#2E75FE" transform="matrix(1 0 0 -1 0 787.831)" cx="411.806" cy="393.916" r="5"/>
    <circle fill="#2E75FE" transform="matrix(1 0 0 -1 0 1111.831)" cx="666.806" cy="555.916" r="5"/>
    <circle fill="#2E75FE" transform="matrix(1 0 0 -1 0 1111.831)" cx="681.806" cy="555.916" r="5"/>
    <circle fill="#2E75FE" transform="matrix(1 0 0 -1 0 1095.831)" cx="681.806" cy="547.916" r="5"/>
    <circle fill="#2E75FE" transform="matrix(1 0 0 -1 0 699.831)" cx="332.806" cy="349.916" r="5"/>
    <circle fill="#2E75FE" transform="matrix(1 0 0 -1 0 1091.831)" cx="711.806" cy="545.916" r="5"/>
    <circle fill="#2E75FE" transform="matrix(1 0 0 -1 0 1071.831)" cx="716.806" cy="535.916" r="5"/>
    <circle fill="#2E75FE" transform="matrix(1 0 0 -1 0 1045.831)" cx="739.806" cy="522.916" r="5"/>
    <circle fill="#2E75FE" transform="matrix(1 0 0 -1 0 1025.831)" cx="749.806" cy="512.916" r="5"/>
    <circle fill="#2E75FE" transform="matrix(1 0 0 -1 0 1009.831)" cx="757.806" cy="504.916" r="5"/>
    <circle fill="#2E75FE" transform="matrix(1 0 0 -1 0 1031.831)" cx="766.806" cy="515.916" r="5"/>
    <circle fill="#2E75FE" transform="matrix(1 0 0 -1 0 1015.831)" cx="781.806" cy="507.916" r="5"/>
    <circle fill="#2E75FE" transform="matrix(1 0 0 -1 0 1045.831)" cx="723.806" cy="522.916" r="5"/>
    <circle fill="#2E75FE" transform="matrix(1 0 0 -1 0 1053.831)" cx="696.806" cy="526.916" r="5"/>
    <circle fill="#2E75FE" transform="matrix(1 0 0 -1 0 1061.831)" cx="680.806" cy="530.916" r="5"/>
    <circle fill="#2E75FE" transform="matrix(1 0 0 -1 0 1053.831)" cx="707.806" cy="526.916" r="5"/>
    <circle fill="#2E75FE" transform="matrix(1 0 0 -1 0 1045.831)" cx="755.806" cy="522.916" r="5"/>
    <circle fill="#2E75FE" transform="matrix(1 0 0 -1 0 1065.831)" cx="768.806" cy="532.916" r="5"/>
    <circle fill="#2E75FE" transform="matrix(1 0 0 -1 0 1045.831)" cx="779.806" cy="522.916" r="5"/>
    <circle fill="#2E75FE" transform="matrix(1 0 0 -1 0 1009.831)" cx="726.806" cy="504.916" r="5"/>
    <circle fill="#2E75FE" transform="matrix(1 0 0 -1 0 1029.831)" cx="691.806" cy="514.916" r="5"/>
    <circle fill="#2E75FE" transform="matrix(1 0 0 -1 0 1081.831)" cx="663.806" cy="540.916" r="5"/>
    <circle fill="#2E75FE" transform="matrix(1 0 0 -1 0 1109.831)" cx="653.806" cy="554.916" r="5"/>
    <circle fill="#2E75FE" transform="matrix(1 0 0 -1 0 1129.831)" cx="646.806" cy="564.916" r="5"/>
    <circle fill="#2E75FE" transform="matrix(1 0 0 -1 0 1109.831)" cx="640.806" cy="554.916" r="5"/>
    <circle fill="#2E75FE" transform="matrix(1 0 0 -1 0 1121.831)" cx="626.806" cy="560.916" r="5"/>
    <circle fill="#2E75FE" transform="matrix(1 0 0 -1 0 1031.831)" cx="681.806" cy="515.916" r="5"/>
    <circle fill="#2E75FE" transform="matrix(1 0 0 -1 0 1065.831)" cx="652.806" cy="532.916" r="5"/>
    <circle fill="#2E75FE" transform="matrix(1 0 0 -1 0 1055.831)" cx="642.806" cy="527.916" r="5"/>
    <circle fill="#2E75FE" transform="matrix(1 0 0 -1 0 1089.831)" cx="653.806" cy="544.916" r="5"/>
    <circle fill="#2E75FE" transform="matrix(1 0 0 -1 0 1075.831)" cx="635.806" cy="537.916" r="5"/>
    <circle fill="#2E75FE" transform="matrix(1 0 0 -1 0 1095.831)" cx="627.806" cy="547.916" r="5"/>
    <circle fill="#2E75FE" transform="matrix(1 0 0 -1 0 1107.831)" cx="616.806" cy="553.916" r="5"/>
    <circle fill="#2E75FE" transform="matrix(1 0 0 -1 0 1133.831)" cx="610.806" cy="566.916" r="5"/>
    <circle fill="#2E75FE" transform="matrix(1 0 0 -1 0 1113.831)" cx="606.806" cy="556.916" r="5"/>
    <circle fill="#2E75FE" transform="matrix(1 0 0 -1 0 1131.831)" cx="601.806" cy="565.916" r="5"/>
    <circle fill="#2E75FE" transform="matrix(1 0 0 -1 0 1125.831)" cx="590.806" cy="562.916" r="5"/>
    <circle fill="#2E75FE" transform="matrix(1 0 0 -1 0 1127.831)" cx="580.806" cy="563.916" r="5"/>
    <circle fill="#2E75FE" transform="matrix(1 0 0 -1 0 1147.831)" cx="586.806" cy="573.916" r="5"/>
    <circle fill="#2E75FE" transform="matrix(1 0 0 -1 0 1145.831)" cx="574.806" cy="572.916" r="5"/>
    <circle fill="#2E75FE" transform="matrix(1 0 0 -1 0 1149.831)" cx="565.806" cy="574.916" r="5"/>
    <circle fill="#2E75FE" transform="matrix(1 0 0 -1 0 1155.831)" cx="597.806" cy="577.916" r="5"/>
    <circle fill="#2E75FE" transform="matrix(1 0 0 -1 0 1173.831)" cx="593.806" cy="586.916" r="5"/>
    <circle fill="#2E75FE" transform="matrix(1 0 0 -1 0 1165.831)" cx="578.806" cy="582.916" r="5"/>
    <circle fill="#2E75FE" transform="matrix(1 0 0 -1 0 1183.831)" cx="570.806" cy="591.916" r="5"/>
    <circle fill="#2E75FE" transform="matrix(1 0 0 -1 0 1171.831)" cx="563.806" cy="585.916" r="5"/>
    <circle fill="#2E75FE" transform="matrix(1 0 0 -1 0 1185.831)" cx="554.806" cy="592.916" r="5"/>
    <circle fill="#2E75FE" transform="matrix(1 0 0 -1 0 1179.831)" cx="541.806" cy="589.916" r="5"/>
    <circle fill="#2E75FE" transform="matrix(1 0 0 -1 0 1181.831)" cx="533.806" cy="590.916" r="5"/>
    <circle fill="#2E75FE" transform="matrix(1 0 0 -1 0 1089.831)" cx="615.806" cy="544.916" r="5"/>
    <circle fill="#2E75FE" transform="matrix(1 0 0 -1 0 1087.831)" cx="604.806" cy="543.916" r="5"/>
    <circle fill="#2E75FE" transform="matrix(1 0 0 -1 0 1047.831)" cx="591.806" cy="523.916" r="5"/>
    <circle fill="#2E75FE" transform="matrix(1 0 0 -1 0 1049.831)" cx="582.806" cy="524.916" r="5"/>
    <circle fill="#2E75FE" transform="matrix(1 0 0 -1 0 1033.831)" cx="580.806" cy="516.916" r="5"/>
    <circle fill="#2E75FE" transform="matrix(1 0 0 -1 0 1035.831)" cx="568.806" cy="517.916" r="5"/>
    <circle fill="#2E75FE" transform="matrix(1 0 0 -1 0 1035.831)" cx="553.806" cy="517.916" r="5"/>
    <circle fill="#2E75FE" transform="matrix(1 0 0 -1 0 1017.831)" cx="543.806" cy="508.916" r="5"/>
    <circle fill="#2E75FE" transform="matrix(1 0 0 -1 0 1027.831)" cx="528.806" cy="513.916" r="5"/>
    <circle fill="#2E75FE" transform="matrix(1 0 0 -1 0 1015.831)" cx="519.806" cy="507.916" r="5"/>
    <circle fill="#2E75FE" transform="matrix(1 0 0 -1 0 997.831)" cx="525.806" cy="498.916" r="5"/>
    <circle fill="#2E75FE" transform="matrix(1 0 0 -1 0 1009.831)" cx="512.806" cy="504.916" r="5"/>
    <circle fill="#2E75FE" transform="matrix(1 0 0 -1 0 989.831)" cx="500.806" cy="494.916" r="5"/>
    <circle fill="#2E75FE" transform="matrix(1 0 0 -1 0 995.831)" cx="490.806" cy="497.916" r="5"/>
    <circle fill="#2E75FE" transform="matrix(1 0 0 -1 0 1009.831)" cx="480.806" cy="504.916" r="5"/>
    <circle fill="#2E75FE" transform="matrix(1 0 0 -1 0 987.831)" cx="480.806" cy="493.916" r="5"/>
    <circle fill="#2E75FE" transform="matrix(1 0 0 -1 0 1025.831)" cx="480.806" cy="512.916" r="5"/>
    <circle fill="#2E75FE" transform="matrix(1 0 0 -1 0 985.831)" cx="509.806" cy="492.916" r="5"/>
    <circle fill="#2E75FE" transform="matrix(1 0 0 -1 0 961.831)" cx="503.806" cy="480.916" r="5"/>
    <circle fill="#2E75FE" transform="matrix(1 0 0 -1 0 971.831)" cx="487.806" cy="485.916" r="5"/>
    <circle fill="#2E75FE" transform="matrix(1 0 0 -1 0 981.831)" cx="469.806" cy="490.916" r="5"/>
    <circle fill="#2E75FE" transform="matrix(1 0 0 -1 0 989.831)" cx="459.806" cy="494.916" r="5"/>
    <circle fill="#2E75FE" transform="matrix(1 0 0 -1 0 739.831)" cx="311.806" cy="369.916" r="5"/>
    <circle fill="#2E75FE" transform="matrix(1 0 0 -1 0 707.831)" cx="306.806" cy="353.916" r="5"/>
    <circle fill="#2E75FE" transform="matrix(1 0 0 -1 0 675.831)" cx="305.806" cy="337.916" r="5"/>
    <circle fill="#2E75FE" transform="matrix(1 0 0 -1 0 681.831)" cx="290.806" cy="340.916" r="5"/>
    <circle fill="#2E75FE" transform="matrix(1 0 0 -1 0 963.831)" cx="456.806" cy="481.916" r="5"/>
    <circle fill="#2E75FE" transform="matrix(1 0 0 -1 0 957.831)" cx="447.806" cy="478.916" r="5"/>
    <circle fill="#2E75FE" transform="matrix(1 0 0 -1 0 941.831)" cx="494.806" cy="470.916" r="5"/>
    <circle fill="#2E75FE" transform="matrix(1 0 0 -1 0 945.831)" cx="482.806" cy="472.916" r="5"/>
    <circle fill="#2E75FE" transform="matrix(1 0 0 -1 0 957.831)" cx="475.806" cy="478.916" r="5"/>
    <circle fill="#2E75FE" transform="matrix(1 0 0 -1 0 933.831)" cx="471.806" cy="466.916" r="5"/>
    <circle fill="#2E75FE" transform="matrix(1 0 0 -1 0 951.831)" cx="465.806" cy="475.916" r="5"/>
    <circle fill="#2E75FE" transform="matrix(1 0 0 -1 0 939.831)" cx="454.806" cy="469.916" r="5"/>
    <circle fill="#2E75FE" transform="matrix(1 0 0 -1 0 933.831)" cx="442.806" cy="466.916" r="5"/>
    <circle fill="#2E75FE" transform="matrix(1 0 0 -1 0 937.831)" cx="432.806" cy="468.916" r="5"/>
    <circle fill="#2E75FE" transform="matrix(1 0 0 -1 0 929.831)" cx="460.806" cy="464.916" r="5"/>
    <circle fill="#2E75FE" transform="matrix(1 0 0 -1 0 917.831)" cx="491.806" cy="458.916" r="5"/>
    <circle fill="#2E75FE" transform="matrix(1 0 0 -1 0 925.831)" cx="481.806" cy="462.916" r="5"/>
    <circle fill="#2E75FE" transform="matrix(1 0 0 -1 0 909.831)" cx="480.806" cy="454.916" r="5"/>
    <circle fill="#2E75FE" transform="matrix(1 0 0 -1 0 899.831)" cx="470.806" cy="449.916" r="5"/>
    <circle fill="#2E75FE" transform="matrix(1 0 0 -1 0 899.831)" cx="460.806" cy="449.916" r="5"/>
    <circle fill="#2E75FE" transform="matrix(1 0 0 -1 0 885.831)" cx="461.806" cy="442.916" r="5"/>
    <circle fill="#2E75FE" transform="matrix(1 0 0 -1 0 881.831)" cx="451.806" cy="440.916" r="5"/>
    <circle fill="#2E75FE" transform="matrix(1 0 0 -1 0 861.831)" cx="446.806" cy="430.916" r="5"/>
    <circle fill="#2E75FE" transform="matrix(1 0 0 -1 0 907.831)" cx="453.806" cy="453.916" r="5"/>
    <circle fill="#2E75FE" transform="matrix(1 0 0 -1 0 909.831)" cx="438.806" cy="454.916" r="5"/>
    <circle fill="#2E75FE" transform="matrix(1 0 0 -1 0 895.831)" cx="430.806" cy="447.916" r="5"/>
    <circle fill="#2E75FE" transform="matrix(1 0 0 -1 0 879.831)" cx="420.806" cy="439.916" r="5"/>
    <circle fill="#2E75FE" transform="matrix(1 0 0 -1 0 879.831)" cx="439.806" cy="439.916" r="5"/>
    <circle fill="#2E75FE" transform="matrix(1 0 0 -1 0 859.831)" cx="433.806" cy="429.916" r="5"/>
    <circle fill="#2E75FE" transform="matrix(1 0 0 -1 0 831.831)" cx="419.806" cy="415.916" r="5"/>
    <circle fill="#2E75FE" transform="matrix(1 0 0 -1 0 845.831)" cx="444.806" cy="422.916" r="5"/>
    <circle fill="#2E75FE" transform="matrix(1 0 0 -1 0 821.831)" cx="442.806" cy="410.916" r="5"/>
    <circle fill="#2E75FE" transform="matrix(1 0 0 -1 0 747.831)" cx="445.806" cy="373.916" r="5"/>
    <circle fill="#2E75FE" transform="matrix(1 0 0 -1 0 757.831)" cx="435.806" cy="378.916" r="5"/>
    <circle fill="#2E75FE" transform="matrix(1 0 0 -1 0 737.831)" cx="437.806" cy="368.916" r="5"/>
    <circle fill="#2E75FE" transform="matrix(1 0 0 -1 0 709.831)" cx="436.806" cy="354.916" r="5"/>
    <circle fill="#2E75FE" transform="matrix(1 0 0 -1 0 739.831)" cx="421.806" cy="369.916" r="5"/>
    <circle fill="#2E75FE" transform="matrix(1 0 0 -1 0 713.831)" cx="421.806" cy="356.916" r="5"/>
    <circle fill="#2E75FE" transform="matrix(1 0 0 -1 0 723.831)" cx="407.806" cy="361.916" r="5"/>
    <circle fill="#2E75FE" transform="matrix(1 0 0 -1 0 767.831)" cx="454.806" cy="383.916" r="5"/>
    <circle fill="#2E75FE" transform="matrix(1 0 0 -1 0 757.831)" cx="501.806" cy="378.916" r="5"/>
    <circle fill="#2E75FE" transform="matrix(1 0 0 -1 0 759.831)" cx="514.806" cy="379.916" r="5"/>
    <circle fill="#2E75FE" transform="matrix(1 0 0 -1 0 737.831)" cx="514.806" cy="368.916" r="5"/>
    <circle fill="#2E75FE" transform="matrix(1 0 0 -1 0 727.831)" cx="526.806" cy="363.916" r="5"/>
    <circle fill="#2E75FE" transform="matrix(1 0 0 -1 0 789.831)" cx="482.806" cy="394.916" r="5"/>
    <circle fill="#2E75FE" transform="matrix(1 0 0 -1 0 789.831)" cx="464.806" cy="394.916" r="5"/>
    <circle fill="#2E75FE" transform="matrix(1 0 0 -1 0 791.831)" cx="443.806" cy="395.916" r="5"/>
    <circle fill="#2E75FE" transform="matrix(1 0 0 -1 0 771.831)" cx="429.806" cy="385.916" r="5"/>
    <circle fill="#2E75FE" transform="matrix(1 0 0 -1 0 775.831)" cx="442.806" cy="387.916" r="5"/>
    <circle fill="#2E75FE" transform="matrix(1 0 0 -1 0 765.831)" cx="478.806" cy="382.916" r="5"/>
    <circle fill="#2E75FE" transform="matrix(1 0 0 -1 0 747.831)" cx="482.806" cy="373.916" r="5"/>
    <circle fill="#2E75FE" transform="matrix(1 0 0 -1 0 749.831)" cx="468.806" cy="374.916" r="5"/>
    <circle fill="#2E75FE" transform="matrix(1 0 0 -1 0 765.831)" cx="460.806" cy="382.916" r="5"/>
    <circle fill="#2E75FE" transform="matrix(1 0 0 -1 0 731.831)" cx="460.806" cy="365.916" r="5"/>
    <circle fill="#2E75FE" transform="matrix(1 0 0 -1 0 723.831)" cx="451.806" cy="361.916" r="5"/>
    <circle fill="#2E75FE" transform="matrix(1 0 0 -1 0 695.831)" cx="456.806" cy="347.916" r="5"/>
    <circle fill="#2E75FE" transform="matrix(1 0 0 -1 0 663.831)" cx="459.806" cy="331.916" r="5"/>
    <circle fill="#2E75FE" transform="matrix(1 0 0 -1 0 649.831)" cx="463.806" cy="324.916" r="5"/>
    <circle fill="#2E75FE" transform="matrix(1 0 0 -1 0 631.831)" cx="464.806" cy="315.916" r="5"/>
    <circle fill="#2E75FE" transform="matrix(1 0 0 -1 0 609.831)" cx="454.806" cy="304.916" r="5"/>
    <circle fill="#2E75FE" transform="matrix(1 0 0 -1 0 591.831)" cx="467.806" cy="295.916" r="5"/>
    <circle fill="#2E75FE" transform="matrix(1 0 0 -1 0 573.831)" cx="472.806" cy="286.916" r="5"/>
    <circle fill="#2E75FE" transform="matrix(1 0 0 -1 0 567.831)" cx="483.806" cy="283.916" r="5"/>
    <circle fill="#2E75FE" transform="matrix(1 0 0 -1 0 627.831)" cx="478.806" cy="313.916" r="5"/>
    <circle fill="#2E75FE" transform="matrix(1 0 0 -1 0 607.831)" cx="479.806" cy="303.916" r="5"/>
    <circle fill="#2E75FE" transform="matrix(1 0 0 -1 0 587.831)" cx="478.806" cy="293.916" r="5"/>
    <circle fill="#2E75FE" transform="matrix(1 0 0 -1 0 633.831)" cx="492.806" cy="316.916" r="5"/>
    <circle fill="#2E75FE" transform="matrix(1 0 0 -1 0 617.831)" cx="506.806" cy="308.916" r="5"/>
    <circle fill="#2E75FE" transform="matrix(1 0 0 -1 0 595.831)" cx="501.806" cy="297.916" r="5"/>
    <circle fill="#2E75FE" transform="matrix(1 0 0 -1 0 583.831)" cx="511.806" cy="291.916" r="5"/>
    <circle fill="#2E75FE" transform="matrix(1 0 0 -1 0 597.831)" cx="516.806" cy="298.916" r="5"/>
    <circle fill="#2E75FE" transform="matrix(1 0 0 -1 0 587.831)" cx="494.806" cy="293.916" r="5"/>
    <circle fill="#2E75FE" transform="matrix(1 0 0 -1 0 575.831)" cx="502.806" cy="287.916" r="5"/>
    <circle fill="#2E75FE" transform="matrix(1 0 0 -1 0 651.831)" cx="482.806" cy="325.916" r="5"/>
    <circle fill="#2E75FE" transform="matrix(1 0 0 -1 0 639.831)" cx="500.806" cy="319.916" r="5"/>
    <circle fill="#2E75FE" transform="matrix(1 0 0 -1 0 623.831)" cx="518.806" cy="311.916" r="5"/>
    <circle fill="#2E75FE" transform="matrix(1 0 0 -1 0 599.831)" cx="526.806" cy="299.916" r="5"/>
    <circle fill="#2E75FE" transform="matrix(1 0 0 -1 0 577.831)" cx="530.806" cy="288.916" r="5"/>
    <circle fill="#2E75FE" transform="matrix(1 0 0 -1 0 651.831)" cx="513.806" cy="325.916" r="5"/>
    <circle fill="#2E75FE" transform="matrix(1 0 0 -1 0 663.831)" cx="498.806" cy="331.916" r="5"/>
    <circle fill="#2E75FE" transform="matrix(1 0 0 -1 0 723.831)" cx="469.806" cy="361.916" r="5"/>
    <circle fill="#2E75FE" transform="matrix(1 0 0 -1 0 693.831)" cx="470.806" cy="346.916" r="5"/>
    <circle fill="#2E75FE" transform="matrix(1 0 0 -1 0 739.831)" cx="488.806" cy="369.916" r="5"/>
    <circle fill="#2E75FE" transform="matrix(1 0 0 -1 0 711.831)" cx="483.806" cy="355.916" r="5"/>
    <circle fill="#2E75FE" transform="matrix(1 0 0 -1 0 693.831)" cx="493.806" cy="346.916" r="5"/>
    <circle fill="#2E75FE" transform="matrix(1 0 0 -1 0 673.831)" cx="496.806" cy="336.916" r="5"/>
    <circle fill="#2E75FE" transform="matrix(1 0 0 -1 0 673.831)" cx="507.806" cy="336.916" r="5"/>
    <circle fill="#2E75FE" transform="matrix(1 0 0 -1 0 721.831)" cx="497.806" cy="360.916" r="5"/>
    <circle fill="#2E75FE" transform="matrix(1 0 0 -1 0 703.831)" cx="509.806" cy="351.916" r="5"/>
    <circle fill="#2E75FE" transform="matrix(1 0 0 -1 0 711.831)" cx="515.806" cy="355.916" r="5"/>
    <circle fill="#2E75FE" transform="matrix(1 0 0 -1 0 683.831)" cx="520.806" cy="341.916" r="5"/>
    <circle fill="#2E75FE" transform="matrix(1 0 0 -1 0 699.831)" cx="526.806" cy="349.916" r="5"/>
    <circle fill="#2E75FE" transform="matrix(1 0 0 -1 0 669.831)" cx="530.806" cy="334.916" r="5"/>
    <circle fill="#2E75FE" transform="matrix(1 0 0 -1 0 641.831)" cx="529.806" cy="320.916" r="5"/>
    <circle fill="#2E75FE" transform="matrix(1 0 0 -1 0 807.831)" cx="431.806" cy="403.916" r="5"/>
    <circle fill="#2E75FE" transform="matrix(1 0 0 -1 0 803.831)" cx="417.806" cy="401.916" r="5"/>
    <circle fill="#2E75FE" transform="matrix(1 0 0 -1 0 771.831)" cx="415.806" cy="385.916" r="5"/>
    <circle fill="#2E75FE" transform="matrix(1 0 0 -1 0 743.831)" cx="408.806" cy="371.916" r="5"/>
    <circle fill="#2E75FE" transform="matrix(1 0 0 -1 0 833.831)" cx="391.806" cy="416.916" r="5"/>
    <circle fill="#2E75FE" transform="matrix(1 0 0 -1 0 809.831)" cx="385.806" cy="404.916" r="5"/>
    <circle fill="#2E75FE" transform="matrix(1 0 0 -1 0 771.831)" cx="388.806" cy="385.916" r="5"/>
    <circle fill="#2E75FE" transform="matrix(1 0 0 -1 0 739.831)" cx="383.806" cy="369.916" r="5"/>
    <circle fill="#2E75FE" transform="matrix(1 0 0 -1 0 723.831)" cx="388.806" cy="361.916" r="5"/>
    <circle fill="#2E75FE" transform="matrix(1 0 0 -1 0 703.831)" cx="388.806" cy="351.916" r="5"/>
    <circle fill="#2E75FE" transform="matrix(1 0 0 -1 0 673.831)" cx="393.806" cy="336.916" r="5"/>
    <circle fill="#2E75FE" transform="matrix(1 0 0 -1 0 645.831)" cx="389.806" cy="322.916" r="5"/>
    <circle fill="#2E75FE" transform="matrix(1 0 0 -1 0 625.831)" cx="396.806" cy="312.916" r="5"/>
    <circle fill="#2E75FE" transform="matrix(1 0 0 -1 0 603.831)" cx="404.806" cy="301.916" r="5"/>
    <circle fill="#2E75FE" transform="matrix(1 0 0 -1 0 591.831)" cx="411.806" cy="295.916" r="5"/>
    <circle fill="#2E75FE" transform="matrix(1 0 0 -1 0 669.831)" cx="405.806" cy="334.916" r="5"/>
    <circle fill="#2E75FE" transform="matrix(1 0 0 -1 0 639.831)" cx="403.806" cy="319.916" r="5"/>
    <circle fill="#2E75FE" transform="matrix(1 0 0 -1 0 633.831)" cx="412.806" cy="316.916" r="5"/>
    <circle fill="#2E75FE" transform="matrix(1 0 0 -1 0 609.831)" cx="419.806" cy="304.916" r="5"/>
    <circle fill="#2E75FE" transform="matrix(1 0 0 -1 0 597.831)" cx="429.806" cy="298.916" r="5"/>
    <circle fill="#2E75FE" transform="matrix(1 0 0 -1 0 647.831)" cx="419.806" cy="323.916" r="5"/>
    <circle fill="#2E75FE" transform="matrix(1 0 0 -1 0 811.831)" cx="380.806" cy="405.916" r="5"/>
    <circle fill="#2E75FE" transform="matrix(1 0 0 -1 0 813.831)" cx="406.806" cy="406.916" r="5"/>
    <circle fill="#2E75FE" transform="matrix(1 0 0 -1 0 797.831)" cx="398.806" cy="398.916" r="5"/>
    <circle fill="#2E75FE" transform="matrix(1 0 0 -1 0 767.831)" cx="402.806" cy="383.916" r="5"/>
    <circle fill="#2E75FE" transform="matrix(1 0 0 -1 0 743.831)" cx="397.806" cy="371.916" r="5"/>
    <circle fill="#2E75FE" transform="matrix(1 0 0 -1 0 893.831)" cx="495.806" cy="446.916" r="5"/>
    <circle fill="#2E75FE" transform="matrix(1 0 0 -1 0 871.831)" cx="498.806" cy="435.916" r="5"/>
    <circle fill="#2E75FE" transform="matrix(1 0 0 -1 0 843.831)" cx="503.806" cy="421.916" r="5"/>
    <circle fill="#2E75FE" transform="matrix(1 0 0 -1 0 825.831)" cx="496.806" cy="412.916" r="5"/>
    <circle fill="#2E75FE" transform="matrix(1 0 0 -1 0 805.831)" cx="490.806" cy="402.916" r="5"/>
    <circle fill="#2E75FE" transform="matrix(1 0 0 -1 0 771.831)" cx="499.806" cy="385.916" r="5"/>
    <circle fill="#2E75FE" transform="matrix(1 0 0 -1 0 811.831)" cx="502.806" cy="405.916" r="5"/>
    <circle fill="#2E75FE" transform="matrix(1 0 0 -1 0 797.831)" cx="509.806" cy="398.916" r="5"/>
    <circle fill="#2E75FE" transform="matrix(1 0 0 -1 0 775.831)" cx="520.806" cy="387.916" r="5"/>
    <circle fill="#2E75FE" transform="matrix(1 0 0 -1 0 831.831)" cx="508.806" cy="415.916" r="5"/>
    <circle fill="#2E75FE" transform="matrix(1 0 0 -1 0 821.831)" cx="514.806" cy="410.916" r="5"/>
    <circle fill="#2E75FE" transform="matrix(1 0 0 -1 0 817.831)" cx="524.806" cy="408.916" r="5"/>
    <circle fill="#2E75FE" transform="matrix(1 0 0 -1 0 887.831)" cx="487.806" cy="443.916" r="5"/>
    <circle fill="#2E75FE" transform="matrix(1 0 0 -1 0 859.831)" cx="485.806" cy="429.916" r="5"/>
    <circle fill="#2E75FE" transform="matrix(1 0 0 -1 0 845.831)" cx="491.806" cy="422.916" r="5"/>
    <circle fill="#2E75FE" transform="matrix(1 0 0 -1 0 831.831)" cx="482.806" cy="415.916" r="5"/>
    <circle fill="#2E75FE" transform="matrix(1 0 0 -1 0 863.831)" cx="478.806" cy="431.916" r="5"/>
    <circle fill="#2E75FE" transform="matrix(1 0 0 -1 0 879.831)" cx="478.806" cy="439.916" r="5"/>
    <circle fill="#2E75FE" transform="matrix(1 0 0 -1 0 853.831)" cx="468.806" cy="426.916" r="5"/>
    <circle fill="#2E75FE" transform="matrix(1 0 0 -1 0 835.831)" cx="464.806" cy="417.916" r="5"/>
    <circle fill="#2E75FE" transform="matrix(1 0 0 -1 0 813.831)" cx="458.806" cy="406.916" r="5"/>
    <circle fill="#2E75FE" transform="matrix(1 0 0 -1 0 821.831)" cx="474.806" cy="410.916" r="5"/>
    <circle fill="#2E75FE" transform="matrix(1 0 0 -1 0 805.831)" cx="472.806" cy="402.916" r="5"/>
    <circle fill="#2E75FE" transform="matrix(1 0 0 -1 0 869.831)" cx="461.806" cy="434.916" r="5"/>
    <circle fill="#2E75FE" transform="matrix(1 0 0 -1 0 851.831)" cx="455.806" cy="425.916" r="5"/>
    <circle fill="#2E75FE" transform="matrix(1 0 0 -1 0 1021.831)" cx="558.806" cy="510.916" r="5"/>
    <circle fill="#2E75FE" transform="matrix(1 0 0 -1 0 1021.831)" cx="572.806" cy="510.916" r="5"/>
    <circle fill="#2E75FE" transform="matrix(1 0 0 -1 0 1007.831)" cx="562.806" cy="503.916" r="5"/>
    <circle fill="#2E75FE" transform="matrix(1 0 0 -1 0 997.831)" cx="552.806" cy="498.916" r="5"/>
    <circle fill="#2E75FE" transform="matrix(1 0 0 -1 0 1105.831)" cx="596.806" cy="552.916" r="5"/>
    <circle fill="#2E75FE" transform="matrix(1 0 0 -1 0 683.831)" cx="481.806" cy="341.916" r="5"/>
    <circle fill="#2E75FE" transform="matrix(1 0 0 -1 0 1065.831)" cx="587.806" cy="532.916" r="5"/>
    <circle fill="#2E75FE" transform="matrix(1 0 0 -1 0 1099.831)" cx="586.806" cy="549.916" r="5"/>
    <circle fill="#2E75FE" transform="matrix(1 0 0 -1 0 1105.831)" cx="572.806" cy="552.916" r="5"/>
    <circle fill="#2E75FE" transform="matrix(1 0 0 -1 0 1091.831)" cx="566.806" cy="545.916" r="5"/>
    <circle fill="#2E75FE" transform="matrix(1 0 0 -1 0 1105.831)" cx="552.806" cy="552.916" r="5"/>
    <circle fill="#2E75FE" transform="matrix(1 0 0 -1 0 1059.831)" cx="553.806" cy="529.916" r="5"/>
    <circle fill="#2E75FE" transform="matrix(1 0 0 -1 0 1049.831)" cx="542.806" cy="524.916" r="5"/>
    <circle fill="#2E75FE" transform="matrix(1 0 0 -1 0 1057.831)" cx="535.806" cy="528.916" r="5"/>
    <circle fill="#2E75FE" transform="matrix(1 0 0 -1 0 1035.831)" cx="540.806" cy="517.916" r="5"/>
    <circle fill="#2E75FE" transform="matrix(1 0 0 -1 0 1069.831)" cx="526.806" cy="534.916" r="5"/>
    <circle fill="#2E75FE" transform="matrix(1 0 0 -1 0 1047.831)" cx="519.806" cy="523.916" r="5"/>
    <circle fill="#2E75FE" transform="matrix(1 0 0 -1 0 1045.831)" cx="508.806" cy="522.916" r="5"/>
    <circle fill="#2E75FE" transform="matrix(1 0 0 -1 0 1029.831)" cx="501.806" cy="514.916" r="5"/>
    <circle fill="#2E75FE" transform="matrix(1 0 0 -1 0 1037.831)" cx="495.806" cy="518.916" r="5"/>
    <circle fill="#2E75FE" transform="matrix(1 0 0 -1 0 1017.831)" cx="492.806" cy="508.916" r="5"/>
    <circle fill="#2E75FE" transform="matrix(1 0 0 -1 0 1015.831)" cx="503.806" cy="507.916" r="5"/>
    <circle fill="#2E75FE" transform="matrix(1 0 0 -1 0 1077.831)" cx="518.806" cy="538.916" r="5"/>
    <circle fill="#2E75FE" transform="matrix(1 0 0 -1 0 1069.831)" cx="508.806" cy="534.916" r="5"/>
    <circle fill="#2E75FE" transform="matrix(1 0 0 -1 0 1057.831)" cx="498.806" cy="528.916" r="5"/>
    <circle fill="#2E75FE" transform="matrix(1 0 0 -1 0 1087.831)" cx="508.806" cy="543.916" r="5"/>
    <circle fill="#2E75FE" transform="matrix(1 0 0 -1 0 1103.831)" cx="498.806" cy="551.916" r="5"/>
    <circle fill="#2E75FE" transform="matrix(1 0 0 -1 0 1111.831)" cx="484.806" cy="555.916" r="5"/>
    <circle fill="#2E75FE" transform="matrix(1 0 0 -1 0 1133.831)" cx="480.806" cy="566.916" r="5"/>
    <circle fill="#2E75FE" transform="matrix(1 0 0 -1 0 1117.831)" cx="474.806" cy="558.916" r="5"/>
    <circle fill="#2E75FE" transform="matrix(1 0 0 -1 0 1127.831)" cx="492.806" cy="563.916" r="5"/>
    <circle fill="#2E75FE" transform="matrix(1 0 0 -1 0 1147.831)" cx="498.806" cy="573.916" r="5"/>
    <circle fill="#2E75FE" transform="matrix(1 0 0 -1 0 1081.831)" cx="498.806" cy="540.916" r="5"/>
    <circle fill="#2E75FE" transform="matrix(1 0 0 -1 0 1079.831)" cx="480.806" cy="539.916" r="5"/>
    <circle fill="#2E75FE" transform="matrix(1 0 0 -1 0 1055.831)" cx="478.806" cy="527.916" r="5"/>
    <circle fill="#2E75FE" transform="matrix(1 0 0 -1 0 1085.831)" cx="469.806" cy="542.916" r="5"/>
    <circle fill="#2E75FE" transform="matrix(1 0 0 -1 0 1083.831)" cx="459.806" cy="541.916" r="5"/>
    <circle fill="#2E75FE" transform="matrix(1 0 0 -1 0 1065.831)" cx="446.806" cy="532.916" r="5"/>
    <circle fill="#2E75FE" transform="matrix(1 0 0 -1 0 1073.831)" cx="433.806" cy="536.916" r="5"/>
    <circle fill="#2E75FE" transform="matrix(1 0 0 -1 0 1077.831)" cx="420.806" cy="538.916" r="5"/>
    <circle fill="#2E75FE" transform="matrix(1 0 0 -1 0 1091.831)" cx="427.806" cy="545.916" r="5"/>
    <circle fill="#2E75FE" transform="matrix(1 0 0 -1 0 1041.831)" cx="444.806" cy="520.916" r="5"/>
    <circle fill="#2E75FE" transform="matrix(1 0 0 -1 0 1049.831)" cx="430.806" cy="524.916" r="5"/>
    <circle fill="#2E75FE" transform="matrix(1 0 0 -1 0 1039.831)" cx="423.806" cy="519.916" r="5"/>
    <circle fill="#2E75FE" transform="matrix(1 0 0 -1 0 1053.831)" cx="416.806" cy="526.916" r="5"/>
    <circle fill="#2E75FE" transform="matrix(1 0 0 -1 0 1063.831)" cx="408.806" cy="531.916" r="5"/>
    <circle fill="#2E75FE" transform="matrix(1 0 0 -1 0 1113.831)" cx="450.806" cy="556.916" r="5"/>
    <circle fill="#2E75FE" transform="matrix(1 0 0 -1 0 1091.831)" cx="449.806" cy="545.916" r="5"/>
    <circle fill="#2E75FE" transform="matrix(1 0 0 -1 0 1089.831)" cx="437.806" cy="544.916" r="5"/>
    <circle fill="#2E75FE" transform="matrix(1 0 0 -1 0 1107.831)" cx="436.806" cy="553.916" r="5"/>
    <circle fill="#2E75FE" transform="matrix(1 0 0 -1 0 1065.831)" cx="491.806" cy="532.916" r="5"/>
    <circle fill="#2E75FE" transform="matrix(1 0 0 -1 0 1041.831)" cx="484.806" cy="520.916" r="5"/>
    <circle fill="#2E75FE" transform="matrix(1 0 0 -1 0 1043.831)" cx="470.806" cy="521.916" r="5"/>
    <circle fill="#2E75FE" transform="matrix(1 0 0 -1 0 1011.831)" cx="470.806" cy="505.916" r="5"/>
    <circle fill="#2E75FE" transform="matrix(1 0 0 -1 0 1023.831)" cx="460.806" cy="511.916" r="5"/>
    <circle fill="#2E75FE" transform="matrix(1 0 0 -1 0 1061.831)" cx="466.806" cy="530.916" r="5"/>
    <circle fill="#2E75FE" transform="matrix(1 0 0 -1 0 1053.831)" cx="458.806" cy="526.916" r="5"/>
    <circle fill="#2E75FE" transform="matrix(1 0 0 -1 0 1025.831)" cx="454.806" cy="512.916" r="5"/>
    <circle fill="#2E75FE" transform="matrix(1 0 0 -1 0 1013.831)" cx="447.806" cy="506.916" r="5"/>
    <circle fill="#2E75FE" transform="matrix(1 0 0 -1 0 1019.831)" cx="432.806" cy="509.916" r="5"/>
    <circle fill="#2E75FE" transform="matrix(1 0 0 -1 0 995.831)" cx="426.806" cy="497.916" r="5"/>
    <circle fill="#2E75FE" transform="matrix(1 0 0 -1 0 1001.831)" cx="437.806" cy="500.916" r="5"/>
    <circle fill="#2E75FE" transform="matrix(1 0 0 -1 0 985.831)" cx="444.806" cy="492.916" r="5"/>
    <circle fill="#2E75FE" transform="matrix(1 0 0 -1 0 1021.831)" cx="418.806" cy="510.916" r="5"/>
    <circle fill="#2E75FE" transform="matrix(1 0 0 -1 0 1043.831)" cx="401.806" cy="521.916" r="5"/>
    <circle fill="#2E75FE" transform="matrix(1 0 0 -1 0 1003.831)" cx="411.806" cy="501.916" r="5"/>
    <circle fill="#2E75FE" transform="matrix(1 0 0 -1 0 987.831)" cx="398.806" cy="493.916" r="5"/>
    <circle fill="#2E75FE" transform="matrix(1 0 0 -1 0 985.831)" cx="420.806" cy="492.916" r="5"/>
    <circle fill="#2E75FE" transform="matrix(1 0 0 -1 0 973.831)" cx="408.806" cy="486.916" r="5"/>
    <circle fill="#2E75FE" transform="matrix(1 0 0 -1 0 943.831)" cx="398.806" cy="471.916" r="5"/>
    <circle fill="#2E75FE" transform="matrix(1 0 0 -1 0 921.831)" cx="403.806" cy="460.916" r="5"/>
    <circle fill="#2E75FE" transform="matrix(1 0 0 -1 0 907.831)" cx="393.806" cy="453.916" r="5"/>
    <circle fill="#2E75FE" transform="matrix(1 0 0 -1 0 905.831)" cx="383.806" cy="452.916" r="5"/>
    <circle fill="#2E75FE" transform="matrix(1 0 0 -1 0 875.831)" cx="387.806" cy="437.916" r="5"/>
    <circle fill="#2E75FE" transform="matrix(1 0 0 -1 0 969.831)" cx="429.806" cy="484.916" r="5"/>
    <circle fill="#2E75FE" transform="matrix(1 0 0 -1 0 955.831)" cx="418.806" cy="477.916" r="5"/>
    <circle fill="#2E75FE" transform="matrix(1 0 0 -1 0 943.831)" cx="408.806" cy="471.916" r="5"/>
    <circle fill="#2E75FE" transform="matrix(1 0 0 -1 0 931.831)" cx="422.806" cy="465.916" r="5"/>
    <circle fill="#2E75FE" transform="matrix(1 0 0 -1 0 907.831)" cx="419.806" cy="453.916" r="5"/>
    <circle fill="#2E75FE" transform="matrix(1 0 0 -1 0 897.831)" cx="409.806" cy="448.916" r="5"/>
    <circle fill="#2E75FE" transform="matrix(1 0 0 -1 0 881.831)" cx="402.806" cy="440.916" r="5"/>
    <circle fill="#2E75FE" transform="matrix(1 0 0 -1 0 847.831)" cx="398.806" cy="423.916" r="5"/>
    <circle fill="#2E75FE" transform="matrix(1 0 0 -1 0 853.831)" cx="387.806" cy="426.916" r="5"/>
    <circle fill="#2E75FE" transform="matrix(1 0 0 -1 0 843.831)" cx="409.806" cy="421.916" r="5"/>
    <circle fill="#2E75FE" transform="matrix(1 0 0 -1 0 869.831)" cx="413.806" cy="434.916" r="5"/>
    <circle fill="#2E75FE" transform="matrix(1 0 0 -1 0 853.831)" cx="422.806" cy="426.916" r="5"/>
    <circle fill="#2E75FE" transform="matrix(1 0 0 -1 0 967.831)" cx="441.806" cy="483.916" r="5"/>
    <circle fill="#2E75FE" transform="matrix(1 0 0 -1 0 1033.831)" cx="407.806" cy="516.916" r="5"/>
    <circle fill="#2E75FE" transform="matrix(1 0 0 -1 0 1013.831)" cx="401.806" cy="506.916" r="5"/>
    <circle fill="#2E75FE" transform="matrix(1 0 0 -1 0 985.831)" cx="387.806" cy="492.916" r="5"/>
    <circle fill="#2E75FE" transform="matrix(1 0 0 -1 0 969.831)" cx="374.806" cy="484.916" r="5"/>
    <circle fill="#2E75FE" transform="matrix(1 0 0 -1 0 953.831)" cx="364.806" cy="476.916" r="5"/>
    <circle fill="#2E75FE" transform="matrix(1 0 0 -1 0 935.831)" cx="365.806" cy="467.916" r="5"/>
    <circle fill="#2E75FE" transform="matrix(1 0 0 -1 0 911.831)" cx="359.806" cy="455.916" r="5"/>
    <circle fill="#2E75FE" transform="matrix(1 0 0 -1 0 885.831)" cx="356.806" cy="442.916" r="5"/>
    <circle fill="#2E75FE" transform="matrix(1 0 0 -1 0 925.831)" cx="348.806" cy="462.916" r="5"/>
    <circle fill="#2E75FE" transform="matrix(1 0 0 -1 0 907.831)" cx="336.806" cy="453.916" r="5"/>
    <circle fill="#2E75FE" transform="matrix(1 0 0 -1 0 883.831)" cx="325.806" cy="441.916" r="5"/>
    <circle fill="#2E75FE" transform="matrix(1 0 0 -1 0 843.831)" cx="322.806" cy="421.916" r="5"/>
    <circle fill="#2E75FE" transform="matrix(1 0 0 -1 0 871.831)" cx="309.806" cy="435.916" r="5"/>
    <circle fill="#2E75FE" transform="matrix(1 0 0 -1 0 803.831)" cx="323.806" cy="401.916" r="5"/>
    <circle fill="#2E75FE" transform="matrix(1 0 0 -1 0 839.831)" cx="315.806" cy="419.916" r="5"/>
    <circle fill="#2E75FE" transform="matrix(1 0 0 -1 0 825.831)" cx="311.806" cy="412.916" r="5"/>
    <circle fill="#2E75FE" transform="matrix(1 0 0 -1 0 793.831)" cx="313.806" cy="396.916" r="5"/>
    <circle fill="#2E75FE" transform="matrix(1 0 0 -1 0 793.831)" cx="303.806" cy="396.916" r="5"/>
    <circle fill="#2E75FE" transform="matrix(1 0 0 -1 0 771.831)" cx="323.806" cy="385.916" r="5"/>
    <circle fill="#2E75FE" transform="matrix(1 0 0 -1 0 765.831)" cx="308.806" cy="382.916" r="5"/>
    <circle fill="#2E75FE" transform="matrix(1 0 0 -1 0 893.831)" cx="345.806" cy="446.916" r="5"/>
    <circle fill="#2E75FE" transform="matrix(1 0 0 -1 0 869.831)" cx="340.806" cy="434.916" r="5"/>
    <circle fill="#2E75FE" transform="matrix(1 0 0 -1 0 839.831)" cx="335.806" cy="419.916" r="5"/>
    <circle fill="#2E75FE" transform="matrix(1 0 0 -1 0 857.831)" cx="332.806" cy="428.916" r="5"/>
    <circle fill="#2E75FE" transform="matrix(1 0 0 -1 0 803.831)" cx="335.806" cy="401.916" r="5"/>
    <circle fill="#2E75FE" transform="matrix(1 0 0 -1 0 809.831)" cx="347.806" cy="404.916" r="5"/>
    <circle fill="#2E75FE" transform="matrix(1 0 0 -1 0 821.831)" cx="325.806" cy="410.916" r="5"/>
    <circle fill="#2E75FE" transform="matrix(1 0 0 -1 0 783.831)" cx="345.806" cy="391.916" r="5"/>
    <circle fill="#2E75FE" transform="matrix(1 0 0 -1 0 779.831)" cx="334.806" cy="389.916" r="5"/>
    <circle fill="#2E75FE" transform="matrix(1 0 0 -1 0 999.831)" cx="365.806" cy="499.916" r="5"/>
    <circle fill="#2E75FE" transform="matrix(1 0 0 -1 0 969.831)" cx="396.806" cy="484.916" r="5"/>
    <circle fill="#2E75FE" transform="matrix(1 0 0 -1 0 963.831)" cx="384.806" cy="481.916" r="5"/>
    <circle fill="#2E75FE" transform="matrix(1 0 0 -1 0 939.831)" cx="376.806" cy="469.916" r="5"/>
    <circle fill="#2E75FE" transform="matrix(1 0 0 -1 0 937.831)" cx="385.806" cy="468.916" r="5"/>
    <circle fill="#2E75FE" transform="matrix(1 0 0 -1 0 925.831)" cx="376.806" cy="462.916" r="5"/>
    <circle fill="#2E75FE" transform="matrix(1 0 0 -1 0 883.831)" cx="369.806" cy="441.916" r="5"/>
    <circle fill="#2E75FE" transform="matrix(1 0 0 -1 0 869.831)" cx="360.806" cy="434.916" r="5"/>
    <circle fill="#2E75FE" transform="matrix(1 0 0 -1 0 841.831)" cx="354.806" cy="420.916" r="5"/>
    <circle fill="#2E75FE" transform="matrix(1 0 0 -1 0 813.831)" cx="350.806" cy="406.916" r="5"/>
    <circle fill="#2E75FE" transform="matrix(1 0 0 -1 0 839.831)" cx="345.806" cy="419.916" r="5"/>
    <circle fill="#2E75FE" transform="matrix(1 0 0 -1 0 761.831)" cx="351.806" cy="380.916" r="5"/>
    <circle fill="#2E75FE" transform="matrix(1 0 0 -1 0 747.831)" cx="342.806" cy="373.916" r="5"/>
    <circle fill="#2E75FE" transform="matrix(1 0 0 -1 0 725.831)" cx="328.806" cy="362.916" r="5"/>
    <circle fill="#2E75FE" transform="matrix(1 0 0 -1 0 751.831)" cx="324.806" cy="375.916" r="5"/>
    <circle fill="#2E75FE" transform="matrix(1 0 0 -1 0 771.831)" cx="360.806" cy="385.916" r="5"/>
    <circle fill="#2E75FE" transform="matrix(1 0 0 -1 0 743.831)" cx="363.806" cy="371.916" r="5"/>
    <circle fill="#2E75FE" transform="matrix(1 0 0 -1 0 801.831)" cx="360.806" cy="400.916" r="5"/>
    <circle fill="#2E75FE" transform="matrix(1 0 0 -1 0 829.831)" cx="363.806" cy="414.916" r="5"/>
    <circle fill="#2E75FE" transform="matrix(1 0 0 -1 0 857.831)" cx="373.806" cy="428.916" r="5"/>
    <circle fill="#2E75FE" transform="matrix(1 0 0 -1 0 881.831)" cx="382.806" cy="440.916" r="5"/>
    <circle fill="#2E75FE" transform="matrix(1 0 0 -1 0 831.831)" cx="374.806" cy="415.916" r="5"/>
    <circle fill="#2E75FE" transform="matrix(1 0 0 -1 0 805.831)" cx="372.806" cy="402.916" r="5"/>
    <circle fill="#2E75FE" transform="matrix(1 0 0 -1 0 771.831)" cx="377.806" cy="385.916" r="5"/>
    <circle fill="#2E75FE" transform="matrix(1 0 0 -1 0 743.831)" cx="373.806" cy="371.916" r="5"/>
    <circle fill="#2E75FE" transform="matrix(1 0 0 -1 0 711.831)" cx="372.806" cy="355.916" r="5"/>
    <circle fill="#2E75FE" transform="matrix(1 0 0 -1 0 719.831)" cx="358.806" cy="359.916" r="5"/>
    <circle fill="#2E75FE" transform="matrix(1 0 0 -1 0 685.831)" cx="377.806" cy="342.916" r="5"/>
    <circle fill="#2E75FE" transform="matrix(1 0 0 -1 0 667.831)" cx="368.806" cy="333.916" r="5"/>
    <circle fill="#2E75FE" transform="matrix(1 0 0 -1 0 647.831)" cx="375.806" cy="323.916" r="5"/>
    <circle fill="#2E75FE" transform="matrix(1 0 0 -1 0 623.831)" cx="375.806" cy="311.916" r="5"/>
    <circle fill="#2E75FE" transform="matrix(1 0 0 -1 0 607.831)" cx="384.806" cy="303.916" r="5"/>
    <circle fill="#2E75FE" transform="matrix(1 0 0 -1 0 595.831)" cx="390.806" cy="297.916" r="5"/>
    <circle fill="#2E75FE" transform="matrix(1 0 0 -1 0 1013.831)" cx="388.806" cy="506.916" r="5"/>
    <circle fill="#2E75FE" transform="matrix(1 0 0 -1 0 1003.831)" cx="375.806" cy="501.916" r="5"/>
    <circle fill="#2E75FE" transform="matrix(1 0 0 -1 0 983.831)" cx="364.806" cy="491.916" r="5"/>
    <circle fill="#2E75FE" transform="matrix(1 0 0 -1 0 963.831)" cx="360.806" cy="481.916" r="5"/>
    <circle fill="#2E75FE" transform="matrix(1 0 0 -1 0 963.831)" cx="353.806" cy="481.916" r="5"/>
    <circle fill="#2E75FE" transform="matrix(1 0 0 -1 0 955.831)" cx="333.806" cy="477.916" r="5"/>
    <circle fill="#2E75FE" transform="matrix(1 0 0 -1 0 933.831)" cx="331.806" cy="466.916" r="5"/>
    <circle fill="#2E75FE" transform="matrix(1 0 0 -1 0 951.831)" cx="315.806" cy="475.916" r="5"/>
    <circle fill="#2E75FE" transform="matrix(1 0 0 -1 0 931.831)" cx="339.806" cy="465.916" r="5"/>
    <circle fill="#2E75FE" transform="matrix(1 0 0 -1 0 919.831)" cx="322.806" cy="459.916" r="5"/>
    <circle fill="#2E75FE" transform="matrix(1 0 0 -1 0 901.831)" cx="311.806" cy="450.916" r="5"/>
    <circle fill="#2E75FE" transform="matrix(1 0 0 -1 0 919.831)" cx="308.806" cy="459.916" r="5"/>
    <circle fill="#2E75FE" transform="matrix(1 0 0 -1 0 915.831)" cx="297.806" cy="457.916" r="5"/>
    <circle fill="#2E75FE" transform="matrix(1 0 0 -1 0 949.831)" cx="346.806" cy="474.916" r="5"/>
    <circle fill="#2E75FE" transform="matrix(1 0 0 -1 0 1035.831)" cx="392.806" cy="517.916" r="5"/>
    <circle fill="#2E75FE" transform="matrix(1 0 0 -1 0 1037.831)" cx="379.806" cy="518.916" r="5"/>
    <circle fill="#2E75FE" transform="matrix(1 0 0 -1 0 1027.831)" cx="368.806" cy="513.916" r="5"/>
    <circle fill="#2E75FE" transform="matrix(1 0 0 -1 0 1007.831)" cx="357.806" cy="503.916" r="5"/>
    <circle fill="#2E75FE" transform="matrix(1 0 0 -1 0 989.831)" cx="348.806" cy="494.916" r="5"/>
    <circle fill="#2E75FE" transform="matrix(1 0 0 -1 0 1089.831)" cx="485.806" cy="544.916" r="5"/>
    <circle fill="#2E75FE" transform="matrix(1 0 0 -1 0 1095.831)" cx="475.806" cy="547.916" r="5"/>
    <circle fill="#2E75FE" transform="matrix(1 0 0 -1 0 1107.831)" cx="465.806" cy="553.916" r="5"/>
    <circle fill="#2E75FE" transform="matrix(1 0 0 -1 0 1083.831)" cx="557.806" cy="541.916" r="5"/>
    <circle fill="#2E75FE" transform="matrix(1 0 0 -1 0 1077.831)" cx="547.806" cy="538.916" r="5"/>
    <circle fill="#2E75FE" transform="matrix(1 0 0 -1 0 1097.831)" cx="539.806" cy="548.916" r="5"/>
    <circle fill="#2E75FE" transform="matrix(1 0 0 -1 0 1117.831)" cx="529.806" cy="558.916" r="5"/>
    <circle fill="#2E75FE" transform="matrix(1 0 0 -1 0 1125.831)" cx="520.806" cy="562.916" r="5"/>
    <circle fill="#2E75FE" transform="matrix(1 0 0 -1 0 1131.831)" cx="511.806" cy="565.916" r="5"/>
    <circle fill="#2E75FE" transform="matrix(1 0 0 -1 0 1149.831)" cx="522.806" cy="574.916" r="5"/>
    <circle fill="#2E75FE" transform="matrix(1 0 0 -1 0 1169.831)" cx="521.806" cy="584.916" r="5"/>
    <circle fill="#2E75FE" transform="matrix(1 0 0 -1 0 1099.831)" cx="528.806" cy="549.916" r="5"/>
    <circle fill="#2E75FE" transform="matrix(1 0 0 -1 0 1125.831)" cx="507.806" cy="562.916" r="5"/>
    <circle fill="#2E75FE" transform="matrix(1 0 0 -1 0 1155.831)" cx="509.806" cy="577.916" r="5"/>
    <circle fill="#2E75FE" transform="matrix(1 0 0 -1 0 1107.831)" cx="517.806" cy="553.916" r="5"/>
    <circle fill="#2E75FE" transform="matrix(1 0 0 -1 0 1115.831)" cx="579.806" cy="557.916" r="5"/>
    <circle fill="#2E75FE" transform="matrix(1 0 0 -1 0 689.831)" cx="445.806" cy="344.916" r="5"/>
    <circle fill="#2E75FE" transform="matrix(1 0 0 -1 0 663.831)" cx="443.806" cy="331.916" r="5"/>
    <circle fill="#2E75FE" transform="matrix(1 0 0 -1 0 647.831)" cx="433.806" cy="323.916" r="5"/>
    <circle fill="#2E75FE" transform="matrix(1 0 0 -1 0 633.831)" cx="445.806" cy="316.916" r="5"/>
    <circle fill="#2E75FE" transform="matrix(1 0 0 -1 0 623.831)" cx="431.806" cy="311.916" r="5"/>
    <circle fill="#2E75FE" transform="matrix(1 0 0 -1 0 607.831)" cx="440.806" cy="303.916" r="5"/>
    <circle fill="#2E75FE" transform="matrix(1 0 0 -1 0 587.831)" cx="449.806" cy="293.916" r="5"/>
    <circle fill="#2E75FE" transform="matrix(1 0 0 -1 0 1111.831)" cx="562.806" cy="555.916" r="5"/>
    <circle fill="#2E75FE" transform="matrix(1 0 0 -1 0 1131.831)" cx="558.806" cy="565.916" r="5"/>
    <circle fill="#2E75FE" transform="matrix(1 0 0 -1 0 693.831)" cx="430.806" cy="346.916" r="5"/>
    <circle fill="#2E75FE" transform="matrix(1 0 0 -1 0 671.831)" cx="427.806" cy="335.916" r="5"/>
    <circle fill="#2E75FE" transform="matrix(1 0 0 -1 0 677.831)" cx="419.806" cy="338.916" r="5"/>
    <circle fill="#2E75FE" transform="matrix(1 0 0 -1 0 1151.831)" cx="554.806" cy="575.916" r="5"/>
    <circle fill="#2E75FE" transform="matrix(1 0 0 -1 0 703.831)" cx="407.806" cy="351.916" r="5"/>
    <circle fill="#2E75FE" transform="matrix(1 0 0 -1 0 691.831)" cx="399.806" cy="345.916" r="5"/>
    <circle fill="#2E75FE" transform="matrix(1 0 0 -1 0 1163.831)" cx="533.806" cy="581.916" r="5"/>
    <circle fill="#2E75FE" transform="matrix(1 0 0 -1 0 1121.831)" cx="549.806" cy="560.916" r="5"/>
    <circle fill="#2E75FE" transform="matrix(1 0 0 -1 0 1133.831)" cx="539.806" cy="566.916" r="5"/>
    <circle fill="#2E75FE" transform="matrix(1 0 0 -1 0 1143.831)" cx="532.806" cy="571.916" r="5"/>
    <circle fill="#2E75FE" transform="matrix(1 0 0 -1 0 697.831)" cx="374.806" cy="348.916" r="5"/>
    <circle fill="#2E75FE" transform="matrix(1 0 0 -1 0 1073.831)" cx="577.806" cy="536.916" r="5"/>
    <circle fill="#2E75FE" transform="matrix(1 0 0 -1 0 1061.831)" cx="570.806" cy="530.916" r="5"/>
    <circle fill="#2E75FE" transform="matrix(1 0 0 -1 0 1055.831)" cx="562.806" cy="527.916" r="5"/>
    <circle fill="#2E75FE" transform="matrix(1 0 0 -1 0 1047.831)" cx="670.806" cy="523.916" r="5"/>
    <circle fill="#2E75FE" transform="matrix(1 0 0 -1 0 1083.831)" cx="647.806" cy="541.916" r="5"/>
    <circle fill="#2E75FE" transform="matrix(1 0 0 -1 0 1093.831)" cx="639.806" cy="546.916" r="5"/>
    <circle fill="#2E75FE" transform="matrix(1 0 0 -1 0 1069.831)" cx="623.806" cy="534.916" r="5"/>
    <circle fill="#2E75FE" transform="matrix(1 0 0 -1 0 1063.831)" cx="611.806" cy="531.916" r="5"/>
    <circle fill="#2E75FE" transform="matrix(1 0 0 -1 0 1063.831)" cx="598.806" cy="531.916" r="5"/>
    <circle fill="#2E75FE" transform="matrix(1 0 0 -1 0 1045.831)" cx="606.806" cy="522.916" r="5"/>
    <circle fill="#2E75FE" transform="matrix(1 0 0 -1 0 1025.831)" cx="601.806" cy="512.916" r="5"/>
    <circle fill="#2E75FE" transform="matrix(1 0 0 -1 0 751.831)" cx="421.806" cy="375.916" r="5"/>
    <circle fill="#2E75FE" transform="matrix(1 0 0 -1 0 1015.831)" cx="588.806" cy="507.916" r="5"/>
    <circle fill="#2E75FE" transform="matrix(1 0 0 -1 0 1009.831)" cx="582.806" cy="504.916" r="5"/>
    <circle fill="#2E75FE" transform="matrix(1 0 0 -1 0 999.831)" cx="573.806" cy="499.916" r="5"/>
    <circle fill="#2E75FE" transform="matrix(1 0 0 -1 0 979.831)" cx="563.806" cy="489.916" r="5"/>
    <circle fill="#2E75FE" transform="matrix(1 0 0 -1 0 973.831)" cx="554.806" cy="486.916" r="5"/>
    <circle fill="#2E75FE" transform="matrix(1 0 0 -1 0 983.831)" cx="543.806" cy="491.916" r="5"/>
    <circle fill="#2E75FE" transform="matrix(1 0 0 -1 0 993.831)" cx="533.806" cy="496.916" r="5"/>
    <circle fill="#2E75FE" transform="matrix(1 0 0 -1 0 979.831)" cx="525.806" cy="489.916" r="5"/>
    <circle fill="#2E75FE" transform="matrix(1 0 0 -1 0 957.831)" cx="519.806" cy="478.916" r="5"/>
    <circle fill="#2E75FE" transform="matrix(1 0 0 -1 0 937.831)" cx="512.806" cy="468.916" r="5"/>
    <circle fill="#2E75FE" transform="matrix(1 0 0 -1 0 959.831)" cx="505.806" cy="479.916" r="5"/>
    <circle fill="#2E75FE" transform="matrix(1 0 0 -1 0 923.831)" cx="508.806" cy="461.916" r="5"/>
    <circle fill="#2E75FE" transform="matrix(1 0 0 -1 0 921.831)" cx="498.806" cy="460.916" r="5"/>
    <circle fill="#2E75FE" transform="matrix(1 0 0 -1 0 903.831)" cx="510.806" cy="451.916" r="5"/>
    <circle fill="#2E75FE" transform="matrix(1 0 0 -1 0 971.831)" cx="514.806" cy="485.916" r="5"/>
    <circle fill="#2E75FE" transform="matrix(1 0 0 -1 0 973.831)" cx="533.806" cy="486.916" r="5"/>
    <circle fill="#2E75FE" transform="matrix(1 0 0 -1 0 945.831)" cx="549.806" cy="472.916" r="5"/>
    <circle fill="#2E75FE" transform="matrix(1 0 0 -1 0 955.831)" cx="551.806" cy="477.916" r="5"/>
    <circle fill="#2E75FE" transform="matrix(1 0 0 -1 0 969.831)" cx="543.806" cy="484.916" r="5"/>
    <circle fill="#2E75FE" transform="matrix(1 0 0 -1 0 933.831)" cx="540.806" cy="466.916" r="5"/>
    <circle fill="#2E75FE" transform="matrix(1 0 0 -1 0 909.831)" cx="534.806" cy="454.916" r="5"/>
    <circle fill="#2E75FE" transform="matrix(1 0 0 -1 0 911.831)" cx="541.806" cy="455.916" r="5"/>
    <circle fill="#2E75FE" transform="matrix(1 0 0 -1 0 891.831)" cx="532.806" cy="445.916" r="5"/>
    <circle fill="#2E75FE" transform="matrix(1 0 0 -1 0 865.831)" cx="525.806" cy="432.916" r="5"/>
    <circle fill="#2E75FE" transform="matrix(1 0 0 -1 0 839.831)" cx="527.806" cy="419.916" r="5"/>
    <circle fill="#2E75FE" transform="matrix(1 0 0 -1 0 953.831)" cx="531.806" cy="476.916" r="5"/>
    <circle fill="#2E75FE" transform="matrix(1 0 0 -1 0 933.831)" cx="528.806" cy="466.916" r="5"/>
    <circle fill="#2E75FE" transform="matrix(1 0 0 -1 0 909.831)" cx="523.806" cy="454.916" r="5"/>
    <circle fill="#2E75FE" transform="matrix(1 0 0 -1 0 885.831)" cx="512.806" cy="442.916" r="5"/>
    <circle fill="#2E75FE" transform="matrix(1 0 0 -1 0 867.831)" cx="506.806" cy="433.916" r="5"/>
    <circle fill="#2E75FE" transform="matrix(1 0 0 -1 0 859.831)" cx="513.806" cy="429.916" r="5"/>
    <circle fill="#2E75FE" transform="matrix(1 0 0 -1 0 729.831)" cx="353.806" cy="364.916" r="5"/>
    <circle fill="#2E75FE" transform="matrix(1 0 0 -1 0 699.831)" cx="342.806" cy="349.916" r="5"/>
    <circle fill="#2E75FE" transform="matrix(1 0 0 -1 0 687.831)" cx="356.806" cy="343.916" r="5"/>
    <circle fill="#2E75FE" transform="matrix(1 0 0 -1 0 647.831)" cx="359.806" cy="323.916" r="5"/>
    <circle fill="#2E75FE" transform="matrix(1 0 0 -1 0 627.831)" cx="351.806" cy="313.916" r="5"/>
    <circle fill="#2E75FE" transform="matrix(1 0 0 -1 0 615.831)" cx="343.806" cy="307.916" r="5"/>
    <circle fill="#2E75FE" transform="matrix(1 0 0 -1 0 613.831)" cx="363.806" cy="306.916" r="5"/>
    <circle fill="#2E75FE" transform="matrix(1 0 0 -1 0 593.831)" cx="368.806" cy="296.916" r="5"/>
    <circle fill="#2E75FE" transform="matrix(1 0 0 -1 0 691.831)" cx="324.806" cy="345.916" r="5"/>
    <circle fill="#2E75FE" transform="matrix(1 0 0 -1 0 669.831)" cx="317.806" cy="334.916" r="5"/>
    <circle fill="#2E75FE" transform="matrix(1 0 0 -1 0 673.831)" cx="333.806" cy="336.916" r="5"/>
    <circle fill="#2E75FE" transform="matrix(1 0 0 -1 0 657.831)" cx="344.806" cy="328.916" r="5"/>
    <circle fill="#2E75FE" transform="matrix(1 0 0 -1 0 677.831)" cx="345.806" cy="338.916" r="5"/>
    <circle fill="#2E75FE" transform="matrix(1 0 0 -1 0 647.831)" cx="336.806" cy="323.916" r="5"/>
    <circle fill="#2E75FE" transform="matrix(1 0 0 -1 0 645.831)" cx="320.806" cy="322.916" r="5"/>
    <circle fill="#2E75FE" transform="matrix(1 0 0 -1 0 629.831)" cx="327.806" cy="314.916" r="5"/>
    <circle fill="#2E75FE" transform="matrix(1 0 0 -1 0 605.831)" cx="330.806" cy="302.916" r="5"/>
    <circle fill="#2E75FE" transform="matrix(1 0 0 -1 0 593.831)" cx="341.806" cy="296.916" r="5"/>
    <circle fill="#2E75FE" transform="matrix(1 0 0 -1 0 649.831)" cx="311.806" cy="324.916" r="5"/>
    <circle fill="#2E75FE" transform="matrix(1 0 0 -1 0 631.831)" cx="308.806" cy="315.916" r="5"/>
    <circle fill="#2E75FE" transform="matrix(1 0 0 -1 0 613.831)" cx="303.806" cy="306.916" r="5"/>
    <circle fill="#2E75FE" transform="matrix(1 0 0 -1 0 591.831)" cx="301.806" cy="295.916" r="5"/>
    <circle fill="#FBA55F" transform="matrix(1 0 0 -1 0 539.831)" cx="312.806" cy="269.916" r="5"/>
    <circle fill="#FBA55F" transform="matrix(1 0 0 -1 0 515.831)" cx="320.806" cy="257.916" r="5"/>
    <circle fill="#FBA55F" transform="matrix(1 0 0 -1 0 511.831)" cx="330.806" cy="255.916" r="5"/>
    <circle fill="#FBA55F" transform="matrix(1 0 0 -1 0 493.831)" cx="338.806" cy="246.916" r="5"/>
    <circle fill="#FBA55F" transform="matrix(1 0 0 -1 0 479.831)" cx="343.806" cy="239.916" r="5"/>
    <circle fill="#FBA55F" transform="matrix(1 0 0 -1 0 533.831)" cx="298.806" cy="266.916" r="5"/>
    <circle fill="#FBA55F" transform="matrix(1 0 0 -1 0 515.831)" cx="307.806" cy="257.916" r="5"/>
    <circle fill="#FBA55F" transform="matrix(1 0 0 -1 0 495.831)" cx="313.806" cy="247.916" r="5"/>
    <circle fill="#FBA55F" transform="matrix(1 0 0 -1 0 485.831)" cx="323.806" cy="242.916" r="5"/>
    <circle fill="#FBA55F" transform="matrix(1 0 0 -1 0 551.831)" cx="277.806" cy="275.916" r="5"/>
    <circle fill="#FBA55F" transform="matrix(1 0 0 -1 0 531.831)" cx="273.806" cy="265.916" r="5"/>
    <circle fill="#FBA55F" transform="matrix(1 0 0 -1 0 509.831)" cx="280.806" cy="254.916" r="5"/>
    <circle fill="#FBA55F" transform="matrix(1 0 0 -1 0 495.831)" cx="287.806" cy="247.916" r="5"/>
    <circle fill="#FBA55F" transform="matrix(1 0 0 -1 0 547.831)" cx="264.806" cy="273.916" r="5"/>
    <circle fill="#FBA55F" transform="matrix(1 0 0 -1 0 529.831)" cx="259.806" cy="264.916" r="5"/>
    <circle fill="#FBA55F" transform="matrix(1 0 0 -1 0 507.831)" cx="254.806" cy="253.916" r="5"/>
    <circle fill="#FBA55F" transform="matrix(1 0 0 -1 0 493.831)" cx="265.806" cy="246.916" r="5"/>
    <circle fill="#FBA55F" transform="matrix(1 0 0 -1 0 537.831)" cx="205.806" cy="268.916" r="5"/>
    <circle fill="#FBA55F" transform="matrix(1 0 0 -1 0 511.831)" cx="270.806" cy="255.916" r="5"/>
    <circle fill="#FBA55F" transform="matrix(1 0 0 -1 0 557.831)" cx="235.806" cy="278.916" r="5"/>
    <circle fill="#FBA55F" transform="matrix(1 0 0 -1 0 543.831)" cx="228.806" cy="271.916" r="5"/>
    <circle fill="#FBA55F" transform="matrix(1 0 0 -1 0 521.831)" cx="233.806" cy="260.916" r="5"/>
    <circle fill="#FBA55F" transform="matrix(1 0 0 -1 0 561.831)" cx="251.806" cy="280.916" r="5"/>
    <circle fill="#FBA55F" transform="matrix(1 0 0 -1 0 537.831)" cx="245.806" cy="268.916" r="5"/>
    <circle fill="#FBA55F" transform="matrix(1 0 0 -1 0 531.831)" cx="219.806" cy="265.916" r="5"/>
    <circle fill="#FBA55F" transform="matrix(1 0 0 -1 0 513.831)" cx="242.806" cy="256.916" r="5"/>
    <circle fill="#FBA55F" transform="matrix(1 0 0 -1 0 509.831)" cx="221.806" cy="254.916" r="5"/>
    <circle fill="#FBA55F" transform="matrix(1 0 0 -1 0 519.831)" cx="210.806" cy="259.916" r="5"/>
    <circle fill="#FBA55F" transform="matrix(1 0 0 -1 0 579.831)" cx="246.806" cy="289.916" r="5"/>
    <circle fill="#FBA55F" transform="matrix(1 0 0 -1 0 549.831)" cx="290.806" cy="274.916" r="5"/>
    <circle fill="#FBA55F" transform="matrix(1 0 0 -1 0 525.831)" cx="286.806" cy="262.916" r="5"/>
    <circle fill="#FBA55F" transform="matrix(1 0 0 -1 0 511.831)" cx="294.806" cy="255.916" r="5"/>
    <circle fill="#FBA55F" transform="matrix(1 0 0 -1 0 493.831)" cx="300.806" cy="246.916" r="5"/>
    <circle fill="#FBA55F" transform="matrix(1 0 0 -1 0 573.831)" cx="309.806" cy="286.916" r="5"/>
    <circle fill="#FBA55F" transform="matrix(1 0 0 -1 0 573.831)" cx="294.806" cy="286.916" r="5"/>
    <circle fill="#FBA55F" transform="matrix(1 0 0 -1 0 559.831)" cx="303.806" cy="279.916" r="5"/>
    <circle fill="#FBA55F" transform="matrix(1 0 0 -1 0 589.831)" cx="275.806" cy="294.916" r="5"/>
    <circle fill="#FBA55F" transform="matrix(1 0 0 -1 0 567.831)" cx="268.806" cy="283.916" r="5"/>
    <circle fill="#FBA55F" transform="matrix(1 0 0 -1 0 571.831)" cx="282.806" cy="285.916" r="5"/>
    <circle fill="#FBA55F" transform="matrix(1 0 0 -1 0 605.831)" cx="247.806" cy="302.916" r="5"/>
    <circle fill="#FBA55F" transform="matrix(1 0 0 -1 0 601.831)" cx="263.806" cy="300.916" r="5"/>
    <circle fill="#FBA55F" transform="matrix(1 0 0 -1 0 577.831)" cx="257.806" cy="288.916" r="5"/>
    <circle fill="#FBA55F" transform="matrix(1 0 0 -1 0 593.831)" cx="287.806" cy="296.916" r="5"/>
    <circle fill="#FBA55F" transform="matrix(1 0 0 -1 0 579.831)" cx="325.806" cy="289.916" r="5"/>
    <circle fill="#FBA55F" transform="matrix(1 0 0 -1 0 569.831)" cx="340.806" cy="284.916" r="5"/>
    <circle fill="#FBA55F" transform="matrix(1 0 0 -1 0 543.831)" cx="341.806" cy="271.916" r="5"/>
    <circle fill="#FBA55F" transform="matrix(1 0 0 -1 0 521.831)" cx="352.806" cy="260.916" r="5"/>
    <circle fill="#FBA55F" transform="matrix(1 0 0 -1 0 501.831)" cx="358.806" cy="250.916" r="5"/>
    <circle fill="#FBA55F" transform="matrix(1 0 0 -1 0 483.831)" cx="354.806" cy="241.916" r="5"/>
    <circle fill="#FBA55F" transform="matrix(1 0 0 -1 0 541.831)" cx="327.806" cy="270.916" r="5"/>
    <circle fill="#FBA55F" transform="matrix(1 0 0 -1 0 519.831)" cx="340.806" cy="259.916" r="5"/>
    <circle fill="#FBA55F" transform="matrix(1 0 0 -1 0 599.831)" cx="355.806" cy="299.916" r="5"/>
    <circle fill="#FBA55F" transform="matrix(1 0 0 -1 0 571.831)" cx="352.806" cy="285.916" r="5"/>
    <circle fill="#FBA55F" transform="matrix(1 0 0 -1 0 543.831)" cx="355.806" cy="271.916" r="5"/>
    <circle fill="#FBA55F" transform="matrix(1 0 0 -1 0 561.831)" cx="327.806" cy="280.916" r="5"/>
    <circle fill="#FBA55F" transform="matrix(1 0 0 -1 0 573.831)" cx="366.806" cy="286.916" r="5"/>
    <circle fill="#FBA55F" transform="matrix(1 0 0 -1 0 551.831)" cx="367.806" cy="275.916" r="5"/>
    <circle fill="#FBA55F" transform="matrix(1 0 0 -1 0 525.831)" cx="364.806" cy="262.916" r="5"/>
    <circle fill="#FBA55F" transform="matrix(1 0 0 -1 0 509.831)" cx="372.806" cy="254.916" r="5"/>
    <circle fill="#FBA55F" transform="matrix(1 0 0 -1 0 487.831)" cx="371.806" cy="243.916" r="5"/>
    <circle fill="#FBA55F" transform="matrix(1 0 0 -1 0 587.831)" cx="379.806" cy="293.916" r="5"/>
    <circle fill="#FBA55F" transform="matrix(1 0 0 -1 0 561.831)" cx="385.806" cy="280.916" r="5"/>
    <circle fill="#FBA55F" transform="matrix(1 0 0 -1 0 539.831)" cx="382.806" cy="269.916" r="5"/>
    <circle fill="#FBA55F" transform="matrix(1 0 0 -1 0 519.831)" cx="378.806" cy="259.916" r="5"/>
    <circle fill="#FBA55F" transform="matrix(1 0 0 -1 0 497.831)" cx="384.806" cy="248.916" r="5"/>
    <circle fill="#FBA55F" transform="matrix(1 0 0 -1 0 521.831)" cx="391.806" cy="260.916" r="5"/>
    <circle fill="#FBA55F" transform="matrix(1 0 0 -1 0 513.831)" cx="403.806" cy="256.916" r="5"/>
    <circle fill="#FBA55F" transform="matrix(1 0 0 -1 0 495.831)" cx="408.806" cy="247.916" r="5"/>
    <circle fill="#FBA55F" transform="matrix(1 0 0 -1 0 493.831)" cx="398.806" cy="246.916" r="5"/>
    <circle fill="#FBA55F" transform="matrix(1 0 0 -1 0 577.831)" cx="398.806" cy="288.916" r="5"/>
    <circle fill="#FBA55F" transform="matrix(1 0 0 -1 0 581.831)" cx="434.806" cy="290.916" r="5"/>
    <circle fill="#FBA55F" transform="matrix(1 0 0 -1 0 557.831)" cx="404.806" cy="278.916" r="5"/>
    <circle fill="#FBA55F" transform="matrix(1 0 0 -1 0 539.831)" cx="400.806" cy="269.916" r="5"/>
    <circle fill="#FBA55F" transform="matrix(1 0 0 -1 0 555.831)" cx="421.806" cy="277.916" r="5"/>
    <circle fill="#FBA55F" transform="matrix(1 0 0 -1 0 531.831)" cx="416.806" cy="265.916" r="5"/>
    <circle fill="#FBA55F" transform="matrix(1 0 0 -1 0 509.831)" cx="418.806" cy="254.916" r="5"/>
    <circle fill="#FBA55F" transform="matrix(1 0 0 -1 0 523.831)" cx="426.806" cy="261.916" r="5"/>
    <circle fill="#FBA55F" transform="matrix(1 0 0 -1 0 503.831)" cx="431.806" cy="251.916" r="5"/>
    <circle fill="#FBA55F" transform="matrix(1 0 0 -1 0 489.831)" cx="421.806" cy="244.916" r="5"/>
    <circle fill="#FBA55F" transform="matrix(1 0 0 -1 0 489.831)" cx="441.806" cy="244.916" r="5"/>
    <circle fill="#FBA55F" transform="matrix(1 0 0 -1 0 541.831)" cx="431.806" cy="270.916" r="5"/>
    <circle fill="#FBA55F" transform="matrix(1 0 0 -1 0 557.831)" cx="435.806" cy="278.916" r="5"/>
    <circle fill="#FBA55F" transform="matrix(1 0 0 -1 0 537.831)" cx="441.806" cy="268.916" r="5"/>
    <circle fill="#FBA55F" transform="matrix(1 0 0 -1 0 551.831)" cx="447.806" cy="275.916" r="5"/>
    <circle fill="#FBA55F" transform="matrix(1 0 0 -1 0 533.831)" cx="455.806" cy="266.916" r="5"/>
    <circle fill="#FBA55F" transform="matrix(1 0 0 -1 0 507.831)" cx="455.806" cy="253.916" r="5"/>
    <circle fill="#FBA55F" transform="matrix(1 0 0 -1 0 517.831)" cx="441.806" cy="258.916" r="5"/>
    <circle fill="#FBA55F" transform="matrix(1 0 0 -1 0 559.831)" cx="495.806" cy="279.916" r="5"/>
    <circle fill="#FBA55F" transform="matrix(1 0 0 -1 0 529.831)" cx="469.806" cy="264.916" r="5"/>
    <circle fill="#FBA55F" transform="matrix(1 0 0 -1 0 503.831)" cx="472.806" cy="251.916" r="5"/>
    <circle fill="#FBA55F" transform="matrix(1 0 0 -1 0 485.831)" cx="477.806" cy="242.916" r="5"/>
    <circle fill="#FBA55F" transform="matrix(1 0 0 -1 0 481.831)" cx="462.806" cy="240.916" r="5"/>
    <circle fill="#FBA55F" transform="matrix(1 0 0 -1 0 507.831)" cx="485.806" cy="253.916" r="5"/>
    <circle fill="#FBA55F" transform="matrix(1 0 0 -1 0 555.831)" cx="512.806" cy="277.916" r="5"/>
    <circle fill="#FBA55F" transform="matrix(1 0 0 -1 0 533.831)" cx="518.806" cy="266.916" r="5"/>
    <circle fill="#FBA55F" transform="matrix(1 0 0 -1 0 551.831)" cx="544.806" cy="275.916" r="5"/>
    <circle fill="#FBA55F" transform="matrix(1 0 0 -1 0 551.831)" cx="527.806" cy="275.916" r="5"/>
    <circle fill="#FBA55F" transform="matrix(1 0 0 -1 0 523.831)" cx="529.806" cy="261.916" r="5"/>
    <circle fill="#FBA55F" transform="matrix(1 0 0 -1 0 535.831)" cx="536.806" cy="267.916" r="5"/>
    <circle fill="#FBA55F" transform="matrix(1 0 0 -1 0 529.831)" cx="485.806" cy="264.916" r="5"/>
    <circle fill="#FBA55F" transform="matrix(1 0 0 -1 0 509.831)" cx="496.806" cy="254.916" r="5"/>
    <circle fill="#FBA55F" transform="matrix(1 0 0 -1 0 489.831)" cx="493.806" cy="244.916" r="5"/>
    <circle fill="#FBA55F" transform="matrix(1 0 0 -1 0 511.831)" cx="507.806" cy="255.916" r="5"/>
    <circle fill="#FBA55F" transform="matrix(1 0 0 -1 0 487.831)" cx="501.806" cy="243.916" r="5"/>
    <circle fill="#FBA55F" transform="matrix(1 0 0 -1 0 573.831)" cx="452.806" cy="286.916" r="5"/>
    <circle fill="#FBA55F" transform="matrix(1 0 0 -1 0 553.831)" cx="464.806" cy="276.916" r="5"/>
    <circle fill="#FBA55F" transform="matrix(1 0 0 -1 0 547.831)" cx="477.806" cy="273.916" r="5"/>
    <circle fill="#FBA55F" transform="matrix(1 0 0 -1 0 537.831)" cx="494.806" cy="268.916" r="5"/>
    <circle fill="#FBA55F" transform="matrix(1 0 0 -1 0 513.831)" cx="516.806" cy="256.916" r="5"/>
    <circle fill="#FBA55F" transform="matrix(1 0 0 -1 0 537.831)" cx="505.806" cy="268.916" r="5"/>
    <circle fill="#FBA55F" transform="matrix(1 0 0 -1 0 577.831)" cx="520.806" cy="288.916" r="5"/>
    <circle fill="#FBA55F" transform="matrix(1 0 0 -1 0 573.831)" cx="418.806" cy="286.916" r="5"/>
    <circle fill="#FBA55F" transform="matrix(1 0 0 -1 0 589.831)" cx="313.806" cy="294.916" r="5"/>
    <circle fill="#2E75FE" transform="matrix(1 0 0 -1 0 615.831)" cx="316.806" cy="307.916" r="5"/>
    <circle fill="#2E75FE" transform="matrix(1 0 0 -1 0 649.831)" cx="299.806" cy="324.916" r="5"/>
    <circle fill="#2E75FE" transform="matrix(1 0 0 -1 0 641.831)" cx="292.806" cy="320.916" r="5"/>
    <circle fill="#2E75FE" transform="matrix(1 0 0 -1 0 617.831)" cx="288.806" cy="308.916" r="5"/>
    <circle fill="#2E75FE" transform="matrix(1 0 0 -1 0 607.831)" cx="275.806" cy="303.916" r="5"/>
    <circle fill="#2E75FE" transform="matrix(1 0 0 -1 0 659.831)" cx="283.806" cy="329.916" r="5"/>
    <circle fill="#2E75FE" transform="matrix(1 0 0 -1 0 665.831)" cx="278.806" cy="332.916" r="5"/>
    <circle fill="#2E75FE" transform="matrix(1 0 0 -1 0 645.831)" cx="277.806" cy="322.916" r="5"/>
    <circle fill="#2E75FE" transform="matrix(1 0 0 -1 0 627.831)" cx="272.806" cy="313.916" r="5"/>
    <circle fill="#2E75FE" transform="matrix(1 0 0 -1 0 621.831)" cx="257.806" cy="310.916" r="5"/>
    <circle fill="#2E75FE" transform="matrix(1 0 0 -1 0 713.831)" cx="319.806" cy="356.916" r="5"/>
    <circle fill="#2E75FE" transform="matrix(1 0 0 -1 0 717.831)" cx="343.806" cy="358.916" r="5"/>
    <circle fill="#2E75FE" transform="matrix(1 0 0 -1 0 1061.831)" cx="686.806" cy="530.916" r="5"/>
    <circle fill="#2E75FE" transform="matrix(1 0 0 -1 0 1019.831)" cx="734.806" cy="509.916" r="5"/>
    <circle fill="#2E75FE" transform="matrix(1 0 0 -1 0 999.831)" cx="744.806" cy="499.916" r="5"/>
    <circle fill="#2E75FE" transform="matrix(1 0 0 -1 0 993.831)" cx="757.806" cy="496.916" r="5"/>
    <circle fill="#2E75FE" transform="matrix(1 0 0 -1 0 997.831)" cx="771.806" cy="498.916" r="5"/>
    <circle fill="#2E75FE" transform="matrix(1 0 0 -1 0 977.831)" cx="771.806" cy="488.916" r="5"/>
    <circle fill="#2E75FE" transform="matrix(1 0 0 -1 0 1031.831)" cx="792.806" cy="515.916" r="5"/>
    <circle fill="#2E75FE" transform="matrix(1 0 0 -1 0 979.831)" cx="786.806" cy="489.916" r="5"/>
    <circle fill="#2E75FE" transform="matrix(1 0 0 -1 0 997.831)" cx="778.806" cy="498.916" r="5"/>
    <circle fill="#2E75FE" transform="matrix(1 0 0 -1 0 979.831)" cx="802.806" cy="489.916" r="5"/>
    <circle fill="#2E75FE" transform="matrix(1 0 0 -1 0 989.831)" cx="812.806" cy="494.916" r="5"/>
    <circle fill="#2E75FE" transform="matrix(1 0 0 -1 0 975.831)" cx="820.806" cy="487.916" r="5"/>
    <circle fill="#2E75FE" transform="matrix(1 0 0 -1 0 999.831)" cx="821.806" cy="499.916" r="5"/>
    <circle fill="#2E75FE" transform="matrix(1 0 0 -1 0 945.831)" cx="824.806" cy="472.916" r="5"/>
    <circle fill="#2E75FE" transform="matrix(1 0 0 -1 0 1001.831)" cx="797.806" cy="500.916" r="5"/>
    <circle fill="#2E75FE" transform="matrix(1 0 0 -1 0 949.831)" cx="781.806" cy="474.916" r="5"/>
    <circle fill="#2E75FE" transform="matrix(1 0 0 -1 0 951.831)" cx="788.806" cy="475.916" r="5"/>
    <circle fill="#2E75FE" transform="matrix(1 0 0 -1 0 949.831)" cx="797.806" cy="474.916" r="5"/>
    <circle fill="#2E75FE" transform="matrix(1 0 0 -1 0 971.831)" cx="792.806" cy="485.916" r="5"/>
    <circle fill="#2E75FE" transform="matrix(1 0 0 -1 0 919.831)" cx="799.806" cy="459.916" r="5"/>
    <circle fill="#2E75FE" transform="matrix(1 0 0 -1 0 921.831)" cx="811.806" cy="460.916" r="5"/>
    <circle fill="#2E75FE" transform="matrix(1 0 0 -1 0 931.831)" cx="805.806" cy="465.916" r="5"/>
    <circle fill="#2E75FE" transform="matrix(1 0 0 -1 0 901.831)" cx="808.806" cy="450.916" r="5"/>
    <circle fill="#2E75FE" transform="matrix(1 0 0 -1 0 891.831)" cx="818.806" cy="445.916" r="5"/>
    <circle fill="#2E75FE" transform="matrix(1 0 0 -1 0 895.831)" cx="798.806" cy="447.916" r="5"/>
    <circle fill="#2E75FE" transform="matrix(1 0 0 -1 0 901.831)" cx="827.806" cy="450.916" r="5"/>
    <circle fill="#2E75FE" transform="matrix(1 0 0 -1 0 867.831)" cx="827.806" cy="433.916" r="5"/>
    <circle fill="#2E75FE" transform="matrix(1 0 0 -1 0 839.831)" cx="831.806" cy="419.916" r="5"/>
    <circle fill="#2E75FE" transform="matrix(1 0 0 -1 0 839.831)" cx="841.806" cy="419.916" r="5"/>
    <circle fill="#2E75FE" transform="matrix(1 0 0 -1 0 865.831)" cx="838.806" cy="432.916" r="5"/>
    <circle fill="#2E75FE" transform="matrix(1 0 0 -1 0 891.831)" cx="838.806" cy="445.916" r="5"/>
    <circle fill="#2E75FE" transform="matrix(1 0 0 -1 0 865.831)" cx="816.806" cy="432.916" r="5"/>
    <circle fill="#2E75FE" transform="matrix(1 0 0 -1 0 955.831)" cx="808.806" cy="477.916" r="5"/>
    <circle fill="#2E75FE" transform="matrix(1 0 0 -1 0 951.831)" cx="817.806" cy="475.916" r="5"/>
    <circle fill="#2E75FE" transform="matrix(1 0 0 -1 0 925.831)" cx="821.806" cy="462.916" r="5"/>
    <circle fill="#2E75FE" transform="matrix(1 0 0 -1 0 969.831)" cx="755.806" cy="484.916" r="5"/>
    <circle fill="#2E75FE" transform="matrix(1 0 0 -1 0 959.831)" cx="765.806" cy="479.916" r="5"/>
    <circle fill="#2E75FE" transform="matrix(1 0 0 -1 0 935.831)" cx="770.806" cy="467.916" r="5"/>
    <circle fill="#2E75FE" transform="matrix(1 0 0 -1 0 915.831)" cx="779.806" cy="457.916" r="5"/>
    <circle fill="#2E75FE" transform="matrix(1 0 0 -1 0 935.831)" cx="774.806" cy="467.916" r="5"/>
    <circle fill="#2E75FE" transform="matrix(1 0 0 -1 0 931.831)" cx="790.806" cy="465.916" r="5"/>
    <circle fill="#2E75FE" transform="matrix(1 0 0 -1 0 905.831)" cx="787.806" cy="452.916" r="5"/>
    <circle fill="#2E75FE" transform="matrix(1 0 0 -1 0 945.831)" cx="754.806" cy="472.916" r="5"/>
    <circle fill="#2E75FE" transform="matrix(1 0 0 -1 0 921.831)" cx="760.806" cy="460.916" r="5"/>
    <circle fill="#2E75FE" transform="matrix(1 0 0 -1 0 895.831)" cx="756.806" cy="447.916" r="5"/>
    <circle fill="#2E75FE" transform="matrix(1 0 0 -1 0 869.831)" cx="765.806" cy="434.916" r="5"/>
    <circle fill="#2E75FE" transform="matrix(1 0 0 -1 0 973.831)" cx="744.806" cy="486.916" r="5"/>
    <circle fill="#2E75FE" transform="matrix(1 0 0 -1 0 947.831)" cx="747.806" cy="473.916" r="5"/>
    <circle fill="#2E75FE" transform="matrix(1 0 0 -1 0 921.831)" cx="752.806" cy="460.916" r="5"/>
    <circle fill="#2E75FE" transform="matrix(1 0 0 -1 0 905.831)" cx="766.806" cy="452.916" r="5"/>
    <circle fill="#2E75FE" transform="matrix(1 0 0 -1 0 883.831)" cx="770.806" cy="441.916" r="5"/>
    <circle fill="#2E75FE" transform="matrix(1 0 0 -1 0 885.831)" cx="779.806" cy="442.916" r="5"/>
    <circle fill="#2E75FE" transform="matrix(1 0 0 -1 0 879.831)" cx="795.806" cy="439.916" r="5"/>
    <circle fill="#2E75FE" transform="matrix(1 0 0 -1 0 839.831)" cx="816.806" cy="419.916" r="5"/>
    <circle fill="#2E75FE" transform="matrix(1 0 0 -1 0 869.831)" cx="806.806" cy="434.916" r="5"/>
    <circle fill="#2E75FE" transform="matrix(1 0 0 -1 0 861.831)" cx="777.806" cy="430.916" r="5"/>
    <circle fill="#2E75FE" transform="matrix(1 0 0 -1 0 859.831)" cx="790.806" cy="429.916" r="5"/>
    <circle fill="#2E75FE" transform="matrix(1 0 0 -1 0 851.831)" cx="803.806" cy="425.916" r="5"/>
    <circle fill="#2E75FE" transform="matrix(1 0 0 -1 0 901.831)" cx="745.806" cy="450.916" r="5"/>
    <circle fill="#2E75FE" transform="matrix(1 0 0 -1 0 989.831)" cx="733.806" cy="494.916" r="5"/>
    <circle fill="#2E75FE" transform="matrix(1 0 0 -1 0 1167.831)" cx="726.806" cy="583.916" r="5"/>
    <circle fill="#2E75FE" transform="matrix(1 0 0 -1 0 1175.831)" cx="656.806" cy="587.916" r="5"/>
    <circle fill="#2E75FE" transform="matrix(1 0 0 -1 0 1173.831)" cx="646.806" cy="586.916" r="5"/>
    <circle fill="#2E75FE" transform="matrix(1 0 0 -1 0 1163.831)" cx="631.806" cy="581.916" r="5"/>
    <circle fill="#2E75FE" transform="matrix(1 0 0 -1 0 1183.831)" cx="631.806" cy="591.916" r="5"/>
    <circle fill="#2E75FE" transform="matrix(1 0 0 -1 0 1165.831)" cx="618.806" cy="582.916" r="5"/>
    <circle fill="#2E75FE" transform="matrix(1 0 0 -1 0 1153.831)" cx="608.806" cy="576.916" r="5"/>
    <circle fill="#2E75FE" transform="matrix(1 0 0 -1 0 1167.831)" cx="609.806" cy="583.916" r="5"/>
    <circle fill="#2E75FE" transform="matrix(1 0 0 -1 0 1135.831)" cx="618.806" cy="567.916" r="5"/>
    <circle fill="#2E75FE" transform="matrix(1 0 0 -1 0 1167.831)" cx="676.806" cy="583.916" r="5"/>
    <circle fill="#2E75FE" transform="matrix(1 0 0 -1 0 1145.831)" cx="666.806" cy="572.916" r="5"/>
    <circle fill="#2E75FE" transform="matrix(1 0 0 -1 0 1147.831)" cx="686.806" cy="573.916" r="5"/>
    <circle fill="#2E75FE" transform="matrix(1 0 0 -1 0 1127.831)" cx="696.806" cy="563.916" r="5"/>
    <circle fill="#2E75FE" transform="matrix(1 0 0 -1 0 1103.831)" cx="691.806" cy="551.916" r="5"/>
    <circle fill="#2E75FE" transform="matrix(1 0 0 -1 0 1081.831)" cx="701.806" cy="540.916" r="5"/>
    <circle fill="#2E75FE" transform="matrix(1 0 0 -1 0 1077.831)" cx="691.806" cy="538.916" r="5"/>
    <circle fill="#2E75FE" transform="matrix(1 0 0 -1 0 1079.831)" cx="673.806" cy="539.916" r="5"/>
    <circle fill="#2E75FE" transform="matrix(1 0 0 -1 0 1111.831)" cx="701.806" cy="555.916" r="5"/>
    <circle fill="#2E75FE" transform="matrix(1 0 0 -1 0 1271.831)" cx="676.806" cy="635.916" r="5"/>
    <circle fill="#2E75FE" transform="matrix(1 0 0 -1 0 1253.831)" cx="666.806" cy="626.916" r="5"/>
    <circle fill="#2E75FE" transform="matrix(1 0 0 -1 0 1243.831)" cx="676.806" cy="621.916" r="5"/>
    <circle fill="#2E75FE" transform="matrix(1 0 0 -1 0 1223.831)" cx="681.806" cy="611.916" r="5"/>
    <circle fill="#2E75FE" transform="matrix(1 0 0 -1 0 1215.831)" cx="676.806" cy="607.916" r="5"/>
    <circle fill="#2E75FE" transform="matrix(1 0 0 -1 0 1193.831)" cx="676.806" cy="596.916" r="5"/>
    <circle fill="#2E75FE" transform="matrix(1 0 0 -1 0 1175.831)" cx="686.806" cy="587.916" r="5"/>
    <circle fill="#2E75FE" transform="matrix(1 0 0 -1 0 1155.831)" cx="696.806" cy="577.916" r="5"/>
    <circle fill="#2E75FE" transform="matrix(1 0 0 -1 0 1137.831)" cx="706.806" cy="568.916" r="5"/>
    <circle fill="#2E75FE" transform="matrix(1 0 0 -1 0 667.831)" cx="472.806" cy="333.916" r="5"/>
    <circle fill="#2E75FE" transform="matrix(1 0 0 -1 0 1165.831)" cx="701.806" cy="582.916" r="5"/>
    <circle fill="#2E75FE" transform="matrix(1 0 0 -1 0 1161.831)" cx="716.806" cy="580.916" r="5"/>
    <circle fill="#2E75FE" transform="matrix(1 0 0 -1 0 1195.831)" cx="686.806" cy="597.916" r="5"/>
    <circle fill="#2E75FE" transform="rotate(180 666.806 616.916)" cx="666.806" cy="616.916" r="5"/>
    <circle fill="#2E75FE" transform="rotate(180 666.806 606.916)" cx="666.806" cy="606.916" r="5"/>
    <circle fill="#2E75FE" transform="rotate(180 661.806 596.916)" cx="661.806" cy="596.916" r="5"/>
    <circle fill="#2E75FE" transform="rotate(180 656.806 616.916)" cx="656.806" cy="616.916" r="5"/>
    <circle fill="#2E75FE" transform="rotate(180 651.806 606.916)" cx="651.806" cy="606.916" r="5"/>
    <circle fill="#2E75FE" transform="rotate(180 641.806 596.916)" cx="641.806" cy="596.916" r="5"/>
    <circle fill="#2E75FE" transform="rotate(180 636.806 569.916)" cx="636.806" cy="569.916" r="5"/>
    <circle fill="#2E75FE" transform="rotate(180 545.806 576.916)" cx="545.806" cy="576.916" r="5"/>
    <circle fill="#2E75FE" transform="rotate(180 628.806 573.916)" cx="628.806" cy="573.916" r="5"/>
    <path d="M261.577 55.385l-86.175-2.608L72.552.911.182 0c.01 10.247-1.6 12.971 4.576 21.813 3.538 5.06 8.89 9.006 10.722 14.629-3.674-.213-3.82 1.706-6.69 2.288 3.694 7.484 17.5 29.22 9.405 35.23 8.056 4.993 6.795 17.082 8.938 25.477 2.782 10.839 5.72 10.558 12.739 17.18 11.779 11.11 34.173 31.817 31.623 49.286-1.473.01-3.218.514-4.479.572.32 3.704-.61 7.843-.397 11.508-.97-.223-2.2-.776-3.17-.94.756 1.929.058 6.165.775 8.182-7.668 1.425-14.328-4.101-20.707-.087-8.997 5.67 1.473 10.586 6.64 15.753 13.117 13.098 19.962 24.595 39.458 12.506 1.696 20.359 9.636 15.618 20.853 29.181 8.764 10.606 14.638 34.28-1.028 41.202.165 9.772 15.085 18.73 21.89 24.934 6.273 5.71 10.335 13.214 15.754 18.536 5.167 5.061 11.488 5.139 15.85 10.49 3.85 4.721 3.927 14.212 11.702 17.082 8.056 2.976 16.151-.242 14.426-10.635-1.086-6.573-20.718-29.665-26.273-32.293-8.56 9.898-14.241-9.423-14.687-13.776-1.028-9.975-3.946-14.803-6.175-24.207-4.15-17.392-1.135-39.825-13.01-54.474.474 1.939.29 4.79.765 6.932-.01.01-2.307 1.851-2.24 1.58-8.821-8.066-5.448-17.722-7.512-28.056-.456-2.26-3.335-9.162-4.576-10.82-2.414-3.228-7.746-5.157-8.87-6.94-2.26-3.597-1.348-7.504-2.987-11.198-2.482-5.633-4.78-7.096-7.862-11.847-6.205-9.549-7.979-15.55-11.789-25.894-3.276-8.9-11.052-13.96-15.55-22.637-4.091-7.901-4.488-16.704-5.351-25.72-.921-9.626-2.472-16.713-.03-26.66 1.959-7.959 6.758-15.55 7.756-23.878 5.575 7.95 14.785 12.506 22.84 16.598 7.068 3.587 13.97 7.416 21.62 11.216-7.048 10.955-7.96 3.287-5.817 16.908 1.619 10.286 3.616 15.143 7.222 25.196 5.846 16.296 10.51 30.14 14.727 47.086 6.757-.349 3.829 3.248 7.086 6.244 2.434 2.24 7.194 6.544 9.482 9.336 3.674 4.508 1.812 7.63 7.484 11.497 3.645 2.492 12.457 1.542 14.668 3.587 8.066 7.446-4.411 14.416-1.154 22.899 2.307 6.001 15.143 11.672 20.504 9.733 1.086 3.616 1.551 7.863 1.309 11.837 12.874-2.375 10.945 11.062 21.415 11.246.737 1.193 2.152 5.526 2.278 6.903-2.423 1.425-5.196 1.764-7.91 1.27-.369-1.833-1.532-4.043-1.668-5.778-10.383.882-13.398 27.542-7.087 32.554 10.955 8.716 29.52 1.202 36.627 18.148.92-.979 5.225-2.947 5.661-3.431a88.3 88.3 0 010 13.01c-2.404-.388-5.778.911-8.134.368 2.9 10.267 19.797 9.84 26.787 16.723 5.748 5.643 11.585 17.111 15.472 24.169 4.13 7.523 5.798 16.655 9.976 24.09 2.676 4.742 7.145 16.016 10.47 18.653-3.917 10.344 5.1 19.913 8.366 29.142 1.329 3.79 4.16 11.527 2.511 15.483-2.569 6.136-9.345 5.574-10.538 11.943 1.086.504 2.143-.029 3.267.35.01-.078.301 3.577 0 3.276-19.35-4.14 3.917 35.521 10.965 42.297.078-.824-.252-2.249-.03-2.947 7.815 6.777 23.578.146 27.844 9.007-3.47 2.85-1.765 4.168-3.287 7.358 16.52 2.346 14.222 15.54 25.294 21.076 11.72 5.865 26.456 3.257 38.535 10.935 9.714 6.166 20.563 14.445 30.529 21.852 4.304 3.2 8.667 7.32 13.67 9.423 6.863 2.88 12.699.494 19.388 2.307 8.619 2.337 20.184 8.803 28.725 12.119 7.194 2.792 8.706 6.766 14.64 10.964 5.952 4.227 6.03 4.043 13.271 4.518 22.86 1.522 40.417 12.312 64.518 1.861 44.478-19.273 67.367 30.926 97.886 52.506 1.735-1.56 4.828-6.069 5.574-8.211-8.163-12.177.882-21.88 6.612-32.303 6.97-12.7 6.36-20.746 22.937-19.33 5.342.455 22.918 8.22 27.63 4.391 12.002-9.762-12.293-13.63-12.09-21.435-8.52 1.251-15.908-10.227-19.078-16.975 11.43.504 8.415-11.052 11.013-18.148 9.016-1.93 18.148-5.274 27.668-3.84 7.93 1.193 19.593 9.26 27.63 5.808 3.364-1.445 5.603-7.533 8.667-9.53 5.293-3.46 6.524-.097 11.779-5.943 5.69-6.33 6.175-18.72 15.957-19.302 1.541 6.884-3.005 11.624-3.248 17.877 3.132 1.59 6.137 2.715 9.171 4.654 4.906-7.34 3.83-17.14 7.814-24.78 3.248-6.243 10.121-10.392 11.75-17.082-3.432 1.455-6.389 4.722-9.636 7.95 2.443-18.905 8.744-30.296 18.322-46.893 9.084-15.763 11.401-35.976-12.215-35.172-16.141.553-28.686 7.417-43.897 10.606-2.792.582-3.674 3.209-6.912 3.655-3.296.465-8.619-1.861-12.138-2.181-7.998-.708-17.712-1.348-23.839 4.605 3.84 1.803 7.349 4.818 9.181 8.482-5.313 4.886-15.25 8.91-17.819 15.996-1.619 4.48 3.16 12.322 1.949 16.084-1.047 3.228-6.815 4.343-7.387 6.65-.805 3.17 1.483 8.861.65 11.236-2.386 6.806-2.647 3.316-8.833 8.183-6.63 5.196-12.04 12.283-8.55 20.988-6.457 1.862-23.81 10.092-15.987-5.894-5.012-.359-14.6-2.317-19.069-1.541-9.336 1.609-16.229 11.914-24.168 14.658-7.252 2.51-20.534.475-30.238 2.365-4.576.892-11.11 3.82-14.988 1.358-3.567-2.26-4.285-13.185-9.336-16.83-9.394-6.787-18.05-4.692-26.36-13.64-6.834-7.359-11.284-15.182-16.354-23.907-4.954-8.512-11.711-14.465-16.995-22.957-4.905-7.872-6.33-19.283-8.095-28.144-1.23-6.146-2.18-9.975-1.628-16.064.33-3.683 3.868-6.834 3.839-10.683-.01-1.667-3.287-5.128-3.548-7.184-2.269-17.275 5.496-33.514 6.185-50.693.678-16.946-6.505-37.1 6.03-51.342.775 2.142 3.422 5.603 3.664 8.23 1.57-12.34 5.875-22.142 9.462-33.397-8.647 9.113-40.193-7.223-48.007-16.161-4.692-5.38-5.264-17.092-7.242-23.936-3.132-10.829-4.43-17.644-10.354-26.418-11.352-16.79-21.28-35.337-31.178-52.409-4.605-7.92-11.071-15.88-20.543-18.148-13.378-3.2-17.74 5.642-26.543 8.386.116-1.842-.514-4.072-.446-5.866-1.232 1.135-4.247 5.051-5.4 7 .61.165 1.25.281 1.88.349-6.572 21.852-21.24 11.41-35.976 4.673-5.885-2.695-11.663-5.371-15.075-10.567-3.704-5.652.145-12.565-8.085-15.172 10.984-6.408-1.784-15.23-7.427-20-3.344-2.821-9.85-7.669-12.089-10.907-3.218-4.653-1.842-8.114-4.498-13.66-11.75-24.604-46.175-9.83-65.846-17.663.524 2.346.398 5.904 1.29 8.027" stroke="#D5E5FF" stroke-width="3"/>
  </g>
</svg>
