<svg xmlns="http://www.w3.org/2000/svg" viewBox="0 0 361 290">
  <g transform="translate(1 2)" fill="none" fill-rule="evenodd">
    <path d="M234.142 220.56l-1.951-1.19c-2.734-1.723-3.642-5.562-2.214-8.343l5.205-10.19c1.432-2.913.13-5.162-3.12-5.03l-8.198.266c-3.124.131-6.765-2.252-7.935-5.296l-.914-2.515c-1.17-3.044-4.161-3.84-6.633-1.722l-8.975 7.413c-2.475 1.985-3.903 1.19-3.125-1.986l5.723-24.355c.781-3.179-1.17-5.164-4.294-4.5l-4.162.66c-3.12.661-6.895-1.19-8.196-4.102l-3.25-6.486c-1.432-2.912-3.775-2.912-5.206 0l-3.253 6.486c-1.429 2.913-5.202 4.763-8.326 4.103l-4.162-.927c-3.121-.661-5.075 1.459-4.294 4.503l5.593 24.487c.782 3.178-.65 4.102-3.121 1.985l-8.978-7.413c-2.472-1.985-5.461-1.19-6.634 1.72l-.91 2.518c-1.173 3.044-4.685 5.427-7.936 5.292l-8.197-.263c-3.124 0-4.552 2.249-3.124 5.161l5.208 10.19c1.428 2.916.517 6.621-2.213 8.343l-1.951 1.19c-2.734 1.723 18.991 14.957 18.991 14.957 2.866 1.457 4.555 4.37 3.906 6.486-.782 2.117 1.299 3.576 4.42 3.179l21.728-2.515c.782-.132 1.693-.132 2.733-.266v10.723c0 3.836 5.854 3.836 5.854 0V242.4c1.04 0 2.081.134 2.992.266l21.466 2.515c3.124.397 5.205-1.062 4.423-3.179-.781-2.117 1.044-5.03 3.903-6.486l18.736-9.266c2.863-1.322 2.992-3.968.391-5.69z" stroke="#D5E5FF" stroke-width="3"/>
    <circle fill="#2E75FE" transform="rotate(180 6 281)" cx="6" cy="281" r="5"/>
    <circle fill="#2E75FE" transform="rotate(180 33 276)" cx="33" cy="276" r="5"/>
    <circle fill="#2E75FE" transform="rotate(180 24 279)" cx="24" cy="279" r="5"/>
    <circle fill="#2E75FE" transform="rotate(180 53 256)" cx="53" cy="256" r="5"/>
    <circle fill="#2E75FE" transform="rotate(180 61 243)" cx="61" cy="243" r="5"/>
    <circle fill="#2E75FE" transform="rotate(180 43 261)" cx="43" cy="261" r="5"/>
    <circle fill="#2E75FE" transform="rotate(180 38 269)" cx="38" cy="269" r="5"/>
    <circle fill="#2E75FE" transform="rotate(180 6 265)" cx="6" cy="265" r="5"/>
    <circle fill="#2E75FE" transform="rotate(180 63 239)" cx="63" cy="239" r="5"/>
    <circle fill="#2E75FE" transform="rotate(180 55 234)" cx="55" cy="234" r="5"/>
    <circle fill="#2E75FE" transform="rotate(180 47 231)" cx="47" cy="231" r="5"/>
    <circle fill="#2E75FE" transform="rotate(180 52 224)" cx="52" cy="224" r="5"/>
    <circle fill="#2E75FE" transform="rotate(180 65 229)" cx="65" cy="229" r="5"/>
    <circle fill="#2E75FE" transform="rotate(180 62 222)" cx="62" cy="222" r="5"/>
    <circle fill="#2E75FE" transform="rotate(180 74 224)" cx="74" cy="224" r="5"/>
    <circle fill="#2E75FE" transform="rotate(180 119 216)" cx="119" cy="216" r="5"/>
    <circle fill="#2E75FE" transform="rotate(180 117 205)" cx="117" cy="205" r="5"/>
    <circle fill="#2E75FE" transform="rotate(180 40 237)" cx="40" cy="237" r="5"/>
    <circle fill="#2E75FE" transform="rotate(180 38 231)" cx="38" cy="231" r="5"/>
    <circle fill="#2E75FE" transform="rotate(180 30 234)" cx="30" cy="234" r="5"/>
    <circle fill="#2E75FE" transform="rotate(180 24 229)" cx="24" cy="229" r="5"/>
    <circle fill="#2E75FE" transform="rotate(180 36 226)" cx="36" cy="226" r="5"/>
    <circle fill="#2E75FE" transform="rotate(180 30 220)" cx="30" cy="220" r="5"/>
    <circle fill="#2E75FE" transform="rotate(180 23 217)" cx="23" cy="217" r="5"/>
    <circle fill="#2E75FE" transform="rotate(180 46 219)" cx="46" cy="219" r="5"/>
    <circle fill="#2E75FE" transform="rotate(180 42 211)" cx="42" cy="211" r="5"/>
    <circle fill="#2E75FE" transform="rotate(180 33 213)" cx="33" cy="213" r="5"/>
    <circle fill="#2E75FE" transform="rotate(180 6 209)" cx="6" cy="209" r="5"/>
    <circle fill="#2E75FE" transform="rotate(180 57 213)" cx="57" cy="213" r="5"/>
    <circle fill="#2E75FE" transform="rotate(180 15 213)" cx="15" cy="213" r="5"/>
    <circle fill="#2E75FE" transform="rotate(180 29 244)" cx="29" cy="244" r="5"/>
    <circle fill="#2E75FE" transform="rotate(180 18 239)" cx="18" cy="239" r="5"/>
    <circle fill="#2E75FE" transform="rotate(180 11 232)" cx="11" cy="232" r="5"/>
    <circle fill="#2E75FE" transform="rotate(180 18 225)" cx="18" cy="225" r="5"/>
    <circle fill="#2E75FE" transform="rotate(180 8 221)" cx="8" cy="221" r="5"/>
    <circle fill="#2E75FE" transform="rotate(180 38 249)" cx="38" cy="249" r="5"/>
    <circle fill="#2E75FE" transform="rotate(180 49 247)" cx="49" cy="247" r="5"/>
    <circle fill="#2E75FE" transform="rotate(180 50 244)" cx="50" cy="244" r="5"/>
    <circle fill="#2E75FE" transform="rotate(180 23 256)" cx="23" cy="256" r="5"/>
    <circle fill="#2E75FE" transform="rotate(180 16 251)" cx="16" cy="251" r="5"/>
    <circle fill="#2E75FE" transform="rotate(180 8 244)" cx="8" cy="244" r="5"/>
    <circle fill="#2E75FE" transform="rotate(180 5 253)" cx="5" cy="253" r="5"/>
    <circle fill="#2E75FE" transform="rotate(180 11 261)" cx="11" cy="261" r="5"/>
    <circle fill="#2E75FE" transform="rotate(180 78 251)" cx="78" cy="251" r="5"/>
    <circle fill="#2E75FE" transform="rotate(180 90 256)" cx="90" cy="256" r="5"/>
    <circle fill="#2E75FE" transform="rotate(180 103 251)" cx="103" cy="251" r="5"/>
    <circle fill="#2E75FE" transform="rotate(180 108 242)" cx="108" cy="242" r="5"/>
    <circle fill="#2E75FE" transform="rotate(180 119 236)" cx="119" cy="236" r="5"/>
    <circle fill="#2E75FE" transform="rotate(180 95 247)" cx="95" cy="247" r="5"/>
    <circle fill="#2E75FE" transform="rotate(180 95 236)" cx="95" cy="236" r="5"/>
    <circle fill="#2E75FE" transform="rotate(180 107 232)" cx="107" cy="232" r="5"/>
    <circle fill="#2E75FE" transform="rotate(180 118 227)" cx="118" cy="227" r="5"/>
    <circle fill="#2E75FE" transform="rotate(180 84 242)" cx="84" cy="242" r="5"/>
    <circle fill="#2E75FE" transform="rotate(180 88 232)" cx="88" cy="232" r="5"/>
    <circle fill="#2E75FE" transform="rotate(180 86 224)" cx="86" cy="224" r="5"/>
    <circle fill="#2E75FE" transform="rotate(180 89 216)" cx="89" cy="216" r="5"/>
    <circle fill="#2E75FE" transform="rotate(180 77 212)" cx="77" cy="212" r="5"/>
    <circle fill="#2E75FE" transform="rotate(180 79 205)" cx="79" cy="205" r="5"/>
    <circle fill="#2E75FE" transform="rotate(180 90 208)" cx="90" cy="208" r="5"/>
    <circle fill="#2E75FE" transform="rotate(180 67 213)" cx="67" cy="213" r="5"/>
    <circle fill="#2E75FE" transform="rotate(180 69 204)" cx="69" cy="204" r="5"/>
    <circle fill="#FBA55F" transform="rotate(180 53 202)" cx="53" cy="202" r="5"/>
    <circle fill="#FBA55F" transform="rotate(180 39 201)" cx="39" cy="201" r="5"/>
    <circle fill="#FBA55F" transform="rotate(180 25 202)" cx="25" cy="202" r="5"/>
    <circle fill="#FBA55F" transform="rotate(180 65 192)" cx="65" cy="192" r="5"/>
    <circle fill="#FBA55F" transform="rotate(180 75 188)" cx="75" cy="188" r="5"/>
    <circle fill="#FBA55F" transform="rotate(180 61 182)" cx="61" cy="182" r="5"/>
    <circle fill="#FBA55F" transform="rotate(180 31 194)" cx="31" cy="194" r="5"/>
    <circle fill="#FBA55F" transform="rotate(180 18 192)" cx="18" cy="192" r="5"/>
    <circle fill="#FBA55F" transform="rotate(180 6 191)" cx="6" cy="191" r="5"/>
    <circle fill="#FBA55F" transform="rotate(180 97 202)" cx="97" cy="202" r="5"/>
    <circle fill="#FBA55F" transform="rotate(180 84 198)" cx="84" cy="198" r="5"/>
    <circle fill="#FBA55F" transform="rotate(180 106 191)" cx="106" cy="191" r="5"/>
    <circle fill="#FBA55F" transform="rotate(180 113 186)" cx="113" cy="186" r="5"/>
    <circle fill="#FBA55F" transform="rotate(180 99 183)" cx="99" cy="183" r="5"/>
    <circle fill="#FBA55F" transform="rotate(180 122 190)" cx="122" cy="190" r="5"/>
    <circle fill="#FBA55F" transform="rotate(180 94 191)" cx="94" cy="191" r="5"/>
    <circle fill="#FBA55F" transform="rotate(180 41 189)" cx="41" cy="189" r="5"/>
    <circle fill="#FBA55F" transform="rotate(180 87 189)" cx="87" cy="189" r="5"/>
    <circle fill="#FBA55F" transform="rotate(180 50 191)" cx="50" cy="191" r="5"/>
    <circle fill="#FBA55F" transform="rotate(180 134 188)" cx="134" cy="188" r="5"/>
    <circle fill="#FBA55F" transform="rotate(180 256 193)" cx="256" cy="193" r="5"/>
    <circle fill="#FBA55F" transform="rotate(180 248 184)" cx="248" cy="184" r="5"/>
    <circle fill="#FBA55F" transform="rotate(180 260 183)" cx="260" cy="183" r="5"/>
    <circle fill="#FBA55F" transform="rotate(180 307 204)" cx="307" cy="204" r="5"/>
    <circle fill="#FBA55F" transform="rotate(180 273 195)" cx="273" cy="195" r="5"/>
    <circle fill="#FBA55F" transform="rotate(180 272 185)" cx="272" cy="185" r="5"/>
    <circle fill="#FBA55F" transform="rotate(180 324 203)" cx="324" cy="203" r="5"/>
    <circle fill="#FBA55F" transform="rotate(180 287 193)" cx="287" cy="193" r="5"/>
    <circle fill="#FBA55F" transform="rotate(180 286 185)" cx="286" cy="185" r="5"/>
    <circle fill="#FBA55F" transform="rotate(180 299 188)" cx="299" cy="188" r="5"/>
    <circle fill="#FBA55F" transform="rotate(180 316 199)" cx="316" cy="199" r="5"/>
    <circle fill="#FBA55F" transform="rotate(180 298 197)" cx="298" cy="197" r="5"/>
    <circle fill="#FBA55F" transform="rotate(180 311 191)" cx="311" cy="191" r="5"/>
    <circle fill="#FBA55F" transform="rotate(180 326 188)" cx="326" cy="188" r="5"/>
    <circle fill="#FBA55F" transform="rotate(180 340 187)" cx="340" cy="187" r="5"/>
    <circle fill="#FBA55F" transform="rotate(180 351 191)" cx="351" cy="191" r="5"/>
    <circle fill="#FBA55F" transform="rotate(180 333 196)" cx="333" cy="196" r="5"/>
    <circle fill="#FBA55F" transform="rotate(180 344 201)" cx="344" cy="201" r="5"/>
    <circle fill="#FBA55F" transform="rotate(180 333 205)" cx="333" cy="205" r="5"/>
    <circle fill="#FBA55F" transform="rotate(180 245 195)" cx="245" cy="195" r="5"/>
    <circle fill="#FBA55F" transform="rotate(180 234 189)" cx="234" cy="189" r="5"/>
    <circle fill="#FBA55F" transform="rotate(180 126 182)" cx="126" cy="182" r="5"/>
    <circle fill="#FBA55F" transform="rotate(180 12 200)" cx="12" cy="200" r="5"/>
    <circle fill="#2E75FE" transform="rotate(180 97 220)" cx="97" cy="220" r="5"/>
    <circle fill="#2E75FE" transform="rotate(180 98 214)" cx="98" cy="214" r="5"/>
    <circle fill="#2E75FE" transform="rotate(180 100 228)" cx="100" cy="228" r="5"/>
    <circle fill="#2E75FE" transform="rotate(180 109 221)" cx="109" cy="221" r="5"/>
    <circle fill="#2E75FE" transform="rotate(180 108 212)" cx="108" cy="212" r="5"/>
    <circle fill="#2E75FE" transform="rotate(180 106 204)" cx="106" cy="204" r="5"/>
    <circle fill="#2E75FE" transform="rotate(180 76 239)" cx="76" cy="239" r="5"/>
    <circle fill="#2E75FE" transform="rotate(180 75 231)" cx="75" cy="231" r="5"/>
    <circle fill="#2E75FE" transform="rotate(180 113 256)" cx="113" cy="256" r="5"/>
    <circle fill="#2E75FE" transform="rotate(180 118 244)" cx="118" cy="244" r="5"/>
    <circle fill="#2E75FE" transform="rotate(180 128 254)" cx="128" cy="254" r="5"/>
    <circle fill="#2E75FE" transform="rotate(180 138 247)" cx="138" cy="247" r="5"/>
    <circle fill="#2E75FE" transform="rotate(180 130 239)" cx="130" cy="239" r="5"/>
    <circle fill="#2E75FE" transform="rotate(180 121 259)" cx="121" cy="259" r="5"/>
    <circle fill="#2E75FE" transform="rotate(180 136 259)" cx="136" cy="259" r="5"/>
    <circle fill="#2E75FE" transform="rotate(180 146 266)" cx="146" cy="266" r="5"/>
    <circle fill="#2E75FE" transform="rotate(180 157 265)" cx="157" cy="265" r="5"/>
    <circle fill="#2E75FE" transform="rotate(180 155 256)" cx="155" cy="256" r="5"/>
    <circle fill="#2E75FE" transform="rotate(180 148 251)" cx="148" cy="251" r="5"/>
    <circle fill="#2E75FE" transform="rotate(180 163 266)" cx="163" cy="266" r="5"/>
    <circle fill="#2E75FE" transform="rotate(180 172 271)" cx="172" cy="271" r="5"/>
    <circle fill="#2E75FE" transform="rotate(180 167 254)" cx="167" cy="254" r="5"/>
    <circle fill="#2E75FE" transform="rotate(180 80 264)" cx="80" cy="264" r="5"/>
    <circle fill="#2E75FE" transform="rotate(180 78 276)" cx="78" cy="276" r="5"/>
    <circle fill="#2E75FE" transform="rotate(180 68 249)" cx="68" cy="249" r="5"/>
    <circle fill="#2E75FE" transform="rotate(180 63 252)" cx="63" cy="252" r="5"/>
    <circle fill="#2E75FE" transform="rotate(180 61 264)" cx="61" cy="264" r="5"/>
    <circle fill="#2E75FE" transform="rotate(180 68 261)" cx="68" cy="261" r="5"/>
    <circle fill="#2E75FE" transform="rotate(180 23 266)" cx="23" cy="266" r="5"/>
    <circle fill="#2E75FE" transform="rotate(180 18 276)" cx="18" cy="276" r="5"/>
    <circle fill="#2E75FE" transform="rotate(180 33 261)" cx="33" cy="261" r="5"/>
    <circle fill="#2E75FE" transform="rotate(180 53 271)" cx="53" cy="271" r="5"/>
    <circle fill="#2E75FE" transform="rotate(180 13 270)" cx="13" cy="270" r="5"/>
    <circle fill="#2E75FE" transform="rotate(180 58 281)" cx="58" cy="281" r="5"/>
    <circle fill="#2E75FE" transform="rotate(180 43 276)" cx="43" cy="276" r="5"/>
    <circle fill="#2E75FE" transform="rotate(180 68 276)" cx="68" cy="276" r="5"/>
    <circle fill="#2E75FE" transform="rotate(180 88 266)" cx="88" cy="266" r="5"/>
    <circle fill="#2E75FE" transform="rotate(180 103 264)" cx="103" cy="264" r="5"/>
    <circle fill="#2E75FE" transform="rotate(180 109 271)" cx="109" cy="271" r="5"/>
    <circle fill="#2E75FE" transform="rotate(180 98 261)" cx="98" cy="261" r="5"/>
    <circle fill="#2E75FE" transform="rotate(180 93 270)" cx="93" cy="270" r="5"/>
    <circle fill="#2E75FE" transform="rotate(180 113 266)" cx="113" cy="266" r="5"/>
    <circle fill="#2E75FE" transform="rotate(180 126 266)" cx="126" cy="266" r="5"/>
    <circle fill="#2E75FE" transform="rotate(180 138 271)" cx="138" cy="271" r="5"/>
    <circle fill="#2E75FE" transform="rotate(180 128 271)" cx="128" cy="271" r="5"/>
    <circle fill="#2E75FE" transform="rotate(180 100 276)" cx="100" cy="276" r="5"/>
    <circle fill="#2E75FE" transform="rotate(180 115 279)" cx="115" cy="279" r="5"/>
    <circle fill="#2E75FE" transform="rotate(180 127 281)" cx="127" cy="281" r="5"/>
    <circle fill="#2E75FE" transform="rotate(180 145 279)" cx="145" cy="279" r="5"/>
    <circle fill="#2E75FE" transform="rotate(180 158 276)" cx="158" cy="276" r="5"/>
    <circle fill="#2E75FE" transform="rotate(180 168 281)" cx="168" cy="281" r="5"/>
    <circle fill="#2E75FE" transform="matrix(1 0 0 -1 0 562)" cx="351" cy="281" r="5"/>
    <circle fill="#2E75FE" transform="matrix(1 0 0 -1 0 552)" cx="324" cy="276" r="5"/>
    <circle fill="#2E75FE" transform="matrix(1 0 0 -1 0 558)" cx="333" cy="279" r="5"/>
    <circle fill="#2E75FE" transform="matrix(1 0 0 -1 0 512)" cx="304" cy="256" r="5"/>
    <circle fill="#2E75FE" transform="matrix(1 0 0 -1 0 486)" cx="296" cy="243" r="5"/>
    <circle fill="#2E75FE" transform="matrix(1 0 0 -1 0 522)" cx="314" cy="261" r="5"/>
    <circle fill="#2E75FE" transform="matrix(1 0 0 -1 0 538)" cx="319" cy="269" r="5"/>
    <circle fill="#2E75FE" transform="matrix(1 0 0 -1 0 530)" cx="351" cy="265" r="5"/>
    <circle fill="#2E75FE" transform="matrix(1 0 0 -1 0 478)" cx="294" cy="239" r="5"/>
    <circle fill="#2E75FE" transform="matrix(1 0 0 -1 0 468)" cx="302" cy="234" r="5"/>
    <circle fill="#2E75FE" transform="matrix(1 0 0 -1 0 462)" cx="310" cy="231" r="5"/>
    <circle fill="#2E75FE" transform="matrix(1 0 0 -1 0 448)" cx="305" cy="224" r="5"/>
    <circle fill="#2E75FE" transform="matrix(1 0 0 -1 0 458)" cx="292" cy="229" r="5"/>
    <circle fill="#2E75FE" transform="matrix(1 0 0 -1 0 444)" cx="295" cy="222" r="5"/>
    <circle fill="#2E75FE" transform="matrix(1 0 0 -1 0 448)" cx="283" cy="224" r="5"/>
    <circle fill="#2E75FE" transform="matrix(1 0 0 -1 0 432)" cx="238" cy="216" r="5"/>
    <circle fill="#2E75FE" transform="matrix(1 0 0 -1 0 410)" cx="240" cy="205" r="5"/>
    <circle fill="#2E75FE" transform="matrix(1 0 0 -1 0 474)" cx="317" cy="237" r="5"/>
    <circle fill="#2E75FE" transform="matrix(1 0 0 -1 0 462)" cx="319" cy="231" r="5"/>
    <circle fill="#2E75FE" transform="matrix(1 0 0 -1 0 468)" cx="327" cy="234" r="5"/>
    <circle fill="#2E75FE" transform="matrix(1 0 0 -1 0 458)" cx="333" cy="229" r="5"/>
    <circle fill="#2E75FE" transform="matrix(1 0 0 -1 0 452)" cx="321" cy="226" r="5"/>
    <circle fill="#2E75FE" transform="matrix(1 0 0 -1 0 440)" cx="327" cy="220" r="5"/>
    <circle fill="#2E75FE" transform="matrix(1 0 0 -1 0 434)" cx="334" cy="217" r="5"/>
    <circle fill="#2E75FE" transform="matrix(1 0 0 -1 0 438)" cx="311" cy="219" r="5"/>
    <circle fill="#2E75FE" transform="matrix(1 0 0 -1 0 422)" cx="315" cy="211" r="5"/>
    <circle fill="#2E75FE" transform="matrix(1 0 0 -1 0 426)" cx="324" cy="213" r="5"/>
    <circle fill="#2E75FE" transform="matrix(1 0 0 -1 0 418)" cx="351" cy="209" r="5"/>
    <circle fill="#2E75FE" transform="matrix(1 0 0 -1 0 426)" cx="300" cy="213" r="5"/>
    <circle fill="#2E75FE" transform="matrix(1 0 0 -1 0 426)" cx="342" cy="213" r="5"/>
    <circle fill="#2E75FE" transform="matrix(1 0 0 -1 0 488)" cx="328" cy="244" r="5"/>
    <circle fill="#2E75FE" transform="matrix(1 0 0 -1 0 478)" cx="339" cy="239" r="5"/>
    <circle fill="#2E75FE" transform="matrix(1 0 0 -1 0 464)" cx="346" cy="232" r="5"/>
    <circle fill="#2E75FE" transform="matrix(1 0 0 -1 0 450)" cx="339" cy="225" r="5"/>
    <circle fill="#2E75FE" transform="matrix(1 0 0 -1 0 442)" cx="349" cy="221" r="5"/>
    <circle fill="#2E75FE" transform="matrix(1 0 0 -1 0 498)" cx="319" cy="249" r="5"/>
    <circle fill="#2E75FE" transform="matrix(1 0 0 -1 0 494)" cx="308" cy="247" r="5"/>
    <circle fill="#2E75FE" transform="matrix(1 0 0 -1 0 488)" cx="307" cy="244" r="5"/>
    <circle fill="#2E75FE" transform="matrix(1 0 0 -1 0 512)" cx="334" cy="256" r="5"/>
    <circle fill="#2E75FE" transform="matrix(1 0 0 -1 0 502)" cx="341" cy="251" r="5"/>
    <circle fill="#2E75FE" transform="matrix(1 0 0 -1 0 488)" cx="349" cy="244" r="5"/>
    <circle fill="#2E75FE" transform="matrix(1 0 0 -1 0 506)" cx="352" cy="253" r="5"/>
    <circle fill="#2E75FE" transform="matrix(1 0 0 -1 0 522)" cx="346" cy="261" r="5"/>
    <circle fill="#2E75FE" transform="matrix(1 0 0 -1 0 502)" cx="279" cy="251" r="5"/>
    <circle fill="#2E75FE" transform="matrix(1 0 0 -1 0 512)" cx="267" cy="256" r="5"/>
    <circle fill="#2E75FE" transform="matrix(1 0 0 -1 0 502)" cx="254" cy="251" r="5"/>
    <circle fill="#2E75FE" transform="matrix(1 0 0 -1 0 484)" cx="249" cy="242" r="5"/>
    <circle fill="#2E75FE" transform="matrix(1 0 0 -1 0 472)" cx="238" cy="236" r="5"/>
    <circle fill="#2E75FE" transform="matrix(1 0 0 -1 0 494)" cx="262" cy="247" r="5"/>
    <circle fill="#2E75FE" transform="matrix(1 0 0 -1 0 472)" cx="262" cy="236" r="5"/>
    <circle fill="#2E75FE" transform="matrix(1 0 0 -1 0 464)" cx="250" cy="232" r="5"/>
    <circle fill="#2E75FE" transform="matrix(1 0 0 -1 0 454)" cx="239" cy="227" r="5"/>
    <circle fill="#2E75FE" transform="matrix(1 0 0 -1 0 484)" cx="273" cy="242" r="5"/>
    <circle fill="#2E75FE" transform="matrix(1 0 0 -1 0 464)" cx="269" cy="232" r="5"/>
    <circle fill="#2E75FE" transform="matrix(1 0 0 -1 0 448)" cx="271" cy="224" r="5"/>
    <circle fill="#2E75FE" transform="matrix(1 0 0 -1 0 432)" cx="268" cy="216" r="5"/>
    <circle fill="#2E75FE" transform="matrix(1 0 0 -1 0 424)" cx="280" cy="212" r="5"/>
    <circle fill="#2E75FE" transform="matrix(1 0 0 -1 0 410)" cx="278" cy="205" r="5"/>
    <circle fill="#2E75FE" transform="matrix(1 0 0 -1 0 400)" cx="264" cy="200" r="5"/>
    <circle fill="#2E75FE" transform="matrix(1 0 0 -1 0 416)" cx="267" cy="208" r="5"/>
    <circle fill="#2E75FE" transform="matrix(1 0 0 -1 0 426)" cx="290" cy="213" r="5"/>
    <circle fill="#2E75FE" transform="matrix(1 0 0 -1 0 408)" cx="288" cy="204" r="5"/>
    <circle fill="#2E75FE" transform="matrix(1 0 0 -1 0 440)" cx="260" cy="220" r="5"/>
    <circle fill="#2E75FE" transform="matrix(1 0 0 -1 0 428)" cx="259" cy="214" r="5"/>
    <circle fill="#2E75FE" transform="matrix(1 0 0 -1 0 456)" cx="257" cy="228" r="5"/>
    <circle fill="#2E75FE" transform="matrix(1 0 0 -1 0 442)" cx="248" cy="221" r="5"/>
    <circle fill="#2E75FE" transform="matrix(1 0 0 -1 0 424)" cx="249" cy="212" r="5"/>
    <circle fill="#2E75FE" transform="matrix(1 0 0 -1 0 408)" cx="251" cy="204" r="5"/>
    <circle fill="#2E75FE" transform="matrix(1 0 0 -1 0 478)" cx="281" cy="239" r="5"/>
    <circle fill="#2E75FE" transform="matrix(1 0 0 -1 0 462)" cx="282" cy="231" r="5"/>
    <circle fill="#2E75FE" transform="matrix(1 0 0 -1 0 512)" cx="244" cy="256" r="5"/>
    <circle fill="#2E75FE" transform="matrix(1 0 0 -1 0 488)" cx="239" cy="244" r="5"/>
    <circle fill="#2E75FE" transform="matrix(1 0 0 -1 0 508)" cx="229" cy="254" r="5"/>
    <circle fill="#2E75FE" transform="matrix(1 0 0 -1 0 494)" cx="219" cy="247" r="5"/>
    <circle fill="#2E75FE" transform="matrix(1 0 0 -1 0 478)" cx="227" cy="239" r="5"/>
    <circle fill="#2E75FE" transform="matrix(1 0 0 -1 0 518)" cx="236" cy="259" r="5"/>
    <circle fill="#2E75FE" transform="matrix(1 0 0 -1 0 518)" cx="221" cy="259" r="5"/>
    <circle fill="#2E75FE" transform="matrix(1 0 0 -1 0 532)" cx="211" cy="266" r="5"/>
    <circle fill="#2E75FE" transform="matrix(1 0 0 -1 0 540)" cx="205" cy="270" r="5"/>
    <circle fill="#2E75FE" transform="matrix(1 0 0 -1 0 512)" cx="202" cy="256" r="5"/>
    <circle fill="#2E75FE" transform="matrix(1 0 0 -1 0 502)" cx="209" cy="251" r="5"/>
    <circle fill="#2E75FE" transform="matrix(1 0 0 -1 0 532)" cx="194" cy="266" r="5"/>
    <circle fill="#2E75FE" transform="matrix(1 0 0 -1 0 530)" cx="177" cy="265" r="5"/>
    <circle fill="#2E75FE" transform="matrix(1 0 0 -1 0 508)" cx="190" cy="254" r="5"/>
    <circle fill="#2E75FE" transform="matrix(1 0 0 -1 0 528)" cx="277" cy="264" r="5"/>
    <circle fill="#2E75FE" transform="matrix(1 0 0 -1 0 552)" cx="279" cy="276" r="5"/>
    <circle fill="#2E75FE" transform="matrix(1 0 0 -1 0 498)" cx="289" cy="249" r="5"/>
    <circle fill="#2E75FE" transform="matrix(1 0 0 -1 0 504)" cx="294" cy="252" r="5"/>
    <circle fill="#2E75FE" transform="matrix(1 0 0 -1 0 528)" cx="296" cy="264" r="5"/>
    <circle fill="#2E75FE" transform="matrix(1 0 0 -1 0 522)" cx="289" cy="261" r="5"/>
    <circle fill="#2E75FE" transform="matrix(1 0 0 -1 0 532)" cx="334" cy="266" r="5"/>
    <circle fill="#2E75FE" transform="matrix(1 0 0 -1 0 552)" cx="339" cy="276" r="5"/>
    <circle fill="#2E75FE" transform="matrix(1 0 0 -1 0 522)" cx="324" cy="261" r="5"/>
    <circle fill="#2E75FE" transform="matrix(1 0 0 -1 0 542)" cx="304" cy="271" r="5"/>
    <circle fill="#2E75FE" transform="matrix(1 0 0 -1 0 540)" cx="344" cy="270" r="5"/>
    <circle fill="#2E75FE" transform="matrix(1 0 0 -1 0 562)" cx="299" cy="281" r="5"/>
    <circle fill="#2E75FE" transform="matrix(1 0 0 -1 0 552)" cx="314" cy="276" r="5"/>
    <circle fill="#2E75FE" transform="matrix(1 0 0 -1 0 552)" cx="289" cy="276" r="5"/>
    <circle fill="#2E75FE" transform="matrix(1 0 0 -1 0 532)" cx="269" cy="266" r="5"/>
    <circle fill="#2E75FE" transform="matrix(1 0 0 -1 0 528)" cx="254" cy="264" r="5"/>
    <circle fill="#2E75FE" transform="matrix(1 0 0 -1 0 542)" cx="248" cy="271" r="5"/>
    <circle fill="#2E75FE" transform="matrix(1 0 0 -1 0 522)" cx="259" cy="261" r="5"/>
    <circle fill="#2E75FE" transform="matrix(1 0 0 -1 0 540)" cx="264" cy="270" r="5"/>
    <circle fill="#2E75FE" transform="matrix(1 0 0 -1 0 532)" cx="244" cy="266" r="5"/>
    <circle fill="#2E75FE" transform="matrix(1 0 0 -1 0 532)" cx="231" cy="266" r="5"/>
    <circle fill="#2E75FE" transform="matrix(1 0 0 -1 0 542)" cx="219" cy="271" r="5"/>
    <circle fill="#2E75FE" transform="matrix(1 0 0 -1 0 542)" cx="229" cy="271" r="5"/>
    <circle fill="#2E75FE" transform="matrix(1 0 0 -1 0 552)" cx="257" cy="276" r="5"/>
    <circle fill="#2E75FE" transform="matrix(1 0 0 -1 0 558)" cx="242" cy="279" r="5"/>
    <circle fill="#2E75FE" transform="matrix(1 0 0 -1 0 562)" cx="230" cy="281" r="5"/>
    <circle fill="#2E75FE" transform="matrix(1 0 0 -1 0 558)" cx="212" cy="279" r="5"/>
    <circle fill="#2E75FE" transform="matrix(1 0 0 -1 0 552)" cx="199" cy="276" r="5"/>
    <circle fill="#2E75FE" transform="matrix(1 0 0 -1 0 550)" cx="186" cy="275" r="5"/>
    <path d="M240.35 133.614h116.278c.757 0 1.372.615 1.372 1.373v149.64c0 .758-.615 1.373-1.372 1.373H2.372A1.373 1.373 0 011 284.628v-148.06c0-.76.615-1.373 1.372-1.373h118.005a1.37 1.37 0 001.372-1.372v-14.714c0-.415.19-.807.51-1.065l52.888-42.732c.32-.26.51-.653.51-1.067V8.79c0-.675.486-1.246 1.15-1.355L221.932.018a1.371 1.371 0 011.594 1.354v31.687a1.37 1.37 0 01-1.084 1.342l-37.33 8.009a1.37 1.37 0 00-1.083 1.342v29.343c0 .409.184.796.5 1.056l53.853 44.406c.313.258.496.642.5 1.049l.095 12.644a1.373 1.373 0 001.372 1.364z" stroke="#FFF" stroke-width="3" stroke-linejoin="round"/>
  </g>
</svg>
