<?xml version="1.0" encoding="UTF-8"?>
<svg width="574px" height="319px" viewBox="0 0 574 319" version="1.1" xmlns="http://www.w3.org/2000/svg" xmlns:xlink="http://www.w3.org/1999/xlink">
    <title>Group 9</title>
    <g id="desktop" stroke="none" stroke-width="1" fill="none" fill-rule="evenodd">
        <g id="dataviz---global-copy" transform="translate(-752.000000, -1632.000000)">
            <g id="Group-9" transform="translate(754.000000, 1633.573000)">
                <path d="M0.211462934,228.03681 L0.211462934,206.758487 L11.0910297,206.758487 L32.1707987,206.758487 L32.1707987,157.425716 L39.345979,157.425716 L39.345979,43.0569221 L47.868209,43.0569221 L47.868209,-1.43529633e-12 L53.700233,-1.43529633e-12 L53.700233,61.8922573 L60.8754134,61.8922573 L60.8754134,131.411307 L68.0525404,131.411307 L68.0525404,207.208153 L96.3055431,207.208153 L96.3055431,95.0818464 L96.3055431,56.0621799 C102.13562,57.4092295 116.040209,61.8922573 129.944798,76.2445646 C146.539592,93.73869 166.721977,130.066204 166.721977,203.620563 L166.721977,206.758487 L199.014182,206.758487 L199.014182,78.9367172 L224.12926,61.4445385 L224.12926,100.466152 L224.12926,206.758487 L246.554132,206.758487 L246.554132,123.338742 L246.554132,81.6269232 L270.326053,101.809308 L270.326053,206.758487 L291.405822,206.758487 L292.721726,206.758487 L292.721726,228.03681 L0.211462934,228.03681 Z" id="Dubai" stroke="#D5E5FF" stroke-width="3"></path>
                <path d="M277.291218,315 L277.291218,293.721677 L288.170784,293.721677 L309.250553,293.721677 L309.250553,244.388906 L316.425734,244.388906 L316.425734,130.020112 L324.947964,130.020112 L324.947964,86.9631902 L330.779988,86.9631902 L330.779988,148.855447 L337.955168,148.855447 L337.955168,218.374497 L345.132295,218.374497 L345.132295,294.171343 L373.385298,294.171343 L373.385298,182.045037 L373.385298,143.02537 C379.215375,144.37242 393.119964,148.855447 407.024552,163.207755 C423.619347,180.70188 443.801732,217.029394 443.801732,290.583753 L443.801732,293.721677 L476.093936,293.721677 L476.093936,165.899907 L501.209014,148.407729 L501.209014,187.429342 L501.209014,293.721677 L523.633886,293.721677 L523.633886,210.301932 L523.633886,168.590113 L547.405808,188.772498 L547.405808,293.721677 L568.485577,293.721677 L569.801481,293.721677 L569.801481,315 L277.291218,315 Z" id="Dubai-Copy" stroke="#D5E5FF" stroke-width="3"></path>
                <circle id="Oval-Copy-2002" fill="#2E75FE" transform="translate(5.000000, 212.427000) scale(-1, -1) translate(-5.000000, -212.427000) " cx="5" cy="212.427" r="5"></circle>
                <circle id="Oval-Copy-2035" fill="#2E75FE" transform="translate(18.000000, 212.427000) scale(-1, -1) translate(-18.000000, -212.427000) " cx="18" cy="212.427" r="5"></circle>
                <circle id="Oval-Copy-1966" fill="#2E75FE" transform="translate(137.000000, 205.427000) scale(-1, -1) translate(-137.000000, -205.427000) " cx="137" cy="205.427" r="5"></circle>
                <circle id="Oval-Copy-1967" fill="#2E75FE" transform="translate(60.000000, 202.427000) scale(-1, -1) translate(-60.000000, -202.427000) " cx="60" cy="202.427" r="5"></circle>
                <circle id="Oval-Copy-2032" fill="#2E75FE" transform="translate(72.000000, 222.427000) scale(-1, -1) translate(-72.000000, -222.427000) " cx="72" cy="222.427" r="5"></circle>
                <circle id="Oval-Copy-2064" fill="#2E75FE" transform="translate(36.000000, 222.427000) scale(-1, -1) translate(-36.000000, -222.427000) " cx="36" cy="222.427" r="5"></circle>
                <circle id="Oval-Copy-2063" fill="#2E75FE" transform="translate(39.000000, 165.427000) scale(-1, -1) translate(-39.000000, -165.427000) " cx="39" cy="165.427" r="5"></circle>
                <circle id="Oval-Copy-2013" fill="#2E75FE" transform="translate(157.000000, 195.427000) scale(-1, -1) translate(-157.000000, -195.427000) " cx="157" cy="195.427" r="5"></circle>
                <circle id="Oval-Copy-2048" fill="#2E75FE" transform="translate(88.000000, 216.427000) scale(-1, -1) translate(-88.000000, -216.427000) " cx="88" cy="216.427" r="5"></circle>
                <circle id="Oval-Copy-2037" fill="#2E75FE" transform="translate(50.000000, 185.427000) scale(-1, -1) translate(-50.000000, -185.427000) " cx="50" cy="185.427" r="5"></circle>
                <circle id="Oval-Copy-2014" fill="#2E75FE" transform="translate(75.000000, 213.427000) scale(-1, -1) translate(-75.000000, -213.427000) " cx="75" cy="213.427" r="5"></circle>
                <circle id="Oval-Copy-2051" fill="#2E75FE" transform="translate(46.000000, 143.427000) scale(-1, -1) translate(-46.000000, -143.427000) " cx="46" cy="143.427" r="5"></circle>
                <circle id="Oval-Copy-2130" fill="#2E75FE" transform="translate(102.000000, 204.427000) scale(-1, -1) translate(-102.000000, -204.427000) " cx="102" cy="204.427" r="5"></circle>
                <circle id="Oval-Copy-2006" fill="#2E75FE" transform="translate(113.000000, 210.427000) scale(-1, -1) translate(-113.000000, -210.427000) " cx="113" cy="210.427" r="5"></circle>
                <circle id="Oval-Copy-2176" fill="#2E75FE" transform="translate(41.000000, 185.427000) scale(-1, -1) translate(-41.000000, -185.427000) " cx="41" cy="185.427" r="5"></circle>
                <circle id="Oval-Copy-2008" fill="#2E75FE" transform="translate(126.000000, 211.427000) scale(-1, -1) translate(-126.000000, -211.427000) " cx="126" cy="211.427" r="5"></circle>
                <circle id="Oval-Copy-1983" fill="#2E75FE" transform="translate(42.000000, 198.427000) scale(-1, -1) translate(-42.000000, -198.427000) " cx="42" cy="198.427" r="5"></circle>
                <circle id="Oval-Copy-1981" fill="#2E75FE" transform="translate(53.000000, 194.427000) scale(-1, -1) translate(-53.000000, -194.427000) " cx="53" cy="194.427" r="5"></circle>
                <circle id="Oval-Copy-1972" fill="#2E75FE" transform="translate(60.000000, 155.427000) scale(-1, -1) translate(-60.000000, -155.427000) " cx="60" cy="155.427" r="5"></circle>
                <circle id="Oval-Copy-1984" fill="#2E75FE" transform="translate(125.000000, 222.427000) scale(-1, -1) translate(-125.000000, -222.427000) " cx="125" cy="222.427" r="5"></circle>
                <circle id="Oval-Copy-1976" fill="#2E75FE" transform="translate(59.000000, 212.427000) scale(-1, -1) translate(-59.000000, -212.427000) " cx="59" cy="212.427" r="5"></circle>
                <circle id="Oval-Copy-1970" fill="#2E75FE" transform="translate(58.000000, 142.427000) scale(-1, -1) translate(-58.000000, -142.427000) " cx="58" cy="142.427" r="5"></circle>
                <circle id="Oval-Copy-1986" fill="#2E75FE" transform="translate(83.000000, 222.427000) scale(-1, -1) translate(-83.000000, -222.427000) " cx="83" cy="222.427" r="5"></circle>
                <circle id="Oval-Copy-1985" fill="#2E75FE" transform="translate(100.000000, 218.427000) scale(-1, -1) translate(-100.000000, -218.427000) " cx="100" cy="218.427" r="5"></circle>
                <circle id="Oval-Copy-2181" fill="#2E75FE" transform="translate(147.000000, 207.427000) scale(-1, -1) translate(-147.000000, -207.427000) " cx="147" cy="207.427" r="5"></circle>
                <circle id="Oval-Copy-1994" fill="#2E75FE" transform="translate(61.000000, 187.427000) scale(-1, -1) translate(-61.000000, -187.427000) " cx="61" cy="187.427" r="5"></circle>
                <circle id="Oval-Copy-2007" fill="#2E75FE" transform="translate(134.000000, 218.427000) scale(-1, -1) translate(-134.000000, -218.427000) " cx="134" cy="218.427" r="5"></circle>
                <circle id="Oval-Copy-2009" fill="#2E75FE" transform="translate(152.000000, 221.427000) scale(-1, -1) translate(-152.000000, -221.427000) " cx="152" cy="221.427" r="5"></circle>
                <circle id="Oval-Copy-2134" fill="#2E75FE" transform="translate(49.000000, 206.427000) scale(1, -1) translate(-49.000000, -206.427000) " cx="49" cy="206.427" r="5"></circle>
                <circle id="Oval-Copy-2148" fill="#2E75FE" transform="translate(157.000000, 208.427000) scale(1, -1) translate(-157.000000, -208.427000) " cx="157" cy="208.427" r="5"></circle>
                <circle id="Oval-Copy-2124" fill="#2E75FE" transform="translate(142.000000, 218.427000) scale(1, -1) translate(-142.000000, -218.427000) " cx="142" cy="218.427" r="5"></circle>
                <circle id="Oval-Copy-2121" fill="#2E75FE" transform="translate(48.000000, 158.427000) scale(1, -1) translate(-48.000000, -158.427000) " cx="48" cy="158.427" r="5"></circle>
                <circle id="Oval-Copy-2069" fill="#2E75FE" transform="translate(162.000000, 219.427000) scale(1, -1) translate(-162.000000, -219.427000) " cx="162" cy="219.427" r="5"></circle>
                <circle id="Oval-Copy-2055" fill="#2E75FE" transform="translate(58.000000, 222.427000) scale(1, -1) translate(-58.000000, -222.427000) " cx="58" cy="222.427" r="5"></circle>
                <circle id="Oval-Copy-2070" fill="#2E75FE" transform="translate(119.000000, 148.427000) scale(-1, -1) translate(-119.000000, -148.427000) " cx="119" cy="148.427" r="5"></circle>
                <circle id="Oval-Copy-1977" fill="#2E75FE" transform="translate(154.000000, 170.427000) scale(-1, -1) translate(-154.000000, -170.427000) " cx="154" cy="170.427" r="5"></circle>
                <circle id="Oval-Copy-2033" fill="#2E75FE" transform="translate(23.000000, 222.427000) scale(-1, -1) translate(-23.000000, -222.427000) " cx="23" cy="222.427" r="5"></circle>
                <circle id="Oval-Copy-1971" fill="#2E75FE" transform="translate(45.000000, 102.427000) scale(-1, -1) translate(-45.000000, -102.427000) " cx="45" cy="102.427" r="5"></circle>
                <circle id="Oval-Copy-2020" fill="#2E75FE" transform="translate(110.000000, 157.427000) scale(-1, -1) translate(-110.000000, -157.427000) " cx="110" cy="157.427" r="5"></circle>
                <circle id="Oval-Copy-2142" fill="#2E75FE" transform="translate(148.000000, 147.427000) scale(-1, -1) translate(-148.000000, -147.427000) " cx="148" cy="147.427" r="5"></circle>
                <circle id="Oval-Copy-2062" fill="#2E75FE" transform="translate(131.000000, 137.427000) scale(-1, -1) translate(-131.000000, -137.427000) " cx="131" cy="137.427" r="5"></circle>
                <circle id="Oval-Copy-1969" fill="#2E75FE" transform="translate(147.000000, 195.427000) scale(-1, -1) translate(-147.000000, -195.427000) " cx="147" cy="195.427" r="5"></circle>
                <circle id="Oval-Copy-1987" fill="#2E75FE" transform="translate(111.000000, 118.427000) scale(-1, -1) translate(-111.000000, -118.427000) " cx="111" cy="118.427" r="5"></circle>
                <circle id="Oval-Copy-1988" fill="#2E75FE" transform="translate(102.000000, 137.427000) scale(-1, -1) translate(-102.000000, -137.427000) " cx="102" cy="137.427" r="5"></circle>
                <circle id="Oval-Copy-2022" fill="#2E75FE" transform="translate(104.000000, 124.427000) scale(-1, -1) translate(-104.000000, -124.427000) " cx="104" cy="124.427" r="5"></circle>
                <circle id="Oval-Copy-2027" fill="#2E75FE" transform="translate(153.000000, 181.427000) scale(-1, -1) translate(-153.000000, -181.427000) " cx="153" cy="181.427" r="5"></circle>
                <circle id="Oval-Copy-1999" fill="#2E75FE" transform="translate(138.000000, 148.427000) scale(-1, -1) translate(-138.000000, -148.427000) " cx="138" cy="148.427" r="5"></circle>
                <circle id="Oval-Copy-2024" fill="#2E75FE" transform="translate(130.000000, 150.427000) scale(-1, -1) translate(-130.000000, -150.427000) " cx="130" cy="150.427" r="5"></circle>
                <circle id="Oval-Copy-2021" fill="#2E75FE" transform="translate(110.000000, 141.427000) scale(-1, -1) translate(-110.000000, -141.427000) " cx="110" cy="141.427" r="5"></circle>
                <circle id="Oval-Copy-2043" fill="#2E75FE" transform="translate(153.000000, 136.427000) scale(-1, -1) translate(-153.000000, -136.427000) " cx="153" cy="136.427" r="5"></circle>
                <circle id="Oval-Copy-2072" fill="#2E75FE" transform="translate(7.000000, 222.427000) scale(-1, -1) translate(-7.000000, -222.427000) " cx="7" cy="222.427" r="5"></circle>
                <circle id="Oval-Copy-2023" fill="#2E75FE" transform="translate(126.000000, 196.427000) scale(-1, -1) translate(-126.000000, -196.427000) " cx="126" cy="196.427" r="5"></circle>
                <circle id="Oval-Copy-1989" fill="#2E75FE" transform="translate(125.000000, 161.427000) scale(-1, -1) translate(-125.000000, -161.427000) " cx="125" cy="161.427" r="5"></circle>
                <circle id="Oval-Copy-2025" fill="#2E75FE" transform="translate(137.000000, 125.427000) scale(-1, -1) translate(-137.000000, -125.427000) " cx="137" cy="125.427" r="5"></circle>
                <circle id="Oval-Copy-1992" fill="#2E75FE" transform="translate(139.000000, 107.427000) scale(-1, -1) translate(-139.000000, -107.427000) " cx="139" cy="107.427" r="5"></circle>
                <circle id="Oval-Copy-2005" fill="#2E75FE" transform="translate(126.000000, 100.427000) scale(-1, -1) translate(-126.000000, -100.427000) " cx="126" cy="100.427" r="5"></circle>
                <circle id="Oval-Copy-2163" fill="#2E75FE" transform="translate(123.000000, 120.427000) scale(-1, -1) translate(-123.000000, -120.427000) " cx="123" cy="120.427" r="5"></circle>
                <circle id="Oval-Copy-2146" fill="#2E75FE" transform="translate(153.000000, 154.427000) scale(-1, -1) translate(-153.000000, -154.427000) " cx="153" cy="154.427" r="5"></circle>
                <circle id="Oval-Copy-2160" fill="#2E75FE" transform="translate(145.000000, 165.427000) scale(-1, -1) translate(-145.000000, -165.427000) " cx="145" cy="165.427" r="5"></circle>
                <circle id="Oval-Copy-2166" fill="#2E75FE" transform="translate(127.000000, 188.427000) scale(-1, -1) translate(-127.000000, -188.427000) " cx="127" cy="188.427" r="5"></circle>
                <circle id="Oval-Copy-2168" fill="#2E75FE" transform="translate(142.000000, 136.427000) scale(-1, -1) translate(-142.000000, -136.427000) " cx="142" cy="136.427" r="5"></circle>
                <circle id="Oval-Copy-2161" fill="#2E75FE" transform="translate(103.000000, 111.427000) scale(-1, -1) translate(-103.000000, -111.427000) " cx="103" cy="111.427" r="5"></circle>
                <circle id="Oval-Copy-1998" fill="#2E75FE" transform="translate(114.000000, 137.427000) scale(-1, -1) translate(-114.000000, -137.427000) " cx="114" cy="137.427" r="5"></circle>
                <circle id="Oval-Copy-2158" fill="#2E75FE" transform="translate(137.000000, 98.427000) scale(-1, -1) translate(-137.000000, -98.427000) " cx="137" cy="98.427" r="5"></circle>
                <circle id="Oval-Copy-2173" fill="#2E75FE" transform="translate(104.000000, 193.427000) scale(-1, -1) translate(-104.000000, -193.427000) " cx="104" cy="193.427" r="5"></circle>
                <circle id="Oval-Copy-2147" fill="#2E75FE" transform="translate(136.000000, 174.427000) scale(-1, -1) translate(-136.000000, -174.427000) " cx="136" cy="174.427" r="5"></circle>
                <circle id="Oval-Copy-2154" fill="#2E75FE" transform="translate(117.000000, 170.427000) scale(-1, -1) translate(-117.000000, -170.427000) " cx="117" cy="170.427" r="5"></circle>
                <circle id="Oval-Copy-1982" fill="#2E75FE" transform="translate(125.000000, 177.427000) scale(-1, -1) translate(-125.000000, -177.427000) " cx="125" cy="177.427" r="5"></circle>
                <circle id="Oval-Copy-1974" fill="#2E75FE" transform="translate(103.000000, 163.427000) scale(-1, -1) translate(-103.000000, -163.427000) " cx="103" cy="163.427" r="5"></circle>
                <circle id="Oval-Copy-2001" fill="#2E75FE" transform="translate(102.000000, 151.427000) scale(-1, -1) translate(-102.000000, -151.427000) " cx="102" cy="151.427" r="5"></circle>
                <circle id="Oval-Copy-1973" fill="#2E75FE" transform="translate(146.000000, 121.427000) scale(-1, -1) translate(-146.000000, -121.427000) " cx="146" cy="121.427" r="5"></circle>
                <circle id="Oval-Copy-1968" fill="#2E75FE" transform="translate(49.000000, 169.427000) scale(-1, -1) translate(-49.000000, -169.427000) " cx="49" cy="169.427" r="5"></circle>
                <circle id="Oval-Copy-2034" fill="#2E75FE" transform="translate(30.000000, 212.427000) scale(-1, -1) translate(-30.000000, -212.427000) " cx="30" cy="212.427" r="5"></circle>
                <circle id="Oval-Copy-2038" fill="#2E75FE" transform="translate(175.000000, 220.427000) scale(-1, -1) translate(-175.000000, -220.427000) " cx="175" cy="220.427" r="5"></circle>
                <circle id="Oval-Copy-2039" fill="#2E75FE" transform="translate(112.000000, 220.427000) scale(-1, -1) translate(-112.000000, -220.427000) " cx="112" cy="220.427" r="5"></circle>
                <circle id="Oval-Copy-1990" fill="#2E75FE" transform="translate(218.000000, 138.427000) scale(-1, -1) translate(-218.000000, -138.427000) " cx="218" cy="138.427" r="5"></circle>
                <circle id="Oval-Copy-1993" fill="#2E75FE" transform="translate(140.000000, 191.427000) scale(-1, -1) translate(-140.000000, -191.427000) " cx="140" cy="191.427" r="5"></circle>
                <circle id="Oval-Copy-1991" fill="#2E75FE" transform="translate(135.000000, 164.427000) scale(-1, -1) translate(-135.000000, -164.427000) " cx="135" cy="164.427" r="5"></circle>
                <circle id="Oval-Copy-1997" fill="#2E75FE" transform="translate(47.000000, 217.427000) scale(-1, -1) translate(-47.000000, -217.427000) " cx="47" cy="217.427" r="5"></circle>
                <circle id="Oval-Copy-2136" fill="#2E75FE" transform="translate(58.000000, 173.427000) scale(1, -1) translate(-58.000000, -173.427000) " cx="58" cy="173.427" r="5"></circle>
                <circle id="Oval-Copy-2178" fill="#2E75FE" transform="translate(216.000000, 119.427000) scale(1, -1) translate(-216.000000, -119.427000) " cx="216" cy="119.427" r="5"></circle>
                <circle id="Oval-Copy-2122" fill="#2E75FE" transform="translate(123.000000, 129.427000) scale(1, -1) translate(-123.000000, -129.427000) " cx="123" cy="129.427" r="5"></circle>
                <circle id="Oval-Copy-1998" fill="#2E75FE" transform="translate(117.000000, 197.427000) scale(1, -1) translate(-117.000000, -197.427000) " cx="117" cy="197.427" r="5"></circle>
                <circle id="Oval-Copy-2000" fill="#2E75FE" transform="translate(114.000000, 185.427000) scale(1, -1) translate(-114.000000, -185.427000) " cx="114" cy="185.427" r="5"></circle>
                <circle id="Oval-Copy-2135" fill="#2E75FE" transform="translate(145.000000, 180.427000) scale(-1, -1) translate(-145.000000, -180.427000) " cx="145" cy="180.427" r="5"></circle>
                <circle id="Oval-Copy-2145" fill="#2E75FE" transform="translate(107.000000, 173.427000) scale(1, -1) translate(-107.000000, -173.427000) " cx="107" cy="173.427" r="5"></circle>
                <circle id="Oval-Copy-702" fill="#FBA55F" cx="256.316876" cy="115.635955" r="4.69083156"></circle>
                <circle id="Oval-Copy-707" fill="#FBA55F" cx="110.368049" cy="105.635955" r="4.69083156"></circle>
                <circle id="Oval-Copy-221" fill="#FBA55F" transform="translate(55.527964, 70.399281) scale(-1, -1) translate(-55.527964, -70.399281) " cx="55.5279637" cy="70.3992814" r="4.69083156"></circle>
                <circle id="Oval-Copy-603" fill="#FBA55F" transform="translate(47.527964, 45.450454) scale(-1, -1) translate(-47.527964, -45.450454) " cx="47.5279637" cy="45.4504542" r="4.69083156"></circle>
                <circle id="Oval-Copy-222" fill="#FBA55F" transform="translate(43.651631, 79.657277) scale(-1, -1) translate(-43.651631, -79.657277) " cx="43.6516311" cy="79.6572772" r="4.69083156"></circle>
                <circle id="Oval-Copy-604" fill="#FBA55F" transform="translate(48.651631, 62.708450) scale(-1, -1) translate(-48.651631, -62.708450) " cx="48.6516311" cy="62.7084499" r="4.69083156"></circle>
                <circle id="Oval-Copy-223" fill="#FBA55F" transform="translate(54.579136, 89.275614) scale(-1, -1) translate(-54.579136, -89.275614) " cx="54.5791364" cy="89.2756141" r="4.69083156"></circle>
                <circle id="Oval-Copy-605" fill="#FBA55F" transform="translate(53.579136, 79.326787) scale(-1, -1) translate(-53.579136, -79.326787) " cx="53.5791364" cy="79.3267868" r="4.69083156"></circle>
                <circle id="Oval-Copy-224" fill="#FBA55F" transform="translate(51.579136, 96.657277) scale(-1, -1) translate(-51.579136, -96.657277) " cx="51.5791364" cy="96.6572772" r="4.69083156"></circle>
                <circle id="Oval-Copy-606" fill="#FBA55F" transform="translate(44.579136, 90.708450) scale(-1, -1) translate(-44.579136, -90.708450) " cx="44.5791364" cy="90.7084499" r="4.69083156"></circle>
                <circle id="Oval-Copy-226" fill="#FBA55F" transform="translate(128.321141, 89.471776) scale(-1, -1) translate(-128.321141, -89.471776) " cx="128.321141" cy="89.4717761" r="4.69083156"></circle>
                <circle id="Oval-Copy-230" fill="#FBA55F" transform="translate(45.321141, 70.399281) scale(-1, -1) translate(-45.321141, -70.399281) " cx="45.3211406" cy="70.3992814" r="4.69083156"></circle>
                <circle id="Oval-Copy-231" fill="#FBA55F" transform="translate(205.939478, 107.780945) scale(-1, -1) translate(-205.939478, -107.780945) " cx="205.939478" cy="107.780945" r="4.69083156"></circle>
                <circle id="Oval-Copy-608" fill="#FBA55F" transform="translate(216.939478, 94.832117) scale(-1, -1) translate(-216.939478, -94.832117) " cx="216.939478" cy="94.8321173" r="4.69083156"></circle>
                <circle id="Oval-Copy-232" fill="#FBA55F" transform="translate(109.248646, 93.399281) scale(-1, -1) translate(-109.248646, -93.399281) " cx="109.248646" cy="93.3992814" r="4.69083156"></circle>
                <circle id="Oval-Copy-609" fill="#FBA55F" transform="translate(203.248646, 96.450454) scale(-1, -1) translate(-203.248646, -96.450454) " cx="203.248646" cy="96.4504542" r="4.69083156"></circle>
                <circle id="Oval-Copy-233" fill="#FBA55F" transform="translate(101.557814, 99.657277) scale(-1, -1) translate(-101.557814, -99.657277) " cx="101.557814" cy="99.6572772" r="4.69083156"></circle>
                <circle id="Oval-Copy-610" fill="#FBA55F" transform="translate(214.557814, 104.708450) scale(-1, -1) translate(-214.557814, -104.708450) " cx="214.557814" cy="104.70845" r="4.69083156"></circle>
                <circle id="Oval-Copy-240" fill="#FBA55F" transform="translate(43.794488, 54.657277) scale(-1, -1) translate(-43.794488, -54.657277) " cx="43.7944882" cy="54.6572772" r="4.69083156"></circle>
                <circle id="Oval-Copy-617" fill="#FBA55F" transform="translate(119.176151, 94.832117) scale(-1, -1) translate(-119.176151, -94.832117) " cx="119.176151" cy="94.8321173" r="4.69083156"></circle>
                <circle id="Oval-Copy-619" fill="#FBA55F" transform="translate(263.866983, 112.450454) scale(-1, -1) translate(-263.866983, -112.450454) " cx="263.866983" cy="112.450454" r="4.69083156"></circle>
                <circle id="Oval-Copy-2131" fill="#2E75FE" transform="translate(217.000000, 219.427000) scale(-1, -1) translate(-217.000000, -219.427000) " cx="217" cy="219.427" r="5"></circle>
                <circle id="Oval-Copy-1996" fill="#2E75FE" transform="translate(206.000000, 206.427000) scale(-1, -1) translate(-206.000000, -206.427000) " cx="206" cy="206.427" r="5"></circle>
                <circle id="Oval-Copy-2068" fill="#2E75FE" transform="translate(240.000000, 221.427000) scale(1, -1) translate(-240.000000, -221.427000) " cx="240" cy="221.427" r="5"></circle>
                <circle id="Oval-Copy-2003" fill="#2E75FE" transform="translate(263.000000, 212.427000) scale(1, -1) translate(-263.000000, -212.427000) " cx="263" cy="212.427" r="5"></circle>
                <circle id="Oval-Copy-1974" fill="#2E75FE" transform="translate(251.000000, 212.427000) scale(1, -1) translate(-251.000000, -212.427000) " cx="251" cy="212.427" r="5"></circle>
                <circle id="Oval-Copy-2049" fill="#2E75FE" transform="translate(237.000000, 214.427000) scale(-1, -1) translate(-237.000000, -214.427000) " cx="237" cy="214.427" r="5"></circle>
                <circle id="Oval-Copy-2045" fill="#2E75FE" transform="translate(204.000000, 222.427000) scale(-1, -1) translate(-204.000000, -222.427000) " cx="204" cy="222.427" r="5"></circle>
                <circle id="Oval-Copy-2015" fill="#2E75FE" transform="translate(141.000000, 183.427000) scale(-1, -1) translate(-141.000000, -183.427000) " cx="141" cy="183.427" r="5"></circle>
                <circle id="Oval-Copy-2065" fill="#2E75FE" transform="translate(223.000000, 211.427000) scale(-1, -1) translate(-223.000000, -211.427000) " cx="223" cy="211.427" r="5"></circle>
                <circle id="Oval-Copy-2061" fill="#2E75FE" transform="translate(206.000000, 187.427000) scale(-1, -1) translate(-206.000000, -187.427000) " cx="206" cy="187.427" r="5"></circle>
                <circle id="Oval-Copy-2017" fill="#2E75FE" transform="translate(208.000000, 141.427000) scale(-1, -1) translate(-208.000000, -141.427000) " cx="208" cy="141.427" r="5"></circle>
                <circle id="Oval-Copy-2042" fill="#2E75FE" transform="translate(206.000000, 130.427000) scale(-1, -1) translate(-206.000000, -130.427000) " cx="206" cy="130.427" r="5"></circle>
                <circle id="Oval-Copy-2075" fill="#2E75FE" transform="translate(255.000000, 138.427000) scale(-1, -1) translate(-255.000000, -138.427000) " cx="255" cy="138.427" r="5"></circle>
                <circle id="Oval-Copy-2182" fill="#2E75FE" transform="translate(265.000000, 144.427000) scale(-1, -1) translate(-265.000000, -144.427000) " cx="265" cy="144.427" r="5"></circle>
                <circle id="Oval-Copy-2122" fill="#2E75FE" transform="translate(53.000000, 132.427000) scale(-1, -1) translate(-53.000000, -132.427000) " cx="53" cy="132.427" r="5"></circle>
                <circle id="Oval-Copy-2152" fill="#2E75FE" transform="translate(104.000000, 181.427000) scale(-1, -1) translate(-104.000000, -181.427000) " cx="104" cy="181.427" r="5"></circle>
                <circle id="Oval-Copy-2026" fill="#2E75FE" transform="translate(46.000000, 112.427000) scale(-1, -1) translate(-46.000000, -112.427000) " cx="46" cy="112.427" r="5"></circle>
                <circle id="Oval-Copy-1995" fill="#2E75FE" transform="translate(187.000000, 214.427000) scale(-1, -1) translate(-187.000000, -214.427000) " cx="187" cy="214.427" r="5"></circle>
                <circle id="Oval-Copy-2133" fill="#2E75FE" transform="translate(62.000000, 165.427000) scale(-1, -1) translate(-62.000000, -165.427000) " cx="62" cy="165.427" r="5"></circle>
                <circle id="Oval-Copy-2180" fill="#2E75FE" transform="translate(194.000000, 220.427000) scale(-1, -1) translate(-194.000000, -220.427000) " cx="194" cy="220.427" r="5"></circle>
                <circle id="Oval-Copy-2157" fill="#2E75FE" transform="translate(260.000000, 221.427000) scale(-1, -1) translate(-260.000000, -221.427000) " cx="260" cy="221.427" r="5"></circle>
                <circle id="Oval-Copy-2174" fill="#2E75FE" transform="translate(53.000000, 107.427000) scale(-1, -1) translate(-53.000000, -107.427000) " cx="53" cy="107.427" r="5"></circle>
                <circle id="Oval-Copy-2132" fill="#2E75FE" transform="translate(219.000000, 191.427000) scale(-1, -1) translate(-219.000000, -191.427000) " cx="219" cy="191.427" r="5"></circle>
                <circle id="Oval-Copy-2159" fill="#2E75FE" transform="translate(119.000000, 109.427000) scale(-1, -1) translate(-119.000000, -109.427000) " cx="119" cy="109.427" r="5"></circle>
                <circle id="Oval-Copy-2172" fill="#2E75FE" transform="translate(205.000000, 117.427000) scale(-1, -1) translate(-205.000000, -117.427000) " cx="205" cy="117.427" r="5"></circle>
                <circle id="Oval-Copy-2012" fill="#2E75FE" transform="translate(284.000000, 308.427000) scale(-1, -1) translate(-284.000000, -308.427000) " cx="284" cy="308.427" r="5"></circle>
                <circle id="Oval-Copy-2000" fill="#2E75FE" transform="translate(39.000000, 208.427000) scale(-1, -1) translate(-39.000000, -208.427000) " cx="39" cy="208.427" r="5"></circle>
                <circle id="Oval-Copy-2156" fill="#2E75FE" transform="translate(217.000000, 164.427000) scale(1, -1) translate(-217.000000, -164.427000) " cx="217" cy="164.427" r="5"></circle>
                <circle id="Oval-Copy-2179" fill="#2E75FE" transform="translate(285.000000, 300.427000) scale(1, -1) translate(-285.000000, -300.427000) " cx="285" cy="300.427" r="5"></circle>
                <circle id="Oval-Copy-2135" fill="#2E75FE" transform="translate(52.000000, 178.427000) scale(1, -1) translate(-52.000000, -178.427000) " cx="52" cy="178.427" r="5"></circle>
                <circle id="Oval-Copy-2036" fill="#2E75FE" transform="translate(251.000000, 175.427000) scale(1, -1) translate(-251.000000, -175.427000) " cx="251" cy="175.427" r="5"></circle>
                <circle id="Oval-Copy-2071" fill="#2E75FE" transform="translate(207.000000, 171.427000) scale(1, -1) translate(-207.000000, -171.427000) " cx="207" cy="171.427" r="5"></circle>
                <circle id="Oval-Copy-2072" fill="#2E75FE" transform="translate(255.000000, 185.427000) scale(1, -1) translate(-255.000000, -185.427000) " cx="255" cy="185.427" r="5"></circle>
                <circle id="Oval-Copy-2143" fill="#2E75FE" transform="translate(259.000000, 167.427000) scale(1, -1) translate(-259.000000, -167.427000) " cx="259" cy="167.427" r="5"></circle>
                <circle id="Oval-Copy-2167" fill="#2E75FE" transform="translate(263.000000, 156.427000) scale(1, -1) translate(-263.000000, -156.427000) " cx="263" cy="156.427" r="5"></circle>
                <circle id="Oval-Copy-2168" fill="#2E75FE" transform="translate(271.000000, 220.427000) scale(1, -1) translate(-271.000000, -220.427000) " cx="271" cy="220.427" r="5"></circle>
                <circle id="Oval-Copy-2169" fill="#2E75FE" transform="translate(218.000000, 110.427000) scale(1, -1) translate(-218.000000, -110.427000) " cx="218" cy="110.427" r="5"></circle>
                <circle id="Oval-Copy-2123" fill="#2E75FE" transform="translate(210.000000, 197.427000) scale(1, -1) translate(-210.000000, -197.427000) " cx="210" cy="197.427" r="5"></circle>
                <circle id="Oval-Copy-2129" fill="#2E75FE" transform="translate(214.000000, 209.427000) scale(1, -1) translate(-214.000000, -209.427000) " cx="214" cy="209.427" r="5"></circle>
                <circle id="Oval-Copy-2174" fill="#2E75FE" transform="translate(40.000000, 175.427000) scale(1, -1) translate(-40.000000, -175.427000) " cx="40" cy="175.427" r="5"></circle>
                <circle id="Oval-Copy-2155" fill="#2E75FE" transform="translate(253.000000, 161.427000) scale(1, -1) translate(-253.000000, -161.427000) " cx="253" cy="161.427" r="5"></circle>
                <circle id="Oval-Copy-2149" fill="#2E75FE" transform="translate(264.000000, 188.427000) scale(1, -1) translate(-264.000000, -188.427000) " cx="264" cy="188.427" r="5"></circle>
                <circle id="Oval-Copy-2011" fill="#2E75FE" transform="translate(253.000000, 198.427000) scale(-1, -1) translate(-253.000000, -198.427000) " cx="253" cy="198.427" r="5"></circle>
                <circle id="Oval-Copy-2136" fill="#2E75FE" transform="translate(53.000000, 120.427000) scale(-1, -1) translate(-53.000000, -120.427000) " cx="53" cy="120.427" r="5"></circle>
                <circle id="Oval-Copy-2178" fill="#2E75FE" transform="translate(46.000000, 126.427000) scale(-1, -1) translate(-46.000000, -126.427000) " cx="46" cy="126.427" r="5"></circle>
                <circle id="Oval-Copy-2031" fill="#2E75FE" transform="translate(227.000000, 221.427000) scale(-1, -1) translate(-227.000000, -221.427000) " cx="227" cy="221.427" r="5"></circle>
                <circle id="Oval-Copy-2066" fill="#2E75FE" transform="translate(264.000000, 123.427000) scale(-1, -1) translate(-264.000000, -123.427000) " cx="264" cy="123.427" r="5"></circle>
                <circle id="Oval-Copy-2060" fill="#2E75FE" transform="translate(252.000000, 126.427000) scale(-1, -1) translate(-252.000000, -126.427000) " cx="252" cy="126.427" r="5"></circle>
                <circle id="Oval-Copy-2177" fill="#2E75FE" transform="translate(216.000000, 153.427000) scale(-1, -1) translate(-216.000000, -153.427000) " cx="216" cy="153.427" r="5"></circle>
                <circle id="Oval-Copy-2125" fill="#2E75FE" transform="translate(112.000000, 128.427000) scale(1, -1) translate(-112.000000, -128.427000) " cx="112" cy="128.427" r="5"></circle>
                <circle id="Oval-Copy-1964" fill="#2E75FE" transform="translate(208.000000, 153.427000) scale(1, -1) translate(-208.000000, -153.427000) " cx="208" cy="153.427" r="5"></circle>
                <circle id="Oval-Copy-2035" fill="#2E75FE" transform="translate(171.000000, 214.427000) scale(1, -1) translate(-171.000000, -214.427000) " cx="171" cy="214.427" r="5"></circle>
                <circle id="Oval-Copy-1980" fill="#2E75FE" transform="translate(263.000000, 177.427000) scale(1, -1) translate(-263.000000, -177.427000) " cx="263" cy="177.427" r="5"></circle>
                <circle id="Oval-Copy-2163" fill="#2E75FE" transform="translate(208.000000, 164.427000) scale(1, -1) translate(-208.000000, -164.427000) " cx="208" cy="164.427" r="5"></circle>
                <circle id="Oval-Copy-2160" fill="#2E75FE" transform="translate(261.000000, 201.427000) scale(1, -1) translate(-261.000000, -201.427000) " cx="261" cy="201.427" r="5"></circle>
                <circle id="Oval-Copy-2153" fill="#2E75FE" transform="translate(263.000000, 132.427000) scale(1, -1) translate(-263.000000, -132.427000) " cx="263" cy="132.427" r="5"></circle>
                <circle id="Oval-Copy-2026" fill="#2E75FE" transform="translate(143.000000, 156.427000) scale(1, -1) translate(-143.000000, -156.427000) " cx="143" cy="156.427" r="5"></circle>
                <circle id="Oval-Copy-2138" fill="#2E75FE" transform="translate(184.000000, 222.427000) scale(1, -1) translate(-184.000000, -222.427000) " cx="184" cy="222.427" r="5"></circle>
                <circle id="Oval-Copy-2137" fill="#2E75FE" transform="translate(250.000000, 221.427000) scale(1, -1) translate(-250.000000, -221.427000) " cx="250" cy="221.427" r="5"></circle>
                <circle id="Oval-Copy-2158" fill="#2E75FE" transform="translate(207.000000, 213.427000) scale(1, -1) translate(-207.000000, -213.427000) " cx="207" cy="213.427" r="5"></circle>
                <circle id="Oval-Copy-2173" fill="#2E75FE" transform="translate(212.000000, 181.427000) scale(1, -1) translate(-212.000000, -181.427000) " cx="212" cy="181.427" r="5"></circle>
                <circle id="Oval-Copy-2172" fill="#2E75FE" transform="translate(132.000000, 115.427000) scale(1, -1) translate(-132.000000, -115.427000) " cx="132" cy="115.427" r="5"></circle>
                <circle id="Oval-Copy-2150" fill="#2E75FE" transform="translate(216.000000, 129.427000) scale(1, -1) translate(-216.000000, -129.427000) " cx="216" cy="129.427" r="5"></circle>
                <circle id="Oval-Copy-1976" fill="#2E75FE" transform="translate(258.000000, 148.427000) scale(1, -1) translate(-258.000000, -148.427000) " cx="258" cy="148.427" r="5"></circle>
                <circle id="Oval-Copy-1994" fill="#2E75FE" transform="translate(283.000000, 220.427000) scale(1, -1) translate(-283.000000, -220.427000) " cx="283" cy="220.427" r="5"></circle>
                <circle id="Oval-Copy-2009" fill="#2E75FE" transform="translate(281.000000, 213.427000) scale(1, -1) translate(-281.000000, -213.427000) " cx="281" cy="213.427" r="5"></circle>
                <circle id="Oval-Copy-2175" fill="#2E75FE" transform="translate(293.000000, 308.427000) scale(-1, -1) translate(-293.000000, -308.427000) " cx="293" cy="308.427" r="5"></circle>
                <circle id="Oval-Copy-277" fill="#FBA55F" cx="209.988518" cy="77.3481087" r="4.69083156"></circle>
                <circle id="Oval-Copy-589" fill="#FBA55F" cx="103.061013" cy="89.4504542" r="4.69083156"></circle>
                <circle id="Oval-Copy-282" fill="#FBA55F" cx="218.988518" cy="82.2137804" r="4.69083156"></circle>
                <circle id="Oval-Copy-590" fill="#FBA55F" cx="109.988518" cy="82.2649531" r="4.69083156"></circle>
                <circle id="Oval-Copy-591" fill="#FBA55F" cx="118.690011" cy="85.893951" r="4.69083156"></circle>
                <circle id="Oval-Copy-299" fill="#FBA55F" cx="253.039691" cy="95.2756141" r="4.69083156"></circle>
                <circle id="Oval-Copy-594" fill="#FBA55F" cx="203.039691" cy="84.3267868" r="4.69083156"></circle>
                <circle id="Oval-Copy-586" fill="#FBA55F" cx="102.265704" cy="63.7084499" r="4.69083156"></circle>
                <circle id="Oval-Copy-219" fill="#FBA55F" transform="translate(117.909627, 75.471776) scale(-1, -1) translate(-117.909627, -75.471776) " cx="117.909627" cy="75.4717761" r="4.69083156"></circle>
                <circle id="Oval-Copy-611" fill="#FBA55F" transform="translate(250.794488, 106.708450) scale(-1, -1) translate(-250.794488, -106.708450) " cx="250.794488" cy="106.70845" r="4.69083156"></circle>
                <circle id="Oval-Copy-244" fill="#FBA55F" transform="translate(126.340330, 82.275614) scale(-1, -1) translate(-126.340330, -82.275614) " cx="126.34033" cy="82.2756141" r="4.69083156"></circle>
                <circle id="Oval-Copy-615" fill="#FBA55F" transform="translate(218.340330, 71.326787) scale(-1, -1) translate(-218.340330, -71.326787) " cx="218.34033" cy="71.3267868" r="4.69083156"></circle>
                <circle id="Oval-Copy-243" fill="#FBA55F" transform="translate(103.412825, 77.090113) scale(-1, -1) translate(-103.412825, -77.090113) " cx="103.412825" cy="77.090113" r="4.69083156"></circle>
                <circle id="Oval-Copy-237" fill="#FBA55F" transform="translate(260.176151, 103.780945) scale(-1, -1) translate(-260.176151, -103.780945) " cx="260.176151" cy="103.780945" r="4.69083156"></circle>
                <circle id="Oval-Copy-238" fill="#FBA55F" transform="translate(109.918156, 70.399281) scale(-1, -1) translate(-109.918156, -70.399281) " cx="109.918156" cy="70.3992814" r="4.69083156"></circle>
                <circle id="Oval-Copy-239" fill="#FBA55F" transform="translate(212.866983, 89.399281) scale(-1, -1) translate(-212.866983, -89.399281) " cx="212.866983" cy="89.3992814" r="4.69083156"></circle>
                <circle id="Oval-Copy-2167" fill="#2E75FE" transform="translate(327.000000, 274.427000) scale(-1, -1) translate(-327.000000, -274.427000) " cx="327" cy="274.427" r="5"></circle>
                <circle id="Oval-Copy-2171" fill="#2E75FE" transform="translate(337.000000, 256.427000) scale(-1, -1) translate(-337.000000, -256.427000) " cx="337" cy="256.427" r="5"></circle>
                <circle id="Oval-Copy-2137" fill="#2E75FE" transform="translate(325.000000, 205.427000) scale(-1, -1) translate(-325.000000, -205.427000) " cx="325" cy="205.427" r="5"></circle>
                <circle id="Oval-Copy-2150" fill="#2E75FE" transform="translate(324.000000, 222.427000) scale(-1, -1) translate(-324.000000, -222.427000) " cx="324" cy="222.427" r="5"></circle>
                <circle id="Oval-Copy-2127" fill="#2E75FE" transform="translate(332.000000, 199.427000) scale(-1, -1) translate(-332.000000, -199.427000) " cx="332" cy="199.427" r="5"></circle>
                <circle id="Oval-Copy-2040" fill="#2E75FE" transform="translate(494.000000, 245.427000) scale(-1, -1) translate(-494.000000, -245.427000) " cx="494" cy="245.427" r="5"></circle>
                <circle id="Oval-Copy-2126" fill="#2E75FE" transform="translate(322.000000, 182.427000) scale(1, -1) translate(-322.000000, -182.427000) " cx="322" cy="182.427" r="5"></circle>
                <circle id="Oval-Copy-1966" fill="#2E75FE" transform="translate(485.000000, 253.427000) scale(1, -1) translate(-485.000000, -253.427000) " cx="485" cy="253.427" r="5"></circle>
                <circle id="Oval-Copy-1967" fill="#2E75FE" transform="translate(331.000000, 188.427000) scale(1, -1) translate(-331.000000, -188.427000) " cx="331" cy="188.427" r="5"></circle>
                <circle id="Oval-Copy-2070" fill="#2E75FE" transform="translate(351.000000, 300.427000) scale(1, -1) translate(-351.000000, -300.427000) " cx="351" cy="300.427" r="5"></circle>
                <circle id="Oval-Copy-1977" fill="#2E75FE" transform="translate(333.000000, 301.427000) scale(1, -1) translate(-333.000000, -301.427000) " cx="333" cy="301.427" r="5"></circle>
                <circle id="Oval-Copy-2033" fill="#2E75FE" transform="translate(401.000000, 309.427000) scale(1, -1) translate(-401.000000, -309.427000) " cx="401" cy="309.427" r="5"></circle>
                <circle id="Oval-Copy-1971" fill="#2E75FE" transform="translate(156.000000, 163.427000) scale(1, -1) translate(-156.000000, -163.427000) " cx="156" cy="163.427" r="5"></circle>
                <circle id="Oval-Copy-2020" fill="#2E75FE" transform="translate(467.000000, 309.427000) scale(1, -1) translate(-467.000000, -309.427000) " cx="467" cy="309.427" r="5"></circle>
                <circle id="Oval-Copy-2032" fill="#2E75FE" transform="translate(469.000000, 302.427000) scale(1, -1) translate(-469.000000, -302.427000) " cx="469" cy="302.427" r="5"></circle>
                <circle id="Oval-Copy-2049" fill="#2E75FE" transform="translate(327.000000, 291.427000) scale(1, -1) translate(-327.000000, -291.427000) " cx="327" cy="291.427" r="5"></circle>
                <circle id="Oval-Copy-2031" fill="#2E75FE" transform="translate(403.000000, 240.427000) scale(1, -1) translate(-403.000000, -240.427000) " cx="403" cy="240.427" r="5"></circle>
                <circle id="Oval-Copy-2045" fill="#2E75FE" transform="translate(322.000000, 281.427000) scale(1, -1) translate(-322.000000, -281.427000) " cx="322" cy="281.427" r="5"></circle>
                <circle id="Oval-Copy-2057" fill="#2E75FE" transform="translate(413.000000, 297.427000) scale(1, -1) translate(-413.000000, -297.427000) " cx="413" cy="297.427" r="5"></circle>
                <circle id="Oval-Copy-2053" fill="#2E75FE" transform="translate(325.000000, 258.427000) scale(1, -1) translate(-325.000000, -258.427000) " cx="325" cy="258.427" r="5"></circle>
                <circle id="Oval-Copy-2164" fill="#2E75FE" transform="translate(496.000000, 272.427000) scale(1, -1) translate(-496.000000, -272.427000) " cx="496" cy="272.427" r="5"></circle>
                <circle id="Oval-Copy-2015" fill="#2E75FE" transform="translate(312.000000, 299.427000) scale(1, -1) translate(-312.000000, -299.427000) " cx="312" cy="299.427" r="5"></circle>
                <circle id="Oval-Copy-2046" fill="#2E75FE" transform="translate(438.000000, 308.427000) scale(1, -1) translate(-438.000000, -308.427000) " cx="438" cy="308.427" r="5"></circle>
                <circle id="Oval-Copy-2019" fill="#2E75FE" transform="translate(427.000000, 297.427000) scale(1, -1) translate(-427.000000, -297.427000) " cx="427" cy="297.427" r="5"></circle>
                <circle id="Oval-Copy-2047" fill="#2E75FE" transform="translate(322.000000, 301.427000) scale(1, -1) translate(-322.000000, -301.427000) " cx="322" cy="301.427" r="5"></circle>
                <circle id="Oval-Copy-2062" fill="#2E75FE" transform="translate(374.000000, 307.427000) scale(1, -1) translate(-374.000000, -307.427000) " cx="374" cy="307.427" r="5"></circle>
                <circle id="Oval-Copy-2065" fill="#2E75FE" transform="translate(429.000000, 304.427000) scale(1, -1) translate(-429.000000, -304.427000) " cx="429" cy="304.427" r="5"></circle>
                <circle id="Oval-Copy-2061" fill="#2E75FE" transform="translate(491.000000, 285.427000) scale(1, -1) translate(-491.000000, -285.427000) " cx="491" cy="285.427" r="5"></circle>
                <circle id="Oval-Copy-2066" fill="#2E75FE" transform="translate(446.000000, 300.427000) scale(1, -1) translate(-446.000000, -300.427000) " cx="446" cy="300.427" r="5"></circle>
                <circle id="Oval-Copy-2063" fill="#2E75FE" transform="translate(344.000000, 308.427000) scale(1, -1) translate(-344.000000, -308.427000) " cx="344" cy="308.427" r="5"></circle>
                <circle id="Oval-Copy-2067" fill="#2E75FE" transform="translate(494.000000, 308.427000) scale(1, -1) translate(-494.000000, -308.427000) " cx="494" cy="308.427" r="5"></circle>
                <circle id="Oval-Copy-2013" fill="#2E75FE" transform="translate(487.000000, 269.427000) scale(1, -1) translate(-487.000000, -269.427000) " cx="487" cy="269.427" r="5"></circle>
                <circle id="Oval-Copy-2016" fill="#2E75FE" transform="translate(493.000000, 296.427000) scale(1, -1) translate(-493.000000, -296.427000) " cx="493" cy="296.427" r="5"></circle>
                <circle id="Oval-Copy-2018" fill="#2E75FE" transform="translate(364.000000, 298.427000) scale(1, -1) translate(-364.000000, -298.427000) " cx="364" cy="298.427" r="5"></circle>
                <circle id="Oval-Copy-2048" fill="#2E75FE" transform="translate(421.000000, 289.427000) scale(1, -1) translate(-421.000000, -289.427000) " cx="421" cy="289.427" r="5"></circle>
                <circle id="Oval-Copy-2060" fill="#2E75FE" transform="translate(436.000000, 296.427000) scale(1, -1) translate(-436.000000, -296.427000) " cx="436" cy="296.427" r="5"></circle>
                <circle id="Oval-Copy-2002" fill="#2E75FE" transform="translate(314.000000, 309.427000) scale(1, -1) translate(-314.000000, -309.427000) " cx="314" cy="309.427" r="5"></circle>
                <circle id="Oval-Copy-2037" fill="#2E75FE" transform="translate(331.000000, 249.427000) scale(1, -1) translate(-331.000000, -249.427000) " cx="331" cy="249.427" r="5"></circle>
                <circle id="Oval-Copy-2014" fill="#2E75FE" transform="translate(479.000000, 308.427000) scale(1, -1) translate(-479.000000, -308.427000) " cx="479" cy="308.427" r="5"></circle>
                <circle id="Oval-Copy-2017" fill="#2E75FE" transform="translate(452.000000, 308.427000) scale(1, -1) translate(-452.000000, -308.427000) " cx="452" cy="308.427" r="5"></circle>
                <circle id="Oval-Copy-1969" fill="#2E75FE" transform="translate(406.000000, 251.427000) scale(1, -1) translate(-406.000000, -251.427000) " cx="406" cy="251.427" r="5"></circle>
                <circle id="Oval-Copy-1987" fill="#2E75FE" transform="translate(500.000000, 299.427000) scale(1, -1) translate(-500.000000, -299.427000) " cx="500" cy="299.427" r="5"></circle>
                <circle id="Oval-Copy-1988" fill="#2E75FE" transform="translate(547.000000, 301.427000) scale(1, -1) translate(-547.000000, -301.427000) " cx="547" cy="301.427" r="5"></circle>
                <circle id="Oval-Copy-2022" fill="#2E75FE" transform="translate(317.000000, 250.427000) scale(1, -1) translate(-317.000000, -250.427000) " cx="317" cy="250.427" r="5"></circle>
                <circle id="Oval-Copy-2027" fill="#2E75FE" transform="translate(337.000000, 227.427000) scale(1, -1) translate(-337.000000, -227.427000) " cx="337" cy="227.427" r="5"></circle>
                <circle id="Oval-Copy-1999" fill="#2E75FE" transform="translate(515.000000, 301.427000) scale(1, -1) translate(-515.000000, -301.427000) " cx="515" cy="301.427" r="5"></circle>
                <circle id="Oval-Copy-2024" fill="#2E75FE" transform="translate(332.000000, 310.427000) scale(1, -1) translate(-332.000000, -310.427000) " cx="332" cy="310.427" r="5"></circle>
                <circle id="Oval-Copy-2028" fill="#2E75FE" transform="translate(327.000000, 242.427000) scale(1, -1) translate(-327.000000, -242.427000) " cx="327" cy="242.427" r="5"></circle>
                <circle id="Oval-Copy-2042" fill="#2E75FE" transform="translate(339.000000, 239.427000) scale(1, -1) translate(-339.000000, -239.427000) " cx="339" cy="239.427" r="5"></circle>
                <circle id="Oval-Copy-2021" fill="#2E75FE" transform="translate(330.000000, 176.427000) scale(1, -1) translate(-330.000000, -176.427000) " cx="330" cy="176.427" r="5"></circle>
                <circle id="Oval-Copy-2029" fill="#2E75FE" transform="translate(296.000000, 301.427000) scale(1, -1) translate(-296.000000, -301.427000) " cx="296" cy="301.427" r="5"></circle>
                <circle id="Oval-Copy-2044" fill="#2E75FE" transform="translate(334.000000, 283.427000) scale(1, -1) translate(-334.000000, -283.427000) " cx="334" cy="283.427" r="5"></circle>
                <circle id="Oval-Copy-2056" fill="#2E75FE" transform="translate(538.000000, 307.427000) scale(1, -1) translate(-538.000000, -307.427000) " cx="538" cy="307.427" r="5"></circle>
                <circle id="Oval-Copy-2074" fill="#2E75FE" transform="translate(524.000000, 300.427000) scale(1, -1) translate(-524.000000, -300.427000) " cx="524" cy="300.427" r="5"></circle>
                <circle id="Oval-Copy-2073" fill="#2E75FE" transform="translate(541.000000, 285.427000) scale(1, -1) translate(-541.000000, -285.427000) " cx="541" cy="285.427" r="5"></circle>
                <circle id="Oval-Copy-2058" fill="#2E75FE" transform="translate(317.000000, 275.427000) scale(1, -1) translate(-317.000000, -275.427000) " cx="317" cy="275.427" r="5"></circle>
                <circle id="Oval-Copy-2075" fill="#2E75FE" transform="translate(304.000000, 306.427000) scale(1, -1) translate(-304.000000, -306.427000) " cx="304" cy="306.427" r="5"></circle>
                <circle id="Oval-Copy-2043" fill="#2E75FE" transform="translate(426.000000, 268.427000) scale(1, -1) translate(-426.000000, -268.427000) " cx="426" cy="268.427" r="5"></circle>
                <circle id="Oval-Copy-2050" fill="#2E75FE" transform="translate(531.000000, 307.427000) scale(1, -1) translate(-531.000000, -307.427000) " cx="531" cy="307.427" r="5"></circle>
                <circle id="Oval-Copy-2054" fill="#2E75FE" transform="translate(534.000000, 295.427000) scale(1, -1) translate(-534.000000, -295.427000) " cx="534" cy="295.427" r="5"></circle>
                <circle id="Oval-Copy-2023" fill="#2E75FE" transform="translate(340.000000, 299.427000) scale(1, -1) translate(-340.000000, -299.427000) " cx="340" cy="299.427" r="5"></circle>
                <circle id="Oval-Copy-2030" fill="#2E75FE" transform="translate(340.000000, 280.427000) scale(1, -1) translate(-340.000000, -280.427000) " cx="340" cy="280.427" r="5"></circle>
                <circle id="Oval-Copy-1989" fill="#2E75FE" transform="translate(379.000000, 217.427000) scale(1, -1) translate(-379.000000, -217.427000) " cx="379" cy="217.427" r="5"></circle>
                <circle id="Oval-Copy-2025" fill="#2E75FE" transform="translate(539.000000, 261.427000) scale(1, -1) translate(-539.000000, -261.427000) " cx="539" cy="261.427" r="5"></circle>
                <circle id="Oval-Copy-2182" fill="#2E75FE" transform="translate(421.000000, 234.427000) scale(1, -1) translate(-421.000000, -234.427000) " cx="421" cy="234.427" r="5"></circle>
                <circle id="Oval-Copy-2151" fill="#2E75FE" transform="translate(482.000000, 301.427000) scale(1, -1) translate(-482.000000, -301.427000) " cx="482" cy="301.427" r="5"></circle>
                <circle id="Oval-Copy-2171" fill="#2E75FE" transform="translate(398.000000, 290.427000) scale(1, -1) translate(-398.000000, -290.427000) " cx="398" cy="290.427" r="5"></circle>
                <circle id="Oval-Copy-1982" fill="#2E75FE" transform="translate(323.000000, 235.427000) scale(1, -1) translate(-323.000000, -235.427000) " cx="323" cy="235.427" r="5"></circle>
                <circle id="Oval-Copy-1983" fill="#2E75FE" transform="translate(123.000000, 141.427000) scale(1, -1) translate(-123.000000, -141.427000) " cx="123" cy="141.427" r="5"></circle>
                <circle id="Oval-Copy-1981" fill="#2E75FE" transform="translate(315.000000, 263.427000) scale(1, -1) translate(-315.000000, -263.427000) " cx="315" cy="263.427" r="5"></circle>
                <circle id="Oval-Copy-1973" fill="#2E75FE" transform="translate(329.000000, 267.427000) scale(1, -1) translate(-329.000000, -267.427000) " cx="329" cy="267.427" r="5"></circle>
                <circle id="Oval-Copy-1965" fill="#2E75FE" transform="translate(414.000000, 244.427000) scale(1, -1) translate(-414.000000, -244.427000) " cx="414" cy="244.427" r="5"></circle>
                <circle id="Oval-Copy-1979" fill="#2E75FE" transform="translate(331.000000, 230.427000) scale(1, -1) translate(-331.000000, -230.427000) " cx="331" cy="230.427" r="5"></circle>
                <circle id="Oval-Copy-1972" fill="#2E75FE" transform="translate(118.000000, 158.427000) scale(1, -1) translate(-118.000000, -158.427000) " cx="118" cy="158.427" r="5"></circle>
                <circle id="Oval-Copy-1968" fill="#2E75FE" transform="translate(381.000000, 252.427000) scale(1, -1) translate(-381.000000, -252.427000) " cx="381" cy="252.427" r="5"></circle>
                <circle id="Oval-Copy-1970" fill="#2E75FE" transform="translate(385.000000, 307.427000) scale(1, -1) translate(-385.000000, -307.427000) " cx="385" cy="307.427" r="5"></circle>
                <circle id="Oval-Copy-1975" fill="#2E75FE" transform="translate(387.000000, 298.427000) scale(1, -1) translate(-387.000000, -298.427000) " cx="387" cy="298.427" r="5"></circle>
                <circle id="Oval-Copy-1986" fill="#2E75FE" transform="translate(411.000000, 308.427000) scale(1, -1) translate(-411.000000, -308.427000) " cx="411" cy="308.427" r="5"></circle>
                <circle id="Oval-Copy-2038" fill="#2E75FE" transform="translate(548.000000, 308.427000) scale(1, -1) translate(-548.000000, -308.427000) " cx="548" cy="308.427" r="5"></circle>
                <circle id="Oval-Copy-2039" fill="#2E75FE" transform="translate(395.000000, 301.427000) scale(1, -1) translate(-395.000000, -301.427000) " cx="395" cy="301.427" r="5"></circle>
                <circle id="Oval-Copy-1990" fill="#2E75FE" transform="translate(330.000000, 212.427000) scale(1, -1) translate(-330.000000, -212.427000) " cx="330" cy="212.427" r="5"></circle>
                <circle id="Oval-Copy-1993" fill="#2E75FE" transform="translate(482.000000, 263.427000) scale(1, -1) translate(-482.000000, -263.427000) " cx="482" cy="263.427" r="5"></circle>
                <circle id="Oval-Copy-1985" fill="#2E75FE" transform="translate(402.000000, 299.427000) scale(1, -1) translate(-402.000000, -299.427000) " cx="402" cy="299.427" r="5"></circle>
                <circle id="Oval-Copy-2181" fill="#2E75FE" transform="translate(418.000000, 304.427000) scale(1, -1) translate(-418.000000, -304.427000) " cx="418" cy="304.427" r="5"></circle>
                <circle id="Oval-Copy-2057" fill="#2E75FE" transform="translate(317.000000, 289.427000) scale(-1, -1) translate(-317.000000, -289.427000) " cx="317" cy="289.427" r="5"></circle>
                <circle id="Oval-Copy-2053" fill="#2E75FE" transform="translate(484.000000, 243.427000) scale(-1, -1) translate(-484.000000, -243.427000) " cx="484" cy="243.427" r="5"></circle>
                <circle id="Oval-Copy-2121" fill="#2E75FE" transform="translate(423.000000, 202.427000) scale(-1, -1) translate(-423.000000, -202.427000) " cx="423" cy="202.427" r="5"></circle>
                <circle id="Oval-Copy-2164" fill="#2E75FE" transform="translate(272.000000, 210.427000) scale(-1, -1) translate(-272.000000, -210.427000) " cx="272" cy="210.427" r="5"></circle>
                <circle id="Oval-Copy-2046" fill="#2E75FE" transform="translate(413.000000, 275.427000) scale(-1, -1) translate(-413.000000, -275.427000) " cx="413" cy="275.427" r="5"></circle>
                <circle id="Oval-Copy-2019" fill="#2E75FE" transform="translate(492.000000, 210.427000) scale(-1, -1) translate(-492.000000, -210.427000) " cx="492" cy="210.427" r="5"></circle>
                <circle id="Oval-Copy-2068" fill="#2E75FE" transform="translate(324.000000, 193.427000) scale(-1, -1) translate(-324.000000, -193.427000) " cx="324" cy="193.427" r="5"></circle>
                <circle id="Oval-Copy-1980" fill="#2E75FE" transform="translate(486.000000, 197.427000) scale(-1, -1) translate(-486.000000, -197.427000) " cx="486" cy="197.427" r="5"></circle>
                <circle id="Oval-Copy-2003" fill="#2E75FE" transform="translate(216.000000, 175.427000) scale(-1, -1) translate(-216.000000, -175.427000) " cx="216" cy="175.427" r="5"></circle>
                <circle id="Oval-Copy-2069" fill="#2E75FE" transform="translate(253.000000, 146.427000) scale(-1, -1) translate(-253.000000, -146.427000) " cx="253" cy="146.427" r="5"></circle>
                <circle id="Oval-Copy-1978" fill="#2E75FE" transform="translate(483.000000, 290.427000) scale(-1, -1) translate(-483.000000, -290.427000) " cx="483" cy="290.427" r="5"></circle>
                <circle id="Oval-Copy-2028" fill="#2E75FE" transform="translate(381.000000, 264.427000) scale(-1, -1) translate(-381.000000, -264.427000) " cx="381" cy="264.427" r="5"></circle>
                <circle id="Oval-Copy-2029" fill="#2E75FE" transform="translate(391.000000, 254.427000) scale(-1, -1) translate(-391.000000, -254.427000) " cx="391" cy="254.427" r="5"></circle>
                <circle id="Oval-Copy-2056" fill="#2E75FE" transform="translate(458.000000, 300.427000) scale(-1, -1) translate(-458.000000, -300.427000) " cx="458" cy="300.427" r="5"></circle>
                <circle id="Oval-Copy-2058" fill="#2E75FE" transform="translate(410.000000, 184.427000) scale(-1, -1) translate(-410.000000, -184.427000) " cx="410" cy="184.427" r="5"></circle>
                <circle id="Oval-Copy-2055" fill="#2E75FE" transform="translate(335.000000, 290.427000) scale(-1, -1) translate(-335.000000, -290.427000) " cx="335" cy="290.427" r="5"></circle>
                <circle id="Oval-Copy-2050" fill="#2E75FE" transform="translate(435.000000, 255.427000) scale(-1, -1) translate(-435.000000, -255.427000) " cx="435" cy="255.427" r="5"></circle>
                <circle id="Oval-Copy-2054" fill="#2E75FE" transform="translate(520.000000, 310.427000) scale(-1, -1) translate(-520.000000, -310.427000) " cx="520" cy="310.427" r="5"></circle>
                <circle id="Oval-Copy-2030" fill="#2E75FE" transform="translate(484.000000, 217.427000) scale(-1, -1) translate(-484.000000, -217.427000) " cx="484" cy="217.427" r="5"></circle>
                <circle id="Oval-Copy-2141" fill="#2E75FE" transform="translate(561.000000, 300.427000) scale(-1, -1) translate(-561.000000, -300.427000) " cx="561" cy="300.427" r="5"></circle>
                <circle id="Oval-Copy-2144" fill="#2E75FE" transform="translate(495.000000, 219.427000) scale(-1, -1) translate(-495.000000, -219.427000) " cx="495" cy="219.427" r="5"></circle>
                <circle id="Oval-Copy-2170" fill="#2E75FE" transform="translate(495.000000, 201.427000) scale(-1, -1) translate(-495.000000, -201.427000) " cx="495" cy="201.427" r="5"></circle>
                <circle id="Oval-Copy-2162" fill="#2E75FE" transform="translate(121.000000, 206.427000) scale(-1, -1) translate(-121.000000, -206.427000) " cx="121" cy="206.427" r="5"></circle>
                <circle id="Oval-Copy-2151" fill="#2E75FE" transform="translate(339.000000, 266.427000) scale(-1, -1) translate(-339.000000, -266.427000) " cx="339" cy="266.427" r="5"></circle>
                <circle id="Oval-Copy-2143" fill="#2E75FE" transform="translate(493.000000, 258.427000) scale(-1, -1) translate(-493.000000, -258.427000) " cx="493" cy="258.427" r="5"></circle>
                <circle id="Oval-Copy-2145" fill="#2E75FE" transform="translate(556.000000, 306.427000) scale(-1, -1) translate(-556.000000, -306.427000) " cx="556" cy="306.427" r="5"></circle>
                <circle id="Oval-Copy-2153" fill="#2E75FE" transform="translate(540.000000, 273.427000) scale(-1, -1) translate(-540.000000, -273.427000) " cx="540" cy="273.427" r="5"></circle>
                <circle id="Oval-Copy-2004" fill="#2E75FE" transform="translate(412.000000, 255.427000) scale(-1, -1) translate(-412.000000, -255.427000) " cx="412" cy="255.427" r="5"></circle>
                <circle id="Oval-Copy-2041" fill="#2E75FE" transform="translate(394.000000, 275.427000) scale(-1, -1) translate(-394.000000, -275.427000) " cx="394" cy="275.427" r="5"></circle>
                <circle id="Oval-Copy-2123" fill="#2E75FE" transform="translate(541.000000, 251.427000) scale(-1, -1) translate(-541.000000, -251.427000) " cx="541" cy="251.427" r="5"></circle>
                <circle id="Oval-Copy-2129" fill="#2E75FE" transform="translate(402.000000, 279.427000) scale(-1, -1) translate(-402.000000, -279.427000) " cx="402" cy="279.427" r="5"></circle>
                <circle id="Oval-Copy-2140" fill="#2E75FE" transform="translate(507.000000, 306.427000) scale(-1, -1) translate(-507.000000, -306.427000) " cx="507" cy="306.427" r="5"></circle>
                <circle id="Oval-Copy-2138" fill="#2E75FE" transform="translate(493.000000, 235.427000) scale(-1, -1) translate(-493.000000, -235.427000) " cx="493" cy="235.427" r="5"></circle>
                <circle id="Oval-Copy-2128" fill="#2E75FE" transform="translate(483.000000, 232.427000) scale(-1, -1) translate(-483.000000, -232.427000) " cx="483" cy="232.427" r="5"></circle>
                <circle id="Oval-Copy-2139" fill="#2E75FE" transform="translate(529.000000, 283.427000) scale(-1, -1) translate(-529.000000, -283.427000) " cx="529" cy="283.427" r="5"></circle>
                <circle id="Oval-Copy-2149" fill="#2E75FE" transform="translate(530.000000, 257.427000) scale(-1, -1) translate(-530.000000, -257.427000) " cx="530" cy="257.427" r="5"></circle>
                <circle id="Oval-Copy-2011" fill="#2E75FE" transform="translate(427.000000, 211.427000) scale(-1, -1) translate(-427.000000, -211.427000) " cx="427" cy="211.427" r="5"></circle>
                <circle id="Oval-Copy-2010" fill="#2E75FE" transform="translate(530.000000, 269.427000) scale(-1, -1) translate(-530.000000, -269.427000) " cx="530" cy="269.427" r="5"></circle>
                <circle id="Oval-Copy-1965" fill="#2E75FE" transform="translate(380.000000, 196.427000) scale(-1, -1) translate(-380.000000, -196.427000) " cx="380" cy="196.427" r="5"></circle>
                <circle id="Oval-Copy-1979" fill="#2E75FE" transform="translate(486.000000, 276.427000) scale(-1, -1) translate(-486.000000, -276.427000) " cx="486" cy="276.427" r="5"></circle>
                <circle id="Oval-Copy-1975" fill="#2E75FE" transform="translate(433.000000, 266.427000) scale(-1, -1) translate(-433.000000, -266.427000) " cx="433" cy="266.427" r="5"></circle>
                <circle id="Oval-Copy-2011" fill="#2E75FE" transform="translate(404.000000, 210.427000) scale(1, -1) translate(-404.000000, -210.427000) " cx="404" cy="210.427" r="5"></circle>
                <circle id="Oval-Copy-2059" fill="#2E75FE" transform="translate(411.000000, 200.427000) scale(1, -1) translate(-411.000000, -200.427000) " cx="411" cy="200.427" r="5"></circle>
                <circle id="Oval-Copy-1978" fill="#2E75FE" transform="translate(490.000000, 228.427000) scale(1, -1) translate(-490.000000, -228.427000) " cx="490" cy="228.427" r="5"></circle>
                <circle id="Oval-Copy-2051" fill="#2E75FE" transform="translate(53.000000, 149.427000) scale(1, -1) translate(-53.000000, -149.427000) " cx="53" cy="149.427" r="5"></circle>
                <circle id="Oval-Copy-2005" fill="#2E75FE" transform="translate(542.000000, 213.427000) scale(1, -1) translate(-542.000000, -213.427000) " cx="542" cy="213.427" r="5"></circle>
                <circle id="Oval-Copy-2170" fill="#2E75FE" transform="translate(61.000000, 138.427000) scale(1, -1) translate(-61.000000, -138.427000) " cx="61" cy="138.427" r="5"></circle>
                <circle id="Oval-Copy-2146" fill="#2E75FE" transform="translate(541.000000, 200.427000) scale(1, -1) translate(-541.000000, -200.427000) " cx="541" cy="200.427" r="5"></circle>
                <circle id="Oval-Copy-2166" fill="#2E75FE" transform="translate(540.000000, 225.427000) scale(1, -1) translate(-540.000000, -225.427000) " cx="540" cy="225.427" r="5"></circle>
                <circle id="Oval-Copy-2006" fill="#2E75FE" transform="translate(395.000000, 186.427000) scale(1, -1) translate(-395.000000, -186.427000) " cx="395" cy="186.427" r="5"></circle>
                <circle id="Oval-Copy-2147" fill="#2E75FE" transform="translate(533.000000, 243.427000) scale(1, -1) translate(-533.000000, -243.427000) " cx="533" cy="243.427" r="5"></circle>
                <circle id="Oval-Copy-2128" fill="#2E75FE" transform="translate(411.000000, 219.427000) scale(1, -1) translate(-411.000000, -219.427000) " cx="411" cy="219.427" r="5"></circle>
                <circle id="Oval-Copy-2154" fill="#2E75FE" transform="translate(529.000000, 231.427000) scale(1, -1) translate(-529.000000, -231.427000) " cx="529" cy="231.427" r="5"></circle>
                <circle id="Oval-Copy-2139" fill="#2E75FE" transform="translate(541.000000, 236.427000) scale(1, -1) translate(-541.000000, -236.427000) " cx="541" cy="236.427" r="5"></circle>
                <circle id="Oval-Copy-2008" fill="#2E75FE" transform="translate(532.000000, 205.427000) scale(1, -1) translate(-532.000000, -205.427000) " cx="532" cy="205.427" r="5"></circle>
                <circle id="Oval-Copy-2034" fill="#2E75FE" transform="translate(323.000000, 212.427000) scale(1, -1) translate(-323.000000, -212.427000) " cx="323" cy="212.427" r="5"></circle>
                <circle id="Oval-Copy-2134" fill="#2E75FE" transform="translate(532.000000, 217.427000) scale(-1, -1) translate(-532.000000, -217.427000) " cx="532" cy="217.427" r="5"></circle>
                <circle id="Oval-Copy-2036" fill="#2E75FE" transform="translate(403.000000, 253.427000) scale(-1, -1) translate(-403.000000, -253.427000) " cx="403" cy="253.427" r="5"></circle>
                <circle id="Oval-Copy-2047" fill="#2E75FE" transform="translate(390.000000, 232.427000) scale(-1, -1) translate(-390.000000, -232.427000) " cx="390" cy="232.427" r="5"></circle>
                <circle id="Oval-Copy-2016" fill="#2E75FE" transform="translate(390.000000, 243.427000) scale(-1, -1) translate(-390.000000, -243.427000) " cx="390" cy="243.427" r="5"></circle>
                <circle id="Oval-Copy-2018" fill="#2E75FE" transform="translate(417.000000, 191.427000) scale(-1, -1) translate(-417.000000, -191.427000) " cx="417" cy="191.427" r="5"></circle>
                <circle id="Oval-Copy-2074" fill="#2E75FE" transform="translate(418.000000, 264.427000) scale(-1, -1) translate(-418.000000, -264.427000) " cx="418" cy="264.427" r="5"></circle>
                <circle id="Oval-Copy-2165" fill="#2E75FE" transform="translate(494.000000, 189.427000) scale(-1, -1) translate(-494.000000, -189.427000) " cx="494" cy="189.427" r="5"></circle>
                <circle id="Oval-Copy-2175" fill="#2E75FE" transform="translate(45.000000, 135.427000) scale(1, -1) translate(-45.000000, -135.427000) " cx="45" cy="135.427" r="5"></circle>
                <circle id="Oval-Copy-2142" fill="#2E75FE" transform="translate(416.000000, 211.427000) scale(1, -1) translate(-416.000000, -211.427000) " cx="416" cy="211.427" r="5"></circle>
                <circle id="Oval-Copy-2064" fill="#2E75FE" transform="translate(432.000000, 285.427000) scale(1, -1) translate(-432.000000, -285.427000) " cx="432" cy="285.427" r="5"></circle>
                <circle id="Oval-Copy-2052" fill="#2E75FE" transform="translate(376.000000, 298.427000) scale(1, -1) translate(-376.000000, -298.427000) " cx="376" cy="298.427" r="5"></circle>
                <circle id="Oval-Copy-2165" fill="#2E75FE" transform="translate(434.000000, 277.427000) scale(1, -1) translate(-434.000000, -277.427000) " cx="434" cy="277.427" r="5"></circle>
                <circle id="Oval-Copy-1992" fill="#2E75FE" transform="translate(482.000000, 201.427000) scale(1, -1) translate(-482.000000, -201.427000) " cx="482" cy="201.427" r="5"></circle>
                <circle id="Oval-Copy-2141" fill="#2E75FE" transform="translate(394.000000, 209.427000) scale(1, -1) translate(-394.000000, -209.427000) " cx="394" cy="209.427" r="5"></circle>
                <circle id="Oval-Copy-2144" fill="#2E75FE" transform="translate(389.000000, 194.427000) scale(1, -1) translate(-389.000000, -194.427000) " cx="389" cy="194.427" r="5"></circle>
                <circle id="Oval-Copy-2152" fill="#2E75FE" transform="translate(358.000000, 307.427000) scale(1, -1) translate(-358.000000, -307.427000) " cx="358" cy="307.427" r="5"></circle>
                <circle id="Oval-Copy-2162" fill="#2E75FE" transform="translate(422.000000, 245.427000) scale(1, -1) translate(-422.000000, -245.427000) " cx="422" cy="245.427" r="5"></circle>
                <circle id="Oval-Copy-2161" fill="#2E75FE" transform="translate(404.000000, 193.427000) scale(1, -1) translate(-404.000000, -193.427000) " cx="404" cy="193.427" r="5"></circle>
                <circle id="Oval-Copy-2130" fill="#2E75FE" transform="translate(418.000000, 225.427000) scale(1, -1) translate(-418.000000, -225.427000) " cx="418" cy="225.427" r="5"></circle>
                <circle id="Oval-Copy-1995" fill="#2E75FE" transform="translate(421.000000, 278.427000) scale(1, -1) translate(-421.000000, -278.427000) " cx="421" cy="278.427" r="5"></circle>
                <circle id="Oval-Copy-2004" fill="#2E75FE" transform="translate(431.000000, 234.427000) scale(1, -1) translate(-431.000000, -234.427000) " cx="431" cy="234.427" r="5"></circle>
                <circle id="Oval-Copy-2041" fill="#2E75FE" transform="translate(215.000000, 147.427000) scale(1, -1) translate(-215.000000, -147.427000) " cx="215" cy="147.427" r="5"></circle>
                <circle id="Oval-Copy-2140" fill="#2E75FE" transform="translate(398.000000, 202.427000) scale(1, -1) translate(-398.000000, -202.427000) " cx="398" cy="202.427" r="5"></circle>
                <circle id="Oval-Copy-2131" fill="#2E75FE" transform="translate(393.000000, 288.427000) scale(1, -1) translate(-393.000000, -288.427000) " cx="393" cy="288.427" r="5"></circle>
                <circle id="Oval-Copy-2133" fill="#2E75FE" transform="translate(399.000000, 229.427000) scale(1, -1) translate(-399.000000, -229.427000) " cx="399" cy="229.427" r="5"></circle>
                <circle id="Oval-Copy-2180" fill="#2E75FE" transform="translate(387.000000, 276.427000) scale(1, -1) translate(-387.000000, -276.427000) " cx="387" cy="276.427" r="5"></circle>
                <circle id="Oval-Copy-2157" fill="#2E75FE" transform="translate(383.000000, 207.427000) scale(1, -1) translate(-383.000000, -207.427000) " cx="383" cy="207.427" r="5"></circle>
                <circle id="Oval-Copy-2177" fill="#2E75FE" transform="translate(405.000000, 267.427000) scale(1, -1) translate(-405.000000, -267.427000) " cx="405" cy="267.427" r="5"></circle>
                <circle id="Oval-Copy-2176" fill="#2E75FE" transform="translate(394.000000, 266.427000) scale(1, -1) translate(-394.000000, -266.427000) " cx="394" cy="266.427" r="5"></circle>
                <circle id="Oval-Copy-2132" fill="#2E75FE" transform="translate(410.000000, 231.427000) scale(1, -1) translate(-410.000000, -231.427000) " cx="410" cy="231.427" r="5"></circle>
                <circle id="Oval-Copy-2159" fill="#2E75FE" transform="translate(428.000000, 222.427000) scale(1, -1) translate(-428.000000, -222.427000) " cx="428" cy="222.427" r="5"></circle>
                <circle id="Oval-Copy-2127" fill="#2E75FE" transform="translate(399.000000, 218.427000) scale(1, -1) translate(-399.000000, -218.427000) " cx="399" cy="218.427" r="5"></circle>
                <circle id="Oval-Copy-2012" fill="#2E75FE" transform="translate(378.000000, 276.427000) scale(1, -1) translate(-378.000000, -276.427000) " cx="378" cy="276.427" r="5"></circle>
                <circle id="Oval-Copy-2010" fill="#2E75FE" transform="translate(433.000000, 244.427000) scale(1, -1) translate(-433.000000, -244.427000) " cx="433" cy="244.427" r="5"></circle>
                <circle id="Oval-Copy-1984" fill="#2E75FE" transform="translate(409.000000, 286.427000) scale(1, -1) translate(-409.000000, -286.427000) " cx="409" cy="286.427" r="5"></circle>
                <circle id="Oval-Copy-1996" fill="#2E75FE" transform="translate(483.000000, 189.427000) scale(1, -1) translate(-483.000000, -189.427000) " cx="483" cy="189.427" r="5"></circle>
                <circle id="Oval-Copy-1997" fill="#2E75FE" transform="translate(382.000000, 239.427000) scale(1, -1) translate(-382.000000, -239.427000) " cx="382" cy="239.427" r="5"></circle>
                <circle id="Oval-Copy-2007" fill="#2E75FE" transform="translate(382.000000, 287.427000) scale(1, -1) translate(-382.000000, -287.427000) " cx="382" cy="287.427" r="5"></circle>
                <circle id="Oval-Copy-2126" fill="#2E75FE" transform="translate(158.000000, 186.427000) scale(-1, -1) translate(-158.000000, -186.427000) " cx="158" cy="186.427" r="5"></circle>
                <circle id="Oval-Copy-2156" fill="#2E75FE" transform="translate(382.000000, 228.427000) scale(-1, -1) translate(-382.000000, -228.427000) " cx="382" cy="228.427" r="5"></circle>
                <circle id="Oval-Copy-2148" fill="#2E75FE" transform="translate(424.000000, 255.427000) scale(-1, -1) translate(-424.000000, -255.427000) " cx="424" cy="255.427" r="5"></circle>
                <circle id="Oval-Copy-2124" fill="#2E75FE" transform="translate(389.000000, 219.427000) scale(-1, -1) translate(-389.000000, -219.427000) " cx="389" cy="219.427" r="5"></circle>
                <circle id="Oval-Copy-584" fill="#FBA55F" cx="331.265704" cy="155.977107" r="4.69083156"></circle>
                <circle id="Oval-Copy-697" fill="#FBA55F" cx="530.88404" cy="194.03894" r="4.69083156"></circle>
                <circle id="Oval-Copy-278" fill="#FBA55F" cx="495.730522" cy="161.53361" r="4.69083156"></circle>
                <circle id="Oval-Copy-699" fill="#FBA55F" cx="401.007708" cy="178.842778" r="4.69083156"></circle>
                <circle id="Oval-Copy-280" fill="#FBA55F" cx="324.370181" cy="143.471776" r="4.69083156"></circle>
                <circle id="Oval-Copy-281" fill="#FBA55F" cx="322.061013" cy="152.399281" r="4.69083156"></circle>
                <circle id="Oval-Copy-283" fill="#FBA55F" cx="399.442676" cy="167.162608" r="4.69083156"></circle>
                <circle id="Oval-Copy-284" fill="#FBA55F" cx="379.061013" cy="163.162608" r="4.69083156"></circle>
                <circle id="Oval-Copy-285" fill="#FBA55F" cx="481.690011" cy="168.842778" r="4.69083156"></circle>
                <circle id="Oval-Copy-287" fill="#FBA55F" cx="389.700672" cy="159.162608" r="4.69083156"></circle>
                <circle id="Oval-Copy-288" fill="#FBA55F" cx="491.00984" cy="164.780945" r="4.69083156"></circle>
                <circle id="Oval-Copy-298" fill="#FBA55F" cx="380.472527" cy="175.348109" r="4.69083156"></circle>
                <circle id="Oval-Copy-700" fill="#FBA55F" cx="321.749712" cy="172.657277" r="4.69083156"></circle>
                <circle id="Oval-Copy-701" fill="#FBA55F" cx="493.316876" cy="183.584783" r="4.69083156"></circle>
                <circle id="Oval-Copy-300" fill="#FBA55F" cx="380.400032" cy="152.162608" r="4.69083156"></circle>
                <circle id="Oval-Copy-703" fill="#FBA55F" cx="389.677217" cy="170.471776" r="4.69083156"></circle>
                <circle id="Oval-Copy-585" fill="#FBA55F" cx="410.389371" cy="175.595443" r="4.69083156"></circle>
                <circle id="Oval-Copy-595" fill="#FBA55F" cx="387.389371" cy="179.646616" r="4.69083156"></circle>
                <circle id="Oval-Copy-301" fill="#FBA55F" cx="529.276365" cy="181.275614" r="4.69083156"></circle>
                <circle id="Oval-Copy-706" fill="#FBA55F" cx="380.55355" cy="185.584783" r="4.69083156"></circle>
                <circle id="Oval-Copy-596" fill="#FBA55F" cx="493.276365" cy="173.326787" r="4.69083156"></circle>
                <circle id="Oval-Copy-597" fill="#FBA55F" cx="484.265704" cy="178.759623" r="4.69083156"></circle>
                <circle id="Oval-Copy-614" fill="#FBA55F" transform="translate(321.721994, 162.708450) scale(-1, -1) translate(-321.721994, -162.708450) " cx="321.721994" cy="162.70845" r="4.69083156"></circle>
                <circle id="Oval-Copy-616" fill="#FBA55F" transform="translate(539.412825, 190.141286) scale(-1, -1) translate(-539.412825, -190.141286) " cx="539.412825" cy="190.141286" r="4.69083156"></circle>
                <circle id="Oval-Copy-618" fill="#FBA55F" transform="translate(330.918156, 164.450454) scale(-1, -1) translate(-330.918156, -164.450454) " cx="330.918156" cy="164.450454" r="4.69083156"></circle>
            </g>
        </g>
    </g>
</svg>