<svg xmlns="http://www.w3.org/2000/svg" viewBox="0 0 453 418">
  <g fill="none" fill-rule="evenodd">
    <g transform="translate(5 2.312)">
      <circle fill="#FBA55F" cx="111.61" cy="200.564" r="4.916"/>
      <circle fill="#FBA55F" cx="103.442" cy="194.597" r="4.916"/>
      <circle fill="#FBA55F" cx="165.358" cy="189.832" r="4.916"/>
      <circle fill="#FBA55F" cx="190.358" cy="182.118" r="4.916"/>
      <circle fill="#FBA55F" cx="173.61" cy="195.799" r="4.916"/>
      <circle fill="#FBA55F" cx="171.61" cy="180.067" r="4.916"/>
      <circle fill="#FBA55F" cx="152.257" cy="195.698" r="4.916"/>
      <circle fill="#FBA55F" cx="202.257" cy="189.966" r="4.916"/>
      <circle fill="#FBA55F" cx="300.089" cy="179.95" r="4.916"/>
      <circle fill="#FBA55F" cx="122.089" cy="206.866" r="4.916"/>
      <circle fill="#FBA55F" cx="117.089" cy="190.151" r="4.916"/>
      <circle fill="#FBA55F" cx="83.996" cy="200.564" r="4.916"/>
      <circle fill="#FBA55F" cx="159.878" cy="200.799" r="4.916"/>
      <circle fill="#FBA55F" cx="159.878" cy="182.084" r="4.916"/>
      <circle fill="#FBA55F" cx="214.499" cy="178.899" r="4.916"/>
      <circle fill="#FBA55F" cx="140.214" cy="200.799" r="4.916"/>
      <circle fill="#FBA55F" cx="145.214" cy="187.084" r="4.916"/>
      <circle fill="#FBA55F" cx="226.466" cy="186.916" r="4.916"/>
      <circle fill="#FBA55F" cx="314.466" cy="164.201" r="4.916"/>
      <circle fill="#FBA55F" transform="rotate(180 237.706 185.832)" cx="237.706" cy="185.832" r="4.916"/>
      <circle fill="#FBA55F" transform="rotate(180 245.706 171.118)" cx="245.706" cy="171.118" r="4.916"/>
      <circle fill="#FBA55F" transform="rotate(180 217.286 197.118)" cx="217.286" cy="197.118" r="4.916"/>
      <circle fill="#FBA55F" transform="rotate(180 255.706 175.681)" cx="255.706" cy="175.681" r="4.916"/>
      <circle fill="#FBA55F" transform="rotate(180 233.706 173.95)" cx="233.706" cy="173.95" r="4.916"/>
      <circle fill="#FBA55F" transform="rotate(180 264.252 188.681)" cx="264.252" cy="188.681" r="4.916"/>
      <circle fill="#FBA55F" transform="rotate(180 213.109 188.118)" cx="213.109" cy="188.118" r="4.916"/>
      <circle fill="#FBA55F" transform="rotate(180 206.142 200.916)" cx="206.142" cy="200.916" r="4.916"/>
      <circle fill="#FBA55F" transform="rotate(180 200.394 175.647)" cx="200.394" cy="175.647" r="4.916"/>
      <circle fill="#FBA55F" transform="rotate(180 193.579 192.597)" cx="193.579" cy="192.597" r="4.916"/>
      <circle fill="#FBA55F" transform="rotate(180 181.746 175.681)" cx="181.746" cy="175.681" r="4.916"/>
      <circle fill="#FBA55F" transform="rotate(180 249.914 182.647)" cx="249.914" cy="182.647" r="4.916"/>
      <circle fill="#FBA55F" transform="rotate(180 289.663 176.564)" cx="289.663" cy="176.564" r="4.916"/>
      <circle fill="#FBA55F" transform="rotate(180 97.233 202.647)" cx="97.233" cy="202.647" r="4.916"/>
      <circle fill="#FBA55F" transform="rotate(180 130.854 199.916)" cx="130.854" cy="199.916" r="4.916"/>
      <circle fill="#FBA55F" transform="rotate(180 290.888 188.832)" cx="290.888" cy="188.832" r="4.916"/>
      <circle fill="#FBA55F" transform="rotate(180 128.888 190.118)" cx="128.888" cy="190.118" r="4.916"/>
      <circle fill="#FBA55F" transform="rotate(180 270.636 176.084)" cx="270.636" cy="176.084" r="4.916"/>
      <circle fill="#FBA55F" transform="rotate(180 182.401 189.034)" cx="182.401" cy="189.034" r="4.916"/>
      <circle fill="#FBA55F" transform="rotate(180 276.998 185.832)" cx="276.998" cy="185.832" r="4.916"/>
      <circle fill="#FBA55F" transform="rotate(180 279.639 168.597)" cx="279.639" cy="168.597" r="4.916"/>
      <circle fill="#FBA55F" transform="rotate(180 307.276 172.034)" cx="307.276" cy="172.034" r="4.916"/>
      <circle fill="#FBA55F" transform="rotate(180 301.874 163.832)" cx="301.874" cy="163.832" r="4.916"/>
      <circle fill="#FBA55F" transform="rotate(180 264.874 167.118)" cx="264.874" cy="167.118" r="4.916"/>
      <circle fill="#FBA55F" transform="rotate(180 291.353 165.118)" cx="291.353" cy="165.118" r="4.916"/>
      <circle fill="#2E75FE" transform="rotate(180 84 371.688)" cx="84" cy="371.688" r="5"/>
      <circle fill="#2E75FE" transform="rotate(180 56 388.688)" cx="56" cy="388.688" r="5"/>
      <circle fill="#2E75FE" transform="rotate(180 46 396.688)" cx="46" cy="396.688" r="5"/>
      <circle fill="#2E75FE" transform="rotate(180 167 228.688)" cx="167" cy="228.688" r="5"/>
      <circle fill="#2E75FE" transform="rotate(180 267 205.688)" cx="267" cy="205.688" r="5"/>
      <circle fill="#2E75FE" transform="rotate(180 150 299.688)" cx="150" cy="299.688" r="5"/>
      <circle fill="#2E75FE" transform="rotate(180 162 271.688)" cx="162" cy="271.688" r="5"/>
      <circle fill="#2E75FE" transform="rotate(180 97 358.688)" cx="97" cy="358.688" r="5"/>
      <circle fill="#2E75FE" transform="rotate(180 243 259.688)" cx="243" cy="259.688" r="5"/>
      <circle fill="#2E75FE" transform="rotate(180 273 268.688)" cx="273" cy="268.688" r="5"/>
      <circle fill="#2E75FE" transform="rotate(180 147 241.688)" cx="147" cy="241.688" r="5"/>
      <circle fill="#2E75FE" transform="rotate(180 151 276.688)" cx="151" cy="276.688" r="5"/>
      <circle fill="#2E75FE" transform="rotate(180 168 254.688)" cx="168" cy="254.688" r="5"/>
      <circle fill="#2E75FE" transform="rotate(180 216 231.688)" cx="216" cy="231.688" r="5"/>
      <circle fill="#2E75FE" transform="rotate(180 200 339.688)" cx="200" cy="339.688" r="5"/>
      <circle fill="#2E75FE" transform="rotate(180 275 233.688)" cx="275" cy="233.688" r="5"/>
      <circle fill="#2E75FE" transform="rotate(180 254 250.688)" cx="254" cy="250.688" r="5"/>
      <circle fill="#2E75FE" transform="rotate(180 240 240.688)" cx="240" cy="240.688" r="5"/>
      <circle fill="#2E75FE" transform="rotate(180 163 212.688)" cx="163" cy="212.688" r="5"/>
      <circle fill="#2E75FE" transform="rotate(180 238 313.688)" cx="238" cy="313.688" r="5"/>
      <circle fill="#2E75FE" transform="rotate(180 247 223.688)" cx="247" cy="223.688" r="5"/>
      <circle fill="#2E75FE" transform="rotate(180 193 295.688)" cx="193" cy="295.688" r="5"/>
      <circle fill="#2E75FE" transform="rotate(180 197 231.688)" cx="197" cy="231.688" r="5"/>
      <circle fill="#2E75FE" transform="rotate(180 216 352.688)" cx="216" cy="352.688" r="5"/>
      <circle fill="#2E75FE" transform="rotate(180 171 286.688)" cx="171" cy="286.688" r="5"/>
      <circle fill="#2E75FE" transform="rotate(180 280 303.688)" cx="280" cy="303.688" r="5"/>
      <circle fill="#2E75FE" transform="rotate(180 215 262.688)" cx="215" cy="262.688" r="5"/>
      <circle fill="#2E75FE" transform="rotate(180 91 384.688)" cx="91" cy="384.688" r="5"/>
      <circle fill="#2E75FE" transform="rotate(180 258 284.688)" cx="258" cy="284.688" r="5"/>
      <circle fill="#2E75FE" transform="rotate(180 196 242.688)" cx="196" cy="242.688" r="5"/>
      <circle fill="#2E75FE" transform="rotate(180 152 219.688)" cx="152" cy="219.688" r="5"/>
      <circle fill="#2E75FE" transform="rotate(180 194 268.688)" cx="194" cy="268.688" r="5"/>
      <circle fill="#2E75FE" transform="rotate(180 249 293.688)" cx="249" cy="293.688" r="5"/>
      <circle fill="#2E75FE" transform="rotate(180 240 302.688)" cx="240" cy="302.688" r="5"/>
      <circle fill="#2E75FE" transform="rotate(180 175 379.688)" cx="175" cy="379.688" r="5"/>
      <circle fill="#2E75FE" transform="rotate(180 186 343.688)" cx="186" cy="343.688" r="5"/>
      <circle fill="#2E75FE" transform="rotate(180 134 212.688)" cx="134" cy="212.688" r="5"/>
      <circle fill="#2E75FE" transform="rotate(180 176 206.688)" cx="176" cy="206.688" r="5"/>
      <circle fill="#2E75FE" transform="rotate(180 231 198.688)" cx="231" cy="198.688" r="5"/>
      <circle fill="#2E75FE" transform="rotate(180 254 234.688)" cx="254" cy="234.688" r="5"/>
      <circle fill="#2E75FE" transform="rotate(180 236 330.688)" cx="236" cy="330.688" r="5"/>
      <circle fill="#2E75FE" transform="rotate(180 160 320.688)" cx="160" cy="320.688" r="5"/>
      <circle fill="#2E75FE" transform="rotate(180 252 195.688)" cx="252" cy="195.688" r="5"/>
      <circle fill="#2E75FE" transform="rotate(180 246 209.688)" cx="246" cy="209.688" r="5"/>
      <circle fill="#2E75FE" transform="rotate(180 290 315.688)" cx="290" cy="315.688" r="5"/>
      <circle fill="#2E75FE" transform="rotate(180 265 260.688)" cx="265" cy="260.688" r="5"/>
      <circle fill="#2E75FE" transform="rotate(180 226 298.688)" cx="226" cy="298.688" r="5"/>
      <circle fill="#2E75FE" transform="rotate(180 234 343.688)" cx="234" cy="343.688" r="5"/>
      <circle fill="#2E75FE" transform="rotate(180 222 282.688)" cx="222" cy="282.688" r="5"/>
      <circle fill="#2E75FE" transform="rotate(180 280 256.688)" cx="280" cy="256.688" r="5"/>
      <circle fill="#2E75FE" transform="rotate(180 175 265.688)" cx="175" cy="265.688" r="5"/>
      <circle fill="#2E75FE" transform="rotate(180 204 365.688)" cx="204" cy="365.688" r="5"/>
      <circle fill="#2E75FE" transform="rotate(180 256 341.688)" cx="256" cy="341.688" r="5"/>
      <circle fill="#2E75FE" transform="rotate(180 157 308.688)" cx="157" cy="308.688" r="5"/>
      <circle fill="#2E75FE" transform="rotate(180 206 278.688)" cx="206" cy="278.688" r="5"/>
      <circle fill="#2E75FE" transform="rotate(180 231 230.688)" cx="231" cy="230.688" r="5"/>
      <circle fill="#2E75FE" transform="rotate(180 174 318.688)" cx="174" cy="318.688" r="5"/>
      <circle fill="#2E75FE" transform="rotate(180 204 307.688)" cx="204" cy="307.688" r="5"/>
      <circle fill="#2E75FE" transform="rotate(180 204 246.688)" cx="204" cy="246.688" r="5"/>
      <circle fill="#2E75FE" transform="rotate(180 261 315.688)" cx="261" cy="315.688" r="5"/>
      <circle fill="#2E75FE" transform="rotate(180 226 249.688)" cx="226" cy="249.688" r="5"/>
      <circle fill="#2E75FE" transform="rotate(180 150 313.688)" cx="150" cy="313.688" r="5"/>
      <circle fill="#2E75FE" transform="rotate(180 223 309.688)" cx="223" cy="309.688" r="5"/>
      <circle fill="#2E75FE" transform="rotate(180 266 239.688)" cx="266" cy="239.688" r="5"/>
      <circle fill="#2E75FE" transform="rotate(180 175 239.688)" cx="175" cy="239.688" r="5"/>
      <circle fill="#2E75FE" transform="rotate(180 208 226.688)" cx="208" cy="226.688" r="5"/>
      <circle fill="#2E75FE" transform="rotate(180 188 309.688)" cx="188" cy="309.688" r="5"/>
      <circle fill="#2E75FE" transform="rotate(180 160 243.688)" cx="160" cy="243.688" r="5"/>
      <circle fill="#2E75FE" transform="rotate(180 216 291.688)" cx="216" cy="291.688" r="5"/>
      <circle fill="#2E75FE" transform="rotate(180 260 273.688)" cx="260" cy="273.688" r="5"/>
      <circle fill="#2E75FE" transform="rotate(180 147 289.688)" cx="147" cy="289.688" r="5"/>
      <circle fill="#2E75FE" transform="rotate(180 274 279.688)" cx="274" cy="279.688" r="5"/>
      <circle fill="#2E75FE" transform="rotate(180 179 332.688)" cx="179" cy="332.688" r="5"/>
      <circle fill="#2E75FE" transform="rotate(180 188 249.688)" cx="188" cy="249.688" r="5"/>
      <circle fill="#2E75FE" transform="rotate(180 156 261.688)" cx="156" cy="261.688" r="5"/>
      <circle fill="#2E75FE" transform="rotate(180 247 326.688)" cx="247" cy="326.688" r="5"/>
      <circle fill="#2E75FE" transform="rotate(180 268 328.688)" cx="268" cy="328.688" r="5"/>
      <circle fill="#2E75FE" transform="rotate(180 227 371.688)" cx="227" cy="371.688" r="5"/>
      <circle fill="#2E75FE" transform="rotate(180 277 317.688)" cx="277" cy="317.688" r="5"/>
      <circle fill="#2E75FE" transform="rotate(180 234 291.688)" cx="234" cy="291.688" r="5"/>
      <circle fill="#2E75FE" transform="rotate(180 277 209.688)" cx="277" cy="209.688" r="5"/>
      <circle fill="#2E75FE" transform="rotate(180 251 351.688)" cx="251" cy="351.688" r="5"/>
      <circle fill="#2E75FE" transform="rotate(180 245 269.688)" cx="245" cy="269.688" r="5"/>
      <circle fill="#2E75FE" transform="rotate(180 185 382.688)" cx="185" cy="382.688" r="5"/>
      <circle fill="#2E75FE" transform="rotate(180 280 197.688)" cx="280" cy="197.688" r="5"/>
      <circle fill="#2E75FE" transform="rotate(180 201 215.688)" cx="201" cy="215.688" r="5"/>
      <circle fill="#2E75FE" transform="rotate(180 187 279.688)" cx="187" cy="279.688" r="5"/>
      <circle fill="#2E75FE" transform="rotate(180 269 305.688)" cx="269" cy="305.688" r="5"/>
      <circle fill="#2E75FE" transform="rotate(180 148 207.688)" cx="148" cy="207.688" r="5"/>
      <circle fill="#2E75FE" transform="rotate(180 271 221.688)" cx="271" cy="221.688" r="5"/>
      <circle fill="#2E75FE" transform="rotate(180 100 373.688)" cx="100" cy="373.688" r="5"/>
      <circle fill="#2E75FE" transform="rotate(180 215 212.688)" cx="215" cy="212.688" r="5"/>
      <circle fill="#2E75FE" transform="rotate(180 117 388.688)" cx="117" cy="388.688" r="5"/>
      <circle fill="#2E75FE" transform="rotate(180 115 358.688)" cx="115" cy="358.688" r="5"/>
      <circle fill="#2E75FE" transform="rotate(180 138 376.688)" cx="138" cy="376.688" r="5"/>
      <circle fill="#2E75FE" transform="rotate(180 140 224.688)" cx="140" cy="224.688" r="5"/>
      <circle fill="#2E75FE" transform="rotate(180 155 231.688)" cx="155" cy="231.688" r="5"/>
      <circle fill="#2E75FE" transform="rotate(180 227 324.688)" cx="227" cy="324.688" r="5"/>
      <circle fill="#2E75FE" transform="rotate(180 250 338.688)" cx="250" cy="338.688" r="5"/>
      <circle fill="#2E75FE" transform="rotate(180 231 270.688)" cx="231" cy="270.688" r="5"/>
      <circle fill="#2E75FE" transform="rotate(180 193 202.688)" cx="193" cy="202.688" r="5"/>
      <circle fill="#2E75FE" transform="rotate(180 164 301.688)" cx="164" cy="301.688" r="5"/>
      <circle fill="#2E75FE" transform="rotate(180 198 316.688)" cx="198" cy="316.688" r="5"/>
      <circle fill="#2E75FE" transform="rotate(180 217 383.688)" cx="217" cy="383.688" r="5"/>
      <circle fill="#2E75FE" transform="rotate(180 178 353.688)" cx="178" cy="353.688" r="5"/>
      <circle fill="#2E75FE" transform="rotate(180 157 367.688)" cx="157" cy="367.688" r="5"/>
      <circle fill="#2E75FE" transform="rotate(180 123 370.688)" cx="123" cy="370.688" r="5"/>
      <circle fill="#2E75FE" transform="rotate(180 263 382.688)" cx="263" cy="382.688" r="5"/>
      <circle fill="#2E75FE" transform="rotate(180 272 342.688)" cx="272" cy="342.688" r="5"/>
      <circle fill="#2E75FE" transform="rotate(180 285 325.688)" cx="285" cy="325.688" r="5"/>
      <circle fill="#2E75FE" transform="rotate(180 277 290.688)" cx="277" cy="290.688" r="5"/>
      <circle fill="#2E75FE" transform="matrix(1 0 0 -1 0 545.376)" cx="220" cy="272.688" r="5"/>
      <circle fill="#2E75FE" transform="matrix(1 0 0 -1 0 803.376)" cx="13" cy="401.688" r="5"/>
      <circle fill="#2E75FE" transform="matrix(1 0 0 -1 0 489.376)" cx="278" cy="244.688" r="5"/>
      <circle fill="#2E75FE" transform="matrix(1 0 0 -1 0 729.376)" cx="132" cy="364.688" r="5"/>
      <circle fill="#2E75FE" transform="matrix(1 0 0 -1 0 519.376)" cx="202" cy="259.688" r="5"/>
      <circle fill="#2E75FE" transform="matrix(1 0 0 -1 0 699.376)" cx="228" cy="349.688" r="5"/>
      <circle fill="#2E75FE" transform="matrix(1 0 0 -1 0 781.376)" cx="101" cy="390.688" r="5"/>
      <circle fill="#2E75FE" transform="matrix(1 0 0 -1 0 445.376)" cx="237" cy="222.688" r="5"/>
      <circle fill="#2E75FE" transform="matrix(1 0 0 -1 0 759.376)" cx="208" cy="379.688" r="5"/>
      <circle fill="#2E75FE" transform="matrix(1 0 0 -1 0 705.376)" cx="243" cy="352.688" r="5"/>
      <circle fill="#2E75FE" transform="matrix(1 0 0 -1 0 725.376)" cx="271" cy="362.688" r="5"/>
      <circle fill="#2E75FE" transform="matrix(1 0 0 -1 0 643.376)" cx="209" cy="321.688" r="5"/>
      <circle fill="#2E75FE" transform="matrix(1 0 0 -1 0 741.376)" cx="259" cy="370.688" r="5"/>
      <circle fill="#2E75FE" transform="matrix(1 0 0 -1 0 717.376)" cx="232" cy="358.688" r="5"/>
      <circle fill="#2E75FE" transform="matrix(1 0 0 -1 0 787.376)" cx="197" cy="393.688" r="5"/>
      <circle fill="#2E75FE" transform="matrix(1 0 0 -1 0 783.376)" cx="187" cy="391.688" r="5"/>
      <circle fill="#2E75FE" transform="matrix(1 0 0 -1 0 767.376)" cx="167" cy="383.688" r="5"/>
      <circle fill="#2E75FE" transform="matrix(1 0 0 -1 0 443.376)" cx="224" cy="221.688" r="5"/>
      <circle fill="#2E75FE" transform="matrix(1 0 0 -1 0 693.376)" cx="206" cy="346.688" r="5"/>
      <circle fill="#2E75FE" transform="matrix(1 0 0 -1 0 607.376)" cx="215" cy="303.688" r="5"/>
      <circle fill="#2E75FE" transform="matrix(1 0 0 -1 0 763.376)" cx="239" cy="381.688" r="5"/>
      <circle fill="#2E75FE" transform="matrix(1 0 0 -1 0 755.376)" cx="274" cy="377.688" r="5"/>
      <circle fill="#2E75FE" transform="matrix(1 0 0 -1 0 437.376)" cx="172" cy="218.688" r="5"/>
      <circle fill="#2E75FE" transform="matrix(1 0 0 -1 0 689.376)" cx="287" cy="344.688" r="5"/>
      <circle fill="#2E75FE" transform="matrix(1 0 0 -1 0 521.376)" cx="187" cy="260.688" r="5"/>
      <circle fill="#2E75FE" transform="matrix(1 0 0 -1 0 519.376)" cx="230" cy="259.688" r="5"/>
      <circle fill="#2E75FE" transform="matrix(1 0 0 -1 0 733.376)" cx="282" cy="366.688" r="5"/>
      <circle fill="#2E75FE" transform="matrix(1 0 0 -1 0 713.376)" cx="147" cy="356.688" r="5"/>
      <circle fill="#2E75FE" transform="matrix(1 0 0 -1 0 431.376)" cx="257" cy="215.688" r="5"/>
      <circle fill="#2E75FE" transform="matrix(1 0 0 -1 0 725.376)" cx="253" cy="362.688" r="5"/>
      <circle fill="#2E75FE" transform="matrix(1 0 0 -1 0 393.376)" cx="240" cy="196.688" r="5"/>
      <circle fill="#2E75FE" transform="matrix(1 0 0 -1 0 639.376)" cx="184" cy="319.688" r="5"/>
      <circle fill="#2E75FE" transform="matrix(1 0 0 -1 0 671.376)" cx="280" cy="335.688" r="5"/>
      <circle fill="#2E75FE" transform="matrix(1 0 0 -1 0 631.376)" cx="250" cy="315.688" r="5"/>
      <circle fill="#2E75FE" transform="matrix(1 0 0 -1 0 753.376)" cx="283" cy="376.688" r="5"/>
      <circle fill="#2E75FE" transform="matrix(1 0 0 -1 0 801.376)" cx="24" cy="400.688" r="5"/>
      <circle fill="#2E75FE" transform="matrix(1 0 0 -1 0 729.376)" cx="143" cy="364.688" r="5"/>
      <circle fill="#2E75FE" transform="matrix(1 0 0 -1 0 607.376)" cx="176" cy="303.688" r="5"/>
      <circle fill="#2E75FE" transform="matrix(1 0 0 -1 0 685.376)" cx="172" cy="342.688" r="5"/>
      <circle fill="#2E75FE" transform="matrix(1 0 0 -1 0 657.376)" cx="218" cy="328.688" r="5"/>
      <circle fill="#2E75FE" transform="matrix(1 0 0 -1 0 507.376)" cx="180" cy="253.688" r="5"/>
      <circle fill="#2E75FE" transform="matrix(1 0 0 -1 0 397.376)" cx="261" cy="198.688" r="5"/>
      <circle fill="#2E75FE" transform="matrix(1 0 0 -1 0 561.376)" cx="247" cy="280.688" r="5"/>
      <circle fill="#2E75FE" transform="matrix(1 0 0 -1 0 445.376)" cx="194" cy="222.688" r="5"/>
      <circle fill="#2E75FE" transform="matrix(1 0 0 -1 0 655.376)" cx="256" cy="327.688" r="5"/>
      <circle fill="#2E75FE" transform="matrix(1 0 0 -1 0 677.376)" cx="217" cy="338.688" r="5"/>
      <circle fill="#2E75FE" transform="matrix(1 0 0 -1 0 441.376)" cx="183" cy="220.688" r="5"/>
      <circle fill="#2E75FE" transform="matrix(1 0 0 -1 0 779.376)" cx="70" cy="389.688" r="5"/>
      <circle fill="#2E75FE" transform="matrix(1 0 0 -1 0 425.376)" cx="190" cy="212.688" r="5"/>
      <circle fill="#2E75FE" transform="matrix(1 0 0 -1 0 653.376)" cx="193" cy="326.688" r="5"/>
      <circle fill="#2E75FE" transform="matrix(1 0 0 -1 0 795.376)" cx="87" cy="397.688" r="5"/>
      <circle fill="#2E75FE" transform="matrix(1 0 0 -1 0 739.376)" cx="188" cy="369.688" r="5"/>
      <circle fill="#2E75FE" transform="matrix(1 0 0 -1 0 781.376)" cx="244" cy="390.688" r="5"/>
      <circle fill="#2E75FE" transform="matrix(1 0 0 -1 0 789.376)" cx="174" cy="394.688" r="5"/>
      <circle fill="#2E75FE" transform="matrix(1 0 0 -1 0 757.376)" cx="197" cy="378.688" r="5"/>
      <circle fill="#2E75FE" transform="matrix(1 0 0 -1 0 797.376)" cx="143" cy="398.688" r="5"/>
      <circle fill="#2E75FE" transform="matrix(1 0 0 -1 0 707.376)" cx="198" cy="353.688" r="5"/>
      <circle fill="#2E75FE" transform="matrix(1 0 0 -1 0 747.376)" cx="248" cy="373.688" r="5"/>
      <circle fill="#2E75FE" transform="matrix(1 0 0 -1 0 667.376)" cx="163" cy="333.688" r="5"/>
      <circle fill="#2E75FE" transform="matrix(1 0 0 -1 0 793.376)" cx="224" cy="396.688" r="5"/>
      <circle fill="#2E75FE" transform="matrix(1 0 0 -1 0 783.376)" cx="234" cy="391.688" r="5"/>
      <circle fill="#2E75FE" transform="matrix(1 0 0 -1 0 717.376)" cx="171" cy="358.688" r="5"/>
      <circle fill="#2E75FE" transform="matrix(1 0 0 -1 0 709.376)" cx="163" cy="354.688" r="5"/>
      <circle fill="#2E75FE" transform="matrix(1 0 0 -1 0 429.376)" cx="230" cy="214.688" r="5"/>
      <circle fill="#2E75FE" transform="matrix(1 0 0 -1 0 743.376)" cx="172" cy="371.688" r="5"/>
      <circle fill="#2E75FE" transform="matrix(1 0 0 -1 0 583.376)" cx="159" cy="291.688" r="5"/>
      <circle fill="#2E75FE" transform="matrix(1 0 0 -1 0 655.376)" cx="150" cy="327.688" r="5"/>
      <circle fill="#2E75FE" transform="matrix(1 0 0 -1 0 711.376)" cx="130" cy="355.688" r="5"/>
      <circle fill="#2E75FE" transform="matrix(1 0 0 -1 0 731.376)" cx="239" cy="365.688" r="5"/>
      <circle fill="#2E75FE" transform="matrix(1 0 0 -1 0 585.376)" cx="181" cy="292.688" r="5"/>
      <circle fill="#2E75FE" transform="matrix(1 0 0 -1 0 783.376)" cx="208" cy="391.688" r="5"/>
      <circle fill="#2E75FE" transform="matrix(1 0 0 -1 0 553.376)" cx="174" cy="276.688" r="5"/>
      <circle fill="#2E75FE" transform="matrix(1 0 0 -1 0 793.376)" cx="119" cy="396.688" r="5"/>
      <circle fill="#2E75FE" transform="matrix(1 0 0 -1 0 753.376)" cx="113" cy="376.688" r="5"/>
      <circle fill="#2E75FE" transform="matrix(1 0 0 -1 0 797.376)" cx="131" cy="398.688" r="5"/>
      <circle fill="#2E75FE" transform="matrix(1 0 0 -1 0 687.376)" cx="146" cy="343.688" r="5"/>
      <circle fill="#2E75FE" transform="matrix(1 0 0 -1 0 761.376)" cx="123" cy="380.688" r="5"/>
      <circle fill="#2E75FE" transform="matrix(1 0 0 -1 0 771.376)" cx="147" cy="385.688" r="5"/>
      <circle fill="#2E75FE" transform="matrix(1 0 0 -1 0 489.376)" cx="216" cy="244.688" r="5"/>
      <circle fill="#2E75FE" transform="matrix(1 0 0 -1 0 783.376)" cx="162" cy="391.688" r="5"/>
      <circle fill="#2E75FE" transform="matrix(1 0 0 -1 0 689.376)" cx="158" cy="344.688" r="5"/>
      <circle fill="#2E75FE" transform="matrix(1 0 0 -1 0 767.376)" cx="106" cy="383.688" r="5"/>
      <circle fill="#2E75FE" transform="matrix(1 0 0 -1 0 587.376)" cx="266" cy="293.688" r="5"/>
      <circle fill="#2E75FE" transform="matrix(1 0 0 -1 0 791.376)" cx="151" cy="395.688" r="5"/>
      <circle fill="#2E75FE" transform="matrix(1 0 0 -1 0 607.376)" cx="253" cy="303.688" r="5"/>
      <circle fill="#2E75FE" transform="matrix(1 0 0 -1 0 795.376)" cx="74" cy="397.688" r="5"/>
      <circle fill="#2E75FE" transform="matrix(1 0 0 -1 0 773.376)" cx="132" cy="386.688" r="5"/>
      <circle fill="#2E75FE" transform="matrix(1 0 0 -1 0 461.376)" cx="186" cy="230.688" r="5"/>
      <circle fill="#2E75FE" transform="matrix(1 0 0 -1 0 791.376)" cx="35" cy="395.688" r="5"/>
      <circle fill="#2E75FE" transform="matrix(1 0 0 -1 0 579.376)" cx="204" cy="289.688" r="5"/>
      <circle fill="#2E75FE" transform="matrix(1 0 0 -1 0 703.376)" cx="266" cy="351.688" r="5"/>
      <circle fill="#2E75FE" transform="matrix(1 0 0 -1 0 529.376)" cx="254" cy="264.688" r="5"/>
      <circle fill="#2E75FE" transform="matrix(1 0 0 -1 0 503.376)" cx="237" cy="251.688" r="5"/>
      <circle fill="#2E75FE" transform="matrix(1 0 0 -1 0 499.376)" cx="266" cy="249.688" r="5"/>
      <circle fill="#2E75FE" transform="matrix(1 0 0 -1 0 769.376)" cx="228" cy="384.688" r="5"/>
      <circle fill="#2E75FE" transform="matrix(1 0 0 -1 0 563.376)" cx="235" cy="281.688" r="5"/>
      <circle fill="#2E75FE" transform="matrix(1 0 0 -1 0 455.376)" cx="260" cy="227.688" r="5"/>
      <circle fill="#2E75FE" transform="matrix(1 0 0 -1 0 709.376)" cx="282" cy="354.688" r="5"/>
      <circle fill="#2E75FE" transform="matrix(1 0 0 -1 0 727.376)" cx="218" cy="363.688" r="5"/>
      <circle fill="#2E75FE" transform="matrix(1 0 0 -1 0 761.376)" cx="159" cy="380.688" r="5"/>
      <circle fill="#2E75FE" transform="matrix(1 0 0 -1 0 769.376)" cx="82" cy="384.688" r="5"/>
      <circle fill="#2E75FE" transform="matrix(1 0 0 -1 0 733.376)" cx="108" cy="366.688" r="5"/>
      <circle fill="#2E75FE" transform="matrix(1 0 0 -1 0 757.376)" cx="74" cy="378.688" r="5"/>
      <circle fill="#2E75FE" transform="matrix(1 0 0 -1 0 501.376)" cx="152" cy="250.688" r="5"/>
      <circle fill="#2E75FE" transform="matrix(1 0 0 -1 0 773.376)" cx="41" cy="386.688" r="5"/>
      <circle fill="#2E75FE" transform="matrix(1 0 0 -1 0 769.376)" cx="253" cy="384.688" r="5"/>
      <circle fill="#2E75FE" transform="matrix(1 0 0 -1 0 817.376)" cx="5" cy="408.688" r="5"/>
      <circle fill="#2E75FE" transform="matrix(1 0 0 -1 0 751.376)" cx="149" cy="375.688" r="5"/>
      <circle fill="#2E75FE" transform="matrix(1 0 0 -1 0 745.376)" cx="215" cy="372.688" r="5"/>
      <circle fill="#2E75FE" transform="matrix(1 0 0 -1 0 795.376)" cx="108" cy="397.688" r="5"/>
      <circle fill="#2E75FE" transform="matrix(1 0 0 -1 0 801.376)" cx="97" cy="400.688" r="5"/>
      <circle fill="#2E75FE" transform="matrix(1 0 0 -1 0 761.376)" cx="64" cy="380.688" r="5"/>
      <circle fill="#2E75FE" transform="matrix(1 0 0 -1 0 717.376)" cx="189" cy="358.688" r="5"/>
      <g transform="translate(357.998)">
        <circle fill="#FBA55F" transform="rotate(180 80.237 26.832)" cx="80.237" cy="26.832" r="4.916"/>
        <circle fill="#FBA55F" transform="rotate(180 42.237 42.832)" cx="42.237" cy="42.832" r="4.916"/>
        <circle fill="#FBA55F" transform="rotate(180 79.254 19.95)" cx="79.254" cy="19.95" r="4.916"/>
        <circle fill="#FBA55F" transform="rotate(180 41.254 35.95)" cx="41.254" cy="35.95" r="4.916"/>
        <circle fill="#FBA55F" transform="rotate(180 33.254 21.95)" cx="33.254" cy="21.95" r="4.916"/>
        <circle fill="#FBA55F" transform="rotate(180 63.396 29.799)" cx="63.396" cy="29.799" r="4.916"/>
        <circle fill="#FBA55F" transform="rotate(180 25.396 45.799)" cx="25.396" cy="45.799" r="4.916"/>
        <circle fill="#FBA55F" transform="rotate(180 83.396 4.916)" cx="83.396" cy="4.916" r="4.916"/>
        <circle fill="#FBA55F" transform="rotate(180 45.396 20.916)" cx="45.396" cy="20.916" r="4.916"/>
        <circle fill="#FBA55F" transform="rotate(180 72.58 10.832)" cx="72.58" cy="10.832" r="4.916"/>
        <circle fill="#FBA55F" transform="rotate(180 55.58 38.832)" cx="55.58" cy="38.832" r="4.916"/>
        <circle fill="#FBA55F" transform="rotate(180 60.748 14.95)" cx="60.748" cy="14.95" r="4.916"/>
        <circle fill="#FBA55F" transform="rotate(180 22.748 30.95)" cx="22.748" cy="30.95" r="4.916"/>
        <circle fill="#FBA55F" transform="rotate(180 52.832 22.832)" cx="52.832" cy="22.832" r="4.916"/>
        <circle fill="#FBA55F" transform="rotate(180 14.832 38.832)" cx="14.832" cy="38.832" r="4.916"/>
        <circle fill="#FBA55F" transform="rotate(180 54.916 29.916)" cx="54.916" cy="29.916" r="4.916"/>
        <circle fill="#FBA55F" transform="rotate(180 16.916 45.916)" cx="16.916" cy="45.916" r="4.916"/>
        <circle fill="#FBA55F" transform="rotate(180 4.916 50.916)" cx="4.916" cy="50.916" r="4.916"/>
        <circle fill="#FBA55F" transform="rotate(180 4.916 60.916)" cx="4.916" cy="60.916" r="4.916"/>
        <circle fill="#FBA55F" transform="rotate(180 73.355 26.832)" cx="73.355" cy="26.832" r="4.916"/>
        <circle fill="#FBA55F" transform="rotate(180 35.355 42.832)" cx="35.355" cy="42.832" r="4.916"/>
      </g>
    </g>
    <g stroke="#D5E5FF" stroke-width="3">
      <path d="M183.121 168.968l35.45 6.24 19.267-3.87 11.528-6.169 18.554-1.582 23.848-3.08 20.05-1.507L328 163.587l-13.102 17.79-16.188 23.884h-3.862l-8.453 11.625 5.373 44.753-6.953 4.592 6.165 36.293 13.895 20.8-6.952 13.916 1.58 6.958-3.873 16.212 3.873 27.758-6.16-6.17-7.74 3.879-5.368 5.375-32.374 13.128-10.023.789h-6.947l-19.263-4.662-20.054 6.239-25.423-.789-50.062.789-20.842 4.592-13.82-5.38-19.268-5.451-9.24 5.45-7.734-3.085-20.05 6.17L12.815 416H5.08L2 407.465l4.655-4.593 28.507-8.535 1.575-7.672 40.03-10.831 3.08-5.381 8.452-3.085 6.948-8.535-1.505-9.968 28.502 6.164 20.772-5.45 6.948-13.842-4.585-21.662-3.868-13.842-.787-8.535 10.815-35.504-13.895-26.974-2.293-8.536-10.027-6.169-17.757-4.587-16.905 2.296-6.943-1.577v-10.762l12.315-6.17 7.735-3.873 27.72-4.662 16.182-.719 2.293-3.08 7.73 3.08 1.505-2.366 6.952-3.798 3.863 3.798 4.66-4.592zM348 64.875l13.89-.782L367.36 71s15.478-17.234 16.99-17.234c1.583 0 16.265-2.349 16.265-2.349s14.756-3.062 16.269-3.775c1.583-.783 12.813-7.69 12.813-7.69l1.943-8.83 8.495 3.493 3.096-6.551 2.735 2.274 3.887-9.538-1.949-5.342L451 5.062 441.288 2l-2.305 4.985-7.343 1.14-14.756 3.845-13.174 3.488-13.174 5.698-7.698 8.826-9.282 9.191-8.135 8.825-8.134 8.404-5.836.783-2.304 2.706L348 64.875z"/>
    </g>
  </g>
</svg>
