<svg xmlns="http://www.w3.org/2000/svg" viewBox="0 0 388 207">
  <g fill="none" fill-rule="evenodd">
    <g transform="translate(4 4)">
      <circle fill="#2E75FE" transform="rotate(180 147 78)" cx="147" cy="78" r="5"/>
      <circle fill="#2E75FE" transform="rotate(180 132 78)" cx="132" cy="78" r="5"/>
      <circle fill="#2E75FE" transform="rotate(180 98 60)" cx="98" cy="60" r="5"/>
      <circle fill="#2E75FE" transform="rotate(180 321 142)" cx="321" cy="142" r="5"/>
      <circle fill="#2E75FE" transform="rotate(180 118 54)" cx="118" cy="54" r="5"/>
      <circle fill="#2E75FE" transform="rotate(180 143 71)" cx="143" cy="71" r="5"/>
      <circle fill="#2E75FE" transform="rotate(180 354 166)" cx="354" cy="166" r="5"/>
      <circle fill="#2E75FE" transform="rotate(180 131 75)" cx="131" cy="75" r="5"/>
      <circle fill="#2E75FE" transform="rotate(180 158 51)" cx="158" cy="51" r="5"/>
      <circle fill="#2E75FE" transform="rotate(180 159 89)" cx="159" cy="89" r="5"/>
      <circle fill="#2E75FE" transform="rotate(180 147 49)" cx="147" cy="49" r="5"/>
      <circle fill="#2E75FE" transform="rotate(180 145 37)" cx="145" cy="37" r="5"/>
      <circle fill="#2E75FE" transform="rotate(180 345 175)" cx="345" cy="175" r="5"/>
      <circle fill="#2E75FE" transform="rotate(180 357 175)" cx="357" cy="175" r="5"/>
      <circle fill="#2E75FE" transform="rotate(180 346 166)" cx="346" cy="166" r="5"/>
      <circle fill="#2E75FE" transform="rotate(180 332 146)" cx="332" cy="146" r="5"/>
      <circle fill="#2E75FE" transform="rotate(180 335 174)" cx="335" cy="174" r="5"/>
      <circle fill="#2E75FE" transform="rotate(180 330 158)" cx="330" cy="158" r="5"/>
      <circle fill="#2E75FE" transform="rotate(180 330 186)" cx="330" cy="186" r="5"/>
      <circle fill="#2E75FE" transform="rotate(180 338 164)" cx="338" cy="164" r="5"/>
      <circle fill="#2E75FE" transform="rotate(180 348 184)" cx="348" cy="184" r="5"/>
      <circle fill="#2E75FE" transform="rotate(180 340 185)" cx="340" cy="185" r="5"/>
      <circle fill="#2E75FE" transform="rotate(180 132 59)" cx="132" cy="59" r="5"/>
      <circle fill="#2E75FE" transform="rotate(180 320 169)" cx="320" cy="169" r="5"/>
      <circle fill="#2E75FE" transform="rotate(180 142 59)" cx="142" cy="59" r="5"/>
      <circle fill="#2E75FE" transform="rotate(180 330 169)" cx="330" cy="169" r="5"/>
      <circle fill="#2E75FE" transform="rotate(180 322 151)" cx="322" cy="151" r="5"/>
      <circle fill="#2E75FE" transform="rotate(180 324 180)" cx="324" cy="180" r="5"/>
      <circle fill="#2E75FE" transform="rotate(180 127 49)" cx="127" cy="49" r="5"/>
      <circle fill="#2E75FE" transform="rotate(180 120 59)" cx="120" cy="59" r="5"/>
      <circle fill="#2E75FE" transform="rotate(180 308 169)" cx="308" cy="169" r="5"/>
      <circle fill="#2E75FE" transform="rotate(180 312 150)" cx="312" cy="150" r="5"/>
      <circle fill="#2E75FE" transform="rotate(180 313 179)" cx="313" cy="179" r="5"/>
      <circle fill="#2E75FE" transform="rotate(180 313 160)" cx="313" cy="160" r="5"/>
      <circle fill="#2E75FE" transform="rotate(180 313 185)" cx="313" cy="185" r="5"/>
      <circle fill="#2E75FE" transform="rotate(180 112 49)" cx="112" cy="49" r="5"/>
      <circle fill="#2E75FE" transform="rotate(180 110 92)" cx="110" cy="92" r="5"/>
      <circle fill="#2E75FE" transform="rotate(180 285 131)" cx="285" cy="131" r="5"/>
      <circle fill="#2E75FE" transform="rotate(180 289 171)" cx="289" cy="171" r="5"/>
      <circle fill="#2E75FE" transform="rotate(180 108 57)" cx="108" cy="57" r="5"/>
      <circle fill="#2E75FE" transform="rotate(180 298 170)" cx="298" cy="170" r="5"/>
      <circle fill="#2E75FE" transform="rotate(180 117 42)" cx="117" cy="42" r="5"/>
      <circle fill="#2E75FE" transform="rotate(180 124 34)" cx="124" cy="34" r="5"/>
      <circle fill="#2E75FE" transform="rotate(180 112 34)" cx="112" cy="34" r="5"/>
      <circle fill="#2E75FE" transform="rotate(180 137 47)" cx="137" cy="47" r="5"/>
      <circle fill="#2E75FE" transform="rotate(180 138 90)" cx="138" cy="90" r="5"/>
      <circle fill="#2E75FE" transform="rotate(180 147 91)" cx="147" cy="91" r="5"/>
      <circle fill="#2E75FE" transform="rotate(180 367 178)" cx="367" cy="178" r="5"/>
      <circle fill="#2E75FE" transform="rotate(180 335 176)" cx="335" cy="176" r="5"/>
      <circle fill="#2E75FE" transform="rotate(180 362 184)" cx="362" cy="184" r="5"/>
      <circle fill="#2E75FE" transform="rotate(180 356 180)" cx="356" cy="180" r="5"/>
      <circle fill="#2E75FE" transform="rotate(180 299 137)" cx="299" cy="137" r="5"/>
      <circle fill="#2E75FE" transform="rotate(180 63 46)" cx="63" cy="46" r="5"/>
      <circle fill="#2E75FE" transform="rotate(180 63 49)" cx="63" cy="49" r="5"/>
      <circle fill="#2E75FE" transform="rotate(180 309 140)" cx="309" cy="140" r="5"/>
      <circle fill="#2E75FE" transform="rotate(180 77 48)" cx="77" cy="48" r="5"/>
      <circle fill="#2E75FE" transform="rotate(180 223 125)" cx="223" cy="125" r="5"/>
      <circle fill="#2E75FE" transform="rotate(180 47 63)" cx="47" cy="63" r="5"/>
      <circle fill="#2E75FE" transform="rotate(180 89 52)" cx="89" cy="52" r="5"/>
      <circle fill="#2E75FE" transform="rotate(180 121 76)" cx="121" cy="76" r="5"/>
      <circle fill="#2E75FE" cx="233" cy="143" r="5"/>
      <circle fill="#2E75FE" cx="234" cy="134" r="5"/>
      <circle fill="#2E75FE" cx="236" cy="155" r="5"/>
      <circle fill="#2E75FE" cx="257" cy="117" r="5"/>
      <circle fill="#2E75FE" cx="241" cy="146" r="5"/>
      <circle fill="#2E75FE" cx="222" cy="144" r="5"/>
      <circle fill="#2E75FE" cx="231" cy="164" r="5"/>
      <circle fill="#2E75FE" cx="234" cy="127" r="5"/>
      <circle fill="#2E75FE" cx="241" cy="162" r="5"/>
      <circle fill="#2E75FE" cx="66" cy="90" r="5"/>
      <circle fill="#2E75FE" cx="78" cy="44" r="5"/>
      <circle fill="#2E75FE" cx="71" cy="37" r="5"/>
      <circle fill="#2E75FE" cx="270" cy="126" r="5"/>
      <circle fill="#2E75FE" cx="254" cy="130" r="5"/>
      <circle fill="#2E75FE" cx="256" cy="167" r="5"/>
      <circle fill="#2E75FE" cx="244" cy="133" r="5"/>
      <circle fill="#2E75FE" cx="246" cy="167" r="5"/>
      <circle fill="#2E75FE" cx="245" cy="123" r="5"/>
      <circle fill="#2E75FE" cx="261" cy="146" r="5"/>
      <circle fill="#2E75FE" cx="37" cy="45" r="5"/>
      <circle fill="#2E75FE" cx="268" cy="136" r="5"/>
      <circle fill="#2E75FE" cx="268" cy="167" r="5"/>
      <circle fill="#2E75FE" cx="263" cy="126" r="5"/>
      <circle fill="#2E75FE" cx="83" cy="88" r="5"/>
      <circle fill="#2E75FE" cx="302" cy="146" r="5"/>
      <circle fill="#2E75FE" cx="304" cy="181" r="5"/>
      <circle fill="#2E75FE" cx="301" cy="158" r="5"/>
      <circle fill="#2E75FE" cx="322" cy="160" r="5"/>
      <circle fill="#2E75FE" cx="276" cy="146" r="5"/>
      <circle fill="#2E75FE" cx="53" cy="43" r="5"/>
      <circle fill="#2E75FE" cx="60" cy="35" r="5"/>
      <circle fill="#2E75FE" cx="285" cy="161" r="5"/>
      <circle fill="#2E75FE" cx="281" cy="152" r="5"/>
      <circle fill="#2E75FE" cx="292" cy="150" r="5"/>
      <circle fill="#2E75FE" cx="294" cy="161" r="5"/>
      <circle fill="#2E75FE" cx="286" cy="184" r="5"/>
      <circle fill="#2E75FE" cx="276" cy="165" r="5"/>
      <circle fill="#2E75FE" cx="290" cy="140" r="5"/>
      <circle fill="#2E75FE" cx="297" cy="180" r="5"/>
      <circle fill="#2E75FE" cx="280" cy="138" r="5"/>
      <circle fill="#2E75FE" cx="280" cy="174" r="5"/>
      <circle fill="#2E75FE" cx="271" cy="153" r="5"/>
      <circle fill="#2E75FE" cx="47" cy="46" r="5"/>
      <circle fill="#2E75FE" cx="47" cy="52" r="5"/>
      <circle fill="#2E75FE" cx="251" cy="148" r="5"/>
      <circle fill="#2E75FE" cx="251" cy="139" r="5"/>
      <circle fill="#2E75FE" cx="261" cy="137" r="5"/>
      <circle fill="#2E75FE" cx="27" cy="47" r="5"/>
      <circle fill="#2E75FE" cx="263" cy="158" r="5"/>
      <circle fill="#2E75FE" cx="39" cy="54" r="5"/>
      <circle fill="#2E75FE" cx="252" cy="158" r="5"/>
      <circle fill="#2E75FE" cx="248" cy="154" r="5"/>
      <circle fill="#2E75FE" cx="267" cy="117" r="5"/>
      <circle fill="#2E75FE" cx="75" cy="60" r="5"/>
      <circle fill="#2E75FE" cx="61" cy="72" r="5"/>
      <circle fill="#2E75FE" cx="61" cy="75" r="5"/>
      <circle fill="#2E75FE" cx="59" cy="60" r="5"/>
      <circle fill="#2E75FE" cx="165" cy="58" r="5"/>
      <circle fill="#2E75FE" cx="161" cy="73" r="5"/>
      <circle fill="#2E75FE" cx="262" cy="126" r="5"/>
      <circle fill="#2E75FE" cx="213" cy="125" r="5"/>
      <circle fill="#2E75FE" cx="214" cy="140" r="5"/>
      <circle fill="#2E75FE" cx="228" cy="151" r="5"/>
      <circle fill="#2E75FE" cx="249" cy="115" r="5"/>
      <circle fill="#2E75FE" cx="223" cy="134" r="5"/>
      <circle fill="#2E75FE" cx="218" cy="153" r="5"/>
      <circle fill="#2E75FE" cx="237" cy="117" r="5"/>
      <circle fill="#2E75FE" cx="202" cy="139" r="5"/>
      <circle fill="#2E75FE" cx="207" cy="131" r="5"/>
      <circle fill="#2E75FE" cx="66" cy="60" r="5"/>
      <circle fill="#2E75FE" cx="52" cy="72" r="5"/>
      <circle fill="#2E75FE" cx="52" cy="75" r="5"/>
      <circle fill="#FBA55F" cx="39" cy="35" r="5"/>
      <circle fill="#FBA55F" cx="28" cy="34" r="5"/>
      <circle fill="#FBA55F" cx="51" cy="31" r="5"/>
      <circle fill="#FBA55F" cx="57" cy="23" r="5"/>
      <circle fill="#FBA55F" cx="39" cy="26" r="5"/>
      <circle fill="#FBA55F" cx="66" cy="28" r="5"/>
      <circle fill="#FBA55F" cx="75" cy="27" r="5"/>
      <circle fill="#FBA55F" cx="74" cy="18" r="5"/>
      <circle fill="#FBA55F" cx="18" cy="40" r="5"/>
      <circle fill="#FBA55F" cx="20" cy="26" r="5"/>
      <circle fill="#FBA55F" cx="5" cy="25" r="5"/>
      <circle fill="#FBA55F" transform="rotate(180 141 14)" cx="141" cy="14" r="5"/>
      <circle fill="#FBA55F" transform="rotate(180 135 6)" cx="135" cy="6" r="5"/>
      <circle fill="#FBA55F" transform="rotate(180 130 15)" cx="130" cy="15" r="5"/>
      <circle fill="#FBA55F" transform="rotate(180 114 6)" cx="114" cy="6" r="5"/>
      <circle fill="#FBA55F" transform="rotate(180 108 17)" cx="108" cy="17" r="5"/>
      <circle fill="#FBA55F" transform="rotate(180 94 11)" cx="94" cy="11" r="5"/>
      <circle fill="#FBA55F" transform="rotate(180 94 21)" cx="94" cy="21" r="5"/>
      <circle fill="#FBA55F" transform="rotate(180 13 31)" cx="13" cy="31" r="5"/>
      <circle fill="#FBA55F" transform="rotate(180 154 33)" cx="154" cy="33" r="5"/>
      <circle fill="#FBA55F" transform="rotate(180 147 26)" cx="147" cy="26" r="5"/>
      <circle fill="#FBA55F" transform="rotate(180 158 42)" cx="158" cy="42" r="5"/>
      <circle fill="#FBA55F" transform="rotate(180 128 25)" cx="128" cy="25" r="5"/>
      <circle fill="#FBA55F" transform="rotate(180 85 28)" cx="85" cy="28" r="5"/>
      <circle fill="#FBA55F" transform="rotate(180 85 19)" cx="85" cy="19" r="5"/>
      <circle fill="#FBA55F" transform="rotate(180 118 26)" cx="118" cy="26" r="5"/>
      <circle fill="#FBA55F" transform="rotate(180 106 26)" cx="106" cy="26" r="5"/>
      <circle fill="#FBA55F" transform="rotate(180 119 17)" cx="119" cy="17" r="5"/>
      <circle fill="#FBA55F" transform="rotate(180 136 33)" cx="136" cy="33" r="5"/>
      <circle fill="#FBA55F" transform="rotate(180 137 22)" cx="137" cy="22" r="5"/>
      <circle fill="#FBA55F" transform="rotate(180 104 12)" cx="104" cy="12" r="5"/>
      <circle fill="#FBA55F" transform="rotate(180 125 5)" cx="125" cy="5" r="5"/>
      <circle fill="#2E75FE" cx="59" cy="92" r="5"/>
      <circle fill="#2E75FE" cx="61" cy="80" r="5"/>
      <circle fill="#2E75FE" cx="76" cy="90" r="5"/>
      <circle fill="#2E75FE" cx="70" cy="76" r="5"/>
      <circle fill="#2E75FE" cx="88" cy="77" r="5"/>
      <circle fill="#2E75FE" cx="80" cy="77" r="5"/>
      <circle fill="#2E75FE" cx="88" cy="92" r="5"/>
      <circle fill="#2E75FE" cx="95" cy="85" r="5"/>
      <circle fill="#2E75FE" cx="104" cy="89" r="5"/>
      <circle fill="#2E75FE" cx="97" cy="95" r="5"/>
      <circle fill="#2E75FE" cx="111" cy="83" r="5"/>
      <circle fill="#2E75FE" cx="103" cy="78" r="5"/>
      <circle fill="#2E75FE" cx="102" cy="70" r="5"/>
      <circle fill="#2E75FE" cx="93" cy="75" r="5"/>
      <circle fill="#2E75FE" cx="81" cy="59" r="5"/>
      <circle fill="#2E75FE" cx="40" cy="57" r="5"/>
      <circle fill="#2E75FE" cx="71" cy="108" r="5"/>
      <circle fill="#2E75FE" cx="79" cy="100" r="5"/>
      <circle fill="#2E75FE" cx="67" cy="100" r="5"/>
      <circle fill="#2E75FE" cx="82" cy="67" r="5"/>
      <circle fill="#2E75FE" cx="88" cy="102" r="5"/>
      <circle fill="#2E75FE" cx="154" cy="86" r="5"/>
      <circle fill="#2E75FE" cx="105" cy="100" r="5"/>
      <circle fill="#2E75FE" cx="93" cy="67" r="5"/>
      <circle fill="#2E75FE" cx="140" cy="83" r="5"/>
      <circle fill="#2E75FE" cx="122" cy="85" r="5"/>
      <circle fill="#2E75FE" cx="129" cy="91" r="5"/>
      <circle fill="#2E75FE" cx="115" cy="91" r="5"/>
      <circle fill="#2E75FE" cx="122" cy="97" r="5"/>
      <circle fill="#2E75FE" cx="71" cy="68" r="5"/>
      <circle fill="#2E75FE" cx="69" cy="87" r="5"/>
      <circle fill="#2E75FE" transform="rotate(180 152 60)" cx="152" cy="60" r="5"/>
      <circle fill="#2E75FE" transform="rotate(180 158 101)" cx="158" cy="101" r="5"/>
      <circle fill="#2E75FE" transform="rotate(180 127 66)" cx="127" cy="66" r="5"/>
      <circle fill="#2E75FE" transform="rotate(180 149 101)" cx="149" cy="101" r="5"/>
      <circle fill="#2E75FE" transform="rotate(180 155 68)" cx="155" cy="68" r="5"/>
      <circle fill="#2E75FE" transform="rotate(180 126 53)" cx="126" cy="53" r="5"/>
      <circle fill="#2E75FE" transform="rotate(180 131 41)" cx="131" cy="41" r="5"/>
      <circle fill="#2E75FE" transform="rotate(180 133 67)" cx="133" cy="67" r="5"/>
      <circle fill="#2E75FE" transform="rotate(180 143 67)" cx="143" cy="67" r="5"/>
      <circle fill="#2E75FE" transform="rotate(180 105 47)" cx="105" cy="47" r="5"/>
      <circle fill="#2E75FE" transform="rotate(180 101 37)" cx="101" cy="37" r="5"/>
      <circle fill="#2E75FE" transform="rotate(180 95 29)" cx="95" cy="29" r="5"/>
      <circle fill="#2E75FE" transform="rotate(180 121 67)" cx="121" cy="67" r="5"/>
      <circle fill="#2E75FE" transform="rotate(180 94 46)" cx="94" cy="46" r="5"/>
      <circle fill="#2E75FE" transform="rotate(180 87 38)" cx="87" cy="38" r="5"/>
      <circle fill="#2E75FE" transform="rotate(180 109 65)" cx="109" cy="65" r="5"/>
      <circle fill="#2E75FE" transform="rotate(180 277 124)" cx="277" cy="124" r="5"/>
      <circle fill="#2E75FE" transform="rotate(180 132 78)" cx="132" cy="78" r="5"/>
      <circle fill="#2E75FE" transform="rotate(180 113 74)" cx="113" cy="74" r="5"/>
      <circle fill="#2E75FE" transform="rotate(180 152 78)" cx="152" cy="78" r="5"/>
      <circle fill="#2E75FE" transform="rotate(180 168 68)" cx="168" cy="68" r="5"/>
      <circle fill="#2E75FE" transform="rotate(180 166 80)" cx="166" cy="80" r="5"/>
      <circle fill="#2E75FE" transform="rotate(180 267 116)" cx="267" cy="116" r="5"/>
    </g>
    <path d="M301 196.2l-.8.8v.4l.396.4h.804l.4-.4v-.4l-.4-.4-.4-.4zm-109-62.253l-.842-.842-.425-1.684-.417-.421h-.842l-.421.421h-.842l-.422.421h-2.947l-.425.421H184l.417.421.846.421.842 1.684v1.264l.417.842h.425l.421.42v.422l.843.842 2.105.421.417-.842v-1.263l.846-1.263v-.421l.421-1.264zM380.4 203h-.8l-.4.4h-.8l-.404.4-.396.8h1.2l.4.4h.796l.404-.8-.404-.4.404-.8zm5.8-17h-1.6l-.8.8v.4l.4.8h1.196l.804-.8V186zm-11.36 5.968h0l1.54-2.323v-.387l.386-.774.385-2.323-.385-.387v-1.548l-.385-.387v-1.162l-.39-.387v-1.161l-1.536-1.935v-.388h.385v-.387l-.775-.774h-.381l-.385-.774v-1.161l-.386-.775v-.774l-1.155-.774-.386-.774-.385-.387h-1.54V173l.384.387-.77.774h-.385v-.387h-.77l-.386-.387V173h-.385l-.386-.387h-.389l-.381.387-.385-.387h-.386l-.385.387h-.389l1.156-.774v-1.161l-.382-.388v-.774l-.774.387-.381-.387.381-1.161-.381-.387-.77-.387-.386-.774v-.775h-.77l-.39.387h-.381l-.385-.387.385-.387v-.387l-.385-.387h-.77l-.39.387-2.308-.387-.385-.387h-1.16l-.381-.387h-1.156l-.389-.387h-1.156v-.387l.775-.387h.77l1.156-.775-.385-.774-1.16-.387h-.381l-.386-.39h-1.16l-.766-1.158v-.778l-.389-.384v-.387l-.381-.387-.77.387-1.157 1.162-1.544.387-1.152.774-1.545.383-1.156.778h-.77l-.382-.387h-1.545l-.381.387h-2.312l-.389-.778h.775l.77-.383h.381l1.545-1.552v-.384l.77-.774 1.538-.387 1.156-1.548h.389l.77-.778.767-1.936h-1.156l-.381.391v-.774l-.39-.774h-1.155l-.381.387h-.39l-.38-.387h-1.157l-.389.387v-.774l-.381-.391.381-1.158.39-.387v-.39l-.39-.384v-.387l-1.156-1.548h-.38l.38-1.162-.77-.774h-.767l-.77.774-1.545-.39-.381.39h-.39l-.381-.774.381-1.161.77-.391h.39l.385-.383h.382l.389-.388-.77-.774h-.775l-.77-.39-.767-.388-1.927-1.157h-.77l-.39.387h-.38l-.386-.387-.389-.778h-.77l-.767.778v.387l-1.541 1.548-.774.387-.382.775-.389.383h-.767l-.389-.383-.77-1.162h-.382l-.389-.774-.385-.774-.77-.387-.771-.391h-1.156l-1.156.778h-.77l-2.308-1.936v-.387l-.774-.778h-.382l-.389-.77-.77-.387-.385-.391-1.152.39h-.775l-.381.388-.39-.387h-1.536l-.77.387h-.775l-.382-.387-1.544.387-.771-.387h-1.156l-.381.387h-.39l-.38.387h-.775l-.381-.387v-1.548l-.771-1.166-1.545-.387-.381-.383h-.39l-.385-1.552-.381-.383-.77-.775h-.775l-.77.387h-1.156l-.385-.387h-.386l-.381.387h-.39v-2.322l-.384-.391v-1.158l-.386-.387h-.385l-.381-.39h-.39l-.77-1.158-.385-.387h-.77l-.386.387v.387l-.77.77-1.927-.387-1.156-.77-.77-3.484-.77-.774h-.386v.387l.385.387v1.161l.39.388v1.157l-.775.778h-.385l-.385-.387-.77-.391-.386.39h-.385l-.386-.39-.381.39-.39-.39.39-.383-.39-.387v-.387l-.384-.779h-.386l-.385-.387-.77.387-.386-.77-.385-.387v-.387h-.385l-.385-.778v-1.158l-.386-.778-.385-.383h-.77l-.77-.387-.771-1.165v-.383l-.386-.387-.385-.388h-.77l-.771-1.548-.77-.387h-.386l-.385.387h-.77l-1.156 1.158h-1.156l-.385.39-.77.388v-.778l-.386-.77h-.77l-.386.382-.385 1.166-.77.387-.771-.775h-.77l-.386-.39h-.389l-.767-.388h-.385l-.385.388h-1.926l-.39.39-1.151-.39-1.156 1.16-1.545.388-.381-.387h-1.156l-.39-.383-.38-.388-.771.388-.386-.388h-.389l-1.926 1.158h-.381l-.386.387h-1.16l-.38-.387h-.386l-1.16 1.165-.766.383-.77.774-.39-.387h-.381l-.77.387h-.386l-1.156 1.162h-.385l-.385.774-.39-.387h-.766l-.385.387h-.775l-.766 1.548h-.385l-1.927 2.323h-.385l-1.156.39-.385-.39-1.926-.387-.386.387h-.77l-.39.39h-1.536l-.39-.39h-.38l-.386.39-1.16.388-.381.383h-1.545l-.381-.383-1.545-.387-1.927-1.165-.766.387-.39.387h-.77l-.381.39-1.545.388-1.926 1.157-.767.778-1.16 2.323-1.537 1.936-1.156.383h-.389l-.381.387h-.39l-1.536 1.935v.391h-.39v.387l-1.155 1.158-.77.39-1.538 1.158-.389.387v1.549l.39.387v.778l.77.77.385 1.165v1.158l-.385.39v.388l-.39.77v.387l.39.778 1.926.77 1.156 1.166.381.387h.774l.382.383h1.16l.385.387h.77l.382.391h1.544l2.308 1.936h.775l.385-.391h.385l.381-.387.775.387h.385l.385.39 1.541.388 1.156.774v.774l-1.156.774-.385 1.162v.387h.385l.767.774.39 1.161v.387l.77.387h1.926v.775l.385.774h.382l.389.77-.39.391v1.161l-.38.384.38.778h.39l.77.387h1.156l1.926-1.162.77-.774.386-2.322.381-.387.39.387.385-.387h.385l.385.387v.387l.382.387V161l1.16 1.548v.387l-.386 1.549.385.387 1.156 3.097.385.774h.386v.387l.385.387v.387l.77 1.162v.387l1.156 1.16.77.388h.386l.77.387h.382l1.16.774h.385l3.082 3.484 1.152.774h.389l.385.387 1.54.388v.387h1.538v-.387h.774l.386-.388h2.693l.389-.387h.385l1.152-.387h.389l.77-.774h.386l.77-.774 1.156-.387h.385l1.156-.387.77-.775v-.39h.771l.385-.77h.386l.77 1.16.77.388 2.697-.388.386.388.77.387.77.77.771-.383.385-.774h.386l.385.387.77 2.322.771 1.162.77.387.771.77h-1.156l-.385-.383h-.77l-1.156-.774-.386-.388-.77-.774v-.387l-1.156-1.165h-.385l-.385.391v.774l.385.387v.383l.77.779.386.774 1.155.387.386.387h.77l.39.387h.766l.385.387h1.541l.386-.387.385.387h.77l.77-.387.386.387h.77l.386.387h1.16l.766-.387v.774l1.541-.387.385.387h.386l.774.775.767.387.385-.387.385.387.39-.387v.387l-.39.387.77.774.386 1.935v.775l.385.387.385.387h.771l.385.774v.774l-.766.387-.775.774v1.162h.775l.381.387h.385l.77.774h.39l.381.387h.77l1.157-.774 1.544 1.161h.77l.768-.387h.77l.39-.387h1.925l.382-.387h1.545l.381-.387h.774l2.308-1.161h.39l.38-.388h.775l.77-.387h.382l1.156-.774 1.545-.387 1.537 1.161h.389l.381.775h.77l1.157 1.16h1.544l.77.388h3.083l.381.387h.77l.386.387h.77l.39.387.381-.387h1.156l.389-.387h1.926l.382-.387h.774l.381-.387h1.156l.39-.387h.77l.767-.387h.77l.39-.387h1.536l1.545 1.935.77-.774.771.387 1.926.387.386.387h2.307v.387l-.381.387v.387l.381.388h.77l.39-.388 1.926-.387 1.537-1.161h.775l.381.387h.77l.39.387h2.311l1.152-.387h1.156l.77.387h.775v.387h1.54l.768-.774h.389l.381-.387 3.082-.387.39.387h.77l.385.387h3.853l.381-.387h1.926l.39-.387h.77l.385.387 3.467.387.386.387h1.54l.386.387h.77l.382.387h1.156l.389.388h.77l.385.387h1.542l.385.387 2.697.387.77.387 1.537.387.39-.387v-.774h-.771l-.77-.774.38-.775 1.16-.774.386-.387v-.387l.381-.387-6.16-.387zM377.6 202l-.8-.4v-1.2l-.4-.8-.4-.4-1.6.8h-.4v.8l.4.4v.4l.4.8 2 .4.396-.4h.404l.4-.4h-.4zm-52.2-60.6h.796l.404-.4-.404-.4h-.396l-.4.4v.4zm53.2 48.8l.8-.8.4-.4v-.8l-.4-.4h-.404l-.796.8v1.2l.4.4zM177.15 76.75h0l1.155-1.15-1.924-2.683v-.384l-.77-1.15-1.54-4.216-.385-2.684-1.155-1.15v-1.15l.381-.383.39-2.3-.77-.767v-.383l-1.155-3.067-.77-2.3v-1.916h-.385l-.385-.767v-1.15l.385-.383v-.384l-1.159-1.15v-.383l.774-.767.77-.383v-.767l-1.155-1.15h-.389l-.381-.383h-.77l-.385.383-.77-.766v-.384l-1.155-1.15v-1.15l-1.154-1.533-.77-.383-.389-.767v-1.917l-.381-.383-.385-.767v-1.15l-.385-.383-1.925-1.15-1.154-1.15h-.385l-.77-.383-1.54-1.917v-1.917l-1.54-1.916v-.384l-.385-.766-.773-.384-.382-.383-1.543-.767-.766-.766-1.159-3.067-1.15-1.15v-.767l-.386-.766h-.389l-2.305-3.067v-.767l-1.544-2.3v-1.15l-.381-.383h-1.155l-.389-.383-1.535-.384-.39-.383V5.45h-.38l-.77-1.15-3.85-.383-1.54-.767-.384-.383-1.54-.384-.77-.383h-1.925l-.77.383.382.767-.382.383-2.31 1.15h-1.539l-.77-.383-1.155-.383-.385-.384h-3.083l-.38.384-1.926.383-.77.383-.384-.383h-2.314l-.381.383-.77 1.534v.766l-.774 1.15-1.924 1.15-.381 1.15h-4.239l-.38.384h-.774v-.384l.388-.383-.388-.383h-1.151l-.385.383h-1.54l-1.155 1.15h-1.925l-.77-.383h-1.154L94 11.583l-.38.767-.77.383-.386.384h-.77l-.388.383h-.381l-1.155 1.15H89l-.385.383-.77.384-1.544 1.533h-.77l-.38.383-.774.384-1.151.383-.385-.383-1.54-.384-.385-.383h-.77l-.389-.383h-1.154l-1.151.383h-.385l-3.465 1.917H72.06l-.766.383h-.39l-1.15.383-1.155.384-1.155 1.15-.388.383h-.77l-.381.383h-.385l-1.925 1.534h-.77l-.77-.384h-.385l-.389-.383-.38-.383h-.39l-.38-.384h-.774l-.381.384h-.77l-.389.383h-2.69l-.39-.383h-.77l-.384.383H53.2l-.77.383h-.39l-.765.767v.383l-.389.384V25l.389.383h.381l.385.384-.385.383v.767l-.77.383h-1.155l-.38-.383h-.77l-.39-.384v-.383h-.384l-.381.383h-1.16l-.384-.383h-.381l-.389-.383v-.384l-.381-1.533-.389-.383-.766-.384V22.7h-.77l-.773.383h-.77l-.381.384h-.39l-.384.383h-.385L38.569 25h-.385v-.383l.385-.767h-1.155l-.38.383-.775.384-1.15 1.15h-.39l-.384.383-.385-.383h-.766l-1.544 1.15h-2.306l-.773-.384h-.385l-1.155-.766h-.385l-.77-.767h-.77l-.385.383h-.77l-.38-.383-1.544-1.533v-.384l-.77-1.15-1.155-.383-1.155-.767-.385-.383h-.385l-.38-.383v-.767l-.39-.383h-.77l-1.154.766-.385 1.15v.384l-.385.383h-.766l-1.544-1.917-.38-.383h-1.544l-.381.383-.39-.383h-.77l-.384.383h-.381l-.774.767v.767l-1.54 1.15v.383l-.385.383v.384l-.384.383v.383l-1.155 1.15v.384H3.54l-.385.383L2 26.533v.384L4.313 29.6l1.151.767 1.155 1.15v1.15l-.38.383v.383l.38 1.15v.384l.385.383v.383l.385.767 1.54-.383 1.159 1.533h.38v.383l.77 1.15v.767l.774 1.15v.383l.381.384v.383l1.925 1.917h1.544l.766 1.15.77.383.77.767.384.383h.77l.389.383.766.384 1.925 1.916v1.15l1.158 2.3.766.384 1.16 1.15h.38l1.155 1.533.389.383h.766v.767l.77.767h.388l.766 1.15h.77l.39.383 1.15 1.15 1.155-.383.385-.384.77.384.389.766-.39.384.39.383.38.767v1.15l-.38.383.38.767 1.544.383-.389.383v1.15l.77 1.15h.385l.385.384 1.54.383 1.159 1.533.38.384h.77l.385.383v.767l.39.766h.77l.38-.383.774.383v.384h.381l.389.766-.389.384v2.3l.389.766v.384l1.155 1.533h.38l.39.383h.38l.386.384h.388l.381.766-.38.384.38.383v1.15l.39.767.38-.384.385.384v.766l.77.767h.389l1.155 1.533.77.384 1.154 1.15v.383l.382.767 1.154.383.77.383.77 1.534.774.766h.77l-.39.384v1.916l.39.384v.766l-.39.384-.38 3.066.38.767.39.767.766.383h.388l.77.767v.383l.381.767-.38.383v.767l.38.766h.385l.39.767v1.533l.38.384 1.155.383.389.383h.38l.39.767h.77l1.924 1.15.385.383V112.4l.77 1.533 1.925 2.3 1.155.384h.38l.39.383h1.924l.381-.383h.774l.381-.384h.389l.381-.383.774-.383 2.305-1.534h.39l.38.384h1.544l.381-.384h.774l.38-.383 1.544-.383.382-.384h1.543l.381-.383 1.159-1.15H89l.77-.767 1.924-1.15h.77l.385.384h.77l.381.383h.774l.381.383h.77l.389.384h.77l.384.383 1.155-.383.77-.767.77-.383.385-.384h.385l.385.384h.77l.385-.384 1.54-.383.384-.383h.77l.381-.384h.39l.384.384.77-.384 1.155-.766 1.15-.384 1.544-.766h.381v.766l.39.384h.769l.385-.384 1.54-.383.385.383h1.54l.384-.383h.381l.39-.383.77-.384.765-.383 1.925.383.389.384h.385l.384-.384h.385l1.925-1.15h3.08l.385-.383h.766l.388.383-.388 1.15.388.384h.77l.385-.384h.385l.385.384h1.925l.385.383h2.31l.384-.383.77-.767v-.383l.77-1.15v-1.534l.77-.766 1.155-.384 1.155-.766.384.383h1.54v.383l1.925.384.385.383 1.54-.383.77.766.77 2.3v.384l.384.383v.383l.385.767v1.533l1.155 1.917.77 2.3v1.533l.385.384h.385l.77.383h1.54l.384-.383h.77l.385-.384h.77l1.54.767.77 1.15h.385v.383l2.31-.383.384.383h1.925l.385-.383 1.155-1.15v-.383l1.154-1.534.77-.383.385-.383.385-1.15-.385-.384v-.766l.77-1.15v-.767l.385-.383v-.384l-.385-.383v-1.15l-1.155-3.067-.77-1.15v-.383l-.77-.767 1.155-1.15.385-.383.385-1.533.385-.384v-1.15h-.385l.385-.766.77-.767 1.54-.767 1.155-1.15h.77l1.154-.383 1.155-1.15.385-.383v-1.15l-.385-.384v-.383l-.385-.383-1.155-.384V87.1l1.54-1.15-.385-.767h-.385l-.385-.383 1.54-1.15.385-1.15v-1.15l.385-.383.77-.384.385-1.15 1.54-1.916 1.924-1.15.385-.384h.385l.385.384-3.85.383zm2.45 46.45h-.8l-.4.4-.8.8v1.2l.8 1.2 1.2-.4.8-1.2V124l-.4-.4-.4-.4zm4.202 6.4l-.4.4v.4h.4l.796-.8h-.796zM162.4 97.2h.796l.404-.4h-.404l-.796.4z" stroke="#D5E5FF" stroke-width="3"/>
  </g>
</svg>
