<svg xmlns="http://www.w3.org/2000/svg" viewBox="0 0 361 651">
  <g transform="translate(2 2)" fill="none" fill-rule="evenodd">
    <circle fill="#2E75FE" cx="47.639" cy="146.484" r="5.123"/>
    <circle fill="#2E75FE" transform="rotate(59 76.358 144.735)" cx="76.358" cy="144.735" r="5.123"/>
    <circle fill="#2E75FE" transform="rotate(59 89.385 133.408)" cx="89.385" cy="133.408" r="5.123"/>
    <circle fill="#2E75FE" transform="scale(1 -1) rotate(-59 -914.138 0)" cx="90.487" cy="568.39" r="5"/>
    <circle fill="#2E75FE" transform="scale(1 -1) rotate(-59 -877.928 0)" cx="88.762" cy="546.927" r="5"/>
    <circle fill="#2E75FE" transform="scale(1 -1) rotate(-59 -880.766 0)" cx="79.612" cy="543.355" r="5"/>
    <circle fill="#2E75FE" transform="scale(1 -1) rotate(-59 -876.393 0)" cx="100.337" cy="552.608" r="5"/>
    <circle fill="#2E75FE" transform="scale(1 -1) rotate(-59 -890.556 0)" cx="105.924" cy="563.781" r="5"/>
    <circle fill="#2E75FE" transform="scale(1 -1) rotate(-59 -329.082 0)" cx="117.157" cy="252.47" r="5"/>
    <circle fill="#2E75FE" transform="scale(1 -1) rotate(-59 -870.416 0)" cx="109.631" cy="554.484" r="5"/>
    <circle fill="#2E75FE" transform="scale(1 -1) rotate(-59 -885.416 0)" cx="117.356" cy="567.341" r="5"/>
    <circle fill="#2E75FE" transform="scale(1 -1) rotate(-59 -871.276 0)" cx="124.214" cy="563.221" r="5"/>
    <circle fill="#2E75FE" transform="scale(1 -1) rotate(-59 -172.312 0)" cx="114.185" cy="162.092" r="5"/>
    <circle fill="#2E75FE" transform="scale(1 -1) rotate(-59 -897.741 0)" cx="141.379" cy="587.906" r="5"/>
    <circle fill="#2E75FE" transform="scale(1 -1) rotate(-59 -885.066 0)" cx="152.526" cy="587.041" r="5"/>
    <circle fill="#2E75FE" transform="scale(1 -1) rotate(-59 -885.089 0)" cx="175.515" cy="600.061" r="5"/>
    <circle fill="#2E75FE" transform="scale(1 -1) rotate(-59 -884.949 0)" cx="185.237" cy="605.482" r="5"/>
    <circle fill="#2E75FE" transform="scale(1 -1) rotate(-59 -871.204 0)" cx="193.215" cy="602.219" r="5"/>
    <circle fill="#2E75FE" transform="scale(1 -1) rotate(-59 -890.111 0)" cx="194.421" cy="613.599" r="5"/>
    <circle fill="#2E75FE" transform="scale(1 -1) rotate(-59 -907.809 0)" cx="201.004" cy="627.336" r="5"/>
    <circle fill="#2E75FE" transform="scale(1 -1) rotate(-59 -869.089 0)" cx="167.275" cy="586.346" r="5"/>
    <circle fill="#2E75FE" transform="scale(1 -1) rotate(-59 -849.159 0)" cx="149.94" cy="565.263" r="5"/>
    <circle fill="#2E75FE" transform="scale(1 -1) rotate(-59 -840.229 0)" cx="138.271" cy="553.608" r="5"/>
    <circle fill="#2E75FE" transform="scale(1 -1) rotate(-59 -866.694 0)" cx="152.605" cy="576.692" r="5"/>
    <circle fill="#2E75FE" transform="scale(1 -1) rotate(-59 -901.089 0)" cx="183.756" cy="613.775" r="5"/>
    <circle fill="#2E75FE" transform="scale(1 -1) rotate(-59 -939.764 0)" cx="173.88" cy="630.069" r="5"/>
    <circle fill="#2E75FE" transform="scale(1 -1) rotate(-59 -925.716 0)" cx="183.117" cy="627.347" r="5"/>
    <circle fill="#2E75FE" transform="scale(1 -1) rotate(-59 -884.484 0)" cx="161.249" cy="591.647" r="5"/>
    <circle fill="#2E75FE" transform="scale(1 -1) rotate(-59 -746.527 0)" cx="115.651" cy="487.796" r="5"/>
    <circle fill="#2E75FE" transform="scale(1 -1) rotate(-59 -840.904 0)" cx="120.943" cy="544.187" r="5"/>
    <circle fill="#2E75FE" transform="scale(1 -1) rotate(-59 -855.648 0)" cx="103.793" cy="542.826" r="5"/>
    <circle fill="#2E75FE" transform="scale(1 -1) rotate(-59 -855.253 0)" cx="95.616" cy="537.976" r="5"/>
    <circle fill="#2E75FE" transform="scale(1 -1) rotate(-59 -842.648 0)" cx="97.097" cy="531.682" r="5"/>
    <circle fill="#2E75FE" transform="scale(1 -1) rotate(-59 -839.253 0)" cx="84.744" cy="522.772" r="5"/>
    <circle fill="#2E75FE" transform="scale(1 -1) rotate(-59 -798.366 0)" cx="132.643" cy="526.74" r="5"/>
    <circle fill="#2E75FE" transform="scale(1 -1) rotate(-59 -815.764 0)" cx="122.135" cy="530.638" r="5"/>
    <circle fill="#2E75FE" transform="scale(1 -1) rotate(-59 -796.926 0)" cx="121.271" cy="519.491" r="5"/>
    <circle fill="#2E75FE" transform="scale(1 -1) rotate(-59 -837.974 0)" cx="112.364" cy="537.675" r="5"/>
    <circle fill="#2E75FE" transform="scale(1 -1) rotate(-59 -807.601 0)" cx="109.094" cy="518.641" r="5"/>
    <circle fill="#2E75FE" transform="scale(1 -1) rotate(-59 -817.276 0)" cx="96.402" cy="516.934" r="5"/>
    <circle fill="#2E75FE" transform="scale(1 -1) rotate(-59 -816.881 0)" cx="85.593" cy="510.595" r="5"/>
    <circle fill="#2E75FE" transform="scale(1 -1) rotate(-59 -833.858 0)" cx="71.36" cy="512.148" r="5"/>
    <circle fill="#2E75FE" transform="scale(1 -1) rotate(-59 -812.183 0)" cx="77.871" cy="503.569" r="5"/>
    <circle fill="#2E75FE" transform="scale(1 -1) rotate(-59 -823.09 0)" cx="67.582" cy="503.918" r="5"/>
    <circle fill="#2E75FE" transform="scale(1 -1) rotate(-59 -806.788 0)" cx="64.488" cy="492.944" r="5"/>
    <circle fill="#2E75FE" transform="scale(1 -1) rotate(-59 -798.556 0)" cx="58.48" cy="484.888" r="5"/>
    <circle fill="#2E75FE" transform="scale(1 -1) rotate(-59 -822.23 0)" cx="52.999" cy="495.181" r="5"/>
    <circle fill="#2E75FE" transform="scale(1 -1) rotate(-59 -808.463 0)" cx="47.676" cy="484.38" r="5"/>
    <circle fill="#2E75FE" transform="scale(1 -1) rotate(-59 -784.696 0)" cx="54.326" cy="474.696" r="5"/>
    <circle fill="#2E75FE" transform="scale(1 -1) rotate(-59 -840.3 0)" cx="55.236" cy="506.67" r="5"/>
    <circle fill="#2E75FE" transform="scale(1 -1) rotate(-59 -852.208 0)" cx="45.461" cy="507.877" r="5"/>
    <circle fill="#2E75FE" transform="scale(1 -1) rotate(-59 -838.743 0)" cx="43.164" cy="498.959" r="5"/>
    <circle fill="#2E75FE" transform="scale(1 -1) rotate(-59 -853.256 0)" cx="35.329" cy="502.737" r="5"/>
    <circle fill="#2E75FE" transform="scale(1 -1) rotate(-59 -824.813 0)" cx="38.867" cy="488.647" r="5"/>
    <circle fill="#2E75FE" transform="scale(1 -1) rotate(-59 -137.29 0)" cx="300.231" cy="247.538" r="5"/>
    <circle fill="#2E75FE" transform="scale(1 -1) rotate(-59 -118.987 0)" cx="296.107" cy="234.849" r="5"/>
    <circle fill="#2E75FE" transform="scale(1 -1) rotate(-59 -112.755 0)" cx="291.13" cy="228.507" r="5"/>
    <circle fill="#2E75FE" transform="scale(1 -1) rotate(-59 -799.974 0)" cx="92.793" cy="505.103" r="5"/>
    <circle fill="#2E75FE" transform="scale(1 -1) rotate(-59 -787.206 0)" cx="87.985" cy="495.159" r="5"/>
    <circle fill="#2E75FE" transform="scale(1 -1) rotate(-59 -617.992 0)" cx="81.432" cy="395.715" r="5"/>
    <circle fill="#2E75FE" transform="scale(1 -1) rotate(-59 -731.624 0)" cx="92.94" cy="466.516" r="5"/>
    <circle fill="#2E75FE" transform="scale(1 -1) rotate(-59 -370.78 0)" cx="220.767" cy="334.681" r="5"/>
    <circle fill="#2E75FE" transform="scale(1 -1) rotate(-59 -705.251 0)" cx="91.73" cy="450.91" r="5"/>
    <circle fill="#2E75FE" transform="scale(1 -1) rotate(-59 -690.251 0)" cx="84.004" cy="438.052" r="5"/>
    <circle fill="#2E75FE" transform="scale(1 -1) rotate(-59 -646.669 0)" cx="86.568" cy="414.845" r="5"/>
    <circle fill="#2E75FE" transform="scale(1 -1) rotate(-59 -658.181 0)" cx="74.557" cy="414.563" r="5"/>
    <circle fill="#2E75FE" transform="scale(1 -1) rotate(-59 -638.576 0)" cx="75.064" cy="403.758" r="5"/>
    <circle fill="#2E75FE" transform="scale(1 -1) rotate(-59 -628.669 0)" cx="85.869" cy="404.266" r="5"/>
    <circle fill="#2E75FE" transform="scale(1 -1) rotate(-59 -232.174 0)" cx="256.031" cy="276.213" r="5"/>
    <circle fill="#2E75FE" transform="scale(1 -1) rotate(-59 -269.942 0)" cx="210.422" cy="271.777" r="5"/>
    <circle fill="#2E75FE" transform="scale(1 -1) rotate(-59 -22.588 0)" cx="252.7" cy="155.75" r="5"/>
    <circle fill="#2E75FE" transform="scale(1 -1) rotate(-59 -255.43 0)" cx="159.549" cy="234.784" r="5"/>
    <circle fill="#2E75FE" transform="scale(1 -1) rotate(-59 -151.31 0)" cx="159.978" cy="176.118" r="5"/>
    <circle fill="#2E75FE" transform="scale(1 -1) rotate(-59 -87.01 0)" cx="278.692" cy="206.904" r="5"/>
    <circle fill="#2E75FE" transform="scale(1 -1) rotate(-59 -602.064 0)" cx="82.771" cy="387.461" r="5"/>
    <circle fill="#2E75FE" transform="scale(1 -1) rotate(-59 -574.854 0)" cx="89.967" cy="376.138" r="5"/>
    <circle fill="#2E75FE" transform="scale(1 -1) rotate(-59 -203.057 0)" cx="226.441" cy="242.998" r="5"/>
    <circle fill="#2E75FE" transform="scale(1 -1) rotate(-59 -298.592 0)" cx="102.884" cy="227.144" r="5"/>
    <circle fill="#2E75FE" transform="scale(1 -1) rotate(-59 -270.827 0)" cx="186.305" cy="258.633" r="5"/>
    <circle fill="#2E75FE" transform="scale(1 -1) rotate(-59 -186.662 0)" cx="86.226" cy="154.392" r="5"/>
    <circle fill="#2E75FE" transform="scale(1 -1) rotate(-59 -153.382 0)" cx="97.365" cy="141.866" r="5"/>
    <circle fill="#2E75FE" transform="scale(1 -1) rotate(-59 -124.102 0)" cx="110.565" cy="132.768" r="5"/>
    <circle fill="#2E75FE" transform="scale(1 -1) rotate(-59 -114.405 0)" cx="100.268" cy="121.456" r="5"/>
    <circle fill="#2E75FE" transform="scale(1 -1) rotate(-59 -169.92 0)" cx="277.903" cy="253.366" r="5"/>
    <circle fill="#2E75FE" transform="scale(1 -1) rotate(-59 -203.405 0)" cx="130.839" cy="189.106" r="5"/>
    <circle fill="#2E75FE" transform="scale(1 -1) rotate(-59 -548.179 0)" cx="93.904" cy="363.273" r="5"/>
    <circle fill="#2E75FE" transform="scale(1 -1) rotate(-59 -553.854 0)" cx="86.009" cy="362.017" r="5"/>
    <circle fill="#2E75FE" transform="scale(1 -1) rotate(-59 -538.319 0)" cx="82.261" cy="351.107" r="5"/>
    <circle fill="#2E75FE" transform="scale(1 -1) rotate(-59 -518.109 0)" cx="85.486" cy="341.498" r="5"/>
    <circle fill="#2E75FE" transform="scale(1 -1) rotate(-59 -520.946 0)" cx="74.682" cy="336.99" r="5"/>
    <circle fill="#2E75FE" transform="scale(1 -1) rotate(-59 -495.574 0)" cx="76.159" cy="323.471" r="5"/>
    <circle fill="#2E75FE" transform="scale(1 -1) rotate(-59 -480.039 0)" cx="72.55" cy="312.64" r="5"/>
    <circle fill="#2E75FE" transform="scale(1 -1) rotate(-59 -293.664 0)" cx="153.686" cy="253.098" r="5"/>
    <circle fill="#2E75FE" transform="scale(1 -1) rotate(-59 -503.574 0)" cx="81.535" cy="331.039" r="5"/>
    <circle fill="#2E75FE" transform="scale(1 -1) rotate(-59 -523.969 0)" cx="102.644" cy="354.521" r="5"/>
    <circle fill="#2E75FE" transform="scale(1 -1) rotate(-59 -521.039 0)" cx="94.065" cy="348.009" r="5"/>
    <circle fill="#2E75FE" transform="scale(1 -1) rotate(-59 -505.9 0)" cx="100.408" cy="343.032" r="5"/>
    <circle fill="#2E75FE" transform="scale(1 -1) rotate(-59 -487.062 0)" cx="99.543" cy="331.885" r="5"/>
    <circle fill="#2E75FE" transform="scale(1 -1) rotate(-59 -477.062 0)" cx="94.393" cy="323.313" r="5"/>
    <circle fill="#2E75FE" transform="scale(1 -1) rotate(-59 -465.69 0)" cx="100.908" cy="320.565" r="5"/>
    <circle fill="#2E75FE" transform="scale(1 -1) rotate(-59 -452.154 0)" cx="97.472" cy="310.963" r="5"/>
    <circle fill="#2E75FE" transform="scale(1 -1) rotate(-59 -429.48 0)" cx="103.468" cy="301.527" r="5"/>
    <circle fill="#2E75FE" transform="scale(1 -1) rotate(-59 -477.132 0)" cx="87.359" cy="319.373" r="5"/>
    <circle fill="#2E75FE" transform="scale(1 -1) rotate(-59 -463.9 0)" cx="78.776" cy="307.031" r="5"/>
    <circle fill="#2E75FE" transform="scale(1 -1) rotate(-59 -443.527 0)" cx="80.656" cy="296.568" r="5"/>
    <circle fill="#2E75FE" transform="scale(1 -1) rotate(-59 -419.387 0)" cx="82.363" cy="283.876" r="5"/>
    <circle fill="#2E75FE" transform="scale(1 -1) rotate(-59 -438.387 0)" cx="92.149" cy="300.162" r="5"/>
    <circle fill="#2E75FE" transform="scale(1 -1) rotate(-59 -414.712 0)" cx="97.63" cy="289.869" r="5"/>
    <circle fill="#2E75FE" transform="scale(1 -1) rotate(-59 -375.967 0)" cx="102.42" cy="270.658" r="5"/>
    <circle fill="#2E75FE" transform="scale(1 -1) rotate(-59 -413.34 0)" cx="109.296" cy="295.693" r="5"/>
    <circle fill="#2E75FE" transform="scale(1 -1) rotate(-59 -390.13 0)" cx="118.552" cy="287.798" r="5"/>
    <circle fill="#2E75FE" transform="scale(1 -1) rotate(-59 -327.732 0)" cx="151.812" cy="271.313" r="5"/>
    <circle fill="#2E75FE" transform="scale(1 -1) rotate(-59 -326.57 0)" cx="142.376" cy="265.316" r="5"/>
    <circle fill="#2E75FE" transform="scale(1 -1) rotate(-59 -310.895 0)" cx="151.977" cy="261.88" r="5"/>
    <circle fill="#2E75FE" transform="scale(1 -1) rotate(-59 -285.15 0)" cx="163.463" cy="253.813" r="5"/>
    <circle fill="#2E75FE" transform="scale(1 -1) rotate(-59 -296.662 0)" cx="142.88" cy="248.681" r="5"/>
    <circle fill="#2E75FE" transform="scale(1 -1) rotate(-59 -273.685 0)" cx="154.023" cy="241.985" r="5"/>
    <circle fill="#2E75FE" transform="scale(1 -1) rotate(-59 -268.522 0)" cx="142.527" cy="232.56" r="5"/>
    <circle fill="#2E75FE" transform="scale(1 -1) rotate(-59 -354.407 0)" cx="147.876" cy="284.178" r="5"/>
    <circle fill="#2E75FE" transform="scale(1 -1) rotate(-59 -392.57 0)" cx="176.368" cy="321.889" r="5"/>
    <circle fill="#2E75FE" transform="scale(1 -1) rotate(-59 -407.337 0)" cx="182.207" cy="333.548" r="5"/>
    <circle fill="#2E75FE" transform="scale(1 -1) rotate(-59 -387.895 0)" cx="191.635" cy="327.882" r="5"/>
    <circle fill="#2E75FE" transform="scale(1 -1) rotate(-59 -391.057 0)" cx="202.102" cy="335.593" r="5"/>
    <circle fill="#2E75FE" transform="scale(1 -1) rotate(-59 -401.85 0)" cx="152.868" cy="313.844" r="5"/>
    <circle fill="#2E75FE" transform="scale(1 -1) rotate(-59 -383.85 0)" cx="143.597" cy="298.415" r="5"/>
    <circle fill="#2E75FE" transform="scale(1 -1) rotate(-59 -364.617 0)" cx="131.924" cy="280.929" r="5"/>
    <circle fill="#2E75FE" transform="scale(1 -1) rotate(-59 -332.942 0)" cx="133.285" cy="263.779" r="5"/>
    <circle fill="#2E75FE" transform="scale(1 -1) rotate(-59 -349.477 0)" cx="138.266" cy="275.952" r="5"/>
    <circle fill="#2E75FE" transform="scale(1 -1) rotate(-59 -376.64 0)" cx="161.094" cy="304.235" r="5"/>
    <circle fill="#2E75FE" transform="scale(1 -1) rotate(-59 -364.732 0)" cx="170.868" cy="303.028" r="5"/>
    <circle fill="#2E75FE" transform="scale(1 -1) rotate(-59 -352.5 0)" cx="162.801" cy="291.543" r="5"/>
    <circle fill="#2E75FE" transform="scale(1 -1) rotate(-59 -358.64 0)" cx="151.823" cy="288.806" r="5"/>
    <circle fill="#2E75FE" transform="scale(1 -1) rotate(-59 -328.592 0)" cx="166.395" cy="280.05" r="5"/>
    <circle fill="#2E75FE" transform="scale(1 -1) rotate(-59 -312.522 0)" cx="165.188" cy="270.275" r="5"/>
    <circle fill="#2E75FE" transform="scale(1 -1) rotate(-59 -292.777 0)" cx="179.764" cy="267.351" r="5"/>
    <circle fill="#2E75FE" transform="scale(1 -1) rotate(-59 -267.497 0)" cx="195.024" cy="261.682" r="5"/>
    <circle fill="#2E75FE" transform="scale(1 -1) rotate(-59 -259.125 0)" cx="203.084" cy="261.505" r="5"/>
    <circle fill="#2E75FE" transform="scale(1 -1) rotate(-59 -244.217 0)" cx="211.313" cy="257.727" r="5"/>
    <circle fill="#2E75FE" transform="scale(1 -1) rotate(-59 -214.775 0)" cx="215.592" cy="243.49" r="5"/>
    <circle fill="#2E75FE" transform="scale(1 -1) rotate(-59 -211.868 0)" cx="230.002" cy="249.998" r="5"/>
    <circle fill="#2E75FE" transform="scale(1 -1) rotate(-59 -200.96 0)" cx="240.292" cy="249.648" r="5"/>
    <circle fill="#2E75FE" transform="scale(1 -1) rotate(-59 -206.658 0)" cx="248.528" cy="257.532" r="5"/>
    <circle fill="#2E75FE" transform="scale(1 -1) rotate(-59 -254.682 0)" cx="220.238" cy="268.697" r="5"/>
    <circle fill="#2E75FE" transform="scale(1 -1) rotate(-59 -238.007 0)" cx="229.325" cy="264.404" r="5"/>
    <circle fill="#2E75FE" transform="scale(1 -1) rotate(-59 -219.333 0)" cx="237.382" cy="258.396" r="5"/>
    <circle fill="#2E75FE" transform="scale(1 -1) rotate(-59 -273.985 0)" cx="224.877" cy="282.243" r="5"/>
    <circle fill="#2E75FE" transform="scale(1 -1) rotate(-59 -273.845 0)" cx="238.945" cy="290.123" r="5"/>
    <circle fill="#2E75FE" transform="scale(1 -1) rotate(-59 -249.263 0)" cx="231.799" cy="272.171" r="5"/>
    <circle fill="#2E75FE" transform="scale(1 -1) rotate(-59 -190.843 0)" cx="268.092" cy="259.653" r="5"/>
    <circle fill="#2E75FE" transform="scale(1 -1) rotate(-59 -172.843 0)" cx="287.667" cy="260.544" r="5"/>
    <circle fill="#2E75FE" transform="scale(1 -1) rotate(-59 -226.495 0)" cx="245.622" cy="267.111" r="5"/>
    <circle fill="#2E75FE" transform="scale(1 -1) rotate(-59 -212.588 0)" cx="260.886" cy="267.878" r="5"/>
    <circle fill="#2E75FE" transform="scale(1 -1) rotate(-59 -279.892 0)" cx="212.012" cy="278.306" r="5"/>
    <circle fill="#2E75FE" transform="scale(1 -1) rotate(-59 -287.287 0)" cx="226.426" cy="290.645" r="5"/>
    <circle fill="#2E75FE" transform="scale(1 -1) rotate(-59 -160.983 0)" cx="305.554" cy="263.954" r="5"/>
    <circle fill="#2E75FE" transform="scale(1 -1) rotate(-59 -154.493 0)" cx="284.96" cy="248.631" r="5"/>
    <circle fill="#2E75FE" transform="scale(1 -1) rotate(-59 -420.08 0)" cx="220.449" cy="362.394" r="5"/>
    <circle fill="#2E75FE" transform="scale(1 -1) rotate(-59 -310.892 0)" cx="227.979" cy="304.878" r="5"/>
    <circle fill="#2E75FE" transform="scale(1 -1) rotate(-59 -306.497 0)" cx="215.11" cy="295.111" r="5"/>
    <circle fill="#2E75FE" transform="scale(1 -1) rotate(-59 -330.522 0)" cx="174.459" cy="285.704" r="5"/>
    <circle fill="#2E75FE" transform="scale(1 -1) rotate(-59 -305.01 0)" cx="187.831" cy="278.836" r="5"/>
    <circle fill="#2E75FE" transform="scale(1 -1) rotate(-59 -363.662 0)" cx="177.387" cy="306.111" r="5"/>
    <circle fill="#2E75FE" transform="scale(1 -1) rotate(-59 -333.917 0)" cx="186.812" cy="294.615" r="5"/>
    <circle fill="#2E75FE" transform="scale(1 -1) rotate(-59 -328.01 0)" cx="199.677" cy="298.551" r="5"/>
    <circle fill="#2E75FE" transform="scale(1 -1) rotate(-59 -313.335 0)" cx="209.794" cy="295.972" r="5"/>
    <circle fill="#2E75FE" transform="scale(1 -1) rotate(-59 -324.335 0)" cx="215.459" cy="305.401" r="5"/>
    <circle fill="#2E75FE" transform="scale(1 -1) rotate(-59 -356.755 0)" cx="189.737" cy="309.19" r="5"/>
    <circle fill="#2E75FE" transform="scale(1 -1) rotate(-59 -352.847 0)" cx="203.632" cy="314.841" r="5"/>
    <circle fill="#2E75FE" transform="scale(1 -1) rotate(-59 -365.917 0)" cx="203.294" cy="322.044" r="5"/>
    <circle fill="#2E75FE" transform="scale(1 -1) rotate(-59 -346.172 0)" cx="217.869" cy="319.119" r="5"/>
    <circle fill="#2E75FE" transform="scale(1 -1) rotate(-59 -366.312 0)" cx="214.102" cy="328.383" r="5"/>
    <circle fill="#2E75FE" transform="scale(1 -1) rotate(-59 -395.15 0)" cx="213.02" cy="344.086" r="5"/>
    <circle fill="#2E75FE" transform="scale(1 -1) rotate(-59 -411.917 0)" cx="208.505" cy="351.018" r="5"/>
    <circle fill="#2E75FE" transform="scale(1 -1) rotate(-59 -366.757 0)" cx="118.886" cy="274.764" r="5"/>
    <circle fill="#2E75FE" transform="scale(1 -1) rotate(-59 -349.222 0)" cx="113.39" cy="261.733" r="5"/>
    <circle fill="#2E75FE" transform="scale(1 -1) rotate(-59 -318.942 0)" cx="126.075" cy="251.778" r="5"/>
    <circle fill="#2E75FE" transform="scale(1 -1) rotate(-59 -287.197 0)" cx="134.47" cy="238.568" r="5"/>
    <circle fill="#2E75FE" transform="scale(1 -1) rotate(-59 -349.734 0)" cx="87.142" cy="247.173" r="5"/>
    <circle fill="#2E75FE" transform="scale(1 -1) rotate(-59 -322.524 0)" cx="94.337" cy="235.849" r="5"/>
    <circle fill="#2E75FE" transform="scale(1 -1) rotate(-59 -291.942 0)" cx="112.169" cy="228.635" r="5"/>
    <circle fill="#2E75FE" transform="scale(1 -1) rotate(-59 -258.662 0)" cx="123.308" cy="216.108" r="5"/>
    <circle fill="#2E75FE" transform="scale(1 -1) rotate(-59 -249.522 0)" cx="132.741" cy="216.274" r="5"/>
    <circle fill="#2E75FE" transform="scale(1 -1) rotate(-59 -231.847 0)" cx="141.312" cy="211.124" r="5"/>
    <circle fill="#2E75FE" transform="scale(1 -1) rotate(-59 -210.335 0)" cx="156.745" cy="207.684" r="5"/>
    <circle fill="#2E75FE" transform="scale(1 -1) rotate(-59 -181.59 0)" cx="166.685" cy="197.045" r="5"/>
    <circle fill="#2E75FE" transform="scale(1 -1) rotate(-59 -170.915 0)" cx="178.862" cy="197.894" r="5"/>
    <circle fill="#2E75FE" transform="scale(1 -1) rotate(-59 -159.472 0)" cx="192.411" cy="199.086" r="5"/>
    <circle fill="#2E75FE" transform="scale(1 -1) rotate(-59 -155.868 0)" cx="201.16" cy="201.996" r="5"/>
    <circle fill="#2E75FE" transform="scale(1 -1) rotate(-59 -218.8 0)" cx="164.64" cy="216.94" r="5"/>
    <circle fill="#2E75FE" transform="scale(1 -1) rotate(-59 -190.287 0)" cx="176.467" cy="207.5" r="5"/>
    <circle fill="#2E75FE" transform="scale(1 -1) rotate(-59 -193.985 0)" cx="183.674" cy="213.669" r="5"/>
    <circle fill="#2E75FE" transform="scale(1 -1) rotate(-59 -179.775 0)" cx="197.565" cy="213.489" r="5"/>
    <circle fill="#2E75FE" transform="scale(1 -1) rotate(-59 -179.17 0)" cx="207.859" cy="218.97" r="5"/>
    <circle fill="#2E75FE" transform="scale(1 -1) rotate(-59 -213.357 0)" cx="181.279" cy="223.275" r="5"/>
    <circle fill="#2E75FE" transform="scale(1 -1) rotate(-59 -319.292 0)" cx="90.905" cy="232.078" r="5"/>
    <circle fill="#2E75FE" transform="scale(1 -1) rotate(-59 -347.06 0)" cx="103.439" cy="254.88" r="5"/>
    <circle fill="#2E75FE" transform="scale(1 -1) rotate(-59 -324.92 0)" cx="106.176" cy="243.902" r="5"/>
    <circle fill="#2E75FE" transform="scale(1 -1) rotate(-59 -302.407 0)" cx="121.094" cy="239.605" r="5"/>
    <circle fill="#2E75FE" transform="scale(1 -1) rotate(-59 -276.197 0)" cx="128.804" cy="229.139" r="5"/>
    <circle fill="#2E75FE" transform="scale(1 -1) rotate(-59 -506.76 0)" cx="114.991" cy="351.769" r="5"/>
    <circle fill="#2E75FE" transform="scale(1 -1) rotate(-59 -478.41 0)" cx="121.965" cy="339.675" r="5"/>
    <circle fill="#2E75FE" transform="scale(1 -1) rotate(-59 -129.892 0)" cx="311.54" cy="249.75" r="5"/>
    <circle fill="#2E75FE" transform="scale(1 -1) rotate(-59 -166.378 0)" cx="169.649" cy="190.115" r="5"/>
    <circle fill="#2E75FE" transform="scale(1 -1) rotate(-59 -410.687 0)" cx="158.131" cy="321.822" r="5"/>
    <circle fill="#2E75FE" transform="scale(1 -1) rotate(-59 -402.942 0)" cx="169.338" cy="323.78" r="5"/>
    <circle fill="#2E75FE" transform="scale(1 -1) rotate(-59 -433.222 0)" cx="154.74" cy="332.653" r="5"/>
    <circle fill="#2E75FE" transform="scale(1 -1) rotate(-59 -418.78 0)" cx="166.345" cy="331.048" r="5"/>
    <circle fill="#2E75FE" transform="scale(1 -1) rotate(-59 -427.477 0)" cx="178.439" cy="342.811" r="5"/>
    <circle fill="#2E75FE" transform="scale(1 -1) rotate(-59 -189.637 0)" cx="289.258" cy="270.946" r="5"/>
    <circle fill="#2E75FE" transform="scale(1 -1) rotate(-59 -440.06 0)" cx="170.634" cy="345.514" r="5"/>
    <circle fill="#2E75FE" transform="scale(1 -1) rotate(-59 -191.752 0)" cx="278.499" cy="266.055" r="5"/>
    <circle fill="#2E75FE" transform="scale(1 -1) rotate(-59 -493.457 0)" cx="113.442" cy="343.367" r="5"/>
    <circle fill="#2E75FE" transform="scale(1 -1) rotate(-59 -466.712 0)" cx="124.412" cy="334.442" r="5"/>
    <circle fill="#2E75FE" transform="scale(1 -1) rotate(-59 -30.355 0)" cx="312.502" cy="193.979" r="5"/>
    <circle fill="#2E75FE" transform="scale(1 -1) rotate(-59 -443.967 0)" cx="129.867" cy="324.66" r="5"/>
    <circle fill="#2E75FE" transform="scale(1 -1) rotate(-59 -463.247 0)" cx="119.092" cy="329.472" r="5"/>
    <circle fill="#2E75FE" transform="scale(1 -1) rotate(-59 -477.387 0)" cx="112.235" cy="333.592" r="5"/>
    <circle fill="#2E75FE" transform="scale(1 -1) rotate(-59 -444.41 0)" cx="118.228" cy="318.325" r="5"/>
    <circle fill="#2E75FE" transform="scale(1 -1) rotate(-59 -424.502 0)" cx="123.882" cy="310.261" r="5"/>
    <circle fill="#2E75FE" transform="scale(1 -1) rotate(-59 -399.06 0)" cx="130.221" cy="299.452" r="5"/>
    <circle fill="#2E75FE" transform="scale(1 -1) rotate(-59 -413.292 0)" cx="135.033" cy="310.227" r="5"/>
    <circle fill="#2E75FE" transform="scale(1 -1) rotate(-59 -398.454 0)" cx="144.86" cy="307.393" r="5"/>
    <circle fill="#2E75FE" transform="scale(1 -1) rotate(-59 -451.55 0)" cx="107.765" cy="316.445" r="5"/>
    <circle fill="#2E75FE" transform="scale(1 -1) rotate(-59 -429.642 0)" cx="112.39" cy="306.667" r="5"/>
    <circle fill="#2E75FE" transform="scale(1 -1) rotate(-59 -682.879 0)" cx="92.579" cy="438.733" r="5"/>
    <circle fill="#2E75FE" transform="scale(1 -1) rotate(-59 -429.572 0)" cx="209.79" cy="361.733" r="5"/>
    <circle fill="#2E75FE" transform="scale(1 -1) rotate(-59 -424.55 0)" cx="228.64" cy="369.556" r="5"/>
    <circle fill="#2E75FE" transform="scale(1 -1) rotate(-59 -655.669 0)" cx="99.775" cy="427.41" r="5"/>
    <circle fill="#2E75FE" transform="scale(1 -1) rotate(-59 -795.113 0)" cx="76.15" cy="492.937" r="5"/>
    <circle fill="#2E75FE" transform="scale(1 -1) rotate(-59 -307.172 0)" cx="197.783" cy="285.69" r="5"/>
    <circle fill="#2E75FE" transform="scale(1 -1) rotate(-59 -750.764 0)" cx="88.658" cy="474.922" r="5"/>
    <circle fill="#2E75FE" transform="scale(1 -1) rotate(-59 -779.811 0)" cx="73.571" cy="482.82" r="5"/>
    <circle fill="#2E75FE" transform="scale(1 -1) rotate(-59 -771.113 0)" cx="63.789" cy="472.365" r="5"/>
    <circle fill="#2E75FE" transform="scale(1 -1) rotate(-59 -752.741 0)" cx="66.699" cy="463.617" r="5"/>
    <circle fill="#2E75FE" transform="scale(1 -1) rotate(-59 -742.276 0)" cx="53.488" cy="450.222" r="5"/>
    <circle fill="#2E75FE" transform="scale(1 -1) rotate(-59 -711.461 0)" cx="73.718" cy="444.233" r="5"/>
    <circle fill="#2E75FE" transform="scale(1 -1) rotate(-59 -691.624 0)" cx="72.338" cy="432.229" r="5"/>
    <circle fill="#2E75FE" transform="scale(1 -1) rotate(-59 -703.299 0)" cx="64.304" cy="434.289" r="5"/>
    <circle fill="#2E75FE" transform="scale(1 -1) rotate(-59 -674.646 0)" cx="69.308" cy="420.909" r="5"/>
    <circle fill="#2E75FE" transform="scale(1 -1) rotate(-59 -693.299 0)" cx="55.526" cy="423.665" r="5"/>
    <circle fill="#2E75FE" transform="scale(1 -1) rotate(-59 -572.389 0)" cx="83.35" cy="370.999" r="5"/>
    <circle fill="#2E75FE" transform="scale(1 -1) rotate(-59 -28.913 0)" cx="234.541" cy="149.055" r="5"/>
    <circle fill="#2E75FE" transform="scale(1 -1) rotate(-59 -228.588 0)" cx="48.793" cy="156.935" r="5"/>
    <circle fill="#2E75FE" transform="scale(1 -1) rotate(-59 -112.615 0)" cx="281.275" cy="222.852" r="5"/>
    <circle fill="#2E75FE" transform="scale(1 -1) rotate(-59 -343.267 0)" cx="95.301" cy="248.13" r="5"/>
    <circle fill="#2E75FE" transform="scale(1 -1) rotate(-59 -170.477 0)" cx="306.824" cy="270.044" r="5"/>
    <circle fill="#2E75FE" transform="scale(1 -1) rotate(-59 -523.854 0)" cx="113.977" cy="360.867" r="5"/>
    <circle fill="#2E75FE" transform="scale(1 -1) rotate(-59 -153.895 0)" cx="274.255" cy="242.236" r="5"/>
    <circle fill="#2E75FE" transform="scale(1 -1) rotate(-59 -133.29 0)" cx="274.248" cy="230.574" r="5"/>
    <circle fill="#2E75FE" transform="scale(1 -1) rotate(-59 -169.802 0)" cx="266.541" cy="246.871" r="5"/>
    <circle fill="#2E75FE" transform="scale(1 -1) rotate(-59 -173.942 0)" cx="254.533" cy="242.42" r="5"/>
    <circle fill="#2E75FE" transform="scale(1 -1) rotate(-59 -167.012 0)" cx="243.894" cy="232.479" r="5"/>
    <circle fill="#2E75FE" transform="scale(1 -1) rotate(-59 -182.454 0)" cx="232.405" cy="234.716" r="5"/>
    <circle fill="#2E75FE" transform="scale(1 -1) rotate(-59 -162.314 0)" cx="236.172" cy="225.453" r="5"/>
    <circle fill="#2E75FE" transform="scale(1 -1) rotate(-59 -189.152 0)" cx="241.157" cy="243.457" r="5"/>
    <circle fill="#2E75FE" transform="scale(1 -1) rotate(-59 -47.707 0)" cx="287.675" cy="189.75" r="5"/>
    <circle fill="#2E75FE" transform="scale(1 -1) rotate(-59 -154.5 0)" cx="263.962" cy="236.754" r="5"/>
    <circle fill="#2E75FE" transform="scale(1 -1) rotate(-59 -134.732 0)" cx="255.549" cy="220.81" r="5"/>
    <circle fill="#2E75FE" transform="scale(1 -1) rotate(-59 -111.522 0)" cx="264.804" cy="212.915" r="5"/>
    <circle fill="#2E75FE" transform="scale(1 -1) rotate(-59 -129.035 0)" cx="247.312" cy="212.926" r="5"/>
    <circle fill="#2E75FE" transform="scale(1 -1) rotate(-59 -117.267 0)" cx="243.018" cy="203.84" r="5"/>
    <circle fill="#2E75FE" transform="scale(1 -1) rotate(-59 -88.36 0)" cx="244.037" cy="188.061" r="5"/>
    <circle fill="#2E75FE" transform="scale(1 -1) rotate(-59 -82.43 0)" cx="233.913" cy="178.978" r="5"/>
    <circle fill="#2E75FE" transform="scale(1 -1) rotate(-59 -72.965 0)" cx="225.503" cy="168.865" r="5"/>
    <circle fill="#2E75FE" transform="scale(1 -1) rotate(-59 -92.337 0)" cx="223.108" cy="178.47" r="5"/>
    <circle fill="#2E75FE" transform="scale(1 -1) rotate(-59 -65.15 0)" cx="253.293" cy="180.166" r="5"/>
    <circle fill="#2E75FE" transform="scale(1 -1) rotate(-59 -58.22 0)" cx="242.654" cy="170.226" r="5"/>
    <circle fill="#2E75FE" transform="scale(1 -1) rotate(-59 -42.382 0)" cx="243.335" cy="161.651" r="5"/>
    <circle fill="#2E75FE" transform="scale(1 -1) rotate(-59 -47.755 0)" cx="233.729" cy="159.256" r="5"/>
    <circle fill="#2E75FE" transform="scale(1 -1) rotate(-59 -143.481 0)" cx="321.323" cy="262.974" r="5"/>
    <circle fill="#2E75FE" transform="scale(1 -1) rotate(-59 -134.78 0)" cx="225.526" cy="203.851" r="5"/>
    <circle fill="#2E75FE" transform="scale(1 -1) rotate(-59 -114.337 0)" cx="234.439" cy="197.328" r="5"/>
    <circle fill="#2E75FE" transform="scale(1 -1) rotate(-59 -100.57 0)" cx="229.116" cy="186.527" r="5"/>
    <circle fill="#2E75FE" transform="scale(1 -1) rotate(-59 -115.477 0)" cx="220.886" cy="190.305" r="5"/>
    <circle fill="#2E75FE" transform="scale(1 -1) rotate(-59 -133.36 0)" cx="267.214" cy="226.634" r="5"/>
    <circle fill="#2E75FE" transform="scale(1 -1) rotate(-59 -105.15 0)" cx="273.895" cy="214.453" r="5"/>
    <circle fill="#2E75FE" transform="scale(1 -1) rotate(-59 -92.917 0)" cx="265.827" cy="202.968" r="5"/>
    <circle fill="#2E75FE" transform="scale(1 -1) rotate(-59 -64.637 0)" cx="279.542" cy="194.727" r="5"/>
    <circle fill="#2E75FE" transform="scale(1 -1) rotate(-59 -65.242 0)" cx="269.248" cy="189.246" r="5"/>
    <circle fill="#2E75FE" transform="scale(1 -1) rotate(-59 -104.825 0)" cx="256.052" cy="204.174" r="5"/>
    <circle fill="#2E75FE" transform="scale(1 -1) rotate(-59 -89.755 0)" cx="255.361" cy="195.257" r="5"/>
    <circle fill="#2E75FE" transform="scale(1 -1) rotate(-59 -61.01 0)" cx="265.301" cy="184.618" r="5"/>
    <circle fill="#2E75FE" transform="scale(1 -1) rotate(-59 -43.405 0)" cx="266.839" cy="175.527" r="5"/>
    <circle fill="#2E75FE" transform="scale(1 -1) rotate(-59 -33.707 0)" cx="256.542" cy="164.215" r="5"/>
    <circle fill="#2E75FE" transform="scale(1 -1) rotate(-59 -189.014 0)" cx="259.737" cy="253.891" r="5"/>
    <circle fill="#2E75FE" transform="scale(1 -1) rotate(-59 -22.8 0)" cx="266.831" cy="163.865" r="5"/>
    <circle fill="#2E75FE" transform="scale(1 -1) rotate(-59 -15.66 0)" cx="277.294" cy="165.745" r="5"/>
    <circle fill="#2E75FE" transform="scale(1 -1) rotate(-59 -116.364 0)" cx="344.474" cy="260.73" r="5"/>
    <circle fill="#2E75FE" transform="scale(1 -1) rotate(-59 -118.807 0)" cx="326.29" cy="251.823" r="5"/>
    <circle fill="#2E75FE" transform="scale(1 -1) rotate(-59 -93.457 0)" cx="348.583" cy="250.094" r="5"/>
    <circle fill="#2E75FE" transform="scale(1 -1) rotate(-59 -66.317 0)" cx="348.745" cy="234.831" r="5"/>
    <circle fill="#2E75FE" transform="scale(1 -1) rotate(-59 -368.319 0)" cx="156.933" cy="297.173" r="5"/>
    <circle fill="#2E75FE" transform="scale(1 -1) rotate(-59 -164.755 0)" cx="138.896" cy="171.797" r="5"/>
    <circle fill="#2E75FE" transform="scale(1 -1) rotate(-59 -114.89 0)" cx="48.603" cy="92.5" r="5"/>
    <circle fill="#2E75FE" transform="scale(1 -1) rotate(-59 -408.062 0)" cx="67.607" cy="269.12" r="5"/>
    <circle fill="#2E75FE" transform="scale(1 -1) rotate(-59 -417.132 0)" cx="56.457" cy="267.943" r="5"/>
    <circle fill="#2E75FE" transform="scale(1 -1) rotate(-59 -405.364 0)" cx="52.163" cy="258.857" r="5"/>
    <circle fill="#2E75FE" transform="scale(1 -1) rotate(-59 -382.852 0)" cx="67.081" cy="254.56" r="5"/>
    <circle fill="#2E75FE" transform="scale(1 -1) rotate(-59 -206.922 0)" cx="273.426" cy="271.767" r="5"/>
    <circle fill="#2E75FE" transform="scale(1 -1) rotate(-59 -137.36 0)" cx="199.761" cy="190.733" r="5"/>
    <circle fill="#2E75FE" transform="scale(1 -1) rotate(-59 -243.222 0)" cx="145.753" cy="220.071" r="5"/>
    <circle fill="#2E75FE" transform="scale(1 -1) rotate(-59 -411.109 0)" cx="119.107" cy="299.982" r="5"/>
    <circle fill="#2E75FE" transform="scale(1 -1) rotate(-59 -443.132 0)" cx="69.848" cy="290.23" r="5"/>
    <circle fill="#2E75FE" transform="scale(1 -1) rotate(-59 -424.294 0)" cx="68.983" cy="279.083" r="5"/>
    <circle fill="#2E75FE" transform="scale(1 -1) rotate(-59 -387.55 0)" cx="77.235" cy="262.962" r="5"/>
    <circle fill="#2E75FE" transform="scale(1 -1) rotate(-59 -369.107 0)" cx="84.747" cy="256.778" r="5"/>
    <circle fill="#2E75FE" transform="scale(1 -1) rotate(-59 -363.41 0)" cx="76.51" cy="248.894" r="5"/>
    <circle fill="#2E75FE" transform="scale(1 -1) rotate(-59 -376.572 0)" cx="92.127" cy="265.177" r="5"/>
    <circle fill="#2E75FE" transform="scale(1 -1) rotate(-59 -403.55 0)" cx="83.044" cy="275.301" r="5"/>
    <circle fill="#2E75FE" transform="scale(1 -1) rotate(-59 -398.41 0)" cx="94.536" cy="278.895" r="5"/>
    <circle fill="#2E75FE" transform="scale(1 -1) rotate(-59 -385.852 0)" cx="106.463" cy="278.538" r="5"/>
    <circle fill="#2E75FE" transform="scale(1 -1) rotate(-59 -115.969 0)" cx="333.666" cy="254.391" r="5"/>
    <circle fill="#2E75FE" transform="scale(1 -1) rotate(-59 -92.294 0)" cx="339.147" cy="244.098" r="5"/>
    <circle fill="#2E75FE" transform="scale(1 -1) rotate(-59 -53.55 0)" cx="343.937" cy="224.887" r="5"/>
    <circle fill="#2E75FE" transform="scale(1 -1) rotate(-59 -26.41 0)" cx="344.099" cy="209.623" r="5"/>
    <circle fill="#2E75FE" transform="scale(1 -1) rotate(-88 -87.647 0)" cx="51.106" cy="133.992" r="5"/>
    <circle fill="#2E75FE" transform="scale(1 -1) rotate(-88 -79.327 0)" cx="60.135" cy="134.677" r="5"/>
    <circle fill="#2E75FE" transform="scale(1 -1) rotate(-59 -386.667 0)" cx="37.231" cy="239.83" r="5"/>
    <circle fill="#2E75FE" transform="scale(1 -1) rotate(-59 -365.992 0)" cx="46.829" cy="233.563" r="5"/>
    <circle fill="#2E75FE" transform="scale(1 -1) rotate(-88 -57.15 0)" cx="64.539" cy="117.513" r="5"/>
    <circle fill="#2E75FE" transform="scale(1 -1) rotate(-88 -35.83 0)" cx="73.115" cy="105.206" r="5"/>
    <circle fill="#2E75FE" transform="scale(1 -1) rotate(-88 -7.474 0)" cx="91.723" cy="95.794" r="5"/>
    <circle fill="#2E75FE" transform="scale(1 -1) rotate(-59 -157.497 0)" cx="20.318" cy="100.603" r="5"/>
    <circle fill="#2E75FE" transform="scale(1 -1) rotate(-88 9.81 0)" cx="90.161" cy="77.594" r="5"/>
    <circle fill="#2E75FE" transform="scale(1 -1) rotate(-59 -255.222 0)" cx="64.977" cy="181.16" r="5"/>
    <circle fill="#2E75FE" transform="scale(1 -1) rotate(-59 -115.615 0)" cx="90.427" cy="116.573" r="5"/>
    <circle fill="#2E75FE" transform="scale(1 -1) rotate(-59 -147.707 0)" cx="42.367" cy="107.539" r="5"/>
    <circle fill="#2E75FE" transform="scale(1 -1) rotate(-59 -236.384 0)" cx="64.112" cy="170.013" r="5"/>
    <circle fill="#2E75FE" transform="scale(1 -1) rotate(-59 -215.547 0)" cx="60.962" cy="156.441" r="5"/>
    <circle fill="#2E75FE" transform="scale(1 -1) rotate(-59 -226.942 0)" cx="78.691" cy="172.919" r="5"/>
    <circle fill="#2E75FE" transform="scale(1 -1) rotate(-59 -206.64 0)" cx="73.537" cy="158.516" r="5"/>
    <circle fill="#2E75FE" transform="scale(1 -1) rotate(-59 -120.542 0)" cx="24.735" cy="82.194" r="5"/>
    <circle fill="#2E75FE" transform="scale(1 -1) rotate(-59 -166.497 0)" cx="27.446" cy="109.728" r="5"/>
    <circle fill="#2E75FE" transform="scale(1 -1) rotate(-59 -299.037 0)" cx="55.728" cy="200.716" r="5"/>
    <circle fill="#2E75FE" transform="scale(1 -1) rotate(-59 -86.52 0)" cx="77.468" cy="92.78" r="5"/>
    <circle fill="#2E75FE" transform="scale(1 -1) rotate(-59 -267.222 0)" cx="71.157" cy="191.446" r="5"/>
    <circle fill="#2E75FE" transform="scale(1 -1) rotate(-59 -284.524 0)" cx="74.766" cy="203.277" r="5"/>
    <circle fill="#2E75FE" transform="scale(1 -1) rotate(-59 -249.617 0)" cx="55.292" cy="172.509" r="5"/>
    <circle fill="#2E75FE" transform="scale(1 -1) rotate(-59 -259.547 0)" cx="84.879" cy="194.867" r="5"/>
    <circle fill="#2E75FE" transform="scale(1 -1) rotate(-59 -245.012 0)" cx="80.928" cy="184.408" r="5"/>
    <circle fill="#2E75FE" transform="scale(1 -1) rotate(-59 -43.922 0)" cx="326.606" cy="209.634" r="5"/>
    <circle fill="#2E75FE" transform="scale(1 -1) rotate(-59 -154.667 0)" cx="300.43" cy="257.481" r="5"/>
    <circle fill="#2E75FE" transform="scale(1 -1) rotate(-59 -193.15 0)" cx="67.821" cy="147.65" r="5"/>
    <circle fill="#2E75FE" transform="scale(1 -1) rotate(-88 -92.398 0)" cx="58.52" cy="145.74" r="5"/>
    <circle fill="#2E75FE" transform="scale(1 -1) rotate(-59 -94.89 0)" cx="51.479" cy="82.812" r="5"/>
    <circle fill="#2E75FE" transform="scale(1 -1) rotate(-59 -161.195 0)" cx="57.986" cy="124.007" r="5"/>
    <circle fill="#2E75FE" transform="scale(1 -1) rotate(-59 -371.922 0)" cx="54.382" cy="241.191" r="5"/>
    <circle fill="#2E75FE" transform="scale(1 -1) rotate(-59 -350.55 0)" cx="55.747" cy="229.871" r="5"/>
    <circle fill="#2E75FE" transform="scale(1 -1) rotate(-59 -319.804 0)" cx="64.657" cy="217.517" r="5"/>
    <circle fill="#2E75FE" transform="scale(1 -1) rotate(-59 -291.06 0)" cx="74.597" cy="206.878" r="5"/>
    <circle fill="#2E75FE" transform="scale(1 -1) rotate(-59 -309.037 0)" cx="60.878" cy="209.288" r="5"/>
    <circle fill="#2E75FE" transform="scale(1 -1) rotate(-59 -246.105 0)" cx="97.398" cy="194.344" r="5"/>
    <circle fill="#2E75FE" transform="scale(1 -1) rotate(-59 -224.732 0)" cx="98.763" cy="183.025" r="5"/>
    <circle fill="#2E75FE" transform="scale(1 -1) rotate(-59 -191.29 0)" cx="100.981" cy="165.359" r="5"/>
    <circle fill="#2E75FE" transform="scale(1 -1) rotate(-59 -210.267 0)" cx="87.778" cy="168.626" r="5"/>
    <circle fill="#2E75FE" transform="scale(1 -1) rotate(-59 -263.942 0)" cx="97.748" cy="204.634" r="5"/>
    <circle fill="#2E75FE" transform="scale(1 -1) rotate(-59 -242.197 0)" cx="111.293" cy="199.995" r="5"/>
    <circle fill="#2E75FE" transform="scale(1 -1) rotate(-59 -290.454 0)" cx="84.89" cy="212.36" r="5"/>
    <circle fill="#2E75FE" transform="scale(1 -1) rotate(-59 -318.2 0)" cx="74.435" cy="222.142" r="5"/>
    <circle fill="#2E75FE" transform="scale(1 -1) rotate(-59 -352.944 0)" cx="67.585" cy="237.924" r="5"/>
    <circle fill="#2E75FE" transform="scale(1 -1) rotate(-59 -383.154 0)" cx="61.934" cy="251.819" r="5"/>
    <circle fill="#2E75FE" transform="scale(1 -1) rotate(-59 -330.967 0)" cx="79.243" cy="232.086" r="5"/>
    <circle fill="#2E75FE" transform="scale(1 -1) rotate(-59 -305.99 0)" cx="89.356" cy="223.676" r="5"/>
    <circle fill="#2E75FE" transform="scale(1 -1) rotate(-59 -280.942 0)" cx="106.503" cy="219.206" r="5"/>
    <circle fill="#2E75FE" transform="scale(1 -1) rotate(-59 -252.197 0)" cx="116.444" cy="208.567" r="5"/>
    <circle fill="#2E75FE" transform="scale(1 -1) rotate(-59 -222.917 0)" cx="129.643" cy="199.469" r="5"/>
    <circle fill="#2E75FE" transform="scale(1 -1) rotate(-59 -215.987 0)" cx="119.004" cy="189.529" r="5"/>
    <circle fill="#2E75FE" transform="scale(1 -1) rotate(-59 -195.172 0)" cx="151.362" cy="196.059" r="5"/>
    <circle fill="#2E75FE" transform="scale(1 -1) rotate(-59 -180.032 0)" cx="146.441" cy="184.71" r="5"/>
    <circle fill="#2E75FE" transform="scale(1 -1) rotate(-59 -169.357 0)" cx="158.618" cy="185.559" r="5"/>
    <circle fill="#2E75FE" transform="scale(1 -1) rotate(-59 -148.147 0)" cx="168.904" cy="179.379" r="5"/>
    <circle fill="#2E75FE" transform="scale(1 -1) rotate(-59 -143.007 0)" cx="180.396" cy="182.973" r="5"/>
    <circle fill="#2E75FE" transform="scale(1 -1) rotate(-59 -138.402 0)" cx="188.63" cy="185.026" r="5"/>
    <circle fill="#2E75FE" transform="scale(1 -1) rotate(-59 -79.294 0)" cx="332.452" cy="232.954" r="5"/>
    <circle fill="#2E75FE" transform="scale(1 -1) rotate(-59 -57.457 0)" cx="330.042" cy="219.236" r="5"/>
    <circle fill="#2E75FE" transform="scale(1 -1) rotate(-88 -103.18 0)" cx="36.115" cy="134.515" r="5"/>
    <circle fill="#2E75FE" transform="scale(1 -1) rotate(-88 -53.682 0)" cx="76.969" cy="126.168" r="5"/>
    <circle fill="#2E75FE" transform="scale(1 -1) rotate(-88 -81.824 0)" cx="45.725" cy="123.173" r="5"/>
    <circle fill="#2E75FE" transform="scale(1 -1) rotate(-88 -57.682 0)" cx="49.025" cy="103.045" r="5"/>
    <circle fill="#2E75FE" transform="scale(1 -1) rotate(-88 -44.291 0)" cx="59.948" cy="100.663" r="5"/>
    <circle fill="#2E75FE" transform="scale(1 -1) rotate(-88 -27.22 0)" cx="49.395" cy="73.986" r="5"/>
    <circle fill="#2E75FE" transform="scale(1 -1) rotate(-88 -51.256 0)" cx="61.227" cy="108.623" r="5"/>
    <circle fill="#2E75FE" transform="scale(1 -1) rotate(-88 -28.043 0)" cx="66.63" cy="91.424" r="5"/>
    <circle fill="#2E75FE" transform="scale(1 -1) rotate(-88 -7.723 0)" cx="75.24" cy="80.116" r="5"/>
    <circle fill="#2E75FE" transform="scale(1 -1) rotate(-88 -14.043 0)" cx="66.141" cy="77.432" r="5"/>
    <circle fill="#2E75FE" transform="scale(1 -1) rotate(-88 -49.504 0)" cx="34.756" cy="81.369" r="5"/>
    <circle fill="#2E75FE" transform="scale(1 -1) rotate(-88 -67.575 0)" cx="52.476" cy="115.933" r="5"/>
    <circle fill="#2E75FE" transform="scale(1 -1) rotate(-59 -102.737 0)" cx="325.083" cy="242.049" r="5"/>
    <circle fill="#2E75FE" transform="scale(1 -1) rotate(-59 -91.504 0)" cx="317.53" cy="231.42" r="5"/>
    <circle fill="#2E75FE" transform="scale(1 -1) rotate(-59 -71.667 0)" cx="316.151" cy="219.416" r="5"/>
    <circle fill="#2E75FE" transform="scale(1 -1) rotate(-88 -108.606 0)" cx="23.878" cy="127.938" r="5"/>
    <circle fill="#2E75FE" transform="scale(1 -1) rotate(-88 -90.286 0)" cx="32.558" cy="118.629" r="5"/>
    <circle fill="#2E75FE" transform="scale(1 -1) rotate(-59 -148.57 0)" cx="253.838" cy="227.671" r="5"/>
    <circle fill="#2E75FE" transform="scale(1 -1) rotate(-59 -143.872 0)" cx="246.116" cy="220.645" r="5"/>
    <circle fill="#2E75FE" transform="scale(1 -1) rotate(-59 -144.477 0)" cx="235.823" cy="215.163" r="5"/>
    <circle fill="#2E75FE" transform="scale(1 -1) rotate(-59 -736.671 0)" cx="65.492" cy="453.842" r="5"/>
    <circle fill="#2E75FE" transform="scale(1 -1) rotate(-59 -721.369 0)" cx="62.913" cy="443.725" r="5"/>
    <circle fill="#2E75FE" transform="scale(1 -1) rotate(-59 -251.174 0)" cx="240.221" cy="278.018" r="5"/>
    <circle fill="#2E75FE" transform="scale(1 -1) rotate(-59 -677.811 0)" cx="81.499" cy="429.597" r="5"/>
    <circle fill="#2E75FE" transform="scale(1 -1) rotate(-59 -50.265 0)" cx="308.435" cy="202.943" r="5"/>
    <circle fill="#2E75FE" transform="scale(1 -1) rotate(-59 -46.567 0)" cx="301.228" cy="196.773" r="5"/>
    <circle fill="#2E75FE" transform="scale(1 -1) rotate(-59 -73.475 0)" cx="299.179" cy="210.837" r="5"/>
    <circle fill="#2E75FE" transform="scale(1 -1) rotate(-59 -90.15 0)" cx="290.093" cy="215.131" r="5"/>
    <circle fill="#2E75FE" transform="scale(1 -1) rotate(-59 -655.369 0)" cx="90.699" cy="422.105" r="5"/>
    <circle fill="#2E75FE" transform="scale(1 -1) rotate(-59 -37.265 0)" cx="301.74" cy="191.8" r="5"/>
    <circle fill="#2E75FE" transform="scale(1 -1) rotate(-59 -65.777 0)" cx="289.912" cy="201.239" r="5"/>
    <circle fill="#2E75FE" transform="scale(1 -1) rotate(-59 -666.578 0)" cx="80.605" cy="422.736" r="5"/>
    <circle fill="#2E75FE" transform="scale(1 -1) rotate(-59 -786.95 0)" cx="63.108" cy="480.94" r="5"/>
    <circle fill="#2E75FE" transform="scale(1 -1) rotate(-59 -276.475 0)" cx="176.67" cy="256.377" r="5"/>
    <circle fill="#2E75FE" transform="scale(1 -1) rotate(-59 -251.497 0)" cx="186.783" cy="247.967" r="5"/>
    <circle fill="#2E75FE" transform="scale(1 -1) rotate(-59 -227.357 0)" cx="188.49" cy="235.275" r="5"/>
    <circle fill="#2E75FE" transform="scale(1 -1) rotate(-59 -226.985 0)" cx="200.67" cy="241.956" r="5"/>
    <circle fill="#2E75FE" transform="scale(1 -1) rotate(-59 -204.147 0)" cx="197.746" cy="227.38" r="5"/>
    <circle fill="#2E75FE" transform="scale(1 -1) rotate(-59 -199.007 0)" cx="209.238" cy="230.974" r="5"/>
    <circle fill="#2E75FE" transform="scale(1 -1) rotate(-59 -190.333 0)" cx="222.445" cy="233.539" r="5"/>
    <circle fill="#2E75FE" transform="scale(1 -1) rotate(-59 -766.416 0)" cx="56.067" cy="465.338" r="5"/>
    <circle fill="#2E75FE" transform="scale(1 -1) rotate(-59 -796.23 0)" cx="43.435" cy="475.06" r="5"/>
    <circle fill="#2E75FE" transform="scale(1 -1) rotate(-59 -265.01 0)" cx="167.23" cy="244.549" r="5"/>
    <circle fill="#2E75FE" transform="scale(1 -1) rotate(-59 -242.567 0)" cx="175.114" cy="236.312" r="5"/>
    <circle fill="#2E75FE" transform="scale(1 -1) rotate(-59 -239.87 0)" cx="168.422" cy="231" r="5"/>
    <circle fill="#2E75FE" transform="scale(1 -1) rotate(-59 -734.09 0)" cx="76.803" cy="458.782" r="5"/>
    <circle fill="#2E75FE" transform="scale(1 -1) rotate(-59 -250.847 0)" cx="151.098" cy="227.41" r="5"/>
    <circle fill="#2E75FE" transform="scale(1 -1) rotate(-59 -232.242 0)" cx="152.121" cy="217.462" r="5"/>
    <circle fill="#2E75FE" transform="scale(1 -1) rotate(-59 -96.847 0)" cx="298.844" cy="223.872" r="5"/>
    <circle fill="#2E75FE" transform="scale(1 -1) rotate(-59 -769.09 0)" cx="47.086" cy="461.77" r="5"/>
    <circle fill="#2E75FE" transform="scale(1 -1) rotate(-59 -720.463 0)" cx="87.792" cy="457.289" r="5"/>
    <circle fill="#2E75FE" transform="scale(1 -1) rotate(-59 -78.172 0)" cx="306.901" cy="217.864" r="5"/>
    <circle fill="#2E75FE" transform="scale(1 -1) rotate(-59 -212.545 0)" cx="136.673" cy="197.578" r="5"/>
    <circle fill="#2E75FE" transform="scale(1 -1) rotate(-59 -762.439 0)" cx="76.079" cy="474.41" r="5"/>
    <circle fill="#2E75FE" transform="scale(1 -1) rotate(-59 -742.601 0)" cx="81.616" cy="466.32" r="5"/>
    <circle fill="#2E75FE" transform="scale(1 -1) rotate(-59 -716.926 0)" cx="80.068" cy="450.917" r="5"/>
    <circle fill="#2E75FE" transform="scale(1 -1) rotate(-59 -817.856 0)" cx="139.12" cy="541.431" r="5"/>
    <circle fill="#2E75FE" transform="scale(1 -1) rotate(-59 -826.671 0)" cx="111.846" cy="530.987" r="5"/>
    <circle fill="#2E75FE" transform="scale(1 -1) rotate(-59 -827.509 0)" cx="103.439" cy="526.705" r="5"/>
    <circle fill="#2E75FE" transform="scale(1 -1) rotate(-59 -790.299 0)" cx="105.485" cy="506.81" r="5"/>
    <circle fill="#2E75FE" transform="scale(1 -1) rotate(-59 -772.996 0)" cx="101.876" cy="494.979" r="5"/>
    <circle fill="#2E75FE" transform="scale(1 -1) rotate(-59 -759.996 0)" cx="95.18" cy="483.836" r="5"/>
    <circle fill="#2E75FE" transform="scale(1 -1) rotate(-59 -752.089 0)" cx="107.015" cy="486.058" r="5"/>
    <circle fill="#2E75FE" transform="scale(1 -1) rotate(-59 -345.497 0)" cx="177.012" cy="295.621" r="5"/>
    <circle fill="#2E75FE" transform="scale(1 -1) rotate(-59 -307.267 0)" cx="137.737" cy="251.771" r="5"/>
    <circle fill="#2E75FE" transform="scale(1 -1) rotate(-59 -312.055 0)" cx="175.602" cy="275.903" r="5"/>
    <circle fill="#2E75FE" transform="scale(1 -1) rotate(-59 -272.448 0)" cx="122.083" cy="223.215" r="5"/>
    <circle fill="#2E75FE" transform="scale(1 -1) rotate(-59 -112.956 0)" cx="146.734" cy="146.925" r="5"/>
    <circle fill="#2E75FE" transform="scale(1 -1) rotate(-59 -144.956 0)" cx="108.155" cy="143.203" r="5"/>
    <circle fill="#2E75FE" transform="scale(1 -1) rotate(-59 -261.38 0)" cx="175.091" cy="246.943" r="5"/>
    <circle fill="#2E75FE" transform="scale(1 -1) rotate(-59 -634.296 0)" cx="101.14" cy="416.09" r="5"/>
    <circle fill="#2E75FE" transform="scale(1 -1) rotate(-59 -633.134 0)" cx="91.704" cy="410.093" r="5"/>
    <circle fill="#2E75FE" transform="scale(1 -1) rotate(-59 -612.761 0)" cx="93.584" cy="399.631" r="5"/>
    <circle fill="#2E75FE" transform="scale(1 -1) rotate(-59 -587.319 0)" cx="99.922" cy="388.822" r="5"/>
    <circle fill="#2E75FE" transform="scale(1 -1) rotate(-59 -562.644 0)" cx="104.889" cy="377.672" r="5"/>
    <circle fill="#2E75FE" transform="scale(1 -1) rotate(-59 -575.086 0)" cx="91.854" cy="377.337" r="5"/>
    <circle fill="#2E75FE" transform="scale(1 -1) rotate(-59 -546.272 0)" cx="108.829" cy="370.638" r="5"/>
    <circle fill="#2E75FE" transform="scale(1 -1) rotate(-59 -534.504 0)" cx="104.535" cy="361.551" r="5"/>
    <circle fill="#2E75FE" transform="scale(1 -1) rotate(-59 -530.597 0)" cx="118.43" cy="367.202" r="5"/>
    <circle fill="#2E75FE" transform="scale(1 -1) rotate(-59 -594.691 0)" cx="91.347" cy="388.142" r="5"/>
    <circle fill="#2E75FE" transform="scale(1 -1) rotate(-59 -615.459 0)" cx="100.275" cy="404.943" r="5"/>
    <circle fill="#2E75FE" transform="scale(1 -1) rotate(-59 -135.705 0)" cx="287.516" cy="239.447" r="5"/>
    <circle fill="#2E75FE" transform="scale(1 -1) rotate(-59 -118.007 0)" cx="309.261" cy="241.737" r="5"/>
    <circle fill="#2E75FE" transform="scale(1 -1) rotate(-59 -621.924 0)" cx="107.14" cy="412.485" r="5"/>
    <circle fill="#2E75FE" transform="scale(1 -1) rotate(-59 -134.265 0)" cx="337.024" cy="266.642" r="5"/>
    <circle fill="#2E75FE" transform="scale(1 -1) rotate(-59 -121.868 0)" cx="285.22" cy="230.319" r="5"/>
    <circle fill="#2E75FE" transform="scale(1 -1) rotate(-59 -418.13 0)" cx="201.968" cy="350.834" r="5"/>
    <circle fill="#2E75FE" transform="scale(1 -1) rotate(-59 -413.292 0)" cx="192.904" cy="342.969" r="5"/>
    <circle fill="#2E75FE" transform="scale(1 -1) rotate(-59 -406.34 0)" cx="230.442" cy="360.274" r="5"/>
    <circle fill="#2E75FE" transform="scale(1 -1) rotate(-59 -391.99 0)" cx="223.615" cy="348.292" r="5"/>
    <circle fill="#2E75FE" transform="scale(1 -1) rotate(-59 -595.784 0)" cx="107.817" cy="398.078" r="5"/>
    <circle fill="#2E75FE" transform="scale(1 -1) rotate(-59 -575.109 0)" cx="114.844" cy="390.356" r="5"/>
    <circle fill="#2E75FE" transform="scale(1 -1) rotate(-59 -552.132 0)" cx="117.554" cy="378.89" r="5"/>
    <circle fill="#2E75FE" transform="scale(1 -1) rotate(-59 -516.69 0)" cx="127.175" cy="364.281" r="5"/>
    <circle fill="#2E75FE" transform="scale(1 -1) rotate(-59 -499.782 0)" cx="126.799" cy="354.502" r="5"/>
    <circle fill="#2E75FE" transform="scale(1 -1) rotate(-59 -162.777 0)" cx="325.833" cy="276.442" r="5"/>
    <circle fill="#2E75FE" transform="scale(1 -1) rotate(-59 -219.825 0)" cx="112.143" cy="187.818" r="5"/>
    <circle fill="#2E75FE" transform="scale(1 -1) rotate(-59 -182.312 0)" cx="119.335" cy="170.664" r="5"/>
    <circle fill="#2E75FE" transform="scale(1 -1) rotate(-59 -185.707 0)" cx="131.689" cy="179.574" r="5"/>
    <circle fill="#2E75FE" transform="scale(1 -1) rotate(-59 -153.357 0)" cx="150.377" cy="171.845" r="5"/>
    <circle fill="#2E75FE" transform="scale(1 -1) rotate(-59 -127.682 0)" cx="154.828" cy="159.837" r="5"/>
    <circle fill="#2E75FE" transform="scale(1 -1) rotate(-59 -109.077 0)" cx="155.851" cy="149.889" r="5"/>
    <circle fill="#2E75FE" transform="scale(1 -1) rotate(-59 -127.31 0)" cx="167.009" cy="166.518" r="5"/>
    <circle fill="#2E75FE" transform="scale(1 -1) rotate(-59 -114.635 0)" cx="178.156" cy="165.653" r="5"/>
    <circle fill="#2E75FE" transform="scale(1 -1) rotate(-59 -157.242 0)" cx="113.493" cy="153.175" r="5"/>
    <circle fill="#2E75FE" transform="scale(1 -1) rotate(-59 -130.8 0)" cx="119.317" cy="141.509" r="5"/>
    <circle fill="#2E75FE" transform="scale(1 -1) rotate(-59 -150.335 0)" cx="125.843" cy="156.254" r="5"/>
    <circle fill="#2E75FE" transform="scale(1 -1) rotate(-59 -147.195 0)" cx="138.366" cy="161.562" r="5"/>
    <circle fill="#2E75FE" transform="scale(1 -1) rotate(-59 -165.87 0)" cx="130.309" cy="167.57" r="5"/>
    <circle fill="#2E75FE" transform="scale(1 -1) rotate(-59 -130.357 0)" cx="138.531" cy="152.13" r="5"/>
    <circle fill="#2E75FE" transform="scale(1 -1) rotate(-59 -112.59 0)" cx="131.148" cy="137.9" r="5"/>
    <circle fill="#2E75FE" transform="scale(1 -1) rotate(-59 -105.45 0)" cx="141.61" cy="139.78" r="5"/>
    <circle fill="#2E75FE" transform="scale(1 -1) rotate(-59 -87.24 0)" cx="153.441" cy="136.171" r="5"/>
    <circle fill="#2E75FE" transform="scale(1 -1) rotate(-59 -87.635 0)" cx="164.25" cy="142.51" r="5"/>
    <circle fill="#2E75FE" transform="scale(1 -1) rotate(-59 -107.125 0)" cx="124.798" cy="131.216" r="5"/>
    <circle fill="#2E75FE" transform="scale(1 -1) rotate(-59 -88.217 0)" cx="130.967" cy="124.009" r="5"/>
    <circle fill="#2E75FE" transform="scale(1 -1) rotate(-59 -67.31 0)" cx="136.107" cy="115.088" r="5"/>
    <circle fill="#2E75FE" transform="scale(1 -1) rotate(-59 -45.868 0)" cx="144.506" cy="107.708" r="5"/>
    <circle fill="#FBA55F" transform="scale(1 -1) rotate(-59 15.805 0)" cx="303.457" cy="162.746" r="5"/>
    <circle fill="#FBA55F" transform="scale(1 -1) rotate(-59 31.318 0)" cx="314.864" cy="160.423" r="5"/>
    <circle fill="#FBA55F" transform="scale(1 -1) rotate(-59 20.972 0)" cx="204.728" cy="103.964" r="5"/>
    <circle fill="#FBA55F" transform="scale(1 -1) rotate(-59 3.74 0)" cx="205.563" cy="114.186" r="5"/>
    <circle fill="#FBA55F" transform="scale(1 -1) rotate(-59 11.112 0)" cx="214.138" cy="114.867" r="5"/>
    <circle fill="#FBA55F" transform="scale(1 -1) rotate(-59 8.39 0)" cx="167.818" cy="90.2" r="5"/>
    <circle fill="#FBA55F" transform="scale(1 -1) rotate(-59 -12.472 0)" cx="230.168" cy="137.279" r="5"/>
    <circle fill="#FBA55F" transform="scale(1 -1) rotate(-59 23.114 0)" cx="97.83" cy="42.272" r="5"/>
    <circle fill="#FBA55F" transform="scale(1 -1) rotate(-59 -1.145 0)" cx="220.266" cy="125.269" r="5"/>
    <circle fill="#FBA55F" transform="scale(1 -1) rotate(-59 13.482 0)" cx="149.288" cy="76.835" r="5"/>
    <circle fill="#FBA55F" transform="scale(1 -1) rotate(-59 35.157 0)" cx="155.799" cy="68.256" r="5"/>
    <circle fill="#FBA55F" transform="scale(1 -1) rotate(-59 47.6 0)" cx="168.834" cy="68.591" r="5"/>
    <circle fill="#FBA55F" transform="scale(1 -1) rotate(-59 67.647 0)" cx="175.439" cy="60.986" r="5"/>
    <circle fill="#FBA55F" transform="scale(1 -1) rotate(-59 30.017 0)" cx="144.307" cy="64.662" r="5"/>
    <circle fill="#FBA55F" transform="scale(1 -1) rotate(-59 50.925 0)" cx="149.446" cy="55.741" r="5"/>
    <circle fill="#FBA55F" transform="scale(1 -1) rotate(-59 75.367 0)" cx="156.3" cy="45.789" r="5"/>
    <circle fill="#FBA55F" transform="scale(1 -1) rotate(-59 76.74 0)" cx="167.965" cy="51.613" r="5"/>
    <circle fill="#FBA55F" transform="scale(1 -1) rotate(-59 97.855 0)" cx="118.205" cy="11.514" r="5"/>
    <circle fill="#FBA55F" transform="scale(1 -1) rotate(-59 55.832 0)" cx="162.826" cy="60.534" r="5"/>
    <circle fill="#FBA55F" transform="scale(1 -1) rotate(-59 50.18 0)" cx="125.085" cy="42.379" r="5"/>
    <circle fill="#FBA55F" transform="scale(1 -1) rotate(-59 69.552 0)" cx="127.48" cy="32.774" r="5"/>
    <circle fill="#FBA55F" transform="scale(1 -1) rotate(-59 83.995 0)" cx="139.484" cy="31.394" r="5"/>
    <circle fill="#FBA55F" transform="scale(1 -1) rotate(-59 39.972 0)" cx="82.611" cy="24.124" r="5"/>
    <circle fill="#FBA55F" transform="scale(1 -1) rotate(-59 57.855 0)" cx="138.807" cy="45.8" r="5"/>
    <circle fill="#FBA55F" transform="scale(1 -1) rotate(-59 89.157 0)" cx="127.987" cy="21.969" r="5"/>
    <circle fill="#FBA55F" transform="scale(1 -1) rotate(-59 82.065 0)" cx="147.548" cy="37.049" r="5"/>
    <circle fill="#FBA55F" transform="scale(1 -1) rotate(-59 106.6 0)" cx="138.446" cy="18.018" r="5"/>
    <circle fill="#FBA55F" transform="scale(1 -1) rotate(-59 108.762 0)" cx="128.495" cy="11.164" r="5"/>
    <circle fill="#FBA55F" transform="scale(1 -1) rotate(-59 19.737 0)" cx="121.321" cy="57.473" r="5"/>
    <circle fill="#FBA55F" transform="scale(1 -1) rotate(-59 2.25 0)" cx="156.841" cy="87.463" r="5"/>
    <circle fill="#FBA55F" transform="scale(1 -1) rotate(-59 27.46 0)" cx="165.066" cy="77.854" r="5"/>
    <circle fill="#FBA55F" transform="scale(1 -1) rotate(-59 -26.958 0)" cx="95.187" cy="69.106" r="5"/>
    <circle fill="#FBA55F" transform="scale(1 -1) rotate(-59 -1.235 0)" cx="89.992" cy="51.614" r="5"/>
    <circle fill="#FBA55F" transform="scale(1 -1) rotate(-59 31.95 0)" cx="134.34" cy="57.93" r="5"/>
    <circle fill="#FBA55F" transform="scale(1 -1) rotate(-59 -22.96 0)" cx="148.615" cy="97.072" r="5"/>
    <circle fill="#FBA55F" transform="scale(1 -1) rotate(-59 -19.588 0)" cx="159.25" cy="101.182" r="5"/>
    <circle fill="#FBA55F" transform="scale(1 -1) rotate(-59 -18.1 0)" cx="131.972" cy="84.906" r="5"/>
    <circle fill="#FBA55F" transform="scale(1 -1) rotate(-59 8.342 0)" cx="137.795" cy="73.241" r="5"/>
    <circle fill="#FBA55F" transform="scale(1 -1) rotate(-59 -9.193 0)" cx="143.291" cy="86.271" r="5"/>
    <circle fill="#FBA55F" transform="scale(1 -1) rotate(-59 -4.24 0)" cx="110.693" cy="65.026" r="5"/>
    <circle fill="#FBA55F" transform="scale(1 -1) rotate(-59 -16.705 0)" cx="120.648" cy="77.711" r="5"/>
    <circle fill="#FBA55F" transform="scale(1 -1) rotate(-59 10.505 0)" cx="127.844" cy="66.387" r="5"/>
    <circle fill="#FBA55F" transform="scale(1 -1) rotate(-59 -33.635 0)" cx="136.438" cy="96.223" r="5"/>
    <circle fill="#FBA55F" transform="scale(1 -1) rotate(-59 -36.285 0)" cx="162.009" cy="112.19" r="5"/>
    <circle fill="#FBA55F" transform="scale(1 -1) rotate(-59 -24.863 0)" cx="82.021" cy="60.472" r="5"/>
    <circle fill="#FBA55F" transform="scale(1 -1) rotate(-59 -43.448 0)" cx="185.679" cy="129.634" r="5"/>
    <circle fill="#FBA55F" transform="scale(1 -1) rotate(-59 -35.005 0)" cx="200.773" cy="133.397" r="5"/>
    <circle fill="#FBA55F" transform="scale(1 -1) rotate(-59 -23.33 0)" cx="212.435" cy="133.39" r="5"/>
    <circle fill="#FBA55F" transform="scale(1 -1) rotate(-59 78.765 0)" cx="256.09" cy="100.326" r="5"/>
    <circle fill="#FBA55F" transform="scale(1 -1) rotate(-59 -9.378 0)" cx="192.326" cy="114.118" r="5"/>
    <circle fill="#FBA55F" transform="scale(1 -1) rotate(-59 -21.238 0)" cx="195.45" cy="122.596" r="5"/>
    <circle fill="#FBA55F" transform="scale(1 -1) rotate(-59 24.952 0)" cx="109.889" cy="48.055" r="5"/>
    <circle fill="#FBA55F" transform="scale(1 -1) rotate(-59 1.882 0)" cx="101.344" cy="56.273" r="5"/>
    <circle fill="#FBA55F" transform="scale(1 -1) rotate(-59 -92.653 0)" cx="26.89" cy="67.634" r="5"/>
    <circle fill="#FBA55F" transform="scale(1 -1) rotate(-59 -39.355 0)" cx="176.754" cy="122.269" r="5"/>
    <circle fill="#FBA55F" transform="scale(1 -1) rotate(-59 3.202 0)" cx="292.697" cy="163.788" r="5"/>
    <circle fill="#FBA55F" transform="scale(1 -1) rotate(-59 43.692 0)" cx="294.641" cy="141.98" r="5"/>
    <circle fill="#FBA55F" transform="scale(1 -1) rotate(-59 -62.443 0)" cx="57.239" cy="67.713" r="5"/>
    <circle fill="#FBA55F" transform="scale(1 -1) rotate(-59 -10.96 0)" cx="306.217" cy="179.45" r="5"/>
    <circle fill="#FBA55F" transform="scale(1 -1) rotate(-59 20.927 0)" cx="231.131" cy="118.928" r="5"/>
    <circle fill="#FBA55F" transform="scale(1 -1) rotate(-59 -4.145 0)" cx="258.393" cy="148.537" r="5"/>
    <circle fill="#FBA55F" transform="scale(1 -1) rotate(-59 -12.168 0)" cx="247.626" cy="146.984" r="5"/>
    <circle fill="#FBA55F" transform="scale(1 -1) rotate(-59 9.947 0)" cx="313.51" cy="171.747" r="5"/>
    <circle fill="#FBA55F" transform="scale(1 -1) rotate(-59 -3.728 0)" cx="320.021" cy="183.168" r="5"/>
    <circle fill="#FBA55F" transform="scale(1 -1) rotate(-59 98.487 0)" cx="267.541" cy="95.646" r="5"/>
    <circle fill="#FBA55F" transform="scale(-1 1) rotate(31 0 -269.283)" cx="85.187" cy="37.891" r="5"/>
    <circle fill="#FBA55F" transform="scale(-1 1) rotate(31 0 -230.012)" cx="76.961" cy="47.5" r="5"/>
    <circle fill="#FBA55F" transform="scale(1 -1) rotate(-59 52.092 0)" cx="247.759" cy="110.703" r="5"/>
    <circle fill="#FBA55F" transform="scale(1 -1) rotate(-59 70.72 0)" cx="264.465" cy="109.616" r="5"/>
    <circle fill="#FBA55F" transform="scale(1 -1) rotate(-59 -153.35 0)" cx="11.464" cy="93.248" r="5"/>
    <circle fill="#FBA55F" transform="scale(1 -1) rotate(-59 71.974 0)" cx="307.291" cy="133.136" r="5"/>
    <circle fill="#FBA55F" transform="scale(1 -1) rotate(-59 -6.983 0)" cx="315.126" cy="182.24" r="5"/>
    <circle fill="#FBA55F" transform="scale(-1 1) rotate(31 0 -227.83)" cx="72.837" cy="34.812" r="5"/>
    <circle fill="#FBA55F" transform="scale(-1 1) rotate(31 0 -144.106)" cx="50.716" cy="38.77" r="5"/>
    <circle fill="#FBA55F" transform="scale(-1 1) rotate(31 0 -187.953)" cx="64.182" cy="43.481" r="5"/>
    <circle fill="#FBA55F" transform="scale(-1 1) rotate(31 0 -177.924)" cx="65.133" cy="56.94" r="5"/>
    <circle fill="#FBA55F" transform="scale(-1 1) rotate(31 0 -142.077)" cx="54.671" cy="55.06" r="5"/>
    <circle fill="#FBA55F" transform="scale(1 -1) rotate(-59 79.837 0)" cx="282.176" cy="114.478" r="5"/>
    <circle fill="#FBA55F" transform="scale(1 -1) rotate(-59 92.907 0)" cx="279.026" cy="105.301" r="5"/>
    <circle fill="#FBA55F" transform="scale(1 -1) rotate(-59 82.21 0)" cx="293.326" cy="119.444" r="5"/>
    <circle fill="#FBA55F" transform="scale(-1 1) rotate(31 0 -115.047)" cx="45.75" cy="49.921" r="5"/>
    <circle fill="#FBA55F" transform="scale(-1 1) rotate(31 0 -93.412)" cx="36.201" cy="37.123" r="5"/>
    <circle fill="#FBA55F" transform="scale(-1 1) rotate(31 0 -80.989)" cx="38.208" cy="56.785" r="5"/>
    <circle fill="#FBA55F" transform="scale(-1 1) rotate(31 0 -52.353)" cx="29.46" cy="53.875" r="5"/>
    <circle fill="#FBA55F" transform="scale(1 -1) rotate(-59 29.324 0)" cx="281.679" cy="142.776" r="5"/>
    <circle fill="#FBA55F" transform="scale(1 -1) rotate(-59 52.302 0)" cx="292.822" cy="136.08" r="5"/>
    <circle fill="#FBA55F" transform="scale(1 -1) rotate(-59 57.464 0)" cx="281.326" cy="126.655" r="5"/>
    <circle fill="#FBA55F" transform="scale(1 -1) rotate(-59 -63.554 0)" cx="49.138" cy="63.758" r="5"/>
    <circle fill="#FBA55F" transform="scale(1 -1) rotate(-59 18.86 0)" cx="290.604" cy="153.746" r="5"/>
    <circle fill="#FBA55F" transform="scale(1 -1) rotate(-59 38.837 0)" cx="303.292" cy="149.622" r="5"/>
    <circle fill="#FBA55F" transform="scale(1 -1) rotate(-59 49.744 0)" cx="313.582" cy="149.272" r="5"/>
    <circle fill="#FBA55F" transform="scale(1 -1) rotate(-59 83.257 0)" cx="299.571" cy="122.385" r="5"/>
    <circle fill="#FBA55F" transform="scale(1 -1) rotate(-59 37.234 0)" cx="254.274" cy="122.795" r="5"/>
    <circle fill="#FBA55F" transform="scale(1 -1) rotate(-59 54.193 0)" cx="93.608" cy="22.299" r="5"/>
    <circle fill="#FBA55F" transform="scale(1 -1) rotate(-59 67.636 0)" cx="106.127" cy="21.777" r="5"/>
    <circle fill="#FBA55F" transform="scale(1 -1) rotate(-59 -47.854 0)" cx="71.803" cy="67.699" r="5"/>
    <circle fill="#FBA55F" transform="scale(1 -1) rotate(-59 42.728 0)" cx="103.047" cy="34.127" r="5"/>
    <circle fill="#FBA55F" transform="scale(1 -1) rotate(-59 65.473 0)" cx="116.078" cy="28.631" r="5"/>
    <circle fill="#FBA55F" transform="scale(1 -1) rotate(-59 47.868 0)" cx="114.54" cy="37.721" r="5"/>
    <circle fill="#FBA55F" transform="scale(1 -1) rotate(-59 17.792 0)" cx="244.845" cy="128.46" r="5"/>
    <circle fill="#FBA55F" transform="scale(1 -1) rotate(-59 24.467 0)" cx="259.082" cy="132.739" r="5"/>
    <circle fill="#FBA55F" transform="scale(1 -1) rotate(-59 45.141 0)" cx="266.108" cy="125.017" r="5"/>
    <circle fill="#FBA55F" transform="scale(1 -1) rotate(-59 11.699 0)" cx="263.89" cy="142.683" r="5"/>
    <circle fill="#FBA55F" transform="scale(1 -1) rotate(-59 38.909 0)" cx="271.086" cy="131.359" r="5"/>
    <circle fill="#FBA55F" transform="scale(1 -1) rotate(-59 -39.324 0)" cx="79.991" cy="67.505" r="5"/>
    <circle fill="#FBA55F" transform="scale(1 -1) rotate(-59 2.65 0)" cx="277.743" cy="155.64" r="5"/>
    <circle fill="#FBA55F" transform="scale(1 -1) rotate(-59 9.884 0)" cx="233.01" cy="126.238" r="5"/>
    <circle fill="#FBA55F" transform="scale(1 -1) rotate(-59 1.722 0)" cx="246.051" cy="138.235" r="5"/>
    <circle fill="#FBA55F" transform="scale(1 -1) rotate(-59 87.31 0)" cx="113.668" cy="14.912" r="5"/>
    <circle fill="#FBA55F" transform="scale(1 -1) rotate(-59 77.1 0)" cx="97.717" cy="11.664" r="5"/>
    <circle fill="#FBA55F" transform="scale(1 -1) rotate(-59 -84.111 0)" cx="39.299" cy="69.822" r="5"/>
    <circle fill="#FBA55F" transform="scale(1 -1) rotate(-59 -12.328 0)" cx="207.479" cy="124.361" r="5"/>
    <circle fill="#FBA55F" transform="scale(1 -1) rotate(-59 -56.1 0)" cx="151.543" cy="117.479" r="5"/>
    <circle fill="#2E75FE" transform="scale(1 -1) rotate(-59 -82.077 0)" cx="141.945" cy="126.746" r="5"/>
    <circle fill="#2E75FE" transform="scale(1 -1) rotate(-59 -95.125 0)" cx="118.618" cy="120.93" r="5"/>
    <circle fill="#2E75FE" transform="scale(1 -1) rotate(-59 -81.055 0)" cx="118.441" cy="112.869" r="5"/>
    <circle fill="#2E75FE" transform="scale(1 -1) rotate(-59 -55.845 0)" cx="126.667" cy="103.26" r="5"/>
    <circle fill="#2E75FE" transform="scale(1 -1) rotate(-59 -34.007 0)" cx="124.257" cy="89.542" r="5"/>
    <circle fill="#2E75FE" transform="scale(1 -1) rotate(-59 -87.962 0)" cx="106.091" cy="109.79" r="5"/>
    <circle fill="#2E75FE" transform="scale(1 -1) rotate(-59 -95.265 0)" cx="93.944" cy="107.049" r="5"/>
    <circle fill="#2E75FE" transform="scale(1 -1) rotate(-59 -69.59 0)" cx="109.001" cy="101.042" r="5"/>
    <circle fill="#2E75FE" transform="scale(1 -1) rotate(-59 -48.682 0)" cx="114.14" cy="92.121" r="5"/>
    <circle fill="#2E75FE" transform="scale(1 -1) rotate(-59 -28.38 0)" cx="108.986" cy="77.718" r="5"/>
    <circle fill="#2E75FE" transform="scale(1 -1) rotate(-59 -171.685 0)" cx="101.489" cy="154.554" r="5"/>
    <circle fill="#2E75FE" transform="scale(1 -1) rotate(-59 -199.22 0)" cx="112.136" cy="176.156" r="5"/>
    <circle fill="#2E75FE" transform="scale(1 -1) rotate(-59 -846.229 0)" cx="141.361" cy="558.751" r="5"/>
    <circle fill="#2E75FE" transform="scale(1 -1) rotate(-59 -857.111 0)" cx="184.083" cy="589.079" r="5"/>
    <circle fill="#2E75FE" transform="scale(1 -1) rotate(-59 -858.204 0)" cx="190.805" cy="593.501" r="5"/>
    <circle fill="#2E75FE" transform="scale(1 -1) rotate(-59 -862.901 0)" cx="203.072" cy="603.099" r="5"/>
    <circle fill="#2E75FE" transform="scale(1 -1) rotate(-59 -871.599 0)" cx="208.568" cy="611.129" r="5"/>
    <circle fill="#2E75FE" transform="scale(1 -1) rotate(-59 -948.576 0)" cx="163.14" cy="628.979" r="5"/>
    <circle fill="#2E75FE" transform="scale(1 -1) rotate(-59 -904.831 0)" cx="190.812" cy="619.885" r="5"/>
    <circle fill="#2E75FE" transform="scale(1 -1) rotate(-59 -20.111 0)" cx="334.009" cy="200.351" r="5"/>
    <circle fill="#2E75FE" transform="scale(1 -1) rotate(-59 -881.366 0)" cx="211.174" cy="618.129" r="5"/>
    <circle fill="#2E75FE" transform="scale(1 -1) rotate(-59 -930.226 0)" cx="192.249" cy="635.066" r="5"/>
    <circle fill="#2E75FE" transform="scale(1 -1) rotate(-59 -341.881 0)" cx="125.114" cy="264.213" r="5"/>
    <circle fill="#2E75FE" transform="scale(1 -1) rotate(-59 -282.599 0)" cx="98.234" cy="215.465" r="5"/>
    <circle fill="#2E75FE" transform="scale(1 -1) rotate(-59 -164.41 0)" cx="87.463" cy="142.503" r="5"/>
    <circle fill="#2E75FE" transform="scale(1 -1) rotate(-59 -167.525 0)" cx="73.152" cy="136.168" r="5"/>
    <circle fill="#2E75FE" transform="scale(1 -1) rotate(-59 -394.649 0)" cx="46.245" cy="249.446" r="5"/>
    <circle fill="#2E75FE" transform="scale(-1 1) rotate(65 0 -118.126)" cx="172.545" cy="152.716" r="5"/>
    <circle fill="#2E75FE" transform="scale(1 -1) rotate(-59 -917.109 0)" cx="159.039" cy="608.855" r="5"/>
    <circle fill="#2E75FE" transform="scale(1 -1) rotate(-59 -150.669 0)" cx="213.531" cy="206.055" r="5"/>
    <circle fill="#2E75FE" transform="scale(1 -1) rotate(-59 -375.046 0)" cx="136.527" cy="289.434" r="5"/>
    <circle fill="#2E75FE" transform="scale(1 -1) rotate(-59 -32.157 0)" cx="321.419" cy="200.043" r="5"/>
    <circle fill="#2E75FE" transform="scale(1 -1) rotate(-59 -373.278 0)" cx="186.742" cy="316.844" r="5"/>
    <circle fill="#2E75FE" transform="scale(1 -1) rotate(-59 -187.152 0)" cx="18.366" cy="116.277" r="5"/>
    <circle fill="#2E75FE" transform="scale(1 -1) rotate(-59 -962.109 0)" cx="165.769" cy="638.123" r="5"/>
    <circle fill="#2E75FE" transform="scale(1 -1) rotate(-59 -15.084 0)" cx="296.205" cy="176.119" r="5"/>
    <circle fill="#2E75FE" transform="scale(-1 1) rotate(65 0 -118.44)" cx="189.831" cy="179.534" r="5"/>
    <circle fill="#2E75FE" transform="scale(1 -1) rotate(-59 -33.782 0)" cx="281.555" cy="178.409" r="5"/>
    <circle fill="#2E75FE" transform="scale(1 -1) rotate(-59 -818.637 0)" cx="128.126" cy="535.653" r="5"/>
    <circle fill="#2E75FE" transform="scale(1 -1) rotate(-59 -893.287 0)" cx="36.187" cy="525.871" r="5"/>
    <circle fill="#2E75FE" transform="scale(1 -1) rotate(-59 -777.1 0)" cx="123.337" cy="509.443" r="5"/>
    <circle fill="#2E75FE" transform="scale(1 -1) rotate(-59 -449.37 0)" cx="159.649" cy="344.567" r="5"/>
    <circle fill="#2E75FE" transform="scale(1 -1) rotate(-59 -769.89 0)" cx="82.506" cy="482.262" r="5"/>
    <circle fill="#2E75FE" transform="scale(1 -1) rotate(-59 -892.247 0)" cx="201.318" cy="618.709" r="5"/>
    <circle fill="#2E75FE" transform="scale(1 -1) rotate(-59 -225.04 0)" cx="89.625" cy="178.029" r="5"/>
    <circle fill="#2E75FE" transform="scale(1 -1) rotate(-59 -233.531 0)" cx="221.975" cy="257.713" r="5"/>
    <circle fill="#2E75FE" transform="scale(1 -1) rotate(-59 -385.068 0)" cx="167.178" cy="312.446" r="5"/>
    <circle fill="#2E75FE" transform="scale(1 -1) rotate(-59 -920.041 0)" cx="167.328" cy="615.204" r="5"/>
    <circle fill="#2E75FE" transform="scale(-1 1) rotate(65 0 -138.24)" cx="174.775" cy="136.102" r="5"/>
    <circle fill="#2E75FE" transform="scale(-1 1) rotate(65 0 -142.392)" cx="183.538" cy="145.705" r="5"/>
    <circle fill="#2E75FE" transform="scale(-1 1) rotate(65 0 -138.265)" cx="188.797" cy="158.088" r="5"/>
    <circle fill="#2E75FE" transform="scale(-1 1) rotate(65 0 -136.113)" cx="181.847" cy="149.33" r="5"/>
    <circle fill="#2E75FE" transform="scale(1 -1) rotate(-59 -920.179 0)" cx="174.641" cy="619.419" r="5"/>
    <circle fill="#2E75FE" transform="scale(-1 1) rotate(65 0 -130.707)" cx="189.948" cy="167.451" r="5"/>
    <circle fill="#2E75FE" transform="scale(-1 1) rotate(65 0 -131.04)" cx="207.768" cy="195.091" r="5"/>
    <circle fill="#2E75FE" transform="scale(-1 1) rotate(65 0 -165.089)" cx="194.108" cy="139.6" r="5"/>
    <circle fill="#2E75FE" transform="scale(-1 1) rotate(65 0 -184.368)" cx="207.581" cy="141.469" r="5"/>
    <circle fill="#2E75FE" transform="scale(-1 1) rotate(65 0 -183.24)" cx="215.559" cy="155.12" r="5"/>
    <circle fill="#2E75FE" transform="scale(1 -1) rotate(-59 -928.646 0)" cx="150.948" cy="610.805" r="5"/>
    <circle fill="#2E75FE" transform="scale(1 -1) rotate(-59 -925.134 0)" cx="143.637" cy="604.681" r="5"/>
    <circle fill="#2E75FE" transform="scale(-1 1) rotate(65 0 -127.319)" cx="221.489" cy="220.349" r="5"/>
    <circle fill="#2E75FE" transform="scale(-1 1) rotate(65 0 -163.67)" cx="198.823" cy="148.419" r="5"/>
    <circle fill="#2E75FE" transform="scale(-1 1) rotate(65 0 -168.392)" cx="207.102" cy="156.693" r="5"/>
    <circle fill="#2E75FE" transform="scale(-1 1) rotate(65 0 -153.265)" cx="202.392" cy="164.427" r="5"/>
    <circle fill="#2E75FE" transform="scale(-1 1) rotate(65 0 -131.15)" cx="198.349" cy="180.196" r="5"/>
    <circle fill="#2E75FE" transform="scale(1 -1) rotate(-59 -916.777 0)" cx="39.461" cy="541.014" r="5"/>
    <circle fill="#2E75FE" transform="scale(1 -1) rotate(-59 -905.247 0)" cx="171.453" cy="609.168" r="5"/>
    <circle fill="#2E75FE" transform="scale(-1 1) rotate(65 0 -168.404)" cx="214.113" cy="167.686" r="5"/>
    <circle fill="#2E75FE" transform="scale(-1 1) rotate(65 0 -148.998)" cx="209.525" cy="179.89" r="5"/>
    <circle fill="#2E75FE" transform="scale(1 -1) rotate(-59 -762.985 0)" cx="113.623" cy="495.961" r="5"/>
    <circle fill="#2E75FE" transform="scale(-1 1) rotate(65 0 -200.47)" cx="221.511" cy="147.232" r="5"/>
    <circle fill="#2E75FE" transform="scale(1 -1) rotate(-59 -898.949 0)" cx="162.426" cy="600.497" r="5"/>
    <circle fill="#2E75FE" transform="scale(1 -1) rotate(-59 -241.933 0)" cx="200.533" cy="250.335" r="5"/>
    <circle fill="#2E75FE" transform="scale(1 -1) rotate(-59 -779.996 0)" cx="115.051" cy="506.393" r="5"/>
    <circle fill="#2E75FE" transform="scale(1 -1) rotate(-59 -891.976 0)" cx="87.758" cy="554.307" r="5"/>
    <circle fill="#2E75FE" transform="scale(1 -1) rotate(-59 -881.37 0)" cx="69.318" cy="537.874" r="5"/>
    <circle fill="#2E75FE" transform="scale(1 -1) rotate(-59 -890.673 0)" cx="56.747" cy="536.024" r="5"/>
    <circle fill="#2E75FE" transform="scale(1 -1) rotate(-59 -870.138 0)" cx="61.766" cy="527.246" r="5"/>
    <circle fill="#2E75FE" transform="scale(1 -1) rotate(-59 -849.533 0)" cx="61.758" cy="515.584" r="5"/>
    <circle fill="#2E75FE" transform="scale(1 -1) rotate(-59 -862.906 0)" cx="56.273" cy="520.046" r="5"/>
    <circle fill="#2E75FE" transform="scale(1 -1) rotate(-59 -843.626 0)" cx="74.623" cy="519.52" r="5"/>
    <circle fill="#2E75FE" transform="scale(1 -1) rotate(-59 -926.673 0)" cx="95.781" cy="578.477" r="5"/>
    <circle fill="#2E75FE" transform="scale(1 -1) rotate(-59 -888.858 0)" cx="96.059" cy="557.239" r="5"/>
    <circle fill="#2E75FE" transform="scale(1 -1) rotate(-59 -904.393 0)" cx="113.503" cy="575.898" r="5"/>
    <circle fill="#2E75FE" transform="scale(1 -1) rotate(-59 -914.556 0)" cx="118.225" cy="584.319" r="5"/>
    <circle fill="#2E75FE" transform="scale(1 -1) rotate(-59 -888.346 0)" cx="125.936" cy="573.853" r="5"/>
    <circle fill="#2E75FE" transform="scale(1 -1) rotate(-59 -878.904 0)" cx="140.515" cy="576.759" r="5"/>
    <circle fill="#2E75FE" transform="scale(1 -1) rotate(-59 -865.369 0)" cx="137.079" cy="567.157" r="5"/>
    <circle fill="#2E75FE" transform="scale(1 -1) rotate(-59 -849.136 0)" cx="126.951" cy="552.243" r="5"/>
    <circle fill="#2E75FE" transform="scale(1 -1) rotate(-59 -905.416 0)" cx="127.657" cy="584.485" r="5"/>
    <circle fill="#2E75FE" transform="scale(1 -1) rotate(-59 -897.858 0)" cx="48.208" cy="535.259" r="5"/>
    <circle fill="#2E75FE" transform="scale(1 -1) rotate(-59 -866.276 0)" cx="38.772" cy="512.052" r="5"/>
    <circle fill="#2E75FE" transform="scale(1 -1) rotate(-59 -914.908 0)" cx="149.208" cy="602.048" r="5"/>
    <circle fill="#2E75FE" transform="scale(1 -1) rotate(-59 -924.698 0)" cx="134.355" cy="599.183" r="5"/>
    <circle fill="#2E75FE" transform="scale(1 -1) rotate(-59 -149.789 0)" cx="30.209" cy="101.837" r="5"/>
    <circle fill="#2E75FE" transform="scale(1 -1) rotate(-59 -54.974 0)" cx="102.637" cy="89.172" r="5"/>
    <circle fill="#2E75FE" transform="scale(1 -1) rotate(-59 -904.696 0)" cx="106.502" cy="572.108" r="5"/>
    <circle fill="#2E75FE" transform="scale(1 -1) rotate(-59 -941.603 0)" cx="109.224" cy="594.53" r="5"/>
    <circle fill="#2E75FE" transform="scale(1 -1) rotate(-59 -933.393 0)" cx="119.089" cy="595.466" r="5"/>
    <circle fill="#2E75FE" transform="scale(1 -1) rotate(-59 -284.032 0)" cx="200.005" cy="273.855" r="5"/>
    <circle fill="#2E75FE" transform="scale(1 -1) rotate(-59 -936.928 0)" cx="99.514" cy="586.391" r="5"/>
    <circle fill="#2E75FE" transform="scale(1 -1) rotate(-59 -948.463 0)" cx="115.954" cy="602.218" r="5"/>
    <circle fill="#2E75FE" transform="scale(1 -1) rotate(-59 -924.976 0)" cx="105.931" cy="583.259" r="5"/>
    <circle fill="#2E75FE" transform="rotate(-121 49.344 545.901)" cx="49.344" cy="545.901" r="5"/>
    <circle fill="#2E75FE" transform="rotate(-121 108.915 210.75)" cx="108.915" cy="210.751" r="5"/>
    <circle fill="#2E75FE" transform="rotate(-121 80.912 112.315)" cx="80.912" cy="112.315" r="5"/>
    <circle fill="#2E75FE" transform="rotate(-121 47.193 522.33)" cx="47.193" cy="522.329" r="5"/>
    <circle fill="#2E75FE" transform="rotate(-121 37.19 91.893)" cx="37.19" cy="91.893" r="5"/>
    <circle fill="#2E75FE" transform="rotate(-121 57.611 551.171)" cx="57.611" cy="551.171" r="5"/>
    <circle fill="#2E75FE" transform="rotate(-121 87.18 530.98)" cx="87.179" cy="530.979" r="5"/>
    <circle fill="#2E75FE" transform="rotate(-121 309.31 231.582)" cx="309.311" cy="231.582" r="5"/>
    <circle fill="#2E75FE" transform="rotate(-121 74.63 531.182)" cx="74.63" cy="531.182" r="5"/>
    <path d="M302.402 115.555l18.928 19.807a6.771 6.771 0 011.846 5.15l-2.567 35.079 11.054 16.202 12.38 3.862a6.746 6.746 0 014.735 6.436v3.336l4.749 2.642a6.735 6.735 0 013.455 6.382l-3.657 49.3a6.727 6.727 0 01-2.64 4.86L331.5 283.216c-3.28 2.5-8.009 1.496-9.996-2.11l-2.89-5.237-24.093 2.339H270.61l-24.734 5.58-14.051 23.953a6.735 6.735 0 01-2.99 2.71l-7 3.22 5.733 27.175 10.104 8.546a6.743 6.743 0 012.276 6.389l-2.748 14.605c-.72 3.882-4.62 6.308-8.433 5.25l-16.442-4.563a6.744 6.744 0 01-2.775-1.55l-22.478-20.799-29.01 2.487a6.747 6.747 0 01-7.073-4.913l-4.567-16.431a6.755 6.755 0 01-.04-3.437l2.465-9.88h-7.22l-9.283 3.241 2.924 4.738a6.736 6.736 0 01.35 6.403l-6.466 13.735 2.485 19.04a6.68 6.68 0 01-.963 4.441l-13.189 21.081-8.878 31.926-.262.761L96.2 451.402l2.89 29.668h17.64c3.106 0 5.82 2.13 6.555 5.149l6.965 28.63h2.007c3.098 0 5.8 2.11 6.547 5.102l10.616 42.432 13.532 17.28h22.288a6.74 6.74 0 014.998 2.204l27.408 30.126a6.74 6.74 0 01-.377 9.45l-20.45 19.167c-2.654 2.487-6.81 2.426-9.383-.149l-4.31-4.306-14.584 9.712a6.75 6.75 0 01-9.463-2.036l-4.567-7.299a6.745 6.745 0 01-.782-5.378l2.681-9.644-5.004-1.16a6.724 6.724 0 01-4.823-4.259l-2.041-5.6h-10.804a6.748 6.748 0 01-4.77-1.975l-3.165-3.168-2.56 2.878c-2.573 2.898-7.059 3.026-9.807.29l-17.358-17.348a6.895 6.895 0 01-1.2-1.624l-18.05-34.285-11.418-15.946-1.354 13.096c-.418 4.064-4.331 6.82-8.305 5.856l-14.974-3.653a6.752 6.752 0 01-5.085-5.681l-6.75-52.037a6.759 6.759 0 01.485-3.497l15.614-36.704 9.383-20.313-3.388-5.075a6.732 6.732 0 011.522-9.099l17.554-13.364 10.38-30.416-3.005-27.376-10.38-19.869a6.769 6.769 0 01-.592-4.63L69 315.828l-2.391-19.861-21.413-28.684-.748-1.274-11.882-26.473a6.748 6.748 0 013.274-8.849l13.768-6.517 1.57-24.343a6.748 6.748 0 014.027-5.736l9.215-4.03-.633-2.224h-5.88a6.744 6.744 0 01-6.71-6.106l-1.63-17.112-33.396-40.39a6.639 6.639 0 01-1.387-2.831l-3.287-14.787L1.63 95.107c-3.435-4.004-1.138-10.218 4.068-11.04l11.033-1.745-1.158-10.98a6.663 6.663 0 01.418-3.12l13.7-35.605c1.53-3.976 6.318-5.553 9.915-3.269l7.726 4.914 23.4-4.96 2.587-9.692a6.75 6.75 0 015.846-4.974l10.34-1.031-.647-2.352c-1.387-5.102 3.375-9.753 8.447-8.23l6.574 1.969 8.575-4.28a6.684 6.684 0 014.257-.593l14.616 2.736a6.73 6.73 0 013.745 2.09l9.14 10.041a6.72 6.72 0 011.368 6.774l-4.573 12.94 2.175 4.71 11.37-1.893 1.112-.088h13.7a6.744 6.744 0 016.669 5.702l4.108 26.473a6.752 6.752 0 01-.545 3.882l-11.33 24.31 3.078 12.286a6.747 6.747 0 01-.282 4.138l-5.194 12.96 35.8-28.92a6.744 6.744 0 018.528.041l13.66 11.242h14.341l12.596-16.519a6.73 6.73 0 015.362-2.649h23.75c2.115 0 4.102.984 5.375 2.656l17.122 22.524z" stroke="#D5E5FF" stroke-width="3"/>
  </g>
</svg>
